G04 #@! TF.GenerationSoftware,KiCad,Pcbnew,5.0.2+dfsg1-1~bpo9+1*
G04 #@! TF.CreationDate,2022-02-11T12:22:13+01:00*
G04 #@! TF.ProjectId,nubus-to-ztex,6e756275-732d-4746-9f2d-7a7465782e6b,rev?*
G04 #@! TF.SameCoordinates,Original*
G04 #@! TF.FileFunction,Copper,L3,Inr*
G04 #@! TF.FilePolarity,Positive*
%FSLAX46Y46*%
G04 Gerber Fmt 4.6, Leading zero omitted, Abs format (unit mm)*
G04 Created by KiCad (PCBNEW 5.0.2+dfsg1-1~bpo9+1) date Fri Feb 11 12:22:13 2022*
%MOMM*%
%LPD*%
G01*
G04 APERTURE LIST*
G04 #@! TA.AperFunction,ViaPad*
%ADD10R,1.350000X1.350000*%
G04 #@! TD*
G04 #@! TA.AperFunction,ViaPad*
%ADD11O,1.350000X1.350000*%
G04 #@! TD*
G04 #@! TA.AperFunction,ViaPad*
%ADD12C,1.450000*%
G04 #@! TD*
G04 #@! TA.AperFunction,ViaPad*
%ADD13O,1.900000X1.200000*%
G04 #@! TD*
G04 #@! TA.AperFunction,ViaPad*
%ADD14R,1.700000X1.700000*%
G04 #@! TD*
G04 #@! TA.AperFunction,ViaPad*
%ADD15O,1.700000X1.700000*%
G04 #@! TD*
G04 #@! TA.AperFunction,Conductor*
%ADD16C,0.100000*%
G04 #@! TD*
G04 #@! TA.AperFunction,ViaPad*
%ADD17C,1.740000*%
G04 #@! TD*
G04 #@! TA.AperFunction,ViaPad*
%ADD18O,1.740000X2.200000*%
G04 #@! TD*
G04 #@! TA.AperFunction,ViaPad*
%ADD19C,2.000000*%
G04 #@! TD*
G04 #@! TA.AperFunction,ViaPad*
%ADD20C,1.500000*%
G04 #@! TD*
G04 #@! TA.AperFunction,ViaPad*
%ADD21C,3.500000*%
G04 #@! TD*
G04 #@! TA.AperFunction,ViaPad*
%ADD22R,1.600000X1.600000*%
G04 #@! TD*
G04 #@! TA.AperFunction,ViaPad*
%ADD23C,1.600000*%
G04 #@! TD*
G04 #@! TA.AperFunction,ViaPad*
%ADD24C,1.550000*%
G04 #@! TD*
G04 #@! TA.AperFunction,ViaPad*
%ADD25C,0.800000*%
G04 #@! TD*
G04 #@! TA.AperFunction,Conductor*
%ADD26C,0.800000*%
G04 #@! TD*
G04 #@! TA.AperFunction,Conductor*
%ADD27C,0.152400*%
G04 #@! TD*
G04 #@! TA.AperFunction,Conductor*
%ADD28C,0.500000*%
G04 #@! TD*
G04 #@! TA.AperFunction,Conductor*
%ADD29C,0.250000*%
G04 #@! TD*
G04 #@! TA.AperFunction,Conductor*
%ADD30C,0.254000*%
G04 #@! TD*
G04 APERTURE END LIST*
D10*
G04 #@! TO.N,GND*
G04 #@! TO.C,J2*
X116600000Y-75800000D03*
D11*
G04 #@! TO.N,+3V3*
X114600000Y-75800000D03*
G04 #@! TO.N,GND*
X116600000Y-73800000D03*
G04 #@! TO.N,CPLD_JTAG_TMS*
X114600000Y-73800000D03*
G04 #@! TO.N,GND*
X116600000Y-71800000D03*
G04 #@! TO.N,CPLD_JTAG_TCK*
X114600000Y-71800000D03*
G04 #@! TO.N,GND*
X116600000Y-69800000D03*
G04 #@! TO.N,CPLD_JTAG_TDO*
X114600000Y-69800000D03*
G04 #@! TO.N,GND*
X116600000Y-67800000D03*
G04 #@! TO.N,CPLD_JTAG_TDI*
X114600000Y-67800000D03*
G04 #@! TO.N,GND*
X116600000Y-65800000D03*
G04 #@! TO.N,Net-(J2-Pad12)*
X114600000Y-65800000D03*
G04 #@! TO.N,GND*
X116600000Y-63800000D03*
G04 #@! TO.N,Net-(J2-Pad14)*
X114600000Y-63800000D03*
G04 #@! TD*
D12*
G04 #@! TO.N,SHIELD*
G04 #@! TO.C,J6*
X269197500Y-81570000D03*
X269197500Y-76570000D03*
D13*
X271897500Y-82570000D03*
X271897500Y-75570000D03*
G04 #@! TD*
D14*
G04 #@! TO.N,+3V3*
G04 #@! TO.C,J8*
X202830000Y-79080000D03*
D15*
G04 #@! TO.N,GND*
X205370000Y-79080000D03*
G04 #@! TD*
D16*
G04 #@! TO.N,GND*
G04 #@! TO.C,J7*
G36*
X218884505Y-90171204D02*
X218908773Y-90174804D01*
X218932572Y-90180765D01*
X218955671Y-90189030D01*
X218977850Y-90199520D01*
X218998893Y-90212132D01*
X219018599Y-90226747D01*
X219036777Y-90243223D01*
X219053253Y-90261401D01*
X219067868Y-90281107D01*
X219080480Y-90302150D01*
X219090970Y-90324329D01*
X219099235Y-90347428D01*
X219105196Y-90371227D01*
X219108796Y-90395495D01*
X219110000Y-90419999D01*
X219110000Y-92120001D01*
X219108796Y-92144505D01*
X219105196Y-92168773D01*
X219099235Y-92192572D01*
X219090970Y-92215671D01*
X219080480Y-92237850D01*
X219067868Y-92258893D01*
X219053253Y-92278599D01*
X219036777Y-92296777D01*
X219018599Y-92313253D01*
X218998893Y-92327868D01*
X218977850Y-92340480D01*
X218955671Y-92350970D01*
X218932572Y-92359235D01*
X218908773Y-92365196D01*
X218884505Y-92368796D01*
X218860001Y-92370000D01*
X217619999Y-92370000D01*
X217595495Y-92368796D01*
X217571227Y-92365196D01*
X217547428Y-92359235D01*
X217524329Y-92350970D01*
X217502150Y-92340480D01*
X217481107Y-92327868D01*
X217461401Y-92313253D01*
X217443223Y-92296777D01*
X217426747Y-92278599D01*
X217412132Y-92258893D01*
X217399520Y-92237850D01*
X217389030Y-92215671D01*
X217380765Y-92192572D01*
X217374804Y-92168773D01*
X217371204Y-92144505D01*
X217370000Y-92120001D01*
X217370000Y-90419999D01*
X217371204Y-90395495D01*
X217374804Y-90371227D01*
X217380765Y-90347428D01*
X217389030Y-90324329D01*
X217399520Y-90302150D01*
X217412132Y-90281107D01*
X217426747Y-90261401D01*
X217443223Y-90243223D01*
X217461401Y-90226747D01*
X217481107Y-90212132D01*
X217502150Y-90199520D01*
X217524329Y-90189030D01*
X217547428Y-90180765D01*
X217571227Y-90174804D01*
X217595495Y-90171204D01*
X217619999Y-90170000D01*
X218860001Y-90170000D01*
X218884505Y-90171204D01*
X218884505Y-90171204D01*
G37*
D17*
X218240000Y-91270000D03*
D18*
G04 #@! TO.N,+5V*
X220780000Y-91270000D03*
G04 #@! TO.N,GND*
X223320000Y-91270000D03*
G04 #@! TD*
D14*
G04 #@! TO.N,Net-(JCD1-Pad1)*
G04 #@! TO.C,JCD1*
X130000000Y-30000000D03*
D15*
G04 #@! TO.N,Net-(JCD1-Pad2)*
X130000000Y-27460000D03*
G04 #@! TO.N,GND*
X132540000Y-30000000D03*
X132540000Y-27460000D03*
G04 #@! TO.N,/B2B/RX*
X135080000Y-30000000D03*
G04 #@! TO.N,/B2B/TX*
X135080000Y-27460000D03*
G04 #@! TO.N,~ID3_3V3*
X137620000Y-30000000D03*
G04 #@! TO.N,~ID2_3V3*
X137620000Y-27460000D03*
G04 #@! TO.N,~ID0_3V3*
X140160000Y-30000000D03*
G04 #@! TO.N,~ID1_3V3*
X140160000Y-27460000D03*
G04 #@! TO.N,tmoen*
X142700000Y-30000000D03*
G04 #@! TO.N,LED0*
X142700000Y-27460000D03*
G04 #@! TO.N,HDMI_HPD_A*
X145240000Y-30000000D03*
G04 #@! TO.N,LED1*
X145240000Y-27460000D03*
G04 #@! TO.N,HDMI_SDA_A*
X147780000Y-30000000D03*
G04 #@! TO.N,~CLK2X_3V3*
X147780000Y-27460000D03*
G04 #@! TO.N,HDMI_SCL_A*
X150320000Y-30000000D03*
G04 #@! TO.N,~TM2_3V3*
X150320000Y-27460000D03*
G04 #@! TO.N,HDMI_CEC_A*
X152860000Y-30000000D03*
G04 #@! TO.N,FPGA_VGA_HS*
X152860000Y-27460000D03*
G04 #@! TO.N,HDMI_CLK+*
X155400000Y-30000000D03*
G04 #@! TO.N,FPGA_VGA_VS*
X155400000Y-27460000D03*
G04 #@! TO.N,HDMI_CLK-*
X157940000Y-30000000D03*
G04 #@! TO.N,HDMI_D0-*
X157940000Y-27460000D03*
G04 #@! TO.N,HDMI_D1-*
X160480000Y-30000000D03*
G04 #@! TO.N,HDMI_D0+*
X160480000Y-27460000D03*
G04 #@! TO.N,HDMI_D1+*
X163020000Y-30000000D03*
G04 #@! TO.N,HDMI_D2-*
X163020000Y-27460000D03*
G04 #@! TO.N,FPGA_VGA_CLK*
X165560000Y-30000000D03*
G04 #@! TO.N,HDMI_D2+*
X165560000Y-27460000D03*
G04 #@! TO.N,+3V3*
X168100000Y-30000000D03*
X168100000Y-27460000D03*
G04 #@! TO.N,GND*
X170640000Y-30000000D03*
X170640000Y-27460000D03*
G04 #@! TO.N,+3V3*
X173180000Y-30000000D03*
X173180000Y-27460000D03*
G04 #@! TO.N,FPGA_B7*
X175720000Y-30000000D03*
G04 #@! TO.N,FPGA_R0*
X175720000Y-27460000D03*
G04 #@! TO.N,FPGA_B6*
X178260000Y-30000000D03*
G04 #@! TO.N,FPGA_R1*
X178260000Y-27460000D03*
G04 #@! TO.N,FPGA_B5*
X180800000Y-30000000D03*
G04 #@! TO.N,FPGA_R2*
X180800000Y-27460000D03*
G04 #@! TO.N,FPGA_B4*
X183340000Y-30000000D03*
G04 #@! TO.N,FPGA_R3*
X183340000Y-27460000D03*
G04 #@! TO.N,FPGA_B3*
X185880000Y-30000000D03*
G04 #@! TO.N,FPGA_R4*
X185880000Y-27460000D03*
G04 #@! TO.N,FPGA_B2*
X188420000Y-30000000D03*
G04 #@! TO.N,FPGA_R5*
X188420000Y-27460000D03*
G04 #@! TO.N,FPGA_B1*
X190960000Y-30000000D03*
G04 #@! TO.N,FPGA_R6*
X190960000Y-27460000D03*
G04 #@! TO.N,FPGA_B0*
X193500000Y-30000000D03*
G04 #@! TO.N,FPGA_R7*
X193500000Y-27460000D03*
G04 #@! TO.N,FPGA_G7*
X196040000Y-30000000D03*
G04 #@! TO.N,FPGA_G0*
X196040000Y-27460000D03*
G04 #@! TO.N,FPGA_G6*
X198580000Y-30000000D03*
G04 #@! TO.N,FPGA_G1*
X198580000Y-27460000D03*
G04 #@! TO.N,FPGA_G5*
X201120000Y-30000000D03*
G04 #@! TO.N,FPGA_G2*
X201120000Y-27460000D03*
G04 #@! TO.N,FPGA_G4*
X203660000Y-30000000D03*
G04 #@! TO.N,FPGA_G3*
X203660000Y-27460000D03*
G04 #@! TO.N,FPGA_JTAG_TDO*
X206200000Y-30000000D03*
G04 #@! TO.N,FPGA_JTAG_TMS*
X206200000Y-27460000D03*
G04 #@! TO.N,GND*
X208740000Y-30000000D03*
X208740000Y-27460000D03*
G04 #@! TD*
D10*
G04 #@! TO.N,GND*
G04 #@! TO.C,J1*
X228230000Y-27500000D03*
D11*
G04 #@! TO.N,/B2B/JTAG_VIO*
X228230000Y-29500000D03*
G04 #@! TO.N,GND*
X226230000Y-27500000D03*
G04 #@! TO.N,FPGA_JTAG_TMS*
X226230000Y-29500000D03*
G04 #@! TO.N,GND*
X224230000Y-27500000D03*
G04 #@! TO.N,FPGA_JTAG_TCK*
X224230000Y-29500000D03*
G04 #@! TO.N,GND*
X222230000Y-27500000D03*
G04 #@! TO.N,FPGA_JTAG_TDO*
X222230000Y-29500000D03*
G04 #@! TO.N,GND*
X220230000Y-27500000D03*
G04 #@! TO.N,FPGA_JTAG_TDI*
X220230000Y-29500000D03*
G04 #@! TO.N,GND*
X218230000Y-27500000D03*
G04 #@! TO.N,Net-(J1-Pad12)*
X218230000Y-29500000D03*
G04 #@! TO.N,GND*
X216230000Y-27500000D03*
G04 #@! TO.N,Net-(J1-Pad14)*
X216230000Y-29500000D03*
G04 #@! TD*
D19*
G04 #@! TO.N,SHIELD*
G04 #@! TO.C,J5*
X270800000Y-70150000D03*
X270800000Y-54450000D03*
X265850000Y-69550000D03*
X265850000Y-55050000D03*
G04 #@! TD*
D20*
G04 #@! TO.N,Net-(J9-Pad15)*
G04 #@! TO.C,J9*
X264540000Y-38460000D03*
G04 #@! TO.N,/vga/VGA_VS*
X264540000Y-36170000D03*
G04 #@! TO.N,/vga/VGA_HS*
X264540000Y-33876000D03*
G04 #@! TO.N,Net-(J9-Pad12)*
X264540000Y-31590000D03*
G04 #@! TO.N,Net-(J9-Pad11)*
X264540000Y-29300000D03*
G04 #@! TO.N,GND*
X262000000Y-37320000D03*
G04 #@! TO.N,Net-(J9-Pad9)*
X262000000Y-35030000D03*
G04 #@! TO.N,GND*
X262000000Y-32740000D03*
X262000000Y-30450000D03*
X262000000Y-28160000D03*
X259460000Y-38460000D03*
G04 #@! TO.N,Net-(J9-Pad4)*
X259460000Y-36170000D03*
G04 #@! TO.N,/vga/VGA_B*
X259460000Y-33880000D03*
G04 #@! TO.N,/vga/VGA_G*
X259460000Y-31590000D03*
G04 #@! TO.N,/vga/VGA_R*
X259460000Y-29300000D03*
D21*
G04 #@! TO.N,SHIELD*
X262000000Y-21130000D03*
X262000000Y-46130000D03*
G04 #@! TD*
D22*
G04 #@! TO.N,SHIELD*
G04 #@! TO.C,C39*
X252540000Y-13380000D03*
D23*
G04 #@! TO.N,GND*
X252540000Y-15880000D03*
G04 #@! TD*
D16*
G04 #@! TO.N,-12V*
G04 #@! TO.C,J4*
G36*
X200549505Y-99226204D02*
X200573773Y-99229804D01*
X200597572Y-99235765D01*
X200620671Y-99244030D01*
X200642850Y-99254520D01*
X200663893Y-99267132D01*
X200683599Y-99281747D01*
X200701777Y-99298223D01*
X200718253Y-99316401D01*
X200732868Y-99336107D01*
X200745480Y-99357150D01*
X200755970Y-99379329D01*
X200764235Y-99402428D01*
X200770196Y-99426227D01*
X200773796Y-99450495D01*
X200775000Y-99474999D01*
X200775000Y-100525001D01*
X200773796Y-100549505D01*
X200770196Y-100573773D01*
X200764235Y-100597572D01*
X200755970Y-100620671D01*
X200745480Y-100642850D01*
X200732868Y-100663893D01*
X200718253Y-100683599D01*
X200701777Y-100701777D01*
X200683599Y-100718253D01*
X200663893Y-100732868D01*
X200642850Y-100745480D01*
X200620671Y-100755970D01*
X200597572Y-100764235D01*
X200573773Y-100770196D01*
X200549505Y-100773796D01*
X200525001Y-100775000D01*
X199474999Y-100775000D01*
X199450495Y-100773796D01*
X199426227Y-100770196D01*
X199402428Y-100764235D01*
X199379329Y-100755970D01*
X199357150Y-100745480D01*
X199336107Y-100732868D01*
X199316401Y-100718253D01*
X199298223Y-100701777D01*
X199281747Y-100683599D01*
X199267132Y-100663893D01*
X199254520Y-100642850D01*
X199244030Y-100620671D01*
X199235765Y-100597572D01*
X199229804Y-100573773D01*
X199226204Y-100549505D01*
X199225000Y-100525001D01*
X199225000Y-99474999D01*
X199226204Y-99450495D01*
X199229804Y-99426227D01*
X199235765Y-99402428D01*
X199244030Y-99379329D01*
X199254520Y-99357150D01*
X199267132Y-99336107D01*
X199281747Y-99316401D01*
X199298223Y-99298223D01*
X199316401Y-99281747D01*
X199336107Y-99267132D01*
X199357150Y-99254520D01*
X199379329Y-99244030D01*
X199402428Y-99235765D01*
X199426227Y-99229804D01*
X199450495Y-99226204D01*
X199474999Y-99225000D01*
X200525001Y-99225000D01*
X200549505Y-99226204D01*
X200549505Y-99226204D01*
G37*
D24*
X200000000Y-100000000D03*
G04 #@! TO.N,SB0_5V*
X197460000Y-100000000D03*
G04 #@! TO.N,~SPV_5V*
X194920000Y-100000000D03*
G04 #@! TO.N,~SP_5V*
X192380000Y-100000000D03*
G04 #@! TO.N,~TM1_5V*
X189840000Y-100000000D03*
G04 #@! TO.N,~AD1_5V*
X187300000Y-100000000D03*
G04 #@! TO.N,~AD3_5V*
X184760000Y-100000000D03*
G04 #@! TO.N,~AD5_5V*
X182220000Y-100000000D03*
G04 #@! TO.N,~AD7_5V*
X179680000Y-100000000D03*
G04 #@! TO.N,~AD9_5V*
X177140000Y-100000000D03*
G04 #@! TO.N,~AD11_5V*
X174600000Y-100000000D03*
G04 #@! TO.N,~AD13_5V*
X172060000Y-100000000D03*
G04 #@! TO.N,~AD15_5V*
X169520000Y-100000000D03*
G04 #@! TO.N,~AD17_5V*
X166980000Y-100000000D03*
G04 #@! TO.N,~AD19_5V*
X164440000Y-100000000D03*
G04 #@! TO.N,~AD21_5V*
X161900000Y-100000000D03*
G04 #@! TO.N,~AD23_5V*
X159360000Y-100000000D03*
G04 #@! TO.N,~AD25_5V*
X156820000Y-100000000D03*
G04 #@! TO.N,~AD27_5V*
X154280000Y-100000000D03*
G04 #@! TO.N,~AD29_5V*
X151740000Y-100000000D03*
G04 #@! TO.N,~AD31_5V*
X149200000Y-100000000D03*
G04 #@! TO.N,GND*
X146660000Y-100000000D03*
X144120000Y-100000000D03*
G04 #@! TO.N,~ARB1_5V*
X141580000Y-100000000D03*
G04 #@! TO.N,~ARB3_5V*
X139040000Y-100000000D03*
G04 #@! TO.N,~ID1_5V*
X136500000Y-100000000D03*
G04 #@! TO.N,~ID3_5V*
X133960000Y-100000000D03*
G04 #@! TO.N,~ACK_5V*
X131420000Y-100000000D03*
G04 #@! TO.N,+5V*
X128880000Y-100000000D03*
G04 #@! TO.N,~RQST_5V*
X126340000Y-100000000D03*
G04 #@! TO.N,~NMRQ_5V*
X123800000Y-100000000D03*
G04 #@! TO.N,+12V*
X121260000Y-100000000D03*
G04 #@! TO.N,-12V*
X200000000Y-97460000D03*
G04 #@! TO.N,GND*
X197460000Y-97460000D03*
X194920000Y-97460000D03*
G04 #@! TO.N,+5V*
X192380000Y-97460000D03*
X189840000Y-97460000D03*
X187300000Y-97460000D03*
X184760000Y-97460000D03*
G04 #@! TO.N,~TM2_5V*
X182220000Y-97460000D03*
G04 #@! TO.N,~CM0_5V*
X179680000Y-97460000D03*
G04 #@! TO.N,~CM1_5V*
X177140000Y-97460000D03*
G04 #@! TO.N,~CM2_5V*
X174600000Y-97460000D03*
G04 #@! TO.N,GND*
X172060000Y-97460000D03*
X169520000Y-97460000D03*
X166980000Y-97460000D03*
X164440000Y-97460000D03*
X161900000Y-97460000D03*
X159360000Y-97460000D03*
X156820000Y-97460000D03*
X154280000Y-97460000D03*
X151740000Y-97460000D03*
X149200000Y-97460000D03*
X146660000Y-97460000D03*
X144120000Y-97460000D03*
G04 #@! TO.N,~CLK2X_5V*
X141580000Y-97460000D03*
G04 #@! TO.N,STDBYPWR*
X139040000Y-97460000D03*
G04 #@! TO.N,~CLK2XEN_5V*
X136500000Y-97460000D03*
G04 #@! TO.N,~CBUSY_5V*
X133960000Y-97460000D03*
G04 #@! TO.N,+5V*
X131420000Y-97460000D03*
X128880000Y-97460000D03*
G04 #@! TO.N,GND*
X126340000Y-97460000D03*
X123800000Y-97460000D03*
G04 #@! TO.N,+12V*
X121260000Y-97460000D03*
G04 #@! TO.N,~RESET_5V*
X200000000Y-94920000D03*
G04 #@! TO.N,SB1_5V*
X197460000Y-94920000D03*
G04 #@! TO.N,+5V*
X194920000Y-94920000D03*
X192380000Y-94920000D03*
G04 #@! TO.N,~TM0_5V*
X189840000Y-94920000D03*
G04 #@! TO.N,~AD0_5V*
X187300000Y-94920000D03*
G04 #@! TO.N,~AD2_5V*
X184760000Y-94920000D03*
G04 #@! TO.N,~AD4_5V*
X182220000Y-94920000D03*
G04 #@! TO.N,~AD6_5V*
X179680000Y-94920000D03*
G04 #@! TO.N,~AD8_5V*
X177140000Y-94920000D03*
G04 #@! TO.N,~AD10_5V*
X174600000Y-94920000D03*
G04 #@! TO.N,~AD12_5V*
X172060000Y-94920000D03*
G04 #@! TO.N,~AD14_5V*
X169520000Y-94920000D03*
G04 #@! TO.N,~AD16_5V*
X166980000Y-94920000D03*
G04 #@! TO.N,~AD18_5V*
X164440000Y-94920000D03*
G04 #@! TO.N,~AD20_5V*
X161900000Y-94920000D03*
G04 #@! TO.N,~AD22_5V*
X159360000Y-94920000D03*
G04 #@! TO.N,~AD24_5V*
X156820000Y-94920000D03*
G04 #@! TO.N,~AD26_5V*
X154280000Y-94920000D03*
G04 #@! TO.N,~AD28_5V*
X151740000Y-94920000D03*
G04 #@! TO.N,~AD30_5V*
X149200000Y-94920000D03*
G04 #@! TO.N,GND*
X146660000Y-94920000D03*
G04 #@! TO.N,~PFW_5V*
X144120000Y-94920000D03*
G04 #@! TO.N,~ARB0_5V*
X141580000Y-94920000D03*
G04 #@! TO.N,~ARB2_5V*
X139040000Y-94920000D03*
G04 #@! TO.N,~ID0_5V*
X136500000Y-94920000D03*
G04 #@! TO.N,~ID2_5V*
X133960000Y-94920000D03*
G04 #@! TO.N,~START_5V*
X131420000Y-94920000D03*
G04 #@! TO.N,+5V*
X128880000Y-94920000D03*
X126340000Y-94920000D03*
G04 #@! TO.N,GND*
X123800000Y-94920000D03*
G04 #@! TO.N,~CLK_5V*
X121260000Y-94920000D03*
G04 #@! TD*
D15*
G04 #@! TO.N,Net-(J3-Pad6)*
G04 #@! TO.C,J3*
X121900000Y-20800000D03*
G04 #@! TO.N,/B2B/TX*
X121900000Y-23340000D03*
G04 #@! TO.N,/B2B/RX*
X121900000Y-25880000D03*
G04 #@! TO.N,Net-(J3-Pad3)*
X121900000Y-28420000D03*
G04 #@! TO.N,Net-(J3-Pad2)*
X121900000Y-30960000D03*
D14*
G04 #@! TO.N,GND*
X121900000Y-33500000D03*
G04 #@! TD*
D15*
G04 #@! TO.N,GND*
G04 #@! TO.C,JAB1*
X208740000Y-59210000D03*
G04 #@! TO.N,/B2B/JTAG_VIO*
X208740000Y-61750000D03*
G04 #@! TO.N,FPGA_JTAG_TCK*
X206200000Y-59210000D03*
G04 #@! TO.N,FPGA_JTAG_TDI*
X206200000Y-61750000D03*
G04 #@! TO.N,USBH0_D-*
X203660000Y-59210000D03*
G04 #@! TO.N,USBH0_D+*
X203660000Y-61750000D03*
G04 #@! TO.N,~AD0_3V3*
X201120000Y-59210000D03*
G04 #@! TO.N,~AD1_3V3*
X201120000Y-61750000D03*
G04 #@! TO.N,~AD2_3V3*
X198580000Y-59210000D03*
G04 #@! TO.N,~AD3_3V3*
X198580000Y-61750000D03*
G04 #@! TO.N,~AD4_3V3*
X196040000Y-59210000D03*
G04 #@! TO.N,~AD5_3V3*
X196040000Y-61750000D03*
G04 #@! TO.N,~AD6_3V3*
X193500000Y-59210000D03*
G04 #@! TO.N,~AD7_3V3*
X193500000Y-61750000D03*
G04 #@! TO.N,~AD8_3V3*
X190960000Y-59210000D03*
G04 #@! TO.N,~AD9_3V3*
X190960000Y-61750000D03*
G04 #@! TO.N,~AD10_3V3*
X188420000Y-59210000D03*
G04 #@! TO.N,~AD11_3V3*
X188420000Y-61750000D03*
G04 #@! TO.N,~AD12_3V3*
X185880000Y-59210000D03*
G04 #@! TO.N,~AD13_3V3*
X185880000Y-61750000D03*
G04 #@! TO.N,~AD14_3V3*
X183340000Y-59210000D03*
G04 #@! TO.N,~AD15_3V3*
X183340000Y-61750000D03*
G04 #@! TO.N,~AD16_3V3*
X180800000Y-59210000D03*
G04 #@! TO.N,~AD17_3V3*
X180800000Y-61750000D03*
G04 #@! TO.N,~AD18_3V3*
X178260000Y-59210000D03*
G04 #@! TO.N,~AD19_3V3*
X178260000Y-61750000D03*
G04 #@! TO.N,~AD20_3V3*
X175720000Y-59210000D03*
G04 #@! TO.N,~AD21_3V3*
X175720000Y-61750000D03*
G04 #@! TO.N,~AD22_3V3*
X173180000Y-59210000D03*
G04 #@! TO.N,~AD23_3V3*
X173180000Y-61750000D03*
G04 #@! TO.N,+3V3*
X170640000Y-59210000D03*
X170640000Y-61750000D03*
G04 #@! TO.N,GND*
X168100000Y-59210000D03*
X168100000Y-61750000D03*
G04 #@! TO.N,+3V3*
X165560000Y-59210000D03*
X165560000Y-61750000D03*
G04 #@! TO.N,~AD24_3V3*
X163020000Y-59210000D03*
G04 #@! TO.N,NUBUS_OE*
X163020000Y-61750000D03*
G04 #@! TO.N,~AD26_3V3*
X160480000Y-59210000D03*
G04 #@! TO.N,~AD25_3V3*
X160480000Y-61750000D03*
G04 #@! TO.N,~AD28_3V3*
X157940000Y-59210000D03*
G04 #@! TO.N,~AD27_3V3*
X157940000Y-61750000D03*
G04 #@! TO.N,~AD30_3V3*
X155400000Y-59210000D03*
G04 #@! TO.N,~AD29_3V3*
X155400000Y-61750000D03*
G04 #@! TO.N,~CLK_3V3*
X152860000Y-59210000D03*
G04 #@! TO.N,~AD31_3V3*
X152860000Y-61750000D03*
G04 #@! TO.N,NUBUS_AD_DIR*
X150320000Y-59210000D03*
G04 #@! TO.N,~RESET_3V3*
X150320000Y-61750000D03*
G04 #@! TO.N,fpga_to_cpld_signal_2*
X147780000Y-59210000D03*
G04 #@! TO.N,NUBUS_MASTER_DIR*
X147780000Y-61750000D03*
G04 #@! TO.N,fpga_to_cpld_clk*
X145240000Y-59210000D03*
G04 #@! TO.N,fpga_to_cpld_signal*
X145240000Y-61750000D03*
G04 #@! TO.N,ARB*
X142700000Y-59210000D03*
G04 #@! TO.N,GRANT*
X142700000Y-61750000D03*
G04 #@! TO.N,~ACK_3V3*
X140160000Y-59210000D03*
G04 #@! TO.N,~START_3V3*
X140160000Y-61750000D03*
G04 #@! TO.N,~TM1_3V3*
X137620000Y-59210000D03*
G04 #@! TO.N,~TM0_3V3*
X137620000Y-61750000D03*
G04 #@! TO.N,~NMRQ_3V3*
X135080000Y-59210000D03*
G04 #@! TO.N,~RQST_3V3*
X135080000Y-61750000D03*
G04 #@! TO.N,GND*
X132540000Y-59210000D03*
X132540000Y-61750000D03*
G04 #@! TO.N,+5V*
X130000000Y-59210000D03*
D14*
X130000000Y-61750000D03*
G04 #@! TD*
D25*
G04 #@! TO.N,GND*
X137500000Y-89312500D03*
X256220000Y-61875000D03*
X128980000Y-79260000D03*
X246250000Y-22250000D03*
X252900000Y-82730000D03*
X256000000Y-31500000D03*
X251500000Y-23100000D03*
X252380000Y-61875000D03*
X256000000Y-33300000D03*
X262640000Y-79355000D03*
X149900000Y-71000000D03*
X117200000Y-84780000D03*
X189500000Y-71000000D03*
X243770000Y-35180000D03*
X125750000Y-73500000D03*
X115200000Y-87480000D03*
X145400000Y-88100000D03*
X255250000Y-27250000D03*
X242870000Y-30170000D03*
X248840000Y-40287500D03*
X139300000Y-87450000D03*
X155357500Y-79750000D03*
X148200000Y-86800000D03*
X141650000Y-14352500D03*
X256010000Y-87920000D03*
X127100000Y-70212500D03*
X179857500Y-79750000D03*
X115200000Y-90730000D03*
X263200000Y-67357500D03*
X145300000Y-90050000D03*
X224140000Y-96000000D03*
X248670000Y-34670001D03*
X146500000Y-80800000D03*
X194857500Y-79750000D03*
X168357500Y-79750000D03*
X163000000Y-71000000D03*
X137200000Y-72100000D03*
X267730000Y-79355000D03*
X267720000Y-77180000D03*
X233600000Y-36600000D03*
X267000000Y-65550000D03*
X140550000Y-75950000D03*
X174500000Y-71000000D03*
X135152523Y-83900000D03*
X247020000Y-29510000D03*
X267000000Y-58050000D03*
X255500000Y-58625000D03*
X255040000Y-53812500D03*
X248890000Y-16170000D03*
X115200000Y-89430000D03*
X186450000Y-79750000D03*
X183600000Y-71000000D03*
X116300000Y-16437500D03*
X246062500Y-59100000D03*
X267000000Y-61050000D03*
X244180000Y-99750000D03*
X236450000Y-82730000D03*
X254302500Y-45750000D03*
X230600000Y-64600000D03*
X170640000Y-21260000D03*
X115850000Y-48950000D03*
X158100000Y-92000000D03*
X196200000Y-92480000D03*
X196200000Y-89100000D03*
X123800000Y-93000000D03*
G04 #@! TO.N,+3V3*
X256000000Y-22250000D03*
X140112500Y-65000000D03*
X143500000Y-77950000D03*
X127250000Y-71787500D03*
X252000000Y-33000000D03*
X117503601Y-60080000D03*
X117503601Y-52370000D03*
X256000000Y-29500000D03*
X248080000Y-63750000D03*
X117503601Y-57330000D03*
X161750000Y-73687500D03*
X222537500Y-59000000D03*
X148750000Y-73687500D03*
X257550000Y-55387500D03*
X173300000Y-73700000D03*
X160287500Y-20250000D03*
X241210000Y-35980000D03*
X246800000Y-26300000D03*
X118665134Y-45500000D03*
X118665134Y-39500000D03*
X137500000Y-90887500D03*
X245550000Y-57975000D03*
X136727523Y-83900000D03*
X188250000Y-73687500D03*
X161000000Y-14700000D03*
X121200000Y-84780000D03*
X181250000Y-73687500D03*
X116300000Y-11212500D03*
X182100000Y-87100000D03*
X118300000Y-79800000D03*
X115812500Y-82500000D03*
X126287500Y-82100000D03*
X143787500Y-86100000D03*
X140387500Y-83700000D03*
G04 #@! TO.N,+5V*
X253850000Y-87660000D03*
X246230000Y-61872500D03*
X131697842Y-88000000D03*
X129897842Y-88000000D03*
X128097842Y-88000000D03*
X133421568Y-88014972D03*
X220840000Y-97970000D03*
G04 #@! TO.N,~RESET_5V*
X146000000Y-74450000D03*
G04 #@! TO.N,~TM1_5V*
X140500000Y-78000000D03*
X183850000Y-85000000D03*
G04 #@! TO.N,~TM2_5V*
X186900000Y-73800000D03*
X134960000Y-80370000D03*
X179800000Y-84200000D03*
G04 #@! TO.N,~TM0_5V*
X139750000Y-77000000D03*
X185800000Y-85000000D03*
G04 #@! TO.N,~ID3_3V3*
X125600000Y-38077042D03*
G04 #@! TO.N,~ID2_3V3*
X125600000Y-41043708D03*
G04 #@! TO.N,~ID1_3V3*
X125600000Y-44010374D03*
G04 #@! TO.N,~ID0_3V3*
X125600000Y-46977042D03*
G04 #@! TO.N,~CLK2X_5V*
X132920000Y-80370000D03*
G04 #@! TO.N,~START_3V3*
X132600000Y-73600000D03*
G04 #@! TO.N,~ACK_3V3*
X125750000Y-52344020D03*
X134000000Y-72250000D03*
G04 #@! TO.N,~RESET_3V3*
X154562500Y-13200000D03*
G04 #@! TO.N,~TM0_3V3*
X126000000Y-57330000D03*
G04 #@! TO.N,~TM1_3V3*
X126000000Y-60080000D03*
G04 #@! TO.N,FPGA_VGA_HS*
X252000000Y-35100000D03*
G04 #@! TO.N,FPGA_VGA_VS*
X252000000Y-36900000D03*
G04 #@! TO.N,HDMI_5V*
X255920000Y-63320000D03*
X260760000Y-65782500D03*
G04 #@! TO.N,ARB*
X153300000Y-18750000D03*
G04 #@! TO.N,NUBUS_AD_DIR*
X147500000Y-74750000D03*
G04 #@! TO.N,CPLD_JTAG_TDI*
X134750000Y-76600000D03*
G04 #@! TO.N,CPLD_JTAG_TDO*
X135850000Y-77300000D03*
G04 #@! TO.N,CPLD_JTAG_TMS*
X138450000Y-78900000D03*
G04 #@! TO.N,CPLD_JTAG_TCK*
X137050000Y-78000000D03*
G04 #@! TO.N,fpga_to_cpld_clk*
X131900000Y-79450000D03*
G04 #@! TO.N,GRANT*
X153300000Y-22000000D03*
G04 #@! TO.N,fpga_to_cpld_signal*
X136000000Y-72770000D03*
G04 #@! TO.N,TMx_oe_n*
X144450000Y-74800000D03*
X182550000Y-79750000D03*
G04 #@! TO.N,TM1_n_o*
X183200000Y-82900000D03*
X144450000Y-76800000D03*
G04 #@! TO.N,TM0_n_o*
X144450000Y-75800000D03*
X185150000Y-82900000D03*
G04 #@! TO.N,TM2_o_n*
X150050000Y-69860000D03*
X185800000Y-73100000D03*
G04 #@! TO.N,TM2_oe_n*
X136280000Y-80360000D03*
X184700000Y-73800000D03*
X148400000Y-72400000D03*
G04 #@! TD*
D26*
G04 #@! TO.N,+3V3*
X165560000Y-61750000D02*
X165560000Y-65100000D01*
D27*
X256750000Y-28750000D02*
X256000000Y-29500000D01*
D26*
X173180000Y-39820000D02*
X173180000Y-30000000D01*
X168100000Y-30000000D02*
X168100000Y-32800000D01*
D27*
X118750000Y-61950000D02*
X117503601Y-60703601D01*
D26*
X170640000Y-42360000D02*
X173180000Y-39820000D01*
D27*
X129000000Y-51200000D02*
X117503601Y-51200000D01*
D26*
X165560000Y-59210000D02*
X165560000Y-55540000D01*
D27*
X143100001Y-78349999D02*
X143500000Y-77950000D01*
X170764999Y-47124999D02*
X223475001Y-47124999D01*
D26*
X170640000Y-59210000D02*
X170640000Y-47000000D01*
X168100000Y-27460000D02*
X168100000Y-25600000D01*
D27*
X165460000Y-66400000D02*
X165560000Y-66500000D01*
X199687500Y-73687500D02*
X202830000Y-76830000D01*
X143500000Y-77950000D02*
X147202500Y-77950000D01*
X241210000Y-35980000D02*
X230090000Y-47100000D01*
X257550000Y-52320000D02*
X241210000Y-35980000D01*
X148750000Y-73687500D02*
X148750000Y-76402500D01*
X230090000Y-47100000D02*
X223550000Y-47100000D01*
X117503601Y-60703601D02*
X117503601Y-60080000D01*
X252000000Y-33000000D02*
X244190000Y-33000000D01*
X136934315Y-90887500D02*
X136727523Y-90680708D01*
D26*
X170640000Y-63860000D02*
X170640000Y-61750000D01*
D27*
X256000000Y-22250000D02*
X256750000Y-23000000D01*
X248479999Y-59720001D02*
X250225000Y-57975000D01*
X168100000Y-32800000D02*
X155900000Y-45000000D01*
X165560000Y-61750000D02*
X163110000Y-64200000D01*
X163110000Y-64200000D02*
X140912500Y-64200000D01*
X140912500Y-64200000D02*
X140112500Y-65000000D01*
X252812500Y-55387500D02*
X257550000Y-55387500D01*
X168100000Y-25600000D02*
X169000000Y-24700000D01*
D26*
X170640000Y-60412081D02*
X170640000Y-61750000D01*
D27*
X253750000Y-29500000D02*
X252000000Y-31250000D01*
D26*
X165560000Y-59210000D02*
X165560000Y-61750000D01*
D27*
X244190000Y-33000000D02*
X241210000Y-35980000D01*
X223550000Y-47100000D02*
X223550000Y-57987500D01*
X165610000Y-73700000D02*
X165560000Y-73750000D01*
X257550000Y-55387500D02*
X257550000Y-52320000D01*
D26*
X165560000Y-72250000D02*
X165560000Y-73750000D01*
D27*
X172200000Y-24700000D02*
X173180000Y-25680000D01*
X160250000Y-73687500D02*
X161750000Y-73687500D01*
X137500000Y-90887500D02*
X136934315Y-90887500D01*
X166000000Y-64500000D02*
X170000000Y-64500000D01*
X165497500Y-73687500D02*
X165560000Y-73750000D01*
D26*
X173180000Y-27460000D02*
X173180000Y-30000000D01*
D27*
X118665134Y-45500000D02*
X117503601Y-46661533D01*
D26*
X165560000Y-67000000D02*
X165560000Y-72250000D01*
X170640000Y-59210000D02*
X170640000Y-60412081D01*
D27*
X170000000Y-64500000D02*
X170640000Y-63860000D01*
X136727523Y-90680708D02*
X136727523Y-84465685D01*
X117503601Y-58753601D02*
X117503601Y-58400000D01*
X223550000Y-57987500D02*
X222537500Y-59000000D01*
D28*
X202830000Y-76830000D02*
X202830000Y-79080000D01*
D27*
X160287500Y-15412500D02*
X161000000Y-14700000D01*
X118665134Y-39500000D02*
X118665134Y-45500000D01*
X117503601Y-60080000D02*
X117503601Y-58753601D01*
X136727523Y-84465685D02*
X136727523Y-83900000D01*
X256000000Y-29500000D02*
X253750000Y-29500000D01*
X160287500Y-20250000D02*
X160287500Y-15412500D01*
X117503601Y-51200000D02*
X117503601Y-52370000D01*
X169000000Y-24700000D02*
X172200000Y-24700000D01*
D26*
X168100000Y-27460000D02*
X168100000Y-30000000D01*
X165560000Y-65100000D02*
X165560000Y-66500000D01*
D27*
X148750000Y-73687500D02*
X160250000Y-73687500D01*
X117503601Y-58400000D02*
X117503601Y-57330000D01*
X248479999Y-63350001D02*
X248479999Y-59720001D01*
X250225000Y-57975000D02*
X252812500Y-55387500D01*
D26*
X170640000Y-47000000D02*
X170640000Y-42360000D01*
D27*
X248080000Y-63750000D02*
X248479999Y-63350001D01*
X251750000Y-31250000D02*
X252000000Y-31250000D01*
X147202500Y-77950000D02*
X148750000Y-76402500D01*
X256750000Y-23000000D02*
X256750000Y-28750000D01*
X135200000Y-45000000D02*
X129000000Y-51200000D01*
X165560000Y-75510000D02*
X165600000Y-75550000D01*
X165440000Y-65220000D02*
X165560000Y-65100000D01*
X155900000Y-45000000D02*
X135200000Y-45000000D01*
X117503601Y-46661533D02*
X117503601Y-51200000D01*
X170640000Y-47000000D02*
X170764999Y-47124999D01*
X252000000Y-33000000D02*
X252000000Y-31250000D01*
X160287500Y-20250000D02*
X162750000Y-20250000D01*
D26*
X173180000Y-25680000D02*
X173180000Y-27460000D01*
D27*
X162750000Y-20250000D02*
X168100000Y-25600000D01*
X246800000Y-26300000D02*
X251750000Y-31250000D01*
X117503601Y-52370000D02*
X117503601Y-57200000D01*
X245550000Y-57975000D02*
X250225000Y-57975000D01*
X117503601Y-57330000D02*
X117503601Y-57200000D01*
X161750000Y-73687500D02*
X165497500Y-73687500D01*
D26*
X165560000Y-67000000D02*
X165560000Y-66500000D01*
D27*
X166000000Y-64500000D02*
X165560000Y-64060000D01*
D26*
X165560000Y-73750000D02*
X165560000Y-75510000D01*
D27*
X136727523Y-83900000D02*
X137550000Y-83900000D01*
X134037500Y-65000000D02*
X140112500Y-65000000D01*
X127250000Y-71787500D02*
X134037500Y-65000000D01*
X135847523Y-84780000D02*
X121200000Y-84780000D01*
X136727523Y-83900000D02*
X135847523Y-84780000D01*
D28*
X202830000Y-79080000D02*
X202830000Y-81470000D01*
D27*
X114600000Y-75800000D02*
X114600000Y-78180000D01*
X161762500Y-73700000D02*
X161750000Y-73687500D01*
X173300000Y-73700000D02*
X161762500Y-73700000D01*
X173312500Y-73687500D02*
X173300000Y-73700000D01*
X188250000Y-73687500D02*
X199687500Y-73687500D01*
X181250000Y-73687500D02*
X173312500Y-73687500D01*
X157512500Y-11212500D02*
X161000000Y-14700000D01*
X116300000Y-11212500D02*
X157512500Y-11212500D01*
X188250000Y-73121815D02*
X187528185Y-72400000D01*
X188250000Y-73687500D02*
X188250000Y-73121815D01*
X182537500Y-72400000D02*
X181250000Y-73687500D01*
X187528185Y-72400000D02*
X182537500Y-72400000D01*
X182100000Y-87100000D02*
X177100000Y-87100000D01*
X173300000Y-83300000D02*
X173300000Y-73700000D01*
X177100000Y-87100000D02*
X173300000Y-83300000D01*
X117300000Y-80800000D02*
X117220000Y-80800000D01*
X118300000Y-79800000D02*
X117300000Y-80800000D01*
X114600000Y-78180000D02*
X117220000Y-80800000D01*
X115812500Y-82500000D02*
X117332500Y-80980000D01*
X117332500Y-80980000D02*
X117400000Y-80980000D01*
X117400000Y-80980000D02*
X121200000Y-84780000D01*
X117220000Y-80800000D02*
X117400000Y-80980000D01*
X134927523Y-82100000D02*
X136727523Y-83900000D01*
X126287500Y-82100000D02*
X134927523Y-82100000D01*
X143500000Y-85812500D02*
X143787500Y-86100000D01*
X143500000Y-77950000D02*
X143500000Y-85812500D01*
X139821815Y-83700000D02*
X137750000Y-83700000D01*
X140387500Y-83700000D02*
X139821815Y-83700000D01*
X137750000Y-83700000D02*
X143100001Y-78349999D01*
X137550000Y-83900000D02*
X137750000Y-83700000D01*
G04 #@! TO.N,+5V*
X133406596Y-88000000D02*
X133421568Y-88014972D01*
X220840000Y-91330000D02*
X220780000Y-91270000D01*
G04 #@! TO.N,~TM1_5V*
X189840000Y-100000000D02*
X188600000Y-98760000D01*
X188600000Y-89750000D02*
X183850000Y-85000000D01*
X188600000Y-98760000D02*
X188600000Y-89750000D01*
G04 #@! TO.N,~TM2_5V*
X186900000Y-77100000D02*
X179800000Y-84200000D01*
X186900000Y-73800000D02*
X186900000Y-77100000D01*
G04 #@! TO.N,~AD23_3V3*
X173212500Y-61782500D02*
X173180000Y-61750000D01*
D29*
G04 #@! TO.N,HDMI_5V*
X258382500Y-65782500D02*
X260760000Y-65782500D01*
X255920000Y-63320000D02*
X258382500Y-65782500D01*
D27*
G04 #@! TO.N,CPLD_JTAG_TDI*
X120023271Y-68703601D02*
X127919670Y-76600000D01*
X115503601Y-68703601D02*
X120023271Y-68703601D01*
X114600000Y-67800000D02*
X115503601Y-68703601D01*
X127919670Y-76600000D02*
X133000000Y-76600000D01*
X133000000Y-76600000D02*
X134750000Y-76600000D01*
G04 #@! TO.N,CPLD_JTAG_TDO*
X134100000Y-77300000D02*
X135850000Y-77300000D01*
X114600000Y-69800000D02*
X115503601Y-70703601D01*
X115503601Y-70703601D02*
X121592205Y-70703601D01*
X121592205Y-70703601D02*
X128188604Y-77300000D01*
X128188604Y-77300000D02*
X134100000Y-77300000D01*
G04 #@! TO.N,CPLD_JTAG_TMS*
X136700000Y-78900000D02*
X138450000Y-78900000D01*
X114600000Y-73800000D02*
X115503601Y-74703601D01*
X115503601Y-74703601D02*
X124593601Y-74703601D01*
X124593601Y-74703601D02*
X128211399Y-78321399D01*
X132280330Y-78900000D02*
X136700000Y-78900000D01*
X131701729Y-78321399D02*
X132280330Y-78900000D01*
X128211399Y-78321399D02*
X131701729Y-78321399D01*
G04 #@! TO.N,CPLD_JTAG_TCK*
X135300000Y-78000000D02*
X128380000Y-78000000D01*
X115503601Y-72703601D02*
X114600000Y-71800000D01*
X123083601Y-72703601D02*
X115503601Y-72703601D01*
X128380000Y-78000000D02*
X123083601Y-72703601D01*
X135300000Y-78000000D02*
X137050000Y-78000000D01*
G04 #@! TO.N,TM2_oe_n*
X136280000Y-80360000D02*
X139760000Y-80360000D01*
X139760000Y-80360000D02*
X141820000Y-78300000D01*
X141820000Y-78300000D02*
X141820000Y-75120000D01*
X144540000Y-72400000D02*
X148400000Y-72400000D01*
X141820000Y-75120000D02*
X144540000Y-72400000D01*
G04 #@! TD*
D30*
G04 #@! TO.N,+3V3*
G36*
X167424765Y-11095766D02*
X167090262Y-11752265D01*
X166975000Y-12480000D01*
X167090262Y-13207735D01*
X167424765Y-13864234D01*
X167945766Y-14385235D01*
X168602265Y-14719738D01*
X169330000Y-14835000D01*
X170057735Y-14719738D01*
X170714234Y-14385235D01*
X171235235Y-13864234D01*
X171569738Y-13207735D01*
X171685000Y-12480000D01*
X171569738Y-11752265D01*
X171235235Y-11095766D01*
X170766469Y-10627000D01*
X197893531Y-10627000D01*
X197424765Y-11095766D01*
X197090262Y-11752265D01*
X196975000Y-12480000D01*
X197090262Y-13207735D01*
X197424765Y-13864234D01*
X197945766Y-14385235D01*
X198602265Y-14719738D01*
X199330000Y-14835000D01*
X200057735Y-14719738D01*
X200714234Y-14385235D01*
X201235235Y-13864234D01*
X201569738Y-13207735D01*
X201685000Y-12480000D01*
X201569738Y-11752265D01*
X201235235Y-11095766D01*
X200766469Y-10627000D01*
X227893531Y-10627000D01*
X227424765Y-11095766D01*
X227090262Y-11752265D01*
X226975000Y-12480000D01*
X227090262Y-13207735D01*
X227424765Y-13864234D01*
X227945766Y-14385235D01*
X228602265Y-14719738D01*
X229330000Y-14835000D01*
X230057735Y-14719738D01*
X230714234Y-14385235D01*
X231235235Y-13864234D01*
X231569738Y-13207735D01*
X231669161Y-12580000D01*
X251092560Y-12580000D01*
X251092560Y-14180000D01*
X251141843Y-14427765D01*
X251282191Y-14637809D01*
X251492235Y-14778157D01*
X251592503Y-14798101D01*
X251323466Y-15067138D01*
X251105000Y-15594561D01*
X251105000Y-16165439D01*
X251323466Y-16692862D01*
X251727138Y-17096534D01*
X252254561Y-17315000D01*
X252825439Y-17315000D01*
X253352862Y-17096534D01*
X253756534Y-16692862D01*
X253975000Y-16165439D01*
X253975000Y-15594561D01*
X253756534Y-15067138D01*
X253487497Y-14798101D01*
X253587765Y-14778157D01*
X253797809Y-14637809D01*
X253938157Y-14427765D01*
X253987440Y-14180000D01*
X253987440Y-12580000D01*
X253938157Y-12332235D01*
X253797809Y-12122191D01*
X253587765Y-11981843D01*
X253340000Y-11932560D01*
X251740000Y-11932560D01*
X251492235Y-11981843D01*
X251282191Y-12122191D01*
X251141843Y-12332235D01*
X251092560Y-12580000D01*
X231669161Y-12580000D01*
X231685000Y-12480000D01*
X231569738Y-11752265D01*
X231235235Y-11095766D01*
X230766469Y-10627000D01*
X256873000Y-10627000D01*
X256873000Y-30909289D01*
X256586280Y-30622569D01*
X256205874Y-30465000D01*
X255794126Y-30465000D01*
X255413720Y-30622569D01*
X255122569Y-30913720D01*
X254965000Y-31294126D01*
X254965000Y-31705874D01*
X255122569Y-32086280D01*
X255413720Y-32377431D01*
X255468206Y-32400000D01*
X255413720Y-32422569D01*
X255122569Y-32713720D01*
X254965000Y-33094126D01*
X254965000Y-33505874D01*
X255122569Y-33886280D01*
X255413720Y-34177431D01*
X255794126Y-34335000D01*
X256205874Y-34335000D01*
X256586280Y-34177431D01*
X256873000Y-33890711D01*
X256873000Y-61064289D01*
X256806280Y-60997569D01*
X256425874Y-60840000D01*
X256014126Y-60840000D01*
X255633720Y-60997569D01*
X255342569Y-61288720D01*
X255185000Y-61669126D01*
X255185000Y-62080874D01*
X255334658Y-62442181D01*
X255333720Y-62442569D01*
X255042569Y-62733720D01*
X254885000Y-63114126D01*
X254885000Y-63525874D01*
X255042569Y-63906280D01*
X255333720Y-64197431D01*
X255714126Y-64355000D01*
X255880199Y-64355000D01*
X256873000Y-65347801D01*
X256873000Y-87319289D01*
X256596280Y-87042569D01*
X256215874Y-86885000D01*
X255804126Y-86885000D01*
X255423720Y-87042569D01*
X255132569Y-87333720D01*
X254975000Y-87714126D01*
X254975000Y-88125874D01*
X255132569Y-88506280D01*
X255423720Y-88797431D01*
X255804126Y-88955000D01*
X256215874Y-88955000D01*
X256596280Y-88797431D01*
X256873000Y-88520711D01*
X256873000Y-93473000D01*
X196507271Y-93473000D01*
X196786280Y-93357431D01*
X197077431Y-93066280D01*
X197235000Y-92685874D01*
X197235000Y-92274126D01*
X197077431Y-91893720D01*
X196786280Y-91602569D01*
X196405874Y-91445000D01*
X195994126Y-91445000D01*
X195613720Y-91602569D01*
X195322569Y-91893720D01*
X195165000Y-92274126D01*
X195165000Y-92685874D01*
X195322569Y-93066280D01*
X195613720Y-93357431D01*
X195892729Y-93473000D01*
X189311200Y-93473000D01*
X189311200Y-90419999D01*
X216722560Y-90419999D01*
X216722560Y-92120001D01*
X216790873Y-92463436D01*
X216985414Y-92754586D01*
X217276564Y-92949127D01*
X217619999Y-93017440D01*
X218860001Y-93017440D01*
X219203436Y-92949127D01*
X219494586Y-92754586D01*
X219651413Y-92519878D01*
X219694956Y-92585044D01*
X220192779Y-92917678D01*
X220780000Y-93034484D01*
X221367222Y-92917678D01*
X221865044Y-92585044D01*
X222050000Y-92308237D01*
X222234956Y-92585044D01*
X222732779Y-92917678D01*
X223320000Y-93034484D01*
X223907222Y-92917678D01*
X224405044Y-92585044D01*
X224737678Y-92087221D01*
X224825000Y-91648225D01*
X224825000Y-90891774D01*
X224737678Y-90452778D01*
X224405044Y-89954956D01*
X223907221Y-89622322D01*
X223320000Y-89505516D01*
X222732778Y-89622322D01*
X222234956Y-89954956D01*
X222050000Y-90231763D01*
X221865044Y-89954956D01*
X221367221Y-89622322D01*
X220780000Y-89505516D01*
X220192778Y-89622322D01*
X219694956Y-89954956D01*
X219651414Y-90020122D01*
X219494586Y-89785414D01*
X219203436Y-89590873D01*
X218860001Y-89522560D01*
X217619999Y-89522560D01*
X217276564Y-89590873D01*
X216985414Y-89785414D01*
X216790873Y-90076564D01*
X216722560Y-90419999D01*
X189311200Y-90419999D01*
X189311200Y-89820041D01*
X189325132Y-89749999D01*
X189311200Y-89679957D01*
X189311200Y-89679954D01*
X189269936Y-89472504D01*
X189158597Y-89305874D01*
X189152424Y-89296635D01*
X189152422Y-89296633D01*
X189112746Y-89237254D01*
X189053367Y-89197578D01*
X188749915Y-88894126D01*
X195165000Y-88894126D01*
X195165000Y-89305874D01*
X195322569Y-89686280D01*
X195613720Y-89977431D01*
X195994126Y-90135000D01*
X196405874Y-90135000D01*
X196786280Y-89977431D01*
X197077431Y-89686280D01*
X197235000Y-89305874D01*
X197235000Y-88894126D01*
X197077431Y-88513720D01*
X196786280Y-88222569D01*
X196405874Y-88065000D01*
X195994126Y-88065000D01*
X195613720Y-88222569D01*
X195322569Y-88513720D01*
X195165000Y-88894126D01*
X188749915Y-88894126D01*
X187309915Y-87454126D01*
X252815000Y-87454126D01*
X252815000Y-87865874D01*
X252972569Y-88246280D01*
X253263720Y-88537431D01*
X253644126Y-88695000D01*
X254055874Y-88695000D01*
X254436280Y-88537431D01*
X254727431Y-88246280D01*
X254885000Y-87865874D01*
X254885000Y-87454126D01*
X254727431Y-87073720D01*
X254436280Y-86782569D01*
X254055874Y-86625000D01*
X253644126Y-86625000D01*
X253263720Y-86782569D01*
X252972569Y-87073720D01*
X252815000Y-87454126D01*
X187309915Y-87454126D01*
X185890788Y-86035000D01*
X186005874Y-86035000D01*
X186386280Y-85877431D01*
X186677431Y-85586280D01*
X186835000Y-85205874D01*
X186835000Y-84794126D01*
X186677431Y-84413720D01*
X186386280Y-84122569D01*
X186005874Y-83965000D01*
X185594126Y-83965000D01*
X185213720Y-84122569D01*
X184922569Y-84413720D01*
X184825000Y-84649273D01*
X184727431Y-84413720D01*
X184436280Y-84122569D01*
X184055874Y-83965000D01*
X183644126Y-83965000D01*
X183263720Y-84122569D01*
X182972569Y-84413720D01*
X182815000Y-84794126D01*
X182815000Y-85205874D01*
X182972569Y-85586280D01*
X183263720Y-85877431D01*
X183644126Y-86035000D01*
X183879212Y-86035000D01*
X187888801Y-90044590D01*
X187888801Y-93473000D01*
X124724353Y-93473000D01*
X124835000Y-93205874D01*
X124835000Y-92794126D01*
X124677431Y-92413720D01*
X124386280Y-92122569D01*
X124005874Y-91965000D01*
X123594126Y-91965000D01*
X123213720Y-92122569D01*
X122922569Y-92413720D01*
X122765000Y-92794126D01*
X122765000Y-93205874D01*
X122875647Y-93473000D01*
X113726847Y-93473000D01*
X113724827Y-91794126D01*
X157065000Y-91794126D01*
X157065000Y-92205874D01*
X157222569Y-92586280D01*
X157513720Y-92877431D01*
X157894126Y-93035000D01*
X158305874Y-93035000D01*
X158686280Y-92877431D01*
X158977431Y-92586280D01*
X159135000Y-92205874D01*
X159135000Y-91794126D01*
X158977431Y-91413720D01*
X158686280Y-91122569D01*
X158305874Y-90965000D01*
X157894126Y-90965000D01*
X157513720Y-91122569D01*
X157222569Y-91413720D01*
X157065000Y-91794126D01*
X113724827Y-91794126D01*
X113719388Y-87274126D01*
X114165000Y-87274126D01*
X114165000Y-87685874D01*
X114322569Y-88066280D01*
X114613720Y-88357431D01*
X114849273Y-88455000D01*
X114613720Y-88552569D01*
X114322569Y-88843720D01*
X114165000Y-89224126D01*
X114165000Y-89635874D01*
X114322569Y-90016280D01*
X114386289Y-90080000D01*
X114322569Y-90143720D01*
X114165000Y-90524126D01*
X114165000Y-90935874D01*
X114322569Y-91316280D01*
X114613720Y-91607431D01*
X114994126Y-91765000D01*
X115405874Y-91765000D01*
X115786280Y-91607431D01*
X116077431Y-91316280D01*
X116235000Y-90935874D01*
X116235000Y-90524126D01*
X116077431Y-90143720D01*
X116013711Y-90080000D01*
X116077431Y-90016280D01*
X116235000Y-89635874D01*
X116235000Y-89224126D01*
X116186331Y-89106626D01*
X136465000Y-89106626D01*
X136465000Y-89518374D01*
X136622569Y-89898780D01*
X136913720Y-90189931D01*
X137294126Y-90347500D01*
X137705874Y-90347500D01*
X138086280Y-90189931D01*
X138377431Y-89898780D01*
X138400069Y-89844126D01*
X144265000Y-89844126D01*
X144265000Y-90255874D01*
X144422569Y-90636280D01*
X144713720Y-90927431D01*
X145094126Y-91085000D01*
X145505874Y-91085000D01*
X145886280Y-90927431D01*
X146177431Y-90636280D01*
X146335000Y-90255874D01*
X146335000Y-89844126D01*
X146177431Y-89463720D01*
X145886280Y-89172569D01*
X145700727Y-89095711D01*
X145986280Y-88977431D01*
X146277431Y-88686280D01*
X146435000Y-88305874D01*
X146435000Y-87894126D01*
X146277431Y-87513720D01*
X145986280Y-87222569D01*
X145605874Y-87065000D01*
X145194126Y-87065000D01*
X144813720Y-87222569D01*
X144522569Y-87513720D01*
X144365000Y-87894126D01*
X144365000Y-88305874D01*
X144522569Y-88686280D01*
X144813720Y-88977431D01*
X144999273Y-89054289D01*
X144713720Y-89172569D01*
X144422569Y-89463720D01*
X144265000Y-89844126D01*
X138400069Y-89844126D01*
X138535000Y-89518374D01*
X138535000Y-89106626D01*
X138377431Y-88726220D01*
X138086280Y-88435069D01*
X137705874Y-88277500D01*
X137294126Y-88277500D01*
X136913720Y-88435069D01*
X136622569Y-88726220D01*
X136465000Y-89106626D01*
X116186331Y-89106626D01*
X116077431Y-88843720D01*
X115786280Y-88552569D01*
X115550727Y-88455000D01*
X115786280Y-88357431D01*
X116077431Y-88066280D01*
X116190160Y-87794126D01*
X127062842Y-87794126D01*
X127062842Y-88205874D01*
X127220411Y-88586280D01*
X127511562Y-88877431D01*
X127891968Y-89035000D01*
X128303716Y-89035000D01*
X128684122Y-88877431D01*
X128975273Y-88586280D01*
X128997842Y-88531794D01*
X129020411Y-88586280D01*
X129311562Y-88877431D01*
X129691968Y-89035000D01*
X130103716Y-89035000D01*
X130484122Y-88877431D01*
X130775273Y-88586280D01*
X130797842Y-88531794D01*
X130820411Y-88586280D01*
X131111562Y-88877431D01*
X131491968Y-89035000D01*
X131903716Y-89035000D01*
X132284122Y-88877431D01*
X132552219Y-88609334D01*
X132835288Y-88892403D01*
X133215694Y-89049972D01*
X133627442Y-89049972D01*
X134007848Y-88892403D01*
X134298999Y-88601252D01*
X134456568Y-88220846D01*
X134456568Y-87809098D01*
X134298999Y-87428692D01*
X134114433Y-87244126D01*
X138265000Y-87244126D01*
X138265000Y-87655874D01*
X138422569Y-88036280D01*
X138713720Y-88327431D01*
X139094126Y-88485000D01*
X139505874Y-88485000D01*
X139886280Y-88327431D01*
X140177431Y-88036280D01*
X140335000Y-87655874D01*
X140335000Y-87244126D01*
X140177431Y-86863720D01*
X139907837Y-86594126D01*
X147165000Y-86594126D01*
X147165000Y-87005874D01*
X147322569Y-87386280D01*
X147613720Y-87677431D01*
X147994126Y-87835000D01*
X148405874Y-87835000D01*
X148786280Y-87677431D01*
X149077431Y-87386280D01*
X149235000Y-87005874D01*
X149235000Y-86594126D01*
X149077431Y-86213720D01*
X148786280Y-85922569D01*
X148405874Y-85765000D01*
X147994126Y-85765000D01*
X147613720Y-85922569D01*
X147322569Y-86213720D01*
X147165000Y-86594126D01*
X139907837Y-86594126D01*
X139886280Y-86572569D01*
X139505874Y-86415000D01*
X139094126Y-86415000D01*
X138713720Y-86572569D01*
X138422569Y-86863720D01*
X138265000Y-87244126D01*
X134114433Y-87244126D01*
X134007848Y-87137541D01*
X133627442Y-86979972D01*
X133215694Y-86979972D01*
X132835288Y-87137541D01*
X132567191Y-87405638D01*
X132284122Y-87122569D01*
X131903716Y-86965000D01*
X131491968Y-86965000D01*
X131111562Y-87122569D01*
X130820411Y-87413720D01*
X130797842Y-87468206D01*
X130775273Y-87413720D01*
X130484122Y-87122569D01*
X130103716Y-86965000D01*
X129691968Y-86965000D01*
X129311562Y-87122569D01*
X129020411Y-87413720D01*
X128997842Y-87468206D01*
X128975273Y-87413720D01*
X128684122Y-87122569D01*
X128303716Y-86965000D01*
X127891968Y-86965000D01*
X127511562Y-87122569D01*
X127220411Y-87413720D01*
X127062842Y-87794126D01*
X116190160Y-87794126D01*
X116235000Y-87685874D01*
X116235000Y-87274126D01*
X116077431Y-86893720D01*
X115786280Y-86602569D01*
X115405874Y-86445000D01*
X114994126Y-86445000D01*
X114613720Y-86602569D01*
X114322569Y-86893720D01*
X114165000Y-87274126D01*
X113719388Y-87274126D01*
X113716139Y-84574126D01*
X116165000Y-84574126D01*
X116165000Y-84985874D01*
X116322569Y-85366280D01*
X116613720Y-85657431D01*
X116994126Y-85815000D01*
X117405874Y-85815000D01*
X117786280Y-85657431D01*
X118077431Y-85366280D01*
X118235000Y-84985874D01*
X118235000Y-84574126D01*
X118077431Y-84193720D01*
X117786280Y-83902569D01*
X117405874Y-83745000D01*
X116994126Y-83745000D01*
X116613720Y-83902569D01*
X116322569Y-84193720D01*
X116165000Y-84574126D01*
X113716139Y-84574126D01*
X113715081Y-83694126D01*
X134117523Y-83694126D01*
X134117523Y-84105874D01*
X134275092Y-84486280D01*
X134566243Y-84777431D01*
X134946649Y-84935000D01*
X135358397Y-84935000D01*
X135738803Y-84777431D01*
X136029954Y-84486280D01*
X136187523Y-84105874D01*
X136187523Y-83994126D01*
X178765000Y-83994126D01*
X178765000Y-84405874D01*
X178922569Y-84786280D01*
X179213720Y-85077431D01*
X179594126Y-85235000D01*
X180005874Y-85235000D01*
X180386280Y-85077431D01*
X180677431Y-84786280D01*
X180835000Y-84405874D01*
X180835000Y-84170788D01*
X182165000Y-82840788D01*
X182165000Y-83105874D01*
X182322569Y-83486280D01*
X182613720Y-83777431D01*
X182994126Y-83935000D01*
X183405874Y-83935000D01*
X183786280Y-83777431D01*
X184077431Y-83486280D01*
X184175000Y-83250727D01*
X184272569Y-83486280D01*
X184563720Y-83777431D01*
X184944126Y-83935000D01*
X185355874Y-83935000D01*
X185736280Y-83777431D01*
X186027431Y-83486280D01*
X186185000Y-83105874D01*
X186185000Y-82694126D01*
X186114584Y-82524126D01*
X235415000Y-82524126D01*
X235415000Y-82935874D01*
X235572569Y-83316280D01*
X235863720Y-83607431D01*
X236244126Y-83765000D01*
X236655874Y-83765000D01*
X237036280Y-83607431D01*
X237327431Y-83316280D01*
X237485000Y-82935874D01*
X237485000Y-82524126D01*
X251865000Y-82524126D01*
X251865000Y-82935874D01*
X252022569Y-83316280D01*
X252313720Y-83607431D01*
X252694126Y-83765000D01*
X253105874Y-83765000D01*
X253486280Y-83607431D01*
X253777431Y-83316280D01*
X253935000Y-82935874D01*
X253935000Y-82524126D01*
X253777431Y-82143720D01*
X253486280Y-81852569D01*
X253105874Y-81695000D01*
X252694126Y-81695000D01*
X252313720Y-81852569D01*
X252022569Y-82143720D01*
X251865000Y-82524126D01*
X237485000Y-82524126D01*
X237327431Y-82143720D01*
X237036280Y-81852569D01*
X236655874Y-81695000D01*
X236244126Y-81695000D01*
X235863720Y-81852569D01*
X235572569Y-82143720D01*
X235415000Y-82524126D01*
X186114584Y-82524126D01*
X186027431Y-82313720D01*
X185736280Y-82022569D01*
X185355874Y-81865000D01*
X184944126Y-81865000D01*
X184563720Y-82022569D01*
X184272569Y-82313720D01*
X184175000Y-82549273D01*
X184077431Y-82313720D01*
X183786280Y-82022569D01*
X183405874Y-81865000D01*
X183140788Y-81865000D01*
X185415000Y-79590789D01*
X185415000Y-79955874D01*
X185572569Y-80336280D01*
X185863720Y-80627431D01*
X186244126Y-80785000D01*
X186655874Y-80785000D01*
X187036280Y-80627431D01*
X187327431Y-80336280D01*
X187485000Y-79955874D01*
X187485000Y-79544126D01*
X193822500Y-79544126D01*
X193822500Y-79955874D01*
X193980069Y-80336280D01*
X194271220Y-80627431D01*
X194651626Y-80785000D01*
X195063374Y-80785000D01*
X195443780Y-80627431D01*
X195734931Y-80336280D01*
X195892500Y-79955874D01*
X195892500Y-79544126D01*
X195818615Y-79365750D01*
X201345000Y-79365750D01*
X201345000Y-80056309D01*
X201441673Y-80289698D01*
X201620301Y-80468327D01*
X201853690Y-80565000D01*
X202544250Y-80565000D01*
X202703000Y-80406250D01*
X202703000Y-79207000D01*
X201503750Y-79207000D01*
X201345000Y-79365750D01*
X195818615Y-79365750D01*
X195734931Y-79163720D01*
X195443780Y-78872569D01*
X195063374Y-78715000D01*
X194651626Y-78715000D01*
X194271220Y-78872569D01*
X193980069Y-79163720D01*
X193822500Y-79544126D01*
X187485000Y-79544126D01*
X187327431Y-79163720D01*
X187036280Y-78872569D01*
X186655874Y-78715000D01*
X186290789Y-78715000D01*
X186902098Y-78103691D01*
X201345000Y-78103691D01*
X201345000Y-78794250D01*
X201503750Y-78953000D01*
X202703000Y-78953000D01*
X202703000Y-77753750D01*
X202957000Y-77753750D01*
X202957000Y-78953000D01*
X202977000Y-78953000D01*
X202977000Y-79207000D01*
X202957000Y-79207000D01*
X202957000Y-80406250D01*
X203115750Y-80565000D01*
X203806310Y-80565000D01*
X204039699Y-80468327D01*
X204218327Y-80289698D01*
X204284904Y-80128967D01*
X204299375Y-80150625D01*
X204790582Y-80478839D01*
X205223744Y-80565000D01*
X205516256Y-80565000D01*
X205949418Y-80478839D01*
X206440625Y-80150625D01*
X206768839Y-79659418D01*
X206884092Y-79080000D01*
X206768839Y-78500582D01*
X206440625Y-78009375D01*
X205949418Y-77681161D01*
X205516256Y-77595000D01*
X205223744Y-77595000D01*
X204790582Y-77681161D01*
X204299375Y-78009375D01*
X204284904Y-78031033D01*
X204218327Y-77870302D01*
X204039699Y-77691673D01*
X203806310Y-77595000D01*
X203115750Y-77595000D01*
X202957000Y-77753750D01*
X202703000Y-77753750D01*
X202544250Y-77595000D01*
X201853690Y-77595000D01*
X201620301Y-77691673D01*
X201441673Y-77870302D01*
X201345000Y-78103691D01*
X186902098Y-78103691D01*
X187353367Y-77652422D01*
X187412746Y-77612746D01*
X187452422Y-77553367D01*
X187452424Y-77553365D01*
X187569935Y-77377498D01*
X187569935Y-77377497D01*
X187569936Y-77377496D01*
X187611200Y-77170046D01*
X187611200Y-77170043D01*
X187625132Y-77100001D01*
X187611200Y-77029959D01*
X187611200Y-74552511D01*
X187777431Y-74386280D01*
X187935000Y-74005874D01*
X187935000Y-73594126D01*
X187777431Y-73213720D01*
X187486280Y-72922569D01*
X187105874Y-72765000D01*
X186781514Y-72765000D01*
X186677431Y-72513720D01*
X186386280Y-72222569D01*
X186005874Y-72065000D01*
X185594126Y-72065000D01*
X185213720Y-72222569D01*
X184922569Y-72513720D01*
X184818486Y-72765000D01*
X184494126Y-72765000D01*
X184113720Y-72922569D01*
X183822569Y-73213720D01*
X183665000Y-73594126D01*
X183665000Y-74005874D01*
X183822569Y-74386280D01*
X184113720Y-74677431D01*
X184494126Y-74835000D01*
X184905874Y-74835000D01*
X185286280Y-74677431D01*
X185577431Y-74386280D01*
X185681514Y-74135000D01*
X185918486Y-74135000D01*
X186022569Y-74386280D01*
X186188800Y-74552511D01*
X186188801Y-76805410D01*
X183545484Y-79448727D01*
X183427431Y-79163720D01*
X183136280Y-78872569D01*
X182755874Y-78715000D01*
X182344126Y-78715000D01*
X181963720Y-78872569D01*
X181672569Y-79163720D01*
X181515000Y-79544126D01*
X181515000Y-79955874D01*
X181672569Y-80336280D01*
X181963720Y-80627431D01*
X182248727Y-80745485D01*
X179829212Y-83165000D01*
X179594126Y-83165000D01*
X179213720Y-83322569D01*
X178922569Y-83613720D01*
X178765000Y-83994126D01*
X136187523Y-83994126D01*
X136187523Y-83694126D01*
X136029954Y-83313720D01*
X135738803Y-83022569D01*
X135358397Y-82865000D01*
X134946649Y-82865000D01*
X134566243Y-83022569D01*
X134275092Y-83313720D01*
X134117523Y-83694126D01*
X113715081Y-83694126D01*
X113706698Y-76728834D01*
X113810460Y-76845349D01*
X114270598Y-77067920D01*
X114473000Y-76945090D01*
X114473000Y-75927000D01*
X114453000Y-75927000D01*
X114453000Y-75673000D01*
X114473000Y-75673000D01*
X114473000Y-75653000D01*
X114727000Y-75653000D01*
X114727000Y-75673000D01*
X114747000Y-75673000D01*
X114747000Y-75927000D01*
X114727000Y-75927000D01*
X114727000Y-76945090D01*
X114929402Y-77067920D01*
X115389540Y-76845349D01*
X115400516Y-76833024D01*
X115467191Y-76932809D01*
X115677235Y-77073157D01*
X115925000Y-77122440D01*
X117275000Y-77122440D01*
X117522765Y-77073157D01*
X117732809Y-76932809D01*
X117873157Y-76722765D01*
X117922440Y-76475000D01*
X117922440Y-75414801D01*
X124299013Y-75414801D01*
X127658977Y-78774766D01*
X127698653Y-78834145D01*
X127758032Y-78873821D01*
X127758034Y-78873823D01*
X127797211Y-78900000D01*
X127933903Y-78991335D01*
X127968184Y-78998154D01*
X127945000Y-79054126D01*
X127945000Y-79465874D01*
X128102569Y-79846280D01*
X128393720Y-80137431D01*
X128774126Y-80295000D01*
X129185874Y-80295000D01*
X129566280Y-80137431D01*
X129857431Y-79846280D01*
X130015000Y-79465874D01*
X130015000Y-79054126D01*
X130006083Y-79032599D01*
X130952617Y-79032599D01*
X130865000Y-79244126D01*
X130865000Y-79655874D01*
X131022569Y-80036280D01*
X131313720Y-80327431D01*
X131694126Y-80485000D01*
X131885000Y-80485000D01*
X131885000Y-80575874D01*
X132042569Y-80956280D01*
X132333720Y-81247431D01*
X132714126Y-81405000D01*
X133125874Y-81405000D01*
X133506280Y-81247431D01*
X133797431Y-80956280D01*
X133940000Y-80612087D01*
X134082569Y-80956280D01*
X134373720Y-81247431D01*
X134754126Y-81405000D01*
X135165874Y-81405000D01*
X135546280Y-81247431D01*
X135625000Y-81168711D01*
X135693720Y-81237431D01*
X136074126Y-81395000D01*
X136485874Y-81395000D01*
X136866280Y-81237431D01*
X137032511Y-81071200D01*
X139689959Y-81071200D01*
X139760000Y-81085132D01*
X139830041Y-81071200D01*
X139830046Y-81071200D01*
X140037496Y-81029936D01*
X140272746Y-80872746D01*
X140312424Y-80813364D01*
X140531662Y-80594126D01*
X145465000Y-80594126D01*
X145465000Y-81005874D01*
X145622569Y-81386280D01*
X145913720Y-81677431D01*
X146294126Y-81835000D01*
X146705874Y-81835000D01*
X147086280Y-81677431D01*
X147377431Y-81386280D01*
X147535000Y-81005874D01*
X147535000Y-80594126D01*
X147377431Y-80213720D01*
X147086280Y-79922569D01*
X146705874Y-79765000D01*
X146294126Y-79765000D01*
X145913720Y-79922569D01*
X145622569Y-80213720D01*
X145465000Y-80594126D01*
X140531662Y-80594126D01*
X141581662Y-79544126D01*
X154322500Y-79544126D01*
X154322500Y-79955874D01*
X154480069Y-80336280D01*
X154771220Y-80627431D01*
X155151626Y-80785000D01*
X155563374Y-80785000D01*
X155943780Y-80627431D01*
X156234931Y-80336280D01*
X156392500Y-79955874D01*
X156392500Y-79544126D01*
X167322500Y-79544126D01*
X167322500Y-79955874D01*
X167480069Y-80336280D01*
X167771220Y-80627431D01*
X168151626Y-80785000D01*
X168563374Y-80785000D01*
X168943780Y-80627431D01*
X169234931Y-80336280D01*
X169392500Y-79955874D01*
X169392500Y-79544126D01*
X178822500Y-79544126D01*
X178822500Y-79955874D01*
X178980069Y-80336280D01*
X179271220Y-80627431D01*
X179651626Y-80785000D01*
X180063374Y-80785000D01*
X180443780Y-80627431D01*
X180734931Y-80336280D01*
X180892500Y-79955874D01*
X180892500Y-79544126D01*
X180734931Y-79163720D01*
X180443780Y-78872569D01*
X180063374Y-78715000D01*
X179651626Y-78715000D01*
X179271220Y-78872569D01*
X178980069Y-79163720D01*
X178822500Y-79544126D01*
X169392500Y-79544126D01*
X169234931Y-79163720D01*
X168943780Y-78872569D01*
X168563374Y-78715000D01*
X168151626Y-78715000D01*
X167771220Y-78872569D01*
X167480069Y-79163720D01*
X167322500Y-79544126D01*
X156392500Y-79544126D01*
X156234931Y-79163720D01*
X155943780Y-78872569D01*
X155563374Y-78715000D01*
X155151626Y-78715000D01*
X154771220Y-78872569D01*
X154480069Y-79163720D01*
X154322500Y-79544126D01*
X141581662Y-79544126D01*
X142273369Y-78852420D01*
X142332745Y-78812746D01*
X142372420Y-78753369D01*
X142372424Y-78753365D01*
X142475637Y-78598895D01*
X142489936Y-78577496D01*
X142531200Y-78370046D01*
X142531200Y-78370042D01*
X142545132Y-78300000D01*
X142531200Y-78229958D01*
X142531200Y-75414588D01*
X143459786Y-74486002D01*
X143415000Y-74594126D01*
X143415000Y-75005874D01*
X143536831Y-75300000D01*
X143415000Y-75594126D01*
X143415000Y-76005874D01*
X143536831Y-76300000D01*
X143415000Y-76594126D01*
X143415000Y-77005874D01*
X143572569Y-77386280D01*
X143863720Y-77677431D01*
X144244126Y-77835000D01*
X144655874Y-77835000D01*
X145036280Y-77677431D01*
X145327431Y-77386280D01*
X145485000Y-77005874D01*
X145485000Y-76594126D01*
X145363169Y-76300000D01*
X145485000Y-76005874D01*
X145485000Y-75594126D01*
X145363169Y-75300000D01*
X145369941Y-75283652D01*
X145413720Y-75327431D01*
X145794126Y-75485000D01*
X146205874Y-75485000D01*
X146586280Y-75327431D01*
X146609348Y-75304363D01*
X146622569Y-75336280D01*
X146913720Y-75627431D01*
X147294126Y-75785000D01*
X147705874Y-75785000D01*
X148086280Y-75627431D01*
X148377431Y-75336280D01*
X148535000Y-74955874D01*
X148535000Y-74544126D01*
X148377431Y-74163720D01*
X148086280Y-73872569D01*
X147705874Y-73715000D01*
X147294126Y-73715000D01*
X146913720Y-73872569D01*
X146890652Y-73895637D01*
X146877431Y-73863720D01*
X146586280Y-73572569D01*
X146205874Y-73415000D01*
X145794126Y-73415000D01*
X145413720Y-73572569D01*
X145122569Y-73863720D01*
X145080059Y-73966348D01*
X145036280Y-73922569D01*
X144655874Y-73765000D01*
X144244126Y-73765000D01*
X144136003Y-73809786D01*
X144834589Y-73111200D01*
X147647489Y-73111200D01*
X147813720Y-73277431D01*
X148194126Y-73435000D01*
X148605874Y-73435000D01*
X148986280Y-73277431D01*
X149277431Y-72986280D01*
X149435000Y-72605874D01*
X149435000Y-72194126D01*
X149296821Y-71860532D01*
X149313720Y-71877431D01*
X149694126Y-72035000D01*
X150105874Y-72035000D01*
X150486280Y-71877431D01*
X150777431Y-71586280D01*
X150935000Y-71205874D01*
X150935000Y-70794126D01*
X161965000Y-70794126D01*
X161965000Y-71205874D01*
X162122569Y-71586280D01*
X162413720Y-71877431D01*
X162794126Y-72035000D01*
X163205874Y-72035000D01*
X163586280Y-71877431D01*
X163877431Y-71586280D01*
X164035000Y-71205874D01*
X164035000Y-70794126D01*
X173465000Y-70794126D01*
X173465000Y-71205874D01*
X173622569Y-71586280D01*
X173913720Y-71877431D01*
X174294126Y-72035000D01*
X174705874Y-72035000D01*
X175086280Y-71877431D01*
X175377431Y-71586280D01*
X175535000Y-71205874D01*
X175535000Y-70794126D01*
X182565000Y-70794126D01*
X182565000Y-71205874D01*
X182722569Y-71586280D01*
X183013720Y-71877431D01*
X183394126Y-72035000D01*
X183805874Y-72035000D01*
X184186280Y-71877431D01*
X184477431Y-71586280D01*
X184635000Y-71205874D01*
X184635000Y-70794126D01*
X188465000Y-70794126D01*
X188465000Y-71205874D01*
X188622569Y-71586280D01*
X188913720Y-71877431D01*
X189294126Y-72035000D01*
X189705874Y-72035000D01*
X190086280Y-71877431D01*
X190377431Y-71586280D01*
X190535000Y-71205874D01*
X190535000Y-70794126D01*
X190377431Y-70413720D01*
X190086280Y-70122569D01*
X189705874Y-69965000D01*
X189294126Y-69965000D01*
X188913720Y-70122569D01*
X188622569Y-70413720D01*
X188465000Y-70794126D01*
X184635000Y-70794126D01*
X184477431Y-70413720D01*
X184186280Y-70122569D01*
X183805874Y-69965000D01*
X183394126Y-69965000D01*
X183013720Y-70122569D01*
X182722569Y-70413720D01*
X182565000Y-70794126D01*
X175535000Y-70794126D01*
X175377431Y-70413720D01*
X175086280Y-70122569D01*
X174705874Y-69965000D01*
X174294126Y-69965000D01*
X173913720Y-70122569D01*
X173622569Y-70413720D01*
X173465000Y-70794126D01*
X164035000Y-70794126D01*
X163877431Y-70413720D01*
X163586280Y-70122569D01*
X163205874Y-69965000D01*
X162794126Y-69965000D01*
X162413720Y-70122569D01*
X162122569Y-70413720D01*
X161965000Y-70794126D01*
X150935000Y-70794126D01*
X150830902Y-70542809D01*
X150927431Y-70446280D01*
X151085000Y-70065874D01*
X151085000Y-69654126D01*
X150927431Y-69273720D01*
X150636280Y-68982569D01*
X150255874Y-68825000D01*
X149844126Y-68825000D01*
X149463720Y-68982569D01*
X149172569Y-69273720D01*
X149015000Y-69654126D01*
X149015000Y-70065874D01*
X149119098Y-70317191D01*
X149022569Y-70413720D01*
X148865000Y-70794126D01*
X148865000Y-71205874D01*
X149003179Y-71539468D01*
X148986280Y-71522569D01*
X148605874Y-71365000D01*
X148194126Y-71365000D01*
X147813720Y-71522569D01*
X147647489Y-71688800D01*
X144610042Y-71688800D01*
X144540000Y-71674868D01*
X144469958Y-71688800D01*
X144469954Y-71688800D01*
X144262504Y-71730064D01*
X144262502Y-71730065D01*
X144262503Y-71730065D01*
X144086635Y-71847576D01*
X144086633Y-71847578D01*
X144027254Y-71887254D01*
X143987578Y-71946633D01*
X141366634Y-74567578D01*
X141307255Y-74607254D01*
X141267579Y-74666633D01*
X141267576Y-74666636D01*
X141150065Y-74842504D01*
X141106737Y-75060332D01*
X140755874Y-74915000D01*
X140344126Y-74915000D01*
X139963720Y-75072569D01*
X139672569Y-75363720D01*
X139515000Y-75744126D01*
X139515000Y-75977064D01*
X139163720Y-76122569D01*
X138872569Y-76413720D01*
X138715000Y-76794126D01*
X138715000Y-77205874D01*
X138872569Y-77586280D01*
X139163720Y-77877431D01*
X139465000Y-78002225D01*
X139465000Y-78205874D01*
X139622569Y-78586280D01*
X139913720Y-78877431D01*
X140142158Y-78972053D01*
X139465412Y-79648800D01*
X139164911Y-79648800D01*
X139327431Y-79486280D01*
X139485000Y-79105874D01*
X139485000Y-78694126D01*
X139327431Y-78313720D01*
X139036280Y-78022569D01*
X138655874Y-77865000D01*
X138244126Y-77865000D01*
X138085000Y-77930912D01*
X138085000Y-77794126D01*
X137927431Y-77413720D01*
X137636280Y-77122569D01*
X137255874Y-76965000D01*
X136844126Y-76965000D01*
X136833361Y-76969459D01*
X136727431Y-76713720D01*
X136436280Y-76422569D01*
X136055874Y-76265000D01*
X135731514Y-76265000D01*
X135627431Y-76013720D01*
X135336280Y-75722569D01*
X134955874Y-75565000D01*
X134544126Y-75565000D01*
X134163720Y-75722569D01*
X133997489Y-75888800D01*
X128214259Y-75888800D01*
X126519585Y-74194126D01*
X126627431Y-74086280D01*
X126785000Y-73705874D01*
X126785000Y-73394126D01*
X131565000Y-73394126D01*
X131565000Y-73805874D01*
X131722569Y-74186280D01*
X132013720Y-74477431D01*
X132394126Y-74635000D01*
X132805874Y-74635000D01*
X133186280Y-74477431D01*
X133477431Y-74186280D01*
X133635000Y-73805874D01*
X133635000Y-73394126D01*
X133547481Y-73182837D01*
X133794126Y-73285000D01*
X134205874Y-73285000D01*
X134586280Y-73127431D01*
X134877431Y-72836280D01*
X134965000Y-72624869D01*
X134965000Y-72975874D01*
X135122569Y-73356280D01*
X135413720Y-73647431D01*
X135794126Y-73805000D01*
X136205874Y-73805000D01*
X136586280Y-73647431D01*
X136877431Y-73356280D01*
X136972755Y-73126148D01*
X136994126Y-73135000D01*
X137405874Y-73135000D01*
X137786280Y-72977431D01*
X138077431Y-72686280D01*
X138235000Y-72305874D01*
X138235000Y-71894126D01*
X138077431Y-71513720D01*
X137786280Y-71222569D01*
X137405874Y-71065000D01*
X136994126Y-71065000D01*
X136613720Y-71222569D01*
X136322569Y-71513720D01*
X136227245Y-71743852D01*
X136205874Y-71735000D01*
X135794126Y-71735000D01*
X135413720Y-71892569D01*
X135122569Y-72183720D01*
X135035000Y-72395131D01*
X135035000Y-72044126D01*
X134877431Y-71663720D01*
X134586280Y-71372569D01*
X134205874Y-71215000D01*
X133794126Y-71215000D01*
X133413720Y-71372569D01*
X133122569Y-71663720D01*
X132965000Y-72044126D01*
X132965000Y-72455874D01*
X133052519Y-72667163D01*
X132805874Y-72565000D01*
X132394126Y-72565000D01*
X132013720Y-72722569D01*
X131722569Y-73013720D01*
X131565000Y-73394126D01*
X126785000Y-73394126D01*
X126785000Y-73294126D01*
X126627431Y-72913720D01*
X126336280Y-72622569D01*
X125955874Y-72465000D01*
X125544126Y-72465000D01*
X125163720Y-72622569D01*
X125055874Y-72730415D01*
X122332085Y-70006626D01*
X126065000Y-70006626D01*
X126065000Y-70418374D01*
X126222569Y-70798780D01*
X126513720Y-71089931D01*
X126894126Y-71247500D01*
X127305874Y-71247500D01*
X127686280Y-71089931D01*
X127977431Y-70798780D01*
X128135000Y-70418374D01*
X128135000Y-70006626D01*
X127977431Y-69626220D01*
X127686280Y-69335069D01*
X127305874Y-69177500D01*
X126894126Y-69177500D01*
X126513720Y-69335069D01*
X126222569Y-69626220D01*
X126065000Y-70006626D01*
X122332085Y-70006626D01*
X120575694Y-68250236D01*
X120536017Y-68190855D01*
X120300767Y-68033665D01*
X120093317Y-67992401D01*
X120093312Y-67992401D01*
X120023271Y-67978469D01*
X119953230Y-67992401D01*
X117897393Y-67992401D01*
X117935664Y-67800000D01*
X117833993Y-67288864D01*
X117544457Y-66855543D01*
X117461331Y-66800000D01*
X117544457Y-66744457D01*
X117833993Y-66311136D01*
X117935664Y-65800000D01*
X117833993Y-65288864D01*
X117544457Y-64855543D01*
X117461331Y-64800000D01*
X117544457Y-64744457D01*
X117778540Y-64394126D01*
X229565000Y-64394126D01*
X229565000Y-64805874D01*
X229722569Y-65186280D01*
X230013720Y-65477431D01*
X230394126Y-65635000D01*
X230805874Y-65635000D01*
X231186280Y-65477431D01*
X231477431Y-65186280D01*
X231635000Y-64805874D01*
X231635000Y-64394126D01*
X231477431Y-64013720D01*
X231186280Y-63722569D01*
X230805874Y-63565000D01*
X230394126Y-63565000D01*
X230013720Y-63722569D01*
X229722569Y-64013720D01*
X229565000Y-64394126D01*
X117778540Y-64394126D01*
X117833993Y-64311136D01*
X117935664Y-63800000D01*
X117833993Y-63288864D01*
X117544457Y-62855543D01*
X117111136Y-62566007D01*
X116729022Y-62490000D01*
X116470978Y-62490000D01*
X116088864Y-62566007D01*
X115655543Y-62855543D01*
X115600000Y-62938669D01*
X115544457Y-62855543D01*
X115111136Y-62566007D01*
X114729022Y-62490000D01*
X114470978Y-62490000D01*
X114088864Y-62566007D01*
X113689975Y-62832536D01*
X113686416Y-59874126D01*
X124965000Y-59874126D01*
X124965000Y-60285874D01*
X125122569Y-60666280D01*
X125413720Y-60957431D01*
X125794126Y-61115000D01*
X126205874Y-61115000D01*
X126586280Y-60957431D01*
X126877431Y-60666280D01*
X127035000Y-60285874D01*
X127035000Y-59874126D01*
X126877431Y-59493720D01*
X126593711Y-59210000D01*
X128485908Y-59210000D01*
X128601161Y-59789418D01*
X128929375Y-60280625D01*
X128947619Y-60292816D01*
X128902235Y-60301843D01*
X128692191Y-60442191D01*
X128551843Y-60652235D01*
X128502560Y-60900000D01*
X128502560Y-62600000D01*
X128551843Y-62847765D01*
X128692191Y-63057809D01*
X128902235Y-63198157D01*
X129150000Y-63247440D01*
X130850000Y-63247440D01*
X131097765Y-63198157D01*
X131307809Y-63057809D01*
X131448157Y-62847765D01*
X131457184Y-62802381D01*
X131469375Y-62820625D01*
X131960582Y-63148839D01*
X132393744Y-63235000D01*
X132686256Y-63235000D01*
X133119418Y-63148839D01*
X133610625Y-62820625D01*
X133810000Y-62522239D01*
X134009375Y-62820625D01*
X134500582Y-63148839D01*
X134933744Y-63235000D01*
X135226256Y-63235000D01*
X135659418Y-63148839D01*
X136150625Y-62820625D01*
X136350000Y-62522239D01*
X136549375Y-62820625D01*
X137040582Y-63148839D01*
X137473744Y-63235000D01*
X137766256Y-63235000D01*
X138199418Y-63148839D01*
X138690625Y-62820625D01*
X138890000Y-62522239D01*
X139089375Y-62820625D01*
X139580582Y-63148839D01*
X140013744Y-63235000D01*
X140306256Y-63235000D01*
X140739418Y-63148839D01*
X141230625Y-62820625D01*
X141430000Y-62522239D01*
X141629375Y-62820625D01*
X142120582Y-63148839D01*
X142553744Y-63235000D01*
X142846256Y-63235000D01*
X143279418Y-63148839D01*
X143770625Y-62820625D01*
X143970000Y-62522239D01*
X144169375Y-62820625D01*
X144660582Y-63148839D01*
X145093744Y-63235000D01*
X145386256Y-63235000D01*
X145819418Y-63148839D01*
X146310625Y-62820625D01*
X146510000Y-62522239D01*
X146709375Y-62820625D01*
X147200582Y-63148839D01*
X147633744Y-63235000D01*
X147926256Y-63235000D01*
X148359418Y-63148839D01*
X148850625Y-62820625D01*
X149050000Y-62522239D01*
X149249375Y-62820625D01*
X149740582Y-63148839D01*
X150173744Y-63235000D01*
X150466256Y-63235000D01*
X150899418Y-63148839D01*
X151390625Y-62820625D01*
X151590000Y-62522239D01*
X151789375Y-62820625D01*
X152280582Y-63148839D01*
X152713744Y-63235000D01*
X153006256Y-63235000D01*
X153439418Y-63148839D01*
X153930625Y-62820625D01*
X154130000Y-62522239D01*
X154329375Y-62820625D01*
X154820582Y-63148839D01*
X155253744Y-63235000D01*
X155546256Y-63235000D01*
X155979418Y-63148839D01*
X156470625Y-62820625D01*
X156670000Y-62522239D01*
X156869375Y-62820625D01*
X157360582Y-63148839D01*
X157793744Y-63235000D01*
X158086256Y-63235000D01*
X158519418Y-63148839D01*
X159010625Y-62820625D01*
X159210000Y-62522239D01*
X159409375Y-62820625D01*
X159900582Y-63148839D01*
X160333744Y-63235000D01*
X160626256Y-63235000D01*
X161059418Y-63148839D01*
X161550625Y-62820625D01*
X161750000Y-62522239D01*
X161949375Y-62820625D01*
X162440582Y-63148839D01*
X162873744Y-63235000D01*
X163166256Y-63235000D01*
X163599418Y-63148839D01*
X164090625Y-62820625D01*
X164303843Y-62501522D01*
X164364817Y-62631358D01*
X164793076Y-63021645D01*
X165203110Y-63191476D01*
X165433000Y-63070155D01*
X165433000Y-61877000D01*
X165413000Y-61877000D01*
X165413000Y-61623000D01*
X165433000Y-61623000D01*
X165433000Y-59337000D01*
X165413000Y-59337000D01*
X165413000Y-59083000D01*
X165433000Y-59083000D01*
X165433000Y-57889845D01*
X165687000Y-57889845D01*
X165687000Y-59083000D01*
X165707000Y-59083000D01*
X165707000Y-59337000D01*
X165687000Y-59337000D01*
X165687000Y-61623000D01*
X165707000Y-61623000D01*
X165707000Y-61877000D01*
X165687000Y-61877000D01*
X165687000Y-63070155D01*
X165916890Y-63191476D01*
X166326924Y-63021645D01*
X166755183Y-62631358D01*
X166816157Y-62501522D01*
X167029375Y-62820625D01*
X167520582Y-63148839D01*
X167953744Y-63235000D01*
X168246256Y-63235000D01*
X168679418Y-63148839D01*
X169170625Y-62820625D01*
X169383843Y-62501522D01*
X169444817Y-62631358D01*
X169873076Y-63021645D01*
X170283110Y-63191476D01*
X170513000Y-63070155D01*
X170513000Y-61877000D01*
X170493000Y-61877000D01*
X170493000Y-61623000D01*
X170513000Y-61623000D01*
X170513000Y-59337000D01*
X170493000Y-59337000D01*
X170493000Y-59083000D01*
X170513000Y-59083000D01*
X170513000Y-57889845D01*
X170767000Y-57889845D01*
X170767000Y-59083000D01*
X170787000Y-59083000D01*
X170787000Y-59337000D01*
X170767000Y-59337000D01*
X170767000Y-61623000D01*
X170787000Y-61623000D01*
X170787000Y-61877000D01*
X170767000Y-61877000D01*
X170767000Y-63070155D01*
X170996890Y-63191476D01*
X171406924Y-63021645D01*
X171835183Y-62631358D01*
X171896157Y-62501522D01*
X172109375Y-62820625D01*
X172600582Y-63148839D01*
X173033744Y-63235000D01*
X173326256Y-63235000D01*
X173759418Y-63148839D01*
X174250625Y-62820625D01*
X174450000Y-62522239D01*
X174649375Y-62820625D01*
X175140582Y-63148839D01*
X175573744Y-63235000D01*
X175866256Y-63235000D01*
X176299418Y-63148839D01*
X176790625Y-62820625D01*
X176990000Y-62522239D01*
X177189375Y-62820625D01*
X177680582Y-63148839D01*
X178113744Y-63235000D01*
X178406256Y-63235000D01*
X178839418Y-63148839D01*
X179330625Y-62820625D01*
X179530000Y-62522239D01*
X179729375Y-62820625D01*
X180220582Y-63148839D01*
X180653744Y-63235000D01*
X180946256Y-63235000D01*
X181379418Y-63148839D01*
X181870625Y-62820625D01*
X182070000Y-62522239D01*
X182269375Y-62820625D01*
X182760582Y-63148839D01*
X183193744Y-63235000D01*
X183486256Y-63235000D01*
X183919418Y-63148839D01*
X184410625Y-62820625D01*
X184610000Y-62522239D01*
X184809375Y-62820625D01*
X185300582Y-63148839D01*
X185733744Y-63235000D01*
X186026256Y-63235000D01*
X186459418Y-63148839D01*
X186950625Y-62820625D01*
X187150000Y-62522239D01*
X187349375Y-62820625D01*
X187840582Y-63148839D01*
X188273744Y-63235000D01*
X188566256Y-63235000D01*
X188999418Y-63148839D01*
X189490625Y-62820625D01*
X189690000Y-62522239D01*
X189889375Y-62820625D01*
X190380582Y-63148839D01*
X190813744Y-63235000D01*
X191106256Y-63235000D01*
X191539418Y-63148839D01*
X192030625Y-62820625D01*
X192230000Y-62522239D01*
X192429375Y-62820625D01*
X192920582Y-63148839D01*
X193353744Y-63235000D01*
X193646256Y-63235000D01*
X194079418Y-63148839D01*
X194570625Y-62820625D01*
X194770000Y-62522239D01*
X194969375Y-62820625D01*
X195460582Y-63148839D01*
X195893744Y-63235000D01*
X196186256Y-63235000D01*
X196619418Y-63148839D01*
X197110625Y-62820625D01*
X197310000Y-62522239D01*
X197509375Y-62820625D01*
X198000582Y-63148839D01*
X198433744Y-63235000D01*
X198726256Y-63235000D01*
X199159418Y-63148839D01*
X199650625Y-62820625D01*
X199850000Y-62522239D01*
X200049375Y-62820625D01*
X200540582Y-63148839D01*
X200973744Y-63235000D01*
X201266256Y-63235000D01*
X201699418Y-63148839D01*
X202190625Y-62820625D01*
X202390000Y-62522239D01*
X202589375Y-62820625D01*
X203080582Y-63148839D01*
X203513744Y-63235000D01*
X203806256Y-63235000D01*
X204239418Y-63148839D01*
X204730625Y-62820625D01*
X204930000Y-62522239D01*
X205129375Y-62820625D01*
X205620582Y-63148839D01*
X206053744Y-63235000D01*
X206346256Y-63235000D01*
X206779418Y-63148839D01*
X207270625Y-62820625D01*
X207470000Y-62522239D01*
X207669375Y-62820625D01*
X208160582Y-63148839D01*
X208593744Y-63235000D01*
X208886256Y-63235000D01*
X209319418Y-63148839D01*
X209810625Y-62820625D01*
X210138839Y-62329418D01*
X210254092Y-61750000D01*
X210237508Y-61666626D01*
X245195000Y-61666626D01*
X245195000Y-62078374D01*
X245352569Y-62458780D01*
X245643720Y-62749931D01*
X246024126Y-62907500D01*
X246435874Y-62907500D01*
X246816280Y-62749931D01*
X247107431Y-62458780D01*
X247265000Y-62078374D01*
X247265000Y-61669126D01*
X251345000Y-61669126D01*
X251345000Y-62080874D01*
X251502569Y-62461280D01*
X251793720Y-62752431D01*
X252174126Y-62910000D01*
X252585874Y-62910000D01*
X252966280Y-62752431D01*
X253257431Y-62461280D01*
X253415000Y-62080874D01*
X253415000Y-61669126D01*
X253257431Y-61288720D01*
X252966280Y-60997569D01*
X252585874Y-60840000D01*
X252174126Y-60840000D01*
X251793720Y-60997569D01*
X251502569Y-61288720D01*
X251345000Y-61669126D01*
X247265000Y-61669126D01*
X247265000Y-61666626D01*
X247107431Y-61286220D01*
X246816280Y-60995069D01*
X246435874Y-60837500D01*
X246024126Y-60837500D01*
X245643720Y-60995069D01*
X245352569Y-61286220D01*
X245195000Y-61666626D01*
X210237508Y-61666626D01*
X210138839Y-61170582D01*
X209810625Y-60679375D01*
X209512239Y-60480000D01*
X209810625Y-60280625D01*
X210138839Y-59789418D01*
X210254092Y-59210000D01*
X210191261Y-58894126D01*
X245027500Y-58894126D01*
X245027500Y-59305874D01*
X245185069Y-59686280D01*
X245476220Y-59977431D01*
X245856626Y-60135000D01*
X246268374Y-60135000D01*
X246648780Y-59977431D01*
X246939931Y-59686280D01*
X247097500Y-59305874D01*
X247097500Y-58894126D01*
X246939931Y-58513720D01*
X246845337Y-58419126D01*
X254465000Y-58419126D01*
X254465000Y-58830874D01*
X254622569Y-59211280D01*
X254913720Y-59502431D01*
X255294126Y-59660000D01*
X255705874Y-59660000D01*
X256086280Y-59502431D01*
X256377431Y-59211280D01*
X256535000Y-58830874D01*
X256535000Y-58419126D01*
X256377431Y-58038720D01*
X256086280Y-57747569D01*
X255705874Y-57590000D01*
X255294126Y-57590000D01*
X254913720Y-57747569D01*
X254622569Y-58038720D01*
X254465000Y-58419126D01*
X246845337Y-58419126D01*
X246648780Y-58222569D01*
X246268374Y-58065000D01*
X245856626Y-58065000D01*
X245476220Y-58222569D01*
X245185069Y-58513720D01*
X245027500Y-58894126D01*
X210191261Y-58894126D01*
X210138839Y-58630582D01*
X209810625Y-58139375D01*
X209319418Y-57811161D01*
X208886256Y-57725000D01*
X208593744Y-57725000D01*
X208160582Y-57811161D01*
X207669375Y-58139375D01*
X207470000Y-58437761D01*
X207270625Y-58139375D01*
X206779418Y-57811161D01*
X206346256Y-57725000D01*
X206053744Y-57725000D01*
X205620582Y-57811161D01*
X205129375Y-58139375D01*
X204930000Y-58437761D01*
X204730625Y-58139375D01*
X204239418Y-57811161D01*
X203806256Y-57725000D01*
X203513744Y-57725000D01*
X203080582Y-57811161D01*
X202589375Y-58139375D01*
X202390000Y-58437761D01*
X202190625Y-58139375D01*
X201699418Y-57811161D01*
X201266256Y-57725000D01*
X200973744Y-57725000D01*
X200540582Y-57811161D01*
X200049375Y-58139375D01*
X199850000Y-58437761D01*
X199650625Y-58139375D01*
X199159418Y-57811161D01*
X198726256Y-57725000D01*
X198433744Y-57725000D01*
X198000582Y-57811161D01*
X197509375Y-58139375D01*
X197310000Y-58437761D01*
X197110625Y-58139375D01*
X196619418Y-57811161D01*
X196186256Y-57725000D01*
X195893744Y-57725000D01*
X195460582Y-57811161D01*
X194969375Y-58139375D01*
X194770000Y-58437761D01*
X194570625Y-58139375D01*
X194079418Y-57811161D01*
X193646256Y-57725000D01*
X193353744Y-57725000D01*
X192920582Y-57811161D01*
X192429375Y-58139375D01*
X192230000Y-58437761D01*
X192030625Y-58139375D01*
X191539418Y-57811161D01*
X191106256Y-57725000D01*
X190813744Y-57725000D01*
X190380582Y-57811161D01*
X189889375Y-58139375D01*
X189690000Y-58437761D01*
X189490625Y-58139375D01*
X188999418Y-57811161D01*
X188566256Y-57725000D01*
X188273744Y-57725000D01*
X187840582Y-57811161D01*
X187349375Y-58139375D01*
X187150000Y-58437761D01*
X186950625Y-58139375D01*
X186459418Y-57811161D01*
X186026256Y-57725000D01*
X185733744Y-57725000D01*
X185300582Y-57811161D01*
X184809375Y-58139375D01*
X184610000Y-58437761D01*
X184410625Y-58139375D01*
X183919418Y-57811161D01*
X183486256Y-57725000D01*
X183193744Y-57725000D01*
X182760582Y-57811161D01*
X182269375Y-58139375D01*
X182070000Y-58437761D01*
X181870625Y-58139375D01*
X181379418Y-57811161D01*
X180946256Y-57725000D01*
X180653744Y-57725000D01*
X180220582Y-57811161D01*
X179729375Y-58139375D01*
X179530000Y-58437761D01*
X179330625Y-58139375D01*
X178839418Y-57811161D01*
X178406256Y-57725000D01*
X178113744Y-57725000D01*
X177680582Y-57811161D01*
X177189375Y-58139375D01*
X176990000Y-58437761D01*
X176790625Y-58139375D01*
X176299418Y-57811161D01*
X175866256Y-57725000D01*
X175573744Y-57725000D01*
X175140582Y-57811161D01*
X174649375Y-58139375D01*
X174450000Y-58437761D01*
X174250625Y-58139375D01*
X173759418Y-57811161D01*
X173326256Y-57725000D01*
X173033744Y-57725000D01*
X172600582Y-57811161D01*
X172109375Y-58139375D01*
X171896157Y-58458478D01*
X171835183Y-58328642D01*
X171406924Y-57938355D01*
X170996890Y-57768524D01*
X170767000Y-57889845D01*
X170513000Y-57889845D01*
X170283110Y-57768524D01*
X169873076Y-57938355D01*
X169444817Y-58328642D01*
X169383843Y-58458478D01*
X169170625Y-58139375D01*
X168679418Y-57811161D01*
X168246256Y-57725000D01*
X167953744Y-57725000D01*
X167520582Y-57811161D01*
X167029375Y-58139375D01*
X166816157Y-58458478D01*
X166755183Y-58328642D01*
X166326924Y-57938355D01*
X165916890Y-57768524D01*
X165687000Y-57889845D01*
X165433000Y-57889845D01*
X165203110Y-57768524D01*
X164793076Y-57938355D01*
X164364817Y-58328642D01*
X164303843Y-58458478D01*
X164090625Y-58139375D01*
X163599418Y-57811161D01*
X163166256Y-57725000D01*
X162873744Y-57725000D01*
X162440582Y-57811161D01*
X161949375Y-58139375D01*
X161750000Y-58437761D01*
X161550625Y-58139375D01*
X161059418Y-57811161D01*
X160626256Y-57725000D01*
X160333744Y-57725000D01*
X159900582Y-57811161D01*
X159409375Y-58139375D01*
X159210000Y-58437761D01*
X159010625Y-58139375D01*
X158519418Y-57811161D01*
X158086256Y-57725000D01*
X157793744Y-57725000D01*
X157360582Y-57811161D01*
X156869375Y-58139375D01*
X156670000Y-58437761D01*
X156470625Y-58139375D01*
X155979418Y-57811161D01*
X155546256Y-57725000D01*
X155253744Y-57725000D01*
X154820582Y-57811161D01*
X154329375Y-58139375D01*
X154130000Y-58437761D01*
X153930625Y-58139375D01*
X153439418Y-57811161D01*
X153006256Y-57725000D01*
X152713744Y-57725000D01*
X152280582Y-57811161D01*
X151789375Y-58139375D01*
X151590000Y-58437761D01*
X151390625Y-58139375D01*
X150899418Y-57811161D01*
X150466256Y-57725000D01*
X150173744Y-57725000D01*
X149740582Y-57811161D01*
X149249375Y-58139375D01*
X149050000Y-58437761D01*
X148850625Y-58139375D01*
X148359418Y-57811161D01*
X147926256Y-57725000D01*
X147633744Y-57725000D01*
X147200582Y-57811161D01*
X146709375Y-58139375D01*
X146510000Y-58437761D01*
X146310625Y-58139375D01*
X145819418Y-57811161D01*
X145386256Y-57725000D01*
X145093744Y-57725000D01*
X144660582Y-57811161D01*
X144169375Y-58139375D01*
X143970000Y-58437761D01*
X143770625Y-58139375D01*
X143279418Y-57811161D01*
X142846256Y-57725000D01*
X142553744Y-57725000D01*
X142120582Y-57811161D01*
X141629375Y-58139375D01*
X141430000Y-58437761D01*
X141230625Y-58139375D01*
X140739418Y-57811161D01*
X140306256Y-57725000D01*
X140013744Y-57725000D01*
X139580582Y-57811161D01*
X139089375Y-58139375D01*
X138890000Y-58437761D01*
X138690625Y-58139375D01*
X138199418Y-57811161D01*
X137766256Y-57725000D01*
X137473744Y-57725000D01*
X137040582Y-57811161D01*
X136549375Y-58139375D01*
X136350000Y-58437761D01*
X136150625Y-58139375D01*
X135659418Y-57811161D01*
X135226256Y-57725000D01*
X134933744Y-57725000D01*
X134500582Y-57811161D01*
X134009375Y-58139375D01*
X133810000Y-58437761D01*
X133610625Y-58139375D01*
X133119418Y-57811161D01*
X132686256Y-57725000D01*
X132393744Y-57725000D01*
X131960582Y-57811161D01*
X131469375Y-58139375D01*
X131270000Y-58437761D01*
X131070625Y-58139375D01*
X130579418Y-57811161D01*
X130146256Y-57725000D01*
X129853744Y-57725000D01*
X129420582Y-57811161D01*
X128929375Y-58139375D01*
X128601161Y-58630582D01*
X128485908Y-59210000D01*
X126593711Y-59210000D01*
X126586280Y-59202569D01*
X126205874Y-59045000D01*
X125794126Y-59045000D01*
X125413720Y-59202569D01*
X125122569Y-59493720D01*
X124965000Y-59874126D01*
X113686416Y-59874126D01*
X113683107Y-57124126D01*
X124965000Y-57124126D01*
X124965000Y-57535874D01*
X125122569Y-57916280D01*
X125413720Y-58207431D01*
X125794126Y-58365000D01*
X126205874Y-58365000D01*
X126586280Y-58207431D01*
X126877431Y-57916280D01*
X127035000Y-57535874D01*
X127035000Y-57124126D01*
X126877431Y-56743720D01*
X126586280Y-56452569D01*
X126205874Y-56295000D01*
X125794126Y-56295000D01*
X125413720Y-56452569D01*
X125122569Y-56743720D01*
X124965000Y-57124126D01*
X113683107Y-57124126D01*
X113678875Y-53606626D01*
X254005000Y-53606626D01*
X254005000Y-54018374D01*
X254162569Y-54398780D01*
X254453720Y-54689931D01*
X254834126Y-54847500D01*
X255245874Y-54847500D01*
X255626280Y-54689931D01*
X255917431Y-54398780D01*
X256075000Y-54018374D01*
X256075000Y-53606626D01*
X255917431Y-53226220D01*
X255626280Y-52935069D01*
X255245874Y-52777500D01*
X254834126Y-52777500D01*
X254453720Y-52935069D01*
X254162569Y-53226220D01*
X254005000Y-53606626D01*
X113678875Y-53606626D01*
X113677107Y-52138146D01*
X124715000Y-52138146D01*
X124715000Y-52549894D01*
X124872569Y-52930300D01*
X125163720Y-53221451D01*
X125544126Y-53379020D01*
X125955874Y-53379020D01*
X126336280Y-53221451D01*
X126627431Y-52930300D01*
X126785000Y-52549894D01*
X126785000Y-52138146D01*
X126627431Y-51757740D01*
X126336280Y-51466589D01*
X125955874Y-51309020D01*
X125544126Y-51309020D01*
X125163720Y-51466589D01*
X124872569Y-51757740D01*
X124715000Y-52138146D01*
X113677107Y-52138146D01*
X113673022Y-48744126D01*
X114815000Y-48744126D01*
X114815000Y-49155874D01*
X114972569Y-49536280D01*
X115263720Y-49827431D01*
X115644126Y-49985000D01*
X116055874Y-49985000D01*
X116436280Y-49827431D01*
X116727431Y-49536280D01*
X116885000Y-49155874D01*
X116885000Y-48744126D01*
X116727431Y-48363720D01*
X116436280Y-48072569D01*
X116055874Y-47915000D01*
X115644126Y-47915000D01*
X115263720Y-48072569D01*
X114972569Y-48363720D01*
X114815000Y-48744126D01*
X113673022Y-48744126D01*
X113670648Y-46771168D01*
X124565000Y-46771168D01*
X124565000Y-47182916D01*
X124722569Y-47563322D01*
X125013720Y-47854473D01*
X125394126Y-48012042D01*
X125805874Y-48012042D01*
X126186280Y-47854473D01*
X126477431Y-47563322D01*
X126635000Y-47182916D01*
X126635000Y-46771168D01*
X126477431Y-46390762D01*
X126186280Y-46099611D01*
X125805874Y-45942042D01*
X125394126Y-45942042D01*
X125013720Y-46099611D01*
X124722569Y-46390762D01*
X124565000Y-46771168D01*
X113670648Y-46771168D01*
X113669172Y-45544126D01*
X253267500Y-45544126D01*
X253267500Y-45955874D01*
X253425069Y-46336280D01*
X253716220Y-46627431D01*
X254096626Y-46785000D01*
X254508374Y-46785000D01*
X254888780Y-46627431D01*
X255179931Y-46336280D01*
X255337500Y-45955874D01*
X255337500Y-45544126D01*
X255179931Y-45163720D01*
X254888780Y-44872569D01*
X254508374Y-44715000D01*
X254096626Y-44715000D01*
X253716220Y-44872569D01*
X253425069Y-45163720D01*
X253267500Y-45544126D01*
X113669172Y-45544126D01*
X113667079Y-43804500D01*
X124565000Y-43804500D01*
X124565000Y-44216248D01*
X124722569Y-44596654D01*
X125013720Y-44887805D01*
X125394126Y-45045374D01*
X125805874Y-45045374D01*
X126186280Y-44887805D01*
X126477431Y-44596654D01*
X126635000Y-44216248D01*
X126635000Y-43804500D01*
X126477431Y-43424094D01*
X126186280Y-43132943D01*
X125805874Y-42975374D01*
X125394126Y-42975374D01*
X125013720Y-43132943D01*
X124722569Y-43424094D01*
X124565000Y-43804500D01*
X113667079Y-43804500D01*
X113663509Y-40837834D01*
X124565000Y-40837834D01*
X124565000Y-41249582D01*
X124722569Y-41629988D01*
X125013720Y-41921139D01*
X125394126Y-42078708D01*
X125805874Y-42078708D01*
X126186280Y-41921139D01*
X126477431Y-41629988D01*
X126635000Y-41249582D01*
X126635000Y-40837834D01*
X126477431Y-40457428D01*
X126186280Y-40166277D01*
X125981914Y-40081626D01*
X247805000Y-40081626D01*
X247805000Y-40493374D01*
X247962569Y-40873780D01*
X248253720Y-41164931D01*
X248634126Y-41322500D01*
X249045874Y-41322500D01*
X249426280Y-41164931D01*
X249717431Y-40873780D01*
X249875000Y-40493374D01*
X249875000Y-40081626D01*
X249717431Y-39701220D01*
X249426280Y-39410069D01*
X249045874Y-39252500D01*
X248634126Y-39252500D01*
X248253720Y-39410069D01*
X247962569Y-39701220D01*
X247805000Y-40081626D01*
X125981914Y-40081626D01*
X125805874Y-40008708D01*
X125394126Y-40008708D01*
X125013720Y-40166277D01*
X124722569Y-40457428D01*
X124565000Y-40837834D01*
X113663509Y-40837834D01*
X113659939Y-37871168D01*
X124565000Y-37871168D01*
X124565000Y-38282916D01*
X124722569Y-38663322D01*
X125013720Y-38954473D01*
X125394126Y-39112042D01*
X125805874Y-39112042D01*
X126186280Y-38954473D01*
X126477431Y-38663322D01*
X126635000Y-38282916D01*
X126635000Y-37871168D01*
X126477431Y-37490762D01*
X126186280Y-37199611D01*
X125805874Y-37042042D01*
X125394126Y-37042042D01*
X125013720Y-37199611D01*
X124722569Y-37490762D01*
X124565000Y-37871168D01*
X113659939Y-37871168D01*
X113658162Y-36394126D01*
X232565000Y-36394126D01*
X232565000Y-36805874D01*
X232722569Y-37186280D01*
X233013720Y-37477431D01*
X233394126Y-37635000D01*
X233805874Y-37635000D01*
X234186280Y-37477431D01*
X234477431Y-37186280D01*
X234635000Y-36805874D01*
X234635000Y-36394126D01*
X234477431Y-36013720D01*
X234186280Y-35722569D01*
X233805874Y-35565000D01*
X233394126Y-35565000D01*
X233013720Y-35722569D01*
X232722569Y-36013720D01*
X232565000Y-36394126D01*
X113658162Y-36394126D01*
X113639396Y-20800000D01*
X120385908Y-20800000D01*
X120501161Y-21379418D01*
X120829375Y-21870625D01*
X121127761Y-22070000D01*
X120829375Y-22269375D01*
X120501161Y-22760582D01*
X120385908Y-23340000D01*
X120501161Y-23919418D01*
X120829375Y-24410625D01*
X121127761Y-24610000D01*
X120829375Y-24809375D01*
X120501161Y-25300582D01*
X120385908Y-25880000D01*
X120501161Y-26459418D01*
X120829375Y-26950625D01*
X121127761Y-27150000D01*
X120829375Y-27349375D01*
X120501161Y-27840582D01*
X120385908Y-28420000D01*
X120501161Y-28999418D01*
X120829375Y-29490625D01*
X121127761Y-29690000D01*
X120829375Y-29889375D01*
X120501161Y-30380582D01*
X120385908Y-30960000D01*
X120501161Y-31539418D01*
X120829375Y-32030625D01*
X120847619Y-32042816D01*
X120802235Y-32051843D01*
X120592191Y-32192191D01*
X120451843Y-32402235D01*
X120402560Y-32650000D01*
X120402560Y-34350000D01*
X120451843Y-34597765D01*
X120592191Y-34807809D01*
X120802235Y-34948157D01*
X121050000Y-34997440D01*
X122750000Y-34997440D01*
X122867208Y-34974126D01*
X242735000Y-34974126D01*
X242735000Y-35385874D01*
X242892569Y-35766280D01*
X243183720Y-36057431D01*
X243564126Y-36215000D01*
X243975874Y-36215000D01*
X244356280Y-36057431D01*
X244647431Y-35766280D01*
X244805000Y-35385874D01*
X244805000Y-34974126D01*
X244647431Y-34593720D01*
X244517838Y-34464127D01*
X247635000Y-34464127D01*
X247635000Y-34875875D01*
X247792569Y-35256281D01*
X248083720Y-35547432D01*
X248464126Y-35705001D01*
X248875874Y-35705001D01*
X249256280Y-35547432D01*
X249547431Y-35256281D01*
X249697440Y-34894126D01*
X250965000Y-34894126D01*
X250965000Y-35305874D01*
X251122569Y-35686280D01*
X251413720Y-35977431D01*
X251468206Y-36000000D01*
X251413720Y-36022569D01*
X251122569Y-36313720D01*
X250965000Y-36694126D01*
X250965000Y-37105874D01*
X251122569Y-37486280D01*
X251413720Y-37777431D01*
X251794126Y-37935000D01*
X252205874Y-37935000D01*
X252586280Y-37777431D01*
X252877431Y-37486280D01*
X253035000Y-37105874D01*
X253035000Y-36694126D01*
X252877431Y-36313720D01*
X252586280Y-36022569D01*
X252531794Y-36000000D01*
X252586280Y-35977431D01*
X252877431Y-35686280D01*
X253035000Y-35305874D01*
X253035000Y-34894126D01*
X252877431Y-34513720D01*
X252586280Y-34222569D01*
X252205874Y-34065000D01*
X251794126Y-34065000D01*
X251413720Y-34222569D01*
X251122569Y-34513720D01*
X250965000Y-34894126D01*
X249697440Y-34894126D01*
X249705000Y-34875875D01*
X249705000Y-34464127D01*
X249547431Y-34083721D01*
X249256280Y-33792570D01*
X248875874Y-33635001D01*
X248464126Y-33635001D01*
X248083720Y-33792570D01*
X247792569Y-34083721D01*
X247635000Y-34464127D01*
X244517838Y-34464127D01*
X244356280Y-34302569D01*
X243975874Y-34145000D01*
X243564126Y-34145000D01*
X243183720Y-34302569D01*
X242892569Y-34593720D01*
X242735000Y-34974126D01*
X122867208Y-34974126D01*
X122997765Y-34948157D01*
X123207809Y-34807809D01*
X123348157Y-34597765D01*
X123397440Y-34350000D01*
X123397440Y-32650000D01*
X123348157Y-32402235D01*
X123207809Y-32192191D01*
X122997765Y-32051843D01*
X122952381Y-32042816D01*
X122970625Y-32030625D01*
X123298839Y-31539418D01*
X123414092Y-30960000D01*
X123298839Y-30380582D01*
X122970625Y-29889375D01*
X122672239Y-29690000D01*
X122970625Y-29490625D01*
X123298839Y-28999418D01*
X123414092Y-28420000D01*
X123298839Y-27840582D01*
X123044543Y-27460000D01*
X128485908Y-27460000D01*
X128601161Y-28039418D01*
X128929375Y-28530625D01*
X128947619Y-28542816D01*
X128902235Y-28551843D01*
X128692191Y-28692191D01*
X128551843Y-28902235D01*
X128502560Y-29150000D01*
X128502560Y-30850000D01*
X128551843Y-31097765D01*
X128692191Y-31307809D01*
X128902235Y-31448157D01*
X129150000Y-31497440D01*
X130850000Y-31497440D01*
X131097765Y-31448157D01*
X131307809Y-31307809D01*
X131448157Y-31097765D01*
X131457184Y-31052381D01*
X131469375Y-31070625D01*
X131960582Y-31398839D01*
X132393744Y-31485000D01*
X132686256Y-31485000D01*
X133119418Y-31398839D01*
X133610625Y-31070625D01*
X133810000Y-30772239D01*
X134009375Y-31070625D01*
X134500582Y-31398839D01*
X134933744Y-31485000D01*
X135226256Y-31485000D01*
X135659418Y-31398839D01*
X136150625Y-31070625D01*
X136350000Y-30772239D01*
X136549375Y-31070625D01*
X137040582Y-31398839D01*
X137473744Y-31485000D01*
X137766256Y-31485000D01*
X138199418Y-31398839D01*
X138690625Y-31070625D01*
X138890000Y-30772239D01*
X139089375Y-31070625D01*
X139580582Y-31398839D01*
X140013744Y-31485000D01*
X140306256Y-31485000D01*
X140739418Y-31398839D01*
X141230625Y-31070625D01*
X141430000Y-30772239D01*
X141629375Y-31070625D01*
X142120582Y-31398839D01*
X142553744Y-31485000D01*
X142846256Y-31485000D01*
X143279418Y-31398839D01*
X143770625Y-31070625D01*
X143970000Y-30772239D01*
X144169375Y-31070625D01*
X144660582Y-31398839D01*
X145093744Y-31485000D01*
X145386256Y-31485000D01*
X145819418Y-31398839D01*
X146310625Y-31070625D01*
X146510000Y-30772239D01*
X146709375Y-31070625D01*
X147200582Y-31398839D01*
X147633744Y-31485000D01*
X147926256Y-31485000D01*
X148359418Y-31398839D01*
X148850625Y-31070625D01*
X149050000Y-30772239D01*
X149249375Y-31070625D01*
X149740582Y-31398839D01*
X150173744Y-31485000D01*
X150466256Y-31485000D01*
X150899418Y-31398839D01*
X151390625Y-31070625D01*
X151590000Y-30772239D01*
X151789375Y-31070625D01*
X152280582Y-31398839D01*
X152713744Y-31485000D01*
X153006256Y-31485000D01*
X153439418Y-31398839D01*
X153930625Y-31070625D01*
X154130000Y-30772239D01*
X154329375Y-31070625D01*
X154820582Y-31398839D01*
X155253744Y-31485000D01*
X155546256Y-31485000D01*
X155979418Y-31398839D01*
X156470625Y-31070625D01*
X156670000Y-30772239D01*
X156869375Y-31070625D01*
X157360582Y-31398839D01*
X157793744Y-31485000D01*
X158086256Y-31485000D01*
X158519418Y-31398839D01*
X159010625Y-31070625D01*
X159210000Y-30772239D01*
X159409375Y-31070625D01*
X159900582Y-31398839D01*
X160333744Y-31485000D01*
X160626256Y-31485000D01*
X161059418Y-31398839D01*
X161550625Y-31070625D01*
X161750000Y-30772239D01*
X161949375Y-31070625D01*
X162440582Y-31398839D01*
X162873744Y-31485000D01*
X163166256Y-31485000D01*
X163599418Y-31398839D01*
X164090625Y-31070625D01*
X164290000Y-30772239D01*
X164489375Y-31070625D01*
X164980582Y-31398839D01*
X165413744Y-31485000D01*
X165706256Y-31485000D01*
X166139418Y-31398839D01*
X166630625Y-31070625D01*
X166843843Y-30751522D01*
X166904817Y-30881358D01*
X167333076Y-31271645D01*
X167743110Y-31441476D01*
X167973000Y-31320155D01*
X167973000Y-30127000D01*
X167953000Y-30127000D01*
X167953000Y-29873000D01*
X167973000Y-29873000D01*
X167973000Y-27587000D01*
X167953000Y-27587000D01*
X167953000Y-27333000D01*
X167973000Y-27333000D01*
X167973000Y-26139845D01*
X168227000Y-26139845D01*
X168227000Y-27333000D01*
X168247000Y-27333000D01*
X168247000Y-27587000D01*
X168227000Y-27587000D01*
X168227000Y-29873000D01*
X168247000Y-29873000D01*
X168247000Y-30127000D01*
X168227000Y-30127000D01*
X168227000Y-31320155D01*
X168456890Y-31441476D01*
X168866924Y-31271645D01*
X169295183Y-30881358D01*
X169356157Y-30751522D01*
X169569375Y-31070625D01*
X170060582Y-31398839D01*
X170493744Y-31485000D01*
X170786256Y-31485000D01*
X171219418Y-31398839D01*
X171710625Y-31070625D01*
X171923843Y-30751522D01*
X171984817Y-30881358D01*
X172413076Y-31271645D01*
X172823110Y-31441476D01*
X173053000Y-31320155D01*
X173053000Y-30127000D01*
X173033000Y-30127000D01*
X173033000Y-29873000D01*
X173053000Y-29873000D01*
X173053000Y-27587000D01*
X173033000Y-27587000D01*
X173033000Y-27333000D01*
X173053000Y-27333000D01*
X173053000Y-26139845D01*
X173307000Y-26139845D01*
X173307000Y-27333000D01*
X173327000Y-27333000D01*
X173327000Y-27587000D01*
X173307000Y-27587000D01*
X173307000Y-29873000D01*
X173327000Y-29873000D01*
X173327000Y-30127000D01*
X173307000Y-30127000D01*
X173307000Y-31320155D01*
X173536890Y-31441476D01*
X173946924Y-31271645D01*
X174375183Y-30881358D01*
X174436157Y-30751522D01*
X174649375Y-31070625D01*
X175140582Y-31398839D01*
X175573744Y-31485000D01*
X175866256Y-31485000D01*
X176299418Y-31398839D01*
X176790625Y-31070625D01*
X176990000Y-30772239D01*
X177189375Y-31070625D01*
X177680582Y-31398839D01*
X178113744Y-31485000D01*
X178406256Y-31485000D01*
X178839418Y-31398839D01*
X179330625Y-31070625D01*
X179530000Y-30772239D01*
X179729375Y-31070625D01*
X180220582Y-31398839D01*
X180653744Y-31485000D01*
X180946256Y-31485000D01*
X181379418Y-31398839D01*
X181870625Y-31070625D01*
X182070000Y-30772239D01*
X182269375Y-31070625D01*
X182760582Y-31398839D01*
X183193744Y-31485000D01*
X183486256Y-31485000D01*
X183919418Y-31398839D01*
X184410625Y-31070625D01*
X184610000Y-30772239D01*
X184809375Y-31070625D01*
X185300582Y-31398839D01*
X185733744Y-31485000D01*
X186026256Y-31485000D01*
X186459418Y-31398839D01*
X186950625Y-31070625D01*
X187150000Y-30772239D01*
X187349375Y-31070625D01*
X187840582Y-31398839D01*
X188273744Y-31485000D01*
X188566256Y-31485000D01*
X188999418Y-31398839D01*
X189490625Y-31070625D01*
X189690000Y-30772239D01*
X189889375Y-31070625D01*
X190380582Y-31398839D01*
X190813744Y-31485000D01*
X191106256Y-31485000D01*
X191539418Y-31398839D01*
X192030625Y-31070625D01*
X192230000Y-30772239D01*
X192429375Y-31070625D01*
X192920582Y-31398839D01*
X193353744Y-31485000D01*
X193646256Y-31485000D01*
X194079418Y-31398839D01*
X194570625Y-31070625D01*
X194770000Y-30772239D01*
X194969375Y-31070625D01*
X195460582Y-31398839D01*
X195893744Y-31485000D01*
X196186256Y-31485000D01*
X196619418Y-31398839D01*
X197110625Y-31070625D01*
X197310000Y-30772239D01*
X197509375Y-31070625D01*
X198000582Y-31398839D01*
X198433744Y-31485000D01*
X198726256Y-31485000D01*
X199159418Y-31398839D01*
X199650625Y-31070625D01*
X199850000Y-30772239D01*
X200049375Y-31070625D01*
X200540582Y-31398839D01*
X200973744Y-31485000D01*
X201266256Y-31485000D01*
X201699418Y-31398839D01*
X202190625Y-31070625D01*
X202390000Y-30772239D01*
X202589375Y-31070625D01*
X203080582Y-31398839D01*
X203513744Y-31485000D01*
X203806256Y-31485000D01*
X204239418Y-31398839D01*
X204730625Y-31070625D01*
X204930000Y-30772239D01*
X205129375Y-31070625D01*
X205620582Y-31398839D01*
X206053744Y-31485000D01*
X206346256Y-31485000D01*
X206779418Y-31398839D01*
X207270625Y-31070625D01*
X207470000Y-30772239D01*
X207669375Y-31070625D01*
X208160582Y-31398839D01*
X208593744Y-31485000D01*
X208886256Y-31485000D01*
X209319418Y-31398839D01*
X209810625Y-31070625D01*
X210138839Y-30579418D01*
X210254092Y-30000000D01*
X210138839Y-29420582D01*
X209810625Y-28929375D01*
X209512239Y-28730000D01*
X209810625Y-28530625D01*
X210138839Y-28039418D01*
X210246135Y-27500000D01*
X214894336Y-27500000D01*
X214996007Y-28011136D01*
X215285543Y-28444457D01*
X215368669Y-28500000D01*
X215285543Y-28555543D01*
X214996007Y-28988864D01*
X214894336Y-29500000D01*
X214996007Y-30011136D01*
X215285543Y-30444457D01*
X215718864Y-30733993D01*
X216100978Y-30810000D01*
X216359022Y-30810000D01*
X216741136Y-30733993D01*
X217174457Y-30444457D01*
X217230000Y-30361331D01*
X217285543Y-30444457D01*
X217718864Y-30733993D01*
X218100978Y-30810000D01*
X218359022Y-30810000D01*
X218741136Y-30733993D01*
X219174457Y-30444457D01*
X219230000Y-30361331D01*
X219285543Y-30444457D01*
X219718864Y-30733993D01*
X220100978Y-30810000D01*
X220359022Y-30810000D01*
X220741136Y-30733993D01*
X221174457Y-30444457D01*
X221230000Y-30361331D01*
X221285543Y-30444457D01*
X221718864Y-30733993D01*
X222100978Y-30810000D01*
X222359022Y-30810000D01*
X222741136Y-30733993D01*
X223174457Y-30444457D01*
X223230000Y-30361331D01*
X223285543Y-30444457D01*
X223718864Y-30733993D01*
X224100978Y-30810000D01*
X224359022Y-30810000D01*
X224741136Y-30733993D01*
X225174457Y-30444457D01*
X225230000Y-30361331D01*
X225285543Y-30444457D01*
X225718864Y-30733993D01*
X226100978Y-30810000D01*
X226359022Y-30810000D01*
X226741136Y-30733993D01*
X227174457Y-30444457D01*
X227230000Y-30361331D01*
X227285543Y-30444457D01*
X227718864Y-30733993D01*
X228100978Y-30810000D01*
X228359022Y-30810000D01*
X228741136Y-30733993D01*
X229174457Y-30444457D01*
X229463993Y-30011136D01*
X229473343Y-29964126D01*
X241835000Y-29964126D01*
X241835000Y-30375874D01*
X241992569Y-30756280D01*
X242283720Y-31047431D01*
X242664126Y-31205000D01*
X243075874Y-31205000D01*
X243456280Y-31047431D01*
X243747431Y-30756280D01*
X243905000Y-30375874D01*
X243905000Y-29964126D01*
X243747431Y-29583720D01*
X243467837Y-29304126D01*
X245985000Y-29304126D01*
X245985000Y-29715874D01*
X246142569Y-30096280D01*
X246433720Y-30387431D01*
X246814126Y-30545000D01*
X247225874Y-30545000D01*
X247606280Y-30387431D01*
X247897431Y-30096280D01*
X248055000Y-29715874D01*
X248055000Y-29304126D01*
X247897431Y-28923720D01*
X247606280Y-28632569D01*
X247225874Y-28475000D01*
X246814126Y-28475000D01*
X246433720Y-28632569D01*
X246142569Y-28923720D01*
X245985000Y-29304126D01*
X243467837Y-29304126D01*
X243456280Y-29292569D01*
X243075874Y-29135000D01*
X242664126Y-29135000D01*
X242283720Y-29292569D01*
X241992569Y-29583720D01*
X241835000Y-29964126D01*
X229473343Y-29964126D01*
X229565664Y-29500000D01*
X229463993Y-28988864D01*
X229268286Y-28695968D01*
X229362809Y-28632809D01*
X229503157Y-28422765D01*
X229552440Y-28175000D01*
X229552440Y-27044126D01*
X254215000Y-27044126D01*
X254215000Y-27455874D01*
X254372569Y-27836280D01*
X254663720Y-28127431D01*
X255044126Y-28285000D01*
X255455874Y-28285000D01*
X255836280Y-28127431D01*
X256127431Y-27836280D01*
X256285000Y-27455874D01*
X256285000Y-27044126D01*
X256127431Y-26663720D01*
X255836280Y-26372569D01*
X255455874Y-26215000D01*
X255044126Y-26215000D01*
X254663720Y-26372569D01*
X254372569Y-26663720D01*
X254215000Y-27044126D01*
X229552440Y-27044126D01*
X229552440Y-26825000D01*
X229503157Y-26577235D01*
X229362809Y-26367191D01*
X229152765Y-26226843D01*
X228905000Y-26177560D01*
X227555000Y-26177560D01*
X227307235Y-26226843D01*
X227097191Y-26367191D01*
X227034032Y-26461714D01*
X226741136Y-26266007D01*
X226359022Y-26190000D01*
X226100978Y-26190000D01*
X225718864Y-26266007D01*
X225285543Y-26555543D01*
X225230000Y-26638669D01*
X225174457Y-26555543D01*
X224741136Y-26266007D01*
X224359022Y-26190000D01*
X224100978Y-26190000D01*
X223718864Y-26266007D01*
X223285543Y-26555543D01*
X223230000Y-26638669D01*
X223174457Y-26555543D01*
X222741136Y-26266007D01*
X222359022Y-26190000D01*
X222100978Y-26190000D01*
X221718864Y-26266007D01*
X221285543Y-26555543D01*
X221230000Y-26638669D01*
X221174457Y-26555543D01*
X220741136Y-26266007D01*
X220359022Y-26190000D01*
X220100978Y-26190000D01*
X219718864Y-26266007D01*
X219285543Y-26555543D01*
X219230000Y-26638669D01*
X219174457Y-26555543D01*
X218741136Y-26266007D01*
X218359022Y-26190000D01*
X218100978Y-26190000D01*
X217718864Y-26266007D01*
X217285543Y-26555543D01*
X217230000Y-26638669D01*
X217174457Y-26555543D01*
X216741136Y-26266007D01*
X216359022Y-26190000D01*
X216100978Y-26190000D01*
X215718864Y-26266007D01*
X215285543Y-26555543D01*
X214996007Y-26988864D01*
X214894336Y-27500000D01*
X210246135Y-27500000D01*
X210254092Y-27460000D01*
X210138839Y-26880582D01*
X209810625Y-26389375D01*
X209319418Y-26061161D01*
X208886256Y-25975000D01*
X208593744Y-25975000D01*
X208160582Y-26061161D01*
X207669375Y-26389375D01*
X207470000Y-26687761D01*
X207270625Y-26389375D01*
X206779418Y-26061161D01*
X206346256Y-25975000D01*
X206053744Y-25975000D01*
X205620582Y-26061161D01*
X205129375Y-26389375D01*
X204930000Y-26687761D01*
X204730625Y-26389375D01*
X204239418Y-26061161D01*
X203806256Y-25975000D01*
X203513744Y-25975000D01*
X203080582Y-26061161D01*
X202589375Y-26389375D01*
X202390000Y-26687761D01*
X202190625Y-26389375D01*
X201699418Y-26061161D01*
X201266256Y-25975000D01*
X200973744Y-25975000D01*
X200540582Y-26061161D01*
X200049375Y-26389375D01*
X199850000Y-26687761D01*
X199650625Y-26389375D01*
X199159418Y-26061161D01*
X198726256Y-25975000D01*
X198433744Y-25975000D01*
X198000582Y-26061161D01*
X197509375Y-26389375D01*
X197310000Y-26687761D01*
X197110625Y-26389375D01*
X196619418Y-26061161D01*
X196186256Y-25975000D01*
X195893744Y-25975000D01*
X195460582Y-26061161D01*
X194969375Y-26389375D01*
X194770000Y-26687761D01*
X194570625Y-26389375D01*
X194079418Y-26061161D01*
X193646256Y-25975000D01*
X193353744Y-25975000D01*
X192920582Y-26061161D01*
X192429375Y-26389375D01*
X192230000Y-26687761D01*
X192030625Y-26389375D01*
X191539418Y-26061161D01*
X191106256Y-25975000D01*
X190813744Y-25975000D01*
X190380582Y-26061161D01*
X189889375Y-26389375D01*
X189690000Y-26687761D01*
X189490625Y-26389375D01*
X188999418Y-26061161D01*
X188566256Y-25975000D01*
X188273744Y-25975000D01*
X187840582Y-26061161D01*
X187349375Y-26389375D01*
X187150000Y-26687761D01*
X186950625Y-26389375D01*
X186459418Y-26061161D01*
X186026256Y-25975000D01*
X185733744Y-25975000D01*
X185300582Y-26061161D01*
X184809375Y-26389375D01*
X184610000Y-26687761D01*
X184410625Y-26389375D01*
X183919418Y-26061161D01*
X183486256Y-25975000D01*
X183193744Y-25975000D01*
X182760582Y-26061161D01*
X182269375Y-26389375D01*
X182070000Y-26687761D01*
X181870625Y-26389375D01*
X181379418Y-26061161D01*
X180946256Y-25975000D01*
X180653744Y-25975000D01*
X180220582Y-26061161D01*
X179729375Y-26389375D01*
X179530000Y-26687761D01*
X179330625Y-26389375D01*
X178839418Y-26061161D01*
X178406256Y-25975000D01*
X178113744Y-25975000D01*
X177680582Y-26061161D01*
X177189375Y-26389375D01*
X176990000Y-26687761D01*
X176790625Y-26389375D01*
X176299418Y-26061161D01*
X175866256Y-25975000D01*
X175573744Y-25975000D01*
X175140582Y-26061161D01*
X174649375Y-26389375D01*
X174436157Y-26708478D01*
X174375183Y-26578642D01*
X173946924Y-26188355D01*
X173536890Y-26018524D01*
X173307000Y-26139845D01*
X173053000Y-26139845D01*
X172823110Y-26018524D01*
X172413076Y-26188355D01*
X171984817Y-26578642D01*
X171923843Y-26708478D01*
X171710625Y-26389375D01*
X171219418Y-26061161D01*
X170786256Y-25975000D01*
X170493744Y-25975000D01*
X170060582Y-26061161D01*
X169569375Y-26389375D01*
X169356157Y-26708478D01*
X169295183Y-26578642D01*
X168866924Y-26188355D01*
X168456890Y-26018524D01*
X168227000Y-26139845D01*
X167973000Y-26139845D01*
X167743110Y-26018524D01*
X167333076Y-26188355D01*
X166904817Y-26578642D01*
X166843843Y-26708478D01*
X166630625Y-26389375D01*
X166139418Y-26061161D01*
X165706256Y-25975000D01*
X165413744Y-25975000D01*
X164980582Y-26061161D01*
X164489375Y-26389375D01*
X164290000Y-26687761D01*
X164090625Y-26389375D01*
X163599418Y-26061161D01*
X163166256Y-25975000D01*
X162873744Y-25975000D01*
X162440582Y-26061161D01*
X161949375Y-26389375D01*
X161750000Y-26687761D01*
X161550625Y-26389375D01*
X161059418Y-26061161D01*
X160626256Y-25975000D01*
X160333744Y-25975000D01*
X159900582Y-26061161D01*
X159409375Y-26389375D01*
X159210000Y-26687761D01*
X159010625Y-26389375D01*
X158519418Y-26061161D01*
X158086256Y-25975000D01*
X157793744Y-25975000D01*
X157360582Y-26061161D01*
X156869375Y-26389375D01*
X156670000Y-26687761D01*
X156470625Y-26389375D01*
X155979418Y-26061161D01*
X155546256Y-25975000D01*
X155253744Y-25975000D01*
X154820582Y-26061161D01*
X154329375Y-26389375D01*
X154130000Y-26687761D01*
X153930625Y-26389375D01*
X153439418Y-26061161D01*
X153006256Y-25975000D01*
X152713744Y-25975000D01*
X152280582Y-26061161D01*
X151789375Y-26389375D01*
X151590000Y-26687761D01*
X151390625Y-26389375D01*
X150899418Y-26061161D01*
X150466256Y-25975000D01*
X150173744Y-25975000D01*
X149740582Y-26061161D01*
X149249375Y-26389375D01*
X149050000Y-26687761D01*
X148850625Y-26389375D01*
X148359418Y-26061161D01*
X147926256Y-25975000D01*
X147633744Y-25975000D01*
X147200582Y-26061161D01*
X146709375Y-26389375D01*
X146510000Y-26687761D01*
X146310625Y-26389375D01*
X145819418Y-26061161D01*
X145386256Y-25975000D01*
X145093744Y-25975000D01*
X144660582Y-26061161D01*
X144169375Y-26389375D01*
X143970000Y-26687761D01*
X143770625Y-26389375D01*
X143279418Y-26061161D01*
X142846256Y-25975000D01*
X142553744Y-25975000D01*
X142120582Y-26061161D01*
X141629375Y-26389375D01*
X141430000Y-26687761D01*
X141230625Y-26389375D01*
X140739418Y-26061161D01*
X140306256Y-25975000D01*
X140013744Y-25975000D01*
X139580582Y-26061161D01*
X139089375Y-26389375D01*
X138890000Y-26687761D01*
X138690625Y-26389375D01*
X138199418Y-26061161D01*
X137766256Y-25975000D01*
X137473744Y-25975000D01*
X137040582Y-26061161D01*
X136549375Y-26389375D01*
X136350000Y-26687761D01*
X136150625Y-26389375D01*
X135659418Y-26061161D01*
X135226256Y-25975000D01*
X134933744Y-25975000D01*
X134500582Y-26061161D01*
X134009375Y-26389375D01*
X133810000Y-26687761D01*
X133610625Y-26389375D01*
X133119418Y-26061161D01*
X132686256Y-25975000D01*
X132393744Y-25975000D01*
X131960582Y-26061161D01*
X131469375Y-26389375D01*
X131270000Y-26687761D01*
X131070625Y-26389375D01*
X130579418Y-26061161D01*
X130146256Y-25975000D01*
X129853744Y-25975000D01*
X129420582Y-26061161D01*
X128929375Y-26389375D01*
X128601161Y-26880582D01*
X128485908Y-27460000D01*
X123044543Y-27460000D01*
X122970625Y-27349375D01*
X122672239Y-27150000D01*
X122970625Y-26950625D01*
X123298839Y-26459418D01*
X123414092Y-25880000D01*
X123298839Y-25300582D01*
X122970625Y-24809375D01*
X122672239Y-24610000D01*
X122970625Y-24410625D01*
X123298839Y-23919418D01*
X123414092Y-23340000D01*
X123298839Y-22760582D01*
X122970625Y-22269375D01*
X122672239Y-22070000D01*
X122970625Y-21870625D01*
X123021739Y-21794126D01*
X152265000Y-21794126D01*
X152265000Y-22205874D01*
X152422569Y-22586280D01*
X152713720Y-22877431D01*
X153094126Y-23035000D01*
X153505874Y-23035000D01*
X153886280Y-22877431D01*
X154177431Y-22586280D01*
X154335000Y-22205874D01*
X154335000Y-21794126D01*
X154177431Y-21413720D01*
X153886280Y-21122569D01*
X153721044Y-21054126D01*
X169605000Y-21054126D01*
X169605000Y-21465874D01*
X169762569Y-21846280D01*
X170053720Y-22137431D01*
X170434126Y-22295000D01*
X170845874Y-22295000D01*
X171226280Y-22137431D01*
X171319585Y-22044126D01*
X245215000Y-22044126D01*
X245215000Y-22455874D01*
X245372569Y-22836280D01*
X245663720Y-23127431D01*
X246044126Y-23285000D01*
X246455874Y-23285000D01*
X246836280Y-23127431D01*
X247069585Y-22894126D01*
X250465000Y-22894126D01*
X250465000Y-23305874D01*
X250622569Y-23686280D01*
X250913720Y-23977431D01*
X251294126Y-24135000D01*
X251705874Y-24135000D01*
X252086280Y-23977431D01*
X252377431Y-23686280D01*
X252535000Y-23305874D01*
X252535000Y-22894126D01*
X252377431Y-22513720D01*
X252086280Y-22222569D01*
X251705874Y-22065000D01*
X251294126Y-22065000D01*
X250913720Y-22222569D01*
X250622569Y-22513720D01*
X250465000Y-22894126D01*
X247069585Y-22894126D01*
X247127431Y-22836280D01*
X247285000Y-22455874D01*
X247285000Y-22044126D01*
X247127431Y-21663720D01*
X246836280Y-21372569D01*
X246455874Y-21215000D01*
X246044126Y-21215000D01*
X245663720Y-21372569D01*
X245372569Y-21663720D01*
X245215000Y-22044126D01*
X171319585Y-22044126D01*
X171517431Y-21846280D01*
X171675000Y-21465874D01*
X171675000Y-21054126D01*
X171517431Y-20673720D01*
X171226280Y-20382569D01*
X170845874Y-20225000D01*
X170434126Y-20225000D01*
X170053720Y-20382569D01*
X169762569Y-20673720D01*
X169605000Y-21054126D01*
X153721044Y-21054126D01*
X153505874Y-20965000D01*
X153094126Y-20965000D01*
X152713720Y-21122569D01*
X152422569Y-21413720D01*
X152265000Y-21794126D01*
X123021739Y-21794126D01*
X123298839Y-21379418D01*
X123414092Y-20800000D01*
X123298839Y-20220582D01*
X122970625Y-19729375D01*
X122479418Y-19401161D01*
X122046256Y-19315000D01*
X121753744Y-19315000D01*
X121320582Y-19401161D01*
X120829375Y-19729375D01*
X120501161Y-20220582D01*
X120385908Y-20800000D01*
X113639396Y-20800000D01*
X113636682Y-18544126D01*
X152265000Y-18544126D01*
X152265000Y-18955874D01*
X152422569Y-19336280D01*
X152713720Y-19627431D01*
X153094126Y-19785000D01*
X153505874Y-19785000D01*
X153886280Y-19627431D01*
X154177431Y-19336280D01*
X154335000Y-18955874D01*
X154335000Y-18544126D01*
X154177431Y-18163720D01*
X153886280Y-17872569D01*
X153505874Y-17715000D01*
X153094126Y-17715000D01*
X152713720Y-17872569D01*
X152422569Y-18163720D01*
X152265000Y-18544126D01*
X113636682Y-18544126D01*
X113633898Y-16231626D01*
X115265000Y-16231626D01*
X115265000Y-16643374D01*
X115422569Y-17023780D01*
X115713720Y-17314931D01*
X116094126Y-17472500D01*
X116505874Y-17472500D01*
X116886280Y-17314931D01*
X117177431Y-17023780D01*
X117335000Y-16643374D01*
X117335000Y-16231626D01*
X117224199Y-15964126D01*
X247855000Y-15964126D01*
X247855000Y-16375874D01*
X248012569Y-16756280D01*
X248303720Y-17047431D01*
X248684126Y-17205000D01*
X249095874Y-17205000D01*
X249476280Y-17047431D01*
X249767431Y-16756280D01*
X249925000Y-16375874D01*
X249925000Y-15964126D01*
X249767431Y-15583720D01*
X249476280Y-15292569D01*
X249095874Y-15135000D01*
X248684126Y-15135000D01*
X248303720Y-15292569D01*
X248012569Y-15583720D01*
X247855000Y-15964126D01*
X117224199Y-15964126D01*
X117177431Y-15851220D01*
X116886280Y-15560069D01*
X116505874Y-15402500D01*
X116094126Y-15402500D01*
X115713720Y-15560069D01*
X115422569Y-15851220D01*
X115265000Y-16231626D01*
X113633898Y-16231626D01*
X113631389Y-14146626D01*
X140615000Y-14146626D01*
X140615000Y-14558374D01*
X140772569Y-14938780D01*
X141063720Y-15229931D01*
X141444126Y-15387500D01*
X141855874Y-15387500D01*
X142236280Y-15229931D01*
X142527431Y-14938780D01*
X142685000Y-14558374D01*
X142685000Y-14146626D01*
X142527431Y-13766220D01*
X142236280Y-13475069D01*
X141855874Y-13317500D01*
X141444126Y-13317500D01*
X141063720Y-13475069D01*
X140772569Y-13766220D01*
X140615000Y-14146626D01*
X113631389Y-14146626D01*
X113630002Y-12994126D01*
X153527500Y-12994126D01*
X153527500Y-13405874D01*
X153685069Y-13786280D01*
X153976220Y-14077431D01*
X154356626Y-14235000D01*
X154768374Y-14235000D01*
X155148780Y-14077431D01*
X155439931Y-13786280D01*
X155597500Y-13405874D01*
X155597500Y-12994126D01*
X155439931Y-12613720D01*
X155148780Y-12322569D01*
X154768374Y-12165000D01*
X154356626Y-12165000D01*
X153976220Y-12322569D01*
X153685069Y-12613720D01*
X153527500Y-12994126D01*
X113630002Y-12994126D01*
X113627153Y-10627000D01*
X167893531Y-10627000D01*
X167424765Y-11095766D01*
X167424765Y-11095766D01*
G37*
X167424765Y-11095766D02*
X167090262Y-11752265D01*
X166975000Y-12480000D01*
X167090262Y-13207735D01*
X167424765Y-13864234D01*
X167945766Y-14385235D01*
X168602265Y-14719738D01*
X169330000Y-14835000D01*
X170057735Y-14719738D01*
X170714234Y-14385235D01*
X171235235Y-13864234D01*
X171569738Y-13207735D01*
X171685000Y-12480000D01*
X171569738Y-11752265D01*
X171235235Y-11095766D01*
X170766469Y-10627000D01*
X197893531Y-10627000D01*
X197424765Y-11095766D01*
X197090262Y-11752265D01*
X196975000Y-12480000D01*
X197090262Y-13207735D01*
X197424765Y-13864234D01*
X197945766Y-14385235D01*
X198602265Y-14719738D01*
X199330000Y-14835000D01*
X200057735Y-14719738D01*
X200714234Y-14385235D01*
X201235235Y-13864234D01*
X201569738Y-13207735D01*
X201685000Y-12480000D01*
X201569738Y-11752265D01*
X201235235Y-11095766D01*
X200766469Y-10627000D01*
X227893531Y-10627000D01*
X227424765Y-11095766D01*
X227090262Y-11752265D01*
X226975000Y-12480000D01*
X227090262Y-13207735D01*
X227424765Y-13864234D01*
X227945766Y-14385235D01*
X228602265Y-14719738D01*
X229330000Y-14835000D01*
X230057735Y-14719738D01*
X230714234Y-14385235D01*
X231235235Y-13864234D01*
X231569738Y-13207735D01*
X231669161Y-12580000D01*
X251092560Y-12580000D01*
X251092560Y-14180000D01*
X251141843Y-14427765D01*
X251282191Y-14637809D01*
X251492235Y-14778157D01*
X251592503Y-14798101D01*
X251323466Y-15067138D01*
X251105000Y-15594561D01*
X251105000Y-16165439D01*
X251323466Y-16692862D01*
X251727138Y-17096534D01*
X252254561Y-17315000D01*
X252825439Y-17315000D01*
X253352862Y-17096534D01*
X253756534Y-16692862D01*
X253975000Y-16165439D01*
X253975000Y-15594561D01*
X253756534Y-15067138D01*
X253487497Y-14798101D01*
X253587765Y-14778157D01*
X253797809Y-14637809D01*
X253938157Y-14427765D01*
X253987440Y-14180000D01*
X253987440Y-12580000D01*
X253938157Y-12332235D01*
X253797809Y-12122191D01*
X253587765Y-11981843D01*
X253340000Y-11932560D01*
X251740000Y-11932560D01*
X251492235Y-11981843D01*
X251282191Y-12122191D01*
X251141843Y-12332235D01*
X251092560Y-12580000D01*
X231669161Y-12580000D01*
X231685000Y-12480000D01*
X231569738Y-11752265D01*
X231235235Y-11095766D01*
X230766469Y-10627000D01*
X256873000Y-10627000D01*
X256873000Y-30909289D01*
X256586280Y-30622569D01*
X256205874Y-30465000D01*
X255794126Y-30465000D01*
X255413720Y-30622569D01*
X255122569Y-30913720D01*
X254965000Y-31294126D01*
X254965000Y-31705874D01*
X255122569Y-32086280D01*
X255413720Y-32377431D01*
X255468206Y-32400000D01*
X255413720Y-32422569D01*
X255122569Y-32713720D01*
X254965000Y-33094126D01*
X254965000Y-33505874D01*
X255122569Y-33886280D01*
X255413720Y-34177431D01*
X255794126Y-34335000D01*
X256205874Y-34335000D01*
X256586280Y-34177431D01*
X256873000Y-33890711D01*
X256873000Y-61064289D01*
X256806280Y-60997569D01*
X256425874Y-60840000D01*
X256014126Y-60840000D01*
X255633720Y-60997569D01*
X255342569Y-61288720D01*
X255185000Y-61669126D01*
X255185000Y-62080874D01*
X255334658Y-62442181D01*
X255333720Y-62442569D01*
X255042569Y-62733720D01*
X254885000Y-63114126D01*
X254885000Y-63525874D01*
X255042569Y-63906280D01*
X255333720Y-64197431D01*
X255714126Y-64355000D01*
X255880199Y-64355000D01*
X256873000Y-65347801D01*
X256873000Y-87319289D01*
X256596280Y-87042569D01*
X256215874Y-86885000D01*
X255804126Y-86885000D01*
X255423720Y-87042569D01*
X255132569Y-87333720D01*
X254975000Y-87714126D01*
X254975000Y-88125874D01*
X255132569Y-88506280D01*
X255423720Y-88797431D01*
X255804126Y-88955000D01*
X256215874Y-88955000D01*
X256596280Y-88797431D01*
X256873000Y-88520711D01*
X256873000Y-93473000D01*
X196507271Y-93473000D01*
X196786280Y-93357431D01*
X197077431Y-93066280D01*
X197235000Y-92685874D01*
X197235000Y-92274126D01*
X197077431Y-91893720D01*
X196786280Y-91602569D01*
X196405874Y-91445000D01*
X195994126Y-91445000D01*
X195613720Y-91602569D01*
X195322569Y-91893720D01*
X195165000Y-92274126D01*
X195165000Y-92685874D01*
X195322569Y-93066280D01*
X195613720Y-93357431D01*
X195892729Y-93473000D01*
X189311200Y-93473000D01*
X189311200Y-90419999D01*
X216722560Y-90419999D01*
X216722560Y-92120001D01*
X216790873Y-92463436D01*
X216985414Y-92754586D01*
X217276564Y-92949127D01*
X217619999Y-93017440D01*
X218860001Y-93017440D01*
X219203436Y-92949127D01*
X219494586Y-92754586D01*
X219651413Y-92519878D01*
X219694956Y-92585044D01*
X220192779Y-92917678D01*
X220780000Y-93034484D01*
X221367222Y-92917678D01*
X221865044Y-92585044D01*
X222050000Y-92308237D01*
X222234956Y-92585044D01*
X222732779Y-92917678D01*
X223320000Y-93034484D01*
X223907222Y-92917678D01*
X224405044Y-92585044D01*
X224737678Y-92087221D01*
X224825000Y-91648225D01*
X224825000Y-90891774D01*
X224737678Y-90452778D01*
X224405044Y-89954956D01*
X223907221Y-89622322D01*
X223320000Y-89505516D01*
X222732778Y-89622322D01*
X222234956Y-89954956D01*
X222050000Y-90231763D01*
X221865044Y-89954956D01*
X221367221Y-89622322D01*
X220780000Y-89505516D01*
X220192778Y-89622322D01*
X219694956Y-89954956D01*
X219651414Y-90020122D01*
X219494586Y-89785414D01*
X219203436Y-89590873D01*
X218860001Y-89522560D01*
X217619999Y-89522560D01*
X217276564Y-89590873D01*
X216985414Y-89785414D01*
X216790873Y-90076564D01*
X216722560Y-90419999D01*
X189311200Y-90419999D01*
X189311200Y-89820041D01*
X189325132Y-89749999D01*
X189311200Y-89679957D01*
X189311200Y-89679954D01*
X189269936Y-89472504D01*
X189158597Y-89305874D01*
X189152424Y-89296635D01*
X189152422Y-89296633D01*
X189112746Y-89237254D01*
X189053367Y-89197578D01*
X188749915Y-88894126D01*
X195165000Y-88894126D01*
X195165000Y-89305874D01*
X195322569Y-89686280D01*
X195613720Y-89977431D01*
X195994126Y-90135000D01*
X196405874Y-90135000D01*
X196786280Y-89977431D01*
X197077431Y-89686280D01*
X197235000Y-89305874D01*
X197235000Y-88894126D01*
X197077431Y-88513720D01*
X196786280Y-88222569D01*
X196405874Y-88065000D01*
X195994126Y-88065000D01*
X195613720Y-88222569D01*
X195322569Y-88513720D01*
X195165000Y-88894126D01*
X188749915Y-88894126D01*
X187309915Y-87454126D01*
X252815000Y-87454126D01*
X252815000Y-87865874D01*
X252972569Y-88246280D01*
X253263720Y-88537431D01*
X253644126Y-88695000D01*
X254055874Y-88695000D01*
X254436280Y-88537431D01*
X254727431Y-88246280D01*
X254885000Y-87865874D01*
X254885000Y-87454126D01*
X254727431Y-87073720D01*
X254436280Y-86782569D01*
X254055874Y-86625000D01*
X253644126Y-86625000D01*
X253263720Y-86782569D01*
X252972569Y-87073720D01*
X252815000Y-87454126D01*
X187309915Y-87454126D01*
X185890788Y-86035000D01*
X186005874Y-86035000D01*
X186386280Y-85877431D01*
X186677431Y-85586280D01*
X186835000Y-85205874D01*
X186835000Y-84794126D01*
X186677431Y-84413720D01*
X186386280Y-84122569D01*
X186005874Y-83965000D01*
X185594126Y-83965000D01*
X185213720Y-84122569D01*
X184922569Y-84413720D01*
X184825000Y-84649273D01*
X184727431Y-84413720D01*
X184436280Y-84122569D01*
X184055874Y-83965000D01*
X183644126Y-83965000D01*
X183263720Y-84122569D01*
X182972569Y-84413720D01*
X182815000Y-84794126D01*
X182815000Y-85205874D01*
X182972569Y-85586280D01*
X183263720Y-85877431D01*
X183644126Y-86035000D01*
X183879212Y-86035000D01*
X187888801Y-90044590D01*
X187888801Y-93473000D01*
X124724353Y-93473000D01*
X124835000Y-93205874D01*
X124835000Y-92794126D01*
X124677431Y-92413720D01*
X124386280Y-92122569D01*
X124005874Y-91965000D01*
X123594126Y-91965000D01*
X123213720Y-92122569D01*
X122922569Y-92413720D01*
X122765000Y-92794126D01*
X122765000Y-93205874D01*
X122875647Y-93473000D01*
X113726847Y-93473000D01*
X113724827Y-91794126D01*
X157065000Y-91794126D01*
X157065000Y-92205874D01*
X157222569Y-92586280D01*
X157513720Y-92877431D01*
X157894126Y-93035000D01*
X158305874Y-93035000D01*
X158686280Y-92877431D01*
X158977431Y-92586280D01*
X159135000Y-92205874D01*
X159135000Y-91794126D01*
X158977431Y-91413720D01*
X158686280Y-91122569D01*
X158305874Y-90965000D01*
X157894126Y-90965000D01*
X157513720Y-91122569D01*
X157222569Y-91413720D01*
X157065000Y-91794126D01*
X113724827Y-91794126D01*
X113719388Y-87274126D01*
X114165000Y-87274126D01*
X114165000Y-87685874D01*
X114322569Y-88066280D01*
X114613720Y-88357431D01*
X114849273Y-88455000D01*
X114613720Y-88552569D01*
X114322569Y-88843720D01*
X114165000Y-89224126D01*
X114165000Y-89635874D01*
X114322569Y-90016280D01*
X114386289Y-90080000D01*
X114322569Y-90143720D01*
X114165000Y-90524126D01*
X114165000Y-90935874D01*
X114322569Y-91316280D01*
X114613720Y-91607431D01*
X114994126Y-91765000D01*
X115405874Y-91765000D01*
X115786280Y-91607431D01*
X116077431Y-91316280D01*
X116235000Y-90935874D01*
X116235000Y-90524126D01*
X116077431Y-90143720D01*
X116013711Y-90080000D01*
X116077431Y-90016280D01*
X116235000Y-89635874D01*
X116235000Y-89224126D01*
X116186331Y-89106626D01*
X136465000Y-89106626D01*
X136465000Y-89518374D01*
X136622569Y-89898780D01*
X136913720Y-90189931D01*
X137294126Y-90347500D01*
X137705874Y-90347500D01*
X138086280Y-90189931D01*
X138377431Y-89898780D01*
X138400069Y-89844126D01*
X144265000Y-89844126D01*
X144265000Y-90255874D01*
X144422569Y-90636280D01*
X144713720Y-90927431D01*
X145094126Y-91085000D01*
X145505874Y-91085000D01*
X145886280Y-90927431D01*
X146177431Y-90636280D01*
X146335000Y-90255874D01*
X146335000Y-89844126D01*
X146177431Y-89463720D01*
X145886280Y-89172569D01*
X145700727Y-89095711D01*
X145986280Y-88977431D01*
X146277431Y-88686280D01*
X146435000Y-88305874D01*
X146435000Y-87894126D01*
X146277431Y-87513720D01*
X145986280Y-87222569D01*
X145605874Y-87065000D01*
X145194126Y-87065000D01*
X144813720Y-87222569D01*
X144522569Y-87513720D01*
X144365000Y-87894126D01*
X144365000Y-88305874D01*
X144522569Y-88686280D01*
X144813720Y-88977431D01*
X144999273Y-89054289D01*
X144713720Y-89172569D01*
X144422569Y-89463720D01*
X144265000Y-89844126D01*
X138400069Y-89844126D01*
X138535000Y-89518374D01*
X138535000Y-89106626D01*
X138377431Y-88726220D01*
X138086280Y-88435069D01*
X137705874Y-88277500D01*
X137294126Y-88277500D01*
X136913720Y-88435069D01*
X136622569Y-88726220D01*
X136465000Y-89106626D01*
X116186331Y-89106626D01*
X116077431Y-88843720D01*
X115786280Y-88552569D01*
X115550727Y-88455000D01*
X115786280Y-88357431D01*
X116077431Y-88066280D01*
X116190160Y-87794126D01*
X127062842Y-87794126D01*
X127062842Y-88205874D01*
X127220411Y-88586280D01*
X127511562Y-88877431D01*
X127891968Y-89035000D01*
X128303716Y-89035000D01*
X128684122Y-88877431D01*
X128975273Y-88586280D01*
X128997842Y-88531794D01*
X129020411Y-88586280D01*
X129311562Y-88877431D01*
X129691968Y-89035000D01*
X130103716Y-89035000D01*
X130484122Y-88877431D01*
X130775273Y-88586280D01*
X130797842Y-88531794D01*
X130820411Y-88586280D01*
X131111562Y-88877431D01*
X131491968Y-89035000D01*
X131903716Y-89035000D01*
X132284122Y-88877431D01*
X132552219Y-88609334D01*
X132835288Y-88892403D01*
X133215694Y-89049972D01*
X133627442Y-89049972D01*
X134007848Y-88892403D01*
X134298999Y-88601252D01*
X134456568Y-88220846D01*
X134456568Y-87809098D01*
X134298999Y-87428692D01*
X134114433Y-87244126D01*
X138265000Y-87244126D01*
X138265000Y-87655874D01*
X138422569Y-88036280D01*
X138713720Y-88327431D01*
X139094126Y-88485000D01*
X139505874Y-88485000D01*
X139886280Y-88327431D01*
X140177431Y-88036280D01*
X140335000Y-87655874D01*
X140335000Y-87244126D01*
X140177431Y-86863720D01*
X139907837Y-86594126D01*
X147165000Y-86594126D01*
X147165000Y-87005874D01*
X147322569Y-87386280D01*
X147613720Y-87677431D01*
X147994126Y-87835000D01*
X148405874Y-87835000D01*
X148786280Y-87677431D01*
X149077431Y-87386280D01*
X149235000Y-87005874D01*
X149235000Y-86594126D01*
X149077431Y-86213720D01*
X148786280Y-85922569D01*
X148405874Y-85765000D01*
X147994126Y-85765000D01*
X147613720Y-85922569D01*
X147322569Y-86213720D01*
X147165000Y-86594126D01*
X139907837Y-86594126D01*
X139886280Y-86572569D01*
X139505874Y-86415000D01*
X139094126Y-86415000D01*
X138713720Y-86572569D01*
X138422569Y-86863720D01*
X138265000Y-87244126D01*
X134114433Y-87244126D01*
X134007848Y-87137541D01*
X133627442Y-86979972D01*
X133215694Y-86979972D01*
X132835288Y-87137541D01*
X132567191Y-87405638D01*
X132284122Y-87122569D01*
X131903716Y-86965000D01*
X131491968Y-86965000D01*
X131111562Y-87122569D01*
X130820411Y-87413720D01*
X130797842Y-87468206D01*
X130775273Y-87413720D01*
X130484122Y-87122569D01*
X130103716Y-86965000D01*
X129691968Y-86965000D01*
X129311562Y-87122569D01*
X129020411Y-87413720D01*
X128997842Y-87468206D01*
X128975273Y-87413720D01*
X128684122Y-87122569D01*
X128303716Y-86965000D01*
X127891968Y-86965000D01*
X127511562Y-87122569D01*
X127220411Y-87413720D01*
X127062842Y-87794126D01*
X116190160Y-87794126D01*
X116235000Y-87685874D01*
X116235000Y-87274126D01*
X116077431Y-86893720D01*
X115786280Y-86602569D01*
X115405874Y-86445000D01*
X114994126Y-86445000D01*
X114613720Y-86602569D01*
X114322569Y-86893720D01*
X114165000Y-87274126D01*
X113719388Y-87274126D01*
X113716139Y-84574126D01*
X116165000Y-84574126D01*
X116165000Y-84985874D01*
X116322569Y-85366280D01*
X116613720Y-85657431D01*
X116994126Y-85815000D01*
X117405874Y-85815000D01*
X117786280Y-85657431D01*
X118077431Y-85366280D01*
X118235000Y-84985874D01*
X118235000Y-84574126D01*
X118077431Y-84193720D01*
X117786280Y-83902569D01*
X117405874Y-83745000D01*
X116994126Y-83745000D01*
X116613720Y-83902569D01*
X116322569Y-84193720D01*
X116165000Y-84574126D01*
X113716139Y-84574126D01*
X113715081Y-83694126D01*
X134117523Y-83694126D01*
X134117523Y-84105874D01*
X134275092Y-84486280D01*
X134566243Y-84777431D01*
X134946649Y-84935000D01*
X135358397Y-84935000D01*
X135738803Y-84777431D01*
X136029954Y-84486280D01*
X136187523Y-84105874D01*
X136187523Y-83994126D01*
X178765000Y-83994126D01*
X178765000Y-84405874D01*
X178922569Y-84786280D01*
X179213720Y-85077431D01*
X179594126Y-85235000D01*
X180005874Y-85235000D01*
X180386280Y-85077431D01*
X180677431Y-84786280D01*
X180835000Y-84405874D01*
X180835000Y-84170788D01*
X182165000Y-82840788D01*
X182165000Y-83105874D01*
X182322569Y-83486280D01*
X182613720Y-83777431D01*
X182994126Y-83935000D01*
X183405874Y-83935000D01*
X183786280Y-83777431D01*
X184077431Y-83486280D01*
X184175000Y-83250727D01*
X184272569Y-83486280D01*
X184563720Y-83777431D01*
X184944126Y-83935000D01*
X185355874Y-83935000D01*
X185736280Y-83777431D01*
X186027431Y-83486280D01*
X186185000Y-83105874D01*
X186185000Y-82694126D01*
X186114584Y-82524126D01*
X235415000Y-82524126D01*
X235415000Y-82935874D01*
X235572569Y-83316280D01*
X235863720Y-83607431D01*
X236244126Y-83765000D01*
X236655874Y-83765000D01*
X237036280Y-83607431D01*
X237327431Y-83316280D01*
X237485000Y-82935874D01*
X237485000Y-82524126D01*
X251865000Y-82524126D01*
X251865000Y-82935874D01*
X252022569Y-83316280D01*
X252313720Y-83607431D01*
X252694126Y-83765000D01*
X253105874Y-83765000D01*
X253486280Y-83607431D01*
X253777431Y-83316280D01*
X253935000Y-82935874D01*
X253935000Y-82524126D01*
X253777431Y-82143720D01*
X253486280Y-81852569D01*
X253105874Y-81695000D01*
X252694126Y-81695000D01*
X252313720Y-81852569D01*
X252022569Y-82143720D01*
X251865000Y-82524126D01*
X237485000Y-82524126D01*
X237327431Y-82143720D01*
X237036280Y-81852569D01*
X236655874Y-81695000D01*
X236244126Y-81695000D01*
X235863720Y-81852569D01*
X235572569Y-82143720D01*
X235415000Y-82524126D01*
X186114584Y-82524126D01*
X186027431Y-82313720D01*
X185736280Y-82022569D01*
X185355874Y-81865000D01*
X184944126Y-81865000D01*
X184563720Y-82022569D01*
X184272569Y-82313720D01*
X184175000Y-82549273D01*
X184077431Y-82313720D01*
X183786280Y-82022569D01*
X183405874Y-81865000D01*
X183140788Y-81865000D01*
X185415000Y-79590789D01*
X185415000Y-79955874D01*
X185572569Y-80336280D01*
X185863720Y-80627431D01*
X186244126Y-80785000D01*
X186655874Y-80785000D01*
X187036280Y-80627431D01*
X187327431Y-80336280D01*
X187485000Y-79955874D01*
X187485000Y-79544126D01*
X193822500Y-79544126D01*
X193822500Y-79955874D01*
X193980069Y-80336280D01*
X194271220Y-80627431D01*
X194651626Y-80785000D01*
X195063374Y-80785000D01*
X195443780Y-80627431D01*
X195734931Y-80336280D01*
X195892500Y-79955874D01*
X195892500Y-79544126D01*
X195818615Y-79365750D01*
X201345000Y-79365750D01*
X201345000Y-80056309D01*
X201441673Y-80289698D01*
X201620301Y-80468327D01*
X201853690Y-80565000D01*
X202544250Y-80565000D01*
X202703000Y-80406250D01*
X202703000Y-79207000D01*
X201503750Y-79207000D01*
X201345000Y-79365750D01*
X195818615Y-79365750D01*
X195734931Y-79163720D01*
X195443780Y-78872569D01*
X195063374Y-78715000D01*
X194651626Y-78715000D01*
X194271220Y-78872569D01*
X193980069Y-79163720D01*
X193822500Y-79544126D01*
X187485000Y-79544126D01*
X187327431Y-79163720D01*
X187036280Y-78872569D01*
X186655874Y-78715000D01*
X186290789Y-78715000D01*
X186902098Y-78103691D01*
X201345000Y-78103691D01*
X201345000Y-78794250D01*
X201503750Y-78953000D01*
X202703000Y-78953000D01*
X202703000Y-77753750D01*
X202957000Y-77753750D01*
X202957000Y-78953000D01*
X202977000Y-78953000D01*
X202977000Y-79207000D01*
X202957000Y-79207000D01*
X202957000Y-80406250D01*
X203115750Y-80565000D01*
X203806310Y-80565000D01*
X204039699Y-80468327D01*
X204218327Y-80289698D01*
X204284904Y-80128967D01*
X204299375Y-80150625D01*
X204790582Y-80478839D01*
X205223744Y-80565000D01*
X205516256Y-80565000D01*
X205949418Y-80478839D01*
X206440625Y-80150625D01*
X206768839Y-79659418D01*
X206884092Y-79080000D01*
X206768839Y-78500582D01*
X206440625Y-78009375D01*
X205949418Y-77681161D01*
X205516256Y-77595000D01*
X205223744Y-77595000D01*
X204790582Y-77681161D01*
X204299375Y-78009375D01*
X204284904Y-78031033D01*
X204218327Y-77870302D01*
X204039699Y-77691673D01*
X203806310Y-77595000D01*
X203115750Y-77595000D01*
X202957000Y-77753750D01*
X202703000Y-77753750D01*
X202544250Y-77595000D01*
X201853690Y-77595000D01*
X201620301Y-77691673D01*
X201441673Y-77870302D01*
X201345000Y-78103691D01*
X186902098Y-78103691D01*
X187353367Y-77652422D01*
X187412746Y-77612746D01*
X187452422Y-77553367D01*
X187452424Y-77553365D01*
X187569935Y-77377498D01*
X187569935Y-77377497D01*
X187569936Y-77377496D01*
X187611200Y-77170046D01*
X187611200Y-77170043D01*
X187625132Y-77100001D01*
X187611200Y-77029959D01*
X187611200Y-74552511D01*
X187777431Y-74386280D01*
X187935000Y-74005874D01*
X187935000Y-73594126D01*
X187777431Y-73213720D01*
X187486280Y-72922569D01*
X187105874Y-72765000D01*
X186781514Y-72765000D01*
X186677431Y-72513720D01*
X186386280Y-72222569D01*
X186005874Y-72065000D01*
X185594126Y-72065000D01*
X185213720Y-72222569D01*
X184922569Y-72513720D01*
X184818486Y-72765000D01*
X184494126Y-72765000D01*
X184113720Y-72922569D01*
X183822569Y-73213720D01*
X183665000Y-73594126D01*
X183665000Y-74005874D01*
X183822569Y-74386280D01*
X184113720Y-74677431D01*
X184494126Y-74835000D01*
X184905874Y-74835000D01*
X185286280Y-74677431D01*
X185577431Y-74386280D01*
X185681514Y-74135000D01*
X185918486Y-74135000D01*
X186022569Y-74386280D01*
X186188800Y-74552511D01*
X186188801Y-76805410D01*
X183545484Y-79448727D01*
X183427431Y-79163720D01*
X183136280Y-78872569D01*
X182755874Y-78715000D01*
X182344126Y-78715000D01*
X181963720Y-78872569D01*
X181672569Y-79163720D01*
X181515000Y-79544126D01*
X181515000Y-79955874D01*
X181672569Y-80336280D01*
X181963720Y-80627431D01*
X182248727Y-80745485D01*
X179829212Y-83165000D01*
X179594126Y-83165000D01*
X179213720Y-83322569D01*
X178922569Y-83613720D01*
X178765000Y-83994126D01*
X136187523Y-83994126D01*
X136187523Y-83694126D01*
X136029954Y-83313720D01*
X135738803Y-83022569D01*
X135358397Y-82865000D01*
X134946649Y-82865000D01*
X134566243Y-83022569D01*
X134275092Y-83313720D01*
X134117523Y-83694126D01*
X113715081Y-83694126D01*
X113706698Y-76728834D01*
X113810460Y-76845349D01*
X114270598Y-77067920D01*
X114473000Y-76945090D01*
X114473000Y-75927000D01*
X114453000Y-75927000D01*
X114453000Y-75673000D01*
X114473000Y-75673000D01*
X114473000Y-75653000D01*
X114727000Y-75653000D01*
X114727000Y-75673000D01*
X114747000Y-75673000D01*
X114747000Y-75927000D01*
X114727000Y-75927000D01*
X114727000Y-76945090D01*
X114929402Y-77067920D01*
X115389540Y-76845349D01*
X115400516Y-76833024D01*
X115467191Y-76932809D01*
X115677235Y-77073157D01*
X115925000Y-77122440D01*
X117275000Y-77122440D01*
X117522765Y-77073157D01*
X117732809Y-76932809D01*
X117873157Y-76722765D01*
X117922440Y-76475000D01*
X117922440Y-75414801D01*
X124299013Y-75414801D01*
X127658977Y-78774766D01*
X127698653Y-78834145D01*
X127758032Y-78873821D01*
X127758034Y-78873823D01*
X127797211Y-78900000D01*
X127933903Y-78991335D01*
X127968184Y-78998154D01*
X127945000Y-79054126D01*
X127945000Y-79465874D01*
X128102569Y-79846280D01*
X128393720Y-80137431D01*
X128774126Y-80295000D01*
X129185874Y-80295000D01*
X129566280Y-80137431D01*
X129857431Y-79846280D01*
X130015000Y-79465874D01*
X130015000Y-79054126D01*
X130006083Y-79032599D01*
X130952617Y-79032599D01*
X130865000Y-79244126D01*
X130865000Y-79655874D01*
X131022569Y-80036280D01*
X131313720Y-80327431D01*
X131694126Y-80485000D01*
X131885000Y-80485000D01*
X131885000Y-80575874D01*
X132042569Y-80956280D01*
X132333720Y-81247431D01*
X132714126Y-81405000D01*
X133125874Y-81405000D01*
X133506280Y-81247431D01*
X133797431Y-80956280D01*
X133940000Y-80612087D01*
X134082569Y-80956280D01*
X134373720Y-81247431D01*
X134754126Y-81405000D01*
X135165874Y-81405000D01*
X135546280Y-81247431D01*
X135625000Y-81168711D01*
X135693720Y-81237431D01*
X136074126Y-81395000D01*
X136485874Y-81395000D01*
X136866280Y-81237431D01*
X137032511Y-81071200D01*
X139689959Y-81071200D01*
X139760000Y-81085132D01*
X139830041Y-81071200D01*
X139830046Y-81071200D01*
X140037496Y-81029936D01*
X140272746Y-80872746D01*
X140312424Y-80813364D01*
X140531662Y-80594126D01*
X145465000Y-80594126D01*
X145465000Y-81005874D01*
X145622569Y-81386280D01*
X145913720Y-81677431D01*
X146294126Y-81835000D01*
X146705874Y-81835000D01*
X147086280Y-81677431D01*
X147377431Y-81386280D01*
X147535000Y-81005874D01*
X147535000Y-80594126D01*
X147377431Y-80213720D01*
X147086280Y-79922569D01*
X146705874Y-79765000D01*
X146294126Y-79765000D01*
X145913720Y-79922569D01*
X145622569Y-80213720D01*
X145465000Y-80594126D01*
X140531662Y-80594126D01*
X141581662Y-79544126D01*
X154322500Y-79544126D01*
X154322500Y-79955874D01*
X154480069Y-80336280D01*
X154771220Y-80627431D01*
X155151626Y-80785000D01*
X155563374Y-80785000D01*
X155943780Y-80627431D01*
X156234931Y-80336280D01*
X156392500Y-79955874D01*
X156392500Y-79544126D01*
X167322500Y-79544126D01*
X167322500Y-79955874D01*
X167480069Y-80336280D01*
X167771220Y-80627431D01*
X168151626Y-80785000D01*
X168563374Y-80785000D01*
X168943780Y-80627431D01*
X169234931Y-80336280D01*
X169392500Y-79955874D01*
X169392500Y-79544126D01*
X178822500Y-79544126D01*
X178822500Y-79955874D01*
X178980069Y-80336280D01*
X179271220Y-80627431D01*
X179651626Y-80785000D01*
X180063374Y-80785000D01*
X180443780Y-80627431D01*
X180734931Y-80336280D01*
X180892500Y-79955874D01*
X180892500Y-79544126D01*
X180734931Y-79163720D01*
X180443780Y-78872569D01*
X180063374Y-78715000D01*
X179651626Y-78715000D01*
X179271220Y-78872569D01*
X178980069Y-79163720D01*
X178822500Y-79544126D01*
X169392500Y-79544126D01*
X169234931Y-79163720D01*
X168943780Y-78872569D01*
X168563374Y-78715000D01*
X168151626Y-78715000D01*
X167771220Y-78872569D01*
X167480069Y-79163720D01*
X167322500Y-79544126D01*
X156392500Y-79544126D01*
X156234931Y-79163720D01*
X155943780Y-78872569D01*
X155563374Y-78715000D01*
X155151626Y-78715000D01*
X154771220Y-78872569D01*
X154480069Y-79163720D01*
X154322500Y-79544126D01*
X141581662Y-79544126D01*
X142273369Y-78852420D01*
X142332745Y-78812746D01*
X142372420Y-78753369D01*
X142372424Y-78753365D01*
X142475637Y-78598895D01*
X142489936Y-78577496D01*
X142531200Y-78370046D01*
X142531200Y-78370042D01*
X142545132Y-78300000D01*
X142531200Y-78229958D01*
X142531200Y-75414588D01*
X143459786Y-74486002D01*
X143415000Y-74594126D01*
X143415000Y-75005874D01*
X143536831Y-75300000D01*
X143415000Y-75594126D01*
X143415000Y-76005874D01*
X143536831Y-76300000D01*
X143415000Y-76594126D01*
X143415000Y-77005874D01*
X143572569Y-77386280D01*
X143863720Y-77677431D01*
X144244126Y-77835000D01*
X144655874Y-77835000D01*
X145036280Y-77677431D01*
X145327431Y-77386280D01*
X145485000Y-77005874D01*
X145485000Y-76594126D01*
X145363169Y-76300000D01*
X145485000Y-76005874D01*
X145485000Y-75594126D01*
X145363169Y-75300000D01*
X145369941Y-75283652D01*
X145413720Y-75327431D01*
X145794126Y-75485000D01*
X146205874Y-75485000D01*
X146586280Y-75327431D01*
X146609348Y-75304363D01*
X146622569Y-75336280D01*
X146913720Y-75627431D01*
X147294126Y-75785000D01*
X147705874Y-75785000D01*
X148086280Y-75627431D01*
X148377431Y-75336280D01*
X148535000Y-74955874D01*
X148535000Y-74544126D01*
X148377431Y-74163720D01*
X148086280Y-73872569D01*
X147705874Y-73715000D01*
X147294126Y-73715000D01*
X146913720Y-73872569D01*
X146890652Y-73895637D01*
X146877431Y-73863720D01*
X146586280Y-73572569D01*
X146205874Y-73415000D01*
X145794126Y-73415000D01*
X145413720Y-73572569D01*
X145122569Y-73863720D01*
X145080059Y-73966348D01*
X145036280Y-73922569D01*
X144655874Y-73765000D01*
X144244126Y-73765000D01*
X144136003Y-73809786D01*
X144834589Y-73111200D01*
X147647489Y-73111200D01*
X147813720Y-73277431D01*
X148194126Y-73435000D01*
X148605874Y-73435000D01*
X148986280Y-73277431D01*
X149277431Y-72986280D01*
X149435000Y-72605874D01*
X149435000Y-72194126D01*
X149296821Y-71860532D01*
X149313720Y-71877431D01*
X149694126Y-72035000D01*
X150105874Y-72035000D01*
X150486280Y-71877431D01*
X150777431Y-71586280D01*
X150935000Y-71205874D01*
X150935000Y-70794126D01*
X161965000Y-70794126D01*
X161965000Y-71205874D01*
X162122569Y-71586280D01*
X162413720Y-71877431D01*
X162794126Y-72035000D01*
X163205874Y-72035000D01*
X163586280Y-71877431D01*
X163877431Y-71586280D01*
X164035000Y-71205874D01*
X164035000Y-70794126D01*
X173465000Y-70794126D01*
X173465000Y-71205874D01*
X173622569Y-71586280D01*
X173913720Y-71877431D01*
X174294126Y-72035000D01*
X174705874Y-72035000D01*
X175086280Y-71877431D01*
X175377431Y-71586280D01*
X175535000Y-71205874D01*
X175535000Y-70794126D01*
X182565000Y-70794126D01*
X182565000Y-71205874D01*
X182722569Y-71586280D01*
X183013720Y-71877431D01*
X183394126Y-72035000D01*
X183805874Y-72035000D01*
X184186280Y-71877431D01*
X184477431Y-71586280D01*
X184635000Y-71205874D01*
X184635000Y-70794126D01*
X188465000Y-70794126D01*
X188465000Y-71205874D01*
X188622569Y-71586280D01*
X188913720Y-71877431D01*
X189294126Y-72035000D01*
X189705874Y-72035000D01*
X190086280Y-71877431D01*
X190377431Y-71586280D01*
X190535000Y-71205874D01*
X190535000Y-70794126D01*
X190377431Y-70413720D01*
X190086280Y-70122569D01*
X189705874Y-69965000D01*
X189294126Y-69965000D01*
X188913720Y-70122569D01*
X188622569Y-70413720D01*
X188465000Y-70794126D01*
X184635000Y-70794126D01*
X184477431Y-70413720D01*
X184186280Y-70122569D01*
X183805874Y-69965000D01*
X183394126Y-69965000D01*
X183013720Y-70122569D01*
X182722569Y-70413720D01*
X182565000Y-70794126D01*
X175535000Y-70794126D01*
X175377431Y-70413720D01*
X175086280Y-70122569D01*
X174705874Y-69965000D01*
X174294126Y-69965000D01*
X173913720Y-70122569D01*
X173622569Y-70413720D01*
X173465000Y-70794126D01*
X164035000Y-70794126D01*
X163877431Y-70413720D01*
X163586280Y-70122569D01*
X163205874Y-69965000D01*
X162794126Y-69965000D01*
X162413720Y-70122569D01*
X162122569Y-70413720D01*
X161965000Y-70794126D01*
X150935000Y-70794126D01*
X150830902Y-70542809D01*
X150927431Y-70446280D01*
X151085000Y-70065874D01*
X151085000Y-69654126D01*
X150927431Y-69273720D01*
X150636280Y-68982569D01*
X150255874Y-68825000D01*
X149844126Y-68825000D01*
X149463720Y-68982569D01*
X149172569Y-69273720D01*
X149015000Y-69654126D01*
X149015000Y-70065874D01*
X149119098Y-70317191D01*
X149022569Y-70413720D01*
X148865000Y-70794126D01*
X148865000Y-71205874D01*
X149003179Y-71539468D01*
X148986280Y-71522569D01*
X148605874Y-71365000D01*
X148194126Y-71365000D01*
X147813720Y-71522569D01*
X147647489Y-71688800D01*
X144610042Y-71688800D01*
X144540000Y-71674868D01*
X144469958Y-71688800D01*
X144469954Y-71688800D01*
X144262504Y-71730064D01*
X144262502Y-71730065D01*
X144262503Y-71730065D01*
X144086635Y-71847576D01*
X144086633Y-71847578D01*
X144027254Y-71887254D01*
X143987578Y-71946633D01*
X141366634Y-74567578D01*
X141307255Y-74607254D01*
X141267579Y-74666633D01*
X141267576Y-74666636D01*
X141150065Y-74842504D01*
X141106737Y-75060332D01*
X140755874Y-74915000D01*
X140344126Y-74915000D01*
X139963720Y-75072569D01*
X139672569Y-75363720D01*
X139515000Y-75744126D01*
X139515000Y-75977064D01*
X139163720Y-76122569D01*
X138872569Y-76413720D01*
X138715000Y-76794126D01*
X138715000Y-77205874D01*
X138872569Y-77586280D01*
X139163720Y-77877431D01*
X139465000Y-78002225D01*
X139465000Y-78205874D01*
X139622569Y-78586280D01*
X139913720Y-78877431D01*
X140142158Y-78972053D01*
X139465412Y-79648800D01*
X139164911Y-79648800D01*
X139327431Y-79486280D01*
X139485000Y-79105874D01*
X139485000Y-78694126D01*
X139327431Y-78313720D01*
X139036280Y-78022569D01*
X138655874Y-77865000D01*
X138244126Y-77865000D01*
X138085000Y-77930912D01*
X138085000Y-77794126D01*
X137927431Y-77413720D01*
X137636280Y-77122569D01*
X137255874Y-76965000D01*
X136844126Y-76965000D01*
X136833361Y-76969459D01*
X136727431Y-76713720D01*
X136436280Y-76422569D01*
X136055874Y-76265000D01*
X135731514Y-76265000D01*
X135627431Y-76013720D01*
X135336280Y-75722569D01*
X134955874Y-75565000D01*
X134544126Y-75565000D01*
X134163720Y-75722569D01*
X133997489Y-75888800D01*
X128214259Y-75888800D01*
X126519585Y-74194126D01*
X126627431Y-74086280D01*
X126785000Y-73705874D01*
X126785000Y-73394126D01*
X131565000Y-73394126D01*
X131565000Y-73805874D01*
X131722569Y-74186280D01*
X132013720Y-74477431D01*
X132394126Y-74635000D01*
X132805874Y-74635000D01*
X133186280Y-74477431D01*
X133477431Y-74186280D01*
X133635000Y-73805874D01*
X133635000Y-73394126D01*
X133547481Y-73182837D01*
X133794126Y-73285000D01*
X134205874Y-73285000D01*
X134586280Y-73127431D01*
X134877431Y-72836280D01*
X134965000Y-72624869D01*
X134965000Y-72975874D01*
X135122569Y-73356280D01*
X135413720Y-73647431D01*
X135794126Y-73805000D01*
X136205874Y-73805000D01*
X136586280Y-73647431D01*
X136877431Y-73356280D01*
X136972755Y-73126148D01*
X136994126Y-73135000D01*
X137405874Y-73135000D01*
X137786280Y-72977431D01*
X138077431Y-72686280D01*
X138235000Y-72305874D01*
X138235000Y-71894126D01*
X138077431Y-71513720D01*
X137786280Y-71222569D01*
X137405874Y-71065000D01*
X136994126Y-71065000D01*
X136613720Y-71222569D01*
X136322569Y-71513720D01*
X136227245Y-71743852D01*
X136205874Y-71735000D01*
X135794126Y-71735000D01*
X135413720Y-71892569D01*
X135122569Y-72183720D01*
X135035000Y-72395131D01*
X135035000Y-72044126D01*
X134877431Y-71663720D01*
X134586280Y-71372569D01*
X134205874Y-71215000D01*
X133794126Y-71215000D01*
X133413720Y-71372569D01*
X133122569Y-71663720D01*
X132965000Y-72044126D01*
X132965000Y-72455874D01*
X133052519Y-72667163D01*
X132805874Y-72565000D01*
X132394126Y-72565000D01*
X132013720Y-72722569D01*
X131722569Y-73013720D01*
X131565000Y-73394126D01*
X126785000Y-73394126D01*
X126785000Y-73294126D01*
X126627431Y-72913720D01*
X126336280Y-72622569D01*
X125955874Y-72465000D01*
X125544126Y-72465000D01*
X125163720Y-72622569D01*
X125055874Y-72730415D01*
X122332085Y-70006626D01*
X126065000Y-70006626D01*
X126065000Y-70418374D01*
X126222569Y-70798780D01*
X126513720Y-71089931D01*
X126894126Y-71247500D01*
X127305874Y-71247500D01*
X127686280Y-71089931D01*
X127977431Y-70798780D01*
X128135000Y-70418374D01*
X128135000Y-70006626D01*
X127977431Y-69626220D01*
X127686280Y-69335069D01*
X127305874Y-69177500D01*
X126894126Y-69177500D01*
X126513720Y-69335069D01*
X126222569Y-69626220D01*
X126065000Y-70006626D01*
X122332085Y-70006626D01*
X120575694Y-68250236D01*
X120536017Y-68190855D01*
X120300767Y-68033665D01*
X120093317Y-67992401D01*
X120093312Y-67992401D01*
X120023271Y-67978469D01*
X119953230Y-67992401D01*
X117897393Y-67992401D01*
X117935664Y-67800000D01*
X117833993Y-67288864D01*
X117544457Y-66855543D01*
X117461331Y-66800000D01*
X117544457Y-66744457D01*
X117833993Y-66311136D01*
X117935664Y-65800000D01*
X117833993Y-65288864D01*
X117544457Y-64855543D01*
X117461331Y-64800000D01*
X117544457Y-64744457D01*
X117778540Y-64394126D01*
X229565000Y-64394126D01*
X229565000Y-64805874D01*
X229722569Y-65186280D01*
X230013720Y-65477431D01*
X230394126Y-65635000D01*
X230805874Y-65635000D01*
X231186280Y-65477431D01*
X231477431Y-65186280D01*
X231635000Y-64805874D01*
X231635000Y-64394126D01*
X231477431Y-64013720D01*
X231186280Y-63722569D01*
X230805874Y-63565000D01*
X230394126Y-63565000D01*
X230013720Y-63722569D01*
X229722569Y-64013720D01*
X229565000Y-64394126D01*
X117778540Y-64394126D01*
X117833993Y-64311136D01*
X117935664Y-63800000D01*
X117833993Y-63288864D01*
X117544457Y-62855543D01*
X117111136Y-62566007D01*
X116729022Y-62490000D01*
X116470978Y-62490000D01*
X116088864Y-62566007D01*
X115655543Y-62855543D01*
X115600000Y-62938669D01*
X115544457Y-62855543D01*
X115111136Y-62566007D01*
X114729022Y-62490000D01*
X114470978Y-62490000D01*
X114088864Y-62566007D01*
X113689975Y-62832536D01*
X113686416Y-59874126D01*
X124965000Y-59874126D01*
X124965000Y-60285874D01*
X125122569Y-60666280D01*
X125413720Y-60957431D01*
X125794126Y-61115000D01*
X126205874Y-61115000D01*
X126586280Y-60957431D01*
X126877431Y-60666280D01*
X127035000Y-60285874D01*
X127035000Y-59874126D01*
X126877431Y-59493720D01*
X126593711Y-59210000D01*
X128485908Y-59210000D01*
X128601161Y-59789418D01*
X128929375Y-60280625D01*
X128947619Y-60292816D01*
X128902235Y-60301843D01*
X128692191Y-60442191D01*
X128551843Y-60652235D01*
X128502560Y-60900000D01*
X128502560Y-62600000D01*
X128551843Y-62847765D01*
X128692191Y-63057809D01*
X128902235Y-63198157D01*
X129150000Y-63247440D01*
X130850000Y-63247440D01*
X131097765Y-63198157D01*
X131307809Y-63057809D01*
X131448157Y-62847765D01*
X131457184Y-62802381D01*
X131469375Y-62820625D01*
X131960582Y-63148839D01*
X132393744Y-63235000D01*
X132686256Y-63235000D01*
X133119418Y-63148839D01*
X133610625Y-62820625D01*
X133810000Y-62522239D01*
X134009375Y-62820625D01*
X134500582Y-63148839D01*
X134933744Y-63235000D01*
X135226256Y-63235000D01*
X135659418Y-63148839D01*
X136150625Y-62820625D01*
X136350000Y-62522239D01*
X136549375Y-62820625D01*
X137040582Y-63148839D01*
X137473744Y-63235000D01*
X137766256Y-63235000D01*
X138199418Y-63148839D01*
X138690625Y-62820625D01*
X138890000Y-62522239D01*
X139089375Y-62820625D01*
X139580582Y-63148839D01*
X140013744Y-63235000D01*
X140306256Y-63235000D01*
X140739418Y-63148839D01*
X141230625Y-62820625D01*
X141430000Y-62522239D01*
X141629375Y-62820625D01*
X142120582Y-63148839D01*
X142553744Y-63235000D01*
X142846256Y-63235000D01*
X143279418Y-63148839D01*
X143770625Y-62820625D01*
X143970000Y-62522239D01*
X144169375Y-62820625D01*
X144660582Y-63148839D01*
X145093744Y-63235000D01*
X145386256Y-63235000D01*
X145819418Y-63148839D01*
X146310625Y-62820625D01*
X146510000Y-62522239D01*
X146709375Y-62820625D01*
X147200582Y-63148839D01*
X147633744Y-63235000D01*
X147926256Y-63235000D01*
X148359418Y-63148839D01*
X148850625Y-62820625D01*
X149050000Y-62522239D01*
X149249375Y-62820625D01*
X149740582Y-63148839D01*
X150173744Y-63235000D01*
X150466256Y-63235000D01*
X150899418Y-63148839D01*
X151390625Y-62820625D01*
X151590000Y-62522239D01*
X151789375Y-62820625D01*
X152280582Y-63148839D01*
X152713744Y-63235000D01*
X153006256Y-63235000D01*
X153439418Y-63148839D01*
X153930625Y-62820625D01*
X154130000Y-62522239D01*
X154329375Y-62820625D01*
X154820582Y-63148839D01*
X155253744Y-63235000D01*
X155546256Y-63235000D01*
X155979418Y-63148839D01*
X156470625Y-62820625D01*
X156670000Y-62522239D01*
X156869375Y-62820625D01*
X157360582Y-63148839D01*
X157793744Y-63235000D01*
X158086256Y-63235000D01*
X158519418Y-63148839D01*
X159010625Y-62820625D01*
X159210000Y-62522239D01*
X159409375Y-62820625D01*
X159900582Y-63148839D01*
X160333744Y-63235000D01*
X160626256Y-63235000D01*
X161059418Y-63148839D01*
X161550625Y-62820625D01*
X161750000Y-62522239D01*
X161949375Y-62820625D01*
X162440582Y-63148839D01*
X162873744Y-63235000D01*
X163166256Y-63235000D01*
X163599418Y-63148839D01*
X164090625Y-62820625D01*
X164303843Y-62501522D01*
X164364817Y-62631358D01*
X164793076Y-63021645D01*
X165203110Y-63191476D01*
X165433000Y-63070155D01*
X165433000Y-61877000D01*
X165413000Y-61877000D01*
X165413000Y-61623000D01*
X165433000Y-61623000D01*
X165433000Y-59337000D01*
X165413000Y-59337000D01*
X165413000Y-59083000D01*
X165433000Y-59083000D01*
X165433000Y-57889845D01*
X165687000Y-57889845D01*
X165687000Y-59083000D01*
X165707000Y-59083000D01*
X165707000Y-59337000D01*
X165687000Y-59337000D01*
X165687000Y-61623000D01*
X165707000Y-61623000D01*
X165707000Y-61877000D01*
X165687000Y-61877000D01*
X165687000Y-63070155D01*
X165916890Y-63191476D01*
X166326924Y-63021645D01*
X166755183Y-62631358D01*
X166816157Y-62501522D01*
X167029375Y-62820625D01*
X167520582Y-63148839D01*
X167953744Y-63235000D01*
X168246256Y-63235000D01*
X168679418Y-63148839D01*
X169170625Y-62820625D01*
X169383843Y-62501522D01*
X169444817Y-62631358D01*
X169873076Y-63021645D01*
X170283110Y-63191476D01*
X170513000Y-63070155D01*
X170513000Y-61877000D01*
X170493000Y-61877000D01*
X170493000Y-61623000D01*
X170513000Y-61623000D01*
X170513000Y-59337000D01*
X170493000Y-59337000D01*
X170493000Y-59083000D01*
X170513000Y-59083000D01*
X170513000Y-57889845D01*
X170767000Y-57889845D01*
X170767000Y-59083000D01*
X170787000Y-59083000D01*
X170787000Y-59337000D01*
X170767000Y-59337000D01*
X170767000Y-61623000D01*
X170787000Y-61623000D01*
X170787000Y-61877000D01*
X170767000Y-61877000D01*
X170767000Y-63070155D01*
X170996890Y-63191476D01*
X171406924Y-63021645D01*
X171835183Y-62631358D01*
X171896157Y-62501522D01*
X172109375Y-62820625D01*
X172600582Y-63148839D01*
X173033744Y-63235000D01*
X173326256Y-63235000D01*
X173759418Y-63148839D01*
X174250625Y-62820625D01*
X174450000Y-62522239D01*
X174649375Y-62820625D01*
X175140582Y-63148839D01*
X175573744Y-63235000D01*
X175866256Y-63235000D01*
X176299418Y-63148839D01*
X176790625Y-62820625D01*
X176990000Y-62522239D01*
X177189375Y-62820625D01*
X177680582Y-63148839D01*
X178113744Y-63235000D01*
X178406256Y-63235000D01*
X178839418Y-63148839D01*
X179330625Y-62820625D01*
X179530000Y-62522239D01*
X179729375Y-62820625D01*
X180220582Y-63148839D01*
X180653744Y-63235000D01*
X180946256Y-63235000D01*
X181379418Y-63148839D01*
X181870625Y-62820625D01*
X182070000Y-62522239D01*
X182269375Y-62820625D01*
X182760582Y-63148839D01*
X183193744Y-63235000D01*
X183486256Y-63235000D01*
X183919418Y-63148839D01*
X184410625Y-62820625D01*
X184610000Y-62522239D01*
X184809375Y-62820625D01*
X185300582Y-63148839D01*
X185733744Y-63235000D01*
X186026256Y-63235000D01*
X186459418Y-63148839D01*
X186950625Y-62820625D01*
X187150000Y-62522239D01*
X187349375Y-62820625D01*
X187840582Y-63148839D01*
X188273744Y-63235000D01*
X188566256Y-63235000D01*
X188999418Y-63148839D01*
X189490625Y-62820625D01*
X189690000Y-62522239D01*
X189889375Y-62820625D01*
X190380582Y-63148839D01*
X190813744Y-63235000D01*
X191106256Y-63235000D01*
X191539418Y-63148839D01*
X192030625Y-62820625D01*
X192230000Y-62522239D01*
X192429375Y-62820625D01*
X192920582Y-63148839D01*
X193353744Y-63235000D01*
X193646256Y-63235000D01*
X194079418Y-63148839D01*
X194570625Y-62820625D01*
X194770000Y-62522239D01*
X194969375Y-62820625D01*
X195460582Y-63148839D01*
X195893744Y-63235000D01*
X196186256Y-63235000D01*
X196619418Y-63148839D01*
X197110625Y-62820625D01*
X197310000Y-62522239D01*
X197509375Y-62820625D01*
X198000582Y-63148839D01*
X198433744Y-63235000D01*
X198726256Y-63235000D01*
X199159418Y-63148839D01*
X199650625Y-62820625D01*
X199850000Y-62522239D01*
X200049375Y-62820625D01*
X200540582Y-63148839D01*
X200973744Y-63235000D01*
X201266256Y-63235000D01*
X201699418Y-63148839D01*
X202190625Y-62820625D01*
X202390000Y-62522239D01*
X202589375Y-62820625D01*
X203080582Y-63148839D01*
X203513744Y-63235000D01*
X203806256Y-63235000D01*
X204239418Y-63148839D01*
X204730625Y-62820625D01*
X204930000Y-62522239D01*
X205129375Y-62820625D01*
X205620582Y-63148839D01*
X206053744Y-63235000D01*
X206346256Y-63235000D01*
X206779418Y-63148839D01*
X207270625Y-62820625D01*
X207470000Y-62522239D01*
X207669375Y-62820625D01*
X208160582Y-63148839D01*
X208593744Y-63235000D01*
X208886256Y-63235000D01*
X209319418Y-63148839D01*
X209810625Y-62820625D01*
X210138839Y-62329418D01*
X210254092Y-61750000D01*
X210237508Y-61666626D01*
X245195000Y-61666626D01*
X245195000Y-62078374D01*
X245352569Y-62458780D01*
X245643720Y-62749931D01*
X246024126Y-62907500D01*
X246435874Y-62907500D01*
X246816280Y-62749931D01*
X247107431Y-62458780D01*
X247265000Y-62078374D01*
X247265000Y-61669126D01*
X251345000Y-61669126D01*
X251345000Y-62080874D01*
X251502569Y-62461280D01*
X251793720Y-62752431D01*
X252174126Y-62910000D01*
X252585874Y-62910000D01*
X252966280Y-62752431D01*
X253257431Y-62461280D01*
X253415000Y-62080874D01*
X253415000Y-61669126D01*
X253257431Y-61288720D01*
X252966280Y-60997569D01*
X252585874Y-60840000D01*
X252174126Y-60840000D01*
X251793720Y-60997569D01*
X251502569Y-61288720D01*
X251345000Y-61669126D01*
X247265000Y-61669126D01*
X247265000Y-61666626D01*
X247107431Y-61286220D01*
X246816280Y-60995069D01*
X246435874Y-60837500D01*
X246024126Y-60837500D01*
X245643720Y-60995069D01*
X245352569Y-61286220D01*
X245195000Y-61666626D01*
X210237508Y-61666626D01*
X210138839Y-61170582D01*
X209810625Y-60679375D01*
X209512239Y-60480000D01*
X209810625Y-60280625D01*
X210138839Y-59789418D01*
X210254092Y-59210000D01*
X210191261Y-58894126D01*
X245027500Y-58894126D01*
X245027500Y-59305874D01*
X245185069Y-59686280D01*
X245476220Y-59977431D01*
X245856626Y-60135000D01*
X246268374Y-60135000D01*
X246648780Y-59977431D01*
X246939931Y-59686280D01*
X247097500Y-59305874D01*
X247097500Y-58894126D01*
X246939931Y-58513720D01*
X246845337Y-58419126D01*
X254465000Y-58419126D01*
X254465000Y-58830874D01*
X254622569Y-59211280D01*
X254913720Y-59502431D01*
X255294126Y-59660000D01*
X255705874Y-59660000D01*
X256086280Y-59502431D01*
X256377431Y-59211280D01*
X256535000Y-58830874D01*
X256535000Y-58419126D01*
X256377431Y-58038720D01*
X256086280Y-57747569D01*
X255705874Y-57590000D01*
X255294126Y-57590000D01*
X254913720Y-57747569D01*
X254622569Y-58038720D01*
X254465000Y-58419126D01*
X246845337Y-58419126D01*
X246648780Y-58222569D01*
X246268374Y-58065000D01*
X245856626Y-58065000D01*
X245476220Y-58222569D01*
X245185069Y-58513720D01*
X245027500Y-58894126D01*
X210191261Y-58894126D01*
X210138839Y-58630582D01*
X209810625Y-58139375D01*
X209319418Y-57811161D01*
X208886256Y-57725000D01*
X208593744Y-57725000D01*
X208160582Y-57811161D01*
X207669375Y-58139375D01*
X207470000Y-58437761D01*
X207270625Y-58139375D01*
X206779418Y-57811161D01*
X206346256Y-57725000D01*
X206053744Y-57725000D01*
X205620582Y-57811161D01*
X205129375Y-58139375D01*
X204930000Y-58437761D01*
X204730625Y-58139375D01*
X204239418Y-57811161D01*
X203806256Y-57725000D01*
X203513744Y-57725000D01*
X203080582Y-57811161D01*
X202589375Y-58139375D01*
X202390000Y-58437761D01*
X202190625Y-58139375D01*
X201699418Y-57811161D01*
X201266256Y-57725000D01*
X200973744Y-57725000D01*
X200540582Y-57811161D01*
X200049375Y-58139375D01*
X199850000Y-58437761D01*
X199650625Y-58139375D01*
X199159418Y-57811161D01*
X198726256Y-57725000D01*
X198433744Y-57725000D01*
X198000582Y-57811161D01*
X197509375Y-58139375D01*
X197310000Y-58437761D01*
X197110625Y-58139375D01*
X196619418Y-57811161D01*
X196186256Y-57725000D01*
X195893744Y-57725000D01*
X195460582Y-57811161D01*
X194969375Y-58139375D01*
X194770000Y-58437761D01*
X194570625Y-58139375D01*
X194079418Y-57811161D01*
X193646256Y-57725000D01*
X193353744Y-57725000D01*
X192920582Y-57811161D01*
X192429375Y-58139375D01*
X192230000Y-58437761D01*
X192030625Y-58139375D01*
X191539418Y-57811161D01*
X191106256Y-57725000D01*
X190813744Y-57725000D01*
X190380582Y-57811161D01*
X189889375Y-58139375D01*
X189690000Y-58437761D01*
X189490625Y-58139375D01*
X188999418Y-57811161D01*
X188566256Y-57725000D01*
X188273744Y-57725000D01*
X187840582Y-57811161D01*
X187349375Y-58139375D01*
X187150000Y-58437761D01*
X186950625Y-58139375D01*
X186459418Y-57811161D01*
X186026256Y-57725000D01*
X185733744Y-57725000D01*
X185300582Y-57811161D01*
X184809375Y-58139375D01*
X184610000Y-58437761D01*
X184410625Y-58139375D01*
X183919418Y-57811161D01*
X183486256Y-57725000D01*
X183193744Y-57725000D01*
X182760582Y-57811161D01*
X182269375Y-58139375D01*
X182070000Y-58437761D01*
X181870625Y-58139375D01*
X181379418Y-57811161D01*
X180946256Y-57725000D01*
X180653744Y-57725000D01*
X180220582Y-57811161D01*
X179729375Y-58139375D01*
X179530000Y-58437761D01*
X179330625Y-58139375D01*
X178839418Y-57811161D01*
X178406256Y-57725000D01*
X178113744Y-57725000D01*
X177680582Y-57811161D01*
X177189375Y-58139375D01*
X176990000Y-58437761D01*
X176790625Y-58139375D01*
X176299418Y-57811161D01*
X175866256Y-57725000D01*
X175573744Y-57725000D01*
X175140582Y-57811161D01*
X174649375Y-58139375D01*
X174450000Y-58437761D01*
X174250625Y-58139375D01*
X173759418Y-57811161D01*
X173326256Y-57725000D01*
X173033744Y-57725000D01*
X172600582Y-57811161D01*
X172109375Y-58139375D01*
X171896157Y-58458478D01*
X171835183Y-58328642D01*
X171406924Y-57938355D01*
X170996890Y-57768524D01*
X170767000Y-57889845D01*
X170513000Y-57889845D01*
X170283110Y-57768524D01*
X169873076Y-57938355D01*
X169444817Y-58328642D01*
X169383843Y-58458478D01*
X169170625Y-58139375D01*
X168679418Y-57811161D01*
X168246256Y-57725000D01*
X167953744Y-57725000D01*
X167520582Y-57811161D01*
X167029375Y-58139375D01*
X166816157Y-58458478D01*
X166755183Y-58328642D01*
X166326924Y-57938355D01*
X165916890Y-57768524D01*
X165687000Y-57889845D01*
X165433000Y-57889845D01*
X165203110Y-57768524D01*
X164793076Y-57938355D01*
X164364817Y-58328642D01*
X164303843Y-58458478D01*
X164090625Y-58139375D01*
X163599418Y-57811161D01*
X163166256Y-57725000D01*
X162873744Y-57725000D01*
X162440582Y-57811161D01*
X161949375Y-58139375D01*
X161750000Y-58437761D01*
X161550625Y-58139375D01*
X161059418Y-57811161D01*
X160626256Y-57725000D01*
X160333744Y-57725000D01*
X159900582Y-57811161D01*
X159409375Y-58139375D01*
X159210000Y-58437761D01*
X159010625Y-58139375D01*
X158519418Y-57811161D01*
X158086256Y-57725000D01*
X157793744Y-57725000D01*
X157360582Y-57811161D01*
X156869375Y-58139375D01*
X156670000Y-58437761D01*
X156470625Y-58139375D01*
X155979418Y-57811161D01*
X155546256Y-57725000D01*
X155253744Y-57725000D01*
X154820582Y-57811161D01*
X154329375Y-58139375D01*
X154130000Y-58437761D01*
X153930625Y-58139375D01*
X153439418Y-57811161D01*
X153006256Y-57725000D01*
X152713744Y-57725000D01*
X152280582Y-57811161D01*
X151789375Y-58139375D01*
X151590000Y-58437761D01*
X151390625Y-58139375D01*
X150899418Y-57811161D01*
X150466256Y-57725000D01*
X150173744Y-57725000D01*
X149740582Y-57811161D01*
X149249375Y-58139375D01*
X149050000Y-58437761D01*
X148850625Y-58139375D01*
X148359418Y-57811161D01*
X147926256Y-57725000D01*
X147633744Y-57725000D01*
X147200582Y-57811161D01*
X146709375Y-58139375D01*
X146510000Y-58437761D01*
X146310625Y-58139375D01*
X145819418Y-57811161D01*
X145386256Y-57725000D01*
X145093744Y-57725000D01*
X144660582Y-57811161D01*
X144169375Y-58139375D01*
X143970000Y-58437761D01*
X143770625Y-58139375D01*
X143279418Y-57811161D01*
X142846256Y-57725000D01*
X142553744Y-57725000D01*
X142120582Y-57811161D01*
X141629375Y-58139375D01*
X141430000Y-58437761D01*
X141230625Y-58139375D01*
X140739418Y-57811161D01*
X140306256Y-57725000D01*
X140013744Y-57725000D01*
X139580582Y-57811161D01*
X139089375Y-58139375D01*
X138890000Y-58437761D01*
X138690625Y-58139375D01*
X138199418Y-57811161D01*
X137766256Y-57725000D01*
X137473744Y-57725000D01*
X137040582Y-57811161D01*
X136549375Y-58139375D01*
X136350000Y-58437761D01*
X136150625Y-58139375D01*
X135659418Y-57811161D01*
X135226256Y-57725000D01*
X134933744Y-57725000D01*
X134500582Y-57811161D01*
X134009375Y-58139375D01*
X133810000Y-58437761D01*
X133610625Y-58139375D01*
X133119418Y-57811161D01*
X132686256Y-57725000D01*
X132393744Y-57725000D01*
X131960582Y-57811161D01*
X131469375Y-58139375D01*
X131270000Y-58437761D01*
X131070625Y-58139375D01*
X130579418Y-57811161D01*
X130146256Y-57725000D01*
X129853744Y-57725000D01*
X129420582Y-57811161D01*
X128929375Y-58139375D01*
X128601161Y-58630582D01*
X128485908Y-59210000D01*
X126593711Y-59210000D01*
X126586280Y-59202569D01*
X126205874Y-59045000D01*
X125794126Y-59045000D01*
X125413720Y-59202569D01*
X125122569Y-59493720D01*
X124965000Y-59874126D01*
X113686416Y-59874126D01*
X113683107Y-57124126D01*
X124965000Y-57124126D01*
X124965000Y-57535874D01*
X125122569Y-57916280D01*
X125413720Y-58207431D01*
X125794126Y-58365000D01*
X126205874Y-58365000D01*
X126586280Y-58207431D01*
X126877431Y-57916280D01*
X127035000Y-57535874D01*
X127035000Y-57124126D01*
X126877431Y-56743720D01*
X126586280Y-56452569D01*
X126205874Y-56295000D01*
X125794126Y-56295000D01*
X125413720Y-56452569D01*
X125122569Y-56743720D01*
X124965000Y-57124126D01*
X113683107Y-57124126D01*
X113678875Y-53606626D01*
X254005000Y-53606626D01*
X254005000Y-54018374D01*
X254162569Y-54398780D01*
X254453720Y-54689931D01*
X254834126Y-54847500D01*
X255245874Y-54847500D01*
X255626280Y-54689931D01*
X255917431Y-54398780D01*
X256075000Y-54018374D01*
X256075000Y-53606626D01*
X255917431Y-53226220D01*
X255626280Y-52935069D01*
X255245874Y-52777500D01*
X254834126Y-52777500D01*
X254453720Y-52935069D01*
X254162569Y-53226220D01*
X254005000Y-53606626D01*
X113678875Y-53606626D01*
X113677107Y-52138146D01*
X124715000Y-52138146D01*
X124715000Y-52549894D01*
X124872569Y-52930300D01*
X125163720Y-53221451D01*
X125544126Y-53379020D01*
X125955874Y-53379020D01*
X126336280Y-53221451D01*
X126627431Y-52930300D01*
X126785000Y-52549894D01*
X126785000Y-52138146D01*
X126627431Y-51757740D01*
X126336280Y-51466589D01*
X125955874Y-51309020D01*
X125544126Y-51309020D01*
X125163720Y-51466589D01*
X124872569Y-51757740D01*
X124715000Y-52138146D01*
X113677107Y-52138146D01*
X113673022Y-48744126D01*
X114815000Y-48744126D01*
X114815000Y-49155874D01*
X114972569Y-49536280D01*
X115263720Y-49827431D01*
X115644126Y-49985000D01*
X116055874Y-49985000D01*
X116436280Y-49827431D01*
X116727431Y-49536280D01*
X116885000Y-49155874D01*
X116885000Y-48744126D01*
X116727431Y-48363720D01*
X116436280Y-48072569D01*
X116055874Y-47915000D01*
X115644126Y-47915000D01*
X115263720Y-48072569D01*
X114972569Y-48363720D01*
X114815000Y-48744126D01*
X113673022Y-48744126D01*
X113670648Y-46771168D01*
X124565000Y-46771168D01*
X124565000Y-47182916D01*
X124722569Y-47563322D01*
X125013720Y-47854473D01*
X125394126Y-48012042D01*
X125805874Y-48012042D01*
X126186280Y-47854473D01*
X126477431Y-47563322D01*
X126635000Y-47182916D01*
X126635000Y-46771168D01*
X126477431Y-46390762D01*
X126186280Y-46099611D01*
X125805874Y-45942042D01*
X125394126Y-45942042D01*
X125013720Y-46099611D01*
X124722569Y-46390762D01*
X124565000Y-46771168D01*
X113670648Y-46771168D01*
X113669172Y-45544126D01*
X253267500Y-45544126D01*
X253267500Y-45955874D01*
X253425069Y-46336280D01*
X253716220Y-46627431D01*
X254096626Y-46785000D01*
X254508374Y-46785000D01*
X254888780Y-46627431D01*
X255179931Y-46336280D01*
X255337500Y-45955874D01*
X255337500Y-45544126D01*
X255179931Y-45163720D01*
X254888780Y-44872569D01*
X254508374Y-44715000D01*
X254096626Y-44715000D01*
X253716220Y-44872569D01*
X253425069Y-45163720D01*
X253267500Y-45544126D01*
X113669172Y-45544126D01*
X113667079Y-43804500D01*
X124565000Y-43804500D01*
X124565000Y-44216248D01*
X124722569Y-44596654D01*
X125013720Y-44887805D01*
X125394126Y-45045374D01*
X125805874Y-45045374D01*
X126186280Y-44887805D01*
X126477431Y-44596654D01*
X126635000Y-44216248D01*
X126635000Y-43804500D01*
X126477431Y-43424094D01*
X126186280Y-43132943D01*
X125805874Y-42975374D01*
X125394126Y-42975374D01*
X125013720Y-43132943D01*
X124722569Y-43424094D01*
X124565000Y-43804500D01*
X113667079Y-43804500D01*
X113663509Y-40837834D01*
X124565000Y-40837834D01*
X124565000Y-41249582D01*
X124722569Y-41629988D01*
X125013720Y-41921139D01*
X125394126Y-42078708D01*
X125805874Y-42078708D01*
X126186280Y-41921139D01*
X126477431Y-41629988D01*
X126635000Y-41249582D01*
X126635000Y-40837834D01*
X126477431Y-40457428D01*
X126186280Y-40166277D01*
X125981914Y-40081626D01*
X247805000Y-40081626D01*
X247805000Y-40493374D01*
X247962569Y-40873780D01*
X248253720Y-41164931D01*
X248634126Y-41322500D01*
X249045874Y-41322500D01*
X249426280Y-41164931D01*
X249717431Y-40873780D01*
X249875000Y-40493374D01*
X249875000Y-40081626D01*
X249717431Y-39701220D01*
X249426280Y-39410069D01*
X249045874Y-39252500D01*
X248634126Y-39252500D01*
X248253720Y-39410069D01*
X247962569Y-39701220D01*
X247805000Y-40081626D01*
X125981914Y-40081626D01*
X125805874Y-40008708D01*
X125394126Y-40008708D01*
X125013720Y-40166277D01*
X124722569Y-40457428D01*
X124565000Y-40837834D01*
X113663509Y-40837834D01*
X113659939Y-37871168D01*
X124565000Y-37871168D01*
X124565000Y-38282916D01*
X124722569Y-38663322D01*
X125013720Y-38954473D01*
X125394126Y-39112042D01*
X125805874Y-39112042D01*
X126186280Y-38954473D01*
X126477431Y-38663322D01*
X126635000Y-38282916D01*
X126635000Y-37871168D01*
X126477431Y-37490762D01*
X126186280Y-37199611D01*
X125805874Y-37042042D01*
X125394126Y-37042042D01*
X125013720Y-37199611D01*
X124722569Y-37490762D01*
X124565000Y-37871168D01*
X113659939Y-37871168D01*
X113658162Y-36394126D01*
X232565000Y-36394126D01*
X232565000Y-36805874D01*
X232722569Y-37186280D01*
X233013720Y-37477431D01*
X233394126Y-37635000D01*
X233805874Y-37635000D01*
X234186280Y-37477431D01*
X234477431Y-37186280D01*
X234635000Y-36805874D01*
X234635000Y-36394126D01*
X234477431Y-36013720D01*
X234186280Y-35722569D01*
X233805874Y-35565000D01*
X233394126Y-35565000D01*
X233013720Y-35722569D01*
X232722569Y-36013720D01*
X232565000Y-36394126D01*
X113658162Y-36394126D01*
X113639396Y-20800000D01*
X120385908Y-20800000D01*
X120501161Y-21379418D01*
X120829375Y-21870625D01*
X121127761Y-22070000D01*
X120829375Y-22269375D01*
X120501161Y-22760582D01*
X120385908Y-23340000D01*
X120501161Y-23919418D01*
X120829375Y-24410625D01*
X121127761Y-24610000D01*
X120829375Y-24809375D01*
X120501161Y-25300582D01*
X120385908Y-25880000D01*
X120501161Y-26459418D01*
X120829375Y-26950625D01*
X121127761Y-27150000D01*
X120829375Y-27349375D01*
X120501161Y-27840582D01*
X120385908Y-28420000D01*
X120501161Y-28999418D01*
X120829375Y-29490625D01*
X121127761Y-29690000D01*
X120829375Y-29889375D01*
X120501161Y-30380582D01*
X120385908Y-30960000D01*
X120501161Y-31539418D01*
X120829375Y-32030625D01*
X120847619Y-32042816D01*
X120802235Y-32051843D01*
X120592191Y-32192191D01*
X120451843Y-32402235D01*
X120402560Y-32650000D01*
X120402560Y-34350000D01*
X120451843Y-34597765D01*
X120592191Y-34807809D01*
X120802235Y-34948157D01*
X121050000Y-34997440D01*
X122750000Y-34997440D01*
X122867208Y-34974126D01*
X242735000Y-34974126D01*
X242735000Y-35385874D01*
X242892569Y-35766280D01*
X243183720Y-36057431D01*
X243564126Y-36215000D01*
X243975874Y-36215000D01*
X244356280Y-36057431D01*
X244647431Y-35766280D01*
X244805000Y-35385874D01*
X244805000Y-34974126D01*
X244647431Y-34593720D01*
X244517838Y-34464127D01*
X247635000Y-34464127D01*
X247635000Y-34875875D01*
X247792569Y-35256281D01*
X248083720Y-35547432D01*
X248464126Y-35705001D01*
X248875874Y-35705001D01*
X249256280Y-35547432D01*
X249547431Y-35256281D01*
X249697440Y-34894126D01*
X250965000Y-34894126D01*
X250965000Y-35305874D01*
X251122569Y-35686280D01*
X251413720Y-35977431D01*
X251468206Y-36000000D01*
X251413720Y-36022569D01*
X251122569Y-36313720D01*
X250965000Y-36694126D01*
X250965000Y-37105874D01*
X251122569Y-37486280D01*
X251413720Y-37777431D01*
X251794126Y-37935000D01*
X252205874Y-37935000D01*
X252586280Y-37777431D01*
X252877431Y-37486280D01*
X253035000Y-37105874D01*
X253035000Y-36694126D01*
X252877431Y-36313720D01*
X252586280Y-36022569D01*
X252531794Y-36000000D01*
X252586280Y-35977431D01*
X252877431Y-35686280D01*
X253035000Y-35305874D01*
X253035000Y-34894126D01*
X252877431Y-34513720D01*
X252586280Y-34222569D01*
X252205874Y-34065000D01*
X251794126Y-34065000D01*
X251413720Y-34222569D01*
X251122569Y-34513720D01*
X250965000Y-34894126D01*
X249697440Y-34894126D01*
X249705000Y-34875875D01*
X249705000Y-34464127D01*
X249547431Y-34083721D01*
X249256280Y-33792570D01*
X248875874Y-33635001D01*
X248464126Y-33635001D01*
X248083720Y-33792570D01*
X247792569Y-34083721D01*
X247635000Y-34464127D01*
X244517838Y-34464127D01*
X244356280Y-34302569D01*
X243975874Y-34145000D01*
X243564126Y-34145000D01*
X243183720Y-34302569D01*
X242892569Y-34593720D01*
X242735000Y-34974126D01*
X122867208Y-34974126D01*
X122997765Y-34948157D01*
X123207809Y-34807809D01*
X123348157Y-34597765D01*
X123397440Y-34350000D01*
X123397440Y-32650000D01*
X123348157Y-32402235D01*
X123207809Y-32192191D01*
X122997765Y-32051843D01*
X122952381Y-32042816D01*
X122970625Y-32030625D01*
X123298839Y-31539418D01*
X123414092Y-30960000D01*
X123298839Y-30380582D01*
X122970625Y-29889375D01*
X122672239Y-29690000D01*
X122970625Y-29490625D01*
X123298839Y-28999418D01*
X123414092Y-28420000D01*
X123298839Y-27840582D01*
X123044543Y-27460000D01*
X128485908Y-27460000D01*
X128601161Y-28039418D01*
X128929375Y-28530625D01*
X128947619Y-28542816D01*
X128902235Y-28551843D01*
X128692191Y-28692191D01*
X128551843Y-28902235D01*
X128502560Y-29150000D01*
X128502560Y-30850000D01*
X128551843Y-31097765D01*
X128692191Y-31307809D01*
X128902235Y-31448157D01*
X129150000Y-31497440D01*
X130850000Y-31497440D01*
X131097765Y-31448157D01*
X131307809Y-31307809D01*
X131448157Y-31097765D01*
X131457184Y-31052381D01*
X131469375Y-31070625D01*
X131960582Y-31398839D01*
X132393744Y-31485000D01*
X132686256Y-31485000D01*
X133119418Y-31398839D01*
X133610625Y-31070625D01*
X133810000Y-30772239D01*
X134009375Y-31070625D01*
X134500582Y-31398839D01*
X134933744Y-31485000D01*
X135226256Y-31485000D01*
X135659418Y-31398839D01*
X136150625Y-31070625D01*
X136350000Y-30772239D01*
X136549375Y-31070625D01*
X137040582Y-31398839D01*
X137473744Y-31485000D01*
X137766256Y-31485000D01*
X138199418Y-31398839D01*
X138690625Y-31070625D01*
X138890000Y-30772239D01*
X139089375Y-31070625D01*
X139580582Y-31398839D01*
X140013744Y-31485000D01*
X140306256Y-31485000D01*
X140739418Y-31398839D01*
X141230625Y-31070625D01*
X141430000Y-30772239D01*
X141629375Y-31070625D01*
X142120582Y-31398839D01*
X142553744Y-31485000D01*
X142846256Y-31485000D01*
X143279418Y-31398839D01*
X143770625Y-31070625D01*
X143970000Y-30772239D01*
X144169375Y-31070625D01*
X144660582Y-31398839D01*
X145093744Y-31485000D01*
X145386256Y-31485000D01*
X145819418Y-31398839D01*
X146310625Y-31070625D01*
X146510000Y-30772239D01*
X146709375Y-31070625D01*
X147200582Y-31398839D01*
X147633744Y-31485000D01*
X147926256Y-31485000D01*
X148359418Y-31398839D01*
X148850625Y-31070625D01*
X149050000Y-30772239D01*
X149249375Y-31070625D01*
X149740582Y-31398839D01*
X150173744Y-31485000D01*
X150466256Y-31485000D01*
X150899418Y-31398839D01*
X151390625Y-31070625D01*
X151590000Y-30772239D01*
X151789375Y-31070625D01*
X152280582Y-31398839D01*
X152713744Y-31485000D01*
X153006256Y-31485000D01*
X153439418Y-31398839D01*
X153930625Y-31070625D01*
X154130000Y-30772239D01*
X154329375Y-31070625D01*
X154820582Y-31398839D01*
X155253744Y-31485000D01*
X155546256Y-31485000D01*
X155979418Y-31398839D01*
X156470625Y-31070625D01*
X156670000Y-30772239D01*
X156869375Y-31070625D01*
X157360582Y-31398839D01*
X157793744Y-31485000D01*
X158086256Y-31485000D01*
X158519418Y-31398839D01*
X159010625Y-31070625D01*
X159210000Y-30772239D01*
X159409375Y-31070625D01*
X159900582Y-31398839D01*
X160333744Y-31485000D01*
X160626256Y-31485000D01*
X161059418Y-31398839D01*
X161550625Y-31070625D01*
X161750000Y-30772239D01*
X161949375Y-31070625D01*
X162440582Y-31398839D01*
X162873744Y-31485000D01*
X163166256Y-31485000D01*
X163599418Y-31398839D01*
X164090625Y-31070625D01*
X164290000Y-30772239D01*
X164489375Y-31070625D01*
X164980582Y-31398839D01*
X165413744Y-31485000D01*
X165706256Y-31485000D01*
X166139418Y-31398839D01*
X166630625Y-31070625D01*
X166843843Y-30751522D01*
X166904817Y-30881358D01*
X167333076Y-31271645D01*
X167743110Y-31441476D01*
X167973000Y-31320155D01*
X167973000Y-30127000D01*
X167953000Y-30127000D01*
X167953000Y-29873000D01*
X167973000Y-29873000D01*
X167973000Y-27587000D01*
X167953000Y-27587000D01*
X167953000Y-27333000D01*
X167973000Y-27333000D01*
X167973000Y-26139845D01*
X168227000Y-26139845D01*
X168227000Y-27333000D01*
X168247000Y-27333000D01*
X168247000Y-27587000D01*
X168227000Y-27587000D01*
X168227000Y-29873000D01*
X168247000Y-29873000D01*
X168247000Y-30127000D01*
X168227000Y-30127000D01*
X168227000Y-31320155D01*
X168456890Y-31441476D01*
X168866924Y-31271645D01*
X169295183Y-30881358D01*
X169356157Y-30751522D01*
X169569375Y-31070625D01*
X170060582Y-31398839D01*
X170493744Y-31485000D01*
X170786256Y-31485000D01*
X171219418Y-31398839D01*
X171710625Y-31070625D01*
X171923843Y-30751522D01*
X171984817Y-30881358D01*
X172413076Y-31271645D01*
X172823110Y-31441476D01*
X173053000Y-31320155D01*
X173053000Y-30127000D01*
X173033000Y-30127000D01*
X173033000Y-29873000D01*
X173053000Y-29873000D01*
X173053000Y-27587000D01*
X173033000Y-27587000D01*
X173033000Y-27333000D01*
X173053000Y-27333000D01*
X173053000Y-26139845D01*
X173307000Y-26139845D01*
X173307000Y-27333000D01*
X173327000Y-27333000D01*
X173327000Y-27587000D01*
X173307000Y-27587000D01*
X173307000Y-29873000D01*
X173327000Y-29873000D01*
X173327000Y-30127000D01*
X173307000Y-30127000D01*
X173307000Y-31320155D01*
X173536890Y-31441476D01*
X173946924Y-31271645D01*
X174375183Y-30881358D01*
X174436157Y-30751522D01*
X174649375Y-31070625D01*
X175140582Y-31398839D01*
X175573744Y-31485000D01*
X175866256Y-31485000D01*
X176299418Y-31398839D01*
X176790625Y-31070625D01*
X176990000Y-30772239D01*
X177189375Y-31070625D01*
X177680582Y-31398839D01*
X178113744Y-31485000D01*
X178406256Y-31485000D01*
X178839418Y-31398839D01*
X179330625Y-31070625D01*
X179530000Y-30772239D01*
X179729375Y-31070625D01*
X180220582Y-31398839D01*
X180653744Y-31485000D01*
X180946256Y-31485000D01*
X181379418Y-31398839D01*
X181870625Y-31070625D01*
X182070000Y-30772239D01*
X182269375Y-31070625D01*
X182760582Y-31398839D01*
X183193744Y-31485000D01*
X183486256Y-31485000D01*
X183919418Y-31398839D01*
X184410625Y-31070625D01*
X184610000Y-30772239D01*
X184809375Y-31070625D01*
X185300582Y-31398839D01*
X185733744Y-31485000D01*
X186026256Y-31485000D01*
X186459418Y-31398839D01*
X186950625Y-31070625D01*
X187150000Y-30772239D01*
X187349375Y-31070625D01*
X187840582Y-31398839D01*
X188273744Y-31485000D01*
X188566256Y-31485000D01*
X188999418Y-31398839D01*
X189490625Y-31070625D01*
X189690000Y-30772239D01*
X189889375Y-31070625D01*
X190380582Y-31398839D01*
X190813744Y-31485000D01*
X191106256Y-31485000D01*
X191539418Y-31398839D01*
X192030625Y-31070625D01*
X192230000Y-30772239D01*
X192429375Y-31070625D01*
X192920582Y-31398839D01*
X193353744Y-31485000D01*
X193646256Y-31485000D01*
X194079418Y-31398839D01*
X194570625Y-31070625D01*
X194770000Y-30772239D01*
X194969375Y-31070625D01*
X195460582Y-31398839D01*
X195893744Y-31485000D01*
X196186256Y-31485000D01*
X196619418Y-31398839D01*
X197110625Y-31070625D01*
X197310000Y-30772239D01*
X197509375Y-31070625D01*
X198000582Y-31398839D01*
X198433744Y-31485000D01*
X198726256Y-31485000D01*
X199159418Y-31398839D01*
X199650625Y-31070625D01*
X199850000Y-30772239D01*
X200049375Y-31070625D01*
X200540582Y-31398839D01*
X200973744Y-31485000D01*
X201266256Y-31485000D01*
X201699418Y-31398839D01*
X202190625Y-31070625D01*
X202390000Y-30772239D01*
X202589375Y-31070625D01*
X203080582Y-31398839D01*
X203513744Y-31485000D01*
X203806256Y-31485000D01*
X204239418Y-31398839D01*
X204730625Y-31070625D01*
X204930000Y-30772239D01*
X205129375Y-31070625D01*
X205620582Y-31398839D01*
X206053744Y-31485000D01*
X206346256Y-31485000D01*
X206779418Y-31398839D01*
X207270625Y-31070625D01*
X207470000Y-30772239D01*
X207669375Y-31070625D01*
X208160582Y-31398839D01*
X208593744Y-31485000D01*
X208886256Y-31485000D01*
X209319418Y-31398839D01*
X209810625Y-31070625D01*
X210138839Y-30579418D01*
X210254092Y-30000000D01*
X210138839Y-29420582D01*
X209810625Y-28929375D01*
X209512239Y-28730000D01*
X209810625Y-28530625D01*
X210138839Y-28039418D01*
X210246135Y-27500000D01*
X214894336Y-27500000D01*
X214996007Y-28011136D01*
X215285543Y-28444457D01*
X215368669Y-28500000D01*
X215285543Y-28555543D01*
X214996007Y-28988864D01*
X214894336Y-29500000D01*
X214996007Y-30011136D01*
X215285543Y-30444457D01*
X215718864Y-30733993D01*
X216100978Y-30810000D01*
X216359022Y-30810000D01*
X216741136Y-30733993D01*
X217174457Y-30444457D01*
X217230000Y-30361331D01*
X217285543Y-30444457D01*
X217718864Y-30733993D01*
X218100978Y-30810000D01*
X218359022Y-30810000D01*
X218741136Y-30733993D01*
X219174457Y-30444457D01*
X219230000Y-30361331D01*
X219285543Y-30444457D01*
X219718864Y-30733993D01*
X220100978Y-30810000D01*
X220359022Y-30810000D01*
X220741136Y-30733993D01*
X221174457Y-30444457D01*
X221230000Y-30361331D01*
X221285543Y-30444457D01*
X221718864Y-30733993D01*
X222100978Y-30810000D01*
X222359022Y-30810000D01*
X222741136Y-30733993D01*
X223174457Y-30444457D01*
X223230000Y-30361331D01*
X223285543Y-30444457D01*
X223718864Y-30733993D01*
X224100978Y-30810000D01*
X224359022Y-30810000D01*
X224741136Y-30733993D01*
X225174457Y-30444457D01*
X225230000Y-30361331D01*
X225285543Y-30444457D01*
X225718864Y-30733993D01*
X226100978Y-30810000D01*
X226359022Y-30810000D01*
X226741136Y-30733993D01*
X227174457Y-30444457D01*
X227230000Y-30361331D01*
X227285543Y-30444457D01*
X227718864Y-30733993D01*
X228100978Y-30810000D01*
X228359022Y-30810000D01*
X228741136Y-30733993D01*
X229174457Y-30444457D01*
X229463993Y-30011136D01*
X229473343Y-29964126D01*
X241835000Y-29964126D01*
X241835000Y-30375874D01*
X241992569Y-30756280D01*
X242283720Y-31047431D01*
X242664126Y-31205000D01*
X243075874Y-31205000D01*
X243456280Y-31047431D01*
X243747431Y-30756280D01*
X243905000Y-30375874D01*
X243905000Y-29964126D01*
X243747431Y-29583720D01*
X243467837Y-29304126D01*
X245985000Y-29304126D01*
X245985000Y-29715874D01*
X246142569Y-30096280D01*
X246433720Y-30387431D01*
X246814126Y-30545000D01*
X247225874Y-30545000D01*
X247606280Y-30387431D01*
X247897431Y-30096280D01*
X248055000Y-29715874D01*
X248055000Y-29304126D01*
X247897431Y-28923720D01*
X247606280Y-28632569D01*
X247225874Y-28475000D01*
X246814126Y-28475000D01*
X246433720Y-28632569D01*
X246142569Y-28923720D01*
X245985000Y-29304126D01*
X243467837Y-29304126D01*
X243456280Y-29292569D01*
X243075874Y-29135000D01*
X242664126Y-29135000D01*
X242283720Y-29292569D01*
X241992569Y-29583720D01*
X241835000Y-29964126D01*
X229473343Y-29964126D01*
X229565664Y-29500000D01*
X229463993Y-28988864D01*
X229268286Y-28695968D01*
X229362809Y-28632809D01*
X229503157Y-28422765D01*
X229552440Y-28175000D01*
X229552440Y-27044126D01*
X254215000Y-27044126D01*
X254215000Y-27455874D01*
X254372569Y-27836280D01*
X254663720Y-28127431D01*
X255044126Y-28285000D01*
X255455874Y-28285000D01*
X255836280Y-28127431D01*
X256127431Y-27836280D01*
X256285000Y-27455874D01*
X256285000Y-27044126D01*
X256127431Y-26663720D01*
X255836280Y-26372569D01*
X255455874Y-26215000D01*
X255044126Y-26215000D01*
X254663720Y-26372569D01*
X254372569Y-26663720D01*
X254215000Y-27044126D01*
X229552440Y-27044126D01*
X229552440Y-26825000D01*
X229503157Y-26577235D01*
X229362809Y-26367191D01*
X229152765Y-26226843D01*
X228905000Y-26177560D01*
X227555000Y-26177560D01*
X227307235Y-26226843D01*
X227097191Y-26367191D01*
X227034032Y-26461714D01*
X226741136Y-26266007D01*
X226359022Y-26190000D01*
X226100978Y-26190000D01*
X225718864Y-26266007D01*
X225285543Y-26555543D01*
X225230000Y-26638669D01*
X225174457Y-26555543D01*
X224741136Y-26266007D01*
X224359022Y-26190000D01*
X224100978Y-26190000D01*
X223718864Y-26266007D01*
X223285543Y-26555543D01*
X223230000Y-26638669D01*
X223174457Y-26555543D01*
X222741136Y-26266007D01*
X222359022Y-26190000D01*
X222100978Y-26190000D01*
X221718864Y-26266007D01*
X221285543Y-26555543D01*
X221230000Y-26638669D01*
X221174457Y-26555543D01*
X220741136Y-26266007D01*
X220359022Y-26190000D01*
X220100978Y-26190000D01*
X219718864Y-26266007D01*
X219285543Y-26555543D01*
X219230000Y-26638669D01*
X219174457Y-26555543D01*
X218741136Y-26266007D01*
X218359022Y-26190000D01*
X218100978Y-26190000D01*
X217718864Y-26266007D01*
X217285543Y-26555543D01*
X217230000Y-26638669D01*
X217174457Y-26555543D01*
X216741136Y-26266007D01*
X216359022Y-26190000D01*
X216100978Y-26190000D01*
X215718864Y-26266007D01*
X215285543Y-26555543D01*
X214996007Y-26988864D01*
X214894336Y-27500000D01*
X210246135Y-27500000D01*
X210254092Y-27460000D01*
X210138839Y-26880582D01*
X209810625Y-26389375D01*
X209319418Y-26061161D01*
X208886256Y-25975000D01*
X208593744Y-25975000D01*
X208160582Y-26061161D01*
X207669375Y-26389375D01*
X207470000Y-26687761D01*
X207270625Y-26389375D01*
X206779418Y-26061161D01*
X206346256Y-25975000D01*
X206053744Y-25975000D01*
X205620582Y-26061161D01*
X205129375Y-26389375D01*
X204930000Y-26687761D01*
X204730625Y-26389375D01*
X204239418Y-26061161D01*
X203806256Y-25975000D01*
X203513744Y-25975000D01*
X203080582Y-26061161D01*
X202589375Y-26389375D01*
X202390000Y-26687761D01*
X202190625Y-26389375D01*
X201699418Y-26061161D01*
X201266256Y-25975000D01*
X200973744Y-25975000D01*
X200540582Y-26061161D01*
X200049375Y-26389375D01*
X199850000Y-26687761D01*
X199650625Y-26389375D01*
X199159418Y-26061161D01*
X198726256Y-25975000D01*
X198433744Y-25975000D01*
X198000582Y-26061161D01*
X197509375Y-26389375D01*
X197310000Y-26687761D01*
X197110625Y-26389375D01*
X196619418Y-26061161D01*
X196186256Y-25975000D01*
X195893744Y-25975000D01*
X195460582Y-26061161D01*
X194969375Y-26389375D01*
X194770000Y-26687761D01*
X194570625Y-26389375D01*
X194079418Y-26061161D01*
X193646256Y-25975000D01*
X193353744Y-25975000D01*
X192920582Y-26061161D01*
X192429375Y-26389375D01*
X192230000Y-26687761D01*
X192030625Y-26389375D01*
X191539418Y-26061161D01*
X191106256Y-25975000D01*
X190813744Y-25975000D01*
X190380582Y-26061161D01*
X189889375Y-26389375D01*
X189690000Y-26687761D01*
X189490625Y-26389375D01*
X188999418Y-26061161D01*
X188566256Y-25975000D01*
X188273744Y-25975000D01*
X187840582Y-26061161D01*
X187349375Y-26389375D01*
X187150000Y-26687761D01*
X186950625Y-26389375D01*
X186459418Y-26061161D01*
X186026256Y-25975000D01*
X185733744Y-25975000D01*
X185300582Y-26061161D01*
X184809375Y-26389375D01*
X184610000Y-26687761D01*
X184410625Y-26389375D01*
X183919418Y-26061161D01*
X183486256Y-25975000D01*
X183193744Y-25975000D01*
X182760582Y-26061161D01*
X182269375Y-26389375D01*
X182070000Y-26687761D01*
X181870625Y-26389375D01*
X181379418Y-26061161D01*
X180946256Y-25975000D01*
X180653744Y-25975000D01*
X180220582Y-26061161D01*
X179729375Y-26389375D01*
X179530000Y-26687761D01*
X179330625Y-26389375D01*
X178839418Y-26061161D01*
X178406256Y-25975000D01*
X178113744Y-25975000D01*
X177680582Y-26061161D01*
X177189375Y-26389375D01*
X176990000Y-26687761D01*
X176790625Y-26389375D01*
X176299418Y-26061161D01*
X175866256Y-25975000D01*
X175573744Y-25975000D01*
X175140582Y-26061161D01*
X174649375Y-26389375D01*
X174436157Y-26708478D01*
X174375183Y-26578642D01*
X173946924Y-26188355D01*
X173536890Y-26018524D01*
X173307000Y-26139845D01*
X173053000Y-26139845D01*
X172823110Y-26018524D01*
X172413076Y-26188355D01*
X171984817Y-26578642D01*
X171923843Y-26708478D01*
X171710625Y-26389375D01*
X171219418Y-26061161D01*
X170786256Y-25975000D01*
X170493744Y-25975000D01*
X170060582Y-26061161D01*
X169569375Y-26389375D01*
X169356157Y-26708478D01*
X169295183Y-26578642D01*
X168866924Y-26188355D01*
X168456890Y-26018524D01*
X168227000Y-26139845D01*
X167973000Y-26139845D01*
X167743110Y-26018524D01*
X167333076Y-26188355D01*
X166904817Y-26578642D01*
X166843843Y-26708478D01*
X166630625Y-26389375D01*
X166139418Y-26061161D01*
X165706256Y-25975000D01*
X165413744Y-25975000D01*
X164980582Y-26061161D01*
X164489375Y-26389375D01*
X164290000Y-26687761D01*
X164090625Y-26389375D01*
X163599418Y-26061161D01*
X163166256Y-25975000D01*
X162873744Y-25975000D01*
X162440582Y-26061161D01*
X161949375Y-26389375D01*
X161750000Y-26687761D01*
X161550625Y-26389375D01*
X161059418Y-26061161D01*
X160626256Y-25975000D01*
X160333744Y-25975000D01*
X159900582Y-26061161D01*
X159409375Y-26389375D01*
X159210000Y-26687761D01*
X159010625Y-26389375D01*
X158519418Y-26061161D01*
X158086256Y-25975000D01*
X157793744Y-25975000D01*
X157360582Y-26061161D01*
X156869375Y-26389375D01*
X156670000Y-26687761D01*
X156470625Y-26389375D01*
X155979418Y-26061161D01*
X155546256Y-25975000D01*
X155253744Y-25975000D01*
X154820582Y-26061161D01*
X154329375Y-26389375D01*
X154130000Y-26687761D01*
X153930625Y-26389375D01*
X153439418Y-26061161D01*
X153006256Y-25975000D01*
X152713744Y-25975000D01*
X152280582Y-26061161D01*
X151789375Y-26389375D01*
X151590000Y-26687761D01*
X151390625Y-26389375D01*
X150899418Y-26061161D01*
X150466256Y-25975000D01*
X150173744Y-25975000D01*
X149740582Y-26061161D01*
X149249375Y-26389375D01*
X149050000Y-26687761D01*
X148850625Y-26389375D01*
X148359418Y-26061161D01*
X147926256Y-25975000D01*
X147633744Y-25975000D01*
X147200582Y-26061161D01*
X146709375Y-26389375D01*
X146510000Y-26687761D01*
X146310625Y-26389375D01*
X145819418Y-26061161D01*
X145386256Y-25975000D01*
X145093744Y-25975000D01*
X144660582Y-26061161D01*
X144169375Y-26389375D01*
X143970000Y-26687761D01*
X143770625Y-26389375D01*
X143279418Y-26061161D01*
X142846256Y-25975000D01*
X142553744Y-25975000D01*
X142120582Y-26061161D01*
X141629375Y-26389375D01*
X141430000Y-26687761D01*
X141230625Y-26389375D01*
X140739418Y-26061161D01*
X140306256Y-25975000D01*
X140013744Y-25975000D01*
X139580582Y-26061161D01*
X139089375Y-26389375D01*
X138890000Y-26687761D01*
X138690625Y-26389375D01*
X138199418Y-26061161D01*
X137766256Y-25975000D01*
X137473744Y-25975000D01*
X137040582Y-26061161D01*
X136549375Y-26389375D01*
X136350000Y-26687761D01*
X136150625Y-26389375D01*
X135659418Y-26061161D01*
X135226256Y-25975000D01*
X134933744Y-25975000D01*
X134500582Y-26061161D01*
X134009375Y-26389375D01*
X133810000Y-26687761D01*
X133610625Y-26389375D01*
X133119418Y-26061161D01*
X132686256Y-25975000D01*
X132393744Y-25975000D01*
X131960582Y-26061161D01*
X131469375Y-26389375D01*
X131270000Y-26687761D01*
X131070625Y-26389375D01*
X130579418Y-26061161D01*
X130146256Y-25975000D01*
X129853744Y-25975000D01*
X129420582Y-26061161D01*
X128929375Y-26389375D01*
X128601161Y-26880582D01*
X128485908Y-27460000D01*
X123044543Y-27460000D01*
X122970625Y-27349375D01*
X122672239Y-27150000D01*
X122970625Y-26950625D01*
X123298839Y-26459418D01*
X123414092Y-25880000D01*
X123298839Y-25300582D01*
X122970625Y-24809375D01*
X122672239Y-24610000D01*
X122970625Y-24410625D01*
X123298839Y-23919418D01*
X123414092Y-23340000D01*
X123298839Y-22760582D01*
X122970625Y-22269375D01*
X122672239Y-22070000D01*
X122970625Y-21870625D01*
X123021739Y-21794126D01*
X152265000Y-21794126D01*
X152265000Y-22205874D01*
X152422569Y-22586280D01*
X152713720Y-22877431D01*
X153094126Y-23035000D01*
X153505874Y-23035000D01*
X153886280Y-22877431D01*
X154177431Y-22586280D01*
X154335000Y-22205874D01*
X154335000Y-21794126D01*
X154177431Y-21413720D01*
X153886280Y-21122569D01*
X153721044Y-21054126D01*
X169605000Y-21054126D01*
X169605000Y-21465874D01*
X169762569Y-21846280D01*
X170053720Y-22137431D01*
X170434126Y-22295000D01*
X170845874Y-22295000D01*
X171226280Y-22137431D01*
X171319585Y-22044126D01*
X245215000Y-22044126D01*
X245215000Y-22455874D01*
X245372569Y-22836280D01*
X245663720Y-23127431D01*
X246044126Y-23285000D01*
X246455874Y-23285000D01*
X246836280Y-23127431D01*
X247069585Y-22894126D01*
X250465000Y-22894126D01*
X250465000Y-23305874D01*
X250622569Y-23686280D01*
X250913720Y-23977431D01*
X251294126Y-24135000D01*
X251705874Y-24135000D01*
X252086280Y-23977431D01*
X252377431Y-23686280D01*
X252535000Y-23305874D01*
X252535000Y-22894126D01*
X252377431Y-22513720D01*
X252086280Y-22222569D01*
X251705874Y-22065000D01*
X251294126Y-22065000D01*
X250913720Y-22222569D01*
X250622569Y-22513720D01*
X250465000Y-22894126D01*
X247069585Y-22894126D01*
X247127431Y-22836280D01*
X247285000Y-22455874D01*
X247285000Y-22044126D01*
X247127431Y-21663720D01*
X246836280Y-21372569D01*
X246455874Y-21215000D01*
X246044126Y-21215000D01*
X245663720Y-21372569D01*
X245372569Y-21663720D01*
X245215000Y-22044126D01*
X171319585Y-22044126D01*
X171517431Y-21846280D01*
X171675000Y-21465874D01*
X171675000Y-21054126D01*
X171517431Y-20673720D01*
X171226280Y-20382569D01*
X170845874Y-20225000D01*
X170434126Y-20225000D01*
X170053720Y-20382569D01*
X169762569Y-20673720D01*
X169605000Y-21054126D01*
X153721044Y-21054126D01*
X153505874Y-20965000D01*
X153094126Y-20965000D01*
X152713720Y-21122569D01*
X152422569Y-21413720D01*
X152265000Y-21794126D01*
X123021739Y-21794126D01*
X123298839Y-21379418D01*
X123414092Y-20800000D01*
X123298839Y-20220582D01*
X122970625Y-19729375D01*
X122479418Y-19401161D01*
X122046256Y-19315000D01*
X121753744Y-19315000D01*
X121320582Y-19401161D01*
X120829375Y-19729375D01*
X120501161Y-20220582D01*
X120385908Y-20800000D01*
X113639396Y-20800000D01*
X113636682Y-18544126D01*
X152265000Y-18544126D01*
X152265000Y-18955874D01*
X152422569Y-19336280D01*
X152713720Y-19627431D01*
X153094126Y-19785000D01*
X153505874Y-19785000D01*
X153886280Y-19627431D01*
X154177431Y-19336280D01*
X154335000Y-18955874D01*
X154335000Y-18544126D01*
X154177431Y-18163720D01*
X153886280Y-17872569D01*
X153505874Y-17715000D01*
X153094126Y-17715000D01*
X152713720Y-17872569D01*
X152422569Y-18163720D01*
X152265000Y-18544126D01*
X113636682Y-18544126D01*
X113633898Y-16231626D01*
X115265000Y-16231626D01*
X115265000Y-16643374D01*
X115422569Y-17023780D01*
X115713720Y-17314931D01*
X116094126Y-17472500D01*
X116505874Y-17472500D01*
X116886280Y-17314931D01*
X117177431Y-17023780D01*
X117335000Y-16643374D01*
X117335000Y-16231626D01*
X117224199Y-15964126D01*
X247855000Y-15964126D01*
X247855000Y-16375874D01*
X248012569Y-16756280D01*
X248303720Y-17047431D01*
X248684126Y-17205000D01*
X249095874Y-17205000D01*
X249476280Y-17047431D01*
X249767431Y-16756280D01*
X249925000Y-16375874D01*
X249925000Y-15964126D01*
X249767431Y-15583720D01*
X249476280Y-15292569D01*
X249095874Y-15135000D01*
X248684126Y-15135000D01*
X248303720Y-15292569D01*
X248012569Y-15583720D01*
X247855000Y-15964126D01*
X117224199Y-15964126D01*
X117177431Y-15851220D01*
X116886280Y-15560069D01*
X116505874Y-15402500D01*
X116094126Y-15402500D01*
X115713720Y-15560069D01*
X115422569Y-15851220D01*
X115265000Y-16231626D01*
X113633898Y-16231626D01*
X113631389Y-14146626D01*
X140615000Y-14146626D01*
X140615000Y-14558374D01*
X140772569Y-14938780D01*
X141063720Y-15229931D01*
X141444126Y-15387500D01*
X141855874Y-15387500D01*
X142236280Y-15229931D01*
X142527431Y-14938780D01*
X142685000Y-14558374D01*
X142685000Y-14146626D01*
X142527431Y-13766220D01*
X142236280Y-13475069D01*
X141855874Y-13317500D01*
X141444126Y-13317500D01*
X141063720Y-13475069D01*
X140772569Y-13766220D01*
X140615000Y-14146626D01*
X113631389Y-14146626D01*
X113630002Y-12994126D01*
X153527500Y-12994126D01*
X153527500Y-13405874D01*
X153685069Y-13786280D01*
X153976220Y-14077431D01*
X154356626Y-14235000D01*
X154768374Y-14235000D01*
X155148780Y-14077431D01*
X155439931Y-13786280D01*
X155597500Y-13405874D01*
X155597500Y-12994126D01*
X155439931Y-12613720D01*
X155148780Y-12322569D01*
X154768374Y-12165000D01*
X154356626Y-12165000D01*
X153976220Y-12322569D01*
X153685069Y-12613720D01*
X153527500Y-12994126D01*
X113630002Y-12994126D01*
X113627153Y-10627000D01*
X167893531Y-10627000D01*
X167424765Y-11095766D01*
G04 #@! TD*
M02*
