G04 #@! TF.GenerationSoftware,KiCad,Pcbnew,5.0.2+dfsg1-1~bpo9+1*
G04 #@! TF.CreationDate,2022-09-24T08:05:06+02:00*
G04 #@! TF.ProjectId,nubus-to-ztex,6e756275-732d-4746-9f2d-7a7465782e6b,rev?*
G04 #@! TF.SameCoordinates,Original*
G04 #@! TF.FileFunction,Copper,L3,Inr*
G04 #@! TF.FilePolarity,Positive*
%FSLAX46Y46*%
G04 Gerber Fmt 4.6, Leading zero omitted, Abs format (unit mm)*
G04 Created by KiCad (PCBNEW 5.0.2+dfsg1-1~bpo9+1) date Sat Sep 24 08:05:06 2022*
%MOMM*%
%LPD*%
G01*
G04 APERTURE LIST*
G04 #@! TA.AperFunction,ViaPad*
%ADD10O,1.700000X1.700000*%
G04 #@! TD*
G04 #@! TA.AperFunction,ViaPad*
%ADD11R,1.700000X1.700000*%
G04 #@! TD*
G04 #@! TA.AperFunction,ViaPad*
%ADD12C,1.450000*%
G04 #@! TD*
G04 #@! TA.AperFunction,ViaPad*
%ADD13O,1.900000X1.200000*%
G04 #@! TD*
G04 #@! TA.AperFunction,Conductor*
%ADD14C,0.100000*%
G04 #@! TD*
G04 #@! TA.AperFunction,ViaPad*
%ADD15C,1.740000*%
G04 #@! TD*
G04 #@! TA.AperFunction,ViaPad*
%ADD16O,1.740000X2.200000*%
G04 #@! TD*
G04 #@! TA.AperFunction,ViaPad*
%ADD17R,1.350000X1.350000*%
G04 #@! TD*
G04 #@! TA.AperFunction,ViaPad*
%ADD18O,1.350000X1.350000*%
G04 #@! TD*
G04 #@! TA.AperFunction,ViaPad*
%ADD19C,2.000000*%
G04 #@! TD*
G04 #@! TA.AperFunction,ViaPad*
%ADD20R,1.600000X1.600000*%
G04 #@! TD*
G04 #@! TA.AperFunction,ViaPad*
%ADD21C,1.600000*%
G04 #@! TD*
G04 #@! TA.AperFunction,ViaPad*
%ADD22C,1.550000*%
G04 #@! TD*
G04 #@! TA.AperFunction,ViaPad*
%ADD23C,0.800000*%
G04 #@! TD*
G04 #@! TA.AperFunction,Conductor*
%ADD24C,0.800000*%
G04 #@! TD*
G04 #@! TA.AperFunction,Conductor*
%ADD25C,0.152400*%
G04 #@! TD*
G04 #@! TA.AperFunction,Conductor*
%ADD26C,0.500000*%
G04 #@! TD*
G04 #@! TA.AperFunction,Conductor*
%ADD27C,1.000000*%
G04 #@! TD*
G04 #@! TA.AperFunction,Conductor*
%ADD28C,0.250000*%
G04 #@! TD*
G04 #@! TA.AperFunction,Conductor*
%ADD29C,0.254000*%
G04 #@! TD*
G04 APERTURE END LIST*
D10*
G04 #@! TO.N,PMOD-12*
G04 #@! TO.C,J9*
X121760000Y-62550000D03*
G04 #@! TO.N,PMOD-11*
X124300000Y-62550000D03*
G04 #@! TO.N,PMOD-10*
X121760000Y-60010000D03*
G04 #@! TO.N,PMOD-9*
X124300000Y-60010000D03*
G04 #@! TO.N,PMOD-8*
X121760000Y-57470000D03*
G04 #@! TO.N,PMOD-7*
X124300000Y-57470000D03*
G04 #@! TO.N,PMOD-6*
X121760000Y-54930000D03*
G04 #@! TO.N,PMOD-5*
X124300000Y-54930000D03*
G04 #@! TO.N,GND*
X121760000Y-52390000D03*
X124300000Y-52390000D03*
G04 #@! TO.N,+3V3*
X121760000Y-49850000D03*
D11*
X124300000Y-49850000D03*
G04 #@! TD*
D12*
G04 #@! TO.N,SHIELD*
G04 #@! TO.C,J6*
X269197500Y-81570000D03*
X269197500Y-76570000D03*
D13*
X271897500Y-82570000D03*
X271897500Y-75570000D03*
G04 #@! TD*
D11*
G04 #@! TO.N,+3V3*
G04 #@! TO.C,J8*
X202830000Y-79080000D03*
D10*
G04 #@! TO.N,GND*
X205370000Y-79080000D03*
G04 #@! TD*
D14*
G04 #@! TO.N,GND*
G04 #@! TO.C,J7*
G36*
X218884505Y-90171204D02*
X218908773Y-90174804D01*
X218932572Y-90180765D01*
X218955671Y-90189030D01*
X218977850Y-90199520D01*
X218998893Y-90212132D01*
X219018599Y-90226747D01*
X219036777Y-90243223D01*
X219053253Y-90261401D01*
X219067868Y-90281107D01*
X219080480Y-90302150D01*
X219090970Y-90324329D01*
X219099235Y-90347428D01*
X219105196Y-90371227D01*
X219108796Y-90395495D01*
X219110000Y-90419999D01*
X219110000Y-92120001D01*
X219108796Y-92144505D01*
X219105196Y-92168773D01*
X219099235Y-92192572D01*
X219090970Y-92215671D01*
X219080480Y-92237850D01*
X219067868Y-92258893D01*
X219053253Y-92278599D01*
X219036777Y-92296777D01*
X219018599Y-92313253D01*
X218998893Y-92327868D01*
X218977850Y-92340480D01*
X218955671Y-92350970D01*
X218932572Y-92359235D01*
X218908773Y-92365196D01*
X218884505Y-92368796D01*
X218860001Y-92370000D01*
X217619999Y-92370000D01*
X217595495Y-92368796D01*
X217571227Y-92365196D01*
X217547428Y-92359235D01*
X217524329Y-92350970D01*
X217502150Y-92340480D01*
X217481107Y-92327868D01*
X217461401Y-92313253D01*
X217443223Y-92296777D01*
X217426747Y-92278599D01*
X217412132Y-92258893D01*
X217399520Y-92237850D01*
X217389030Y-92215671D01*
X217380765Y-92192572D01*
X217374804Y-92168773D01*
X217371204Y-92144505D01*
X217370000Y-92120001D01*
X217370000Y-90419999D01*
X217371204Y-90395495D01*
X217374804Y-90371227D01*
X217380765Y-90347428D01*
X217389030Y-90324329D01*
X217399520Y-90302150D01*
X217412132Y-90281107D01*
X217426747Y-90261401D01*
X217443223Y-90243223D01*
X217461401Y-90226747D01*
X217481107Y-90212132D01*
X217502150Y-90199520D01*
X217524329Y-90189030D01*
X217547428Y-90180765D01*
X217571227Y-90174804D01*
X217595495Y-90171204D01*
X217619999Y-90170000D01*
X218860001Y-90170000D01*
X218884505Y-90171204D01*
X218884505Y-90171204D01*
G37*
D15*
X218240000Y-91270000D03*
D16*
G04 #@! TO.N,+5V*
X220780000Y-91270000D03*
G04 #@! TO.N,GND*
X223320000Y-91270000D03*
G04 #@! TD*
D11*
G04 #@! TO.N,Net-(JCD1-Pad1)*
G04 #@! TO.C,JCD1*
X130000000Y-30000000D03*
D10*
G04 #@! TO.N,Net-(JCD1-Pad2)*
X130000000Y-27460000D03*
G04 #@! TO.N,GND*
X132540000Y-30000000D03*
X132540000Y-27460000D03*
G04 #@! TO.N,/B2B/RX*
X135080000Y-30000000D03*
G04 #@! TO.N,/B2B/TX*
X135080000Y-27460000D03*
G04 #@! TO.N,~ID3_3V3*
X137620000Y-30000000D03*
G04 #@! TO.N,~ID2_3V3*
X137620000Y-27460000D03*
G04 #@! TO.N,~ID0_3V3*
X140160000Y-30000000D03*
G04 #@! TO.N,~ID1_3V3*
X140160000Y-27460000D03*
G04 #@! TO.N,~ARB3_3V3*
X142700000Y-30000000D03*
G04 #@! TO.N,~ARB2_3V3*
X142700000Y-27460000D03*
G04 #@! TO.N,~ARB0_3V3*
X145240000Y-30000000D03*
G04 #@! TO.N,~ARB1_3V3*
X145240000Y-27460000D03*
G04 #@! TO.N,PMOD-6*
X147780000Y-30000000D03*
G04 #@! TO.N,~CLK2X_3V3*
X147780000Y-27460000D03*
G04 #@! TO.N,PMOD-5*
X150320000Y-30000000D03*
G04 #@! TO.N,SD_D1*
X150320000Y-27460000D03*
G04 #@! TO.N,PMOD-8*
X152860000Y-30000000D03*
G04 #@! TO.N,SD_D0*
X152860000Y-27460000D03*
G04 #@! TO.N,PMOD-7*
X155400000Y-30000000D03*
G04 #@! TO.N,SD_CLK*
X155400000Y-27460000D03*
G04 #@! TO.N,PMOD-10*
X157940000Y-30000000D03*
G04 #@! TO.N,SD_CMD*
X157940000Y-27460000D03*
G04 #@! TO.N,PMOD-9*
X160480000Y-30000000D03*
G04 #@! TO.N,SD_D3*
X160480000Y-27460000D03*
G04 #@! TO.N,PMOD-12*
X163020000Y-30000000D03*
G04 #@! TO.N,SD_D2*
X163020000Y-27460000D03*
G04 #@! TO.N,PMOD-11*
X165560000Y-30000000D03*
G04 #@! TO.N,TMx_oe_n*
X165560000Y-27460000D03*
G04 #@! TO.N,+3V3*
X168100000Y-30000000D03*
X168100000Y-27460000D03*
G04 #@! TO.N,GND*
X170640000Y-30000000D03*
X170640000Y-27460000D03*
G04 #@! TO.N,+3V3*
X173180000Y-30000000D03*
X173180000Y-27460000D03*
G04 #@! TO.N,HDMI_HPD_A*
X175720000Y-30000000D03*
G04 #@! TO.N,~TM0_3V3*
X175720000Y-27460000D03*
G04 #@! TO.N,HDMI_SDA_A*
X178260000Y-30000000D03*
G04 #@! TO.N,~TM1_3V3*
X178260000Y-27460000D03*
G04 #@! TO.N,HDMI_SCL_A*
X180800000Y-30000000D03*
G04 #@! TO.N,TM1_n_o*
X180800000Y-27460000D03*
G04 #@! TO.N,HDMI_CEC_A*
X183340000Y-30000000D03*
G04 #@! TO.N,TM0_n_o*
X183340000Y-27460000D03*
G04 #@! TO.N,HDMI_CLK-*
X185880000Y-30000000D03*
G04 #@! TO.N,TM2_oe_n*
X185880000Y-27460000D03*
G04 #@! TO.N,HDMI_CLK+*
X188420000Y-30000000D03*
G04 #@! TO.N,TM2_o_n*
X188420000Y-27460000D03*
G04 #@! TO.N,HDMI_D0+*
X190960000Y-30000000D03*
G04 #@! TO.N,~TM2_3V3*
X190960000Y-27460000D03*
G04 #@! TO.N,HDMI_D0-*
X193500000Y-30000000D03*
G04 #@! TO.N,~RESET_3V3*
X193500000Y-27460000D03*
G04 #@! TO.N,HDMI_D1+*
X196040000Y-30000000D03*
G04 #@! TO.N,LED0*
X196040000Y-27460000D03*
G04 #@! TO.N,HDMI_D1-*
X198580000Y-30000000D03*
G04 #@! TO.N,LED1*
X198580000Y-27460000D03*
G04 #@! TO.N,HDMI_D2-*
X201120000Y-30000000D03*
G04 #@! TO.N,LED2*
X201120000Y-27460000D03*
G04 #@! TO.N,HDMI_D2+*
X203660000Y-30000000D03*
G04 #@! TO.N,LED3*
X203660000Y-27460000D03*
G04 #@! TO.N,FPGA_JTAG_TDO*
X206200000Y-30000000D03*
G04 #@! TO.N,FPGA_JTAG_TMS*
X206200000Y-27460000D03*
G04 #@! TO.N,GND*
X208740000Y-30000000D03*
X208740000Y-27460000D03*
G04 #@! TD*
D17*
G04 #@! TO.N,GND*
G04 #@! TO.C,J1*
X228230000Y-27500000D03*
D18*
G04 #@! TO.N,/B2B/JTAG_VIO*
X228230000Y-29500000D03*
G04 #@! TO.N,GND*
X226230000Y-27500000D03*
G04 #@! TO.N,FPGA_JTAG_TMS*
X226230000Y-29500000D03*
G04 #@! TO.N,GND*
X224230000Y-27500000D03*
G04 #@! TO.N,FPGA_JTAG_TCK*
X224230000Y-29500000D03*
G04 #@! TO.N,GND*
X222230000Y-27500000D03*
G04 #@! TO.N,FPGA_JTAG_TDO*
X222230000Y-29500000D03*
G04 #@! TO.N,GND*
X220230000Y-27500000D03*
G04 #@! TO.N,FPGA_JTAG_TDI*
X220230000Y-29500000D03*
G04 #@! TO.N,GND*
X218230000Y-27500000D03*
G04 #@! TO.N,Net-(J1-Pad12)*
X218230000Y-29500000D03*
G04 #@! TO.N,GND*
X216230000Y-27500000D03*
G04 #@! TO.N,Net-(J1-Pad14)*
X216230000Y-29500000D03*
G04 #@! TD*
D19*
G04 #@! TO.N,SHIELD*
G04 #@! TO.C,J5*
X270800000Y-70150000D03*
X270800000Y-54450000D03*
X265850000Y-69550000D03*
X265850000Y-55050000D03*
G04 #@! TD*
D20*
G04 #@! TO.N,SHIELD*
G04 #@! TO.C,C39*
X265840000Y-43360000D03*
D21*
G04 #@! TO.N,GND*
X263340000Y-43360000D03*
G04 #@! TD*
D14*
G04 #@! TO.N,-12V*
G04 #@! TO.C,J4*
G36*
X200549505Y-99226204D02*
X200573773Y-99229804D01*
X200597572Y-99235765D01*
X200620671Y-99244030D01*
X200642850Y-99254520D01*
X200663893Y-99267132D01*
X200683599Y-99281747D01*
X200701777Y-99298223D01*
X200718253Y-99316401D01*
X200732868Y-99336107D01*
X200745480Y-99357150D01*
X200755970Y-99379329D01*
X200764235Y-99402428D01*
X200770196Y-99426227D01*
X200773796Y-99450495D01*
X200775000Y-99474999D01*
X200775000Y-100525001D01*
X200773796Y-100549505D01*
X200770196Y-100573773D01*
X200764235Y-100597572D01*
X200755970Y-100620671D01*
X200745480Y-100642850D01*
X200732868Y-100663893D01*
X200718253Y-100683599D01*
X200701777Y-100701777D01*
X200683599Y-100718253D01*
X200663893Y-100732868D01*
X200642850Y-100745480D01*
X200620671Y-100755970D01*
X200597572Y-100764235D01*
X200573773Y-100770196D01*
X200549505Y-100773796D01*
X200525001Y-100775000D01*
X199474999Y-100775000D01*
X199450495Y-100773796D01*
X199426227Y-100770196D01*
X199402428Y-100764235D01*
X199379329Y-100755970D01*
X199357150Y-100745480D01*
X199336107Y-100732868D01*
X199316401Y-100718253D01*
X199298223Y-100701777D01*
X199281747Y-100683599D01*
X199267132Y-100663893D01*
X199254520Y-100642850D01*
X199244030Y-100620671D01*
X199235765Y-100597572D01*
X199229804Y-100573773D01*
X199226204Y-100549505D01*
X199225000Y-100525001D01*
X199225000Y-99474999D01*
X199226204Y-99450495D01*
X199229804Y-99426227D01*
X199235765Y-99402428D01*
X199244030Y-99379329D01*
X199254520Y-99357150D01*
X199267132Y-99336107D01*
X199281747Y-99316401D01*
X199298223Y-99298223D01*
X199316401Y-99281747D01*
X199336107Y-99267132D01*
X199357150Y-99254520D01*
X199379329Y-99244030D01*
X199402428Y-99235765D01*
X199426227Y-99229804D01*
X199450495Y-99226204D01*
X199474999Y-99225000D01*
X200525001Y-99225000D01*
X200549505Y-99226204D01*
X200549505Y-99226204D01*
G37*
D22*
X200000000Y-100000000D03*
G04 #@! TO.N,SB0_5V*
X197460000Y-100000000D03*
G04 #@! TO.N,~SPV_5V*
X194920000Y-100000000D03*
G04 #@! TO.N,~SP_5V*
X192380000Y-100000000D03*
G04 #@! TO.N,~TM1_5V*
X189840000Y-100000000D03*
G04 #@! TO.N,~AD1_5V*
X187300000Y-100000000D03*
G04 #@! TO.N,~AD3_5V*
X184760000Y-100000000D03*
G04 #@! TO.N,~AD5_5V*
X182220000Y-100000000D03*
G04 #@! TO.N,~AD7_5V*
X179680000Y-100000000D03*
G04 #@! TO.N,~AD9_5V*
X177140000Y-100000000D03*
G04 #@! TO.N,~AD11_5V*
X174600000Y-100000000D03*
G04 #@! TO.N,~AD13_5V*
X172060000Y-100000000D03*
G04 #@! TO.N,~AD15_5V*
X169520000Y-100000000D03*
G04 #@! TO.N,~AD17_5V*
X166980000Y-100000000D03*
G04 #@! TO.N,~AD19_5V*
X164440000Y-100000000D03*
G04 #@! TO.N,~AD21_5V*
X161900000Y-100000000D03*
G04 #@! TO.N,~AD23_5V*
X159360000Y-100000000D03*
G04 #@! TO.N,~AD25_5V*
X156820000Y-100000000D03*
G04 #@! TO.N,~AD27_5V*
X154280000Y-100000000D03*
G04 #@! TO.N,~AD29_5V*
X151740000Y-100000000D03*
G04 #@! TO.N,~AD31_5V*
X149200000Y-100000000D03*
G04 #@! TO.N,GND*
X146660000Y-100000000D03*
X144120000Y-100000000D03*
G04 #@! TO.N,~ARB1_5V*
X141580000Y-100000000D03*
G04 #@! TO.N,~ARB3_5V*
X139040000Y-100000000D03*
G04 #@! TO.N,~ID1_5V*
X136500000Y-100000000D03*
G04 #@! TO.N,~ID3_5V*
X133960000Y-100000000D03*
G04 #@! TO.N,~ACK_5V*
X131420000Y-100000000D03*
G04 #@! TO.N,+5V*
X128880000Y-100000000D03*
G04 #@! TO.N,~RQST_5V*
X126340000Y-100000000D03*
G04 #@! TO.N,~NMRQ_5V*
X123800000Y-100000000D03*
G04 #@! TO.N,+12V*
X121260000Y-100000000D03*
G04 #@! TO.N,-12V*
X200000000Y-97460000D03*
G04 #@! TO.N,GND*
X197460000Y-97460000D03*
X194920000Y-97460000D03*
G04 #@! TO.N,+5V*
X192380000Y-97460000D03*
X189840000Y-97460000D03*
X187300000Y-97460000D03*
X184760000Y-97460000D03*
G04 #@! TO.N,~TM2_5V*
X182220000Y-97460000D03*
G04 #@! TO.N,~CM0_5V*
X179680000Y-97460000D03*
G04 #@! TO.N,~CM1_5V*
X177140000Y-97460000D03*
G04 #@! TO.N,~CM2_5V*
X174600000Y-97460000D03*
G04 #@! TO.N,GND*
X172060000Y-97460000D03*
X169520000Y-97460000D03*
X166980000Y-97460000D03*
X164440000Y-97460000D03*
X161900000Y-97460000D03*
X159360000Y-97460000D03*
X156820000Y-97460000D03*
X154280000Y-97460000D03*
X151740000Y-97460000D03*
X149200000Y-97460000D03*
X146660000Y-97460000D03*
X144120000Y-97460000D03*
G04 #@! TO.N,~CLK2X_5V*
X141580000Y-97460000D03*
G04 #@! TO.N,STDBYPWR*
X139040000Y-97460000D03*
G04 #@! TO.N,~CLK2XEN_5V*
X136500000Y-97460000D03*
G04 #@! TO.N,~CBUSY_5V*
X133960000Y-97460000D03*
G04 #@! TO.N,+5V*
X131420000Y-97460000D03*
X128880000Y-97460000D03*
G04 #@! TO.N,GND*
X126340000Y-97460000D03*
X123800000Y-97460000D03*
G04 #@! TO.N,+12V*
X121260000Y-97460000D03*
G04 #@! TO.N,~RESET_5V*
X200000000Y-94920000D03*
G04 #@! TO.N,SB1_5V*
X197460000Y-94920000D03*
G04 #@! TO.N,+5V*
X194920000Y-94920000D03*
X192380000Y-94920000D03*
G04 #@! TO.N,~TM0_5V*
X189840000Y-94920000D03*
G04 #@! TO.N,~AD0_5V*
X187300000Y-94920000D03*
G04 #@! TO.N,~AD2_5V*
X184760000Y-94920000D03*
G04 #@! TO.N,~AD4_5V*
X182220000Y-94920000D03*
G04 #@! TO.N,~AD6_5V*
X179680000Y-94920000D03*
G04 #@! TO.N,~AD8_5V*
X177140000Y-94920000D03*
G04 #@! TO.N,~AD10_5V*
X174600000Y-94920000D03*
G04 #@! TO.N,~AD12_5V*
X172060000Y-94920000D03*
G04 #@! TO.N,~AD14_5V*
X169520000Y-94920000D03*
G04 #@! TO.N,~AD16_5V*
X166980000Y-94920000D03*
G04 #@! TO.N,~AD18_5V*
X164440000Y-94920000D03*
G04 #@! TO.N,~AD20_5V*
X161900000Y-94920000D03*
G04 #@! TO.N,~AD22_5V*
X159360000Y-94920000D03*
G04 #@! TO.N,~AD24_5V*
X156820000Y-94920000D03*
G04 #@! TO.N,~AD26_5V*
X154280000Y-94920000D03*
G04 #@! TO.N,~AD28_5V*
X151740000Y-94920000D03*
G04 #@! TO.N,~AD30_5V*
X149200000Y-94920000D03*
G04 #@! TO.N,GND*
X146660000Y-94920000D03*
G04 #@! TO.N,~PFW_5V*
X144120000Y-94920000D03*
G04 #@! TO.N,~ARB0_5V*
X141580000Y-94920000D03*
G04 #@! TO.N,~ARB2_5V*
X139040000Y-94920000D03*
G04 #@! TO.N,~ID0_5V*
X136500000Y-94920000D03*
G04 #@! TO.N,~ID2_5V*
X133960000Y-94920000D03*
G04 #@! TO.N,~START_5V*
X131420000Y-94920000D03*
G04 #@! TO.N,+5V*
X128880000Y-94920000D03*
X126340000Y-94920000D03*
G04 #@! TO.N,GND*
X123800000Y-94920000D03*
G04 #@! TO.N,~CLK_5V*
X121260000Y-94920000D03*
G04 #@! TD*
D10*
G04 #@! TO.N,Net-(J3-Pad6)*
G04 #@! TO.C,J3*
X121900000Y-20800000D03*
G04 #@! TO.N,/B2B/TX*
X121900000Y-23340000D03*
G04 #@! TO.N,/B2B/RX*
X121900000Y-25880000D03*
G04 #@! TO.N,Net-(J3-Pad3)*
X121900000Y-28420000D03*
G04 #@! TO.N,Net-(J3-Pad2)*
X121900000Y-30960000D03*
D11*
G04 #@! TO.N,GND*
X121900000Y-33500000D03*
G04 #@! TD*
D10*
G04 #@! TO.N,GND*
G04 #@! TO.C,JAB1*
X208740000Y-59210000D03*
G04 #@! TO.N,/B2B/JTAG_VIO*
X208740000Y-61750000D03*
G04 #@! TO.N,FPGA_JTAG_TCK*
X206200000Y-59210000D03*
G04 #@! TO.N,FPGA_JTAG_TDI*
X206200000Y-61750000D03*
G04 #@! TO.N,USBH0_D-*
X203660000Y-59210000D03*
G04 #@! TO.N,USBH0_D+*
X203660000Y-61750000D03*
G04 #@! TO.N,~AD0_3V3*
X201120000Y-59210000D03*
G04 #@! TO.N,~AD1_3V3*
X201120000Y-61750000D03*
G04 #@! TO.N,~AD2_3V3*
X198580000Y-59210000D03*
G04 #@! TO.N,~AD3_3V3*
X198580000Y-61750000D03*
G04 #@! TO.N,~AD4_3V3*
X196040000Y-59210000D03*
G04 #@! TO.N,~AD5_3V3*
X196040000Y-61750000D03*
G04 #@! TO.N,~AD6_3V3*
X193500000Y-59210000D03*
G04 #@! TO.N,~AD7_3V3*
X193500000Y-61750000D03*
G04 #@! TO.N,~AD8_3V3*
X190960000Y-59210000D03*
G04 #@! TO.N,~AD9_3V3*
X190960000Y-61750000D03*
G04 #@! TO.N,~AD10_3V3*
X188420000Y-59210000D03*
G04 #@! TO.N,~AD11_3V3*
X188420000Y-61750000D03*
G04 #@! TO.N,~AD12_3V3*
X185880000Y-59210000D03*
G04 #@! TO.N,~AD13_3V3*
X185880000Y-61750000D03*
G04 #@! TO.N,~AD14_3V3*
X183340000Y-59210000D03*
G04 #@! TO.N,~AD15_3V3*
X183340000Y-61750000D03*
G04 #@! TO.N,~AD16_3V3*
X180800000Y-59210000D03*
G04 #@! TO.N,~AD17_3V3*
X180800000Y-61750000D03*
G04 #@! TO.N,~AD18_3V3*
X178260000Y-59210000D03*
G04 #@! TO.N,~AD19_3V3*
X178260000Y-61750000D03*
G04 #@! TO.N,~AD20_3V3*
X175720000Y-59210000D03*
G04 #@! TO.N,~AD21_3V3*
X175720000Y-61750000D03*
G04 #@! TO.N,~AD22_3V3*
X173180000Y-59210000D03*
G04 #@! TO.N,~AD23_3V3*
X173180000Y-61750000D03*
G04 #@! TO.N,+3V3*
X170640000Y-59210000D03*
X170640000Y-61750000D03*
G04 #@! TO.N,GND*
X168100000Y-59210000D03*
X168100000Y-61750000D03*
G04 #@! TO.N,+3V3*
X165560000Y-59210000D03*
X165560000Y-61750000D03*
G04 #@! TO.N,~AD24_3V3*
X163020000Y-59210000D03*
G04 #@! TO.N,NUBUS_OE*
X163020000Y-61750000D03*
G04 #@! TO.N,~AD26_3V3*
X160480000Y-59210000D03*
G04 #@! TO.N,~AD25_3V3*
X160480000Y-61750000D03*
G04 #@! TO.N,~AD28_3V3*
X157940000Y-59210000D03*
G04 #@! TO.N,~AD27_3V3*
X157940000Y-61750000D03*
G04 #@! TO.N,~AD30_3V3*
X155400000Y-59210000D03*
G04 #@! TO.N,~AD29_3V3*
X155400000Y-61750000D03*
G04 #@! TO.N,~CLK_3V3*
X152860000Y-59210000D03*
G04 #@! TO.N,~AD31_3V3*
X152860000Y-61750000D03*
G04 #@! TO.N,ARB1_o_n*
X150320000Y-59210000D03*
G04 #@! TO.N,NUBUS_AD_DIR*
X150320000Y-61750000D03*
G04 #@! TO.N,ARB2_o_n*
X147780000Y-59210000D03*
G04 #@! TO.N,ARB3_o_n*
X147780000Y-61750000D03*
G04 #@! TO.N,ACK_o_n*
X145240000Y-59210000D03*
G04 #@! TO.N,ARB0_o_n*
X145240000Y-61750000D03*
G04 #@! TO.N,ACK_oe_n*
X142700000Y-59210000D03*
G04 #@! TO.N,START_o_n*
X142700000Y-61750000D03*
G04 #@! TO.N,RQST_o_n*
X140160000Y-59210000D03*
G04 #@! TO.N,START_oe_n*
X140160000Y-61750000D03*
G04 #@! TO.N,~ACK_3V3*
X137620000Y-59210000D03*
G04 #@! TO.N,~START_3V3*
X137620000Y-61750000D03*
G04 #@! TO.N,~NMRQ_3V3*
X135080000Y-59210000D03*
G04 #@! TO.N,~RQST_3V3*
X135080000Y-61750000D03*
G04 #@! TO.N,GND*
X132540000Y-59210000D03*
X132540000Y-61750000D03*
G04 #@! TO.N,+5V*
X130000000Y-59210000D03*
D11*
X130000000Y-61750000D03*
G04 #@! TD*
D23*
G04 #@! TO.N,GND*
X137500000Y-89312500D03*
X256220000Y-61875000D03*
X252900000Y-82730000D03*
X262640000Y-79355000D03*
X149900000Y-71000000D03*
X117200000Y-84780000D03*
X189500000Y-71000000D03*
X115200000Y-87480000D03*
X145400000Y-88100000D03*
X139300000Y-87450000D03*
X155357500Y-79750000D03*
X148200000Y-86800000D03*
X256010000Y-87920000D03*
X179857500Y-79750000D03*
X115200000Y-90730000D03*
X263200000Y-67357500D03*
X145300000Y-90050000D03*
X194857500Y-79750000D03*
X168357500Y-79750000D03*
X163000000Y-71000000D03*
X267730000Y-79355000D03*
X267720000Y-77180000D03*
X267000000Y-65550000D03*
X174500000Y-71000000D03*
X267000000Y-58050000D03*
X255500000Y-58625000D03*
X255040000Y-53812500D03*
X263050000Y-39710000D03*
X115200000Y-89430000D03*
X183600000Y-71000000D03*
X116300000Y-16437500D03*
X246062500Y-59100000D03*
X267000000Y-61050000D03*
X244180000Y-99750000D03*
X236450000Y-82730000D03*
X158100000Y-92000000D03*
X196200000Y-92480000D03*
X196200000Y-89100000D03*
X123800000Y-93000000D03*
X128025000Y-75550000D03*
X130850000Y-77500000D03*
X130850000Y-79450000D03*
X134150000Y-78150000D03*
X134150000Y-76200000D03*
X135400000Y-70150000D03*
X185000000Y-48800000D03*
X185000000Y-50750000D03*
X185000000Y-52700000D03*
X188250000Y-49450000D03*
X188250000Y-51400000D03*
X154500000Y-13300000D03*
X149925000Y-14350000D03*
X163675000Y-14350000D03*
X157937500Y-25050000D03*
X157787500Y-19250000D03*
X139252400Y-47600000D03*
X145125000Y-50200000D03*
X150850000Y-50900000D03*
X187000000Y-83100000D03*
X195480000Y-15062500D03*
X185500000Y-15052500D03*
X168650000Y-91575000D03*
X118534670Y-98720000D03*
X240200000Y-27500000D03*
X117200000Y-72200000D03*
X168357500Y-78180000D03*
G04 #@! TO.N,+3V3*
X135450000Y-74225000D03*
X248080000Y-63750000D03*
X161750000Y-73687500D03*
X148750000Y-73687500D03*
X257550000Y-55387500D03*
X173300000Y-73700000D03*
X118265134Y-44400000D03*
X118265134Y-38400000D03*
X137500000Y-90887500D03*
X245550000Y-57975000D03*
X136727523Y-83900000D03*
X188250000Y-73687500D03*
X121200000Y-84780000D03*
X181250000Y-73687500D03*
X116300000Y-11212500D03*
X182100000Y-87100000D03*
X118300000Y-79800000D03*
X115812500Y-82500000D03*
X126287500Y-82100000D03*
X143787500Y-86100000D03*
X140387500Y-83700000D03*
X191050000Y-48800000D03*
X156212500Y-19250000D03*
X156700000Y-11212500D03*
X156062500Y-25025000D03*
X137700000Y-44789641D03*
X147000000Y-47400000D03*
G04 #@! TO.N,+5V*
X253850000Y-87660000D03*
X246230000Y-61872500D03*
X131697842Y-88000000D03*
X129897842Y-88000000D03*
X128097842Y-88000000D03*
X133421568Y-88014972D03*
X220840000Y-97970000D03*
G04 #@! TO.N,~RESET_5V*
X194000000Y-50750000D03*
G04 #@! TO.N,~TM1_5V*
X180700000Y-50100000D03*
X182500000Y-79900000D03*
G04 #@! TO.N,~TM2_5V*
X186900000Y-73800000D03*
X191900000Y-52700000D03*
G04 #@! TO.N,~TM0_5V*
X185800000Y-83875000D03*
X185800000Y-79900000D03*
X186300000Y-52050000D03*
G04 #@! TO.N,~ID3_3V3*
X125200000Y-36977042D03*
G04 #@! TO.N,~ID2_3V3*
X125200000Y-39943708D03*
G04 #@! TO.N,~ID1_3V3*
X125200000Y-42910374D03*
G04 #@! TO.N,~ID0_3V3*
X125200000Y-45877042D03*
G04 #@! TO.N,~CLK_3V3*
X136975000Y-78800000D03*
G04 #@! TO.N,~CLK2X_5V*
X147650000Y-70000000D03*
G04 #@! TO.N,~RESET_3V3*
X191050000Y-50100000D03*
G04 #@! TO.N,~TM0_3V3*
X182200000Y-51400000D03*
G04 #@! TO.N,~TM1_3V3*
X182200000Y-49450000D03*
G04 #@! TO.N,HDMI_5V*
X255920000Y-63320000D03*
X260760000Y-65782500D03*
G04 #@! TO.N,~TM2_3V3*
X191050000Y-52050000D03*
G04 #@! TO.N,ARB1_o_n*
X145387500Y-66000000D03*
G04 #@! TO.N,ARB3_o_n*
X140375000Y-82475000D03*
G04 #@! TO.N,ARB2_o_n*
X142300000Y-65800000D03*
G04 #@! TO.N,RQST_o_n*
X125066330Y-75900000D03*
G04 #@! TO.N,START_o_n*
X126550000Y-80675000D03*
G04 #@! TO.N,START_oe_n*
X124712500Y-81750000D03*
G04 #@! TO.N,ACK_o_n*
X126975000Y-78050000D03*
G04 #@! TO.N,ACK_oe_n*
X124925000Y-78850000D03*
G04 #@! TO.N,TMx_oe_n*
X181200000Y-81450000D03*
G04 #@! TO.N,TM1_n_o*
X183200000Y-82900000D03*
G04 #@! TO.N,TM0_n_o*
X184477400Y-79900000D03*
G04 #@! TO.N,TM2_o_n*
X185800000Y-73175000D03*
G04 #@! TO.N,TM2_oe_n*
X184700000Y-73800000D03*
G04 #@! TD*
D24*
G04 #@! TO.N,+3V3*
X165560000Y-61750000D02*
X165560000Y-65100000D01*
X173180000Y-39820000D02*
X173180000Y-30000000D01*
X168100000Y-30000000D02*
X168100000Y-32800000D01*
X170640000Y-42360000D02*
X173180000Y-39820000D01*
D25*
X137750000Y-83700000D02*
X143500000Y-77950000D01*
D24*
X170640000Y-59210000D02*
X170640000Y-47000000D01*
X168100000Y-27460000D02*
X168100000Y-25600000D01*
D25*
X165460000Y-66400000D02*
X165560000Y-66500000D01*
X199687500Y-73687500D02*
X202830000Y-76830000D01*
X143500000Y-77950000D02*
X147202500Y-77950000D01*
X148750000Y-73687500D02*
X148750000Y-76402500D01*
X136934315Y-90887500D02*
X136727523Y-90680708D01*
D24*
X170640000Y-63860000D02*
X170640000Y-61750000D01*
D25*
X248479999Y-59720001D02*
X250225000Y-57975000D01*
X165560000Y-61750000D02*
X163110000Y-64200000D01*
X163110000Y-64200000D02*
X140912500Y-64200000D01*
X140912500Y-64200000D02*
X140112500Y-65000000D01*
X252812500Y-55387500D02*
X257550000Y-55387500D01*
X168100000Y-25600000D02*
X169000000Y-24700000D01*
D24*
X170640000Y-59210000D02*
X170640000Y-61750000D01*
X165560000Y-59210000D02*
X165560000Y-61750000D01*
D25*
X165610000Y-73700000D02*
X165560000Y-73750000D01*
X172200000Y-24700000D02*
X173180000Y-25680000D01*
X148750000Y-73687500D02*
X161750000Y-73687500D01*
X137500000Y-90887500D02*
X136934315Y-90887500D01*
X166000000Y-64500000D02*
X170000000Y-64500000D01*
X165497500Y-73687500D02*
X165560000Y-73750000D01*
D24*
X173180000Y-27460000D02*
X173180000Y-30000000D01*
D25*
X170000000Y-64500000D02*
X170640000Y-63860000D01*
X136727523Y-90680708D02*
X136727523Y-83900000D01*
D26*
X202830000Y-76830000D02*
X202830000Y-79080000D01*
D25*
X118265134Y-38400000D02*
X118265134Y-44400000D01*
X169000000Y-24700000D02*
X172200000Y-24700000D01*
D24*
X168100000Y-27460000D02*
X168100000Y-30000000D01*
X165560000Y-65100000D02*
X165560000Y-66500000D01*
D25*
X248479999Y-63350001D02*
X248479999Y-59720001D01*
X250225000Y-57975000D02*
X252812500Y-55387500D01*
D24*
X170640000Y-47000000D02*
X170640000Y-42360000D01*
D25*
X248080000Y-63750000D02*
X248479999Y-63350001D01*
X147202500Y-77950000D02*
X148750000Y-76402500D01*
X165560000Y-75510000D02*
X165600000Y-75550000D01*
X165440000Y-65220000D02*
X165560000Y-65100000D01*
X170640000Y-47000000D02*
X170764999Y-47124999D01*
D24*
X173180000Y-25680000D02*
X173180000Y-27460000D01*
D25*
X162750000Y-20250000D02*
X168100000Y-25600000D01*
X245550000Y-57975000D02*
X250225000Y-57975000D01*
X161750000Y-73687500D02*
X165497500Y-73687500D01*
D24*
X165560000Y-73750000D02*
X165560000Y-66500000D01*
D25*
X166000000Y-64500000D02*
X165560000Y-64060000D01*
D24*
X165560000Y-73750000D02*
X165560000Y-75510000D01*
D25*
X136727523Y-83900000D02*
X137550000Y-83900000D01*
X135847523Y-84780000D02*
X121200000Y-84780000D01*
X136727523Y-83900000D02*
X135847523Y-84780000D01*
X161762500Y-73700000D02*
X161750000Y-73687500D01*
X173300000Y-73700000D02*
X161762500Y-73700000D01*
X173312500Y-73687500D02*
X173300000Y-73700000D01*
X188250000Y-73687500D02*
X199687500Y-73687500D01*
X181250000Y-73687500D02*
X173312500Y-73687500D01*
X157512500Y-11212500D02*
X161000000Y-14700000D01*
X116300000Y-11212500D02*
X156700000Y-11212500D01*
X182100000Y-87100000D02*
X177100000Y-87100000D01*
X173300000Y-83300000D02*
X173300000Y-73700000D01*
X177100000Y-87100000D02*
X173300000Y-83300000D01*
X117300000Y-80800000D02*
X117220000Y-80800000D01*
X118300000Y-79800000D02*
X117300000Y-80800000D01*
X115812500Y-82500000D02*
X117332500Y-80980000D01*
X117332500Y-80980000D02*
X117400000Y-80980000D01*
X117400000Y-80980000D02*
X121200000Y-84780000D01*
X117220000Y-80800000D02*
X117400000Y-80980000D01*
X134927523Y-82100000D02*
X136727523Y-83900000D01*
X126287500Y-82100000D02*
X134927523Y-82100000D01*
X143500000Y-85812500D02*
X143787500Y-86100000D01*
X143500000Y-77950000D02*
X143500000Y-85812500D01*
X140387500Y-83700000D02*
X137750000Y-83700000D01*
X137550000Y-83900000D02*
X137750000Y-83700000D01*
X162750000Y-16450000D02*
X161000000Y-14700000D01*
X162750000Y-20250000D02*
X162750000Y-16450000D01*
X139775000Y-74225000D02*
X143500000Y-77950000D01*
X135450000Y-74225000D02*
X139775000Y-74225000D01*
X140112500Y-69562500D02*
X140112500Y-65000000D01*
X135450000Y-74225000D02*
X140112500Y-69562500D01*
X145775000Y-44789641D02*
X137700000Y-44789641D01*
X191050000Y-48234315D02*
X191050000Y-47124999D01*
X191050000Y-48800000D02*
X191050000Y-48234315D01*
X191050000Y-47124999D02*
X223475001Y-47124999D01*
X170764999Y-47124999D02*
X191050000Y-47124999D01*
X226129315Y-76830000D02*
X202830000Y-76830000D01*
X244984315Y-57975000D02*
X226129315Y-76830000D01*
X245550000Y-57975000D02*
X244984315Y-57975000D01*
X156700000Y-11212500D02*
X157512500Y-11212500D01*
X156062500Y-19400000D02*
X156212500Y-19250000D01*
X156062500Y-25025000D02*
X156062500Y-19400000D01*
X156646815Y-20250000D02*
X162750000Y-20250000D01*
X156212500Y-19815685D02*
X156646815Y-20250000D01*
X156212500Y-19250000D02*
X156212500Y-19815685D01*
X257550000Y-52320000D02*
X257550000Y-55387500D01*
X252330000Y-47100000D02*
X257550000Y-52320000D01*
X147000000Y-44889641D02*
X147100000Y-44789641D01*
X147000000Y-47400000D02*
X147000000Y-44889641D01*
X147100000Y-44789641D02*
X156110359Y-44789641D01*
X145775000Y-44789641D02*
X147100000Y-44789641D01*
X251802400Y-47100000D02*
X251800000Y-47100000D01*
X223550000Y-47100000D02*
X251800000Y-47100000D01*
X251800000Y-47100000D02*
X252330000Y-47100000D01*
D24*
X165560000Y-59210000D02*
X165560000Y-56940000D01*
D25*
X127968318Y-44400000D02*
X128357959Y-44789641D01*
X118265134Y-44400000D02*
X127968318Y-44400000D01*
D27*
X121760000Y-49850000D02*
X124300000Y-49850000D01*
X124300000Y-49850000D02*
X128900000Y-49850000D01*
D25*
X133920000Y-44830000D02*
X133920000Y-44789641D01*
X128900000Y-49850000D02*
X133920000Y-44830000D01*
X133920000Y-44789641D02*
X128357959Y-44789641D01*
X137700000Y-44789641D02*
X133920000Y-44789641D01*
X118265134Y-38400000D02*
X162500000Y-38400000D01*
X162500000Y-38400000D02*
X168100000Y-32800000D01*
X156110359Y-44789641D02*
X162500000Y-38400000D01*
G04 #@! TO.N,+5V*
X133406596Y-88000000D02*
X133421568Y-88014972D01*
X220840000Y-91330000D02*
X220780000Y-91270000D01*
G04 #@! TO.N,~TM1_5V*
X182500000Y-80465685D02*
X182500000Y-79900000D01*
X182500000Y-81006066D02*
X182500000Y-80465685D01*
X189840000Y-100000000D02*
X188600000Y-98760000D01*
X188600000Y-98760000D02*
X188600000Y-89750000D01*
X188600000Y-89750000D02*
X183850000Y-85000000D01*
X183850000Y-82356066D02*
X182500000Y-81006066D01*
X183850000Y-85000000D02*
X183850000Y-82356066D01*
G04 #@! TO.N,~AD23_3V3*
X173212500Y-61782500D02*
X173180000Y-61750000D01*
D28*
G04 #@! TO.N,HDMI_5V*
X258382500Y-65782500D02*
X260760000Y-65782500D01*
X255920000Y-63320000D02*
X258382500Y-65782500D01*
G04 #@! TD*
D29*
G04 #@! TO.N,+3V3*
G36*
X256873000Y-61064289D02*
X256806280Y-60997569D01*
X256425874Y-60840000D01*
X256014126Y-60840000D01*
X255633720Y-60997569D01*
X255342569Y-61288720D01*
X255185000Y-61669126D01*
X255185000Y-62080874D01*
X255334658Y-62442181D01*
X255333720Y-62442569D01*
X255042569Y-62733720D01*
X254885000Y-63114126D01*
X254885000Y-63525874D01*
X255042569Y-63906280D01*
X255333720Y-64197431D01*
X255714126Y-64355000D01*
X255880199Y-64355000D01*
X256873000Y-65347801D01*
X256873000Y-87319289D01*
X256596280Y-87042569D01*
X256215874Y-86885000D01*
X255804126Y-86885000D01*
X255423720Y-87042569D01*
X255132569Y-87333720D01*
X254975000Y-87714126D01*
X254975000Y-88125874D01*
X255132569Y-88506280D01*
X255423720Y-88797431D01*
X255804126Y-88955000D01*
X256215874Y-88955000D01*
X256596280Y-88797431D01*
X256873000Y-88520711D01*
X256873000Y-93473000D01*
X196507271Y-93473000D01*
X196786280Y-93357431D01*
X197077431Y-93066280D01*
X197235000Y-92685874D01*
X197235000Y-92274126D01*
X197077431Y-91893720D01*
X196786280Y-91602569D01*
X196405874Y-91445000D01*
X195994126Y-91445000D01*
X195613720Y-91602569D01*
X195322569Y-91893720D01*
X195165000Y-92274126D01*
X195165000Y-92685874D01*
X195322569Y-93066280D01*
X195613720Y-93357431D01*
X195892729Y-93473000D01*
X189311200Y-93473000D01*
X189311200Y-90419999D01*
X216722560Y-90419999D01*
X216722560Y-92120001D01*
X216790873Y-92463436D01*
X216985414Y-92754586D01*
X217276564Y-92949127D01*
X217619999Y-93017440D01*
X218860001Y-93017440D01*
X219203436Y-92949127D01*
X219494586Y-92754586D01*
X219651413Y-92519878D01*
X219694956Y-92585044D01*
X220192779Y-92917678D01*
X220780000Y-93034484D01*
X221367222Y-92917678D01*
X221865044Y-92585044D01*
X222050000Y-92308237D01*
X222234956Y-92585044D01*
X222732779Y-92917678D01*
X223320000Y-93034484D01*
X223907222Y-92917678D01*
X224405044Y-92585044D01*
X224737678Y-92087221D01*
X224825000Y-91648225D01*
X224825000Y-90891774D01*
X224737678Y-90452778D01*
X224405044Y-89954956D01*
X223907221Y-89622322D01*
X223320000Y-89505516D01*
X222732778Y-89622322D01*
X222234956Y-89954956D01*
X222050000Y-90231763D01*
X221865044Y-89954956D01*
X221367221Y-89622322D01*
X220780000Y-89505516D01*
X220192778Y-89622322D01*
X219694956Y-89954956D01*
X219651414Y-90020122D01*
X219494586Y-89785414D01*
X219203436Y-89590873D01*
X218860001Y-89522560D01*
X217619999Y-89522560D01*
X217276564Y-89590873D01*
X216985414Y-89785414D01*
X216790873Y-90076564D01*
X216722560Y-90419999D01*
X189311200Y-90419999D01*
X189311200Y-89820041D01*
X189325132Y-89749999D01*
X189311200Y-89679957D01*
X189311200Y-89679954D01*
X189269936Y-89472504D01*
X189158597Y-89305874D01*
X189152424Y-89296635D01*
X189152422Y-89296633D01*
X189112746Y-89237254D01*
X189053367Y-89197578D01*
X188749915Y-88894126D01*
X195165000Y-88894126D01*
X195165000Y-89305874D01*
X195322569Y-89686280D01*
X195613720Y-89977431D01*
X195994126Y-90135000D01*
X196405874Y-90135000D01*
X196786280Y-89977431D01*
X197077431Y-89686280D01*
X197235000Y-89305874D01*
X197235000Y-88894126D01*
X197077431Y-88513720D01*
X196786280Y-88222569D01*
X196405874Y-88065000D01*
X195994126Y-88065000D01*
X195613720Y-88222569D01*
X195322569Y-88513720D01*
X195165000Y-88894126D01*
X188749915Y-88894126D01*
X187309915Y-87454126D01*
X252815000Y-87454126D01*
X252815000Y-87865874D01*
X252972569Y-88246280D01*
X253263720Y-88537431D01*
X253644126Y-88695000D01*
X254055874Y-88695000D01*
X254436280Y-88537431D01*
X254727431Y-88246280D01*
X254885000Y-87865874D01*
X254885000Y-87454126D01*
X254727431Y-87073720D01*
X254436280Y-86782569D01*
X254055874Y-86625000D01*
X253644126Y-86625000D01*
X253263720Y-86782569D01*
X252972569Y-87073720D01*
X252815000Y-87454126D01*
X187309915Y-87454126D01*
X184561200Y-84705412D01*
X184561200Y-83669126D01*
X184765000Y-83669126D01*
X184765000Y-84080874D01*
X184922569Y-84461280D01*
X185213720Y-84752431D01*
X185594126Y-84910000D01*
X186005874Y-84910000D01*
X186386280Y-84752431D01*
X186677431Y-84461280D01*
X186812580Y-84135000D01*
X187205874Y-84135000D01*
X187586280Y-83977431D01*
X187877431Y-83686280D01*
X188035000Y-83305874D01*
X188035000Y-82894126D01*
X187881742Y-82524126D01*
X235415000Y-82524126D01*
X235415000Y-82935874D01*
X235572569Y-83316280D01*
X235863720Y-83607431D01*
X236244126Y-83765000D01*
X236655874Y-83765000D01*
X237036280Y-83607431D01*
X237327431Y-83316280D01*
X237485000Y-82935874D01*
X237485000Y-82524126D01*
X251865000Y-82524126D01*
X251865000Y-82935874D01*
X252022569Y-83316280D01*
X252313720Y-83607431D01*
X252694126Y-83765000D01*
X253105874Y-83765000D01*
X253486280Y-83607431D01*
X253777431Y-83316280D01*
X253935000Y-82935874D01*
X253935000Y-82524126D01*
X253777431Y-82143720D01*
X253486280Y-81852569D01*
X253105874Y-81695000D01*
X252694126Y-81695000D01*
X252313720Y-81852569D01*
X252022569Y-82143720D01*
X251865000Y-82524126D01*
X237485000Y-82524126D01*
X237327431Y-82143720D01*
X237036280Y-81852569D01*
X236655874Y-81695000D01*
X236244126Y-81695000D01*
X235863720Y-81852569D01*
X235572569Y-82143720D01*
X235415000Y-82524126D01*
X187881742Y-82524126D01*
X187877431Y-82513720D01*
X187586280Y-82222569D01*
X187205874Y-82065000D01*
X186794126Y-82065000D01*
X186413720Y-82222569D01*
X186122569Y-82513720D01*
X185987420Y-82840000D01*
X185594126Y-82840000D01*
X185213720Y-82997569D01*
X184922569Y-83288720D01*
X184765000Y-83669126D01*
X184561200Y-83669126D01*
X184561200Y-82426107D01*
X184575132Y-82356065D01*
X184561200Y-82286023D01*
X184561200Y-82286020D01*
X184519936Y-82078570D01*
X184491679Y-82036280D01*
X184402424Y-81902701D01*
X184402422Y-81902699D01*
X184362746Y-81843320D01*
X184303367Y-81803644D01*
X183211200Y-80711478D01*
X183211200Y-80652511D01*
X183377431Y-80486280D01*
X183488700Y-80217652D01*
X183599969Y-80486280D01*
X183891120Y-80777431D01*
X184271526Y-80935000D01*
X184683274Y-80935000D01*
X185063680Y-80777431D01*
X185138700Y-80702411D01*
X185213720Y-80777431D01*
X185594126Y-80935000D01*
X186005874Y-80935000D01*
X186386280Y-80777431D01*
X186677431Y-80486280D01*
X186835000Y-80105874D01*
X186835000Y-79694126D01*
X186772869Y-79544126D01*
X193822500Y-79544126D01*
X193822500Y-79955874D01*
X193980069Y-80336280D01*
X194271220Y-80627431D01*
X194651626Y-80785000D01*
X195063374Y-80785000D01*
X195443780Y-80627431D01*
X195734931Y-80336280D01*
X195892500Y-79955874D01*
X195892500Y-79544126D01*
X195818615Y-79365750D01*
X201345000Y-79365750D01*
X201345000Y-80056309D01*
X201441673Y-80289698D01*
X201620301Y-80468327D01*
X201853690Y-80565000D01*
X202544250Y-80565000D01*
X202703000Y-80406250D01*
X202703000Y-79207000D01*
X201503750Y-79207000D01*
X201345000Y-79365750D01*
X195818615Y-79365750D01*
X195734931Y-79163720D01*
X195443780Y-78872569D01*
X195063374Y-78715000D01*
X194651626Y-78715000D01*
X194271220Y-78872569D01*
X193980069Y-79163720D01*
X193822500Y-79544126D01*
X186772869Y-79544126D01*
X186677431Y-79313720D01*
X186386280Y-79022569D01*
X186005874Y-78865000D01*
X185594126Y-78865000D01*
X185213720Y-79022569D01*
X185138700Y-79097589D01*
X185063680Y-79022569D01*
X184683274Y-78865000D01*
X184271526Y-78865000D01*
X183891120Y-79022569D01*
X183599969Y-79313720D01*
X183488700Y-79582348D01*
X183377431Y-79313720D01*
X183086280Y-79022569D01*
X182705874Y-78865000D01*
X182294126Y-78865000D01*
X181913720Y-79022569D01*
X181622569Y-79313720D01*
X181465000Y-79694126D01*
X181465000Y-80105874D01*
X181622569Y-80486280D01*
X181654113Y-80517824D01*
X181405874Y-80415000D01*
X180994126Y-80415000D01*
X180613720Y-80572569D01*
X180322569Y-80863720D01*
X180165000Y-81244126D01*
X180165000Y-81655874D01*
X180322569Y-82036280D01*
X180613720Y-82327431D01*
X180994126Y-82485000D01*
X181405874Y-82485000D01*
X181786280Y-82327431D01*
X182077431Y-82036280D01*
X182208353Y-81720207D01*
X182562217Y-82074072D01*
X182322569Y-82313720D01*
X182165000Y-82694126D01*
X182165000Y-83105874D01*
X182322569Y-83486280D01*
X182613720Y-83777431D01*
X182994126Y-83935000D01*
X183138800Y-83935000D01*
X183138800Y-84929958D01*
X183124868Y-85000000D01*
X183138800Y-85070041D01*
X183138800Y-85070045D01*
X183180064Y-85277495D01*
X183180065Y-85277496D01*
X183297576Y-85453364D01*
X183297578Y-85453366D01*
X183337254Y-85512745D01*
X183396634Y-85552422D01*
X187888801Y-90044590D01*
X187888801Y-93473000D01*
X124724353Y-93473000D01*
X124835000Y-93205874D01*
X124835000Y-92794126D01*
X124677431Y-92413720D01*
X124386280Y-92122569D01*
X124005874Y-91965000D01*
X123594126Y-91965000D01*
X123213720Y-92122569D01*
X122922569Y-92413720D01*
X122765000Y-92794126D01*
X122765000Y-93205874D01*
X122875647Y-93473000D01*
X113726856Y-93473000D01*
X113724951Y-91794126D01*
X157065000Y-91794126D01*
X157065000Y-92205874D01*
X157222569Y-92586280D01*
X157513720Y-92877431D01*
X157894126Y-93035000D01*
X158305874Y-93035000D01*
X158686280Y-92877431D01*
X158977431Y-92586280D01*
X159135000Y-92205874D01*
X159135000Y-91794126D01*
X158977431Y-91413720D01*
X158932837Y-91369126D01*
X167615000Y-91369126D01*
X167615000Y-91780874D01*
X167772569Y-92161280D01*
X168063720Y-92452431D01*
X168444126Y-92610000D01*
X168855874Y-92610000D01*
X169236280Y-92452431D01*
X169527431Y-92161280D01*
X169685000Y-91780874D01*
X169685000Y-91369126D01*
X169527431Y-90988720D01*
X169236280Y-90697569D01*
X168855874Y-90540000D01*
X168444126Y-90540000D01*
X168063720Y-90697569D01*
X167772569Y-90988720D01*
X167615000Y-91369126D01*
X158932837Y-91369126D01*
X158686280Y-91122569D01*
X158305874Y-90965000D01*
X157894126Y-90965000D01*
X157513720Y-91122569D01*
X157222569Y-91413720D01*
X157065000Y-91794126D01*
X113724951Y-91794126D01*
X113719820Y-87274126D01*
X114165000Y-87274126D01*
X114165000Y-87685874D01*
X114322569Y-88066280D01*
X114613720Y-88357431D01*
X114849273Y-88455000D01*
X114613720Y-88552569D01*
X114322569Y-88843720D01*
X114165000Y-89224126D01*
X114165000Y-89635874D01*
X114322569Y-90016280D01*
X114386289Y-90080000D01*
X114322569Y-90143720D01*
X114165000Y-90524126D01*
X114165000Y-90935874D01*
X114322569Y-91316280D01*
X114613720Y-91607431D01*
X114994126Y-91765000D01*
X115405874Y-91765000D01*
X115786280Y-91607431D01*
X116077431Y-91316280D01*
X116235000Y-90935874D01*
X116235000Y-90524126D01*
X116077431Y-90143720D01*
X116013711Y-90080000D01*
X116077431Y-90016280D01*
X116235000Y-89635874D01*
X116235000Y-89224126D01*
X116186331Y-89106626D01*
X136465000Y-89106626D01*
X136465000Y-89518374D01*
X136622569Y-89898780D01*
X136913720Y-90189931D01*
X137294126Y-90347500D01*
X137705874Y-90347500D01*
X138086280Y-90189931D01*
X138377431Y-89898780D01*
X138400069Y-89844126D01*
X144265000Y-89844126D01*
X144265000Y-90255874D01*
X144422569Y-90636280D01*
X144713720Y-90927431D01*
X145094126Y-91085000D01*
X145505874Y-91085000D01*
X145886280Y-90927431D01*
X146177431Y-90636280D01*
X146335000Y-90255874D01*
X146335000Y-89844126D01*
X146177431Y-89463720D01*
X145886280Y-89172569D01*
X145700727Y-89095711D01*
X145986280Y-88977431D01*
X146277431Y-88686280D01*
X146435000Y-88305874D01*
X146435000Y-87894126D01*
X146277431Y-87513720D01*
X145986280Y-87222569D01*
X145605874Y-87065000D01*
X145194126Y-87065000D01*
X144813720Y-87222569D01*
X144522569Y-87513720D01*
X144365000Y-87894126D01*
X144365000Y-88305874D01*
X144522569Y-88686280D01*
X144813720Y-88977431D01*
X144999273Y-89054289D01*
X144713720Y-89172569D01*
X144422569Y-89463720D01*
X144265000Y-89844126D01*
X138400069Y-89844126D01*
X138535000Y-89518374D01*
X138535000Y-89106626D01*
X138377431Y-88726220D01*
X138086280Y-88435069D01*
X137705874Y-88277500D01*
X137294126Y-88277500D01*
X136913720Y-88435069D01*
X136622569Y-88726220D01*
X136465000Y-89106626D01*
X116186331Y-89106626D01*
X116077431Y-88843720D01*
X115786280Y-88552569D01*
X115550727Y-88455000D01*
X115786280Y-88357431D01*
X116077431Y-88066280D01*
X116190160Y-87794126D01*
X127062842Y-87794126D01*
X127062842Y-88205874D01*
X127220411Y-88586280D01*
X127511562Y-88877431D01*
X127891968Y-89035000D01*
X128303716Y-89035000D01*
X128684122Y-88877431D01*
X128975273Y-88586280D01*
X128997842Y-88531794D01*
X129020411Y-88586280D01*
X129311562Y-88877431D01*
X129691968Y-89035000D01*
X130103716Y-89035000D01*
X130484122Y-88877431D01*
X130775273Y-88586280D01*
X130797842Y-88531794D01*
X130820411Y-88586280D01*
X131111562Y-88877431D01*
X131491968Y-89035000D01*
X131903716Y-89035000D01*
X132284122Y-88877431D01*
X132552219Y-88609334D01*
X132835288Y-88892403D01*
X133215694Y-89049972D01*
X133627442Y-89049972D01*
X134007848Y-88892403D01*
X134298999Y-88601252D01*
X134456568Y-88220846D01*
X134456568Y-87809098D01*
X134298999Y-87428692D01*
X134114433Y-87244126D01*
X138265000Y-87244126D01*
X138265000Y-87655874D01*
X138422569Y-88036280D01*
X138713720Y-88327431D01*
X139094126Y-88485000D01*
X139505874Y-88485000D01*
X139886280Y-88327431D01*
X140177431Y-88036280D01*
X140335000Y-87655874D01*
X140335000Y-87244126D01*
X140177431Y-86863720D01*
X139907837Y-86594126D01*
X147165000Y-86594126D01*
X147165000Y-87005874D01*
X147322569Y-87386280D01*
X147613720Y-87677431D01*
X147994126Y-87835000D01*
X148405874Y-87835000D01*
X148786280Y-87677431D01*
X149077431Y-87386280D01*
X149235000Y-87005874D01*
X149235000Y-86594126D01*
X149077431Y-86213720D01*
X148786280Y-85922569D01*
X148405874Y-85765000D01*
X147994126Y-85765000D01*
X147613720Y-85922569D01*
X147322569Y-86213720D01*
X147165000Y-86594126D01*
X139907837Y-86594126D01*
X139886280Y-86572569D01*
X139505874Y-86415000D01*
X139094126Y-86415000D01*
X138713720Y-86572569D01*
X138422569Y-86863720D01*
X138265000Y-87244126D01*
X134114433Y-87244126D01*
X134007848Y-87137541D01*
X133627442Y-86979972D01*
X133215694Y-86979972D01*
X132835288Y-87137541D01*
X132567191Y-87405638D01*
X132284122Y-87122569D01*
X131903716Y-86965000D01*
X131491968Y-86965000D01*
X131111562Y-87122569D01*
X130820411Y-87413720D01*
X130797842Y-87468206D01*
X130775273Y-87413720D01*
X130484122Y-87122569D01*
X130103716Y-86965000D01*
X129691968Y-86965000D01*
X129311562Y-87122569D01*
X129020411Y-87413720D01*
X128997842Y-87468206D01*
X128975273Y-87413720D01*
X128684122Y-87122569D01*
X128303716Y-86965000D01*
X127891968Y-86965000D01*
X127511562Y-87122569D01*
X127220411Y-87413720D01*
X127062842Y-87794126D01*
X116190160Y-87794126D01*
X116235000Y-87685874D01*
X116235000Y-87274126D01*
X116077431Y-86893720D01*
X115786280Y-86602569D01*
X115405874Y-86445000D01*
X114994126Y-86445000D01*
X114613720Y-86602569D01*
X114322569Y-86893720D01*
X114165000Y-87274126D01*
X113719820Y-87274126D01*
X113716756Y-84574126D01*
X116165000Y-84574126D01*
X116165000Y-84985874D01*
X116322569Y-85366280D01*
X116613720Y-85657431D01*
X116994126Y-85815000D01*
X117405874Y-85815000D01*
X117786280Y-85657431D01*
X118077431Y-85366280D01*
X118235000Y-84985874D01*
X118235000Y-84574126D01*
X118077431Y-84193720D01*
X117786280Y-83902569D01*
X117405874Y-83745000D01*
X116994126Y-83745000D01*
X116613720Y-83902569D01*
X116322569Y-84193720D01*
X116165000Y-84574126D01*
X113716756Y-84574126D01*
X113713317Y-81544126D01*
X123677500Y-81544126D01*
X123677500Y-81955874D01*
X123835069Y-82336280D01*
X124126220Y-82627431D01*
X124506626Y-82785000D01*
X124918374Y-82785000D01*
X125298780Y-82627431D01*
X125589931Y-82336280D01*
X125617747Y-82269126D01*
X139340000Y-82269126D01*
X139340000Y-82680874D01*
X139497569Y-83061280D01*
X139788720Y-83352431D01*
X140169126Y-83510000D01*
X140580874Y-83510000D01*
X140961280Y-83352431D01*
X141252431Y-83061280D01*
X141410000Y-82680874D01*
X141410000Y-82269126D01*
X141252431Y-81888720D01*
X140961280Y-81597569D01*
X140580874Y-81440000D01*
X140169126Y-81440000D01*
X139788720Y-81597569D01*
X139497569Y-81888720D01*
X139340000Y-82269126D01*
X125617747Y-82269126D01*
X125747500Y-81955874D01*
X125747500Y-81544126D01*
X125589931Y-81163720D01*
X125298780Y-80872569D01*
X124918374Y-80715000D01*
X124506626Y-80715000D01*
X124126220Y-80872569D01*
X123835069Y-81163720D01*
X123677500Y-81544126D01*
X113713317Y-81544126D01*
X113712098Y-80469126D01*
X125515000Y-80469126D01*
X125515000Y-80880874D01*
X125672569Y-81261280D01*
X125963720Y-81552431D01*
X126344126Y-81710000D01*
X126755874Y-81710000D01*
X127136280Y-81552431D01*
X127427431Y-81261280D01*
X127585000Y-80880874D01*
X127585000Y-80469126D01*
X127427431Y-80088720D01*
X127136280Y-79797569D01*
X126755874Y-79640000D01*
X126344126Y-79640000D01*
X125963720Y-79797569D01*
X125672569Y-80088720D01*
X125515000Y-80469126D01*
X113712098Y-80469126D01*
X113710026Y-78644126D01*
X123890000Y-78644126D01*
X123890000Y-79055874D01*
X124047569Y-79436280D01*
X124338720Y-79727431D01*
X124719126Y-79885000D01*
X125130874Y-79885000D01*
X125511280Y-79727431D01*
X125802431Y-79436280D01*
X125960000Y-79055874D01*
X125960000Y-78644126D01*
X125802431Y-78263720D01*
X125511280Y-77972569D01*
X125201191Y-77844126D01*
X125940000Y-77844126D01*
X125940000Y-78255874D01*
X126097569Y-78636280D01*
X126388720Y-78927431D01*
X126769126Y-79085000D01*
X127180874Y-79085000D01*
X127561280Y-78927431D01*
X127852431Y-78636280D01*
X128010000Y-78255874D01*
X128010000Y-77844126D01*
X127852431Y-77463720D01*
X127682837Y-77294126D01*
X129815000Y-77294126D01*
X129815000Y-77705874D01*
X129972569Y-78086280D01*
X130263720Y-78377431D01*
X130499273Y-78475000D01*
X130263720Y-78572569D01*
X129972569Y-78863720D01*
X129815000Y-79244126D01*
X129815000Y-79655874D01*
X129972569Y-80036280D01*
X130263720Y-80327431D01*
X130644126Y-80485000D01*
X131055874Y-80485000D01*
X131436280Y-80327431D01*
X131727431Y-80036280D01*
X131885000Y-79655874D01*
X131885000Y-79244126D01*
X131727431Y-78863720D01*
X131436280Y-78572569D01*
X131200727Y-78475000D01*
X131436280Y-78377431D01*
X131727431Y-78086280D01*
X131885000Y-77705874D01*
X131885000Y-77294126D01*
X131727431Y-76913720D01*
X131436280Y-76622569D01*
X131055874Y-76465000D01*
X130644126Y-76465000D01*
X130263720Y-76622569D01*
X129972569Y-76913720D01*
X129815000Y-77294126D01*
X127682837Y-77294126D01*
X127561280Y-77172569D01*
X127180874Y-77015000D01*
X126769126Y-77015000D01*
X126388720Y-77172569D01*
X126097569Y-77463720D01*
X125940000Y-77844126D01*
X125201191Y-77844126D01*
X125130874Y-77815000D01*
X124719126Y-77815000D01*
X124338720Y-77972569D01*
X124047569Y-78263720D01*
X123890000Y-78644126D01*
X113710026Y-78644126D01*
X113706678Y-75694126D01*
X124031330Y-75694126D01*
X124031330Y-76105874D01*
X124188899Y-76486280D01*
X124480050Y-76777431D01*
X124860456Y-76935000D01*
X125272204Y-76935000D01*
X125652610Y-76777431D01*
X125943761Y-76486280D01*
X126101330Y-76105874D01*
X126101330Y-75694126D01*
X125956356Y-75344126D01*
X126990000Y-75344126D01*
X126990000Y-75755874D01*
X127147569Y-76136280D01*
X127438720Y-76427431D01*
X127819126Y-76585000D01*
X128230874Y-76585000D01*
X128611280Y-76427431D01*
X128902431Y-76136280D01*
X128961312Y-75994126D01*
X133115000Y-75994126D01*
X133115000Y-76405874D01*
X133272569Y-76786280D01*
X133563720Y-77077431D01*
X133799273Y-77175000D01*
X133563720Y-77272569D01*
X133272569Y-77563720D01*
X133115000Y-77944126D01*
X133115000Y-78355874D01*
X133272569Y-78736280D01*
X133563720Y-79027431D01*
X133944126Y-79185000D01*
X134355874Y-79185000D01*
X134736280Y-79027431D01*
X135027431Y-78736280D01*
X135086312Y-78594126D01*
X135940000Y-78594126D01*
X135940000Y-79005874D01*
X136097569Y-79386280D01*
X136388720Y-79677431D01*
X136769126Y-79835000D01*
X137180874Y-79835000D01*
X137561280Y-79677431D01*
X137694585Y-79544126D01*
X154322500Y-79544126D01*
X154322500Y-79955874D01*
X154480069Y-80336280D01*
X154771220Y-80627431D01*
X155151626Y-80785000D01*
X155563374Y-80785000D01*
X155943780Y-80627431D01*
X156234931Y-80336280D01*
X156392500Y-79955874D01*
X156392500Y-79544126D01*
X156234931Y-79163720D01*
X155943780Y-78872569D01*
X155563374Y-78715000D01*
X155151626Y-78715000D01*
X154771220Y-78872569D01*
X154480069Y-79163720D01*
X154322500Y-79544126D01*
X137694585Y-79544126D01*
X137852431Y-79386280D01*
X138010000Y-79005874D01*
X138010000Y-78594126D01*
X137852431Y-78213720D01*
X137612837Y-77974126D01*
X167322500Y-77974126D01*
X167322500Y-78385874D01*
X167480069Y-78766280D01*
X167678789Y-78965000D01*
X167480069Y-79163720D01*
X167322500Y-79544126D01*
X167322500Y-79955874D01*
X167480069Y-80336280D01*
X167771220Y-80627431D01*
X168151626Y-80785000D01*
X168563374Y-80785000D01*
X168943780Y-80627431D01*
X169234931Y-80336280D01*
X169392500Y-79955874D01*
X169392500Y-79544126D01*
X178822500Y-79544126D01*
X178822500Y-79955874D01*
X178980069Y-80336280D01*
X179271220Y-80627431D01*
X179651626Y-80785000D01*
X180063374Y-80785000D01*
X180443780Y-80627431D01*
X180734931Y-80336280D01*
X180892500Y-79955874D01*
X180892500Y-79544126D01*
X180734931Y-79163720D01*
X180443780Y-78872569D01*
X180063374Y-78715000D01*
X179651626Y-78715000D01*
X179271220Y-78872569D01*
X178980069Y-79163720D01*
X178822500Y-79544126D01*
X169392500Y-79544126D01*
X169234931Y-79163720D01*
X169036211Y-78965000D01*
X169234931Y-78766280D01*
X169392500Y-78385874D01*
X169392500Y-78103691D01*
X201345000Y-78103691D01*
X201345000Y-78794250D01*
X201503750Y-78953000D01*
X202703000Y-78953000D01*
X202703000Y-77753750D01*
X202957000Y-77753750D01*
X202957000Y-78953000D01*
X202977000Y-78953000D01*
X202977000Y-79207000D01*
X202957000Y-79207000D01*
X202957000Y-80406250D01*
X203115750Y-80565000D01*
X203806310Y-80565000D01*
X204039699Y-80468327D01*
X204218327Y-80289698D01*
X204284904Y-80128967D01*
X204299375Y-80150625D01*
X204790582Y-80478839D01*
X205223744Y-80565000D01*
X205516256Y-80565000D01*
X205949418Y-80478839D01*
X206440625Y-80150625D01*
X206768839Y-79659418D01*
X206884092Y-79080000D01*
X206768839Y-78500582D01*
X206440625Y-78009375D01*
X205949418Y-77681161D01*
X205516256Y-77595000D01*
X205223744Y-77595000D01*
X204790582Y-77681161D01*
X204299375Y-78009375D01*
X204284904Y-78031033D01*
X204218327Y-77870302D01*
X204039699Y-77691673D01*
X203806310Y-77595000D01*
X203115750Y-77595000D01*
X202957000Y-77753750D01*
X202703000Y-77753750D01*
X202544250Y-77595000D01*
X201853690Y-77595000D01*
X201620301Y-77691673D01*
X201441673Y-77870302D01*
X201345000Y-78103691D01*
X169392500Y-78103691D01*
X169392500Y-77974126D01*
X169234931Y-77593720D01*
X168943780Y-77302569D01*
X168563374Y-77145000D01*
X168151626Y-77145000D01*
X167771220Y-77302569D01*
X167480069Y-77593720D01*
X167322500Y-77974126D01*
X137612837Y-77974126D01*
X137561280Y-77922569D01*
X137180874Y-77765000D01*
X136769126Y-77765000D01*
X136388720Y-77922569D01*
X136097569Y-78213720D01*
X135940000Y-78594126D01*
X135086312Y-78594126D01*
X135185000Y-78355874D01*
X135185000Y-77944126D01*
X135027431Y-77563720D01*
X134736280Y-77272569D01*
X134500727Y-77175000D01*
X134736280Y-77077431D01*
X135027431Y-76786280D01*
X135185000Y-76405874D01*
X135185000Y-75994126D01*
X135027431Y-75613720D01*
X134736280Y-75322569D01*
X134355874Y-75165000D01*
X133944126Y-75165000D01*
X133563720Y-75322569D01*
X133272569Y-75613720D01*
X133115000Y-75994126D01*
X128961312Y-75994126D01*
X129060000Y-75755874D01*
X129060000Y-75344126D01*
X128902431Y-74963720D01*
X128611280Y-74672569D01*
X128230874Y-74515000D01*
X127819126Y-74515000D01*
X127438720Y-74672569D01*
X127147569Y-74963720D01*
X126990000Y-75344126D01*
X125956356Y-75344126D01*
X125943761Y-75313720D01*
X125652610Y-75022569D01*
X125272204Y-74865000D01*
X124860456Y-74865000D01*
X124480050Y-75022569D01*
X124188899Y-75313720D01*
X124031330Y-75694126D01*
X113706678Y-75694126D01*
X113704294Y-73594126D01*
X183665000Y-73594126D01*
X183665000Y-74005874D01*
X183822569Y-74386280D01*
X184113720Y-74677431D01*
X184494126Y-74835000D01*
X184905874Y-74835000D01*
X185286280Y-74677431D01*
X185577431Y-74386280D01*
X185650448Y-74210000D01*
X185949552Y-74210000D01*
X186022569Y-74386280D01*
X186313720Y-74677431D01*
X186694126Y-74835000D01*
X187105874Y-74835000D01*
X187486280Y-74677431D01*
X187777431Y-74386280D01*
X187935000Y-74005874D01*
X187935000Y-73594126D01*
X187777431Y-73213720D01*
X187486280Y-72922569D01*
X187105874Y-72765000D01*
X186750448Y-72765000D01*
X186677431Y-72588720D01*
X186386280Y-72297569D01*
X186005874Y-72140000D01*
X185594126Y-72140000D01*
X185213720Y-72297569D01*
X184922569Y-72588720D01*
X184849552Y-72765000D01*
X184494126Y-72765000D01*
X184113720Y-72922569D01*
X183822569Y-73213720D01*
X183665000Y-73594126D01*
X113704294Y-73594126D01*
X113702477Y-71994126D01*
X116165000Y-71994126D01*
X116165000Y-72405874D01*
X116322569Y-72786280D01*
X116613720Y-73077431D01*
X116994126Y-73235000D01*
X117405874Y-73235000D01*
X117786280Y-73077431D01*
X118077431Y-72786280D01*
X118235000Y-72405874D01*
X118235000Y-71994126D01*
X118077431Y-71613720D01*
X117786280Y-71322569D01*
X117405874Y-71165000D01*
X116994126Y-71165000D01*
X116613720Y-71322569D01*
X116322569Y-71613720D01*
X116165000Y-71994126D01*
X113702477Y-71994126D01*
X113700151Y-69944126D01*
X134365000Y-69944126D01*
X134365000Y-70355874D01*
X134522569Y-70736280D01*
X134813720Y-71027431D01*
X135194126Y-71185000D01*
X135605874Y-71185000D01*
X135986280Y-71027431D01*
X136277431Y-70736280D01*
X136435000Y-70355874D01*
X136435000Y-69944126D01*
X136372869Y-69794126D01*
X146615000Y-69794126D01*
X146615000Y-70205874D01*
X146772569Y-70586280D01*
X147063720Y-70877431D01*
X147444126Y-71035000D01*
X147855874Y-71035000D01*
X148236280Y-70877431D01*
X148319585Y-70794126D01*
X148865000Y-70794126D01*
X148865000Y-71205874D01*
X149022569Y-71586280D01*
X149313720Y-71877431D01*
X149694126Y-72035000D01*
X150105874Y-72035000D01*
X150486280Y-71877431D01*
X150777431Y-71586280D01*
X150935000Y-71205874D01*
X150935000Y-70794126D01*
X161965000Y-70794126D01*
X161965000Y-71205874D01*
X162122569Y-71586280D01*
X162413720Y-71877431D01*
X162794126Y-72035000D01*
X163205874Y-72035000D01*
X163586280Y-71877431D01*
X163877431Y-71586280D01*
X164035000Y-71205874D01*
X164035000Y-70794126D01*
X173465000Y-70794126D01*
X173465000Y-71205874D01*
X173622569Y-71586280D01*
X173913720Y-71877431D01*
X174294126Y-72035000D01*
X174705874Y-72035000D01*
X175086280Y-71877431D01*
X175377431Y-71586280D01*
X175535000Y-71205874D01*
X175535000Y-70794126D01*
X182565000Y-70794126D01*
X182565000Y-71205874D01*
X182722569Y-71586280D01*
X183013720Y-71877431D01*
X183394126Y-72035000D01*
X183805874Y-72035000D01*
X184186280Y-71877431D01*
X184477431Y-71586280D01*
X184635000Y-71205874D01*
X184635000Y-70794126D01*
X188465000Y-70794126D01*
X188465000Y-71205874D01*
X188622569Y-71586280D01*
X188913720Y-71877431D01*
X189294126Y-72035000D01*
X189705874Y-72035000D01*
X190086280Y-71877431D01*
X190377431Y-71586280D01*
X190535000Y-71205874D01*
X190535000Y-70794126D01*
X190377431Y-70413720D01*
X190086280Y-70122569D01*
X189705874Y-69965000D01*
X189294126Y-69965000D01*
X188913720Y-70122569D01*
X188622569Y-70413720D01*
X188465000Y-70794126D01*
X184635000Y-70794126D01*
X184477431Y-70413720D01*
X184186280Y-70122569D01*
X183805874Y-69965000D01*
X183394126Y-69965000D01*
X183013720Y-70122569D01*
X182722569Y-70413720D01*
X182565000Y-70794126D01*
X175535000Y-70794126D01*
X175377431Y-70413720D01*
X175086280Y-70122569D01*
X174705874Y-69965000D01*
X174294126Y-69965000D01*
X173913720Y-70122569D01*
X173622569Y-70413720D01*
X173465000Y-70794126D01*
X164035000Y-70794126D01*
X163877431Y-70413720D01*
X163586280Y-70122569D01*
X163205874Y-69965000D01*
X162794126Y-69965000D01*
X162413720Y-70122569D01*
X162122569Y-70413720D01*
X161965000Y-70794126D01*
X150935000Y-70794126D01*
X150777431Y-70413720D01*
X150486280Y-70122569D01*
X150105874Y-69965000D01*
X149694126Y-69965000D01*
X149313720Y-70122569D01*
X149022569Y-70413720D01*
X148865000Y-70794126D01*
X148319585Y-70794126D01*
X148527431Y-70586280D01*
X148685000Y-70205874D01*
X148685000Y-69794126D01*
X148527431Y-69413720D01*
X148236280Y-69122569D01*
X147855874Y-68965000D01*
X147444126Y-68965000D01*
X147063720Y-69122569D01*
X146772569Y-69413720D01*
X146615000Y-69794126D01*
X136372869Y-69794126D01*
X136277431Y-69563720D01*
X135986280Y-69272569D01*
X135605874Y-69115000D01*
X135194126Y-69115000D01*
X134813720Y-69272569D01*
X134522569Y-69563720D01*
X134365000Y-69944126D01*
X113700151Y-69944126D01*
X113695214Y-65594126D01*
X141265000Y-65594126D01*
X141265000Y-66005874D01*
X141422569Y-66386280D01*
X141713720Y-66677431D01*
X142094126Y-66835000D01*
X142505874Y-66835000D01*
X142886280Y-66677431D01*
X143177431Y-66386280D01*
X143335000Y-66005874D01*
X143335000Y-65794126D01*
X144352500Y-65794126D01*
X144352500Y-66205874D01*
X144510069Y-66586280D01*
X144801220Y-66877431D01*
X145181626Y-67035000D01*
X145593374Y-67035000D01*
X145973780Y-66877431D01*
X146264931Y-66586280D01*
X146422500Y-66205874D01*
X146422500Y-65794126D01*
X146264931Y-65413720D01*
X145973780Y-65122569D01*
X145593374Y-64965000D01*
X145181626Y-64965000D01*
X144801220Y-65122569D01*
X144510069Y-65413720D01*
X144352500Y-65794126D01*
X143335000Y-65794126D01*
X143335000Y-65594126D01*
X143177431Y-65213720D01*
X142886280Y-64922569D01*
X142505874Y-64765000D01*
X142094126Y-64765000D01*
X141713720Y-64922569D01*
X141422569Y-65213720D01*
X141265000Y-65594126D01*
X113695214Y-65594126D01*
X113680225Y-52390000D01*
X120245908Y-52390000D01*
X120361161Y-52969418D01*
X120689375Y-53460625D01*
X120987761Y-53660000D01*
X120689375Y-53859375D01*
X120361161Y-54350582D01*
X120245908Y-54930000D01*
X120361161Y-55509418D01*
X120689375Y-56000625D01*
X120987761Y-56200000D01*
X120689375Y-56399375D01*
X120361161Y-56890582D01*
X120245908Y-57470000D01*
X120361161Y-58049418D01*
X120689375Y-58540625D01*
X120987761Y-58740000D01*
X120689375Y-58939375D01*
X120361161Y-59430582D01*
X120245908Y-60010000D01*
X120361161Y-60589418D01*
X120689375Y-61080625D01*
X120987761Y-61280000D01*
X120689375Y-61479375D01*
X120361161Y-61970582D01*
X120245908Y-62550000D01*
X120361161Y-63129418D01*
X120689375Y-63620625D01*
X121180582Y-63948839D01*
X121613744Y-64035000D01*
X121906256Y-64035000D01*
X122339418Y-63948839D01*
X122830625Y-63620625D01*
X123030000Y-63322239D01*
X123229375Y-63620625D01*
X123720582Y-63948839D01*
X124153744Y-64035000D01*
X124446256Y-64035000D01*
X124879418Y-63948839D01*
X125370625Y-63620625D01*
X125698839Y-63129418D01*
X125814092Y-62550000D01*
X125698839Y-61970582D01*
X125370625Y-61479375D01*
X125072239Y-61280000D01*
X125370625Y-61080625D01*
X125698839Y-60589418D01*
X125814092Y-60010000D01*
X125698839Y-59430582D01*
X125551451Y-59210000D01*
X128485908Y-59210000D01*
X128601161Y-59789418D01*
X128929375Y-60280625D01*
X128947619Y-60292816D01*
X128902235Y-60301843D01*
X128692191Y-60442191D01*
X128551843Y-60652235D01*
X128502560Y-60900000D01*
X128502560Y-62600000D01*
X128551843Y-62847765D01*
X128692191Y-63057809D01*
X128902235Y-63198157D01*
X129150000Y-63247440D01*
X130850000Y-63247440D01*
X131097765Y-63198157D01*
X131307809Y-63057809D01*
X131448157Y-62847765D01*
X131457184Y-62802381D01*
X131469375Y-62820625D01*
X131960582Y-63148839D01*
X132393744Y-63235000D01*
X132686256Y-63235000D01*
X133119418Y-63148839D01*
X133610625Y-62820625D01*
X133810000Y-62522239D01*
X134009375Y-62820625D01*
X134500582Y-63148839D01*
X134933744Y-63235000D01*
X135226256Y-63235000D01*
X135659418Y-63148839D01*
X136150625Y-62820625D01*
X136350000Y-62522239D01*
X136549375Y-62820625D01*
X137040582Y-63148839D01*
X137473744Y-63235000D01*
X137766256Y-63235000D01*
X138199418Y-63148839D01*
X138690625Y-62820625D01*
X138890000Y-62522239D01*
X139089375Y-62820625D01*
X139580582Y-63148839D01*
X140013744Y-63235000D01*
X140306256Y-63235000D01*
X140739418Y-63148839D01*
X141230625Y-62820625D01*
X141430000Y-62522239D01*
X141629375Y-62820625D01*
X142120582Y-63148839D01*
X142553744Y-63235000D01*
X142846256Y-63235000D01*
X143279418Y-63148839D01*
X143770625Y-62820625D01*
X143970000Y-62522239D01*
X144169375Y-62820625D01*
X144660582Y-63148839D01*
X145093744Y-63235000D01*
X145386256Y-63235000D01*
X145819418Y-63148839D01*
X146310625Y-62820625D01*
X146510000Y-62522239D01*
X146709375Y-62820625D01*
X147200582Y-63148839D01*
X147633744Y-63235000D01*
X147926256Y-63235000D01*
X148359418Y-63148839D01*
X148850625Y-62820625D01*
X149050000Y-62522239D01*
X149249375Y-62820625D01*
X149740582Y-63148839D01*
X150173744Y-63235000D01*
X150466256Y-63235000D01*
X150899418Y-63148839D01*
X151390625Y-62820625D01*
X151590000Y-62522239D01*
X151789375Y-62820625D01*
X152280582Y-63148839D01*
X152713744Y-63235000D01*
X153006256Y-63235000D01*
X153439418Y-63148839D01*
X153930625Y-62820625D01*
X154130000Y-62522239D01*
X154329375Y-62820625D01*
X154820582Y-63148839D01*
X155253744Y-63235000D01*
X155546256Y-63235000D01*
X155979418Y-63148839D01*
X156470625Y-62820625D01*
X156670000Y-62522239D01*
X156869375Y-62820625D01*
X157360582Y-63148839D01*
X157793744Y-63235000D01*
X158086256Y-63235000D01*
X158519418Y-63148839D01*
X159010625Y-62820625D01*
X159210000Y-62522239D01*
X159409375Y-62820625D01*
X159900582Y-63148839D01*
X160333744Y-63235000D01*
X160626256Y-63235000D01*
X161059418Y-63148839D01*
X161550625Y-62820625D01*
X161750000Y-62522239D01*
X161949375Y-62820625D01*
X162440582Y-63148839D01*
X162873744Y-63235000D01*
X163166256Y-63235000D01*
X163599418Y-63148839D01*
X164090625Y-62820625D01*
X164303843Y-62501522D01*
X164364817Y-62631358D01*
X164793076Y-63021645D01*
X165203110Y-63191476D01*
X165433000Y-63070155D01*
X165433000Y-61877000D01*
X165413000Y-61877000D01*
X165413000Y-61623000D01*
X165433000Y-61623000D01*
X165433000Y-59337000D01*
X165413000Y-59337000D01*
X165413000Y-59083000D01*
X165433000Y-59083000D01*
X165433000Y-57889845D01*
X165687000Y-57889845D01*
X165687000Y-59083000D01*
X165707000Y-59083000D01*
X165707000Y-59337000D01*
X165687000Y-59337000D01*
X165687000Y-61623000D01*
X165707000Y-61623000D01*
X165707000Y-61877000D01*
X165687000Y-61877000D01*
X165687000Y-63070155D01*
X165916890Y-63191476D01*
X166326924Y-63021645D01*
X166755183Y-62631358D01*
X166816157Y-62501522D01*
X167029375Y-62820625D01*
X167520582Y-63148839D01*
X167953744Y-63235000D01*
X168246256Y-63235000D01*
X168679418Y-63148839D01*
X169170625Y-62820625D01*
X169383843Y-62501522D01*
X169444817Y-62631358D01*
X169873076Y-63021645D01*
X170283110Y-63191476D01*
X170513000Y-63070155D01*
X170513000Y-61877000D01*
X170493000Y-61877000D01*
X170493000Y-61623000D01*
X170513000Y-61623000D01*
X170513000Y-59337000D01*
X170493000Y-59337000D01*
X170493000Y-59083000D01*
X170513000Y-59083000D01*
X170513000Y-57889845D01*
X170767000Y-57889845D01*
X170767000Y-59083000D01*
X170787000Y-59083000D01*
X170787000Y-59337000D01*
X170767000Y-59337000D01*
X170767000Y-61623000D01*
X170787000Y-61623000D01*
X170787000Y-61877000D01*
X170767000Y-61877000D01*
X170767000Y-63070155D01*
X170996890Y-63191476D01*
X171406924Y-63021645D01*
X171835183Y-62631358D01*
X171896157Y-62501522D01*
X172109375Y-62820625D01*
X172600582Y-63148839D01*
X173033744Y-63235000D01*
X173326256Y-63235000D01*
X173759418Y-63148839D01*
X174250625Y-62820625D01*
X174450000Y-62522239D01*
X174649375Y-62820625D01*
X175140582Y-63148839D01*
X175573744Y-63235000D01*
X175866256Y-63235000D01*
X176299418Y-63148839D01*
X176790625Y-62820625D01*
X176990000Y-62522239D01*
X177189375Y-62820625D01*
X177680582Y-63148839D01*
X178113744Y-63235000D01*
X178406256Y-63235000D01*
X178839418Y-63148839D01*
X179330625Y-62820625D01*
X179530000Y-62522239D01*
X179729375Y-62820625D01*
X180220582Y-63148839D01*
X180653744Y-63235000D01*
X180946256Y-63235000D01*
X181379418Y-63148839D01*
X181870625Y-62820625D01*
X182070000Y-62522239D01*
X182269375Y-62820625D01*
X182760582Y-63148839D01*
X183193744Y-63235000D01*
X183486256Y-63235000D01*
X183919418Y-63148839D01*
X184410625Y-62820625D01*
X184610000Y-62522239D01*
X184809375Y-62820625D01*
X185300582Y-63148839D01*
X185733744Y-63235000D01*
X186026256Y-63235000D01*
X186459418Y-63148839D01*
X186950625Y-62820625D01*
X187150000Y-62522239D01*
X187349375Y-62820625D01*
X187840582Y-63148839D01*
X188273744Y-63235000D01*
X188566256Y-63235000D01*
X188999418Y-63148839D01*
X189490625Y-62820625D01*
X189690000Y-62522239D01*
X189889375Y-62820625D01*
X190380582Y-63148839D01*
X190813744Y-63235000D01*
X191106256Y-63235000D01*
X191539418Y-63148839D01*
X192030625Y-62820625D01*
X192230000Y-62522239D01*
X192429375Y-62820625D01*
X192920582Y-63148839D01*
X193353744Y-63235000D01*
X193646256Y-63235000D01*
X194079418Y-63148839D01*
X194570625Y-62820625D01*
X194770000Y-62522239D01*
X194969375Y-62820625D01*
X195460582Y-63148839D01*
X195893744Y-63235000D01*
X196186256Y-63235000D01*
X196619418Y-63148839D01*
X197110625Y-62820625D01*
X197310000Y-62522239D01*
X197509375Y-62820625D01*
X198000582Y-63148839D01*
X198433744Y-63235000D01*
X198726256Y-63235000D01*
X199159418Y-63148839D01*
X199650625Y-62820625D01*
X199850000Y-62522239D01*
X200049375Y-62820625D01*
X200540582Y-63148839D01*
X200973744Y-63235000D01*
X201266256Y-63235000D01*
X201699418Y-63148839D01*
X202190625Y-62820625D01*
X202390000Y-62522239D01*
X202589375Y-62820625D01*
X203080582Y-63148839D01*
X203513744Y-63235000D01*
X203806256Y-63235000D01*
X204239418Y-63148839D01*
X204730625Y-62820625D01*
X204930000Y-62522239D01*
X205129375Y-62820625D01*
X205620582Y-63148839D01*
X206053744Y-63235000D01*
X206346256Y-63235000D01*
X206779418Y-63148839D01*
X207270625Y-62820625D01*
X207470000Y-62522239D01*
X207669375Y-62820625D01*
X208160582Y-63148839D01*
X208593744Y-63235000D01*
X208886256Y-63235000D01*
X209319418Y-63148839D01*
X209810625Y-62820625D01*
X210138839Y-62329418D01*
X210254092Y-61750000D01*
X210237508Y-61666626D01*
X245195000Y-61666626D01*
X245195000Y-62078374D01*
X245352569Y-62458780D01*
X245643720Y-62749931D01*
X246024126Y-62907500D01*
X246435874Y-62907500D01*
X246816280Y-62749931D01*
X247107431Y-62458780D01*
X247265000Y-62078374D01*
X247265000Y-61666626D01*
X247107431Y-61286220D01*
X246816280Y-60995069D01*
X246435874Y-60837500D01*
X246024126Y-60837500D01*
X245643720Y-60995069D01*
X245352569Y-61286220D01*
X245195000Y-61666626D01*
X210237508Y-61666626D01*
X210138839Y-61170582D01*
X209810625Y-60679375D01*
X209512239Y-60480000D01*
X209810625Y-60280625D01*
X210138839Y-59789418D01*
X210254092Y-59210000D01*
X210191261Y-58894126D01*
X245027500Y-58894126D01*
X245027500Y-59305874D01*
X245185069Y-59686280D01*
X245476220Y-59977431D01*
X245856626Y-60135000D01*
X246268374Y-60135000D01*
X246648780Y-59977431D01*
X246939931Y-59686280D01*
X247097500Y-59305874D01*
X247097500Y-58894126D01*
X246939931Y-58513720D01*
X246845337Y-58419126D01*
X254465000Y-58419126D01*
X254465000Y-58830874D01*
X254622569Y-59211280D01*
X254913720Y-59502431D01*
X255294126Y-59660000D01*
X255705874Y-59660000D01*
X256086280Y-59502431D01*
X256377431Y-59211280D01*
X256535000Y-58830874D01*
X256535000Y-58419126D01*
X256377431Y-58038720D01*
X256086280Y-57747569D01*
X255705874Y-57590000D01*
X255294126Y-57590000D01*
X254913720Y-57747569D01*
X254622569Y-58038720D01*
X254465000Y-58419126D01*
X246845337Y-58419126D01*
X246648780Y-58222569D01*
X246268374Y-58065000D01*
X245856626Y-58065000D01*
X245476220Y-58222569D01*
X245185069Y-58513720D01*
X245027500Y-58894126D01*
X210191261Y-58894126D01*
X210138839Y-58630582D01*
X209810625Y-58139375D01*
X209319418Y-57811161D01*
X208886256Y-57725000D01*
X208593744Y-57725000D01*
X208160582Y-57811161D01*
X207669375Y-58139375D01*
X207470000Y-58437761D01*
X207270625Y-58139375D01*
X206779418Y-57811161D01*
X206346256Y-57725000D01*
X206053744Y-57725000D01*
X205620582Y-57811161D01*
X205129375Y-58139375D01*
X204930000Y-58437761D01*
X204730625Y-58139375D01*
X204239418Y-57811161D01*
X203806256Y-57725000D01*
X203513744Y-57725000D01*
X203080582Y-57811161D01*
X202589375Y-58139375D01*
X202390000Y-58437761D01*
X202190625Y-58139375D01*
X201699418Y-57811161D01*
X201266256Y-57725000D01*
X200973744Y-57725000D01*
X200540582Y-57811161D01*
X200049375Y-58139375D01*
X199850000Y-58437761D01*
X199650625Y-58139375D01*
X199159418Y-57811161D01*
X198726256Y-57725000D01*
X198433744Y-57725000D01*
X198000582Y-57811161D01*
X197509375Y-58139375D01*
X197310000Y-58437761D01*
X197110625Y-58139375D01*
X196619418Y-57811161D01*
X196186256Y-57725000D01*
X195893744Y-57725000D01*
X195460582Y-57811161D01*
X194969375Y-58139375D01*
X194770000Y-58437761D01*
X194570625Y-58139375D01*
X194079418Y-57811161D01*
X193646256Y-57725000D01*
X193353744Y-57725000D01*
X192920582Y-57811161D01*
X192429375Y-58139375D01*
X192230000Y-58437761D01*
X192030625Y-58139375D01*
X191539418Y-57811161D01*
X191106256Y-57725000D01*
X190813744Y-57725000D01*
X190380582Y-57811161D01*
X189889375Y-58139375D01*
X189690000Y-58437761D01*
X189490625Y-58139375D01*
X188999418Y-57811161D01*
X188566256Y-57725000D01*
X188273744Y-57725000D01*
X187840582Y-57811161D01*
X187349375Y-58139375D01*
X187150000Y-58437761D01*
X186950625Y-58139375D01*
X186459418Y-57811161D01*
X186026256Y-57725000D01*
X185733744Y-57725000D01*
X185300582Y-57811161D01*
X184809375Y-58139375D01*
X184610000Y-58437761D01*
X184410625Y-58139375D01*
X183919418Y-57811161D01*
X183486256Y-57725000D01*
X183193744Y-57725000D01*
X182760582Y-57811161D01*
X182269375Y-58139375D01*
X182070000Y-58437761D01*
X181870625Y-58139375D01*
X181379418Y-57811161D01*
X180946256Y-57725000D01*
X180653744Y-57725000D01*
X180220582Y-57811161D01*
X179729375Y-58139375D01*
X179530000Y-58437761D01*
X179330625Y-58139375D01*
X178839418Y-57811161D01*
X178406256Y-57725000D01*
X178113744Y-57725000D01*
X177680582Y-57811161D01*
X177189375Y-58139375D01*
X176990000Y-58437761D01*
X176790625Y-58139375D01*
X176299418Y-57811161D01*
X175866256Y-57725000D01*
X175573744Y-57725000D01*
X175140582Y-57811161D01*
X174649375Y-58139375D01*
X174450000Y-58437761D01*
X174250625Y-58139375D01*
X173759418Y-57811161D01*
X173326256Y-57725000D01*
X173033744Y-57725000D01*
X172600582Y-57811161D01*
X172109375Y-58139375D01*
X171896157Y-58458478D01*
X171835183Y-58328642D01*
X171406924Y-57938355D01*
X170996890Y-57768524D01*
X170767000Y-57889845D01*
X170513000Y-57889845D01*
X170283110Y-57768524D01*
X169873076Y-57938355D01*
X169444817Y-58328642D01*
X169383843Y-58458478D01*
X169170625Y-58139375D01*
X168679418Y-57811161D01*
X168246256Y-57725000D01*
X167953744Y-57725000D01*
X167520582Y-57811161D01*
X167029375Y-58139375D01*
X166816157Y-58458478D01*
X166755183Y-58328642D01*
X166326924Y-57938355D01*
X165916890Y-57768524D01*
X165687000Y-57889845D01*
X165433000Y-57889845D01*
X165203110Y-57768524D01*
X164793076Y-57938355D01*
X164364817Y-58328642D01*
X164303843Y-58458478D01*
X164090625Y-58139375D01*
X163599418Y-57811161D01*
X163166256Y-57725000D01*
X162873744Y-57725000D01*
X162440582Y-57811161D01*
X161949375Y-58139375D01*
X161750000Y-58437761D01*
X161550625Y-58139375D01*
X161059418Y-57811161D01*
X160626256Y-57725000D01*
X160333744Y-57725000D01*
X159900582Y-57811161D01*
X159409375Y-58139375D01*
X159210000Y-58437761D01*
X159010625Y-58139375D01*
X158519418Y-57811161D01*
X158086256Y-57725000D01*
X157793744Y-57725000D01*
X157360582Y-57811161D01*
X156869375Y-58139375D01*
X156670000Y-58437761D01*
X156470625Y-58139375D01*
X155979418Y-57811161D01*
X155546256Y-57725000D01*
X155253744Y-57725000D01*
X154820582Y-57811161D01*
X154329375Y-58139375D01*
X154130000Y-58437761D01*
X153930625Y-58139375D01*
X153439418Y-57811161D01*
X153006256Y-57725000D01*
X152713744Y-57725000D01*
X152280582Y-57811161D01*
X151789375Y-58139375D01*
X151590000Y-58437761D01*
X151390625Y-58139375D01*
X150899418Y-57811161D01*
X150466256Y-57725000D01*
X150173744Y-57725000D01*
X149740582Y-57811161D01*
X149249375Y-58139375D01*
X149050000Y-58437761D01*
X148850625Y-58139375D01*
X148359418Y-57811161D01*
X147926256Y-57725000D01*
X147633744Y-57725000D01*
X147200582Y-57811161D01*
X146709375Y-58139375D01*
X146510000Y-58437761D01*
X146310625Y-58139375D01*
X145819418Y-57811161D01*
X145386256Y-57725000D01*
X145093744Y-57725000D01*
X144660582Y-57811161D01*
X144169375Y-58139375D01*
X143970000Y-58437761D01*
X143770625Y-58139375D01*
X143279418Y-57811161D01*
X142846256Y-57725000D01*
X142553744Y-57725000D01*
X142120582Y-57811161D01*
X141629375Y-58139375D01*
X141430000Y-58437761D01*
X141230625Y-58139375D01*
X140739418Y-57811161D01*
X140306256Y-57725000D01*
X140013744Y-57725000D01*
X139580582Y-57811161D01*
X139089375Y-58139375D01*
X138890000Y-58437761D01*
X138690625Y-58139375D01*
X138199418Y-57811161D01*
X137766256Y-57725000D01*
X137473744Y-57725000D01*
X137040582Y-57811161D01*
X136549375Y-58139375D01*
X136350000Y-58437761D01*
X136150625Y-58139375D01*
X135659418Y-57811161D01*
X135226256Y-57725000D01*
X134933744Y-57725000D01*
X134500582Y-57811161D01*
X134009375Y-58139375D01*
X133810000Y-58437761D01*
X133610625Y-58139375D01*
X133119418Y-57811161D01*
X132686256Y-57725000D01*
X132393744Y-57725000D01*
X131960582Y-57811161D01*
X131469375Y-58139375D01*
X131270000Y-58437761D01*
X131070625Y-58139375D01*
X130579418Y-57811161D01*
X130146256Y-57725000D01*
X129853744Y-57725000D01*
X129420582Y-57811161D01*
X128929375Y-58139375D01*
X128601161Y-58630582D01*
X128485908Y-59210000D01*
X125551451Y-59210000D01*
X125370625Y-58939375D01*
X125072239Y-58740000D01*
X125370625Y-58540625D01*
X125698839Y-58049418D01*
X125814092Y-57470000D01*
X125698839Y-56890582D01*
X125370625Y-56399375D01*
X125072239Y-56200000D01*
X125370625Y-56000625D01*
X125698839Y-55509418D01*
X125814092Y-54930000D01*
X125698839Y-54350582D01*
X125370625Y-53859375D01*
X125072239Y-53660000D01*
X125370625Y-53460625D01*
X125698839Y-52969418D01*
X125814092Y-52390000D01*
X125698839Y-51810582D01*
X125370625Y-51319375D01*
X125348967Y-51304904D01*
X125509698Y-51238327D01*
X125688327Y-51059699D01*
X125785000Y-50826310D01*
X125785000Y-50135750D01*
X125643376Y-49994126D01*
X144090000Y-49994126D01*
X144090000Y-50405874D01*
X144247569Y-50786280D01*
X144538720Y-51077431D01*
X144919126Y-51235000D01*
X145330874Y-51235000D01*
X145711280Y-51077431D01*
X146002431Y-50786280D01*
X146040602Y-50694126D01*
X149815000Y-50694126D01*
X149815000Y-51105874D01*
X149972569Y-51486280D01*
X150263720Y-51777431D01*
X150644126Y-51935000D01*
X151055874Y-51935000D01*
X151436280Y-51777431D01*
X151727431Y-51486280D01*
X151885000Y-51105874D01*
X151885000Y-50694126D01*
X151727431Y-50313720D01*
X151436280Y-50022569D01*
X151126191Y-49894126D01*
X179665000Y-49894126D01*
X179665000Y-50305874D01*
X179822569Y-50686280D01*
X180113720Y-50977431D01*
X180494126Y-51135000D01*
X180905874Y-51135000D01*
X181248229Y-50993192D01*
X181165000Y-51194126D01*
X181165000Y-51605874D01*
X181322569Y-51986280D01*
X181613720Y-52277431D01*
X181994126Y-52435000D01*
X182405874Y-52435000D01*
X182786280Y-52277431D01*
X183077431Y-51986280D01*
X183235000Y-51605874D01*
X183235000Y-51194126D01*
X183077431Y-50813720D01*
X182786280Y-50522569D01*
X182550727Y-50425000D01*
X182786280Y-50327431D01*
X183077431Y-50036280D01*
X183235000Y-49655874D01*
X183235000Y-49244126D01*
X183077431Y-48863720D01*
X182807837Y-48594126D01*
X183965000Y-48594126D01*
X183965000Y-49005874D01*
X184122569Y-49386280D01*
X184413720Y-49677431D01*
X184649273Y-49775000D01*
X184413720Y-49872569D01*
X184122569Y-50163720D01*
X183965000Y-50544126D01*
X183965000Y-50955874D01*
X184122569Y-51336280D01*
X184413720Y-51627431D01*
X184649273Y-51725000D01*
X184413720Y-51822569D01*
X184122569Y-52113720D01*
X183965000Y-52494126D01*
X183965000Y-52905874D01*
X184122569Y-53286280D01*
X184413720Y-53577431D01*
X184794126Y-53735000D01*
X185205874Y-53735000D01*
X185586280Y-53577431D01*
X185877431Y-53286280D01*
X185980328Y-53037864D01*
X186094126Y-53085000D01*
X186505874Y-53085000D01*
X186886280Y-52927431D01*
X187177431Y-52636280D01*
X187335000Y-52255874D01*
X187335000Y-51895580D01*
X187372569Y-51986280D01*
X187663720Y-52277431D01*
X188044126Y-52435000D01*
X188455874Y-52435000D01*
X188836280Y-52277431D01*
X189127431Y-51986280D01*
X189285000Y-51605874D01*
X189285000Y-51194126D01*
X189127431Y-50813720D01*
X188836280Y-50522569D01*
X188600727Y-50425000D01*
X188836280Y-50327431D01*
X189127431Y-50036280D01*
X189186312Y-49894126D01*
X190015000Y-49894126D01*
X190015000Y-50305874D01*
X190172569Y-50686280D01*
X190463720Y-50977431D01*
X190699273Y-51075000D01*
X190463720Y-51172569D01*
X190172569Y-51463720D01*
X190015000Y-51844126D01*
X190015000Y-52255874D01*
X190172569Y-52636280D01*
X190463720Y-52927431D01*
X190844126Y-53085000D01*
X190939196Y-53085000D01*
X191022569Y-53286280D01*
X191313720Y-53577431D01*
X191694126Y-53735000D01*
X192105874Y-53735000D01*
X192415796Y-53606626D01*
X254005000Y-53606626D01*
X254005000Y-54018374D01*
X254162569Y-54398780D01*
X254453720Y-54689931D01*
X254834126Y-54847500D01*
X255245874Y-54847500D01*
X255626280Y-54689931D01*
X255917431Y-54398780D01*
X256075000Y-54018374D01*
X256075000Y-53606626D01*
X255917431Y-53226220D01*
X255626280Y-52935069D01*
X255245874Y-52777500D01*
X254834126Y-52777500D01*
X254453720Y-52935069D01*
X254162569Y-53226220D01*
X254005000Y-53606626D01*
X192415796Y-53606626D01*
X192486280Y-53577431D01*
X192777431Y-53286280D01*
X192935000Y-52905874D01*
X192935000Y-52494126D01*
X192777431Y-52113720D01*
X192486280Y-51822569D01*
X192105874Y-51665000D01*
X192010804Y-51665000D01*
X191927431Y-51463720D01*
X191636280Y-51172569D01*
X191400727Y-51075000D01*
X191636280Y-50977431D01*
X191927431Y-50686280D01*
X191986312Y-50544126D01*
X192965000Y-50544126D01*
X192965000Y-50955874D01*
X193122569Y-51336280D01*
X193413720Y-51627431D01*
X193794126Y-51785000D01*
X194205874Y-51785000D01*
X194586280Y-51627431D01*
X194877431Y-51336280D01*
X195035000Y-50955874D01*
X195035000Y-50544126D01*
X194877431Y-50163720D01*
X194586280Y-49872569D01*
X194205874Y-49715000D01*
X193794126Y-49715000D01*
X193413720Y-49872569D01*
X193122569Y-50163720D01*
X192965000Y-50544126D01*
X191986312Y-50544126D01*
X192085000Y-50305874D01*
X192085000Y-49894126D01*
X191927431Y-49513720D01*
X191636280Y-49222569D01*
X191255874Y-49065000D01*
X190844126Y-49065000D01*
X190463720Y-49222569D01*
X190172569Y-49513720D01*
X190015000Y-49894126D01*
X189186312Y-49894126D01*
X189285000Y-49655874D01*
X189285000Y-49244126D01*
X189127431Y-48863720D01*
X188836280Y-48572569D01*
X188455874Y-48415000D01*
X188044126Y-48415000D01*
X187663720Y-48572569D01*
X187372569Y-48863720D01*
X187215000Y-49244126D01*
X187215000Y-49655874D01*
X187372569Y-50036280D01*
X187663720Y-50327431D01*
X187899273Y-50425000D01*
X187663720Y-50522569D01*
X187372569Y-50813720D01*
X187215000Y-51194126D01*
X187215000Y-51554420D01*
X187177431Y-51463720D01*
X186886280Y-51172569D01*
X186505874Y-51015000D01*
X186094126Y-51015000D01*
X185993192Y-51056808D01*
X186035000Y-50955874D01*
X186035000Y-50544126D01*
X185877431Y-50163720D01*
X185586280Y-49872569D01*
X185350727Y-49775000D01*
X185586280Y-49677431D01*
X185877431Y-49386280D01*
X186035000Y-49005874D01*
X186035000Y-48594126D01*
X185877431Y-48213720D01*
X185586280Y-47922569D01*
X185205874Y-47765000D01*
X184794126Y-47765000D01*
X184413720Y-47922569D01*
X184122569Y-48213720D01*
X183965000Y-48594126D01*
X182807837Y-48594126D01*
X182786280Y-48572569D01*
X182405874Y-48415000D01*
X181994126Y-48415000D01*
X181613720Y-48572569D01*
X181322569Y-48863720D01*
X181190383Y-49182847D01*
X180905874Y-49065000D01*
X180494126Y-49065000D01*
X180113720Y-49222569D01*
X179822569Y-49513720D01*
X179665000Y-49894126D01*
X151126191Y-49894126D01*
X151055874Y-49865000D01*
X150644126Y-49865000D01*
X150263720Y-50022569D01*
X149972569Y-50313720D01*
X149815000Y-50694126D01*
X146040602Y-50694126D01*
X146160000Y-50405874D01*
X146160000Y-49994126D01*
X146002431Y-49613720D01*
X145711280Y-49322569D01*
X145330874Y-49165000D01*
X144919126Y-49165000D01*
X144538720Y-49322569D01*
X144247569Y-49613720D01*
X144090000Y-49994126D01*
X125643376Y-49994126D01*
X125626250Y-49977000D01*
X124427000Y-49977000D01*
X124427000Y-49997000D01*
X124173000Y-49997000D01*
X124173000Y-49977000D01*
X121887000Y-49977000D01*
X121887000Y-49997000D01*
X121633000Y-49997000D01*
X121633000Y-49977000D01*
X120439845Y-49977000D01*
X120318524Y-50206890D01*
X120488355Y-50616924D01*
X120878642Y-51045183D01*
X121008478Y-51106157D01*
X120689375Y-51319375D01*
X120361161Y-51810582D01*
X120245908Y-52390000D01*
X113680225Y-52390000D01*
X113676937Y-49493110D01*
X120318524Y-49493110D01*
X120439845Y-49723000D01*
X121633000Y-49723000D01*
X121633000Y-48529181D01*
X121887000Y-48529181D01*
X121887000Y-49723000D01*
X124173000Y-49723000D01*
X124173000Y-48523750D01*
X124427000Y-48523750D01*
X124427000Y-49723000D01*
X125626250Y-49723000D01*
X125785000Y-49564250D01*
X125785000Y-48873690D01*
X125688327Y-48640301D01*
X125509698Y-48461673D01*
X125276309Y-48365000D01*
X124585750Y-48365000D01*
X124427000Y-48523750D01*
X124173000Y-48523750D01*
X124014250Y-48365000D01*
X123323691Y-48365000D01*
X123090302Y-48461673D01*
X122911673Y-48640301D01*
X122823070Y-48854208D01*
X122641358Y-48654817D01*
X122116892Y-48408514D01*
X121887000Y-48529181D01*
X121633000Y-48529181D01*
X121403108Y-48408514D01*
X120878642Y-48654817D01*
X120488355Y-49083076D01*
X120318524Y-49493110D01*
X113676937Y-49493110D01*
X113674555Y-47394126D01*
X138217400Y-47394126D01*
X138217400Y-47805874D01*
X138374969Y-48186280D01*
X138666120Y-48477431D01*
X139046526Y-48635000D01*
X139458274Y-48635000D01*
X139838680Y-48477431D01*
X140129831Y-48186280D01*
X140287400Y-47805874D01*
X140287400Y-47394126D01*
X140129831Y-47013720D01*
X139838680Y-46722569D01*
X139458274Y-46565000D01*
X139046526Y-46565000D01*
X138666120Y-46722569D01*
X138374969Y-47013720D01*
X138217400Y-47394126D01*
X113674555Y-47394126D01*
X113672599Y-45671168D01*
X124165000Y-45671168D01*
X124165000Y-46082916D01*
X124322569Y-46463322D01*
X124613720Y-46754473D01*
X124994126Y-46912042D01*
X125405874Y-46912042D01*
X125786280Y-46754473D01*
X126077431Y-46463322D01*
X126235000Y-46082916D01*
X126235000Y-45671168D01*
X126077431Y-45290762D01*
X125786280Y-44999611D01*
X125405874Y-44842042D01*
X124994126Y-44842042D01*
X124613720Y-44999611D01*
X124322569Y-45290762D01*
X124165000Y-45671168D01*
X113672599Y-45671168D01*
X113669232Y-42704500D01*
X124165000Y-42704500D01*
X124165000Y-43116248D01*
X124322569Y-43496654D01*
X124613720Y-43787805D01*
X124994126Y-43945374D01*
X125405874Y-43945374D01*
X125786280Y-43787805D01*
X126077431Y-43496654D01*
X126235000Y-43116248D01*
X126235000Y-42704500D01*
X126077431Y-42324094D01*
X125786280Y-42032943D01*
X125405874Y-41875374D01*
X124994126Y-41875374D01*
X124613720Y-42032943D01*
X124322569Y-42324094D01*
X124165000Y-42704500D01*
X113669232Y-42704500D01*
X113665865Y-39737834D01*
X124165000Y-39737834D01*
X124165000Y-40149582D01*
X124322569Y-40529988D01*
X124613720Y-40821139D01*
X124994126Y-40978708D01*
X125405874Y-40978708D01*
X125786280Y-40821139D01*
X126077431Y-40529988D01*
X126235000Y-40149582D01*
X126235000Y-39737834D01*
X126077431Y-39357428D01*
X125786280Y-39066277D01*
X125405874Y-38908708D01*
X124994126Y-38908708D01*
X124613720Y-39066277D01*
X124322569Y-39357428D01*
X124165000Y-39737834D01*
X113665865Y-39737834D01*
X113662498Y-36771168D01*
X124165000Y-36771168D01*
X124165000Y-37182916D01*
X124322569Y-37563322D01*
X124613720Y-37854473D01*
X124994126Y-38012042D01*
X125405874Y-38012042D01*
X125786280Y-37854473D01*
X126077431Y-37563322D01*
X126235000Y-37182916D01*
X126235000Y-36771168D01*
X126077431Y-36390762D01*
X125786280Y-36099611D01*
X125405874Y-35942042D01*
X124994126Y-35942042D01*
X124613720Y-36099611D01*
X124322569Y-36390762D01*
X124165000Y-36771168D01*
X113662498Y-36771168D01*
X113644368Y-20800000D01*
X120385908Y-20800000D01*
X120501161Y-21379418D01*
X120829375Y-21870625D01*
X121127761Y-22070000D01*
X120829375Y-22269375D01*
X120501161Y-22760582D01*
X120385908Y-23340000D01*
X120501161Y-23919418D01*
X120829375Y-24410625D01*
X121127761Y-24610000D01*
X120829375Y-24809375D01*
X120501161Y-25300582D01*
X120385908Y-25880000D01*
X120501161Y-26459418D01*
X120829375Y-26950625D01*
X121127761Y-27150000D01*
X120829375Y-27349375D01*
X120501161Y-27840582D01*
X120385908Y-28420000D01*
X120501161Y-28999418D01*
X120829375Y-29490625D01*
X121127761Y-29690000D01*
X120829375Y-29889375D01*
X120501161Y-30380582D01*
X120385908Y-30960000D01*
X120501161Y-31539418D01*
X120829375Y-32030625D01*
X120847619Y-32042816D01*
X120802235Y-32051843D01*
X120592191Y-32192191D01*
X120451843Y-32402235D01*
X120402560Y-32650000D01*
X120402560Y-34350000D01*
X120451843Y-34597765D01*
X120592191Y-34807809D01*
X120802235Y-34948157D01*
X121050000Y-34997440D01*
X122750000Y-34997440D01*
X122997765Y-34948157D01*
X123207809Y-34807809D01*
X123348157Y-34597765D01*
X123397440Y-34350000D01*
X123397440Y-32650000D01*
X123348157Y-32402235D01*
X123207809Y-32192191D01*
X122997765Y-32051843D01*
X122952381Y-32042816D01*
X122970625Y-32030625D01*
X123298839Y-31539418D01*
X123414092Y-30960000D01*
X123298839Y-30380582D01*
X122970625Y-29889375D01*
X122672239Y-29690000D01*
X122970625Y-29490625D01*
X123298839Y-28999418D01*
X123414092Y-28420000D01*
X123298839Y-27840582D01*
X123044543Y-27460000D01*
X128485908Y-27460000D01*
X128601161Y-28039418D01*
X128929375Y-28530625D01*
X128947619Y-28542816D01*
X128902235Y-28551843D01*
X128692191Y-28692191D01*
X128551843Y-28902235D01*
X128502560Y-29150000D01*
X128502560Y-30850000D01*
X128551843Y-31097765D01*
X128692191Y-31307809D01*
X128902235Y-31448157D01*
X129150000Y-31497440D01*
X130850000Y-31497440D01*
X131097765Y-31448157D01*
X131307809Y-31307809D01*
X131448157Y-31097765D01*
X131457184Y-31052381D01*
X131469375Y-31070625D01*
X131960582Y-31398839D01*
X132393744Y-31485000D01*
X132686256Y-31485000D01*
X133119418Y-31398839D01*
X133610625Y-31070625D01*
X133810000Y-30772239D01*
X134009375Y-31070625D01*
X134500582Y-31398839D01*
X134933744Y-31485000D01*
X135226256Y-31485000D01*
X135659418Y-31398839D01*
X136150625Y-31070625D01*
X136350000Y-30772239D01*
X136549375Y-31070625D01*
X137040582Y-31398839D01*
X137473744Y-31485000D01*
X137766256Y-31485000D01*
X138199418Y-31398839D01*
X138690625Y-31070625D01*
X138890000Y-30772239D01*
X139089375Y-31070625D01*
X139580582Y-31398839D01*
X140013744Y-31485000D01*
X140306256Y-31485000D01*
X140739418Y-31398839D01*
X141230625Y-31070625D01*
X141430000Y-30772239D01*
X141629375Y-31070625D01*
X142120582Y-31398839D01*
X142553744Y-31485000D01*
X142846256Y-31485000D01*
X143279418Y-31398839D01*
X143770625Y-31070625D01*
X143970000Y-30772239D01*
X144169375Y-31070625D01*
X144660582Y-31398839D01*
X145093744Y-31485000D01*
X145386256Y-31485000D01*
X145819418Y-31398839D01*
X146310625Y-31070625D01*
X146510000Y-30772239D01*
X146709375Y-31070625D01*
X147200582Y-31398839D01*
X147633744Y-31485000D01*
X147926256Y-31485000D01*
X148359418Y-31398839D01*
X148850625Y-31070625D01*
X149050000Y-30772239D01*
X149249375Y-31070625D01*
X149740582Y-31398839D01*
X150173744Y-31485000D01*
X150466256Y-31485000D01*
X150899418Y-31398839D01*
X151390625Y-31070625D01*
X151590000Y-30772239D01*
X151789375Y-31070625D01*
X152280582Y-31398839D01*
X152713744Y-31485000D01*
X153006256Y-31485000D01*
X153439418Y-31398839D01*
X153930625Y-31070625D01*
X154130000Y-30772239D01*
X154329375Y-31070625D01*
X154820582Y-31398839D01*
X155253744Y-31485000D01*
X155546256Y-31485000D01*
X155979418Y-31398839D01*
X156470625Y-31070625D01*
X156670000Y-30772239D01*
X156869375Y-31070625D01*
X157360582Y-31398839D01*
X157793744Y-31485000D01*
X158086256Y-31485000D01*
X158519418Y-31398839D01*
X159010625Y-31070625D01*
X159210000Y-30772239D01*
X159409375Y-31070625D01*
X159900582Y-31398839D01*
X160333744Y-31485000D01*
X160626256Y-31485000D01*
X161059418Y-31398839D01*
X161550625Y-31070625D01*
X161750000Y-30772239D01*
X161949375Y-31070625D01*
X162440582Y-31398839D01*
X162873744Y-31485000D01*
X163166256Y-31485000D01*
X163599418Y-31398839D01*
X164090625Y-31070625D01*
X164290000Y-30772239D01*
X164489375Y-31070625D01*
X164980582Y-31398839D01*
X165413744Y-31485000D01*
X165706256Y-31485000D01*
X166139418Y-31398839D01*
X166630625Y-31070625D01*
X166843843Y-30751522D01*
X166904817Y-30881358D01*
X167333076Y-31271645D01*
X167743110Y-31441476D01*
X167973000Y-31320155D01*
X167973000Y-30127000D01*
X167953000Y-30127000D01*
X167953000Y-29873000D01*
X167973000Y-29873000D01*
X167973000Y-27587000D01*
X167953000Y-27587000D01*
X167953000Y-27333000D01*
X167973000Y-27333000D01*
X167973000Y-26139845D01*
X168227000Y-26139845D01*
X168227000Y-27333000D01*
X168247000Y-27333000D01*
X168247000Y-27587000D01*
X168227000Y-27587000D01*
X168227000Y-29873000D01*
X168247000Y-29873000D01*
X168247000Y-30127000D01*
X168227000Y-30127000D01*
X168227000Y-31320155D01*
X168456890Y-31441476D01*
X168866924Y-31271645D01*
X169295183Y-30881358D01*
X169356157Y-30751522D01*
X169569375Y-31070625D01*
X170060582Y-31398839D01*
X170493744Y-31485000D01*
X170786256Y-31485000D01*
X171219418Y-31398839D01*
X171710625Y-31070625D01*
X171923843Y-30751522D01*
X171984817Y-30881358D01*
X172413076Y-31271645D01*
X172823110Y-31441476D01*
X173053000Y-31320155D01*
X173053000Y-30127000D01*
X173033000Y-30127000D01*
X173033000Y-29873000D01*
X173053000Y-29873000D01*
X173053000Y-27587000D01*
X173033000Y-27587000D01*
X173033000Y-27333000D01*
X173053000Y-27333000D01*
X173053000Y-26139845D01*
X173307000Y-26139845D01*
X173307000Y-27333000D01*
X173327000Y-27333000D01*
X173327000Y-27587000D01*
X173307000Y-27587000D01*
X173307000Y-29873000D01*
X173327000Y-29873000D01*
X173327000Y-30127000D01*
X173307000Y-30127000D01*
X173307000Y-31320155D01*
X173536890Y-31441476D01*
X173946924Y-31271645D01*
X174375183Y-30881358D01*
X174436157Y-30751522D01*
X174649375Y-31070625D01*
X175140582Y-31398839D01*
X175573744Y-31485000D01*
X175866256Y-31485000D01*
X176299418Y-31398839D01*
X176790625Y-31070625D01*
X176990000Y-30772239D01*
X177189375Y-31070625D01*
X177680582Y-31398839D01*
X178113744Y-31485000D01*
X178406256Y-31485000D01*
X178839418Y-31398839D01*
X179330625Y-31070625D01*
X179530000Y-30772239D01*
X179729375Y-31070625D01*
X180220582Y-31398839D01*
X180653744Y-31485000D01*
X180946256Y-31485000D01*
X181379418Y-31398839D01*
X181870625Y-31070625D01*
X182070000Y-30772239D01*
X182269375Y-31070625D01*
X182760582Y-31398839D01*
X183193744Y-31485000D01*
X183486256Y-31485000D01*
X183919418Y-31398839D01*
X184410625Y-31070625D01*
X184610000Y-30772239D01*
X184809375Y-31070625D01*
X185300582Y-31398839D01*
X185733744Y-31485000D01*
X186026256Y-31485000D01*
X186459418Y-31398839D01*
X186950625Y-31070625D01*
X187150000Y-30772239D01*
X187349375Y-31070625D01*
X187840582Y-31398839D01*
X188273744Y-31485000D01*
X188566256Y-31485000D01*
X188999418Y-31398839D01*
X189490625Y-31070625D01*
X189690000Y-30772239D01*
X189889375Y-31070625D01*
X190380582Y-31398839D01*
X190813744Y-31485000D01*
X191106256Y-31485000D01*
X191539418Y-31398839D01*
X192030625Y-31070625D01*
X192230000Y-30772239D01*
X192429375Y-31070625D01*
X192920582Y-31398839D01*
X193353744Y-31485000D01*
X193646256Y-31485000D01*
X194079418Y-31398839D01*
X194570625Y-31070625D01*
X194770000Y-30772239D01*
X194969375Y-31070625D01*
X195460582Y-31398839D01*
X195893744Y-31485000D01*
X196186256Y-31485000D01*
X196619418Y-31398839D01*
X197110625Y-31070625D01*
X197310000Y-30772239D01*
X197509375Y-31070625D01*
X198000582Y-31398839D01*
X198433744Y-31485000D01*
X198726256Y-31485000D01*
X199159418Y-31398839D01*
X199650625Y-31070625D01*
X199850000Y-30772239D01*
X200049375Y-31070625D01*
X200540582Y-31398839D01*
X200973744Y-31485000D01*
X201266256Y-31485000D01*
X201699418Y-31398839D01*
X202190625Y-31070625D01*
X202390000Y-30772239D01*
X202589375Y-31070625D01*
X203080582Y-31398839D01*
X203513744Y-31485000D01*
X203806256Y-31485000D01*
X204239418Y-31398839D01*
X204730625Y-31070625D01*
X204930000Y-30772239D01*
X205129375Y-31070625D01*
X205620582Y-31398839D01*
X206053744Y-31485000D01*
X206346256Y-31485000D01*
X206779418Y-31398839D01*
X207270625Y-31070625D01*
X207470000Y-30772239D01*
X207669375Y-31070625D01*
X208160582Y-31398839D01*
X208593744Y-31485000D01*
X208886256Y-31485000D01*
X209319418Y-31398839D01*
X209810625Y-31070625D01*
X210138839Y-30579418D01*
X210254092Y-30000000D01*
X210138839Y-29420582D01*
X209810625Y-28929375D01*
X209512239Y-28730000D01*
X209810625Y-28530625D01*
X210138839Y-28039418D01*
X210246135Y-27500000D01*
X214894336Y-27500000D01*
X214996007Y-28011136D01*
X215285543Y-28444457D01*
X215368669Y-28500000D01*
X215285543Y-28555543D01*
X214996007Y-28988864D01*
X214894336Y-29500000D01*
X214996007Y-30011136D01*
X215285543Y-30444457D01*
X215718864Y-30733993D01*
X216100978Y-30810000D01*
X216359022Y-30810000D01*
X216741136Y-30733993D01*
X217174457Y-30444457D01*
X217230000Y-30361331D01*
X217285543Y-30444457D01*
X217718864Y-30733993D01*
X218100978Y-30810000D01*
X218359022Y-30810000D01*
X218741136Y-30733993D01*
X219174457Y-30444457D01*
X219230000Y-30361331D01*
X219285543Y-30444457D01*
X219718864Y-30733993D01*
X220100978Y-30810000D01*
X220359022Y-30810000D01*
X220741136Y-30733993D01*
X221174457Y-30444457D01*
X221230000Y-30361331D01*
X221285543Y-30444457D01*
X221718864Y-30733993D01*
X222100978Y-30810000D01*
X222359022Y-30810000D01*
X222741136Y-30733993D01*
X223174457Y-30444457D01*
X223230000Y-30361331D01*
X223285543Y-30444457D01*
X223718864Y-30733993D01*
X224100978Y-30810000D01*
X224359022Y-30810000D01*
X224741136Y-30733993D01*
X225174457Y-30444457D01*
X225230000Y-30361331D01*
X225285543Y-30444457D01*
X225718864Y-30733993D01*
X226100978Y-30810000D01*
X226359022Y-30810000D01*
X226741136Y-30733993D01*
X227174457Y-30444457D01*
X227230000Y-30361331D01*
X227285543Y-30444457D01*
X227718864Y-30733993D01*
X228100978Y-30810000D01*
X228359022Y-30810000D01*
X228741136Y-30733993D01*
X229174457Y-30444457D01*
X229463993Y-30011136D01*
X229565664Y-29500000D01*
X229463993Y-28988864D01*
X229268286Y-28695968D01*
X229362809Y-28632809D01*
X229503157Y-28422765D01*
X229552440Y-28175000D01*
X229552440Y-27294126D01*
X239165000Y-27294126D01*
X239165000Y-27705874D01*
X239322569Y-28086280D01*
X239613720Y-28377431D01*
X239994126Y-28535000D01*
X240405874Y-28535000D01*
X240786280Y-28377431D01*
X241077431Y-28086280D01*
X241235000Y-27705874D01*
X241235000Y-27294126D01*
X241077431Y-26913720D01*
X240786280Y-26622569D01*
X240405874Y-26465000D01*
X239994126Y-26465000D01*
X239613720Y-26622569D01*
X239322569Y-26913720D01*
X239165000Y-27294126D01*
X229552440Y-27294126D01*
X229552440Y-26825000D01*
X229503157Y-26577235D01*
X229362809Y-26367191D01*
X229152765Y-26226843D01*
X228905000Y-26177560D01*
X227555000Y-26177560D01*
X227307235Y-26226843D01*
X227097191Y-26367191D01*
X227034032Y-26461714D01*
X226741136Y-26266007D01*
X226359022Y-26190000D01*
X226100978Y-26190000D01*
X225718864Y-26266007D01*
X225285543Y-26555543D01*
X225230000Y-26638669D01*
X225174457Y-26555543D01*
X224741136Y-26266007D01*
X224359022Y-26190000D01*
X224100978Y-26190000D01*
X223718864Y-26266007D01*
X223285543Y-26555543D01*
X223230000Y-26638669D01*
X223174457Y-26555543D01*
X222741136Y-26266007D01*
X222359022Y-26190000D01*
X222100978Y-26190000D01*
X221718864Y-26266007D01*
X221285543Y-26555543D01*
X221230000Y-26638669D01*
X221174457Y-26555543D01*
X220741136Y-26266007D01*
X220359022Y-26190000D01*
X220100978Y-26190000D01*
X219718864Y-26266007D01*
X219285543Y-26555543D01*
X219230000Y-26638669D01*
X219174457Y-26555543D01*
X218741136Y-26266007D01*
X218359022Y-26190000D01*
X218100978Y-26190000D01*
X217718864Y-26266007D01*
X217285543Y-26555543D01*
X217230000Y-26638669D01*
X217174457Y-26555543D01*
X216741136Y-26266007D01*
X216359022Y-26190000D01*
X216100978Y-26190000D01*
X215718864Y-26266007D01*
X215285543Y-26555543D01*
X214996007Y-26988864D01*
X214894336Y-27500000D01*
X210246135Y-27500000D01*
X210254092Y-27460000D01*
X210138839Y-26880582D01*
X209810625Y-26389375D01*
X209319418Y-26061161D01*
X208886256Y-25975000D01*
X208593744Y-25975000D01*
X208160582Y-26061161D01*
X207669375Y-26389375D01*
X207470000Y-26687761D01*
X207270625Y-26389375D01*
X206779418Y-26061161D01*
X206346256Y-25975000D01*
X206053744Y-25975000D01*
X205620582Y-26061161D01*
X205129375Y-26389375D01*
X204930000Y-26687761D01*
X204730625Y-26389375D01*
X204239418Y-26061161D01*
X203806256Y-25975000D01*
X203513744Y-25975000D01*
X203080582Y-26061161D01*
X202589375Y-26389375D01*
X202390000Y-26687761D01*
X202190625Y-26389375D01*
X201699418Y-26061161D01*
X201266256Y-25975000D01*
X200973744Y-25975000D01*
X200540582Y-26061161D01*
X200049375Y-26389375D01*
X199850000Y-26687761D01*
X199650625Y-26389375D01*
X199159418Y-26061161D01*
X198726256Y-25975000D01*
X198433744Y-25975000D01*
X198000582Y-26061161D01*
X197509375Y-26389375D01*
X197310000Y-26687761D01*
X197110625Y-26389375D01*
X196619418Y-26061161D01*
X196186256Y-25975000D01*
X195893744Y-25975000D01*
X195460582Y-26061161D01*
X194969375Y-26389375D01*
X194770000Y-26687761D01*
X194570625Y-26389375D01*
X194079418Y-26061161D01*
X193646256Y-25975000D01*
X193353744Y-25975000D01*
X192920582Y-26061161D01*
X192429375Y-26389375D01*
X192230000Y-26687761D01*
X192030625Y-26389375D01*
X191539418Y-26061161D01*
X191106256Y-25975000D01*
X190813744Y-25975000D01*
X190380582Y-26061161D01*
X189889375Y-26389375D01*
X189690000Y-26687761D01*
X189490625Y-26389375D01*
X188999418Y-26061161D01*
X188566256Y-25975000D01*
X188273744Y-25975000D01*
X187840582Y-26061161D01*
X187349375Y-26389375D01*
X187150000Y-26687761D01*
X186950625Y-26389375D01*
X186459418Y-26061161D01*
X186026256Y-25975000D01*
X185733744Y-25975000D01*
X185300582Y-26061161D01*
X184809375Y-26389375D01*
X184610000Y-26687761D01*
X184410625Y-26389375D01*
X183919418Y-26061161D01*
X183486256Y-25975000D01*
X183193744Y-25975000D01*
X182760582Y-26061161D01*
X182269375Y-26389375D01*
X182070000Y-26687761D01*
X181870625Y-26389375D01*
X181379418Y-26061161D01*
X180946256Y-25975000D01*
X180653744Y-25975000D01*
X180220582Y-26061161D01*
X179729375Y-26389375D01*
X179530000Y-26687761D01*
X179330625Y-26389375D01*
X178839418Y-26061161D01*
X178406256Y-25975000D01*
X178113744Y-25975000D01*
X177680582Y-26061161D01*
X177189375Y-26389375D01*
X176990000Y-26687761D01*
X176790625Y-26389375D01*
X176299418Y-26061161D01*
X175866256Y-25975000D01*
X175573744Y-25975000D01*
X175140582Y-26061161D01*
X174649375Y-26389375D01*
X174436157Y-26708478D01*
X174375183Y-26578642D01*
X173946924Y-26188355D01*
X173536890Y-26018524D01*
X173307000Y-26139845D01*
X173053000Y-26139845D01*
X172823110Y-26018524D01*
X172413076Y-26188355D01*
X171984817Y-26578642D01*
X171923843Y-26708478D01*
X171710625Y-26389375D01*
X171219418Y-26061161D01*
X170786256Y-25975000D01*
X170493744Y-25975000D01*
X170060582Y-26061161D01*
X169569375Y-26389375D01*
X169356157Y-26708478D01*
X169295183Y-26578642D01*
X168866924Y-26188355D01*
X168456890Y-26018524D01*
X168227000Y-26139845D01*
X167973000Y-26139845D01*
X167743110Y-26018524D01*
X167333076Y-26188355D01*
X166904817Y-26578642D01*
X166843843Y-26708478D01*
X166630625Y-26389375D01*
X166139418Y-26061161D01*
X165706256Y-25975000D01*
X165413744Y-25975000D01*
X164980582Y-26061161D01*
X164489375Y-26389375D01*
X164290000Y-26687761D01*
X164090625Y-26389375D01*
X163599418Y-26061161D01*
X163166256Y-25975000D01*
X162873744Y-25975000D01*
X162440582Y-26061161D01*
X161949375Y-26389375D01*
X161750000Y-26687761D01*
X161550625Y-26389375D01*
X161059418Y-26061161D01*
X160626256Y-25975000D01*
X160333744Y-25975000D01*
X159900582Y-26061161D01*
X159409375Y-26389375D01*
X159210000Y-26687761D01*
X159010625Y-26389375D01*
X158519418Y-26061161D01*
X158304253Y-26018362D01*
X158523780Y-25927431D01*
X158814931Y-25636280D01*
X158972500Y-25255874D01*
X158972500Y-24844126D01*
X158814931Y-24463720D01*
X158523780Y-24172569D01*
X158143374Y-24015000D01*
X157731626Y-24015000D01*
X157351220Y-24172569D01*
X157060069Y-24463720D01*
X156902500Y-24844126D01*
X156902500Y-25255874D01*
X157060069Y-25636280D01*
X157351220Y-25927431D01*
X157572370Y-26019034D01*
X157360582Y-26061161D01*
X156869375Y-26389375D01*
X156670000Y-26687761D01*
X156470625Y-26389375D01*
X155979418Y-26061161D01*
X155546256Y-25975000D01*
X155253744Y-25975000D01*
X154820582Y-26061161D01*
X154329375Y-26389375D01*
X154130000Y-26687761D01*
X153930625Y-26389375D01*
X153439418Y-26061161D01*
X153006256Y-25975000D01*
X152713744Y-25975000D01*
X152280582Y-26061161D01*
X151789375Y-26389375D01*
X151590000Y-26687761D01*
X151390625Y-26389375D01*
X150899418Y-26061161D01*
X150466256Y-25975000D01*
X150173744Y-25975000D01*
X149740582Y-26061161D01*
X149249375Y-26389375D01*
X149050000Y-26687761D01*
X148850625Y-26389375D01*
X148359418Y-26061161D01*
X147926256Y-25975000D01*
X147633744Y-25975000D01*
X147200582Y-26061161D01*
X146709375Y-26389375D01*
X146510000Y-26687761D01*
X146310625Y-26389375D01*
X145819418Y-26061161D01*
X145386256Y-25975000D01*
X145093744Y-25975000D01*
X144660582Y-26061161D01*
X144169375Y-26389375D01*
X143970000Y-26687761D01*
X143770625Y-26389375D01*
X143279418Y-26061161D01*
X142846256Y-25975000D01*
X142553744Y-25975000D01*
X142120582Y-26061161D01*
X141629375Y-26389375D01*
X141430000Y-26687761D01*
X141230625Y-26389375D01*
X140739418Y-26061161D01*
X140306256Y-25975000D01*
X140013744Y-25975000D01*
X139580582Y-26061161D01*
X139089375Y-26389375D01*
X138890000Y-26687761D01*
X138690625Y-26389375D01*
X138199418Y-26061161D01*
X137766256Y-25975000D01*
X137473744Y-25975000D01*
X137040582Y-26061161D01*
X136549375Y-26389375D01*
X136350000Y-26687761D01*
X136150625Y-26389375D01*
X135659418Y-26061161D01*
X135226256Y-25975000D01*
X134933744Y-25975000D01*
X134500582Y-26061161D01*
X134009375Y-26389375D01*
X133810000Y-26687761D01*
X133610625Y-26389375D01*
X133119418Y-26061161D01*
X132686256Y-25975000D01*
X132393744Y-25975000D01*
X131960582Y-26061161D01*
X131469375Y-26389375D01*
X131270000Y-26687761D01*
X131070625Y-26389375D01*
X130579418Y-26061161D01*
X130146256Y-25975000D01*
X129853744Y-25975000D01*
X129420582Y-26061161D01*
X128929375Y-26389375D01*
X128601161Y-26880582D01*
X128485908Y-27460000D01*
X123044543Y-27460000D01*
X122970625Y-27349375D01*
X122672239Y-27150000D01*
X122970625Y-26950625D01*
X123298839Y-26459418D01*
X123414092Y-25880000D01*
X123298839Y-25300582D01*
X122970625Y-24809375D01*
X122672239Y-24610000D01*
X122970625Y-24410625D01*
X123298839Y-23919418D01*
X123414092Y-23340000D01*
X123298839Y-22760582D01*
X122970625Y-22269375D01*
X122672239Y-22070000D01*
X122970625Y-21870625D01*
X123298839Y-21379418D01*
X123414092Y-20800000D01*
X123298839Y-20220582D01*
X122970625Y-19729375D01*
X122479418Y-19401161D01*
X122046256Y-19315000D01*
X121753744Y-19315000D01*
X121320582Y-19401161D01*
X120829375Y-19729375D01*
X120501161Y-20220582D01*
X120385908Y-20800000D01*
X113644368Y-20800000D01*
X113642375Y-19044126D01*
X156752500Y-19044126D01*
X156752500Y-19455874D01*
X156910069Y-19836280D01*
X157201220Y-20127431D01*
X157581626Y-20285000D01*
X157993374Y-20285000D01*
X158373780Y-20127431D01*
X158664931Y-19836280D01*
X158822500Y-19455874D01*
X158822500Y-19044126D01*
X158664931Y-18663720D01*
X158373780Y-18372569D01*
X157993374Y-18215000D01*
X157581626Y-18215000D01*
X157201220Y-18372569D01*
X156910069Y-18663720D01*
X156752500Y-19044126D01*
X113642375Y-19044126D01*
X113639182Y-16231626D01*
X115265000Y-16231626D01*
X115265000Y-16643374D01*
X115422569Y-17023780D01*
X115713720Y-17314931D01*
X116094126Y-17472500D01*
X116505874Y-17472500D01*
X116886280Y-17314931D01*
X117177431Y-17023780D01*
X117335000Y-16643374D01*
X117335000Y-16231626D01*
X117177431Y-15851220D01*
X116886280Y-15560069D01*
X116505874Y-15402500D01*
X116094126Y-15402500D01*
X115713720Y-15560069D01*
X115422569Y-15851220D01*
X115265000Y-16231626D01*
X113639182Y-16231626D01*
X113636813Y-14144126D01*
X148890000Y-14144126D01*
X148890000Y-14555874D01*
X149047569Y-14936280D01*
X149338720Y-15227431D01*
X149719126Y-15385000D01*
X150130874Y-15385000D01*
X150511280Y-15227431D01*
X150802431Y-14936280D01*
X150960000Y-14555874D01*
X150960000Y-14144126D01*
X150802431Y-13763720D01*
X150511280Y-13472569D01*
X150130874Y-13315000D01*
X149719126Y-13315000D01*
X149338720Y-13472569D01*
X149047569Y-13763720D01*
X148890000Y-14144126D01*
X113636813Y-14144126D01*
X113635622Y-13094126D01*
X153465000Y-13094126D01*
X153465000Y-13505874D01*
X153622569Y-13886280D01*
X153913720Y-14177431D01*
X154294126Y-14335000D01*
X154705874Y-14335000D01*
X155086280Y-14177431D01*
X155119585Y-14144126D01*
X162640000Y-14144126D01*
X162640000Y-14555874D01*
X162797569Y-14936280D01*
X163088720Y-15227431D01*
X163469126Y-15385000D01*
X163880874Y-15385000D01*
X164261280Y-15227431D01*
X164552431Y-14936280D01*
X164589566Y-14846626D01*
X184465000Y-14846626D01*
X184465000Y-15258374D01*
X184622569Y-15638780D01*
X184913720Y-15929931D01*
X185294126Y-16087500D01*
X185705874Y-16087500D01*
X186086280Y-15929931D01*
X186377431Y-15638780D01*
X186535000Y-15258374D01*
X186535000Y-14856626D01*
X194445000Y-14856626D01*
X194445000Y-15268374D01*
X194602569Y-15648780D01*
X194893720Y-15939931D01*
X195274126Y-16097500D01*
X195685874Y-16097500D01*
X196066280Y-15939931D01*
X196357431Y-15648780D01*
X196515000Y-15268374D01*
X196515000Y-14856626D01*
X196357431Y-14476220D01*
X196066280Y-14185069D01*
X195685874Y-14027500D01*
X195274126Y-14027500D01*
X194893720Y-14185069D01*
X194602569Y-14476220D01*
X194445000Y-14856626D01*
X186535000Y-14856626D01*
X186535000Y-14846626D01*
X186377431Y-14466220D01*
X186086280Y-14175069D01*
X185705874Y-14017500D01*
X185294126Y-14017500D01*
X184913720Y-14175069D01*
X184622569Y-14466220D01*
X184465000Y-14846626D01*
X164589566Y-14846626D01*
X164710000Y-14555874D01*
X164710000Y-14144126D01*
X164552431Y-13763720D01*
X164261280Y-13472569D01*
X163880874Y-13315000D01*
X163469126Y-13315000D01*
X163088720Y-13472569D01*
X162797569Y-13763720D01*
X162640000Y-14144126D01*
X155119585Y-14144126D01*
X155377431Y-13886280D01*
X155535000Y-13505874D01*
X155535000Y-13094126D01*
X155377431Y-12713720D01*
X155143711Y-12480000D01*
X166975000Y-12480000D01*
X167090262Y-13207735D01*
X167424765Y-13864234D01*
X167945766Y-14385235D01*
X168602265Y-14719738D01*
X169330000Y-14835000D01*
X170057735Y-14719738D01*
X170714234Y-14385235D01*
X171235235Y-13864234D01*
X171569738Y-13207735D01*
X171685000Y-12480000D01*
X196975000Y-12480000D01*
X197090262Y-13207735D01*
X197424765Y-13864234D01*
X197945766Y-14385235D01*
X198602265Y-14719738D01*
X199330000Y-14835000D01*
X200057735Y-14719738D01*
X200714234Y-14385235D01*
X201235235Y-13864234D01*
X201569738Y-13207735D01*
X201685000Y-12480000D01*
X226975000Y-12480000D01*
X227090262Y-13207735D01*
X227424765Y-13864234D01*
X227945766Y-14385235D01*
X228602265Y-14719738D01*
X229330000Y-14835000D01*
X230057735Y-14719738D01*
X230714234Y-14385235D01*
X231235235Y-13864234D01*
X231569738Y-13207735D01*
X231685000Y-12480000D01*
X231569738Y-11752265D01*
X231235235Y-11095766D01*
X230714234Y-10574765D01*
X230057735Y-10240262D01*
X229330000Y-10125000D01*
X228602265Y-10240262D01*
X227945766Y-10574765D01*
X227424765Y-11095766D01*
X227090262Y-11752265D01*
X226975000Y-12480000D01*
X201685000Y-12480000D01*
X201569738Y-11752265D01*
X201235235Y-11095766D01*
X200714234Y-10574765D01*
X200057735Y-10240262D01*
X199330000Y-10125000D01*
X198602265Y-10240262D01*
X197945766Y-10574765D01*
X197424765Y-11095766D01*
X197090262Y-11752265D01*
X196975000Y-12480000D01*
X171685000Y-12480000D01*
X171569738Y-11752265D01*
X171235235Y-11095766D01*
X170714234Y-10574765D01*
X170057735Y-10240262D01*
X169330000Y-10125000D01*
X168602265Y-10240262D01*
X167945766Y-10574765D01*
X167424765Y-11095766D01*
X167090262Y-11752265D01*
X166975000Y-12480000D01*
X155143711Y-12480000D01*
X155086280Y-12422569D01*
X154705874Y-12265000D01*
X154294126Y-12265000D01*
X153913720Y-12422569D01*
X153622569Y-12713720D01*
X153465000Y-13094126D01*
X113635622Y-13094126D01*
X113627352Y-5810000D01*
X256873000Y-5810000D01*
X256873000Y-61064289D01*
X256873000Y-61064289D01*
G37*
X256873000Y-61064289D02*
X256806280Y-60997569D01*
X256425874Y-60840000D01*
X256014126Y-60840000D01*
X255633720Y-60997569D01*
X255342569Y-61288720D01*
X255185000Y-61669126D01*
X255185000Y-62080874D01*
X255334658Y-62442181D01*
X255333720Y-62442569D01*
X255042569Y-62733720D01*
X254885000Y-63114126D01*
X254885000Y-63525874D01*
X255042569Y-63906280D01*
X255333720Y-64197431D01*
X255714126Y-64355000D01*
X255880199Y-64355000D01*
X256873000Y-65347801D01*
X256873000Y-87319289D01*
X256596280Y-87042569D01*
X256215874Y-86885000D01*
X255804126Y-86885000D01*
X255423720Y-87042569D01*
X255132569Y-87333720D01*
X254975000Y-87714126D01*
X254975000Y-88125874D01*
X255132569Y-88506280D01*
X255423720Y-88797431D01*
X255804126Y-88955000D01*
X256215874Y-88955000D01*
X256596280Y-88797431D01*
X256873000Y-88520711D01*
X256873000Y-93473000D01*
X196507271Y-93473000D01*
X196786280Y-93357431D01*
X197077431Y-93066280D01*
X197235000Y-92685874D01*
X197235000Y-92274126D01*
X197077431Y-91893720D01*
X196786280Y-91602569D01*
X196405874Y-91445000D01*
X195994126Y-91445000D01*
X195613720Y-91602569D01*
X195322569Y-91893720D01*
X195165000Y-92274126D01*
X195165000Y-92685874D01*
X195322569Y-93066280D01*
X195613720Y-93357431D01*
X195892729Y-93473000D01*
X189311200Y-93473000D01*
X189311200Y-90419999D01*
X216722560Y-90419999D01*
X216722560Y-92120001D01*
X216790873Y-92463436D01*
X216985414Y-92754586D01*
X217276564Y-92949127D01*
X217619999Y-93017440D01*
X218860001Y-93017440D01*
X219203436Y-92949127D01*
X219494586Y-92754586D01*
X219651413Y-92519878D01*
X219694956Y-92585044D01*
X220192779Y-92917678D01*
X220780000Y-93034484D01*
X221367222Y-92917678D01*
X221865044Y-92585044D01*
X222050000Y-92308237D01*
X222234956Y-92585044D01*
X222732779Y-92917678D01*
X223320000Y-93034484D01*
X223907222Y-92917678D01*
X224405044Y-92585044D01*
X224737678Y-92087221D01*
X224825000Y-91648225D01*
X224825000Y-90891774D01*
X224737678Y-90452778D01*
X224405044Y-89954956D01*
X223907221Y-89622322D01*
X223320000Y-89505516D01*
X222732778Y-89622322D01*
X222234956Y-89954956D01*
X222050000Y-90231763D01*
X221865044Y-89954956D01*
X221367221Y-89622322D01*
X220780000Y-89505516D01*
X220192778Y-89622322D01*
X219694956Y-89954956D01*
X219651414Y-90020122D01*
X219494586Y-89785414D01*
X219203436Y-89590873D01*
X218860001Y-89522560D01*
X217619999Y-89522560D01*
X217276564Y-89590873D01*
X216985414Y-89785414D01*
X216790873Y-90076564D01*
X216722560Y-90419999D01*
X189311200Y-90419999D01*
X189311200Y-89820041D01*
X189325132Y-89749999D01*
X189311200Y-89679957D01*
X189311200Y-89679954D01*
X189269936Y-89472504D01*
X189158597Y-89305874D01*
X189152424Y-89296635D01*
X189152422Y-89296633D01*
X189112746Y-89237254D01*
X189053367Y-89197578D01*
X188749915Y-88894126D01*
X195165000Y-88894126D01*
X195165000Y-89305874D01*
X195322569Y-89686280D01*
X195613720Y-89977431D01*
X195994126Y-90135000D01*
X196405874Y-90135000D01*
X196786280Y-89977431D01*
X197077431Y-89686280D01*
X197235000Y-89305874D01*
X197235000Y-88894126D01*
X197077431Y-88513720D01*
X196786280Y-88222569D01*
X196405874Y-88065000D01*
X195994126Y-88065000D01*
X195613720Y-88222569D01*
X195322569Y-88513720D01*
X195165000Y-88894126D01*
X188749915Y-88894126D01*
X187309915Y-87454126D01*
X252815000Y-87454126D01*
X252815000Y-87865874D01*
X252972569Y-88246280D01*
X253263720Y-88537431D01*
X253644126Y-88695000D01*
X254055874Y-88695000D01*
X254436280Y-88537431D01*
X254727431Y-88246280D01*
X254885000Y-87865874D01*
X254885000Y-87454126D01*
X254727431Y-87073720D01*
X254436280Y-86782569D01*
X254055874Y-86625000D01*
X253644126Y-86625000D01*
X253263720Y-86782569D01*
X252972569Y-87073720D01*
X252815000Y-87454126D01*
X187309915Y-87454126D01*
X184561200Y-84705412D01*
X184561200Y-83669126D01*
X184765000Y-83669126D01*
X184765000Y-84080874D01*
X184922569Y-84461280D01*
X185213720Y-84752431D01*
X185594126Y-84910000D01*
X186005874Y-84910000D01*
X186386280Y-84752431D01*
X186677431Y-84461280D01*
X186812580Y-84135000D01*
X187205874Y-84135000D01*
X187586280Y-83977431D01*
X187877431Y-83686280D01*
X188035000Y-83305874D01*
X188035000Y-82894126D01*
X187881742Y-82524126D01*
X235415000Y-82524126D01*
X235415000Y-82935874D01*
X235572569Y-83316280D01*
X235863720Y-83607431D01*
X236244126Y-83765000D01*
X236655874Y-83765000D01*
X237036280Y-83607431D01*
X237327431Y-83316280D01*
X237485000Y-82935874D01*
X237485000Y-82524126D01*
X251865000Y-82524126D01*
X251865000Y-82935874D01*
X252022569Y-83316280D01*
X252313720Y-83607431D01*
X252694126Y-83765000D01*
X253105874Y-83765000D01*
X253486280Y-83607431D01*
X253777431Y-83316280D01*
X253935000Y-82935874D01*
X253935000Y-82524126D01*
X253777431Y-82143720D01*
X253486280Y-81852569D01*
X253105874Y-81695000D01*
X252694126Y-81695000D01*
X252313720Y-81852569D01*
X252022569Y-82143720D01*
X251865000Y-82524126D01*
X237485000Y-82524126D01*
X237327431Y-82143720D01*
X237036280Y-81852569D01*
X236655874Y-81695000D01*
X236244126Y-81695000D01*
X235863720Y-81852569D01*
X235572569Y-82143720D01*
X235415000Y-82524126D01*
X187881742Y-82524126D01*
X187877431Y-82513720D01*
X187586280Y-82222569D01*
X187205874Y-82065000D01*
X186794126Y-82065000D01*
X186413720Y-82222569D01*
X186122569Y-82513720D01*
X185987420Y-82840000D01*
X185594126Y-82840000D01*
X185213720Y-82997569D01*
X184922569Y-83288720D01*
X184765000Y-83669126D01*
X184561200Y-83669126D01*
X184561200Y-82426107D01*
X184575132Y-82356065D01*
X184561200Y-82286023D01*
X184561200Y-82286020D01*
X184519936Y-82078570D01*
X184491679Y-82036280D01*
X184402424Y-81902701D01*
X184402422Y-81902699D01*
X184362746Y-81843320D01*
X184303367Y-81803644D01*
X183211200Y-80711478D01*
X183211200Y-80652511D01*
X183377431Y-80486280D01*
X183488700Y-80217652D01*
X183599969Y-80486280D01*
X183891120Y-80777431D01*
X184271526Y-80935000D01*
X184683274Y-80935000D01*
X185063680Y-80777431D01*
X185138700Y-80702411D01*
X185213720Y-80777431D01*
X185594126Y-80935000D01*
X186005874Y-80935000D01*
X186386280Y-80777431D01*
X186677431Y-80486280D01*
X186835000Y-80105874D01*
X186835000Y-79694126D01*
X186772869Y-79544126D01*
X193822500Y-79544126D01*
X193822500Y-79955874D01*
X193980069Y-80336280D01*
X194271220Y-80627431D01*
X194651626Y-80785000D01*
X195063374Y-80785000D01*
X195443780Y-80627431D01*
X195734931Y-80336280D01*
X195892500Y-79955874D01*
X195892500Y-79544126D01*
X195818615Y-79365750D01*
X201345000Y-79365750D01*
X201345000Y-80056309D01*
X201441673Y-80289698D01*
X201620301Y-80468327D01*
X201853690Y-80565000D01*
X202544250Y-80565000D01*
X202703000Y-80406250D01*
X202703000Y-79207000D01*
X201503750Y-79207000D01*
X201345000Y-79365750D01*
X195818615Y-79365750D01*
X195734931Y-79163720D01*
X195443780Y-78872569D01*
X195063374Y-78715000D01*
X194651626Y-78715000D01*
X194271220Y-78872569D01*
X193980069Y-79163720D01*
X193822500Y-79544126D01*
X186772869Y-79544126D01*
X186677431Y-79313720D01*
X186386280Y-79022569D01*
X186005874Y-78865000D01*
X185594126Y-78865000D01*
X185213720Y-79022569D01*
X185138700Y-79097589D01*
X185063680Y-79022569D01*
X184683274Y-78865000D01*
X184271526Y-78865000D01*
X183891120Y-79022569D01*
X183599969Y-79313720D01*
X183488700Y-79582348D01*
X183377431Y-79313720D01*
X183086280Y-79022569D01*
X182705874Y-78865000D01*
X182294126Y-78865000D01*
X181913720Y-79022569D01*
X181622569Y-79313720D01*
X181465000Y-79694126D01*
X181465000Y-80105874D01*
X181622569Y-80486280D01*
X181654113Y-80517824D01*
X181405874Y-80415000D01*
X180994126Y-80415000D01*
X180613720Y-80572569D01*
X180322569Y-80863720D01*
X180165000Y-81244126D01*
X180165000Y-81655874D01*
X180322569Y-82036280D01*
X180613720Y-82327431D01*
X180994126Y-82485000D01*
X181405874Y-82485000D01*
X181786280Y-82327431D01*
X182077431Y-82036280D01*
X182208353Y-81720207D01*
X182562217Y-82074072D01*
X182322569Y-82313720D01*
X182165000Y-82694126D01*
X182165000Y-83105874D01*
X182322569Y-83486280D01*
X182613720Y-83777431D01*
X182994126Y-83935000D01*
X183138800Y-83935000D01*
X183138800Y-84929958D01*
X183124868Y-85000000D01*
X183138800Y-85070041D01*
X183138800Y-85070045D01*
X183180064Y-85277495D01*
X183180065Y-85277496D01*
X183297576Y-85453364D01*
X183297578Y-85453366D01*
X183337254Y-85512745D01*
X183396634Y-85552422D01*
X187888801Y-90044590D01*
X187888801Y-93473000D01*
X124724353Y-93473000D01*
X124835000Y-93205874D01*
X124835000Y-92794126D01*
X124677431Y-92413720D01*
X124386280Y-92122569D01*
X124005874Y-91965000D01*
X123594126Y-91965000D01*
X123213720Y-92122569D01*
X122922569Y-92413720D01*
X122765000Y-92794126D01*
X122765000Y-93205874D01*
X122875647Y-93473000D01*
X113726856Y-93473000D01*
X113724951Y-91794126D01*
X157065000Y-91794126D01*
X157065000Y-92205874D01*
X157222569Y-92586280D01*
X157513720Y-92877431D01*
X157894126Y-93035000D01*
X158305874Y-93035000D01*
X158686280Y-92877431D01*
X158977431Y-92586280D01*
X159135000Y-92205874D01*
X159135000Y-91794126D01*
X158977431Y-91413720D01*
X158932837Y-91369126D01*
X167615000Y-91369126D01*
X167615000Y-91780874D01*
X167772569Y-92161280D01*
X168063720Y-92452431D01*
X168444126Y-92610000D01*
X168855874Y-92610000D01*
X169236280Y-92452431D01*
X169527431Y-92161280D01*
X169685000Y-91780874D01*
X169685000Y-91369126D01*
X169527431Y-90988720D01*
X169236280Y-90697569D01*
X168855874Y-90540000D01*
X168444126Y-90540000D01*
X168063720Y-90697569D01*
X167772569Y-90988720D01*
X167615000Y-91369126D01*
X158932837Y-91369126D01*
X158686280Y-91122569D01*
X158305874Y-90965000D01*
X157894126Y-90965000D01*
X157513720Y-91122569D01*
X157222569Y-91413720D01*
X157065000Y-91794126D01*
X113724951Y-91794126D01*
X113719820Y-87274126D01*
X114165000Y-87274126D01*
X114165000Y-87685874D01*
X114322569Y-88066280D01*
X114613720Y-88357431D01*
X114849273Y-88455000D01*
X114613720Y-88552569D01*
X114322569Y-88843720D01*
X114165000Y-89224126D01*
X114165000Y-89635874D01*
X114322569Y-90016280D01*
X114386289Y-90080000D01*
X114322569Y-90143720D01*
X114165000Y-90524126D01*
X114165000Y-90935874D01*
X114322569Y-91316280D01*
X114613720Y-91607431D01*
X114994126Y-91765000D01*
X115405874Y-91765000D01*
X115786280Y-91607431D01*
X116077431Y-91316280D01*
X116235000Y-90935874D01*
X116235000Y-90524126D01*
X116077431Y-90143720D01*
X116013711Y-90080000D01*
X116077431Y-90016280D01*
X116235000Y-89635874D01*
X116235000Y-89224126D01*
X116186331Y-89106626D01*
X136465000Y-89106626D01*
X136465000Y-89518374D01*
X136622569Y-89898780D01*
X136913720Y-90189931D01*
X137294126Y-90347500D01*
X137705874Y-90347500D01*
X138086280Y-90189931D01*
X138377431Y-89898780D01*
X138400069Y-89844126D01*
X144265000Y-89844126D01*
X144265000Y-90255874D01*
X144422569Y-90636280D01*
X144713720Y-90927431D01*
X145094126Y-91085000D01*
X145505874Y-91085000D01*
X145886280Y-90927431D01*
X146177431Y-90636280D01*
X146335000Y-90255874D01*
X146335000Y-89844126D01*
X146177431Y-89463720D01*
X145886280Y-89172569D01*
X145700727Y-89095711D01*
X145986280Y-88977431D01*
X146277431Y-88686280D01*
X146435000Y-88305874D01*
X146435000Y-87894126D01*
X146277431Y-87513720D01*
X145986280Y-87222569D01*
X145605874Y-87065000D01*
X145194126Y-87065000D01*
X144813720Y-87222569D01*
X144522569Y-87513720D01*
X144365000Y-87894126D01*
X144365000Y-88305874D01*
X144522569Y-88686280D01*
X144813720Y-88977431D01*
X144999273Y-89054289D01*
X144713720Y-89172569D01*
X144422569Y-89463720D01*
X144265000Y-89844126D01*
X138400069Y-89844126D01*
X138535000Y-89518374D01*
X138535000Y-89106626D01*
X138377431Y-88726220D01*
X138086280Y-88435069D01*
X137705874Y-88277500D01*
X137294126Y-88277500D01*
X136913720Y-88435069D01*
X136622569Y-88726220D01*
X136465000Y-89106626D01*
X116186331Y-89106626D01*
X116077431Y-88843720D01*
X115786280Y-88552569D01*
X115550727Y-88455000D01*
X115786280Y-88357431D01*
X116077431Y-88066280D01*
X116190160Y-87794126D01*
X127062842Y-87794126D01*
X127062842Y-88205874D01*
X127220411Y-88586280D01*
X127511562Y-88877431D01*
X127891968Y-89035000D01*
X128303716Y-89035000D01*
X128684122Y-88877431D01*
X128975273Y-88586280D01*
X128997842Y-88531794D01*
X129020411Y-88586280D01*
X129311562Y-88877431D01*
X129691968Y-89035000D01*
X130103716Y-89035000D01*
X130484122Y-88877431D01*
X130775273Y-88586280D01*
X130797842Y-88531794D01*
X130820411Y-88586280D01*
X131111562Y-88877431D01*
X131491968Y-89035000D01*
X131903716Y-89035000D01*
X132284122Y-88877431D01*
X132552219Y-88609334D01*
X132835288Y-88892403D01*
X133215694Y-89049972D01*
X133627442Y-89049972D01*
X134007848Y-88892403D01*
X134298999Y-88601252D01*
X134456568Y-88220846D01*
X134456568Y-87809098D01*
X134298999Y-87428692D01*
X134114433Y-87244126D01*
X138265000Y-87244126D01*
X138265000Y-87655874D01*
X138422569Y-88036280D01*
X138713720Y-88327431D01*
X139094126Y-88485000D01*
X139505874Y-88485000D01*
X139886280Y-88327431D01*
X140177431Y-88036280D01*
X140335000Y-87655874D01*
X140335000Y-87244126D01*
X140177431Y-86863720D01*
X139907837Y-86594126D01*
X147165000Y-86594126D01*
X147165000Y-87005874D01*
X147322569Y-87386280D01*
X147613720Y-87677431D01*
X147994126Y-87835000D01*
X148405874Y-87835000D01*
X148786280Y-87677431D01*
X149077431Y-87386280D01*
X149235000Y-87005874D01*
X149235000Y-86594126D01*
X149077431Y-86213720D01*
X148786280Y-85922569D01*
X148405874Y-85765000D01*
X147994126Y-85765000D01*
X147613720Y-85922569D01*
X147322569Y-86213720D01*
X147165000Y-86594126D01*
X139907837Y-86594126D01*
X139886280Y-86572569D01*
X139505874Y-86415000D01*
X139094126Y-86415000D01*
X138713720Y-86572569D01*
X138422569Y-86863720D01*
X138265000Y-87244126D01*
X134114433Y-87244126D01*
X134007848Y-87137541D01*
X133627442Y-86979972D01*
X133215694Y-86979972D01*
X132835288Y-87137541D01*
X132567191Y-87405638D01*
X132284122Y-87122569D01*
X131903716Y-86965000D01*
X131491968Y-86965000D01*
X131111562Y-87122569D01*
X130820411Y-87413720D01*
X130797842Y-87468206D01*
X130775273Y-87413720D01*
X130484122Y-87122569D01*
X130103716Y-86965000D01*
X129691968Y-86965000D01*
X129311562Y-87122569D01*
X129020411Y-87413720D01*
X128997842Y-87468206D01*
X128975273Y-87413720D01*
X128684122Y-87122569D01*
X128303716Y-86965000D01*
X127891968Y-86965000D01*
X127511562Y-87122569D01*
X127220411Y-87413720D01*
X127062842Y-87794126D01*
X116190160Y-87794126D01*
X116235000Y-87685874D01*
X116235000Y-87274126D01*
X116077431Y-86893720D01*
X115786280Y-86602569D01*
X115405874Y-86445000D01*
X114994126Y-86445000D01*
X114613720Y-86602569D01*
X114322569Y-86893720D01*
X114165000Y-87274126D01*
X113719820Y-87274126D01*
X113716756Y-84574126D01*
X116165000Y-84574126D01*
X116165000Y-84985874D01*
X116322569Y-85366280D01*
X116613720Y-85657431D01*
X116994126Y-85815000D01*
X117405874Y-85815000D01*
X117786280Y-85657431D01*
X118077431Y-85366280D01*
X118235000Y-84985874D01*
X118235000Y-84574126D01*
X118077431Y-84193720D01*
X117786280Y-83902569D01*
X117405874Y-83745000D01*
X116994126Y-83745000D01*
X116613720Y-83902569D01*
X116322569Y-84193720D01*
X116165000Y-84574126D01*
X113716756Y-84574126D01*
X113713317Y-81544126D01*
X123677500Y-81544126D01*
X123677500Y-81955874D01*
X123835069Y-82336280D01*
X124126220Y-82627431D01*
X124506626Y-82785000D01*
X124918374Y-82785000D01*
X125298780Y-82627431D01*
X125589931Y-82336280D01*
X125617747Y-82269126D01*
X139340000Y-82269126D01*
X139340000Y-82680874D01*
X139497569Y-83061280D01*
X139788720Y-83352431D01*
X140169126Y-83510000D01*
X140580874Y-83510000D01*
X140961280Y-83352431D01*
X141252431Y-83061280D01*
X141410000Y-82680874D01*
X141410000Y-82269126D01*
X141252431Y-81888720D01*
X140961280Y-81597569D01*
X140580874Y-81440000D01*
X140169126Y-81440000D01*
X139788720Y-81597569D01*
X139497569Y-81888720D01*
X139340000Y-82269126D01*
X125617747Y-82269126D01*
X125747500Y-81955874D01*
X125747500Y-81544126D01*
X125589931Y-81163720D01*
X125298780Y-80872569D01*
X124918374Y-80715000D01*
X124506626Y-80715000D01*
X124126220Y-80872569D01*
X123835069Y-81163720D01*
X123677500Y-81544126D01*
X113713317Y-81544126D01*
X113712098Y-80469126D01*
X125515000Y-80469126D01*
X125515000Y-80880874D01*
X125672569Y-81261280D01*
X125963720Y-81552431D01*
X126344126Y-81710000D01*
X126755874Y-81710000D01*
X127136280Y-81552431D01*
X127427431Y-81261280D01*
X127585000Y-80880874D01*
X127585000Y-80469126D01*
X127427431Y-80088720D01*
X127136280Y-79797569D01*
X126755874Y-79640000D01*
X126344126Y-79640000D01*
X125963720Y-79797569D01*
X125672569Y-80088720D01*
X125515000Y-80469126D01*
X113712098Y-80469126D01*
X113710026Y-78644126D01*
X123890000Y-78644126D01*
X123890000Y-79055874D01*
X124047569Y-79436280D01*
X124338720Y-79727431D01*
X124719126Y-79885000D01*
X125130874Y-79885000D01*
X125511280Y-79727431D01*
X125802431Y-79436280D01*
X125960000Y-79055874D01*
X125960000Y-78644126D01*
X125802431Y-78263720D01*
X125511280Y-77972569D01*
X125201191Y-77844126D01*
X125940000Y-77844126D01*
X125940000Y-78255874D01*
X126097569Y-78636280D01*
X126388720Y-78927431D01*
X126769126Y-79085000D01*
X127180874Y-79085000D01*
X127561280Y-78927431D01*
X127852431Y-78636280D01*
X128010000Y-78255874D01*
X128010000Y-77844126D01*
X127852431Y-77463720D01*
X127682837Y-77294126D01*
X129815000Y-77294126D01*
X129815000Y-77705874D01*
X129972569Y-78086280D01*
X130263720Y-78377431D01*
X130499273Y-78475000D01*
X130263720Y-78572569D01*
X129972569Y-78863720D01*
X129815000Y-79244126D01*
X129815000Y-79655874D01*
X129972569Y-80036280D01*
X130263720Y-80327431D01*
X130644126Y-80485000D01*
X131055874Y-80485000D01*
X131436280Y-80327431D01*
X131727431Y-80036280D01*
X131885000Y-79655874D01*
X131885000Y-79244126D01*
X131727431Y-78863720D01*
X131436280Y-78572569D01*
X131200727Y-78475000D01*
X131436280Y-78377431D01*
X131727431Y-78086280D01*
X131885000Y-77705874D01*
X131885000Y-77294126D01*
X131727431Y-76913720D01*
X131436280Y-76622569D01*
X131055874Y-76465000D01*
X130644126Y-76465000D01*
X130263720Y-76622569D01*
X129972569Y-76913720D01*
X129815000Y-77294126D01*
X127682837Y-77294126D01*
X127561280Y-77172569D01*
X127180874Y-77015000D01*
X126769126Y-77015000D01*
X126388720Y-77172569D01*
X126097569Y-77463720D01*
X125940000Y-77844126D01*
X125201191Y-77844126D01*
X125130874Y-77815000D01*
X124719126Y-77815000D01*
X124338720Y-77972569D01*
X124047569Y-78263720D01*
X123890000Y-78644126D01*
X113710026Y-78644126D01*
X113706678Y-75694126D01*
X124031330Y-75694126D01*
X124031330Y-76105874D01*
X124188899Y-76486280D01*
X124480050Y-76777431D01*
X124860456Y-76935000D01*
X125272204Y-76935000D01*
X125652610Y-76777431D01*
X125943761Y-76486280D01*
X126101330Y-76105874D01*
X126101330Y-75694126D01*
X125956356Y-75344126D01*
X126990000Y-75344126D01*
X126990000Y-75755874D01*
X127147569Y-76136280D01*
X127438720Y-76427431D01*
X127819126Y-76585000D01*
X128230874Y-76585000D01*
X128611280Y-76427431D01*
X128902431Y-76136280D01*
X128961312Y-75994126D01*
X133115000Y-75994126D01*
X133115000Y-76405874D01*
X133272569Y-76786280D01*
X133563720Y-77077431D01*
X133799273Y-77175000D01*
X133563720Y-77272569D01*
X133272569Y-77563720D01*
X133115000Y-77944126D01*
X133115000Y-78355874D01*
X133272569Y-78736280D01*
X133563720Y-79027431D01*
X133944126Y-79185000D01*
X134355874Y-79185000D01*
X134736280Y-79027431D01*
X135027431Y-78736280D01*
X135086312Y-78594126D01*
X135940000Y-78594126D01*
X135940000Y-79005874D01*
X136097569Y-79386280D01*
X136388720Y-79677431D01*
X136769126Y-79835000D01*
X137180874Y-79835000D01*
X137561280Y-79677431D01*
X137694585Y-79544126D01*
X154322500Y-79544126D01*
X154322500Y-79955874D01*
X154480069Y-80336280D01*
X154771220Y-80627431D01*
X155151626Y-80785000D01*
X155563374Y-80785000D01*
X155943780Y-80627431D01*
X156234931Y-80336280D01*
X156392500Y-79955874D01*
X156392500Y-79544126D01*
X156234931Y-79163720D01*
X155943780Y-78872569D01*
X155563374Y-78715000D01*
X155151626Y-78715000D01*
X154771220Y-78872569D01*
X154480069Y-79163720D01*
X154322500Y-79544126D01*
X137694585Y-79544126D01*
X137852431Y-79386280D01*
X138010000Y-79005874D01*
X138010000Y-78594126D01*
X137852431Y-78213720D01*
X137612837Y-77974126D01*
X167322500Y-77974126D01*
X167322500Y-78385874D01*
X167480069Y-78766280D01*
X167678789Y-78965000D01*
X167480069Y-79163720D01*
X167322500Y-79544126D01*
X167322500Y-79955874D01*
X167480069Y-80336280D01*
X167771220Y-80627431D01*
X168151626Y-80785000D01*
X168563374Y-80785000D01*
X168943780Y-80627431D01*
X169234931Y-80336280D01*
X169392500Y-79955874D01*
X169392500Y-79544126D01*
X178822500Y-79544126D01*
X178822500Y-79955874D01*
X178980069Y-80336280D01*
X179271220Y-80627431D01*
X179651626Y-80785000D01*
X180063374Y-80785000D01*
X180443780Y-80627431D01*
X180734931Y-80336280D01*
X180892500Y-79955874D01*
X180892500Y-79544126D01*
X180734931Y-79163720D01*
X180443780Y-78872569D01*
X180063374Y-78715000D01*
X179651626Y-78715000D01*
X179271220Y-78872569D01*
X178980069Y-79163720D01*
X178822500Y-79544126D01*
X169392500Y-79544126D01*
X169234931Y-79163720D01*
X169036211Y-78965000D01*
X169234931Y-78766280D01*
X169392500Y-78385874D01*
X169392500Y-78103691D01*
X201345000Y-78103691D01*
X201345000Y-78794250D01*
X201503750Y-78953000D01*
X202703000Y-78953000D01*
X202703000Y-77753750D01*
X202957000Y-77753750D01*
X202957000Y-78953000D01*
X202977000Y-78953000D01*
X202977000Y-79207000D01*
X202957000Y-79207000D01*
X202957000Y-80406250D01*
X203115750Y-80565000D01*
X203806310Y-80565000D01*
X204039699Y-80468327D01*
X204218327Y-80289698D01*
X204284904Y-80128967D01*
X204299375Y-80150625D01*
X204790582Y-80478839D01*
X205223744Y-80565000D01*
X205516256Y-80565000D01*
X205949418Y-80478839D01*
X206440625Y-80150625D01*
X206768839Y-79659418D01*
X206884092Y-79080000D01*
X206768839Y-78500582D01*
X206440625Y-78009375D01*
X205949418Y-77681161D01*
X205516256Y-77595000D01*
X205223744Y-77595000D01*
X204790582Y-77681161D01*
X204299375Y-78009375D01*
X204284904Y-78031033D01*
X204218327Y-77870302D01*
X204039699Y-77691673D01*
X203806310Y-77595000D01*
X203115750Y-77595000D01*
X202957000Y-77753750D01*
X202703000Y-77753750D01*
X202544250Y-77595000D01*
X201853690Y-77595000D01*
X201620301Y-77691673D01*
X201441673Y-77870302D01*
X201345000Y-78103691D01*
X169392500Y-78103691D01*
X169392500Y-77974126D01*
X169234931Y-77593720D01*
X168943780Y-77302569D01*
X168563374Y-77145000D01*
X168151626Y-77145000D01*
X167771220Y-77302569D01*
X167480069Y-77593720D01*
X167322500Y-77974126D01*
X137612837Y-77974126D01*
X137561280Y-77922569D01*
X137180874Y-77765000D01*
X136769126Y-77765000D01*
X136388720Y-77922569D01*
X136097569Y-78213720D01*
X135940000Y-78594126D01*
X135086312Y-78594126D01*
X135185000Y-78355874D01*
X135185000Y-77944126D01*
X135027431Y-77563720D01*
X134736280Y-77272569D01*
X134500727Y-77175000D01*
X134736280Y-77077431D01*
X135027431Y-76786280D01*
X135185000Y-76405874D01*
X135185000Y-75994126D01*
X135027431Y-75613720D01*
X134736280Y-75322569D01*
X134355874Y-75165000D01*
X133944126Y-75165000D01*
X133563720Y-75322569D01*
X133272569Y-75613720D01*
X133115000Y-75994126D01*
X128961312Y-75994126D01*
X129060000Y-75755874D01*
X129060000Y-75344126D01*
X128902431Y-74963720D01*
X128611280Y-74672569D01*
X128230874Y-74515000D01*
X127819126Y-74515000D01*
X127438720Y-74672569D01*
X127147569Y-74963720D01*
X126990000Y-75344126D01*
X125956356Y-75344126D01*
X125943761Y-75313720D01*
X125652610Y-75022569D01*
X125272204Y-74865000D01*
X124860456Y-74865000D01*
X124480050Y-75022569D01*
X124188899Y-75313720D01*
X124031330Y-75694126D01*
X113706678Y-75694126D01*
X113704294Y-73594126D01*
X183665000Y-73594126D01*
X183665000Y-74005874D01*
X183822569Y-74386280D01*
X184113720Y-74677431D01*
X184494126Y-74835000D01*
X184905874Y-74835000D01*
X185286280Y-74677431D01*
X185577431Y-74386280D01*
X185650448Y-74210000D01*
X185949552Y-74210000D01*
X186022569Y-74386280D01*
X186313720Y-74677431D01*
X186694126Y-74835000D01*
X187105874Y-74835000D01*
X187486280Y-74677431D01*
X187777431Y-74386280D01*
X187935000Y-74005874D01*
X187935000Y-73594126D01*
X187777431Y-73213720D01*
X187486280Y-72922569D01*
X187105874Y-72765000D01*
X186750448Y-72765000D01*
X186677431Y-72588720D01*
X186386280Y-72297569D01*
X186005874Y-72140000D01*
X185594126Y-72140000D01*
X185213720Y-72297569D01*
X184922569Y-72588720D01*
X184849552Y-72765000D01*
X184494126Y-72765000D01*
X184113720Y-72922569D01*
X183822569Y-73213720D01*
X183665000Y-73594126D01*
X113704294Y-73594126D01*
X113702477Y-71994126D01*
X116165000Y-71994126D01*
X116165000Y-72405874D01*
X116322569Y-72786280D01*
X116613720Y-73077431D01*
X116994126Y-73235000D01*
X117405874Y-73235000D01*
X117786280Y-73077431D01*
X118077431Y-72786280D01*
X118235000Y-72405874D01*
X118235000Y-71994126D01*
X118077431Y-71613720D01*
X117786280Y-71322569D01*
X117405874Y-71165000D01*
X116994126Y-71165000D01*
X116613720Y-71322569D01*
X116322569Y-71613720D01*
X116165000Y-71994126D01*
X113702477Y-71994126D01*
X113700151Y-69944126D01*
X134365000Y-69944126D01*
X134365000Y-70355874D01*
X134522569Y-70736280D01*
X134813720Y-71027431D01*
X135194126Y-71185000D01*
X135605874Y-71185000D01*
X135986280Y-71027431D01*
X136277431Y-70736280D01*
X136435000Y-70355874D01*
X136435000Y-69944126D01*
X136372869Y-69794126D01*
X146615000Y-69794126D01*
X146615000Y-70205874D01*
X146772569Y-70586280D01*
X147063720Y-70877431D01*
X147444126Y-71035000D01*
X147855874Y-71035000D01*
X148236280Y-70877431D01*
X148319585Y-70794126D01*
X148865000Y-70794126D01*
X148865000Y-71205874D01*
X149022569Y-71586280D01*
X149313720Y-71877431D01*
X149694126Y-72035000D01*
X150105874Y-72035000D01*
X150486280Y-71877431D01*
X150777431Y-71586280D01*
X150935000Y-71205874D01*
X150935000Y-70794126D01*
X161965000Y-70794126D01*
X161965000Y-71205874D01*
X162122569Y-71586280D01*
X162413720Y-71877431D01*
X162794126Y-72035000D01*
X163205874Y-72035000D01*
X163586280Y-71877431D01*
X163877431Y-71586280D01*
X164035000Y-71205874D01*
X164035000Y-70794126D01*
X173465000Y-70794126D01*
X173465000Y-71205874D01*
X173622569Y-71586280D01*
X173913720Y-71877431D01*
X174294126Y-72035000D01*
X174705874Y-72035000D01*
X175086280Y-71877431D01*
X175377431Y-71586280D01*
X175535000Y-71205874D01*
X175535000Y-70794126D01*
X182565000Y-70794126D01*
X182565000Y-71205874D01*
X182722569Y-71586280D01*
X183013720Y-71877431D01*
X183394126Y-72035000D01*
X183805874Y-72035000D01*
X184186280Y-71877431D01*
X184477431Y-71586280D01*
X184635000Y-71205874D01*
X184635000Y-70794126D01*
X188465000Y-70794126D01*
X188465000Y-71205874D01*
X188622569Y-71586280D01*
X188913720Y-71877431D01*
X189294126Y-72035000D01*
X189705874Y-72035000D01*
X190086280Y-71877431D01*
X190377431Y-71586280D01*
X190535000Y-71205874D01*
X190535000Y-70794126D01*
X190377431Y-70413720D01*
X190086280Y-70122569D01*
X189705874Y-69965000D01*
X189294126Y-69965000D01*
X188913720Y-70122569D01*
X188622569Y-70413720D01*
X188465000Y-70794126D01*
X184635000Y-70794126D01*
X184477431Y-70413720D01*
X184186280Y-70122569D01*
X183805874Y-69965000D01*
X183394126Y-69965000D01*
X183013720Y-70122569D01*
X182722569Y-70413720D01*
X182565000Y-70794126D01*
X175535000Y-70794126D01*
X175377431Y-70413720D01*
X175086280Y-70122569D01*
X174705874Y-69965000D01*
X174294126Y-69965000D01*
X173913720Y-70122569D01*
X173622569Y-70413720D01*
X173465000Y-70794126D01*
X164035000Y-70794126D01*
X163877431Y-70413720D01*
X163586280Y-70122569D01*
X163205874Y-69965000D01*
X162794126Y-69965000D01*
X162413720Y-70122569D01*
X162122569Y-70413720D01*
X161965000Y-70794126D01*
X150935000Y-70794126D01*
X150777431Y-70413720D01*
X150486280Y-70122569D01*
X150105874Y-69965000D01*
X149694126Y-69965000D01*
X149313720Y-70122569D01*
X149022569Y-70413720D01*
X148865000Y-70794126D01*
X148319585Y-70794126D01*
X148527431Y-70586280D01*
X148685000Y-70205874D01*
X148685000Y-69794126D01*
X148527431Y-69413720D01*
X148236280Y-69122569D01*
X147855874Y-68965000D01*
X147444126Y-68965000D01*
X147063720Y-69122569D01*
X146772569Y-69413720D01*
X146615000Y-69794126D01*
X136372869Y-69794126D01*
X136277431Y-69563720D01*
X135986280Y-69272569D01*
X135605874Y-69115000D01*
X135194126Y-69115000D01*
X134813720Y-69272569D01*
X134522569Y-69563720D01*
X134365000Y-69944126D01*
X113700151Y-69944126D01*
X113695214Y-65594126D01*
X141265000Y-65594126D01*
X141265000Y-66005874D01*
X141422569Y-66386280D01*
X141713720Y-66677431D01*
X142094126Y-66835000D01*
X142505874Y-66835000D01*
X142886280Y-66677431D01*
X143177431Y-66386280D01*
X143335000Y-66005874D01*
X143335000Y-65794126D01*
X144352500Y-65794126D01*
X144352500Y-66205874D01*
X144510069Y-66586280D01*
X144801220Y-66877431D01*
X145181626Y-67035000D01*
X145593374Y-67035000D01*
X145973780Y-66877431D01*
X146264931Y-66586280D01*
X146422500Y-66205874D01*
X146422500Y-65794126D01*
X146264931Y-65413720D01*
X145973780Y-65122569D01*
X145593374Y-64965000D01*
X145181626Y-64965000D01*
X144801220Y-65122569D01*
X144510069Y-65413720D01*
X144352500Y-65794126D01*
X143335000Y-65794126D01*
X143335000Y-65594126D01*
X143177431Y-65213720D01*
X142886280Y-64922569D01*
X142505874Y-64765000D01*
X142094126Y-64765000D01*
X141713720Y-64922569D01*
X141422569Y-65213720D01*
X141265000Y-65594126D01*
X113695214Y-65594126D01*
X113680225Y-52390000D01*
X120245908Y-52390000D01*
X120361161Y-52969418D01*
X120689375Y-53460625D01*
X120987761Y-53660000D01*
X120689375Y-53859375D01*
X120361161Y-54350582D01*
X120245908Y-54930000D01*
X120361161Y-55509418D01*
X120689375Y-56000625D01*
X120987761Y-56200000D01*
X120689375Y-56399375D01*
X120361161Y-56890582D01*
X120245908Y-57470000D01*
X120361161Y-58049418D01*
X120689375Y-58540625D01*
X120987761Y-58740000D01*
X120689375Y-58939375D01*
X120361161Y-59430582D01*
X120245908Y-60010000D01*
X120361161Y-60589418D01*
X120689375Y-61080625D01*
X120987761Y-61280000D01*
X120689375Y-61479375D01*
X120361161Y-61970582D01*
X120245908Y-62550000D01*
X120361161Y-63129418D01*
X120689375Y-63620625D01*
X121180582Y-63948839D01*
X121613744Y-64035000D01*
X121906256Y-64035000D01*
X122339418Y-63948839D01*
X122830625Y-63620625D01*
X123030000Y-63322239D01*
X123229375Y-63620625D01*
X123720582Y-63948839D01*
X124153744Y-64035000D01*
X124446256Y-64035000D01*
X124879418Y-63948839D01*
X125370625Y-63620625D01*
X125698839Y-63129418D01*
X125814092Y-62550000D01*
X125698839Y-61970582D01*
X125370625Y-61479375D01*
X125072239Y-61280000D01*
X125370625Y-61080625D01*
X125698839Y-60589418D01*
X125814092Y-60010000D01*
X125698839Y-59430582D01*
X125551451Y-59210000D01*
X128485908Y-59210000D01*
X128601161Y-59789418D01*
X128929375Y-60280625D01*
X128947619Y-60292816D01*
X128902235Y-60301843D01*
X128692191Y-60442191D01*
X128551843Y-60652235D01*
X128502560Y-60900000D01*
X128502560Y-62600000D01*
X128551843Y-62847765D01*
X128692191Y-63057809D01*
X128902235Y-63198157D01*
X129150000Y-63247440D01*
X130850000Y-63247440D01*
X131097765Y-63198157D01*
X131307809Y-63057809D01*
X131448157Y-62847765D01*
X131457184Y-62802381D01*
X131469375Y-62820625D01*
X131960582Y-63148839D01*
X132393744Y-63235000D01*
X132686256Y-63235000D01*
X133119418Y-63148839D01*
X133610625Y-62820625D01*
X133810000Y-62522239D01*
X134009375Y-62820625D01*
X134500582Y-63148839D01*
X134933744Y-63235000D01*
X135226256Y-63235000D01*
X135659418Y-63148839D01*
X136150625Y-62820625D01*
X136350000Y-62522239D01*
X136549375Y-62820625D01*
X137040582Y-63148839D01*
X137473744Y-63235000D01*
X137766256Y-63235000D01*
X138199418Y-63148839D01*
X138690625Y-62820625D01*
X138890000Y-62522239D01*
X139089375Y-62820625D01*
X139580582Y-63148839D01*
X140013744Y-63235000D01*
X140306256Y-63235000D01*
X140739418Y-63148839D01*
X141230625Y-62820625D01*
X141430000Y-62522239D01*
X141629375Y-62820625D01*
X142120582Y-63148839D01*
X142553744Y-63235000D01*
X142846256Y-63235000D01*
X143279418Y-63148839D01*
X143770625Y-62820625D01*
X143970000Y-62522239D01*
X144169375Y-62820625D01*
X144660582Y-63148839D01*
X145093744Y-63235000D01*
X145386256Y-63235000D01*
X145819418Y-63148839D01*
X146310625Y-62820625D01*
X146510000Y-62522239D01*
X146709375Y-62820625D01*
X147200582Y-63148839D01*
X147633744Y-63235000D01*
X147926256Y-63235000D01*
X148359418Y-63148839D01*
X148850625Y-62820625D01*
X149050000Y-62522239D01*
X149249375Y-62820625D01*
X149740582Y-63148839D01*
X150173744Y-63235000D01*
X150466256Y-63235000D01*
X150899418Y-63148839D01*
X151390625Y-62820625D01*
X151590000Y-62522239D01*
X151789375Y-62820625D01*
X152280582Y-63148839D01*
X152713744Y-63235000D01*
X153006256Y-63235000D01*
X153439418Y-63148839D01*
X153930625Y-62820625D01*
X154130000Y-62522239D01*
X154329375Y-62820625D01*
X154820582Y-63148839D01*
X155253744Y-63235000D01*
X155546256Y-63235000D01*
X155979418Y-63148839D01*
X156470625Y-62820625D01*
X156670000Y-62522239D01*
X156869375Y-62820625D01*
X157360582Y-63148839D01*
X157793744Y-63235000D01*
X158086256Y-63235000D01*
X158519418Y-63148839D01*
X159010625Y-62820625D01*
X159210000Y-62522239D01*
X159409375Y-62820625D01*
X159900582Y-63148839D01*
X160333744Y-63235000D01*
X160626256Y-63235000D01*
X161059418Y-63148839D01*
X161550625Y-62820625D01*
X161750000Y-62522239D01*
X161949375Y-62820625D01*
X162440582Y-63148839D01*
X162873744Y-63235000D01*
X163166256Y-63235000D01*
X163599418Y-63148839D01*
X164090625Y-62820625D01*
X164303843Y-62501522D01*
X164364817Y-62631358D01*
X164793076Y-63021645D01*
X165203110Y-63191476D01*
X165433000Y-63070155D01*
X165433000Y-61877000D01*
X165413000Y-61877000D01*
X165413000Y-61623000D01*
X165433000Y-61623000D01*
X165433000Y-59337000D01*
X165413000Y-59337000D01*
X165413000Y-59083000D01*
X165433000Y-59083000D01*
X165433000Y-57889845D01*
X165687000Y-57889845D01*
X165687000Y-59083000D01*
X165707000Y-59083000D01*
X165707000Y-59337000D01*
X165687000Y-59337000D01*
X165687000Y-61623000D01*
X165707000Y-61623000D01*
X165707000Y-61877000D01*
X165687000Y-61877000D01*
X165687000Y-63070155D01*
X165916890Y-63191476D01*
X166326924Y-63021645D01*
X166755183Y-62631358D01*
X166816157Y-62501522D01*
X167029375Y-62820625D01*
X167520582Y-63148839D01*
X167953744Y-63235000D01*
X168246256Y-63235000D01*
X168679418Y-63148839D01*
X169170625Y-62820625D01*
X169383843Y-62501522D01*
X169444817Y-62631358D01*
X169873076Y-63021645D01*
X170283110Y-63191476D01*
X170513000Y-63070155D01*
X170513000Y-61877000D01*
X170493000Y-61877000D01*
X170493000Y-61623000D01*
X170513000Y-61623000D01*
X170513000Y-59337000D01*
X170493000Y-59337000D01*
X170493000Y-59083000D01*
X170513000Y-59083000D01*
X170513000Y-57889845D01*
X170767000Y-57889845D01*
X170767000Y-59083000D01*
X170787000Y-59083000D01*
X170787000Y-59337000D01*
X170767000Y-59337000D01*
X170767000Y-61623000D01*
X170787000Y-61623000D01*
X170787000Y-61877000D01*
X170767000Y-61877000D01*
X170767000Y-63070155D01*
X170996890Y-63191476D01*
X171406924Y-63021645D01*
X171835183Y-62631358D01*
X171896157Y-62501522D01*
X172109375Y-62820625D01*
X172600582Y-63148839D01*
X173033744Y-63235000D01*
X173326256Y-63235000D01*
X173759418Y-63148839D01*
X174250625Y-62820625D01*
X174450000Y-62522239D01*
X174649375Y-62820625D01*
X175140582Y-63148839D01*
X175573744Y-63235000D01*
X175866256Y-63235000D01*
X176299418Y-63148839D01*
X176790625Y-62820625D01*
X176990000Y-62522239D01*
X177189375Y-62820625D01*
X177680582Y-63148839D01*
X178113744Y-63235000D01*
X178406256Y-63235000D01*
X178839418Y-63148839D01*
X179330625Y-62820625D01*
X179530000Y-62522239D01*
X179729375Y-62820625D01*
X180220582Y-63148839D01*
X180653744Y-63235000D01*
X180946256Y-63235000D01*
X181379418Y-63148839D01*
X181870625Y-62820625D01*
X182070000Y-62522239D01*
X182269375Y-62820625D01*
X182760582Y-63148839D01*
X183193744Y-63235000D01*
X183486256Y-63235000D01*
X183919418Y-63148839D01*
X184410625Y-62820625D01*
X184610000Y-62522239D01*
X184809375Y-62820625D01*
X185300582Y-63148839D01*
X185733744Y-63235000D01*
X186026256Y-63235000D01*
X186459418Y-63148839D01*
X186950625Y-62820625D01*
X187150000Y-62522239D01*
X187349375Y-62820625D01*
X187840582Y-63148839D01*
X188273744Y-63235000D01*
X188566256Y-63235000D01*
X188999418Y-63148839D01*
X189490625Y-62820625D01*
X189690000Y-62522239D01*
X189889375Y-62820625D01*
X190380582Y-63148839D01*
X190813744Y-63235000D01*
X191106256Y-63235000D01*
X191539418Y-63148839D01*
X192030625Y-62820625D01*
X192230000Y-62522239D01*
X192429375Y-62820625D01*
X192920582Y-63148839D01*
X193353744Y-63235000D01*
X193646256Y-63235000D01*
X194079418Y-63148839D01*
X194570625Y-62820625D01*
X194770000Y-62522239D01*
X194969375Y-62820625D01*
X195460582Y-63148839D01*
X195893744Y-63235000D01*
X196186256Y-63235000D01*
X196619418Y-63148839D01*
X197110625Y-62820625D01*
X197310000Y-62522239D01*
X197509375Y-62820625D01*
X198000582Y-63148839D01*
X198433744Y-63235000D01*
X198726256Y-63235000D01*
X199159418Y-63148839D01*
X199650625Y-62820625D01*
X199850000Y-62522239D01*
X200049375Y-62820625D01*
X200540582Y-63148839D01*
X200973744Y-63235000D01*
X201266256Y-63235000D01*
X201699418Y-63148839D01*
X202190625Y-62820625D01*
X202390000Y-62522239D01*
X202589375Y-62820625D01*
X203080582Y-63148839D01*
X203513744Y-63235000D01*
X203806256Y-63235000D01*
X204239418Y-63148839D01*
X204730625Y-62820625D01*
X204930000Y-62522239D01*
X205129375Y-62820625D01*
X205620582Y-63148839D01*
X206053744Y-63235000D01*
X206346256Y-63235000D01*
X206779418Y-63148839D01*
X207270625Y-62820625D01*
X207470000Y-62522239D01*
X207669375Y-62820625D01*
X208160582Y-63148839D01*
X208593744Y-63235000D01*
X208886256Y-63235000D01*
X209319418Y-63148839D01*
X209810625Y-62820625D01*
X210138839Y-62329418D01*
X210254092Y-61750000D01*
X210237508Y-61666626D01*
X245195000Y-61666626D01*
X245195000Y-62078374D01*
X245352569Y-62458780D01*
X245643720Y-62749931D01*
X246024126Y-62907500D01*
X246435874Y-62907500D01*
X246816280Y-62749931D01*
X247107431Y-62458780D01*
X247265000Y-62078374D01*
X247265000Y-61666626D01*
X247107431Y-61286220D01*
X246816280Y-60995069D01*
X246435874Y-60837500D01*
X246024126Y-60837500D01*
X245643720Y-60995069D01*
X245352569Y-61286220D01*
X245195000Y-61666626D01*
X210237508Y-61666626D01*
X210138839Y-61170582D01*
X209810625Y-60679375D01*
X209512239Y-60480000D01*
X209810625Y-60280625D01*
X210138839Y-59789418D01*
X210254092Y-59210000D01*
X210191261Y-58894126D01*
X245027500Y-58894126D01*
X245027500Y-59305874D01*
X245185069Y-59686280D01*
X245476220Y-59977431D01*
X245856626Y-60135000D01*
X246268374Y-60135000D01*
X246648780Y-59977431D01*
X246939931Y-59686280D01*
X247097500Y-59305874D01*
X247097500Y-58894126D01*
X246939931Y-58513720D01*
X246845337Y-58419126D01*
X254465000Y-58419126D01*
X254465000Y-58830874D01*
X254622569Y-59211280D01*
X254913720Y-59502431D01*
X255294126Y-59660000D01*
X255705874Y-59660000D01*
X256086280Y-59502431D01*
X256377431Y-59211280D01*
X256535000Y-58830874D01*
X256535000Y-58419126D01*
X256377431Y-58038720D01*
X256086280Y-57747569D01*
X255705874Y-57590000D01*
X255294126Y-57590000D01*
X254913720Y-57747569D01*
X254622569Y-58038720D01*
X254465000Y-58419126D01*
X246845337Y-58419126D01*
X246648780Y-58222569D01*
X246268374Y-58065000D01*
X245856626Y-58065000D01*
X245476220Y-58222569D01*
X245185069Y-58513720D01*
X245027500Y-58894126D01*
X210191261Y-58894126D01*
X210138839Y-58630582D01*
X209810625Y-58139375D01*
X209319418Y-57811161D01*
X208886256Y-57725000D01*
X208593744Y-57725000D01*
X208160582Y-57811161D01*
X207669375Y-58139375D01*
X207470000Y-58437761D01*
X207270625Y-58139375D01*
X206779418Y-57811161D01*
X206346256Y-57725000D01*
X206053744Y-57725000D01*
X205620582Y-57811161D01*
X205129375Y-58139375D01*
X204930000Y-58437761D01*
X204730625Y-58139375D01*
X204239418Y-57811161D01*
X203806256Y-57725000D01*
X203513744Y-57725000D01*
X203080582Y-57811161D01*
X202589375Y-58139375D01*
X202390000Y-58437761D01*
X202190625Y-58139375D01*
X201699418Y-57811161D01*
X201266256Y-57725000D01*
X200973744Y-57725000D01*
X200540582Y-57811161D01*
X200049375Y-58139375D01*
X199850000Y-58437761D01*
X199650625Y-58139375D01*
X199159418Y-57811161D01*
X198726256Y-57725000D01*
X198433744Y-57725000D01*
X198000582Y-57811161D01*
X197509375Y-58139375D01*
X197310000Y-58437761D01*
X197110625Y-58139375D01*
X196619418Y-57811161D01*
X196186256Y-57725000D01*
X195893744Y-57725000D01*
X195460582Y-57811161D01*
X194969375Y-58139375D01*
X194770000Y-58437761D01*
X194570625Y-58139375D01*
X194079418Y-57811161D01*
X193646256Y-57725000D01*
X193353744Y-57725000D01*
X192920582Y-57811161D01*
X192429375Y-58139375D01*
X192230000Y-58437761D01*
X192030625Y-58139375D01*
X191539418Y-57811161D01*
X191106256Y-57725000D01*
X190813744Y-57725000D01*
X190380582Y-57811161D01*
X189889375Y-58139375D01*
X189690000Y-58437761D01*
X189490625Y-58139375D01*
X188999418Y-57811161D01*
X188566256Y-57725000D01*
X188273744Y-57725000D01*
X187840582Y-57811161D01*
X187349375Y-58139375D01*
X187150000Y-58437761D01*
X186950625Y-58139375D01*
X186459418Y-57811161D01*
X186026256Y-57725000D01*
X185733744Y-57725000D01*
X185300582Y-57811161D01*
X184809375Y-58139375D01*
X184610000Y-58437761D01*
X184410625Y-58139375D01*
X183919418Y-57811161D01*
X183486256Y-57725000D01*
X183193744Y-57725000D01*
X182760582Y-57811161D01*
X182269375Y-58139375D01*
X182070000Y-58437761D01*
X181870625Y-58139375D01*
X181379418Y-57811161D01*
X180946256Y-57725000D01*
X180653744Y-57725000D01*
X180220582Y-57811161D01*
X179729375Y-58139375D01*
X179530000Y-58437761D01*
X179330625Y-58139375D01*
X178839418Y-57811161D01*
X178406256Y-57725000D01*
X178113744Y-57725000D01*
X177680582Y-57811161D01*
X177189375Y-58139375D01*
X176990000Y-58437761D01*
X176790625Y-58139375D01*
X176299418Y-57811161D01*
X175866256Y-57725000D01*
X175573744Y-57725000D01*
X175140582Y-57811161D01*
X174649375Y-58139375D01*
X174450000Y-58437761D01*
X174250625Y-58139375D01*
X173759418Y-57811161D01*
X173326256Y-57725000D01*
X173033744Y-57725000D01*
X172600582Y-57811161D01*
X172109375Y-58139375D01*
X171896157Y-58458478D01*
X171835183Y-58328642D01*
X171406924Y-57938355D01*
X170996890Y-57768524D01*
X170767000Y-57889845D01*
X170513000Y-57889845D01*
X170283110Y-57768524D01*
X169873076Y-57938355D01*
X169444817Y-58328642D01*
X169383843Y-58458478D01*
X169170625Y-58139375D01*
X168679418Y-57811161D01*
X168246256Y-57725000D01*
X167953744Y-57725000D01*
X167520582Y-57811161D01*
X167029375Y-58139375D01*
X166816157Y-58458478D01*
X166755183Y-58328642D01*
X166326924Y-57938355D01*
X165916890Y-57768524D01*
X165687000Y-57889845D01*
X165433000Y-57889845D01*
X165203110Y-57768524D01*
X164793076Y-57938355D01*
X164364817Y-58328642D01*
X164303843Y-58458478D01*
X164090625Y-58139375D01*
X163599418Y-57811161D01*
X163166256Y-57725000D01*
X162873744Y-57725000D01*
X162440582Y-57811161D01*
X161949375Y-58139375D01*
X161750000Y-58437761D01*
X161550625Y-58139375D01*
X161059418Y-57811161D01*
X160626256Y-57725000D01*
X160333744Y-57725000D01*
X159900582Y-57811161D01*
X159409375Y-58139375D01*
X159210000Y-58437761D01*
X159010625Y-58139375D01*
X158519418Y-57811161D01*
X158086256Y-57725000D01*
X157793744Y-57725000D01*
X157360582Y-57811161D01*
X156869375Y-58139375D01*
X156670000Y-58437761D01*
X156470625Y-58139375D01*
X155979418Y-57811161D01*
X155546256Y-57725000D01*
X155253744Y-57725000D01*
X154820582Y-57811161D01*
X154329375Y-58139375D01*
X154130000Y-58437761D01*
X153930625Y-58139375D01*
X153439418Y-57811161D01*
X153006256Y-57725000D01*
X152713744Y-57725000D01*
X152280582Y-57811161D01*
X151789375Y-58139375D01*
X151590000Y-58437761D01*
X151390625Y-58139375D01*
X150899418Y-57811161D01*
X150466256Y-57725000D01*
X150173744Y-57725000D01*
X149740582Y-57811161D01*
X149249375Y-58139375D01*
X149050000Y-58437761D01*
X148850625Y-58139375D01*
X148359418Y-57811161D01*
X147926256Y-57725000D01*
X147633744Y-57725000D01*
X147200582Y-57811161D01*
X146709375Y-58139375D01*
X146510000Y-58437761D01*
X146310625Y-58139375D01*
X145819418Y-57811161D01*
X145386256Y-57725000D01*
X145093744Y-57725000D01*
X144660582Y-57811161D01*
X144169375Y-58139375D01*
X143970000Y-58437761D01*
X143770625Y-58139375D01*
X143279418Y-57811161D01*
X142846256Y-57725000D01*
X142553744Y-57725000D01*
X142120582Y-57811161D01*
X141629375Y-58139375D01*
X141430000Y-58437761D01*
X141230625Y-58139375D01*
X140739418Y-57811161D01*
X140306256Y-57725000D01*
X140013744Y-57725000D01*
X139580582Y-57811161D01*
X139089375Y-58139375D01*
X138890000Y-58437761D01*
X138690625Y-58139375D01*
X138199418Y-57811161D01*
X137766256Y-57725000D01*
X137473744Y-57725000D01*
X137040582Y-57811161D01*
X136549375Y-58139375D01*
X136350000Y-58437761D01*
X136150625Y-58139375D01*
X135659418Y-57811161D01*
X135226256Y-57725000D01*
X134933744Y-57725000D01*
X134500582Y-57811161D01*
X134009375Y-58139375D01*
X133810000Y-58437761D01*
X133610625Y-58139375D01*
X133119418Y-57811161D01*
X132686256Y-57725000D01*
X132393744Y-57725000D01*
X131960582Y-57811161D01*
X131469375Y-58139375D01*
X131270000Y-58437761D01*
X131070625Y-58139375D01*
X130579418Y-57811161D01*
X130146256Y-57725000D01*
X129853744Y-57725000D01*
X129420582Y-57811161D01*
X128929375Y-58139375D01*
X128601161Y-58630582D01*
X128485908Y-59210000D01*
X125551451Y-59210000D01*
X125370625Y-58939375D01*
X125072239Y-58740000D01*
X125370625Y-58540625D01*
X125698839Y-58049418D01*
X125814092Y-57470000D01*
X125698839Y-56890582D01*
X125370625Y-56399375D01*
X125072239Y-56200000D01*
X125370625Y-56000625D01*
X125698839Y-55509418D01*
X125814092Y-54930000D01*
X125698839Y-54350582D01*
X125370625Y-53859375D01*
X125072239Y-53660000D01*
X125370625Y-53460625D01*
X125698839Y-52969418D01*
X125814092Y-52390000D01*
X125698839Y-51810582D01*
X125370625Y-51319375D01*
X125348967Y-51304904D01*
X125509698Y-51238327D01*
X125688327Y-51059699D01*
X125785000Y-50826310D01*
X125785000Y-50135750D01*
X125643376Y-49994126D01*
X144090000Y-49994126D01*
X144090000Y-50405874D01*
X144247569Y-50786280D01*
X144538720Y-51077431D01*
X144919126Y-51235000D01*
X145330874Y-51235000D01*
X145711280Y-51077431D01*
X146002431Y-50786280D01*
X146040602Y-50694126D01*
X149815000Y-50694126D01*
X149815000Y-51105874D01*
X149972569Y-51486280D01*
X150263720Y-51777431D01*
X150644126Y-51935000D01*
X151055874Y-51935000D01*
X151436280Y-51777431D01*
X151727431Y-51486280D01*
X151885000Y-51105874D01*
X151885000Y-50694126D01*
X151727431Y-50313720D01*
X151436280Y-50022569D01*
X151126191Y-49894126D01*
X179665000Y-49894126D01*
X179665000Y-50305874D01*
X179822569Y-50686280D01*
X180113720Y-50977431D01*
X180494126Y-51135000D01*
X180905874Y-51135000D01*
X181248229Y-50993192D01*
X181165000Y-51194126D01*
X181165000Y-51605874D01*
X181322569Y-51986280D01*
X181613720Y-52277431D01*
X181994126Y-52435000D01*
X182405874Y-52435000D01*
X182786280Y-52277431D01*
X183077431Y-51986280D01*
X183235000Y-51605874D01*
X183235000Y-51194126D01*
X183077431Y-50813720D01*
X182786280Y-50522569D01*
X182550727Y-50425000D01*
X182786280Y-50327431D01*
X183077431Y-50036280D01*
X183235000Y-49655874D01*
X183235000Y-49244126D01*
X183077431Y-48863720D01*
X182807837Y-48594126D01*
X183965000Y-48594126D01*
X183965000Y-49005874D01*
X184122569Y-49386280D01*
X184413720Y-49677431D01*
X184649273Y-49775000D01*
X184413720Y-49872569D01*
X184122569Y-50163720D01*
X183965000Y-50544126D01*
X183965000Y-50955874D01*
X184122569Y-51336280D01*
X184413720Y-51627431D01*
X184649273Y-51725000D01*
X184413720Y-51822569D01*
X184122569Y-52113720D01*
X183965000Y-52494126D01*
X183965000Y-52905874D01*
X184122569Y-53286280D01*
X184413720Y-53577431D01*
X184794126Y-53735000D01*
X185205874Y-53735000D01*
X185586280Y-53577431D01*
X185877431Y-53286280D01*
X185980328Y-53037864D01*
X186094126Y-53085000D01*
X186505874Y-53085000D01*
X186886280Y-52927431D01*
X187177431Y-52636280D01*
X187335000Y-52255874D01*
X187335000Y-51895580D01*
X187372569Y-51986280D01*
X187663720Y-52277431D01*
X188044126Y-52435000D01*
X188455874Y-52435000D01*
X188836280Y-52277431D01*
X189127431Y-51986280D01*
X189285000Y-51605874D01*
X189285000Y-51194126D01*
X189127431Y-50813720D01*
X188836280Y-50522569D01*
X188600727Y-50425000D01*
X188836280Y-50327431D01*
X189127431Y-50036280D01*
X189186312Y-49894126D01*
X190015000Y-49894126D01*
X190015000Y-50305874D01*
X190172569Y-50686280D01*
X190463720Y-50977431D01*
X190699273Y-51075000D01*
X190463720Y-51172569D01*
X190172569Y-51463720D01*
X190015000Y-51844126D01*
X190015000Y-52255874D01*
X190172569Y-52636280D01*
X190463720Y-52927431D01*
X190844126Y-53085000D01*
X190939196Y-53085000D01*
X191022569Y-53286280D01*
X191313720Y-53577431D01*
X191694126Y-53735000D01*
X192105874Y-53735000D01*
X192415796Y-53606626D01*
X254005000Y-53606626D01*
X254005000Y-54018374D01*
X254162569Y-54398780D01*
X254453720Y-54689931D01*
X254834126Y-54847500D01*
X255245874Y-54847500D01*
X255626280Y-54689931D01*
X255917431Y-54398780D01*
X256075000Y-54018374D01*
X256075000Y-53606626D01*
X255917431Y-53226220D01*
X255626280Y-52935069D01*
X255245874Y-52777500D01*
X254834126Y-52777500D01*
X254453720Y-52935069D01*
X254162569Y-53226220D01*
X254005000Y-53606626D01*
X192415796Y-53606626D01*
X192486280Y-53577431D01*
X192777431Y-53286280D01*
X192935000Y-52905874D01*
X192935000Y-52494126D01*
X192777431Y-52113720D01*
X192486280Y-51822569D01*
X192105874Y-51665000D01*
X192010804Y-51665000D01*
X191927431Y-51463720D01*
X191636280Y-51172569D01*
X191400727Y-51075000D01*
X191636280Y-50977431D01*
X191927431Y-50686280D01*
X191986312Y-50544126D01*
X192965000Y-50544126D01*
X192965000Y-50955874D01*
X193122569Y-51336280D01*
X193413720Y-51627431D01*
X193794126Y-51785000D01*
X194205874Y-51785000D01*
X194586280Y-51627431D01*
X194877431Y-51336280D01*
X195035000Y-50955874D01*
X195035000Y-50544126D01*
X194877431Y-50163720D01*
X194586280Y-49872569D01*
X194205874Y-49715000D01*
X193794126Y-49715000D01*
X193413720Y-49872569D01*
X193122569Y-50163720D01*
X192965000Y-50544126D01*
X191986312Y-50544126D01*
X192085000Y-50305874D01*
X192085000Y-49894126D01*
X191927431Y-49513720D01*
X191636280Y-49222569D01*
X191255874Y-49065000D01*
X190844126Y-49065000D01*
X190463720Y-49222569D01*
X190172569Y-49513720D01*
X190015000Y-49894126D01*
X189186312Y-49894126D01*
X189285000Y-49655874D01*
X189285000Y-49244126D01*
X189127431Y-48863720D01*
X188836280Y-48572569D01*
X188455874Y-48415000D01*
X188044126Y-48415000D01*
X187663720Y-48572569D01*
X187372569Y-48863720D01*
X187215000Y-49244126D01*
X187215000Y-49655874D01*
X187372569Y-50036280D01*
X187663720Y-50327431D01*
X187899273Y-50425000D01*
X187663720Y-50522569D01*
X187372569Y-50813720D01*
X187215000Y-51194126D01*
X187215000Y-51554420D01*
X187177431Y-51463720D01*
X186886280Y-51172569D01*
X186505874Y-51015000D01*
X186094126Y-51015000D01*
X185993192Y-51056808D01*
X186035000Y-50955874D01*
X186035000Y-50544126D01*
X185877431Y-50163720D01*
X185586280Y-49872569D01*
X185350727Y-49775000D01*
X185586280Y-49677431D01*
X185877431Y-49386280D01*
X186035000Y-49005874D01*
X186035000Y-48594126D01*
X185877431Y-48213720D01*
X185586280Y-47922569D01*
X185205874Y-47765000D01*
X184794126Y-47765000D01*
X184413720Y-47922569D01*
X184122569Y-48213720D01*
X183965000Y-48594126D01*
X182807837Y-48594126D01*
X182786280Y-48572569D01*
X182405874Y-48415000D01*
X181994126Y-48415000D01*
X181613720Y-48572569D01*
X181322569Y-48863720D01*
X181190383Y-49182847D01*
X180905874Y-49065000D01*
X180494126Y-49065000D01*
X180113720Y-49222569D01*
X179822569Y-49513720D01*
X179665000Y-49894126D01*
X151126191Y-49894126D01*
X151055874Y-49865000D01*
X150644126Y-49865000D01*
X150263720Y-50022569D01*
X149972569Y-50313720D01*
X149815000Y-50694126D01*
X146040602Y-50694126D01*
X146160000Y-50405874D01*
X146160000Y-49994126D01*
X146002431Y-49613720D01*
X145711280Y-49322569D01*
X145330874Y-49165000D01*
X144919126Y-49165000D01*
X144538720Y-49322569D01*
X144247569Y-49613720D01*
X144090000Y-49994126D01*
X125643376Y-49994126D01*
X125626250Y-49977000D01*
X124427000Y-49977000D01*
X124427000Y-49997000D01*
X124173000Y-49997000D01*
X124173000Y-49977000D01*
X121887000Y-49977000D01*
X121887000Y-49997000D01*
X121633000Y-49997000D01*
X121633000Y-49977000D01*
X120439845Y-49977000D01*
X120318524Y-50206890D01*
X120488355Y-50616924D01*
X120878642Y-51045183D01*
X121008478Y-51106157D01*
X120689375Y-51319375D01*
X120361161Y-51810582D01*
X120245908Y-52390000D01*
X113680225Y-52390000D01*
X113676937Y-49493110D01*
X120318524Y-49493110D01*
X120439845Y-49723000D01*
X121633000Y-49723000D01*
X121633000Y-48529181D01*
X121887000Y-48529181D01*
X121887000Y-49723000D01*
X124173000Y-49723000D01*
X124173000Y-48523750D01*
X124427000Y-48523750D01*
X124427000Y-49723000D01*
X125626250Y-49723000D01*
X125785000Y-49564250D01*
X125785000Y-48873690D01*
X125688327Y-48640301D01*
X125509698Y-48461673D01*
X125276309Y-48365000D01*
X124585750Y-48365000D01*
X124427000Y-48523750D01*
X124173000Y-48523750D01*
X124014250Y-48365000D01*
X123323691Y-48365000D01*
X123090302Y-48461673D01*
X122911673Y-48640301D01*
X122823070Y-48854208D01*
X122641358Y-48654817D01*
X122116892Y-48408514D01*
X121887000Y-48529181D01*
X121633000Y-48529181D01*
X121403108Y-48408514D01*
X120878642Y-48654817D01*
X120488355Y-49083076D01*
X120318524Y-49493110D01*
X113676937Y-49493110D01*
X113674555Y-47394126D01*
X138217400Y-47394126D01*
X138217400Y-47805874D01*
X138374969Y-48186280D01*
X138666120Y-48477431D01*
X139046526Y-48635000D01*
X139458274Y-48635000D01*
X139838680Y-48477431D01*
X140129831Y-48186280D01*
X140287400Y-47805874D01*
X140287400Y-47394126D01*
X140129831Y-47013720D01*
X139838680Y-46722569D01*
X139458274Y-46565000D01*
X139046526Y-46565000D01*
X138666120Y-46722569D01*
X138374969Y-47013720D01*
X138217400Y-47394126D01*
X113674555Y-47394126D01*
X113672599Y-45671168D01*
X124165000Y-45671168D01*
X124165000Y-46082916D01*
X124322569Y-46463322D01*
X124613720Y-46754473D01*
X124994126Y-46912042D01*
X125405874Y-46912042D01*
X125786280Y-46754473D01*
X126077431Y-46463322D01*
X126235000Y-46082916D01*
X126235000Y-45671168D01*
X126077431Y-45290762D01*
X125786280Y-44999611D01*
X125405874Y-44842042D01*
X124994126Y-44842042D01*
X124613720Y-44999611D01*
X124322569Y-45290762D01*
X124165000Y-45671168D01*
X113672599Y-45671168D01*
X113669232Y-42704500D01*
X124165000Y-42704500D01*
X124165000Y-43116248D01*
X124322569Y-43496654D01*
X124613720Y-43787805D01*
X124994126Y-43945374D01*
X125405874Y-43945374D01*
X125786280Y-43787805D01*
X126077431Y-43496654D01*
X126235000Y-43116248D01*
X126235000Y-42704500D01*
X126077431Y-42324094D01*
X125786280Y-42032943D01*
X125405874Y-41875374D01*
X124994126Y-41875374D01*
X124613720Y-42032943D01*
X124322569Y-42324094D01*
X124165000Y-42704500D01*
X113669232Y-42704500D01*
X113665865Y-39737834D01*
X124165000Y-39737834D01*
X124165000Y-40149582D01*
X124322569Y-40529988D01*
X124613720Y-40821139D01*
X124994126Y-40978708D01*
X125405874Y-40978708D01*
X125786280Y-40821139D01*
X126077431Y-40529988D01*
X126235000Y-40149582D01*
X126235000Y-39737834D01*
X126077431Y-39357428D01*
X125786280Y-39066277D01*
X125405874Y-38908708D01*
X124994126Y-38908708D01*
X124613720Y-39066277D01*
X124322569Y-39357428D01*
X124165000Y-39737834D01*
X113665865Y-39737834D01*
X113662498Y-36771168D01*
X124165000Y-36771168D01*
X124165000Y-37182916D01*
X124322569Y-37563322D01*
X124613720Y-37854473D01*
X124994126Y-38012042D01*
X125405874Y-38012042D01*
X125786280Y-37854473D01*
X126077431Y-37563322D01*
X126235000Y-37182916D01*
X126235000Y-36771168D01*
X126077431Y-36390762D01*
X125786280Y-36099611D01*
X125405874Y-35942042D01*
X124994126Y-35942042D01*
X124613720Y-36099611D01*
X124322569Y-36390762D01*
X124165000Y-36771168D01*
X113662498Y-36771168D01*
X113644368Y-20800000D01*
X120385908Y-20800000D01*
X120501161Y-21379418D01*
X120829375Y-21870625D01*
X121127761Y-22070000D01*
X120829375Y-22269375D01*
X120501161Y-22760582D01*
X120385908Y-23340000D01*
X120501161Y-23919418D01*
X120829375Y-24410625D01*
X121127761Y-24610000D01*
X120829375Y-24809375D01*
X120501161Y-25300582D01*
X120385908Y-25880000D01*
X120501161Y-26459418D01*
X120829375Y-26950625D01*
X121127761Y-27150000D01*
X120829375Y-27349375D01*
X120501161Y-27840582D01*
X120385908Y-28420000D01*
X120501161Y-28999418D01*
X120829375Y-29490625D01*
X121127761Y-29690000D01*
X120829375Y-29889375D01*
X120501161Y-30380582D01*
X120385908Y-30960000D01*
X120501161Y-31539418D01*
X120829375Y-32030625D01*
X120847619Y-32042816D01*
X120802235Y-32051843D01*
X120592191Y-32192191D01*
X120451843Y-32402235D01*
X120402560Y-32650000D01*
X120402560Y-34350000D01*
X120451843Y-34597765D01*
X120592191Y-34807809D01*
X120802235Y-34948157D01*
X121050000Y-34997440D01*
X122750000Y-34997440D01*
X122997765Y-34948157D01*
X123207809Y-34807809D01*
X123348157Y-34597765D01*
X123397440Y-34350000D01*
X123397440Y-32650000D01*
X123348157Y-32402235D01*
X123207809Y-32192191D01*
X122997765Y-32051843D01*
X122952381Y-32042816D01*
X122970625Y-32030625D01*
X123298839Y-31539418D01*
X123414092Y-30960000D01*
X123298839Y-30380582D01*
X122970625Y-29889375D01*
X122672239Y-29690000D01*
X122970625Y-29490625D01*
X123298839Y-28999418D01*
X123414092Y-28420000D01*
X123298839Y-27840582D01*
X123044543Y-27460000D01*
X128485908Y-27460000D01*
X128601161Y-28039418D01*
X128929375Y-28530625D01*
X128947619Y-28542816D01*
X128902235Y-28551843D01*
X128692191Y-28692191D01*
X128551843Y-28902235D01*
X128502560Y-29150000D01*
X128502560Y-30850000D01*
X128551843Y-31097765D01*
X128692191Y-31307809D01*
X128902235Y-31448157D01*
X129150000Y-31497440D01*
X130850000Y-31497440D01*
X131097765Y-31448157D01*
X131307809Y-31307809D01*
X131448157Y-31097765D01*
X131457184Y-31052381D01*
X131469375Y-31070625D01*
X131960582Y-31398839D01*
X132393744Y-31485000D01*
X132686256Y-31485000D01*
X133119418Y-31398839D01*
X133610625Y-31070625D01*
X133810000Y-30772239D01*
X134009375Y-31070625D01*
X134500582Y-31398839D01*
X134933744Y-31485000D01*
X135226256Y-31485000D01*
X135659418Y-31398839D01*
X136150625Y-31070625D01*
X136350000Y-30772239D01*
X136549375Y-31070625D01*
X137040582Y-31398839D01*
X137473744Y-31485000D01*
X137766256Y-31485000D01*
X138199418Y-31398839D01*
X138690625Y-31070625D01*
X138890000Y-30772239D01*
X139089375Y-31070625D01*
X139580582Y-31398839D01*
X140013744Y-31485000D01*
X140306256Y-31485000D01*
X140739418Y-31398839D01*
X141230625Y-31070625D01*
X141430000Y-30772239D01*
X141629375Y-31070625D01*
X142120582Y-31398839D01*
X142553744Y-31485000D01*
X142846256Y-31485000D01*
X143279418Y-31398839D01*
X143770625Y-31070625D01*
X143970000Y-30772239D01*
X144169375Y-31070625D01*
X144660582Y-31398839D01*
X145093744Y-31485000D01*
X145386256Y-31485000D01*
X145819418Y-31398839D01*
X146310625Y-31070625D01*
X146510000Y-30772239D01*
X146709375Y-31070625D01*
X147200582Y-31398839D01*
X147633744Y-31485000D01*
X147926256Y-31485000D01*
X148359418Y-31398839D01*
X148850625Y-31070625D01*
X149050000Y-30772239D01*
X149249375Y-31070625D01*
X149740582Y-31398839D01*
X150173744Y-31485000D01*
X150466256Y-31485000D01*
X150899418Y-31398839D01*
X151390625Y-31070625D01*
X151590000Y-30772239D01*
X151789375Y-31070625D01*
X152280582Y-31398839D01*
X152713744Y-31485000D01*
X153006256Y-31485000D01*
X153439418Y-31398839D01*
X153930625Y-31070625D01*
X154130000Y-30772239D01*
X154329375Y-31070625D01*
X154820582Y-31398839D01*
X155253744Y-31485000D01*
X155546256Y-31485000D01*
X155979418Y-31398839D01*
X156470625Y-31070625D01*
X156670000Y-30772239D01*
X156869375Y-31070625D01*
X157360582Y-31398839D01*
X157793744Y-31485000D01*
X158086256Y-31485000D01*
X158519418Y-31398839D01*
X159010625Y-31070625D01*
X159210000Y-30772239D01*
X159409375Y-31070625D01*
X159900582Y-31398839D01*
X160333744Y-31485000D01*
X160626256Y-31485000D01*
X161059418Y-31398839D01*
X161550625Y-31070625D01*
X161750000Y-30772239D01*
X161949375Y-31070625D01*
X162440582Y-31398839D01*
X162873744Y-31485000D01*
X163166256Y-31485000D01*
X163599418Y-31398839D01*
X164090625Y-31070625D01*
X164290000Y-30772239D01*
X164489375Y-31070625D01*
X164980582Y-31398839D01*
X165413744Y-31485000D01*
X165706256Y-31485000D01*
X166139418Y-31398839D01*
X166630625Y-31070625D01*
X166843843Y-30751522D01*
X166904817Y-30881358D01*
X167333076Y-31271645D01*
X167743110Y-31441476D01*
X167973000Y-31320155D01*
X167973000Y-30127000D01*
X167953000Y-30127000D01*
X167953000Y-29873000D01*
X167973000Y-29873000D01*
X167973000Y-27587000D01*
X167953000Y-27587000D01*
X167953000Y-27333000D01*
X167973000Y-27333000D01*
X167973000Y-26139845D01*
X168227000Y-26139845D01*
X168227000Y-27333000D01*
X168247000Y-27333000D01*
X168247000Y-27587000D01*
X168227000Y-27587000D01*
X168227000Y-29873000D01*
X168247000Y-29873000D01*
X168247000Y-30127000D01*
X168227000Y-30127000D01*
X168227000Y-31320155D01*
X168456890Y-31441476D01*
X168866924Y-31271645D01*
X169295183Y-30881358D01*
X169356157Y-30751522D01*
X169569375Y-31070625D01*
X170060582Y-31398839D01*
X170493744Y-31485000D01*
X170786256Y-31485000D01*
X171219418Y-31398839D01*
X171710625Y-31070625D01*
X171923843Y-30751522D01*
X171984817Y-30881358D01*
X172413076Y-31271645D01*
X172823110Y-31441476D01*
X173053000Y-31320155D01*
X173053000Y-30127000D01*
X173033000Y-30127000D01*
X173033000Y-29873000D01*
X173053000Y-29873000D01*
X173053000Y-27587000D01*
X173033000Y-27587000D01*
X173033000Y-27333000D01*
X173053000Y-27333000D01*
X173053000Y-26139845D01*
X173307000Y-26139845D01*
X173307000Y-27333000D01*
X173327000Y-27333000D01*
X173327000Y-27587000D01*
X173307000Y-27587000D01*
X173307000Y-29873000D01*
X173327000Y-29873000D01*
X173327000Y-30127000D01*
X173307000Y-30127000D01*
X173307000Y-31320155D01*
X173536890Y-31441476D01*
X173946924Y-31271645D01*
X174375183Y-30881358D01*
X174436157Y-30751522D01*
X174649375Y-31070625D01*
X175140582Y-31398839D01*
X175573744Y-31485000D01*
X175866256Y-31485000D01*
X176299418Y-31398839D01*
X176790625Y-31070625D01*
X176990000Y-30772239D01*
X177189375Y-31070625D01*
X177680582Y-31398839D01*
X178113744Y-31485000D01*
X178406256Y-31485000D01*
X178839418Y-31398839D01*
X179330625Y-31070625D01*
X179530000Y-30772239D01*
X179729375Y-31070625D01*
X180220582Y-31398839D01*
X180653744Y-31485000D01*
X180946256Y-31485000D01*
X181379418Y-31398839D01*
X181870625Y-31070625D01*
X182070000Y-30772239D01*
X182269375Y-31070625D01*
X182760582Y-31398839D01*
X183193744Y-31485000D01*
X183486256Y-31485000D01*
X183919418Y-31398839D01*
X184410625Y-31070625D01*
X184610000Y-30772239D01*
X184809375Y-31070625D01*
X185300582Y-31398839D01*
X185733744Y-31485000D01*
X186026256Y-31485000D01*
X186459418Y-31398839D01*
X186950625Y-31070625D01*
X187150000Y-30772239D01*
X187349375Y-31070625D01*
X187840582Y-31398839D01*
X188273744Y-31485000D01*
X188566256Y-31485000D01*
X188999418Y-31398839D01*
X189490625Y-31070625D01*
X189690000Y-30772239D01*
X189889375Y-31070625D01*
X190380582Y-31398839D01*
X190813744Y-31485000D01*
X191106256Y-31485000D01*
X191539418Y-31398839D01*
X192030625Y-31070625D01*
X192230000Y-30772239D01*
X192429375Y-31070625D01*
X192920582Y-31398839D01*
X193353744Y-31485000D01*
X193646256Y-31485000D01*
X194079418Y-31398839D01*
X194570625Y-31070625D01*
X194770000Y-30772239D01*
X194969375Y-31070625D01*
X195460582Y-31398839D01*
X195893744Y-31485000D01*
X196186256Y-31485000D01*
X196619418Y-31398839D01*
X197110625Y-31070625D01*
X197310000Y-30772239D01*
X197509375Y-31070625D01*
X198000582Y-31398839D01*
X198433744Y-31485000D01*
X198726256Y-31485000D01*
X199159418Y-31398839D01*
X199650625Y-31070625D01*
X199850000Y-30772239D01*
X200049375Y-31070625D01*
X200540582Y-31398839D01*
X200973744Y-31485000D01*
X201266256Y-31485000D01*
X201699418Y-31398839D01*
X202190625Y-31070625D01*
X202390000Y-30772239D01*
X202589375Y-31070625D01*
X203080582Y-31398839D01*
X203513744Y-31485000D01*
X203806256Y-31485000D01*
X204239418Y-31398839D01*
X204730625Y-31070625D01*
X204930000Y-30772239D01*
X205129375Y-31070625D01*
X205620582Y-31398839D01*
X206053744Y-31485000D01*
X206346256Y-31485000D01*
X206779418Y-31398839D01*
X207270625Y-31070625D01*
X207470000Y-30772239D01*
X207669375Y-31070625D01*
X208160582Y-31398839D01*
X208593744Y-31485000D01*
X208886256Y-31485000D01*
X209319418Y-31398839D01*
X209810625Y-31070625D01*
X210138839Y-30579418D01*
X210254092Y-30000000D01*
X210138839Y-29420582D01*
X209810625Y-28929375D01*
X209512239Y-28730000D01*
X209810625Y-28530625D01*
X210138839Y-28039418D01*
X210246135Y-27500000D01*
X214894336Y-27500000D01*
X214996007Y-28011136D01*
X215285543Y-28444457D01*
X215368669Y-28500000D01*
X215285543Y-28555543D01*
X214996007Y-28988864D01*
X214894336Y-29500000D01*
X214996007Y-30011136D01*
X215285543Y-30444457D01*
X215718864Y-30733993D01*
X216100978Y-30810000D01*
X216359022Y-30810000D01*
X216741136Y-30733993D01*
X217174457Y-30444457D01*
X217230000Y-30361331D01*
X217285543Y-30444457D01*
X217718864Y-30733993D01*
X218100978Y-30810000D01*
X218359022Y-30810000D01*
X218741136Y-30733993D01*
X219174457Y-30444457D01*
X219230000Y-30361331D01*
X219285543Y-30444457D01*
X219718864Y-30733993D01*
X220100978Y-30810000D01*
X220359022Y-30810000D01*
X220741136Y-30733993D01*
X221174457Y-30444457D01*
X221230000Y-30361331D01*
X221285543Y-30444457D01*
X221718864Y-30733993D01*
X222100978Y-30810000D01*
X222359022Y-30810000D01*
X222741136Y-30733993D01*
X223174457Y-30444457D01*
X223230000Y-30361331D01*
X223285543Y-30444457D01*
X223718864Y-30733993D01*
X224100978Y-30810000D01*
X224359022Y-30810000D01*
X224741136Y-30733993D01*
X225174457Y-30444457D01*
X225230000Y-30361331D01*
X225285543Y-30444457D01*
X225718864Y-30733993D01*
X226100978Y-30810000D01*
X226359022Y-30810000D01*
X226741136Y-30733993D01*
X227174457Y-30444457D01*
X227230000Y-30361331D01*
X227285543Y-30444457D01*
X227718864Y-30733993D01*
X228100978Y-30810000D01*
X228359022Y-30810000D01*
X228741136Y-30733993D01*
X229174457Y-30444457D01*
X229463993Y-30011136D01*
X229565664Y-29500000D01*
X229463993Y-28988864D01*
X229268286Y-28695968D01*
X229362809Y-28632809D01*
X229503157Y-28422765D01*
X229552440Y-28175000D01*
X229552440Y-27294126D01*
X239165000Y-27294126D01*
X239165000Y-27705874D01*
X239322569Y-28086280D01*
X239613720Y-28377431D01*
X239994126Y-28535000D01*
X240405874Y-28535000D01*
X240786280Y-28377431D01*
X241077431Y-28086280D01*
X241235000Y-27705874D01*
X241235000Y-27294126D01*
X241077431Y-26913720D01*
X240786280Y-26622569D01*
X240405874Y-26465000D01*
X239994126Y-26465000D01*
X239613720Y-26622569D01*
X239322569Y-26913720D01*
X239165000Y-27294126D01*
X229552440Y-27294126D01*
X229552440Y-26825000D01*
X229503157Y-26577235D01*
X229362809Y-26367191D01*
X229152765Y-26226843D01*
X228905000Y-26177560D01*
X227555000Y-26177560D01*
X227307235Y-26226843D01*
X227097191Y-26367191D01*
X227034032Y-26461714D01*
X226741136Y-26266007D01*
X226359022Y-26190000D01*
X226100978Y-26190000D01*
X225718864Y-26266007D01*
X225285543Y-26555543D01*
X225230000Y-26638669D01*
X225174457Y-26555543D01*
X224741136Y-26266007D01*
X224359022Y-26190000D01*
X224100978Y-26190000D01*
X223718864Y-26266007D01*
X223285543Y-26555543D01*
X223230000Y-26638669D01*
X223174457Y-26555543D01*
X222741136Y-26266007D01*
X222359022Y-26190000D01*
X222100978Y-26190000D01*
X221718864Y-26266007D01*
X221285543Y-26555543D01*
X221230000Y-26638669D01*
X221174457Y-26555543D01*
X220741136Y-26266007D01*
X220359022Y-26190000D01*
X220100978Y-26190000D01*
X219718864Y-26266007D01*
X219285543Y-26555543D01*
X219230000Y-26638669D01*
X219174457Y-26555543D01*
X218741136Y-26266007D01*
X218359022Y-26190000D01*
X218100978Y-26190000D01*
X217718864Y-26266007D01*
X217285543Y-26555543D01*
X217230000Y-26638669D01*
X217174457Y-26555543D01*
X216741136Y-26266007D01*
X216359022Y-26190000D01*
X216100978Y-26190000D01*
X215718864Y-26266007D01*
X215285543Y-26555543D01*
X214996007Y-26988864D01*
X214894336Y-27500000D01*
X210246135Y-27500000D01*
X210254092Y-27460000D01*
X210138839Y-26880582D01*
X209810625Y-26389375D01*
X209319418Y-26061161D01*
X208886256Y-25975000D01*
X208593744Y-25975000D01*
X208160582Y-26061161D01*
X207669375Y-26389375D01*
X207470000Y-26687761D01*
X207270625Y-26389375D01*
X206779418Y-26061161D01*
X206346256Y-25975000D01*
X206053744Y-25975000D01*
X205620582Y-26061161D01*
X205129375Y-26389375D01*
X204930000Y-26687761D01*
X204730625Y-26389375D01*
X204239418Y-26061161D01*
X203806256Y-25975000D01*
X203513744Y-25975000D01*
X203080582Y-26061161D01*
X202589375Y-26389375D01*
X202390000Y-26687761D01*
X202190625Y-26389375D01*
X201699418Y-26061161D01*
X201266256Y-25975000D01*
X200973744Y-25975000D01*
X200540582Y-26061161D01*
X200049375Y-26389375D01*
X199850000Y-26687761D01*
X199650625Y-26389375D01*
X199159418Y-26061161D01*
X198726256Y-25975000D01*
X198433744Y-25975000D01*
X198000582Y-26061161D01*
X197509375Y-26389375D01*
X197310000Y-26687761D01*
X197110625Y-26389375D01*
X196619418Y-26061161D01*
X196186256Y-25975000D01*
X195893744Y-25975000D01*
X195460582Y-26061161D01*
X194969375Y-26389375D01*
X194770000Y-26687761D01*
X194570625Y-26389375D01*
X194079418Y-26061161D01*
X193646256Y-25975000D01*
X193353744Y-25975000D01*
X192920582Y-26061161D01*
X192429375Y-26389375D01*
X192230000Y-26687761D01*
X192030625Y-26389375D01*
X191539418Y-26061161D01*
X191106256Y-25975000D01*
X190813744Y-25975000D01*
X190380582Y-26061161D01*
X189889375Y-26389375D01*
X189690000Y-26687761D01*
X189490625Y-26389375D01*
X188999418Y-26061161D01*
X188566256Y-25975000D01*
X188273744Y-25975000D01*
X187840582Y-26061161D01*
X187349375Y-26389375D01*
X187150000Y-26687761D01*
X186950625Y-26389375D01*
X186459418Y-26061161D01*
X186026256Y-25975000D01*
X185733744Y-25975000D01*
X185300582Y-26061161D01*
X184809375Y-26389375D01*
X184610000Y-26687761D01*
X184410625Y-26389375D01*
X183919418Y-26061161D01*
X183486256Y-25975000D01*
X183193744Y-25975000D01*
X182760582Y-26061161D01*
X182269375Y-26389375D01*
X182070000Y-26687761D01*
X181870625Y-26389375D01*
X181379418Y-26061161D01*
X180946256Y-25975000D01*
X180653744Y-25975000D01*
X180220582Y-26061161D01*
X179729375Y-26389375D01*
X179530000Y-26687761D01*
X179330625Y-26389375D01*
X178839418Y-26061161D01*
X178406256Y-25975000D01*
X178113744Y-25975000D01*
X177680582Y-26061161D01*
X177189375Y-26389375D01*
X176990000Y-26687761D01*
X176790625Y-26389375D01*
X176299418Y-26061161D01*
X175866256Y-25975000D01*
X175573744Y-25975000D01*
X175140582Y-26061161D01*
X174649375Y-26389375D01*
X174436157Y-26708478D01*
X174375183Y-26578642D01*
X173946924Y-26188355D01*
X173536890Y-26018524D01*
X173307000Y-26139845D01*
X173053000Y-26139845D01*
X172823110Y-26018524D01*
X172413076Y-26188355D01*
X171984817Y-26578642D01*
X171923843Y-26708478D01*
X171710625Y-26389375D01*
X171219418Y-26061161D01*
X170786256Y-25975000D01*
X170493744Y-25975000D01*
X170060582Y-26061161D01*
X169569375Y-26389375D01*
X169356157Y-26708478D01*
X169295183Y-26578642D01*
X168866924Y-26188355D01*
X168456890Y-26018524D01*
X168227000Y-26139845D01*
X167973000Y-26139845D01*
X167743110Y-26018524D01*
X167333076Y-26188355D01*
X166904817Y-26578642D01*
X166843843Y-26708478D01*
X166630625Y-26389375D01*
X166139418Y-26061161D01*
X165706256Y-25975000D01*
X165413744Y-25975000D01*
X164980582Y-26061161D01*
X164489375Y-26389375D01*
X164290000Y-26687761D01*
X164090625Y-26389375D01*
X163599418Y-26061161D01*
X163166256Y-25975000D01*
X162873744Y-25975000D01*
X162440582Y-26061161D01*
X161949375Y-26389375D01*
X161750000Y-26687761D01*
X161550625Y-26389375D01*
X161059418Y-26061161D01*
X160626256Y-25975000D01*
X160333744Y-25975000D01*
X159900582Y-26061161D01*
X159409375Y-26389375D01*
X159210000Y-26687761D01*
X159010625Y-26389375D01*
X158519418Y-26061161D01*
X158304253Y-26018362D01*
X158523780Y-25927431D01*
X158814931Y-25636280D01*
X158972500Y-25255874D01*
X158972500Y-24844126D01*
X158814931Y-24463720D01*
X158523780Y-24172569D01*
X158143374Y-24015000D01*
X157731626Y-24015000D01*
X157351220Y-24172569D01*
X157060069Y-24463720D01*
X156902500Y-24844126D01*
X156902500Y-25255874D01*
X157060069Y-25636280D01*
X157351220Y-25927431D01*
X157572370Y-26019034D01*
X157360582Y-26061161D01*
X156869375Y-26389375D01*
X156670000Y-26687761D01*
X156470625Y-26389375D01*
X155979418Y-26061161D01*
X155546256Y-25975000D01*
X155253744Y-25975000D01*
X154820582Y-26061161D01*
X154329375Y-26389375D01*
X154130000Y-26687761D01*
X153930625Y-26389375D01*
X153439418Y-26061161D01*
X153006256Y-25975000D01*
X152713744Y-25975000D01*
X152280582Y-26061161D01*
X151789375Y-26389375D01*
X151590000Y-26687761D01*
X151390625Y-26389375D01*
X150899418Y-26061161D01*
X150466256Y-25975000D01*
X150173744Y-25975000D01*
X149740582Y-26061161D01*
X149249375Y-26389375D01*
X149050000Y-26687761D01*
X148850625Y-26389375D01*
X148359418Y-26061161D01*
X147926256Y-25975000D01*
X147633744Y-25975000D01*
X147200582Y-26061161D01*
X146709375Y-26389375D01*
X146510000Y-26687761D01*
X146310625Y-26389375D01*
X145819418Y-26061161D01*
X145386256Y-25975000D01*
X145093744Y-25975000D01*
X144660582Y-26061161D01*
X144169375Y-26389375D01*
X143970000Y-26687761D01*
X143770625Y-26389375D01*
X143279418Y-26061161D01*
X142846256Y-25975000D01*
X142553744Y-25975000D01*
X142120582Y-26061161D01*
X141629375Y-26389375D01*
X141430000Y-26687761D01*
X141230625Y-26389375D01*
X140739418Y-26061161D01*
X140306256Y-25975000D01*
X140013744Y-25975000D01*
X139580582Y-26061161D01*
X139089375Y-26389375D01*
X138890000Y-26687761D01*
X138690625Y-26389375D01*
X138199418Y-26061161D01*
X137766256Y-25975000D01*
X137473744Y-25975000D01*
X137040582Y-26061161D01*
X136549375Y-26389375D01*
X136350000Y-26687761D01*
X136150625Y-26389375D01*
X135659418Y-26061161D01*
X135226256Y-25975000D01*
X134933744Y-25975000D01*
X134500582Y-26061161D01*
X134009375Y-26389375D01*
X133810000Y-26687761D01*
X133610625Y-26389375D01*
X133119418Y-26061161D01*
X132686256Y-25975000D01*
X132393744Y-25975000D01*
X131960582Y-26061161D01*
X131469375Y-26389375D01*
X131270000Y-26687761D01*
X131070625Y-26389375D01*
X130579418Y-26061161D01*
X130146256Y-25975000D01*
X129853744Y-25975000D01*
X129420582Y-26061161D01*
X128929375Y-26389375D01*
X128601161Y-26880582D01*
X128485908Y-27460000D01*
X123044543Y-27460000D01*
X122970625Y-27349375D01*
X122672239Y-27150000D01*
X122970625Y-26950625D01*
X123298839Y-26459418D01*
X123414092Y-25880000D01*
X123298839Y-25300582D01*
X122970625Y-24809375D01*
X122672239Y-24610000D01*
X122970625Y-24410625D01*
X123298839Y-23919418D01*
X123414092Y-23340000D01*
X123298839Y-22760582D01*
X122970625Y-22269375D01*
X122672239Y-22070000D01*
X122970625Y-21870625D01*
X123298839Y-21379418D01*
X123414092Y-20800000D01*
X123298839Y-20220582D01*
X122970625Y-19729375D01*
X122479418Y-19401161D01*
X122046256Y-19315000D01*
X121753744Y-19315000D01*
X121320582Y-19401161D01*
X120829375Y-19729375D01*
X120501161Y-20220582D01*
X120385908Y-20800000D01*
X113644368Y-20800000D01*
X113642375Y-19044126D01*
X156752500Y-19044126D01*
X156752500Y-19455874D01*
X156910069Y-19836280D01*
X157201220Y-20127431D01*
X157581626Y-20285000D01*
X157993374Y-20285000D01*
X158373780Y-20127431D01*
X158664931Y-19836280D01*
X158822500Y-19455874D01*
X158822500Y-19044126D01*
X158664931Y-18663720D01*
X158373780Y-18372569D01*
X157993374Y-18215000D01*
X157581626Y-18215000D01*
X157201220Y-18372569D01*
X156910069Y-18663720D01*
X156752500Y-19044126D01*
X113642375Y-19044126D01*
X113639182Y-16231626D01*
X115265000Y-16231626D01*
X115265000Y-16643374D01*
X115422569Y-17023780D01*
X115713720Y-17314931D01*
X116094126Y-17472500D01*
X116505874Y-17472500D01*
X116886280Y-17314931D01*
X117177431Y-17023780D01*
X117335000Y-16643374D01*
X117335000Y-16231626D01*
X117177431Y-15851220D01*
X116886280Y-15560069D01*
X116505874Y-15402500D01*
X116094126Y-15402500D01*
X115713720Y-15560069D01*
X115422569Y-15851220D01*
X115265000Y-16231626D01*
X113639182Y-16231626D01*
X113636813Y-14144126D01*
X148890000Y-14144126D01*
X148890000Y-14555874D01*
X149047569Y-14936280D01*
X149338720Y-15227431D01*
X149719126Y-15385000D01*
X150130874Y-15385000D01*
X150511280Y-15227431D01*
X150802431Y-14936280D01*
X150960000Y-14555874D01*
X150960000Y-14144126D01*
X150802431Y-13763720D01*
X150511280Y-13472569D01*
X150130874Y-13315000D01*
X149719126Y-13315000D01*
X149338720Y-13472569D01*
X149047569Y-13763720D01*
X148890000Y-14144126D01*
X113636813Y-14144126D01*
X113635622Y-13094126D01*
X153465000Y-13094126D01*
X153465000Y-13505874D01*
X153622569Y-13886280D01*
X153913720Y-14177431D01*
X154294126Y-14335000D01*
X154705874Y-14335000D01*
X155086280Y-14177431D01*
X155119585Y-14144126D01*
X162640000Y-14144126D01*
X162640000Y-14555874D01*
X162797569Y-14936280D01*
X163088720Y-15227431D01*
X163469126Y-15385000D01*
X163880874Y-15385000D01*
X164261280Y-15227431D01*
X164552431Y-14936280D01*
X164589566Y-14846626D01*
X184465000Y-14846626D01*
X184465000Y-15258374D01*
X184622569Y-15638780D01*
X184913720Y-15929931D01*
X185294126Y-16087500D01*
X185705874Y-16087500D01*
X186086280Y-15929931D01*
X186377431Y-15638780D01*
X186535000Y-15258374D01*
X186535000Y-14856626D01*
X194445000Y-14856626D01*
X194445000Y-15268374D01*
X194602569Y-15648780D01*
X194893720Y-15939931D01*
X195274126Y-16097500D01*
X195685874Y-16097500D01*
X196066280Y-15939931D01*
X196357431Y-15648780D01*
X196515000Y-15268374D01*
X196515000Y-14856626D01*
X196357431Y-14476220D01*
X196066280Y-14185069D01*
X195685874Y-14027500D01*
X195274126Y-14027500D01*
X194893720Y-14185069D01*
X194602569Y-14476220D01*
X194445000Y-14856626D01*
X186535000Y-14856626D01*
X186535000Y-14846626D01*
X186377431Y-14466220D01*
X186086280Y-14175069D01*
X185705874Y-14017500D01*
X185294126Y-14017500D01*
X184913720Y-14175069D01*
X184622569Y-14466220D01*
X184465000Y-14846626D01*
X164589566Y-14846626D01*
X164710000Y-14555874D01*
X164710000Y-14144126D01*
X164552431Y-13763720D01*
X164261280Y-13472569D01*
X163880874Y-13315000D01*
X163469126Y-13315000D01*
X163088720Y-13472569D01*
X162797569Y-13763720D01*
X162640000Y-14144126D01*
X155119585Y-14144126D01*
X155377431Y-13886280D01*
X155535000Y-13505874D01*
X155535000Y-13094126D01*
X155377431Y-12713720D01*
X155143711Y-12480000D01*
X166975000Y-12480000D01*
X167090262Y-13207735D01*
X167424765Y-13864234D01*
X167945766Y-14385235D01*
X168602265Y-14719738D01*
X169330000Y-14835000D01*
X170057735Y-14719738D01*
X170714234Y-14385235D01*
X171235235Y-13864234D01*
X171569738Y-13207735D01*
X171685000Y-12480000D01*
X196975000Y-12480000D01*
X197090262Y-13207735D01*
X197424765Y-13864234D01*
X197945766Y-14385235D01*
X198602265Y-14719738D01*
X199330000Y-14835000D01*
X200057735Y-14719738D01*
X200714234Y-14385235D01*
X201235235Y-13864234D01*
X201569738Y-13207735D01*
X201685000Y-12480000D01*
X226975000Y-12480000D01*
X227090262Y-13207735D01*
X227424765Y-13864234D01*
X227945766Y-14385235D01*
X228602265Y-14719738D01*
X229330000Y-14835000D01*
X230057735Y-14719738D01*
X230714234Y-14385235D01*
X231235235Y-13864234D01*
X231569738Y-13207735D01*
X231685000Y-12480000D01*
X231569738Y-11752265D01*
X231235235Y-11095766D01*
X230714234Y-10574765D01*
X230057735Y-10240262D01*
X229330000Y-10125000D01*
X228602265Y-10240262D01*
X227945766Y-10574765D01*
X227424765Y-11095766D01*
X227090262Y-11752265D01*
X226975000Y-12480000D01*
X201685000Y-12480000D01*
X201569738Y-11752265D01*
X201235235Y-11095766D01*
X200714234Y-10574765D01*
X200057735Y-10240262D01*
X199330000Y-10125000D01*
X198602265Y-10240262D01*
X197945766Y-10574765D01*
X197424765Y-11095766D01*
X197090262Y-11752265D01*
X196975000Y-12480000D01*
X171685000Y-12480000D01*
X171569738Y-11752265D01*
X171235235Y-11095766D01*
X170714234Y-10574765D01*
X170057735Y-10240262D01*
X169330000Y-10125000D01*
X168602265Y-10240262D01*
X167945766Y-10574765D01*
X167424765Y-11095766D01*
X167090262Y-11752265D01*
X166975000Y-12480000D01*
X155143711Y-12480000D01*
X155086280Y-12422569D01*
X154705874Y-12265000D01*
X154294126Y-12265000D01*
X153913720Y-12422569D01*
X153622569Y-12713720D01*
X153465000Y-13094126D01*
X113635622Y-13094126D01*
X113627352Y-5810000D01*
X256873000Y-5810000D01*
X256873000Y-61064289D01*
G04 #@! TD*
M02*
