G04 #@! TF.GenerationSoftware,KiCad,Pcbnew,5.0.2+dfsg1-1~bpo9+1*
G04 #@! TF.CreationDate,2022-01-09T18:16:30+01:00*
G04 #@! TF.ProjectId,nubus-to-ztex,6e756275-732d-4746-9f2d-7a7465782e6b,rev?*
G04 #@! TF.SameCoordinates,Original*
G04 #@! TF.FileFunction,Copper,L4,Bot*
G04 #@! TF.FilePolarity,Positive*
%FSLAX46Y46*%
G04 Gerber Fmt 4.6, Leading zero omitted, Abs format (unit mm)*
G04 Created by KiCad (PCBNEW 5.0.2+dfsg1-1~bpo9+1) date Sun Jan  9 18:16:30 2022*
%MOMM*%
%LPD*%
G01*
G04 APERTURE LIST*
G04 #@! TA.AperFunction,ComponentPad*
%ADD10C,1.450000*%
G04 #@! TD*
G04 #@! TA.AperFunction,ComponentPad*
%ADD11O,1.900000X1.200000*%
G04 #@! TD*
G04 #@! TA.AperFunction,ComponentPad*
%ADD12R,1.700000X1.700000*%
G04 #@! TD*
G04 #@! TA.AperFunction,ComponentPad*
%ADD13O,1.700000X1.700000*%
G04 #@! TD*
G04 #@! TA.AperFunction,ComponentPad*
%ADD14R,1.350000X1.350000*%
G04 #@! TD*
G04 #@! TA.AperFunction,ComponentPad*
%ADD15O,1.350000X1.350000*%
G04 #@! TD*
G04 #@! TA.AperFunction,Conductor*
%ADD16C,0.100000*%
G04 #@! TD*
G04 #@! TA.AperFunction,ComponentPad*
%ADD17C,1.740000*%
G04 #@! TD*
G04 #@! TA.AperFunction,ComponentPad*
%ADD18O,1.740000X2.200000*%
G04 #@! TD*
G04 #@! TA.AperFunction,ComponentPad*
%ADD19C,2.000000*%
G04 #@! TD*
G04 #@! TA.AperFunction,ComponentPad*
%ADD20C,1.500000*%
G04 #@! TD*
G04 #@! TA.AperFunction,ComponentPad*
%ADD21C,3.500000*%
G04 #@! TD*
G04 #@! TA.AperFunction,ComponentPad*
%ADD22R,1.600000X1.600000*%
G04 #@! TD*
G04 #@! TA.AperFunction,ComponentPad*
%ADD23C,1.600000*%
G04 #@! TD*
G04 #@! TA.AperFunction,ComponentPad*
%ADD24C,1.550000*%
G04 #@! TD*
G04 #@! TA.AperFunction,ViaPad*
%ADD25C,0.800000*%
G04 #@! TD*
G04 #@! TA.AperFunction,Conductor*
%ADD26C,0.152400*%
G04 #@! TD*
G04 APERTURE END LIST*
D10*
G04 #@! TO.P,J6,6*
G04 #@! TO.N,SHIELD*
X269197500Y-81570000D03*
X269197500Y-76570000D03*
D11*
X271897500Y-82570000D03*
X271897500Y-75570000D03*
G04 #@! TD*
D12*
G04 #@! TO.P,J9,1*
G04 #@! TO.N,+3V3*
X202830000Y-79080000D03*
D13*
G04 #@! TO.P,J9,2*
G04 #@! TO.N,GND*
X205370000Y-79080000D03*
G04 #@! TD*
D14*
G04 #@! TO.P,J8,1*
G04 #@! TO.N,GND*
X116600000Y-75800000D03*
D15*
G04 #@! TO.P,J8,2*
G04 #@! TO.N,+3V3*
X114600000Y-75800000D03*
G04 #@! TO.P,J8,3*
G04 #@! TO.N,GND*
X116600000Y-73800000D03*
G04 #@! TO.P,J8,4*
G04 #@! TO.N,CPLD_JTAG_TMS*
X114600000Y-73800000D03*
G04 #@! TO.P,J8,5*
G04 #@! TO.N,GND*
X116600000Y-71800000D03*
G04 #@! TO.P,J8,6*
G04 #@! TO.N,CPLD_JTAG_TCK*
X114600000Y-71800000D03*
G04 #@! TO.P,J8,7*
G04 #@! TO.N,GND*
X116600000Y-69800000D03*
G04 #@! TO.P,J8,8*
G04 #@! TO.N,CPLD_JTAG_TDO*
X114600000Y-69800000D03*
G04 #@! TO.P,J8,9*
G04 #@! TO.N,GND*
X116600000Y-67800000D03*
G04 #@! TO.P,J8,10*
G04 #@! TO.N,CPLD_JTAG_TDI*
X114600000Y-67800000D03*
G04 #@! TO.P,J8,11*
G04 #@! TO.N,GND*
X116600000Y-65800000D03*
G04 #@! TO.P,J8,12*
G04 #@! TO.N,Net-(J8-Pad12)*
X114600000Y-65800000D03*
G04 #@! TO.P,J8,13*
G04 #@! TO.N,GND*
X116600000Y-63800000D03*
G04 #@! TO.P,J8,14*
G04 #@! TO.N,Net-(J8-Pad14)*
X114600000Y-63800000D03*
G04 #@! TD*
D16*
G04 #@! TO.N,GND*
G04 #@! TO.C,J7*
G36*
X218884505Y-90171204D02*
X218908773Y-90174804D01*
X218932572Y-90180765D01*
X218955671Y-90189030D01*
X218977850Y-90199520D01*
X218998893Y-90212132D01*
X219018599Y-90226747D01*
X219036777Y-90243223D01*
X219053253Y-90261401D01*
X219067868Y-90281107D01*
X219080480Y-90302150D01*
X219090970Y-90324329D01*
X219099235Y-90347428D01*
X219105196Y-90371227D01*
X219108796Y-90395495D01*
X219110000Y-90419999D01*
X219110000Y-92120001D01*
X219108796Y-92144505D01*
X219105196Y-92168773D01*
X219099235Y-92192572D01*
X219090970Y-92215671D01*
X219080480Y-92237850D01*
X219067868Y-92258893D01*
X219053253Y-92278599D01*
X219036777Y-92296777D01*
X219018599Y-92313253D01*
X218998893Y-92327868D01*
X218977850Y-92340480D01*
X218955671Y-92350970D01*
X218932572Y-92359235D01*
X218908773Y-92365196D01*
X218884505Y-92368796D01*
X218860001Y-92370000D01*
X217619999Y-92370000D01*
X217595495Y-92368796D01*
X217571227Y-92365196D01*
X217547428Y-92359235D01*
X217524329Y-92350970D01*
X217502150Y-92340480D01*
X217481107Y-92327868D01*
X217461401Y-92313253D01*
X217443223Y-92296777D01*
X217426747Y-92278599D01*
X217412132Y-92258893D01*
X217399520Y-92237850D01*
X217389030Y-92215671D01*
X217380765Y-92192572D01*
X217374804Y-92168773D01*
X217371204Y-92144505D01*
X217370000Y-92120001D01*
X217370000Y-90419999D01*
X217371204Y-90395495D01*
X217374804Y-90371227D01*
X217380765Y-90347428D01*
X217389030Y-90324329D01*
X217399520Y-90302150D01*
X217412132Y-90281107D01*
X217426747Y-90261401D01*
X217443223Y-90243223D01*
X217461401Y-90226747D01*
X217481107Y-90212132D01*
X217502150Y-90199520D01*
X217524329Y-90189030D01*
X217547428Y-90180765D01*
X217571227Y-90174804D01*
X217595495Y-90171204D01*
X217619999Y-90170000D01*
X218860001Y-90170000D01*
X218884505Y-90171204D01*
X218884505Y-90171204D01*
G37*
D17*
G04 #@! TD*
G04 #@! TO.P,J7,1*
G04 #@! TO.N,GND*
X218240000Y-91270000D03*
D18*
G04 #@! TO.P,J7,2*
G04 #@! TO.N,+5V*
X220780000Y-91270000D03*
G04 #@! TO.P,J7,3*
G04 #@! TO.N,GND*
X223320000Y-91270000D03*
G04 #@! TD*
D12*
G04 #@! TO.P,JCD1,1*
G04 #@! TO.N,Net-(JCD1-Pad1)*
X130000000Y-30000000D03*
D13*
G04 #@! TO.P,JCD1,2*
G04 #@! TO.N,Net-(JCD1-Pad2)*
X130000000Y-27460000D03*
G04 #@! TO.P,JCD1,3*
G04 #@! TO.N,GND*
X132540000Y-30000000D03*
G04 #@! TO.P,JCD1,4*
X132540000Y-27460000D03*
G04 #@! TO.P,JCD1,5*
G04 #@! TO.N,/B2B/RX*
X135080000Y-30000000D03*
G04 #@! TO.P,JCD1,6*
G04 #@! TO.N,/B2B/TX*
X135080000Y-27460000D03*
G04 #@! TO.P,JCD1,7*
G04 #@! TO.N,~ID3_3V3*
X137620000Y-30000000D03*
G04 #@! TO.P,JCD1,8*
G04 #@! TO.N,~ID2_3V3*
X137620000Y-27460000D03*
G04 #@! TO.P,JCD1,9*
G04 #@! TO.N,~ID0_3V3*
X140160000Y-30000000D03*
G04 #@! TO.P,JCD1,10*
G04 #@! TO.N,~ID1_3V3*
X140160000Y-27460000D03*
G04 #@! TO.P,JCD1,11*
G04 #@! TO.N,tmoen*
X142700000Y-30000000D03*
G04 #@! TO.P,JCD1,12*
G04 #@! TO.N,LED0*
X142700000Y-27460000D03*
G04 #@! TO.P,JCD1,13*
G04 #@! TO.N,HDMI_HPD_A*
X145240000Y-30000000D03*
G04 #@! TO.P,JCD1,14*
G04 #@! TO.N,LED1*
X145240000Y-27460000D03*
G04 #@! TO.P,JCD1,15*
G04 #@! TO.N,HDMI_SDA_A*
X147780000Y-30000000D03*
G04 #@! TO.P,JCD1,16*
G04 #@! TO.N,~CLK2X_3V3*
X147780000Y-27460000D03*
G04 #@! TO.P,JCD1,17*
G04 #@! TO.N,HDMI_SCL_A*
X150320000Y-30000000D03*
G04 #@! TO.P,JCD1,18*
G04 #@! TO.N,~TM2_3V3*
X150320000Y-27460000D03*
G04 #@! TO.P,JCD1,19*
G04 #@! TO.N,HDMI_CEC_A*
X152860000Y-30000000D03*
G04 #@! TO.P,JCD1,20*
G04 #@! TO.N,FPGA_VGA_HS*
X152860000Y-27460000D03*
G04 #@! TO.P,JCD1,21*
G04 #@! TO.N,HDMI_CLK+*
X155400000Y-30000000D03*
G04 #@! TO.P,JCD1,22*
G04 #@! TO.N,FPGA_VGA_VS*
X155400000Y-27460000D03*
G04 #@! TO.P,JCD1,23*
G04 #@! TO.N,HDMI_CLK-*
X157940000Y-30000000D03*
G04 #@! TO.P,JCD1,24*
G04 #@! TO.N,HDMI_D0-*
X157940000Y-27460000D03*
G04 #@! TO.P,JCD1,25*
G04 #@! TO.N,HDMI_D1-*
X160480000Y-30000000D03*
G04 #@! TO.P,JCD1,26*
G04 #@! TO.N,HDMI_D0+*
X160480000Y-27460000D03*
G04 #@! TO.P,JCD1,27*
G04 #@! TO.N,HDMI_D1+*
X163020000Y-30000000D03*
G04 #@! TO.P,JCD1,28*
G04 #@! TO.N,HDMI_D2-*
X163020000Y-27460000D03*
G04 #@! TO.P,JCD1,29*
G04 #@! TO.N,FPGA_VGA_CLK*
X165560000Y-30000000D03*
G04 #@! TO.P,JCD1,30*
G04 #@! TO.N,HDMI_D2+*
X165560000Y-27460000D03*
G04 #@! TO.P,JCD1,31*
G04 #@! TO.N,+3V3*
X168100000Y-30000000D03*
G04 #@! TO.P,JCD1,32*
X168100000Y-27460000D03*
G04 #@! TO.P,JCD1,33*
G04 #@! TO.N,GND*
X170640000Y-30000000D03*
G04 #@! TO.P,JCD1,34*
X170640000Y-27460000D03*
G04 #@! TO.P,JCD1,35*
G04 #@! TO.N,+3V3*
X173180000Y-30000000D03*
G04 #@! TO.P,JCD1,36*
X173180000Y-27460000D03*
G04 #@! TO.P,JCD1,37*
G04 #@! TO.N,FPGA_B7*
X175720000Y-30000000D03*
G04 #@! TO.P,JCD1,38*
G04 #@! TO.N,FPGA_R0*
X175720000Y-27460000D03*
G04 #@! TO.P,JCD1,39*
G04 #@! TO.N,FPGA_B6*
X178260000Y-30000000D03*
G04 #@! TO.P,JCD1,40*
G04 #@! TO.N,FPGA_R1*
X178260000Y-27460000D03*
G04 #@! TO.P,JCD1,41*
G04 #@! TO.N,FPGA_B5*
X180800000Y-30000000D03*
G04 #@! TO.P,JCD1,42*
G04 #@! TO.N,FPGA_R2*
X180800000Y-27460000D03*
G04 #@! TO.P,JCD1,43*
G04 #@! TO.N,FPGA_B4*
X183340000Y-30000000D03*
G04 #@! TO.P,JCD1,44*
G04 #@! TO.N,FPGA_R3*
X183340000Y-27460000D03*
G04 #@! TO.P,JCD1,45*
G04 #@! TO.N,FPGA_B3*
X185880000Y-30000000D03*
G04 #@! TO.P,JCD1,46*
G04 #@! TO.N,FPGA_R4*
X185880000Y-27460000D03*
G04 #@! TO.P,JCD1,47*
G04 #@! TO.N,FPGA_B2*
X188420000Y-30000000D03*
G04 #@! TO.P,JCD1,48*
G04 #@! TO.N,FPGA_R5*
X188420000Y-27460000D03*
G04 #@! TO.P,JCD1,49*
G04 #@! TO.N,FPGA_B1*
X190960000Y-30000000D03*
G04 #@! TO.P,JCD1,50*
G04 #@! TO.N,FPGA_R6*
X190960000Y-27460000D03*
G04 #@! TO.P,JCD1,51*
G04 #@! TO.N,FPGA_B0*
X193500000Y-30000000D03*
G04 #@! TO.P,JCD1,52*
G04 #@! TO.N,FPGA_R7*
X193500000Y-27460000D03*
G04 #@! TO.P,JCD1,53*
G04 #@! TO.N,FPGA_G7*
X196040000Y-30000000D03*
G04 #@! TO.P,JCD1,54*
G04 #@! TO.N,FPGA_G0*
X196040000Y-27460000D03*
G04 #@! TO.P,JCD1,55*
G04 #@! TO.N,FPGA_G6*
X198580000Y-30000000D03*
G04 #@! TO.P,JCD1,56*
G04 #@! TO.N,FPGA_G1*
X198580000Y-27460000D03*
G04 #@! TO.P,JCD1,57*
G04 #@! TO.N,FPGA_G5*
X201120000Y-30000000D03*
G04 #@! TO.P,JCD1,58*
G04 #@! TO.N,FPGA_G2*
X201120000Y-27460000D03*
G04 #@! TO.P,JCD1,59*
G04 #@! TO.N,FPGA_G4*
X203660000Y-30000000D03*
G04 #@! TO.P,JCD1,60*
G04 #@! TO.N,FPGA_G3*
X203660000Y-27460000D03*
G04 #@! TO.P,JCD1,61*
G04 #@! TO.N,FPGA_JTAG_TDO*
X206200000Y-30000000D03*
G04 #@! TO.P,JCD1,62*
G04 #@! TO.N,FPGA_JTAG_TMS*
X206200000Y-27460000D03*
G04 #@! TO.P,JCD1,63*
G04 #@! TO.N,GND*
X208740000Y-30000000D03*
G04 #@! TO.P,JCD1,64*
X208740000Y-27460000D03*
G04 #@! TD*
D14*
G04 #@! TO.P,J1,1*
G04 #@! TO.N,GND*
X228230000Y-27500000D03*
D15*
G04 #@! TO.P,J1,2*
G04 #@! TO.N,/B2B/JTAG_VIO*
X228230000Y-29500000D03*
G04 #@! TO.P,J1,3*
G04 #@! TO.N,GND*
X226230000Y-27500000D03*
G04 #@! TO.P,J1,4*
G04 #@! TO.N,FPGA_JTAG_TMS*
X226230000Y-29500000D03*
G04 #@! TO.P,J1,5*
G04 #@! TO.N,GND*
X224230000Y-27500000D03*
G04 #@! TO.P,J1,6*
G04 #@! TO.N,FPGA_JTAG_TCK*
X224230000Y-29500000D03*
G04 #@! TO.P,J1,7*
G04 #@! TO.N,GND*
X222230000Y-27500000D03*
G04 #@! TO.P,J1,8*
G04 #@! TO.N,FPGA_JTAG_TDO*
X222230000Y-29500000D03*
G04 #@! TO.P,J1,9*
G04 #@! TO.N,GND*
X220230000Y-27500000D03*
G04 #@! TO.P,J1,10*
G04 #@! TO.N,FPGA_JTAG_TDI*
X220230000Y-29500000D03*
G04 #@! TO.P,J1,11*
G04 #@! TO.N,GND*
X218230000Y-27500000D03*
G04 #@! TO.P,J1,12*
G04 #@! TO.N,Net-(J1-Pad12)*
X218230000Y-29500000D03*
G04 #@! TO.P,J1,13*
G04 #@! TO.N,GND*
X216230000Y-27500000D03*
G04 #@! TO.P,J1,14*
G04 #@! TO.N,Net-(J1-Pad14)*
X216230000Y-29500000D03*
G04 #@! TD*
D19*
G04 #@! TO.P,J5,SH*
G04 #@! TO.N,SHIELD*
X270800000Y-70150000D03*
X270800000Y-54450000D03*
X265850000Y-69550000D03*
X265850000Y-55050000D03*
G04 #@! TD*
D20*
G04 #@! TO.P,J4,15*
G04 #@! TO.N,Net-(J4-Pad15)*
X264540000Y-38460000D03*
G04 #@! TO.P,J4,14*
G04 #@! TO.N,/vga/VGA_VS*
X264540000Y-36170000D03*
G04 #@! TO.P,J4,13*
G04 #@! TO.N,/vga/VGA_HS*
X264540000Y-33876000D03*
G04 #@! TO.P,J4,12*
G04 #@! TO.N,Net-(J4-Pad12)*
X264540000Y-31590000D03*
G04 #@! TO.P,J4,11*
G04 #@! TO.N,Net-(J4-Pad11)*
X264540000Y-29300000D03*
G04 #@! TO.P,J4,10*
G04 #@! TO.N,GND*
X262000000Y-37320000D03*
G04 #@! TO.P,J4,9*
G04 #@! TO.N,Net-(J4-Pad9)*
X262000000Y-35030000D03*
G04 #@! TO.P,J4,8*
G04 #@! TO.N,GND*
X262000000Y-32740000D03*
G04 #@! TO.P,J4,7*
X262000000Y-30450000D03*
G04 #@! TO.P,J4,6*
X262000000Y-28160000D03*
G04 #@! TO.P,J4,5*
X259460000Y-38460000D03*
G04 #@! TO.P,J4,4*
G04 #@! TO.N,Net-(J4-Pad4)*
X259460000Y-36170000D03*
G04 #@! TO.P,J4,3*
G04 #@! TO.N,/vga/VGA_B*
X259460000Y-33880000D03*
G04 #@! TO.P,J4,2*
G04 #@! TO.N,/vga/VGA_G*
X259460000Y-31590000D03*
G04 #@! TO.P,J4,1*
G04 #@! TO.N,/vga/VGA_R*
X259460000Y-29300000D03*
D21*
G04 #@! TO.P,J4,0*
G04 #@! TO.N,SHIELD*
X262000000Y-21130000D03*
X262000000Y-46130000D03*
G04 #@! TD*
D22*
G04 #@! TO.P,C11,1*
G04 #@! TO.N,SHIELD*
X252540000Y-13380000D03*
D23*
G04 #@! TO.P,C11,2*
G04 #@! TO.N,GND*
X252540000Y-15880000D03*
G04 #@! TD*
D16*
G04 #@! TO.N,-12V*
G04 #@! TO.C,J3*
G36*
X200549505Y-99226204D02*
X200573773Y-99229804D01*
X200597572Y-99235765D01*
X200620671Y-99244030D01*
X200642850Y-99254520D01*
X200663893Y-99267132D01*
X200683599Y-99281747D01*
X200701777Y-99298223D01*
X200718253Y-99316401D01*
X200732868Y-99336107D01*
X200745480Y-99357150D01*
X200755970Y-99379329D01*
X200764235Y-99402428D01*
X200770196Y-99426227D01*
X200773796Y-99450495D01*
X200775000Y-99474999D01*
X200775000Y-100525001D01*
X200773796Y-100549505D01*
X200770196Y-100573773D01*
X200764235Y-100597572D01*
X200755970Y-100620671D01*
X200745480Y-100642850D01*
X200732868Y-100663893D01*
X200718253Y-100683599D01*
X200701777Y-100701777D01*
X200683599Y-100718253D01*
X200663893Y-100732868D01*
X200642850Y-100745480D01*
X200620671Y-100755970D01*
X200597572Y-100764235D01*
X200573773Y-100770196D01*
X200549505Y-100773796D01*
X200525001Y-100775000D01*
X199474999Y-100775000D01*
X199450495Y-100773796D01*
X199426227Y-100770196D01*
X199402428Y-100764235D01*
X199379329Y-100755970D01*
X199357150Y-100745480D01*
X199336107Y-100732868D01*
X199316401Y-100718253D01*
X199298223Y-100701777D01*
X199281747Y-100683599D01*
X199267132Y-100663893D01*
X199254520Y-100642850D01*
X199244030Y-100620671D01*
X199235765Y-100597572D01*
X199229804Y-100573773D01*
X199226204Y-100549505D01*
X199225000Y-100525001D01*
X199225000Y-99474999D01*
X199226204Y-99450495D01*
X199229804Y-99426227D01*
X199235765Y-99402428D01*
X199244030Y-99379329D01*
X199254520Y-99357150D01*
X199267132Y-99336107D01*
X199281747Y-99316401D01*
X199298223Y-99298223D01*
X199316401Y-99281747D01*
X199336107Y-99267132D01*
X199357150Y-99254520D01*
X199379329Y-99244030D01*
X199402428Y-99235765D01*
X199426227Y-99229804D01*
X199450495Y-99226204D01*
X199474999Y-99225000D01*
X200525001Y-99225000D01*
X200549505Y-99226204D01*
X200549505Y-99226204D01*
G37*
D24*
G04 #@! TD*
G04 #@! TO.P,J3,a1*
G04 #@! TO.N,-12V*
X200000000Y-100000000D03*
G04 #@! TO.P,J3,a2*
G04 #@! TO.N,SB0_5V*
X197460000Y-100000000D03*
G04 #@! TO.P,J3,a3*
G04 #@! TO.N,~SPV_5V*
X194920000Y-100000000D03*
G04 #@! TO.P,J3,a4*
G04 #@! TO.N,~SP_5V*
X192380000Y-100000000D03*
G04 #@! TO.P,J3,a5*
G04 #@! TO.N,~TM1_5V*
X189840000Y-100000000D03*
G04 #@! TO.P,J3,a6*
G04 #@! TO.N,~AD1_5V*
X187300000Y-100000000D03*
G04 #@! TO.P,J3,a7*
G04 #@! TO.N,~AD3_5V*
X184760000Y-100000000D03*
G04 #@! TO.P,J3,a8*
G04 #@! TO.N,~AD5_5V*
X182220000Y-100000000D03*
G04 #@! TO.P,J3,a9*
G04 #@! TO.N,~AD7_5V*
X179680000Y-100000000D03*
G04 #@! TO.P,J3,a10*
G04 #@! TO.N,~AD9_5V*
X177140000Y-100000000D03*
G04 #@! TO.P,J3,a11*
G04 #@! TO.N,~AD11_5V*
X174600000Y-100000000D03*
G04 #@! TO.P,J3,a12*
G04 #@! TO.N,~AD13_5V*
X172060000Y-100000000D03*
G04 #@! TO.P,J3,a13*
G04 #@! TO.N,~AD15_5V*
X169520000Y-100000000D03*
G04 #@! TO.P,J3,a14*
G04 #@! TO.N,~AD17_5V*
X166980000Y-100000000D03*
G04 #@! TO.P,J3,a15*
G04 #@! TO.N,~AD19_5V*
X164440000Y-100000000D03*
G04 #@! TO.P,J3,a16*
G04 #@! TO.N,~AD21_5V*
X161900000Y-100000000D03*
G04 #@! TO.P,J3,a17*
G04 #@! TO.N,~AD23_5V*
X159360000Y-100000000D03*
G04 #@! TO.P,J3,a18*
G04 #@! TO.N,~AD25_5V*
X156820000Y-100000000D03*
G04 #@! TO.P,J3,a19*
G04 #@! TO.N,~AD27_5V*
X154280000Y-100000000D03*
G04 #@! TO.P,J3,a20*
G04 #@! TO.N,~AD29_5V*
X151740000Y-100000000D03*
G04 #@! TO.P,J3,a21*
G04 #@! TO.N,~AD31_5V*
X149200000Y-100000000D03*
G04 #@! TO.P,J3,a22*
G04 #@! TO.N,GND*
X146660000Y-100000000D03*
G04 #@! TO.P,J3,a23*
X144120000Y-100000000D03*
G04 #@! TO.P,J3,a24*
G04 #@! TO.N,~ARB1_5V*
X141580000Y-100000000D03*
G04 #@! TO.P,J3,a25*
G04 #@! TO.N,~ARB3_5V*
X139040000Y-100000000D03*
G04 #@! TO.P,J3,a26*
G04 #@! TO.N,~ID1_5V*
X136500000Y-100000000D03*
G04 #@! TO.P,J3,a27*
G04 #@! TO.N,~ID3_5V*
X133960000Y-100000000D03*
G04 #@! TO.P,J3,a28*
G04 #@! TO.N,~ACK_5V*
X131420000Y-100000000D03*
G04 #@! TO.P,J3,a29*
G04 #@! TO.N,+5V*
X128880000Y-100000000D03*
G04 #@! TO.P,J3,a30*
G04 #@! TO.N,~RQST_5V*
X126340000Y-100000000D03*
G04 #@! TO.P,J3,a31*
G04 #@! TO.N,~NMRQ_5V*
X123800000Y-100000000D03*
G04 #@! TO.P,J3,a32*
G04 #@! TO.N,+12V*
X121260000Y-100000000D03*
G04 #@! TO.P,J3,b1*
G04 #@! TO.N,-12V*
X200000000Y-97460000D03*
G04 #@! TO.P,J3,b2*
G04 #@! TO.N,GND*
X197460000Y-97460000D03*
G04 #@! TO.P,J3,b3*
X194920000Y-97460000D03*
G04 #@! TO.P,J3,b4*
G04 #@! TO.N,+5V*
X192380000Y-97460000D03*
G04 #@! TO.P,J3,b5*
X189840000Y-97460000D03*
G04 #@! TO.P,J3,b6*
X187300000Y-97460000D03*
G04 #@! TO.P,J3,b7*
X184760000Y-97460000D03*
G04 #@! TO.P,J3,b8*
G04 #@! TO.N,~TM2_5V*
X182220000Y-97460000D03*
G04 #@! TO.P,J3,b9*
G04 #@! TO.N,~CM0_5V*
X179680000Y-97460000D03*
G04 #@! TO.P,J3,b10*
G04 #@! TO.N,~CM1_5V*
X177140000Y-97460000D03*
G04 #@! TO.P,J3,b11*
G04 #@! TO.N,~CM2_5V*
X174600000Y-97460000D03*
G04 #@! TO.P,J3,b12*
G04 #@! TO.N,GND*
X172060000Y-97460000D03*
G04 #@! TO.P,J3,b13*
X169520000Y-97460000D03*
G04 #@! TO.P,J3,b14*
X166980000Y-97460000D03*
G04 #@! TO.P,J3,b15*
X164440000Y-97460000D03*
G04 #@! TO.P,J3,b16*
X161900000Y-97460000D03*
G04 #@! TO.P,J3,b17*
X159360000Y-97460000D03*
G04 #@! TO.P,J3,b18*
X156820000Y-97460000D03*
G04 #@! TO.P,J3,b19*
X154280000Y-97460000D03*
G04 #@! TO.P,J3,b20*
X151740000Y-97460000D03*
G04 #@! TO.P,J3,b21*
X149200000Y-97460000D03*
G04 #@! TO.P,J3,b22*
X146660000Y-97460000D03*
G04 #@! TO.P,J3,b23*
X144120000Y-97460000D03*
G04 #@! TO.P,J3,b24*
G04 #@! TO.N,~CLK2X_5V*
X141580000Y-97460000D03*
G04 #@! TO.P,J3,b25*
G04 #@! TO.N,STDBYPWR*
X139040000Y-97460000D03*
G04 #@! TO.P,J3,b26*
G04 #@! TO.N,~CLK2XEN_5V*
X136500000Y-97460000D03*
G04 #@! TO.P,J3,b27*
G04 #@! TO.N,~CBUSY_5V*
X133960000Y-97460000D03*
G04 #@! TO.P,J3,b28*
G04 #@! TO.N,+5V*
X131420000Y-97460000D03*
G04 #@! TO.P,J3,b29*
X128880000Y-97460000D03*
G04 #@! TO.P,J3,b30*
G04 #@! TO.N,GND*
X126340000Y-97460000D03*
G04 #@! TO.P,J3,b31*
X123800000Y-97460000D03*
G04 #@! TO.P,J3,b32*
G04 #@! TO.N,+12V*
X121260000Y-97460000D03*
G04 #@! TO.P,J3,c1*
G04 #@! TO.N,~RESET_5V*
X200000000Y-94920000D03*
G04 #@! TO.P,J3,c2*
G04 #@! TO.N,SB1_5V*
X197460000Y-94920000D03*
G04 #@! TO.P,J3,c3*
G04 #@! TO.N,+5V*
X194920000Y-94920000D03*
G04 #@! TO.P,J3,c4*
X192380000Y-94920000D03*
G04 #@! TO.P,J3,c5*
G04 #@! TO.N,~TM0_5V*
X189840000Y-94920000D03*
G04 #@! TO.P,J3,c6*
G04 #@! TO.N,~AD0_5V*
X187300000Y-94920000D03*
G04 #@! TO.P,J3,c7*
G04 #@! TO.N,~AD2_5V*
X184760000Y-94920000D03*
G04 #@! TO.P,J3,c8*
G04 #@! TO.N,~AD4_5V*
X182220000Y-94920000D03*
G04 #@! TO.P,J3,c9*
G04 #@! TO.N,~AD6_5V*
X179680000Y-94920000D03*
G04 #@! TO.P,J3,c10*
G04 #@! TO.N,~AD8_5V*
X177140000Y-94920000D03*
G04 #@! TO.P,J3,c11*
G04 #@! TO.N,~AD10_5V*
X174600000Y-94920000D03*
G04 #@! TO.P,J3,c12*
G04 #@! TO.N,~AD12_5V*
X172060000Y-94920000D03*
G04 #@! TO.P,J3,c13*
G04 #@! TO.N,~AD14_5V*
X169520000Y-94920000D03*
G04 #@! TO.P,J3,c14*
G04 #@! TO.N,~AD16_5V*
X166980000Y-94920000D03*
G04 #@! TO.P,J3,c15*
G04 #@! TO.N,~AD18_5V*
X164440000Y-94920000D03*
G04 #@! TO.P,J3,c16*
G04 #@! TO.N,~AD20_5V*
X161900000Y-94920000D03*
G04 #@! TO.P,J3,c17*
G04 #@! TO.N,~AD22_5V*
X159360000Y-94920000D03*
G04 #@! TO.P,J3,c18*
G04 #@! TO.N,~AD24_5V*
X156820000Y-94920000D03*
G04 #@! TO.P,J3,c19*
G04 #@! TO.N,~AD26_5V*
X154280000Y-94920000D03*
G04 #@! TO.P,J3,c20*
G04 #@! TO.N,~AD28_5V*
X151740000Y-94920000D03*
G04 #@! TO.P,J3,c21*
G04 #@! TO.N,~AD30_5V*
X149200000Y-94920000D03*
G04 #@! TO.P,J3,c22*
G04 #@! TO.N,GND*
X146660000Y-94920000D03*
G04 #@! TO.P,J3,c23*
G04 #@! TO.N,~PFW_5V*
X144120000Y-94920000D03*
G04 #@! TO.P,J3,c24*
G04 #@! TO.N,~ARB0_5V*
X141580000Y-94920000D03*
G04 #@! TO.P,J3,c25*
G04 #@! TO.N,~ARB2_5V*
X139040000Y-94920000D03*
G04 #@! TO.P,J3,c26*
G04 #@! TO.N,~ID0_5V*
X136500000Y-94920000D03*
G04 #@! TO.P,J3,c27*
G04 #@! TO.N,~ID2_5V*
X133960000Y-94920000D03*
G04 #@! TO.P,J3,c28*
G04 #@! TO.N,~START_5V*
X131420000Y-94920000D03*
G04 #@! TO.P,J3,c29*
G04 #@! TO.N,+5V*
X128880000Y-94920000D03*
G04 #@! TO.P,J3,c30*
X126340000Y-94920000D03*
G04 #@! TO.P,J3,c31*
G04 #@! TO.N,GND*
X123800000Y-94920000D03*
G04 #@! TO.P,J3,c32*
G04 #@! TO.N,~CLK_5V*
X121260000Y-94920000D03*
G04 #@! TD*
D13*
G04 #@! TO.P,J2,6*
G04 #@! TO.N,Net-(J2-Pad6)*
X121900000Y-20800000D03*
G04 #@! TO.P,J2,5*
G04 #@! TO.N,/B2B/TX*
X121900000Y-23340000D03*
G04 #@! TO.P,J2,4*
G04 #@! TO.N,/B2B/RX*
X121900000Y-25880000D03*
G04 #@! TO.P,J2,3*
G04 #@! TO.N,Net-(J2-Pad3)*
X121900000Y-28420000D03*
G04 #@! TO.P,J2,2*
G04 #@! TO.N,Net-(J2-Pad2)*
X121900000Y-30960000D03*
D12*
G04 #@! TO.P,J2,1*
G04 #@! TO.N,GND*
X121900000Y-33500000D03*
G04 #@! TD*
D13*
G04 #@! TO.P,JAB1,64*
G04 #@! TO.N,GND*
X208740000Y-59210000D03*
G04 #@! TO.P,JAB1,63*
G04 #@! TO.N,/B2B/JTAG_VIO*
X208740000Y-61750000D03*
G04 #@! TO.P,JAB1,62*
G04 #@! TO.N,FPGA_JTAG_TCK*
X206200000Y-59210000D03*
G04 #@! TO.P,JAB1,61*
G04 #@! TO.N,FPGA_JTAG_TDI*
X206200000Y-61750000D03*
G04 #@! TO.P,JAB1,60*
G04 #@! TO.N,USBH0_D-*
X203660000Y-59210000D03*
G04 #@! TO.P,JAB1,59*
G04 #@! TO.N,USBH0_D+*
X203660000Y-61750000D03*
G04 #@! TO.P,JAB1,58*
G04 #@! TO.N,~AD0_3V3*
X201120000Y-59210000D03*
G04 #@! TO.P,JAB1,57*
G04 #@! TO.N,~AD1_3V3*
X201120000Y-61750000D03*
G04 #@! TO.P,JAB1,56*
G04 #@! TO.N,~AD2_3V3*
X198580000Y-59210000D03*
G04 #@! TO.P,JAB1,55*
G04 #@! TO.N,~AD3_3V3*
X198580000Y-61750000D03*
G04 #@! TO.P,JAB1,54*
G04 #@! TO.N,~AD4_3V3*
X196040000Y-59210000D03*
G04 #@! TO.P,JAB1,53*
G04 #@! TO.N,~AD5_3V3*
X196040000Y-61750000D03*
G04 #@! TO.P,JAB1,52*
G04 #@! TO.N,~AD6_3V3*
X193500000Y-59210000D03*
G04 #@! TO.P,JAB1,51*
G04 #@! TO.N,~AD7_3V3*
X193500000Y-61750000D03*
G04 #@! TO.P,JAB1,50*
G04 #@! TO.N,~AD8_3V3*
X190960000Y-59210000D03*
G04 #@! TO.P,JAB1,49*
G04 #@! TO.N,~AD9_3V3*
X190960000Y-61750000D03*
G04 #@! TO.P,JAB1,48*
G04 #@! TO.N,~AD10_3V3*
X188420000Y-59210000D03*
G04 #@! TO.P,JAB1,47*
G04 #@! TO.N,~AD11_3V3*
X188420000Y-61750000D03*
G04 #@! TO.P,JAB1,46*
G04 #@! TO.N,~AD12_3V3*
X185880000Y-59210000D03*
G04 #@! TO.P,JAB1,45*
G04 #@! TO.N,~AD13_3V3*
X185880000Y-61750000D03*
G04 #@! TO.P,JAB1,44*
G04 #@! TO.N,~AD14_3V3*
X183340000Y-59210000D03*
G04 #@! TO.P,JAB1,43*
G04 #@! TO.N,~AD15_3V3*
X183340000Y-61750000D03*
G04 #@! TO.P,JAB1,42*
G04 #@! TO.N,~AD16_3V3*
X180800000Y-59210000D03*
G04 #@! TO.P,JAB1,41*
G04 #@! TO.N,~AD17_3V3*
X180800000Y-61750000D03*
G04 #@! TO.P,JAB1,40*
G04 #@! TO.N,~AD18_3V3*
X178260000Y-59210000D03*
G04 #@! TO.P,JAB1,39*
G04 #@! TO.N,~AD19_3V3*
X178260000Y-61750000D03*
G04 #@! TO.P,JAB1,38*
G04 #@! TO.N,~AD20_3V3*
X175720000Y-59210000D03*
G04 #@! TO.P,JAB1,37*
G04 #@! TO.N,~AD21_3V3*
X175720000Y-61750000D03*
G04 #@! TO.P,JAB1,36*
G04 #@! TO.N,~AD22_3V3*
X173180000Y-59210000D03*
G04 #@! TO.P,JAB1,35*
G04 #@! TO.N,~AD23_3V3*
X173180000Y-61750000D03*
G04 #@! TO.P,JAB1,34*
G04 #@! TO.N,+3V3*
X170640000Y-59210000D03*
G04 #@! TO.P,JAB1,33*
X170640000Y-61750000D03*
G04 #@! TO.P,JAB1,32*
G04 #@! TO.N,GND*
X168100000Y-59210000D03*
G04 #@! TO.P,JAB1,31*
X168100000Y-61750000D03*
G04 #@! TO.P,JAB1,30*
G04 #@! TO.N,+3V3*
X165560000Y-59210000D03*
G04 #@! TO.P,JAB1,29*
X165560000Y-61750000D03*
G04 #@! TO.P,JAB1,28*
G04 #@! TO.N,~AD24_3V3*
X163020000Y-59210000D03*
G04 #@! TO.P,JAB1,27*
G04 #@! TO.N,NUBUS_OE*
X163020000Y-61750000D03*
G04 #@! TO.P,JAB1,26*
G04 #@! TO.N,~AD26_3V3*
X160480000Y-59210000D03*
G04 #@! TO.P,JAB1,25*
G04 #@! TO.N,~AD25_3V3*
X160480000Y-61750000D03*
G04 #@! TO.P,JAB1,24*
G04 #@! TO.N,~AD28_3V3*
X157940000Y-59210000D03*
G04 #@! TO.P,JAB1,23*
G04 #@! TO.N,~AD27_3V3*
X157940000Y-61750000D03*
G04 #@! TO.P,JAB1,22*
G04 #@! TO.N,~AD30_3V3*
X155400000Y-59210000D03*
G04 #@! TO.P,JAB1,21*
G04 #@! TO.N,~AD29_3V3*
X155400000Y-61750000D03*
G04 #@! TO.P,JAB1,20*
G04 #@! TO.N,~CLK_3V3*
X152860000Y-59210000D03*
G04 #@! TO.P,JAB1,19*
G04 #@! TO.N,~AD31_3V3*
X152860000Y-61750000D03*
G04 #@! TO.P,JAB1,18*
G04 #@! TO.N,NUBUS_AD_DIR*
X150320000Y-59210000D03*
G04 #@! TO.P,JAB1,17*
G04 #@! TO.N,~RESET_3V3*
X150320000Y-61750000D03*
G04 #@! TO.P,JAB1,16*
G04 #@! TO.N,fpga_to_cpld_signal_2*
X147780000Y-59210000D03*
G04 #@! TO.P,JAB1,15*
G04 #@! TO.N,NUBUS_MASTER_DIR*
X147780000Y-61750000D03*
G04 #@! TO.P,JAB1,14*
G04 #@! TO.N,fpga_to_cpld_clk*
X145240000Y-59210000D03*
G04 #@! TO.P,JAB1,13*
G04 #@! TO.N,fpga_to_cpld_signal*
X145240000Y-61750000D03*
G04 #@! TO.P,JAB1,12*
G04 #@! TO.N,ARB*
X142700000Y-59210000D03*
G04 #@! TO.P,JAB1,11*
G04 #@! TO.N,GRANT*
X142700000Y-61750000D03*
G04 #@! TO.P,JAB1,10*
G04 #@! TO.N,~ACK_3V3*
X140160000Y-59210000D03*
G04 #@! TO.P,JAB1,9*
G04 #@! TO.N,~START_3V3*
X140160000Y-61750000D03*
G04 #@! TO.P,JAB1,8*
G04 #@! TO.N,~TM1_3V3*
X137620000Y-59210000D03*
G04 #@! TO.P,JAB1,7*
G04 #@! TO.N,~TM0_3V3*
X137620000Y-61750000D03*
G04 #@! TO.P,JAB1,6*
G04 #@! TO.N,~NMRQ_3V3*
X135080000Y-59210000D03*
G04 #@! TO.P,JAB1,5*
G04 #@! TO.N,~RQST_3V3*
X135080000Y-61750000D03*
G04 #@! TO.P,JAB1,4*
G04 #@! TO.N,GND*
X132540000Y-59210000D03*
G04 #@! TO.P,JAB1,3*
X132540000Y-61750000D03*
G04 #@! TO.P,JAB1,2*
G04 #@! TO.N,+5V*
X130000000Y-59210000D03*
D12*
G04 #@! TO.P,JAB1,1*
X130000000Y-61750000D03*
G04 #@! TD*
D25*
G04 #@! TO.N,GND*
X137200000Y-72100000D03*
X255250000Y-27250000D03*
X256220000Y-61875000D03*
X255500000Y-58625000D03*
X256010000Y-87920000D03*
X243770000Y-35180000D03*
X267000000Y-58050000D03*
X262640000Y-79355000D03*
X252900000Y-82730000D03*
X267000000Y-65550000D03*
X141650000Y-14352500D03*
X255040000Y-53812500D03*
X246510000Y-58625000D03*
X242870000Y-30170000D03*
X224140000Y-96000000D03*
X168820000Y-55760000D03*
X168357500Y-79750000D03*
X155357500Y-79750000D03*
X181857500Y-79750000D03*
X193357500Y-79750000D03*
X163000000Y-71000000D03*
X188000000Y-71000000D03*
X176500000Y-71000000D03*
X149900000Y-71000000D03*
X127100000Y-70212500D03*
X256000000Y-33000000D03*
X256000000Y-31250000D03*
X248670000Y-34670001D03*
X247020000Y-29510000D03*
X246250000Y-22250000D03*
X248890000Y-16170000D03*
X267730000Y-79355000D03*
X267720000Y-77180000D03*
X251500000Y-23100000D03*
X248840000Y-40287500D03*
X237972500Y-37170000D03*
X252380000Y-61875000D03*
X140550000Y-75950000D03*
X125750000Y-73500000D03*
X129000000Y-78950000D03*
X146500000Y-80800000D03*
X135152523Y-83900000D03*
X141830000Y-66660000D03*
X137500000Y-89312500D03*
X145300000Y-90050000D03*
X148200000Y-86800000D03*
X139300000Y-87450000D03*
X145400000Y-88100000D03*
X117500000Y-90800000D03*
X117500000Y-88850000D03*
X116500000Y-85500000D03*
X114500000Y-88200000D03*
G04 #@! TO.N,+3V3*
X246800000Y-26300000D03*
X186750000Y-73687500D03*
X175300000Y-73700000D03*
X148750000Y-73687500D03*
X161750000Y-73687500D03*
X257550000Y-55387500D03*
X245550000Y-57975000D03*
X248080000Y-63750000D03*
X252000000Y-31250000D03*
X252000000Y-33000000D03*
X256000000Y-29500000D03*
X256000000Y-22250000D03*
X241210000Y-35980000D03*
X118665134Y-45500000D03*
X118665134Y-39500000D03*
X200600000Y-82787500D03*
X222537500Y-59000000D03*
X160287500Y-20250000D03*
X117503601Y-52370000D03*
X117503601Y-57330000D03*
X117503601Y-60080000D03*
X127250000Y-71787500D03*
X120925000Y-77250000D03*
X136950000Y-80500000D03*
X143500000Y-77950000D03*
X136727523Y-83900000D03*
X141100000Y-65220000D03*
X137500000Y-90887500D03*
X113050000Y-86000000D03*
X120500000Y-85500000D03*
G04 #@! TO.N,+5V*
X253850000Y-87660000D03*
X246230000Y-61872500D03*
X131697842Y-88000000D03*
X129897842Y-88000000D03*
X128097842Y-88000000D03*
X133421568Y-88014972D03*
X220840000Y-97970000D03*
G04 #@! TO.N,~RESET_5V*
X145750000Y-74250000D03*
G04 #@! TO.N,~TM1_5V*
X143750000Y-75330000D03*
G04 #@! TO.N,~TM2_5V*
X134960000Y-80370000D03*
G04 #@! TO.N,~TM0_5V*
X144750000Y-74780000D03*
G04 #@! TO.N,~ID3_3V3*
X125600000Y-38077042D03*
G04 #@! TO.N,~ID2_3V3*
X125600000Y-41043708D03*
G04 #@! TO.N,~ID1_3V3*
X125600000Y-44010374D03*
G04 #@! TO.N,~ID0_3V3*
X125600000Y-46977042D03*
G04 #@! TO.N,~CLK2X_5V*
X132920000Y-80370000D03*
G04 #@! TO.N,~START_3V3*
X132600000Y-75600000D03*
G04 #@! TO.N,~ACK_3V3*
X134000000Y-73600000D03*
X125750000Y-52344020D03*
G04 #@! TO.N,~TM0_3V3*
X132100000Y-67700000D03*
X126000000Y-57330000D03*
G04 #@! TO.N,~TM1_3V3*
X130100000Y-69100000D03*
X126000000Y-60080000D03*
G04 #@! TO.N,FPGA_VGA_HS*
X251850000Y-34730000D03*
G04 #@! TO.N,FPGA_VGA_VS*
X251850000Y-36460000D03*
G04 #@! TO.N,HDMI_5V*
X255920000Y-63320000D03*
X260760000Y-65782500D03*
G04 #@! TO.N,ARB*
X153300000Y-18750000D03*
G04 #@! TO.N,NUBUS_AD_DIR*
X146750000Y-74750000D03*
G04 #@! TO.N,CPLD_JTAG_TDI*
X137700000Y-77400000D03*
G04 #@! TO.N,CPLD_JTAG_TDO*
X138450000Y-78400000D03*
G04 #@! TO.N,CPLD_JTAG_TMS*
X138450000Y-80400000D03*
G04 #@! TO.N,CPLD_JTAG_TCK*
X139200000Y-79390000D03*
G04 #@! TO.N,fpga_to_cpld_clk*
X127000000Y-80900000D03*
G04 #@! TO.N,GRANT*
X153300000Y-22000000D03*
G04 #@! TO.N,fpga_to_cpld_signal*
X136000000Y-73250000D03*
G04 #@! TD*
D26*
G04 #@! TO.N,/B2B/JTAG_VIO*
X209589999Y-60900001D02*
X208740000Y-61750000D01*
X222921399Y-34808601D02*
X222921399Y-47568601D01*
X222921399Y-47568601D02*
X209589999Y-60900001D01*
X228230000Y-29500000D02*
X222921399Y-34808601D01*
G04 #@! TO.N,~RESET_5V*
X199225001Y-94145001D02*
X200000000Y-94920000D01*
X181229999Y-76149999D02*
X199225001Y-94145001D01*
X145750000Y-74815685D02*
X147084314Y-76149999D01*
X147084314Y-76149999D02*
X181229999Y-76149999D01*
X145750000Y-74250000D02*
X145750000Y-74815685D01*
G04 #@! TO.N,~TM1_5V*
X189065001Y-99225001D02*
X189840000Y-100000000D01*
X188836399Y-94971069D02*
X188836399Y-98996399D01*
X188836399Y-98996399D02*
X189065001Y-99225001D01*
X177115330Y-83250000D02*
X188836399Y-94971069D01*
X143750000Y-75895685D02*
X151104315Y-83250000D01*
X143750000Y-75330000D02*
X143750000Y-75895685D01*
X152250000Y-83250000D02*
X177115330Y-83250000D01*
X151104315Y-83250000D02*
X152250000Y-83250000D01*
G04 #@! TO.N,~TM2_5V*
X134960000Y-80935685D02*
X138924315Y-84900000D01*
X134960000Y-80370000D02*
X134960000Y-80935685D01*
X181445001Y-96685001D02*
X182220000Y-97460000D01*
X181216399Y-96456399D02*
X181445001Y-96685001D01*
X181216399Y-95016399D02*
X181216399Y-96456399D01*
X171100000Y-84900000D02*
X181216399Y-95016399D01*
X138924315Y-84900000D02*
X171100000Y-84900000D01*
G04 #@! TO.N,~TM0_5V*
X172243899Y-77323899D02*
X189065001Y-94145001D01*
X189065001Y-94145001D02*
X189840000Y-94920000D01*
X147293899Y-77323899D02*
X148000000Y-77323899D01*
X144750000Y-74780000D02*
X147293899Y-77323899D01*
X148000000Y-77323899D02*
X172243899Y-77323899D01*
G04 #@! TO.N,~ID3_3V3*
X129542958Y-38077042D02*
X137620000Y-30000000D01*
X125600000Y-38077042D02*
X129542958Y-38077042D01*
G04 #@! TO.N,~ID2_3V3*
X138469999Y-28309999D02*
X137620000Y-27460000D01*
X125600000Y-41043708D02*
X128172622Y-41043708D01*
X128172622Y-41043708D02*
X138698601Y-30517729D01*
X138698601Y-30517729D02*
X138698601Y-28538601D01*
X138698601Y-28538601D02*
X138469999Y-28309999D01*
G04 #@! TO.N,~ID1_3V3*
X139081399Y-28538601D02*
X139310001Y-28309999D01*
X139081399Y-30565997D02*
X139081399Y-28538601D01*
X126037021Y-43610375D02*
X139081399Y-30565997D01*
X125999999Y-43610375D02*
X126037021Y-43610375D01*
X139310001Y-28309999D02*
X140160000Y-27460000D01*
X125600000Y-44010374D02*
X125999999Y-43610375D01*
G04 #@! TO.N,~ID0_3V3*
X140160000Y-32417042D02*
X140160000Y-30000000D01*
X125600000Y-46977042D02*
X140160000Y-32417042D01*
G04 #@! TO.N,~CLK2X_5V*
X132920000Y-80370000D02*
X132920000Y-83920000D01*
X132920000Y-83920000D02*
X135300000Y-86300000D01*
X140805001Y-96685001D02*
X141580000Y-97460000D01*
X140576399Y-96456399D02*
X140805001Y-96685001D01*
X139056399Y-96456399D02*
X140576399Y-96456399D01*
X138036399Y-95436399D02*
X139056399Y-96456399D01*
X138036399Y-94971069D02*
X138036399Y-95436399D01*
X135300000Y-92234670D02*
X138036399Y-94971069D01*
X135300000Y-86300000D02*
X135300000Y-92234670D01*
G04 #@! TO.N,~START_3V3*
X132600000Y-69310000D02*
X140160000Y-61750000D01*
X132600000Y-75600000D02*
X132600000Y-69310000D01*
G04 #@! TO.N,~ACK_3V3*
X141009999Y-60059999D02*
X140160000Y-59210000D01*
X141238601Y-63731069D02*
X141238601Y-60288601D01*
X141238601Y-60288601D02*
X141009999Y-60059999D01*
X134000000Y-70969670D02*
X141238601Y-63731069D01*
X134000000Y-73600000D02*
X134000000Y-70969670D01*
X133294020Y-52344020D02*
X140160000Y-59210000D01*
X125750000Y-52344020D02*
X133294020Y-52344020D01*
G04 #@! TO.N,~TM0_3V3*
X137620000Y-62180000D02*
X137620000Y-61750000D01*
X132100000Y-67700000D02*
X137620000Y-62180000D01*
X138469999Y-60900001D02*
X137620000Y-61750000D01*
X138698601Y-60671399D02*
X138469999Y-60900001D01*
X138698601Y-58692271D02*
X138698601Y-60671399D01*
X137336330Y-57330000D02*
X138698601Y-58692271D01*
X126000000Y-57330000D02*
X137336330Y-57330000D01*
G04 #@! TO.N,~TM1_3V3*
X136541399Y-61898271D02*
X130100000Y-68339670D01*
X136541399Y-60288601D02*
X136541399Y-61898271D01*
X137620000Y-59210000D02*
X136541399Y-60288601D01*
X130100000Y-68339670D02*
X130100000Y-69100000D01*
X136770001Y-58360001D02*
X137620000Y-59210000D01*
X136541399Y-58131399D02*
X136770001Y-58360001D01*
X127948601Y-58131399D02*
X136541399Y-58131399D01*
X126000000Y-60080000D02*
X127948601Y-58131399D01*
G04 #@! TO.N,FPGA_VGA_HS*
X154273700Y-26046300D02*
X152860000Y-27460000D01*
X251850000Y-34730000D02*
X250551066Y-34730000D01*
X250551066Y-34730000D02*
X241166257Y-25345191D01*
X154974809Y-25345191D02*
X154273700Y-26046300D01*
X241166257Y-25345191D02*
X154974809Y-25345191D01*
G04 #@! TO.N,FPGA_VGA_VS*
X156249999Y-26610001D02*
X155400000Y-27460000D01*
X251450001Y-36060001D02*
X251850000Y-36460000D01*
X157210000Y-25650000D02*
X241040000Y-25650000D01*
X156430000Y-26430000D02*
X157210000Y-25650000D01*
X241040000Y-25650000D02*
X251450001Y-36060001D01*
X156430000Y-26430000D02*
X156249999Y-26610001D01*
X156508600Y-26351400D02*
X156430000Y-26430000D01*
G04 #@! TO.N,ARB*
X143549999Y-58360001D02*
X142700000Y-59210000D01*
X149241399Y-52668601D02*
X143549999Y-58360001D01*
X149241399Y-22808601D02*
X149241399Y-52668601D01*
X153300000Y-18750000D02*
X149241399Y-22808601D01*
G04 #@! TO.N,NUBUS_AD_DIR*
X149470001Y-60059999D02*
X150320000Y-59210000D01*
X149241399Y-60288601D02*
X149470001Y-60059999D01*
X149241399Y-70758601D02*
X149241399Y-60288601D01*
X149241399Y-70758601D02*
X149241399Y-72258601D01*
X149241399Y-72258601D02*
X146750000Y-74750000D01*
G04 #@! TO.N,CPLD_JTAG_TDI*
X115696399Y-68896399D02*
X117596399Y-68896399D01*
X114600000Y-67800000D02*
X115696399Y-68896399D01*
X126428601Y-77728601D02*
X117596399Y-68896399D01*
X129030330Y-77400000D02*
X128701729Y-77728601D01*
X128701729Y-77728601D02*
X126428601Y-77728601D01*
X137700000Y-77400000D02*
X129030330Y-77400000D01*
G04 #@! TO.N,CPLD_JTAG_TDO*
X115503601Y-70703601D02*
X114600000Y-69800000D01*
X118453601Y-70703601D02*
X115503601Y-70703601D01*
X137884315Y-78400000D02*
X137805714Y-78321399D01*
X137805714Y-78321399D02*
X126071399Y-78321399D01*
X138450000Y-78400000D02*
X137884315Y-78400000D01*
X126071399Y-78321399D02*
X118453601Y-70703601D01*
G04 #@! TO.N,CPLD_JTAG_TMS*
X114600000Y-73800000D02*
X115503601Y-74703601D01*
X115503601Y-74703601D02*
X120872535Y-74703601D01*
X120872535Y-74703601D02*
X126168934Y-80000000D01*
X129616586Y-79694810D02*
X129311396Y-80000000D01*
X129311396Y-80000000D02*
X126168934Y-80000000D01*
X137744810Y-79694810D02*
X129616586Y-79694810D01*
X138450000Y-80400000D02*
X137744810Y-79694810D01*
G04 #@! TO.N,CPLD_JTAG_TCK*
X114600000Y-71800000D02*
X115696399Y-72896399D01*
X115696399Y-72896399D02*
X119496399Y-72896399D01*
X126178601Y-79578601D02*
X119496399Y-72896399D01*
X129301729Y-79578601D02*
X126178601Y-79578601D01*
X129490330Y-79390000D02*
X129301729Y-79578601D01*
X139200000Y-79390000D02*
X129490330Y-79390000D01*
G04 #@! TO.N,FPGA_JTAG_TCK*
X206200000Y-47530000D02*
X224230000Y-29500000D01*
X206200000Y-59210000D02*
X206200000Y-47530000D01*
G04 #@! TO.N,FPGA_JTAG_TDI*
X205350001Y-60900001D02*
X206200000Y-61750000D01*
X205121399Y-60671399D02*
X205350001Y-60900001D01*
X205121399Y-44608601D02*
X205121399Y-60671399D01*
X220230000Y-29500000D02*
X205121399Y-44608601D01*
G04 #@! TO.N,FPGA_JTAG_TMS*
X206200000Y-27460000D02*
X207340000Y-28600000D01*
X225555001Y-28825001D02*
X226230000Y-29500000D01*
X207343601Y-28596399D02*
X225326399Y-28596399D01*
X225326399Y-28596399D02*
X225555001Y-28825001D01*
X207340000Y-28600000D02*
X207343601Y-28596399D01*
G04 #@! TO.N,GRANT*
X152900001Y-22399999D02*
X153300000Y-22000000D01*
X151781399Y-50559667D02*
X151781399Y-23518601D01*
X143778601Y-58562465D02*
X151781399Y-50559667D01*
X143778601Y-60671399D02*
X143778601Y-58562465D01*
X151781399Y-23518601D02*
X152900001Y-22399999D01*
X142700000Y-61750000D02*
X143778601Y-60671399D01*
G04 #@! TO.N,fpga_to_cpld_signal*
X144390001Y-62599999D02*
X145240000Y-61750000D01*
X136000000Y-71559670D02*
X144390001Y-63169669D01*
X144390001Y-63169669D02*
X144390001Y-62599999D01*
X136000000Y-73250000D02*
X136000000Y-71559670D01*
G04 #@! TD*
M02*
