G04 #@! TF.GenerationSoftware,KiCad,Pcbnew,5.1.9+dfsg1-1~bpo10+1*
G04 #@! TF.CreationDate,2022-11-12T11:37:05+01:00*
G04 #@! TF.ProjectId,nubus-to-ztex,6e756275-732d-4746-9f2d-7a7465782e6b,rev?*
G04 #@! TF.SameCoordinates,Original*
G04 #@! TF.FileFunction,Paste,Top*
G04 #@! TF.FilePolarity,Positive*
%FSLAX46Y46*%
G04 Gerber Fmt 4.6, Leading zero omitted, Abs format (unit mm)*
G04 Created by KiCad (PCBNEW 5.1.9+dfsg1-1~bpo10+1) date 2022-11-12 11:37:05*
%MOMM*%
%LPD*%
G01*
G04 APERTURE LIST*
%ADD10C,0.010000*%
%ADD11R,2.240000X1.420010*%
%ADD12R,2.340000X1.420010*%
%ADD13R,1.000000X2.750000*%
%ADD14R,1.550000X0.450000*%
%ADD15R,0.450000X1.550000*%
%ADD16R,0.800000X1.500000*%
%ADD17R,1.500000X2.050000*%
%ADD18R,0.450000X1.450000*%
%ADD19R,1.450000X0.450000*%
%ADD20R,1.570000X0.410000*%
%ADD21R,1.900000X1.500000*%
%ADD22R,1.350000X0.400000*%
%ADD23R,0.650000X1.060000*%
%ADD24R,1.060000X0.650000*%
%ADD25R,1.900000X0.300000*%
G04 APERTURE END LIST*
D10*
G36*
X264031000Y-18399990D02*
G01*
X264031000Y-19820010D01*
X261691000Y-19820010D01*
X261691000Y-18399990D01*
X264031000Y-18399990D01*
G37*
X264031000Y-18399990D02*
X264031000Y-19820010D01*
X261691000Y-19820010D01*
X261691000Y-18399990D01*
X264031000Y-18399990D01*
G36*
X260120000Y-18399990D02*
G01*
X260120000Y-19820010D01*
X257880000Y-19820010D01*
X257880000Y-18399990D01*
X260120000Y-18399990D01*
G37*
X260120000Y-18399990D02*
X260120000Y-19820010D01*
X257880000Y-19820010D01*
X257880000Y-18399990D01*
X260120000Y-18399990D01*
G36*
X264031000Y-20939990D02*
G01*
X264031000Y-22360010D01*
X261691000Y-22360010D01*
X261691000Y-20939990D01*
X264031000Y-20939990D01*
G37*
X264031000Y-20939990D02*
X264031000Y-22360010D01*
X261691000Y-22360010D01*
X261691000Y-20939990D01*
X264031000Y-20939990D01*
G36*
X260120000Y-20939990D02*
G01*
X260120000Y-22360010D01*
X257880000Y-22360010D01*
X257880000Y-20939990D01*
X260120000Y-20939990D01*
G37*
X260120000Y-20939990D02*
X260120000Y-22360010D01*
X257880000Y-22360010D01*
X257880000Y-20939990D01*
X260120000Y-20939990D01*
G36*
X264031000Y-23479990D02*
G01*
X264031000Y-24900010D01*
X261691000Y-24900010D01*
X261691000Y-23479990D01*
X264031000Y-23479990D01*
G37*
X264031000Y-23479990D02*
X264031000Y-24900010D01*
X261691000Y-24900010D01*
X261691000Y-23479990D01*
X264031000Y-23479990D01*
G36*
X260120000Y-23479990D02*
G01*
X260120000Y-24900010D01*
X257880000Y-24900010D01*
X257880000Y-23479990D01*
X260120000Y-23479990D01*
G37*
X260120000Y-23479990D02*
X260120000Y-24900010D01*
X257880000Y-24900010D01*
X257880000Y-23479990D01*
X260120000Y-23479990D01*
G36*
X264031000Y-26019990D02*
G01*
X264031000Y-27440006D01*
X261691000Y-27440006D01*
X261691000Y-26019990D01*
X264031000Y-26019990D01*
G37*
X264031000Y-26019990D02*
X264031000Y-27440006D01*
X261691000Y-27440006D01*
X261691000Y-26019990D01*
X264031000Y-26019990D01*
G36*
X260120000Y-26019990D02*
G01*
X260120000Y-27440006D01*
X257880000Y-27440006D01*
X257880000Y-26019990D01*
X260120000Y-26019990D01*
G37*
X260120000Y-26019990D02*
X260120000Y-27440006D01*
X257880000Y-27440006D01*
X257880000Y-26019990D01*
X260120000Y-26019990D01*
G36*
X264031000Y-28559994D02*
G01*
X264031000Y-29980010D01*
X261691000Y-29980010D01*
X261691000Y-28559994D01*
X264031000Y-28559994D01*
G37*
X264031000Y-28559994D02*
X264031000Y-29980010D01*
X261691000Y-29980010D01*
X261691000Y-28559994D01*
X264031000Y-28559994D01*
G36*
X260120000Y-28559994D02*
G01*
X260120000Y-29980010D01*
X257880000Y-29980010D01*
X257880000Y-28559994D01*
X260120000Y-28559994D01*
G37*
X260120000Y-28559994D02*
X260120000Y-29980010D01*
X257880000Y-29980010D01*
X257880000Y-28559994D01*
X260120000Y-28559994D01*
G36*
X264031000Y-31099990D02*
G01*
X264031000Y-32520010D01*
X261691000Y-32520010D01*
X261691000Y-31099990D01*
X264031000Y-31099990D01*
G37*
X264031000Y-31099990D02*
X264031000Y-32520010D01*
X261691000Y-32520010D01*
X261691000Y-31099990D01*
X264031000Y-31099990D01*
G36*
X260120000Y-31099990D02*
G01*
X260120000Y-32520010D01*
X257880000Y-32520010D01*
X257880000Y-31099990D01*
X260120000Y-31099990D01*
G37*
X260120000Y-31099990D02*
X260120000Y-32520010D01*
X257880000Y-32520010D01*
X257880000Y-31099990D01*
X260120000Y-31099990D01*
G36*
X264031000Y-33639990D02*
G01*
X264031000Y-35060010D01*
X261691000Y-35060010D01*
X261691000Y-33639990D01*
X264031000Y-33639990D01*
G37*
X264031000Y-33639990D02*
X264031000Y-35060010D01*
X261691000Y-35060010D01*
X261691000Y-33639990D01*
X264031000Y-33639990D01*
G36*
X260120000Y-33639990D02*
G01*
X260120000Y-35060010D01*
X257880000Y-35060010D01*
X257880000Y-33639990D01*
X260120000Y-33639990D01*
G37*
X260120000Y-33639990D02*
X260120000Y-35060010D01*
X257880000Y-35060010D01*
X257880000Y-33639990D01*
X260120000Y-33639990D01*
G36*
X264031000Y-36179990D02*
G01*
X264031000Y-37600010D01*
X261691000Y-37600010D01*
X261691000Y-36179990D01*
X264031000Y-36179990D01*
G37*
X264031000Y-36179990D02*
X264031000Y-37600010D01*
X261691000Y-37600010D01*
X261691000Y-36179990D01*
X264031000Y-36179990D01*
G36*
X260120000Y-36179990D02*
G01*
X260120000Y-37600010D01*
X257880000Y-37600010D01*
X257880000Y-36179990D01*
X260120000Y-36179990D01*
G37*
X260120000Y-36179990D02*
X260120000Y-37600010D01*
X257880000Y-37600010D01*
X257880000Y-36179990D01*
X260120000Y-36179990D01*
D11*
X259000000Y-36890000D03*
D12*
X262861000Y-36890000D03*
D11*
X259000000Y-34350000D03*
D12*
X262861000Y-34350000D03*
D11*
X259000000Y-31810000D03*
D12*
X262861000Y-31810000D03*
D11*
X259000000Y-29270000D03*
D12*
X262861000Y-29270000D03*
D11*
X259000000Y-26730000D03*
D12*
X262861000Y-26730000D03*
D11*
X259000000Y-24190000D03*
D12*
X262861000Y-24190000D03*
D11*
X259000000Y-21650000D03*
D12*
X262861000Y-21650000D03*
D11*
X259000000Y-19110000D03*
D12*
X262861000Y-19110000D03*
D13*
X220000000Y-31720000D03*
X220000000Y-27460000D03*
X222000000Y-31720000D03*
X222000000Y-27460000D03*
X224000000Y-31720000D03*
X224000000Y-27460000D03*
X226000000Y-31720000D03*
X226000000Y-27460000D03*
X228000000Y-31720000D03*
X228000000Y-27460000D03*
X230000000Y-31720000D03*
X230000000Y-27460000D03*
X232000000Y-31720000D03*
X232000000Y-27460000D03*
G36*
G01*
X129215000Y-79896250D02*
X129215000Y-79383750D01*
G75*
G02*
X129433750Y-79165000I218750J0D01*
G01*
X129871250Y-79165000D01*
G75*
G02*
X130090000Y-79383750I0J-218750D01*
G01*
X130090000Y-79896250D01*
G75*
G02*
X129871250Y-80115000I-218750J0D01*
G01*
X129433750Y-80115000D01*
G75*
G02*
X129215000Y-79896250I0J218750D01*
G01*
G37*
G36*
G01*
X130790000Y-79896250D02*
X130790000Y-79383750D01*
G75*
G02*
X131008750Y-79165000I218750J0D01*
G01*
X131446250Y-79165000D01*
G75*
G02*
X131665000Y-79383750I0J-218750D01*
G01*
X131665000Y-79896250D01*
G75*
G02*
X131446250Y-80115000I-218750J0D01*
G01*
X131008750Y-80115000D01*
G75*
G02*
X130790000Y-79896250I0J218750D01*
G01*
G37*
D14*
X135250000Y-77865000D03*
X135250000Y-77215000D03*
X135250000Y-76565000D03*
X135250000Y-75915000D03*
X135250000Y-75265000D03*
X135250000Y-74615000D03*
X135250000Y-73965000D03*
X135250000Y-73315000D03*
X135250000Y-72665000D03*
X135250000Y-72015000D03*
X129650000Y-72015000D03*
X129650000Y-72665000D03*
X129650000Y-73315000D03*
X129650000Y-73965000D03*
X129650000Y-74615000D03*
X129650000Y-75265000D03*
X129650000Y-75915000D03*
X129650000Y-76565000D03*
X129650000Y-77215000D03*
X129650000Y-77865000D03*
G36*
G01*
X189467621Y-52687953D02*
X188955121Y-52687953D01*
G75*
G02*
X188736371Y-52469203I0J218750D01*
G01*
X188736371Y-52031703D01*
G75*
G02*
X188955121Y-51812953I218750J0D01*
G01*
X189467621Y-51812953D01*
G75*
G02*
X189686371Y-52031703I0J-218750D01*
G01*
X189686371Y-52469203D01*
G75*
G02*
X189467621Y-52687953I-218750J0D01*
G01*
G37*
G36*
G01*
X189467621Y-51112953D02*
X188955121Y-51112953D01*
G75*
G02*
X188736371Y-50894203I0J218750D01*
G01*
X188736371Y-50456703D01*
G75*
G02*
X188955121Y-50237953I218750J0D01*
G01*
X189467621Y-50237953D01*
G75*
G02*
X189686371Y-50456703I0J-218750D01*
G01*
X189686371Y-50894203D01*
G75*
G02*
X189467621Y-51112953I-218750J0D01*
G01*
G37*
D15*
X187436371Y-46662953D03*
X186786371Y-46662953D03*
X186136371Y-46662953D03*
X185486371Y-46662953D03*
X184836371Y-46662953D03*
X184186371Y-46662953D03*
X183536371Y-46662953D03*
X182886371Y-46662953D03*
X182236371Y-46662953D03*
X181586371Y-46662953D03*
X181586371Y-52262953D03*
X182236371Y-52262953D03*
X182886371Y-52262953D03*
X183536371Y-52262953D03*
X184186371Y-52262953D03*
X184836371Y-52262953D03*
X185486371Y-52262953D03*
X186136371Y-52262953D03*
X186786371Y-52262953D03*
X187436371Y-52262953D03*
G36*
G01*
X254256250Y-37327500D02*
X253743750Y-37327500D01*
G75*
G02*
X253525000Y-37108750I0J218750D01*
G01*
X253525000Y-36671250D01*
G75*
G02*
X253743750Y-36452500I218750J0D01*
G01*
X254256250Y-36452500D01*
G75*
G02*
X254475000Y-36671250I0J-218750D01*
G01*
X254475000Y-37108750D01*
G75*
G02*
X254256250Y-37327500I-218750J0D01*
G01*
G37*
G36*
G01*
X254256250Y-35752500D02*
X253743750Y-35752500D01*
G75*
G02*
X253525000Y-35533750I0J218750D01*
G01*
X253525000Y-35096250D01*
G75*
G02*
X253743750Y-34877500I218750J0D01*
G01*
X254256250Y-34877500D01*
G75*
G02*
X254475000Y-35096250I0J-218750D01*
G01*
X254475000Y-35533750D01*
G75*
G02*
X254256250Y-35752500I-218750J0D01*
G01*
G37*
G36*
G01*
X137866250Y-21485293D02*
X136953750Y-21485293D01*
G75*
G02*
X136710000Y-21241543I0J243750D01*
G01*
X136710000Y-20754043D01*
G75*
G02*
X136953750Y-20510293I243750J0D01*
G01*
X137866250Y-20510293D01*
G75*
G02*
X138110000Y-20754043I0J-243750D01*
G01*
X138110000Y-21241543D01*
G75*
G02*
X137866250Y-21485293I-243750J0D01*
G01*
G37*
G36*
G01*
X137866250Y-19610293D02*
X136953750Y-19610293D01*
G75*
G02*
X136710000Y-19366543I0J243750D01*
G01*
X136710000Y-18879043D01*
G75*
G02*
X136953750Y-18635293I243750J0D01*
G01*
X137866250Y-18635293D01*
G75*
G02*
X138110000Y-18879043I0J-243750D01*
G01*
X138110000Y-19366543D01*
G75*
G02*
X137866250Y-19610293I-243750J0D01*
G01*
G37*
G36*
G01*
X135336250Y-19610293D02*
X134423750Y-19610293D01*
G75*
G02*
X134180000Y-19366543I0J243750D01*
G01*
X134180000Y-18879043D01*
G75*
G02*
X134423750Y-18635293I243750J0D01*
G01*
X135336250Y-18635293D01*
G75*
G02*
X135580000Y-18879043I0J-243750D01*
G01*
X135580000Y-19366543D01*
G75*
G02*
X135336250Y-19610293I-243750J0D01*
G01*
G37*
G36*
G01*
X135336250Y-21485293D02*
X134423750Y-21485293D01*
G75*
G02*
X134180000Y-21241543I0J243750D01*
G01*
X134180000Y-20754043D01*
G75*
G02*
X134423750Y-20510293I243750J0D01*
G01*
X135336250Y-20510293D01*
G75*
G02*
X135580000Y-20754043I0J-243750D01*
G01*
X135580000Y-21241543D01*
G75*
G02*
X135336250Y-21485293I-243750J0D01*
G01*
G37*
G36*
G01*
X124035000Y-68693750D02*
X124035000Y-69606250D01*
G75*
G02*
X123791250Y-69850000I-243750J0D01*
G01*
X123303750Y-69850000D01*
G75*
G02*
X123060000Y-69606250I0J243750D01*
G01*
X123060000Y-68693750D01*
G75*
G02*
X123303750Y-68450000I243750J0D01*
G01*
X123791250Y-68450000D01*
G75*
G02*
X124035000Y-68693750I0J-243750D01*
G01*
G37*
G36*
G01*
X122160000Y-68693750D02*
X122160000Y-69606250D01*
G75*
G02*
X121916250Y-69850000I-243750J0D01*
G01*
X121428750Y-69850000D01*
G75*
G02*
X121185000Y-69606250I0J243750D01*
G01*
X121185000Y-68693750D01*
G75*
G02*
X121428750Y-68450000I243750J0D01*
G01*
X121916250Y-68450000D01*
G75*
G02*
X122160000Y-68693750I0J-243750D01*
G01*
G37*
G36*
G01*
X177687939Y-17461035D02*
X178600439Y-17461035D01*
G75*
G02*
X178844189Y-17704785I0J-243750D01*
G01*
X178844189Y-18192285D01*
G75*
G02*
X178600439Y-18436035I-243750J0D01*
G01*
X177687939Y-18436035D01*
G75*
G02*
X177444189Y-18192285I0J243750D01*
G01*
X177444189Y-17704785D01*
G75*
G02*
X177687939Y-17461035I243750J0D01*
G01*
G37*
G36*
G01*
X177687939Y-15586035D02*
X178600439Y-15586035D01*
G75*
G02*
X178844189Y-15829785I0J-243750D01*
G01*
X178844189Y-16317285D01*
G75*
G02*
X178600439Y-16561035I-243750J0D01*
G01*
X177687939Y-16561035D01*
G75*
G02*
X177444189Y-16317285I0J243750D01*
G01*
X177444189Y-15829785D01*
G75*
G02*
X177687939Y-15586035I243750J0D01*
G01*
G37*
G36*
G01*
X175147939Y-15586035D02*
X176060439Y-15586035D01*
G75*
G02*
X176304189Y-15829785I0J-243750D01*
G01*
X176304189Y-16317285D01*
G75*
G02*
X176060439Y-16561035I-243750J0D01*
G01*
X175147939Y-16561035D01*
G75*
G02*
X174904189Y-16317285I0J243750D01*
G01*
X174904189Y-15829785D01*
G75*
G02*
X175147939Y-15586035I243750J0D01*
G01*
G37*
G36*
G01*
X175147939Y-17461035D02*
X176060439Y-17461035D01*
G75*
G02*
X176304189Y-17704785I0J-243750D01*
G01*
X176304189Y-18192285D01*
G75*
G02*
X176060439Y-18436035I-243750J0D01*
G01*
X175147939Y-18436035D01*
G75*
G02*
X174904189Y-18192285I0J243750D01*
G01*
X174904189Y-17704785D01*
G75*
G02*
X175147939Y-17461035I243750J0D01*
G01*
G37*
G36*
G01*
X134623750Y-14835293D02*
X135136250Y-14835293D01*
G75*
G02*
X135355000Y-15054043I0J-218750D01*
G01*
X135355000Y-15491543D01*
G75*
G02*
X135136250Y-15710293I-218750J0D01*
G01*
X134623750Y-15710293D01*
G75*
G02*
X134405000Y-15491543I0J218750D01*
G01*
X134405000Y-15054043D01*
G75*
G02*
X134623750Y-14835293I218750J0D01*
G01*
G37*
G36*
G01*
X134623750Y-16410293D02*
X135136250Y-16410293D01*
G75*
G02*
X135355000Y-16629043I0J-218750D01*
G01*
X135355000Y-17066543D01*
G75*
G02*
X135136250Y-17285293I-218750J0D01*
G01*
X134623750Y-17285293D01*
G75*
G02*
X134405000Y-17066543I0J218750D01*
G01*
X134405000Y-16629043D01*
G75*
G02*
X134623750Y-16410293I218750J0D01*
G01*
G37*
G36*
G01*
X137163750Y-16410293D02*
X137676250Y-16410293D01*
G75*
G02*
X137895000Y-16629043I0J-218750D01*
G01*
X137895000Y-17066543D01*
G75*
G02*
X137676250Y-17285293I-218750J0D01*
G01*
X137163750Y-17285293D01*
G75*
G02*
X136945000Y-17066543I0J218750D01*
G01*
X136945000Y-16629043D01*
G75*
G02*
X137163750Y-16410293I218750J0D01*
G01*
G37*
G36*
G01*
X137163750Y-14835293D02*
X137676250Y-14835293D01*
G75*
G02*
X137895000Y-15054043I0J-218750D01*
G01*
X137895000Y-15491543D01*
G75*
G02*
X137676250Y-15710293I-218750J0D01*
G01*
X137163750Y-15710293D01*
G75*
G02*
X136945000Y-15491543I0J218750D01*
G01*
X136945000Y-15054043D01*
G75*
G02*
X137163750Y-14835293I218750J0D01*
G01*
G37*
G36*
G01*
X117385000Y-69406250D02*
X117385000Y-68893750D01*
G75*
G02*
X117603750Y-68675000I218750J0D01*
G01*
X118041250Y-68675000D01*
G75*
G02*
X118260000Y-68893750I0J-218750D01*
G01*
X118260000Y-69406250D01*
G75*
G02*
X118041250Y-69625000I-218750J0D01*
G01*
X117603750Y-69625000D01*
G75*
G02*
X117385000Y-69406250I0J218750D01*
G01*
G37*
G36*
G01*
X118960000Y-69406250D02*
X118960000Y-68893750D01*
G75*
G02*
X119178750Y-68675000I218750J0D01*
G01*
X119616250Y-68675000D01*
G75*
G02*
X119835000Y-68893750I0J-218750D01*
G01*
X119835000Y-69406250D01*
G75*
G02*
X119616250Y-69625000I-218750J0D01*
G01*
X119178750Y-69625000D01*
G75*
G02*
X118960000Y-69406250I0J218750D01*
G01*
G37*
G36*
G01*
X178400439Y-20541035D02*
X177887939Y-20541035D01*
G75*
G02*
X177669189Y-20322285I0J218750D01*
G01*
X177669189Y-19884785D01*
G75*
G02*
X177887939Y-19666035I218750J0D01*
G01*
X178400439Y-19666035D01*
G75*
G02*
X178619189Y-19884785I0J-218750D01*
G01*
X178619189Y-20322285D01*
G75*
G02*
X178400439Y-20541035I-218750J0D01*
G01*
G37*
G36*
G01*
X178400439Y-22116035D02*
X177887939Y-22116035D01*
G75*
G02*
X177669189Y-21897285I0J218750D01*
G01*
X177669189Y-21459785D01*
G75*
G02*
X177887939Y-21241035I218750J0D01*
G01*
X178400439Y-21241035D01*
G75*
G02*
X178619189Y-21459785I0J-218750D01*
G01*
X178619189Y-21897285D01*
G75*
G02*
X178400439Y-22116035I-218750J0D01*
G01*
G37*
G36*
G01*
X175860439Y-22116035D02*
X175347939Y-22116035D01*
G75*
G02*
X175129189Y-21897285I0J218750D01*
G01*
X175129189Y-21459785D01*
G75*
G02*
X175347939Y-21241035I218750J0D01*
G01*
X175860439Y-21241035D01*
G75*
G02*
X176079189Y-21459785I0J-218750D01*
G01*
X176079189Y-21897285D01*
G75*
G02*
X175860439Y-22116035I-218750J0D01*
G01*
G37*
G36*
G01*
X175860439Y-20541035D02*
X175347939Y-20541035D01*
G75*
G02*
X175129189Y-20322285I0J218750D01*
G01*
X175129189Y-19884785D01*
G75*
G02*
X175347939Y-19666035I218750J0D01*
G01*
X175860439Y-19666035D01*
G75*
G02*
X176079189Y-19884785I0J-218750D01*
G01*
X176079189Y-20322285D01*
G75*
G02*
X175860439Y-20541035I-218750J0D01*
G01*
G37*
X139275000Y-51600000D03*
X139925000Y-51600000D03*
X140575000Y-51600000D03*
X141225000Y-51600000D03*
X141875000Y-51600000D03*
X142525000Y-51600000D03*
X143175000Y-51600000D03*
X143825000Y-51600000D03*
X144475000Y-51600000D03*
X145125000Y-51600000D03*
X145125000Y-46000000D03*
X144475000Y-46000000D03*
X143825000Y-46000000D03*
X143175000Y-46000000D03*
X142525000Y-46000000D03*
X141875000Y-46000000D03*
X141225000Y-46000000D03*
X140575000Y-46000000D03*
X139925000Y-46000000D03*
X139275000Y-46000000D03*
G36*
G01*
X156115000Y-22056250D02*
X156115000Y-21543750D01*
G75*
G02*
X156333750Y-21325000I218750J0D01*
G01*
X156771250Y-21325000D01*
G75*
G02*
X156990000Y-21543750I0J-218750D01*
G01*
X156990000Y-22056250D01*
G75*
G02*
X156771250Y-22275000I-218750J0D01*
G01*
X156333750Y-22275000D01*
G75*
G02*
X156115000Y-22056250I0J218750D01*
G01*
G37*
G36*
G01*
X157690000Y-22056250D02*
X157690000Y-21543750D01*
G75*
G02*
X157908750Y-21325000I218750J0D01*
G01*
X158346250Y-21325000D01*
G75*
G02*
X158565000Y-21543750I0J-218750D01*
G01*
X158565000Y-22056250D01*
G75*
G02*
X158346250Y-22275000I-218750J0D01*
G01*
X157908750Y-22275000D01*
G75*
G02*
X157690000Y-22056250I0J218750D01*
G01*
G37*
G36*
G01*
X155915000Y-24456250D02*
X155915000Y-23543750D01*
G75*
G02*
X156158750Y-23300000I243750J0D01*
G01*
X156646250Y-23300000D01*
G75*
G02*
X156890000Y-23543750I0J-243750D01*
G01*
X156890000Y-24456250D01*
G75*
G02*
X156646250Y-24700000I-243750J0D01*
G01*
X156158750Y-24700000D01*
G75*
G02*
X155915000Y-24456250I0J243750D01*
G01*
G37*
G36*
G01*
X157790000Y-24456250D02*
X157790000Y-23543750D01*
G75*
G02*
X158033750Y-23300000I243750J0D01*
G01*
X158521250Y-23300000D01*
G75*
G02*
X158765000Y-23543750I0J-243750D01*
G01*
X158765000Y-24456250D01*
G75*
G02*
X158521250Y-24700000I-243750J0D01*
G01*
X158033750Y-24700000D01*
G75*
G02*
X157790000Y-24456250I0J243750D01*
G01*
G37*
D16*
X153230000Y-10680000D03*
X154330000Y-10680000D03*
X155430000Y-10680000D03*
X156530000Y-10680000D03*
X157630000Y-10680000D03*
X158730000Y-10680000D03*
X159830000Y-10680000D03*
X160930000Y-10680000D03*
D17*
X149555000Y-8080000D03*
X149555000Y-16380000D03*
X163305000Y-16380000D03*
X163305000Y-8080000D03*
G36*
G01*
X137443750Y-45575000D02*
X137956250Y-45575000D01*
G75*
G02*
X138175000Y-45793750I0J-218750D01*
G01*
X138175000Y-46231250D01*
G75*
G02*
X137956250Y-46450000I-218750J0D01*
G01*
X137443750Y-46450000D01*
G75*
G02*
X137225000Y-46231250I0J218750D01*
G01*
X137225000Y-45793750D01*
G75*
G02*
X137443750Y-45575000I218750J0D01*
G01*
G37*
G36*
G01*
X137443750Y-47150000D02*
X137956250Y-47150000D01*
G75*
G02*
X138175000Y-47368750I0J-218750D01*
G01*
X138175000Y-47806250D01*
G75*
G02*
X137956250Y-48025000I-218750J0D01*
G01*
X137443750Y-48025000D01*
G75*
G02*
X137225000Y-47806250I0J218750D01*
G01*
X137225000Y-47368750D01*
G75*
G02*
X137443750Y-47150000I218750J0D01*
G01*
G37*
G36*
G01*
X114050000Y-83443750D02*
X114050000Y-83956250D01*
G75*
G02*
X113831250Y-84175000I-218750J0D01*
G01*
X113393750Y-84175000D01*
G75*
G02*
X113175000Y-83956250I0J218750D01*
G01*
X113175000Y-83443750D01*
G75*
G02*
X113393750Y-83225000I218750J0D01*
G01*
X113831250Y-83225000D01*
G75*
G02*
X114050000Y-83443750I0J-218750D01*
G01*
G37*
G36*
G01*
X115625000Y-83443750D02*
X115625000Y-83956250D01*
G75*
G02*
X115406250Y-84175000I-218750J0D01*
G01*
X114968750Y-84175000D01*
G75*
G02*
X114750000Y-83956250I0J218750D01*
G01*
X114750000Y-83443750D01*
G75*
G02*
X114968750Y-83225000I218750J0D01*
G01*
X115406250Y-83225000D01*
G75*
G02*
X115625000Y-83443750I0J-218750D01*
G01*
G37*
G36*
G01*
X119075000Y-80056250D02*
X119075000Y-79543750D01*
G75*
G02*
X119293750Y-79325000I218750J0D01*
G01*
X119731250Y-79325000D01*
G75*
G02*
X119950000Y-79543750I0J-218750D01*
G01*
X119950000Y-80056250D01*
G75*
G02*
X119731250Y-80275000I-218750J0D01*
G01*
X119293750Y-80275000D01*
G75*
G02*
X119075000Y-80056250I0J218750D01*
G01*
G37*
G36*
G01*
X120650000Y-80056250D02*
X120650000Y-79543750D01*
G75*
G02*
X120868750Y-79325000I218750J0D01*
G01*
X121306250Y-79325000D01*
G75*
G02*
X121525000Y-79543750I0J-218750D01*
G01*
X121525000Y-80056250D01*
G75*
G02*
X121306250Y-80275000I-218750J0D01*
G01*
X120868750Y-80275000D01*
G75*
G02*
X120650000Y-80056250I0J218750D01*
G01*
G37*
G36*
G01*
X125150000Y-83043750D02*
X125150000Y-83556250D01*
G75*
G02*
X124931250Y-83775000I-218750J0D01*
G01*
X124493750Y-83775000D01*
G75*
G02*
X124275000Y-83556250I0J218750D01*
G01*
X124275000Y-83043750D01*
G75*
G02*
X124493750Y-82825000I218750J0D01*
G01*
X124931250Y-82825000D01*
G75*
G02*
X125150000Y-83043750I0J-218750D01*
G01*
G37*
G36*
G01*
X126725000Y-83043750D02*
X126725000Y-83556250D01*
G75*
G02*
X126506250Y-83775000I-218750J0D01*
G01*
X126068750Y-83775000D01*
G75*
G02*
X125850000Y-83556250I0J218750D01*
G01*
X125850000Y-83043750D01*
G75*
G02*
X126068750Y-82825000I218750J0D01*
G01*
X126506250Y-82825000D01*
G75*
G02*
X126725000Y-83043750I0J-218750D01*
G01*
G37*
G36*
G01*
X120175000Y-82956250D02*
X120175000Y-82443750D01*
G75*
G02*
X120393750Y-82225000I218750J0D01*
G01*
X120831250Y-82225000D01*
G75*
G02*
X121050000Y-82443750I0J-218750D01*
G01*
X121050000Y-82956250D01*
G75*
G02*
X120831250Y-83175000I-218750J0D01*
G01*
X120393750Y-83175000D01*
G75*
G02*
X120175000Y-82956250I0J218750D01*
G01*
G37*
G36*
G01*
X121750000Y-82956250D02*
X121750000Y-82443750D01*
G75*
G02*
X121968750Y-82225000I218750J0D01*
G01*
X122406250Y-82225000D01*
G75*
G02*
X122625000Y-82443750I0J-218750D01*
G01*
X122625000Y-82956250D01*
G75*
G02*
X122406250Y-83175000I-218750J0D01*
G01*
X121968750Y-83175000D01*
G75*
G02*
X121750000Y-82956250I0J218750D01*
G01*
G37*
G36*
G01*
X181762661Y-85511747D02*
X181762661Y-84999247D01*
G75*
G02*
X181981411Y-84780497I218750J0D01*
G01*
X182418911Y-84780497D01*
G75*
G02*
X182637661Y-84999247I0J-218750D01*
G01*
X182637661Y-85511747D01*
G75*
G02*
X182418911Y-85730497I-218750J0D01*
G01*
X181981411Y-85730497D01*
G75*
G02*
X181762661Y-85511747I0J218750D01*
G01*
G37*
G36*
G01*
X180187661Y-85511747D02*
X180187661Y-84999247D01*
G75*
G02*
X180406411Y-84780497I218750J0D01*
G01*
X180843911Y-84780497D01*
G75*
G02*
X181062661Y-84999247I0J-218750D01*
G01*
X181062661Y-85511747D01*
G75*
G02*
X180843911Y-85730497I-218750J0D01*
G01*
X180406411Y-85730497D01*
G75*
G02*
X180187661Y-85511747I0J218750D01*
G01*
G37*
G36*
G01*
X187025000Y-72243750D02*
X187025000Y-72756250D01*
G75*
G02*
X186806250Y-72975000I-218750J0D01*
G01*
X186368750Y-72975000D01*
G75*
G02*
X186150000Y-72756250I0J218750D01*
G01*
X186150000Y-72243750D01*
G75*
G02*
X186368750Y-72025000I218750J0D01*
G01*
X186806250Y-72025000D01*
G75*
G02*
X187025000Y-72243750I0J-218750D01*
G01*
G37*
G36*
G01*
X185450000Y-72243750D02*
X185450000Y-72756250D01*
G75*
G02*
X185231250Y-72975000I-218750J0D01*
G01*
X184793750Y-72975000D01*
G75*
G02*
X184575000Y-72756250I0J218750D01*
G01*
X184575000Y-72243750D01*
G75*
G02*
X184793750Y-72025000I218750J0D01*
G01*
X185231250Y-72025000D01*
G75*
G02*
X185450000Y-72243750I0J-218750D01*
G01*
G37*
G36*
G01*
X142650000Y-84643750D02*
X142650000Y-85156250D01*
G75*
G02*
X142431250Y-85375000I-218750J0D01*
G01*
X141993750Y-85375000D01*
G75*
G02*
X141775000Y-85156250I0J218750D01*
G01*
X141775000Y-84643750D01*
G75*
G02*
X141993750Y-84425000I218750J0D01*
G01*
X142431250Y-84425000D01*
G75*
G02*
X142650000Y-84643750I0J-218750D01*
G01*
G37*
G36*
G01*
X144225000Y-84643750D02*
X144225000Y-85156250D01*
G75*
G02*
X144006250Y-85375000I-218750J0D01*
G01*
X143568750Y-85375000D01*
G75*
G02*
X143350000Y-85156250I0J218750D01*
G01*
X143350000Y-84643750D01*
G75*
G02*
X143568750Y-84425000I218750J0D01*
G01*
X144006250Y-84425000D01*
G75*
G02*
X144225000Y-84643750I0J-218750D01*
G01*
G37*
G36*
G01*
X143375000Y-83456250D02*
X143375000Y-82943750D01*
G75*
G02*
X143593750Y-82725000I218750J0D01*
G01*
X144031250Y-82725000D01*
G75*
G02*
X144250000Y-82943750I0J-218750D01*
G01*
X144250000Y-83456250D01*
G75*
G02*
X144031250Y-83675000I-218750J0D01*
G01*
X143593750Y-83675000D01*
G75*
G02*
X143375000Y-83456250I0J218750D01*
G01*
G37*
G36*
G01*
X144950000Y-83456250D02*
X144950000Y-82943750D01*
G75*
G02*
X145168750Y-82725000I218750J0D01*
G01*
X145606250Y-82725000D01*
G75*
G02*
X145825000Y-82943750I0J-218750D01*
G01*
X145825000Y-83456250D01*
G75*
G02*
X145606250Y-83675000I-218750J0D01*
G01*
X145168750Y-83675000D01*
G75*
G02*
X144950000Y-83456250I0J218750D01*
G01*
G37*
G36*
G01*
X136156250Y-89250000D02*
X135643750Y-89250000D01*
G75*
G02*
X135425000Y-89031250I0J218750D01*
G01*
X135425000Y-88593750D01*
G75*
G02*
X135643750Y-88375000I218750J0D01*
G01*
X136156250Y-88375000D01*
G75*
G02*
X136375000Y-88593750I0J-218750D01*
G01*
X136375000Y-89031250D01*
G75*
G02*
X136156250Y-89250000I-218750J0D01*
G01*
G37*
G36*
G01*
X136156250Y-90825000D02*
X135643750Y-90825000D01*
G75*
G02*
X135425000Y-90606250I0J218750D01*
G01*
X135425000Y-90168750D01*
G75*
G02*
X135643750Y-89950000I218750J0D01*
G01*
X136156250Y-89950000D01*
G75*
G02*
X136375000Y-90168750I0J-218750D01*
G01*
X136375000Y-90606250D01*
G75*
G02*
X136156250Y-90825000I-218750J0D01*
G01*
G37*
G36*
G01*
X140825000Y-84643750D02*
X140825000Y-85156250D01*
G75*
G02*
X140606250Y-85375000I-218750J0D01*
G01*
X140168750Y-85375000D01*
G75*
G02*
X139950000Y-85156250I0J218750D01*
G01*
X139950000Y-84643750D01*
G75*
G02*
X140168750Y-84425000I218750J0D01*
G01*
X140606250Y-84425000D01*
G75*
G02*
X140825000Y-84643750I0J-218750D01*
G01*
G37*
G36*
G01*
X139250000Y-84643750D02*
X139250000Y-85156250D01*
G75*
G02*
X139031250Y-85375000I-218750J0D01*
G01*
X138593750Y-85375000D01*
G75*
G02*
X138375000Y-85156250I0J218750D01*
G01*
X138375000Y-84643750D01*
G75*
G02*
X138593750Y-84425000I218750J0D01*
G01*
X139031250Y-84425000D01*
G75*
G02*
X139250000Y-84643750I0J-218750D01*
G01*
G37*
G36*
G01*
X129875000Y-56556250D02*
X129875000Y-55643750D01*
G75*
G02*
X130118750Y-55400000I243750J0D01*
G01*
X130606250Y-55400000D01*
G75*
G02*
X130850000Y-55643750I0J-243750D01*
G01*
X130850000Y-56556250D01*
G75*
G02*
X130606250Y-56800000I-243750J0D01*
G01*
X130118750Y-56800000D01*
G75*
G02*
X129875000Y-56556250I0J243750D01*
G01*
G37*
G36*
G01*
X131750000Y-56556250D02*
X131750000Y-55643750D01*
G75*
G02*
X131993750Y-55400000I243750J0D01*
G01*
X132481250Y-55400000D01*
G75*
G02*
X132725000Y-55643750I0J-243750D01*
G01*
X132725000Y-56556250D01*
G75*
G02*
X132481250Y-56800000I-243750J0D01*
G01*
X131993750Y-56800000D01*
G75*
G02*
X131750000Y-56556250I0J243750D01*
G01*
G37*
G36*
G01*
X115256250Y-16925000D02*
X114343750Y-16925000D01*
G75*
G02*
X114100000Y-16681250I0J243750D01*
G01*
X114100000Y-16193750D01*
G75*
G02*
X114343750Y-15950000I243750J0D01*
G01*
X115256250Y-15950000D01*
G75*
G02*
X115500000Y-16193750I0J-243750D01*
G01*
X115500000Y-16681250D01*
G75*
G02*
X115256250Y-16925000I-243750J0D01*
G01*
G37*
G36*
G01*
X115256250Y-15050000D02*
X114343750Y-15050000D01*
G75*
G02*
X114100000Y-14806250I0J243750D01*
G01*
X114100000Y-14318750D01*
G75*
G02*
X114343750Y-14075000I243750J0D01*
G01*
X115256250Y-14075000D01*
G75*
G02*
X115500000Y-14318750I0J-243750D01*
G01*
X115500000Y-14806250D01*
G75*
G02*
X115256250Y-15050000I-243750J0D01*
G01*
G37*
G36*
G01*
X114543750Y-10775000D02*
X115056250Y-10775000D01*
G75*
G02*
X115275000Y-10993750I0J-218750D01*
G01*
X115275000Y-11431250D01*
G75*
G02*
X115056250Y-11650000I-218750J0D01*
G01*
X114543750Y-11650000D01*
G75*
G02*
X114325000Y-11431250I0J218750D01*
G01*
X114325000Y-10993750D01*
G75*
G02*
X114543750Y-10775000I218750J0D01*
G01*
G37*
G36*
G01*
X114543750Y-12350000D02*
X115056250Y-12350000D01*
G75*
G02*
X115275000Y-12568750I0J-218750D01*
G01*
X115275000Y-13006250D01*
G75*
G02*
X115056250Y-13225000I-218750J0D01*
G01*
X114543750Y-13225000D01*
G75*
G02*
X114325000Y-13006250I0J218750D01*
G01*
X114325000Y-12568750D01*
G75*
G02*
X114543750Y-12350000I218750J0D01*
G01*
G37*
G36*
G01*
X182756250Y-74125000D02*
X182243750Y-74125000D01*
G75*
G02*
X182025000Y-73906250I0J218750D01*
G01*
X182025000Y-73468750D01*
G75*
G02*
X182243750Y-73250000I218750J0D01*
G01*
X182756250Y-73250000D01*
G75*
G02*
X182975000Y-73468750I0J-218750D01*
G01*
X182975000Y-73906250D01*
G75*
G02*
X182756250Y-74125000I-218750J0D01*
G01*
G37*
G36*
G01*
X182756250Y-72550000D02*
X182243750Y-72550000D01*
G75*
G02*
X182025000Y-72331250I0J218750D01*
G01*
X182025000Y-71893750D01*
G75*
G02*
X182243750Y-71675000I218750J0D01*
G01*
X182756250Y-71675000D01*
G75*
G02*
X182975000Y-71893750I0J-218750D01*
G01*
X182975000Y-72331250D01*
G75*
G02*
X182756250Y-72550000I-218750J0D01*
G01*
G37*
D18*
X182550000Y-81450000D03*
X183200000Y-81450000D03*
X183850000Y-81450000D03*
X184500000Y-81450000D03*
X185150000Y-81450000D03*
X185800000Y-81450000D03*
X186450000Y-81450000D03*
X186450000Y-75550000D03*
X185800000Y-75550000D03*
X185150000Y-75550000D03*
X184500000Y-75550000D03*
X183850000Y-75550000D03*
X183200000Y-75550000D03*
X182550000Y-75550000D03*
D15*
X162575000Y-81300000D03*
X163225000Y-81300000D03*
X163875000Y-81300000D03*
X164525000Y-81300000D03*
X165175000Y-81300000D03*
X165825000Y-81300000D03*
X166475000Y-81300000D03*
X167125000Y-81300000D03*
X167775000Y-81300000D03*
X168425000Y-81300000D03*
X168425000Y-75700000D03*
X167775000Y-75700000D03*
X167125000Y-75700000D03*
X166475000Y-75700000D03*
X165825000Y-75700000D03*
X165175000Y-75700000D03*
X164525000Y-75700000D03*
X163875000Y-75700000D03*
X163225000Y-75700000D03*
X162575000Y-75700000D03*
X189075000Y-75700000D03*
X189725000Y-75700000D03*
X190375000Y-75700000D03*
X191025000Y-75700000D03*
X191675000Y-75700000D03*
X192325000Y-75700000D03*
X192975000Y-75700000D03*
X193625000Y-75700000D03*
X194275000Y-75700000D03*
X194925000Y-75700000D03*
X194925000Y-81300000D03*
X194275000Y-81300000D03*
X193625000Y-81300000D03*
X192975000Y-81300000D03*
X192325000Y-81300000D03*
X191675000Y-81300000D03*
X191025000Y-81300000D03*
X190375000Y-81300000D03*
X189725000Y-81300000D03*
X189075000Y-81300000D03*
X174075000Y-81300000D03*
X174725000Y-81300000D03*
X175375000Y-81300000D03*
X176025000Y-81300000D03*
X176675000Y-81300000D03*
X177325000Y-81300000D03*
X177975000Y-81300000D03*
X178625000Y-81300000D03*
X179275000Y-81300000D03*
X179925000Y-81300000D03*
X179925000Y-75700000D03*
X179275000Y-75700000D03*
X178625000Y-75700000D03*
X177975000Y-75700000D03*
X177325000Y-75700000D03*
X176675000Y-75700000D03*
X176025000Y-75700000D03*
X175375000Y-75700000D03*
X174725000Y-75700000D03*
X174075000Y-75700000D03*
X149575000Y-81300000D03*
X150225000Y-81300000D03*
X150875000Y-81300000D03*
X151525000Y-81300000D03*
X152175000Y-81300000D03*
X152825000Y-81300000D03*
X153475000Y-81300000D03*
X154125000Y-81300000D03*
X154775000Y-81300000D03*
X155425000Y-81300000D03*
X155425000Y-75700000D03*
X154775000Y-75700000D03*
X154125000Y-75700000D03*
X153475000Y-75700000D03*
X152825000Y-75700000D03*
X152175000Y-75700000D03*
X151525000Y-75700000D03*
X150875000Y-75700000D03*
X150225000Y-75700000D03*
X149575000Y-75700000D03*
G36*
G01*
X120425000Y-84523750D02*
X120425000Y-85036250D01*
G75*
G02*
X120206250Y-85255000I-218750J0D01*
G01*
X119768750Y-85255000D01*
G75*
G02*
X119550000Y-85036250I0J218750D01*
G01*
X119550000Y-84523750D01*
G75*
G02*
X119768750Y-84305000I218750J0D01*
G01*
X120206250Y-84305000D01*
G75*
G02*
X120425000Y-84523750I0J-218750D01*
G01*
G37*
G36*
G01*
X118850000Y-84523750D02*
X118850000Y-85036250D01*
G75*
G02*
X118631250Y-85255000I-218750J0D01*
G01*
X118193750Y-85255000D01*
G75*
G02*
X117975000Y-85036250I0J218750D01*
G01*
X117975000Y-84523750D01*
G75*
G02*
X118193750Y-84305000I218750J0D01*
G01*
X118631250Y-84305000D01*
G75*
G02*
X118850000Y-84523750I0J-218750D01*
G01*
G37*
D19*
X113750000Y-86830000D03*
X113750000Y-87480000D03*
X113750000Y-88130000D03*
X113750000Y-88780000D03*
X113750000Y-89430000D03*
X113750000Y-90080000D03*
X113750000Y-90730000D03*
X119650000Y-90730000D03*
X119650000Y-90080000D03*
X119650000Y-89430000D03*
X119650000Y-88780000D03*
X119650000Y-88130000D03*
X119650000Y-87480000D03*
X119650000Y-86830000D03*
G36*
G01*
X138956250Y-89750000D02*
X138443750Y-89750000D01*
G75*
G02*
X138225000Y-89531250I0J218750D01*
G01*
X138225000Y-89093750D01*
G75*
G02*
X138443750Y-88875000I218750J0D01*
G01*
X138956250Y-88875000D01*
G75*
G02*
X139175000Y-89093750I0J-218750D01*
G01*
X139175000Y-89531250D01*
G75*
G02*
X138956250Y-89750000I-218750J0D01*
G01*
G37*
G36*
G01*
X138956250Y-91325000D02*
X138443750Y-91325000D01*
G75*
G02*
X138225000Y-91106250I0J218750D01*
G01*
X138225000Y-90668750D01*
G75*
G02*
X138443750Y-90450000I218750J0D01*
G01*
X138956250Y-90450000D01*
G75*
G02*
X139175000Y-90668750I0J-218750D01*
G01*
X139175000Y-91106250D01*
G75*
G02*
X138956250Y-91325000I-218750J0D01*
G01*
G37*
X146700000Y-90700000D03*
X146700000Y-90050000D03*
X146700000Y-89400000D03*
X146700000Y-88750000D03*
X146700000Y-88100000D03*
X146700000Y-87450000D03*
X146700000Y-86800000D03*
X140800000Y-86800000D03*
X140800000Y-87450000D03*
X140800000Y-88100000D03*
X140800000Y-88750000D03*
X140800000Y-89400000D03*
X140800000Y-90050000D03*
X140800000Y-90700000D03*
D20*
X248080000Y-55375000D03*
X248080000Y-56025000D03*
X248080000Y-56675000D03*
X248080000Y-57325000D03*
X248080000Y-57975000D03*
X248080000Y-58625000D03*
X248080000Y-59275000D03*
X248080000Y-59925000D03*
X248080000Y-60575000D03*
X248080000Y-61225000D03*
X248080000Y-61875000D03*
X248080000Y-62525000D03*
X253820000Y-62525000D03*
X253820000Y-61875000D03*
X253820000Y-61225000D03*
X253820000Y-60575000D03*
X253820000Y-59925000D03*
X253820000Y-59275000D03*
X253820000Y-58625000D03*
X253820000Y-57975000D03*
X253820000Y-57325000D03*
X253820000Y-56675000D03*
X253820000Y-56025000D03*
X253820000Y-55375000D03*
G36*
G01*
X122452634Y-52420792D02*
X122452634Y-53333292D01*
G75*
G02*
X122208884Y-53577042I-243750J0D01*
G01*
X121721384Y-53577042D01*
G75*
G02*
X121477634Y-53333292I0J243750D01*
G01*
X121477634Y-52420792D01*
G75*
G02*
X121721384Y-52177042I243750J0D01*
G01*
X122208884Y-52177042D01*
G75*
G02*
X122452634Y-52420792I0J-243750D01*
G01*
G37*
G36*
G01*
X124327634Y-52420792D02*
X124327634Y-53333292D01*
G75*
G02*
X124083884Y-53577042I-243750J0D01*
G01*
X123596384Y-53577042D01*
G75*
G02*
X123352634Y-53333292I0J243750D01*
G01*
X123352634Y-52420792D01*
G75*
G02*
X123596384Y-52177042I243750J0D01*
G01*
X124083884Y-52177042D01*
G75*
G02*
X124327634Y-52420792I0J-243750D01*
G01*
G37*
G36*
G01*
X124327634Y-43520792D02*
X124327634Y-44433292D01*
G75*
G02*
X124083884Y-44677042I-243750J0D01*
G01*
X123596384Y-44677042D01*
G75*
G02*
X123352634Y-44433292I0J243750D01*
G01*
X123352634Y-43520792D01*
G75*
G02*
X123596384Y-43277042I243750J0D01*
G01*
X124083884Y-43277042D01*
G75*
G02*
X124327634Y-43520792I0J-243750D01*
G01*
G37*
G36*
G01*
X122452634Y-43520792D02*
X122452634Y-44433292D01*
G75*
G02*
X122208884Y-44677042I-243750J0D01*
G01*
X121721384Y-44677042D01*
G75*
G02*
X121477634Y-44433292I0J243750D01*
G01*
X121477634Y-43520792D01*
G75*
G02*
X121721384Y-43277042I243750J0D01*
G01*
X122208884Y-43277042D01*
G75*
G02*
X122452634Y-43520792I0J-243750D01*
G01*
G37*
G36*
G01*
X122452634Y-46487458D02*
X122452634Y-47399958D01*
G75*
G02*
X122208884Y-47643708I-243750J0D01*
G01*
X121721384Y-47643708D01*
G75*
G02*
X121477634Y-47399958I0J243750D01*
G01*
X121477634Y-46487458D01*
G75*
G02*
X121721384Y-46243708I243750J0D01*
G01*
X122208884Y-46243708D01*
G75*
G02*
X122452634Y-46487458I0J-243750D01*
G01*
G37*
G36*
G01*
X124327634Y-46487458D02*
X124327634Y-47399958D01*
G75*
G02*
X124083884Y-47643708I-243750J0D01*
G01*
X123596384Y-47643708D01*
G75*
G02*
X123352634Y-47399958I0J243750D01*
G01*
X123352634Y-46487458D01*
G75*
G02*
X123596384Y-46243708I243750J0D01*
G01*
X124083884Y-46243708D01*
G75*
G02*
X124327634Y-46487458I0J-243750D01*
G01*
G37*
G36*
G01*
X124327634Y-49454124D02*
X124327634Y-50366624D01*
G75*
G02*
X124083884Y-50610374I-243750J0D01*
G01*
X123596384Y-50610374D01*
G75*
G02*
X123352634Y-50366624I0J243750D01*
G01*
X123352634Y-49454124D01*
G75*
G02*
X123596384Y-49210374I243750J0D01*
G01*
X124083884Y-49210374D01*
G75*
G02*
X124327634Y-49454124I0J-243750D01*
G01*
G37*
G36*
G01*
X122452634Y-49454124D02*
X122452634Y-50366624D01*
G75*
G02*
X122208884Y-50610374I-243750J0D01*
G01*
X121721384Y-50610374D01*
G75*
G02*
X121477634Y-50366624I0J243750D01*
G01*
X121477634Y-49454124D01*
G75*
G02*
X121721384Y-49210374I243750J0D01*
G01*
X122208884Y-49210374D01*
G75*
G02*
X122452634Y-49454124I0J-243750D01*
G01*
G37*
G36*
G01*
X119402634Y-53133292D02*
X119402634Y-52620792D01*
G75*
G02*
X119621384Y-52402042I218750J0D01*
G01*
X120058884Y-52402042D01*
G75*
G02*
X120277634Y-52620792I0J-218750D01*
G01*
X120277634Y-53133292D01*
G75*
G02*
X120058884Y-53352042I-218750J0D01*
G01*
X119621384Y-53352042D01*
G75*
G02*
X119402634Y-53133292I0J218750D01*
G01*
G37*
G36*
G01*
X117827634Y-53133292D02*
X117827634Y-52620792D01*
G75*
G02*
X118046384Y-52402042I218750J0D01*
G01*
X118483884Y-52402042D01*
G75*
G02*
X118702634Y-52620792I0J-218750D01*
G01*
X118702634Y-53133292D01*
G75*
G02*
X118483884Y-53352042I-218750J0D01*
G01*
X118046384Y-53352042D01*
G75*
G02*
X117827634Y-53133292I0J218750D01*
G01*
G37*
G36*
G01*
X117827634Y-44233292D02*
X117827634Y-43720792D01*
G75*
G02*
X118046384Y-43502042I218750J0D01*
G01*
X118483884Y-43502042D01*
G75*
G02*
X118702634Y-43720792I0J-218750D01*
G01*
X118702634Y-44233292D01*
G75*
G02*
X118483884Y-44452042I-218750J0D01*
G01*
X118046384Y-44452042D01*
G75*
G02*
X117827634Y-44233292I0J218750D01*
G01*
G37*
G36*
G01*
X119402634Y-44233292D02*
X119402634Y-43720792D01*
G75*
G02*
X119621384Y-43502042I218750J0D01*
G01*
X120058884Y-43502042D01*
G75*
G02*
X120277634Y-43720792I0J-218750D01*
G01*
X120277634Y-44233292D01*
G75*
G02*
X120058884Y-44452042I-218750J0D01*
G01*
X119621384Y-44452042D01*
G75*
G02*
X119402634Y-44233292I0J218750D01*
G01*
G37*
G36*
G01*
X119402634Y-47199958D02*
X119402634Y-46687458D01*
G75*
G02*
X119621384Y-46468708I218750J0D01*
G01*
X120058884Y-46468708D01*
G75*
G02*
X120277634Y-46687458I0J-218750D01*
G01*
X120277634Y-47199958D01*
G75*
G02*
X120058884Y-47418708I-218750J0D01*
G01*
X119621384Y-47418708D01*
G75*
G02*
X119402634Y-47199958I0J218750D01*
G01*
G37*
G36*
G01*
X117827634Y-47199958D02*
X117827634Y-46687458D01*
G75*
G02*
X118046384Y-46468708I218750J0D01*
G01*
X118483884Y-46468708D01*
G75*
G02*
X118702634Y-46687458I0J-218750D01*
G01*
X118702634Y-47199958D01*
G75*
G02*
X118483884Y-47418708I-218750J0D01*
G01*
X118046384Y-47418708D01*
G75*
G02*
X117827634Y-47199958I0J218750D01*
G01*
G37*
G36*
G01*
X117827634Y-50166624D02*
X117827634Y-49654124D01*
G75*
G02*
X118046384Y-49435374I218750J0D01*
G01*
X118483884Y-49435374D01*
G75*
G02*
X118702634Y-49654124I0J-218750D01*
G01*
X118702634Y-50166624D01*
G75*
G02*
X118483884Y-50385374I-218750J0D01*
G01*
X118046384Y-50385374D01*
G75*
G02*
X117827634Y-50166624I0J218750D01*
G01*
G37*
G36*
G01*
X119402634Y-50166624D02*
X119402634Y-49654124D01*
G75*
G02*
X119621384Y-49435374I218750J0D01*
G01*
X120058884Y-49435374D01*
G75*
G02*
X120277634Y-49654124I0J-218750D01*
G01*
X120277634Y-50166624D01*
G75*
G02*
X120058884Y-50385374I-218750J0D01*
G01*
X119621384Y-50385374D01*
G75*
G02*
X119402634Y-50166624I0J218750D01*
G01*
G37*
D21*
X271897500Y-78070000D03*
D22*
X269197500Y-79720000D03*
X269197500Y-80370000D03*
X269197500Y-77770000D03*
X269197500Y-78420000D03*
X269197500Y-79070000D03*
D21*
X271897500Y-80070000D03*
G36*
G01*
X163256250Y-72550000D02*
X162743750Y-72550000D01*
G75*
G02*
X162525000Y-72331250I0J218750D01*
G01*
X162525000Y-71893750D01*
G75*
G02*
X162743750Y-71675000I218750J0D01*
G01*
X163256250Y-71675000D01*
G75*
G02*
X163475000Y-71893750I0J-218750D01*
G01*
X163475000Y-72331250D01*
G75*
G02*
X163256250Y-72550000I-218750J0D01*
G01*
G37*
G36*
G01*
X163256250Y-74125000D02*
X162743750Y-74125000D01*
G75*
G02*
X162525000Y-73906250I0J218750D01*
G01*
X162525000Y-73468750D01*
G75*
G02*
X162743750Y-73250000I218750J0D01*
G01*
X163256250Y-73250000D01*
G75*
G02*
X163475000Y-73468750I0J-218750D01*
G01*
X163475000Y-73906250D01*
G75*
G02*
X163256250Y-74125000I-218750J0D01*
G01*
G37*
G36*
G01*
X174756250Y-74125000D02*
X174243750Y-74125000D01*
G75*
G02*
X174025000Y-73906250I0J218750D01*
G01*
X174025000Y-73468750D01*
G75*
G02*
X174243750Y-73250000I218750J0D01*
G01*
X174756250Y-73250000D01*
G75*
G02*
X174975000Y-73468750I0J-218750D01*
G01*
X174975000Y-73906250D01*
G75*
G02*
X174756250Y-74125000I-218750J0D01*
G01*
G37*
G36*
G01*
X174756250Y-72550000D02*
X174243750Y-72550000D01*
G75*
G02*
X174025000Y-72331250I0J218750D01*
G01*
X174025000Y-71893750D01*
G75*
G02*
X174243750Y-71675000I218750J0D01*
G01*
X174756250Y-71675000D01*
G75*
G02*
X174975000Y-71893750I0J-218750D01*
G01*
X174975000Y-72331250D01*
G75*
G02*
X174756250Y-72550000I-218750J0D01*
G01*
G37*
G36*
G01*
X189756250Y-72550000D02*
X189243750Y-72550000D01*
G75*
G02*
X189025000Y-72331250I0J218750D01*
G01*
X189025000Y-71893750D01*
G75*
G02*
X189243750Y-71675000I218750J0D01*
G01*
X189756250Y-71675000D01*
G75*
G02*
X189975000Y-71893750I0J-218750D01*
G01*
X189975000Y-72331250D01*
G75*
G02*
X189756250Y-72550000I-218750J0D01*
G01*
G37*
G36*
G01*
X189756250Y-74125000D02*
X189243750Y-74125000D01*
G75*
G02*
X189025000Y-73906250I0J218750D01*
G01*
X189025000Y-73468750D01*
G75*
G02*
X189243750Y-73250000I218750J0D01*
G01*
X189756250Y-73250000D01*
G75*
G02*
X189975000Y-73468750I0J-218750D01*
G01*
X189975000Y-73906250D01*
G75*
G02*
X189756250Y-74125000I-218750J0D01*
G01*
G37*
G36*
G01*
X150156250Y-74125000D02*
X149643750Y-74125000D01*
G75*
G02*
X149425000Y-73906250I0J218750D01*
G01*
X149425000Y-73468750D01*
G75*
G02*
X149643750Y-73250000I218750J0D01*
G01*
X150156250Y-73250000D01*
G75*
G02*
X150375000Y-73468750I0J-218750D01*
G01*
X150375000Y-73906250D01*
G75*
G02*
X150156250Y-74125000I-218750J0D01*
G01*
G37*
G36*
G01*
X150156250Y-72550000D02*
X149643750Y-72550000D01*
G75*
G02*
X149425000Y-72331250I0J218750D01*
G01*
X149425000Y-71893750D01*
G75*
G02*
X149643750Y-71675000I218750J0D01*
G01*
X150156250Y-71675000D01*
G75*
G02*
X150375000Y-71893750I0J-218750D01*
G01*
X150375000Y-72331250D01*
G75*
G02*
X150156250Y-72550000I-218750J0D01*
G01*
G37*
G36*
G01*
X220355000Y-96456250D02*
X220355000Y-95543750D01*
G75*
G02*
X220598750Y-95300000I243750J0D01*
G01*
X221086250Y-95300000D01*
G75*
G02*
X221330000Y-95543750I0J-243750D01*
G01*
X221330000Y-96456250D01*
G75*
G02*
X221086250Y-96700000I-243750J0D01*
G01*
X220598750Y-96700000D01*
G75*
G02*
X220355000Y-96456250I0J243750D01*
G01*
G37*
G36*
G01*
X222230000Y-96456250D02*
X222230000Y-95543750D01*
G75*
G02*
X222473750Y-95300000I243750J0D01*
G01*
X222961250Y-95300000D01*
G75*
G02*
X223205000Y-95543750I0J-243750D01*
G01*
X223205000Y-96456250D01*
G75*
G02*
X222961250Y-96700000I-243750J0D01*
G01*
X222473750Y-96700000D01*
G75*
G02*
X222230000Y-96456250I0J243750D01*
G01*
G37*
G36*
G01*
X131954092Y-85657091D02*
X131441592Y-85657091D01*
G75*
G02*
X131222842Y-85438341I0J218750D01*
G01*
X131222842Y-85000841D01*
G75*
G02*
X131441592Y-84782091I218750J0D01*
G01*
X131954092Y-84782091D01*
G75*
G02*
X132172842Y-85000841I0J-218750D01*
G01*
X132172842Y-85438341D01*
G75*
G02*
X131954092Y-85657091I-218750J0D01*
G01*
G37*
G36*
G01*
X131954092Y-87232091D02*
X131441592Y-87232091D01*
G75*
G02*
X131222842Y-87013341I0J218750D01*
G01*
X131222842Y-86575841D01*
G75*
G02*
X131441592Y-86357091I218750J0D01*
G01*
X131954092Y-86357091D01*
G75*
G02*
X132172842Y-86575841I0J-218750D01*
G01*
X132172842Y-87013341D01*
G75*
G02*
X131954092Y-87232091I-218750J0D01*
G01*
G37*
G36*
G01*
X130154092Y-87232091D02*
X129641592Y-87232091D01*
G75*
G02*
X129422842Y-87013341I0J218750D01*
G01*
X129422842Y-86575841D01*
G75*
G02*
X129641592Y-86357091I218750J0D01*
G01*
X130154092Y-86357091D01*
G75*
G02*
X130372842Y-86575841I0J-218750D01*
G01*
X130372842Y-87013341D01*
G75*
G02*
X130154092Y-87232091I-218750J0D01*
G01*
G37*
G36*
G01*
X130154092Y-85657091D02*
X129641592Y-85657091D01*
G75*
G02*
X129422842Y-85438341I0J218750D01*
G01*
X129422842Y-85000841D01*
G75*
G02*
X129641592Y-84782091I218750J0D01*
G01*
X130154092Y-84782091D01*
G75*
G02*
X130372842Y-85000841I0J-218750D01*
G01*
X130372842Y-85438341D01*
G75*
G02*
X130154092Y-85657091I-218750J0D01*
G01*
G37*
G36*
G01*
X127841592Y-86357091D02*
X128354092Y-86357091D01*
G75*
G02*
X128572842Y-86575841I0J-218750D01*
G01*
X128572842Y-87013341D01*
G75*
G02*
X128354092Y-87232091I-218750J0D01*
G01*
X127841592Y-87232091D01*
G75*
G02*
X127622842Y-87013341I0J218750D01*
G01*
X127622842Y-86575841D01*
G75*
G02*
X127841592Y-86357091I218750J0D01*
G01*
G37*
G36*
G01*
X127841592Y-84782091D02*
X128354092Y-84782091D01*
G75*
G02*
X128572842Y-85000841I0J-218750D01*
G01*
X128572842Y-85438341D01*
G75*
G02*
X128354092Y-85657091I-218750J0D01*
G01*
X127841592Y-85657091D01*
G75*
G02*
X127622842Y-85438341I0J218750D01*
G01*
X127622842Y-85000841D01*
G75*
G02*
X127841592Y-84782091I218750J0D01*
G01*
G37*
G36*
G01*
X133754092Y-87232091D02*
X133241592Y-87232091D01*
G75*
G02*
X133022842Y-87013341I0J218750D01*
G01*
X133022842Y-86575841D01*
G75*
G02*
X133241592Y-86357091I218750J0D01*
G01*
X133754092Y-86357091D01*
G75*
G02*
X133972842Y-86575841I0J-218750D01*
G01*
X133972842Y-87013341D01*
G75*
G02*
X133754092Y-87232091I-218750J0D01*
G01*
G37*
G36*
G01*
X133754092Y-85657091D02*
X133241592Y-85657091D01*
G75*
G02*
X133022842Y-85438341I0J218750D01*
G01*
X133022842Y-85000841D01*
G75*
G02*
X133241592Y-84782091I218750J0D01*
G01*
X133754092Y-84782091D01*
G75*
G02*
X133972842Y-85000841I0J-218750D01*
G01*
X133972842Y-85438341D01*
G75*
G02*
X133754092Y-85657091I-218750J0D01*
G01*
G37*
G36*
G01*
X254076250Y-54245000D02*
X253563750Y-54245000D01*
G75*
G02*
X253345000Y-54026250I0J218750D01*
G01*
X253345000Y-53588750D01*
G75*
G02*
X253563750Y-53370000I218750J0D01*
G01*
X254076250Y-53370000D01*
G75*
G02*
X254295000Y-53588750I0J-218750D01*
G01*
X254295000Y-54026250D01*
G75*
G02*
X254076250Y-54245000I-218750J0D01*
G01*
G37*
G36*
G01*
X254076250Y-52670000D02*
X253563750Y-52670000D01*
G75*
G02*
X253345000Y-52451250I0J218750D01*
G01*
X253345000Y-52013750D01*
G75*
G02*
X253563750Y-51795000I218750J0D01*
G01*
X254076250Y-51795000D01*
G75*
G02*
X254295000Y-52013750I0J-218750D01*
G01*
X254295000Y-52451250D01*
G75*
G02*
X254076250Y-52670000I-218750J0D01*
G01*
G37*
G36*
G01*
X173600000Y-33343750D02*
X173600000Y-33856250D01*
G75*
G02*
X173381250Y-34075000I-218750J0D01*
G01*
X172943750Y-34075000D01*
G75*
G02*
X172725000Y-33856250I0J218750D01*
G01*
X172725000Y-33343750D01*
G75*
G02*
X172943750Y-33125000I218750J0D01*
G01*
X173381250Y-33125000D01*
G75*
G02*
X173600000Y-33343750I0J-218750D01*
G01*
G37*
G36*
G01*
X172025000Y-33343750D02*
X172025000Y-33856250D01*
G75*
G02*
X171806250Y-34075000I-218750J0D01*
G01*
X171368750Y-34075000D01*
G75*
G02*
X171150000Y-33856250I0J218750D01*
G01*
X171150000Y-33343750D01*
G75*
G02*
X171368750Y-33125000I218750J0D01*
G01*
X171806250Y-33125000D01*
G75*
G02*
X172025000Y-33343750I0J-218750D01*
G01*
G37*
G36*
G01*
X254980000Y-89316250D02*
X254980000Y-88803750D01*
G75*
G02*
X255198750Y-88585000I218750J0D01*
G01*
X255636250Y-88585000D01*
G75*
G02*
X255855000Y-88803750I0J-218750D01*
G01*
X255855000Y-89316250D01*
G75*
G02*
X255636250Y-89535000I-218750J0D01*
G01*
X255198750Y-89535000D01*
G75*
G02*
X254980000Y-89316250I0J218750D01*
G01*
G37*
G36*
G01*
X253405000Y-89316250D02*
X253405000Y-88803750D01*
G75*
G02*
X253623750Y-88585000I218750J0D01*
G01*
X254061250Y-88585000D01*
G75*
G02*
X254280000Y-88803750I0J-218750D01*
G01*
X254280000Y-89316250D01*
G75*
G02*
X254061250Y-89535000I-218750J0D01*
G01*
X253623750Y-89535000D01*
G75*
G02*
X253405000Y-89316250I0J218750D01*
G01*
G37*
G36*
G01*
X254275000Y-81203750D02*
X254275000Y-81716250D01*
G75*
G02*
X254056250Y-81935000I-218750J0D01*
G01*
X253618750Y-81935000D01*
G75*
G02*
X253400000Y-81716250I0J218750D01*
G01*
X253400000Y-81203750D01*
G75*
G02*
X253618750Y-80985000I218750J0D01*
G01*
X254056250Y-80985000D01*
G75*
G02*
X254275000Y-81203750I0J-218750D01*
G01*
G37*
G36*
G01*
X252700000Y-81203750D02*
X252700000Y-81716250D01*
G75*
G02*
X252481250Y-81935000I-218750J0D01*
G01*
X252043750Y-81935000D01*
G75*
G02*
X251825000Y-81716250I0J218750D01*
G01*
X251825000Y-81203750D01*
G75*
G02*
X252043750Y-80985000I218750J0D01*
G01*
X252481250Y-80985000D01*
G75*
G02*
X252700000Y-81203750I0J-218750D01*
G01*
G37*
G36*
G01*
X259435000Y-85735000D02*
X259435000Y-86985000D01*
G75*
G02*
X259185000Y-87235000I-250000J0D01*
G01*
X258435000Y-87235000D01*
G75*
G02*
X258185000Y-86985000I0J250000D01*
G01*
X258185000Y-85735000D01*
G75*
G02*
X258435000Y-85485000I250000J0D01*
G01*
X259185000Y-85485000D01*
G75*
G02*
X259435000Y-85735000I0J-250000D01*
G01*
G37*
G36*
G01*
X256635000Y-85735000D02*
X256635000Y-86985000D01*
G75*
G02*
X256385000Y-87235000I-250000J0D01*
G01*
X255635000Y-87235000D01*
G75*
G02*
X255385000Y-86985000I0J250000D01*
G01*
X255385000Y-85735000D01*
G75*
G02*
X255635000Y-85485000I250000J0D01*
G01*
X256385000Y-85485000D01*
G75*
G02*
X256635000Y-85735000I0J-250000D01*
G01*
G37*
G36*
G01*
X256445000Y-84526250D02*
X256445000Y-83613750D01*
G75*
G02*
X256688750Y-83370000I243750J0D01*
G01*
X257176250Y-83370000D01*
G75*
G02*
X257420000Y-83613750I0J-243750D01*
G01*
X257420000Y-84526250D01*
G75*
G02*
X257176250Y-84770000I-243750J0D01*
G01*
X256688750Y-84770000D01*
G75*
G02*
X256445000Y-84526250I0J243750D01*
G01*
G37*
G36*
G01*
X258320000Y-84526250D02*
X258320000Y-83613750D01*
G75*
G02*
X258563750Y-83370000I243750J0D01*
G01*
X259051250Y-83370000D01*
G75*
G02*
X259295000Y-83613750I0J-243750D01*
G01*
X259295000Y-84526250D01*
G75*
G02*
X259051250Y-84770000I-243750J0D01*
G01*
X258563750Y-84770000D01*
G75*
G02*
X258320000Y-84526250I0J243750D01*
G01*
G37*
D23*
X253850000Y-84110000D03*
X252900000Y-84110000D03*
X251950000Y-84110000D03*
X251950000Y-86310000D03*
X253850000Y-86310000D03*
D24*
X266500000Y-80305000D03*
X266500000Y-79355000D03*
X266500000Y-78405000D03*
X264300000Y-78405000D03*
X264300000Y-80305000D03*
X264300000Y-79355000D03*
G36*
G01*
X263160000Y-76303750D02*
X263160000Y-76816250D01*
G75*
G02*
X262941250Y-77035000I-218750J0D01*
G01*
X262503750Y-77035000D01*
G75*
G02*
X262285000Y-76816250I0J218750D01*
G01*
X262285000Y-76303750D01*
G75*
G02*
X262503750Y-76085000I218750J0D01*
G01*
X262941250Y-76085000D01*
G75*
G02*
X263160000Y-76303750I0J-218750D01*
G01*
G37*
G36*
G01*
X264735000Y-76303750D02*
X264735000Y-76816250D01*
G75*
G02*
X264516250Y-77035000I-218750J0D01*
G01*
X264078750Y-77035000D01*
G75*
G02*
X263860000Y-76816250I0J218750D01*
G01*
X263860000Y-76303750D01*
G75*
G02*
X264078750Y-76085000I218750J0D01*
G01*
X264516250Y-76085000D01*
G75*
G02*
X264735000Y-76303750I0J-218750D01*
G01*
G37*
G36*
G01*
X264735000Y-81893750D02*
X264735000Y-82406250D01*
G75*
G02*
X264516250Y-82625000I-218750J0D01*
G01*
X264078750Y-82625000D01*
G75*
G02*
X263860000Y-82406250I0J218750D01*
G01*
X263860000Y-81893750D01*
G75*
G02*
X264078750Y-81675000I218750J0D01*
G01*
X264516250Y-81675000D01*
G75*
G02*
X264735000Y-81893750I0J-218750D01*
G01*
G37*
G36*
G01*
X263160000Y-81893750D02*
X263160000Y-82406250D01*
G75*
G02*
X262941250Y-82625000I-218750J0D01*
G01*
X262503750Y-82625000D01*
G75*
G02*
X262285000Y-82406250I0J218750D01*
G01*
X262285000Y-81893750D01*
G75*
G02*
X262503750Y-81675000I218750J0D01*
G01*
X262941250Y-81675000D01*
G75*
G02*
X263160000Y-81893750I0J-218750D01*
G01*
G37*
G36*
G01*
X261116250Y-80550000D02*
X260603750Y-80550000D01*
G75*
G02*
X260385000Y-80331250I0J218750D01*
G01*
X260385000Y-79893750D01*
G75*
G02*
X260603750Y-79675000I218750J0D01*
G01*
X261116250Y-79675000D01*
G75*
G02*
X261335000Y-79893750I0J-218750D01*
G01*
X261335000Y-80331250D01*
G75*
G02*
X261116250Y-80550000I-218750J0D01*
G01*
G37*
G36*
G01*
X261116250Y-82125000D02*
X260603750Y-82125000D01*
G75*
G02*
X260385000Y-81906250I0J218750D01*
G01*
X260385000Y-81468750D01*
G75*
G02*
X260603750Y-81250000I218750J0D01*
G01*
X261116250Y-81250000D01*
G75*
G02*
X261335000Y-81468750I0J-218750D01*
G01*
X261335000Y-81906250D01*
G75*
G02*
X261116250Y-82125000I-218750J0D01*
G01*
G37*
G36*
G01*
X250465000Y-86053750D02*
X250465000Y-86566250D01*
G75*
G02*
X250246250Y-86785000I-218750J0D01*
G01*
X249808750Y-86785000D01*
G75*
G02*
X249590000Y-86566250I0J218750D01*
G01*
X249590000Y-86053750D01*
G75*
G02*
X249808750Y-85835000I218750J0D01*
G01*
X250246250Y-85835000D01*
G75*
G02*
X250465000Y-86053750I0J-218750D01*
G01*
G37*
G36*
G01*
X248890000Y-86053750D02*
X248890000Y-86566250D01*
G75*
G02*
X248671250Y-86785000I-218750J0D01*
G01*
X248233750Y-86785000D01*
G75*
G02*
X248015000Y-86566250I0J218750D01*
G01*
X248015000Y-86053750D01*
G75*
G02*
X248233750Y-85835000I218750J0D01*
G01*
X248671250Y-85835000D01*
G75*
G02*
X248890000Y-86053750I0J-218750D01*
G01*
G37*
G36*
G01*
X261116250Y-77460000D02*
X260603750Y-77460000D01*
G75*
G02*
X260385000Y-77241250I0J218750D01*
G01*
X260385000Y-76803750D01*
G75*
G02*
X260603750Y-76585000I218750J0D01*
G01*
X261116250Y-76585000D01*
G75*
G02*
X261335000Y-76803750I0J-218750D01*
G01*
X261335000Y-77241250D01*
G75*
G02*
X261116250Y-77460000I-218750J0D01*
G01*
G37*
G36*
G01*
X261116250Y-79035000D02*
X260603750Y-79035000D01*
G75*
G02*
X260385000Y-78816250I0J218750D01*
G01*
X260385000Y-78378750D01*
G75*
G02*
X260603750Y-78160000I218750J0D01*
G01*
X261116250Y-78160000D01*
G75*
G02*
X261335000Y-78378750I0J-218750D01*
G01*
X261335000Y-78816250D01*
G75*
G02*
X261116250Y-79035000I-218750J0D01*
G01*
G37*
G36*
G01*
X250465000Y-83853750D02*
X250465000Y-84366250D01*
G75*
G02*
X250246250Y-84585000I-218750J0D01*
G01*
X249808750Y-84585000D01*
G75*
G02*
X249590000Y-84366250I0J218750D01*
G01*
X249590000Y-83853750D01*
G75*
G02*
X249808750Y-83635000I218750J0D01*
G01*
X250246250Y-83635000D01*
G75*
G02*
X250465000Y-83853750I0J-218750D01*
G01*
G37*
G36*
G01*
X248890000Y-83853750D02*
X248890000Y-84366250D01*
G75*
G02*
X248671250Y-84585000I-218750J0D01*
G01*
X248233750Y-84585000D01*
G75*
G02*
X248015000Y-84366250I0J218750D01*
G01*
X248015000Y-83853750D01*
G75*
G02*
X248233750Y-83635000I218750J0D01*
G01*
X248671250Y-83635000D01*
G75*
G02*
X248890000Y-83853750I0J-218750D01*
G01*
G37*
G36*
G01*
X116505000Y-38614584D02*
X116505000Y-37702084D01*
G75*
G02*
X116748750Y-37458334I243750J0D01*
G01*
X117236250Y-37458334D01*
G75*
G02*
X117480000Y-37702084I0J-243750D01*
G01*
X117480000Y-38614584D01*
G75*
G02*
X117236250Y-38858334I-243750J0D01*
G01*
X116748750Y-38858334D01*
G75*
G02*
X116505000Y-38614584I0J243750D01*
G01*
G37*
G36*
G01*
X118380000Y-38614584D02*
X118380000Y-37702084D01*
G75*
G02*
X118623750Y-37458334I243750J0D01*
G01*
X119111250Y-37458334D01*
G75*
G02*
X119355000Y-37702084I0J-243750D01*
G01*
X119355000Y-38614584D01*
G75*
G02*
X119111250Y-38858334I-243750J0D01*
G01*
X118623750Y-38858334D01*
G75*
G02*
X118380000Y-38614584I0J243750D01*
G01*
G37*
G36*
G01*
X118380000Y-40866250D02*
X118380000Y-39953750D01*
G75*
G02*
X118623750Y-39710000I243750J0D01*
G01*
X119111250Y-39710000D01*
G75*
G02*
X119355000Y-39953750I0J-243750D01*
G01*
X119355000Y-40866250D01*
G75*
G02*
X119111250Y-41110000I-243750J0D01*
G01*
X118623750Y-41110000D01*
G75*
G02*
X118380000Y-40866250I0J243750D01*
G01*
G37*
G36*
G01*
X116505000Y-40866250D02*
X116505000Y-39953750D01*
G75*
G02*
X116748750Y-39710000I243750J0D01*
G01*
X117236250Y-39710000D01*
G75*
G02*
X117480000Y-39953750I0J-243750D01*
G01*
X117480000Y-40866250D01*
G75*
G02*
X117236250Y-41110000I-243750J0D01*
G01*
X116748750Y-41110000D01*
G75*
G02*
X116505000Y-40866250I0J243750D01*
G01*
G37*
G36*
G01*
X121170000Y-37902084D02*
X121170000Y-38414584D01*
G75*
G02*
X120951250Y-38633334I-218750J0D01*
G01*
X120513750Y-38633334D01*
G75*
G02*
X120295000Y-38414584I0J218750D01*
G01*
X120295000Y-37902084D01*
G75*
G02*
X120513750Y-37683334I218750J0D01*
G01*
X120951250Y-37683334D01*
G75*
G02*
X121170000Y-37902084I0J-218750D01*
G01*
G37*
G36*
G01*
X122745000Y-37902084D02*
X122745000Y-38414584D01*
G75*
G02*
X122526250Y-38633334I-218750J0D01*
G01*
X122088750Y-38633334D01*
G75*
G02*
X121870000Y-38414584I0J218750D01*
G01*
X121870000Y-37902084D01*
G75*
G02*
X122088750Y-37683334I218750J0D01*
G01*
X122526250Y-37683334D01*
G75*
G02*
X122745000Y-37902084I0J-218750D01*
G01*
G37*
G36*
G01*
X122745000Y-40153750D02*
X122745000Y-40666250D01*
G75*
G02*
X122526250Y-40885000I-218750J0D01*
G01*
X122088750Y-40885000D01*
G75*
G02*
X121870000Y-40666250I0J218750D01*
G01*
X121870000Y-40153750D01*
G75*
G02*
X122088750Y-39935000I218750J0D01*
G01*
X122526250Y-39935000D01*
G75*
G02*
X122745000Y-40153750I0J-218750D01*
G01*
G37*
G36*
G01*
X121170000Y-40153750D02*
X121170000Y-40666250D01*
G75*
G02*
X120951250Y-40885000I-218750J0D01*
G01*
X120513750Y-40885000D01*
G75*
G02*
X120295000Y-40666250I0J218750D01*
G01*
X120295000Y-40153750D01*
G75*
G02*
X120513750Y-39935000I218750J0D01*
G01*
X120951250Y-39935000D01*
G75*
G02*
X121170000Y-40153750I0J-218750D01*
G01*
G37*
G36*
G01*
X262773750Y-66920000D02*
X263286250Y-66920000D01*
G75*
G02*
X263505000Y-67138750I0J-218750D01*
G01*
X263505000Y-67576250D01*
G75*
G02*
X263286250Y-67795000I-218750J0D01*
G01*
X262773750Y-67795000D01*
G75*
G02*
X262555000Y-67576250I0J218750D01*
G01*
X262555000Y-67138750D01*
G75*
G02*
X262773750Y-66920000I218750J0D01*
G01*
G37*
G36*
G01*
X262773750Y-65345000D02*
X263286250Y-65345000D01*
G75*
G02*
X263505000Y-65563750I0J-218750D01*
G01*
X263505000Y-66001250D01*
G75*
G02*
X263286250Y-66220000I-218750J0D01*
G01*
X262773750Y-66220000D01*
G75*
G02*
X262555000Y-66001250I0J218750D01*
G01*
X262555000Y-65563750D01*
G75*
G02*
X262773750Y-65345000I218750J0D01*
G01*
G37*
G36*
G01*
X245116250Y-60740000D02*
X244603750Y-60740000D01*
G75*
G02*
X244385000Y-60521250I0J218750D01*
G01*
X244385000Y-60083750D01*
G75*
G02*
X244603750Y-59865000I218750J0D01*
G01*
X245116250Y-59865000D01*
G75*
G02*
X245335000Y-60083750I0J-218750D01*
G01*
X245335000Y-60521250D01*
G75*
G02*
X245116250Y-60740000I-218750J0D01*
G01*
G37*
G36*
G01*
X245116250Y-62315000D02*
X244603750Y-62315000D01*
G75*
G02*
X244385000Y-62096250I0J218750D01*
G01*
X244385000Y-61658750D01*
G75*
G02*
X244603750Y-61440000I218750J0D01*
G01*
X245116250Y-61440000D01*
G75*
G02*
X245335000Y-61658750I0J-218750D01*
G01*
X245335000Y-62096250D01*
G75*
G02*
X245116250Y-62315000I-218750J0D01*
G01*
G37*
G36*
G01*
X256546250Y-55825000D02*
X256033750Y-55825000D01*
G75*
G02*
X255815000Y-55606250I0J218750D01*
G01*
X255815000Y-55168750D01*
G75*
G02*
X256033750Y-54950000I218750J0D01*
G01*
X256546250Y-54950000D01*
G75*
G02*
X256765000Y-55168750I0J-218750D01*
G01*
X256765000Y-55606250D01*
G75*
G02*
X256546250Y-55825000I-218750J0D01*
G01*
G37*
G36*
G01*
X256546250Y-54250000D02*
X256033750Y-54250000D01*
G75*
G02*
X255815000Y-54031250I0J218750D01*
G01*
X255815000Y-53593750D01*
G75*
G02*
X256033750Y-53375000I218750J0D01*
G01*
X256546250Y-53375000D01*
G75*
G02*
X256765000Y-53593750I0J-218750D01*
G01*
X256765000Y-54031250D01*
G75*
G02*
X256546250Y-54250000I-218750J0D01*
G01*
G37*
G36*
G01*
X260965000Y-53353750D02*
X260965000Y-54266250D01*
G75*
G02*
X260721250Y-54510000I-243750J0D01*
G01*
X260233750Y-54510000D01*
G75*
G02*
X259990000Y-54266250I0J243750D01*
G01*
X259990000Y-53353750D01*
G75*
G02*
X260233750Y-53110000I243750J0D01*
G01*
X260721250Y-53110000D01*
G75*
G02*
X260965000Y-53353750I0J-243750D01*
G01*
G37*
G36*
G01*
X259090000Y-53353750D02*
X259090000Y-54266250D01*
G75*
G02*
X258846250Y-54510000I-243750J0D01*
G01*
X258358750Y-54510000D01*
G75*
G02*
X258115000Y-54266250I0J243750D01*
G01*
X258115000Y-53353750D01*
G75*
G02*
X258358750Y-53110000I243750J0D01*
G01*
X258846250Y-53110000D01*
G75*
G02*
X259090000Y-53353750I0J-243750D01*
G01*
G37*
D25*
X265950000Y-66550000D03*
X265950000Y-66050000D03*
X265950000Y-65550000D03*
X265950000Y-65050000D03*
X265950000Y-64550000D03*
X265950000Y-64050000D03*
X265950000Y-63550000D03*
X265950000Y-63050000D03*
X265950000Y-62550000D03*
X265950000Y-62050000D03*
X265950000Y-61550000D03*
X265950000Y-61050000D03*
X265950000Y-60550000D03*
X265950000Y-60050000D03*
X265950000Y-59550000D03*
X265950000Y-59050000D03*
X265950000Y-58550000D03*
X265950000Y-58050000D03*
X265950000Y-57550000D03*
G36*
G01*
X267475000Y-49245000D02*
X267475000Y-51395000D01*
G75*
G02*
X267225000Y-51645000I-250000J0D01*
G01*
X266475000Y-51645000D01*
G75*
G02*
X266225000Y-51395000I0J250000D01*
G01*
X266225000Y-49245000D01*
G75*
G02*
X266475000Y-48995000I250000J0D01*
G01*
X267225000Y-48995000D01*
G75*
G02*
X267475000Y-49245000I0J-250000D01*
G01*
G37*
G36*
G01*
X264675000Y-49245000D02*
X264675000Y-51395000D01*
G75*
G02*
X264425000Y-51645000I-250000J0D01*
G01*
X263675000Y-51645000D01*
G75*
G02*
X263425000Y-51395000I0J250000D01*
G01*
X263425000Y-49245000D01*
G75*
G02*
X263675000Y-48995000I250000J0D01*
G01*
X264425000Y-48995000D01*
G75*
G02*
X264675000Y-49245000I0J-250000D01*
G01*
G37*
G36*
G01*
X167190000Y-56016250D02*
X167190000Y-55503750D01*
G75*
G02*
X167408750Y-55285000I218750J0D01*
G01*
X167846250Y-55285000D01*
G75*
G02*
X168065000Y-55503750I0J-218750D01*
G01*
X168065000Y-56016250D01*
G75*
G02*
X167846250Y-56235000I-218750J0D01*
G01*
X167408750Y-56235000D01*
G75*
G02*
X167190000Y-56016250I0J218750D01*
G01*
G37*
G36*
G01*
X165615000Y-56016250D02*
X165615000Y-55503750D01*
G75*
G02*
X165833750Y-55285000I218750J0D01*
G01*
X166271250Y-55285000D01*
G75*
G02*
X166490000Y-55503750I0J-218750D01*
G01*
X166490000Y-56016250D01*
G75*
G02*
X166271250Y-56235000I-218750J0D01*
G01*
X165833750Y-56235000D01*
G75*
G02*
X165615000Y-56016250I0J218750D01*
G01*
G37*
G36*
G01*
X160150000Y-71943750D02*
X160150000Y-72456250D01*
G75*
G02*
X159931250Y-72675000I-218750J0D01*
G01*
X159493750Y-72675000D01*
G75*
G02*
X159275000Y-72456250I0J218750D01*
G01*
X159275000Y-71943750D01*
G75*
G02*
X159493750Y-71725000I218750J0D01*
G01*
X159931250Y-71725000D01*
G75*
G02*
X160150000Y-71943750I0J-218750D01*
G01*
G37*
G36*
G01*
X161725000Y-71943750D02*
X161725000Y-72456250D01*
G75*
G02*
X161506250Y-72675000I-218750J0D01*
G01*
X161068750Y-72675000D01*
G75*
G02*
X160850000Y-72456250I0J218750D01*
G01*
X160850000Y-71943750D01*
G75*
G02*
X161068750Y-71725000I218750J0D01*
G01*
X161506250Y-71725000D01*
G75*
G02*
X161725000Y-71943750I0J-218750D01*
G01*
G37*
M02*
