M48
;DRILL file {KiCad 5.0.2+dfsg1-1~bpo9+1} date Mon Dec 20 11:51:10 2021
;FORMAT={-:-/ absolute / inch / decimal}
FMAT,2
INCH,TZ
T1C0.0157
T2C0.0236
T3C0.0315
T4C0.0335
T5C0.0354
T6C0.0394
T7C0.0402
T8C0.0449
T9C0.0469
T10C0.0472
T11C0.0512
T12C0.1201
%
G90
G05
T1
X4.748Y-2.7087
X4.8898Y-3.2913
X4.9218Y-2.9291
X5.Y-2.6339
X5.0039Y-2.7643
X5.0551Y-3.0354
X5.0748Y-3.0945
X5.0807Y-2.874
X5.122Y-2.7205
X5.1929Y-3.063
X5.1969Y-2.9685
X5.2008Y-2.6654
X5.2402Y-2.937
X5.2696Y-3.4646
X5.2874Y-3.2945
X5.311Y-3.0748
X5.3405Y-3.4646
X5.3622Y-3.0682
X5.3898Y-2.8661
X5.4055Y-3.1129
X5.4113Y-3.4646
X5.4291Y-2.9094
X5.4291Y-3.1575
X5.4567Y-2.8307
X5.4792Y-3.4652
X5.4882Y-2.8799
X5.4921Y-2.6142
X5.5768Y-0.5651
X5.5866Y-2.6654
X5.6535Y-2.9724
X5.6575Y-3.0157
X5.7047Y-3.1693
X5.7874Y-3.0635
X5.8465Y-3.0906
X5.8563Y-2.9011
X5.9016Y-2.7953
X6.1164Y-3.1398
X6.3681Y-2.9011
X6.4173Y-2.7953
X6.6282Y-3.1398
X6.6465Y-2.1953
X6.9016Y-2.9016
X6.9488Y-2.7953
X7.1597Y-3.1398
X7.3524Y-2.9011
X7.4016Y-2.7953
X7.6125Y-3.1398
X8.6945Y-3.8571
X8.7539Y-2.0996
X8.8012Y-1.8396
X8.8244Y-3.7795
X8.828Y-1.993
X8.839Y-1.8652
X8.9008Y-2.0669
X9.1748Y-1.6757
X9.1929Y-1.8652
X9.2094Y-2.05
X9.2213Y-1.9931
X9.2736Y-1.7377
X9.369Y-1.4634
X9.4965Y-1.4165
X9.5618Y-1.1878
X9.5972Y-1.385
X9.6949Y-0.876
X9.7165Y-1.0354
X9.7252Y-1.1618
X9.7902Y-1.365
X9.7969Y-1.5861
X9.7988Y-0.6366
X9.9016Y-0.9094
X9.9154Y-1.3673
X9.9154Y-1.4354
X9.9213Y-1.2303
X9.9213Y-1.2992
X9.9567Y-3.2571
X9.9941Y-3.4512
X10.0492Y-1.0728
X10.0787Y-0.876
X10.0787Y-1.1614
X10.0787Y-1.2303
X10.0787Y-1.2992
X10.0791Y-3.4614
X10.2661Y-2.5899
X10.3402Y-3.1242
X10.5118Y-2.2854
X10.5118Y-2.5807
X10.5402Y-3.0386
X10.5406Y-3.1242
T3
X9.9425Y-0.5268
X9.9425Y-0.6252
T4
X10.5983Y-3.0146
X10.5983Y-3.2114
T5
X8.513Y-1.0827
X8.513Y-1.1614
X8.5917Y-1.0827
X8.5917Y-1.1614
X8.6705Y-1.0827
X8.6705Y-1.1614
X8.7492Y-1.0827
X8.7492Y-1.1614
X8.828Y-1.0827
X8.828Y-1.1614
X8.9067Y-1.0827
X8.9067Y-1.1614
X8.9854Y-1.0827
X8.9854Y-1.1614
X4.5118Y-2.5118
X4.5118Y-2.5906
X4.5118Y-2.6693
X4.5118Y-2.748
X4.5118Y-2.8268
X4.5118Y-2.9055
X4.5118Y-2.9843
X4.5906Y-2.5118
X4.5906Y-2.5906
X4.5906Y-2.6693
X4.5906Y-2.748
X4.5906Y-2.8268
X4.5906Y-2.9055
X4.5906Y-2.9843
T6
X4.774Y-3.737
X4.774Y-3.837
X4.774Y-3.937
X4.874Y-3.737
X4.874Y-3.837
X4.874Y-3.937
X4.974Y-3.737
X4.974Y-3.837
X4.974Y-3.937
X5.074Y-3.737
X5.074Y-3.837
X5.074Y-3.937
X5.174Y-3.737
X5.174Y-3.837
X5.174Y-3.937
X5.274Y-3.737
X5.274Y-3.837
X5.274Y-3.937
X5.374Y-3.737
X5.374Y-3.837
X5.374Y-3.937
X5.474Y-3.737
X5.474Y-3.837
X5.474Y-3.937
X5.574Y-3.737
X5.574Y-3.837
X5.574Y-3.937
X5.674Y-3.737
X5.674Y-3.837
X5.674Y-3.937
X5.774Y-3.737
X5.774Y-3.837
X5.774Y-3.937
X5.874Y-3.737
X5.874Y-3.837
X5.874Y-3.937
X5.974Y-3.737
X5.974Y-3.837
X5.974Y-3.937
X6.074Y-3.737
X6.074Y-3.837
X6.074Y-3.937
X6.174Y-3.737
X6.174Y-3.837
X6.174Y-3.937
X6.274Y-3.737
X6.274Y-3.837
X6.274Y-3.937
X6.374Y-3.737
X6.374Y-3.837
X6.374Y-3.937
X6.474Y-3.737
X6.474Y-3.837
X6.474Y-3.937
X6.574Y-3.737
X6.574Y-3.837
X6.574Y-3.937
X6.674Y-3.737
X6.674Y-3.837
X6.674Y-3.937
X6.774Y-3.737
X6.774Y-3.837
X6.774Y-3.937
X6.874Y-3.737
X6.874Y-3.837
X6.874Y-3.937
X6.974Y-3.737
X6.974Y-3.837
X6.974Y-3.937
X7.074Y-3.737
X7.074Y-3.837
X7.074Y-3.937
X7.174Y-3.737
X7.174Y-3.837
X7.174Y-3.937
X7.274Y-3.737
X7.274Y-3.837
X7.274Y-3.937
X7.374Y-3.737
X7.374Y-3.837
X7.374Y-3.937
X7.474Y-3.737
X7.474Y-3.837
X7.474Y-3.937
X7.574Y-3.737
X7.574Y-3.837
X7.574Y-3.937
X7.674Y-3.737
X7.674Y-3.837
X7.674Y-3.937
X7.774Y-3.737
X7.774Y-3.837
X7.774Y-3.937
X7.874Y-3.737
X7.874Y-3.837
X7.874Y-3.937
T7
X7.9854Y-3.1134
X8.0854Y-3.1134
X4.7992Y-0.8189
X4.7992Y-0.9189
X4.7992Y-1.0189
X4.7992Y-1.1189
X4.7992Y-1.2189
X4.7992Y-1.3189
T8
X5.1181Y-2.3311
X5.1181Y-2.4311
X5.2181Y-2.3311
X5.2181Y-2.4311
X5.3181Y-2.3311
X5.3181Y-2.4311
X5.4181Y-2.3311
X5.4181Y-2.4311
X5.5181Y-2.3311
X5.5181Y-2.4311
X5.6181Y-2.3311
X5.6181Y-2.4311
X5.7181Y-2.3311
X5.7181Y-2.4311
X5.8181Y-2.3311
X5.8181Y-2.4311
X5.9181Y-2.3311
X5.9181Y-2.4311
X6.0181Y-2.3311
X6.0181Y-2.4311
X6.1181Y-2.3311
X6.1181Y-2.4311
X6.2181Y-2.3311
X6.2181Y-2.4311
X6.3181Y-2.3311
X6.3181Y-2.4311
X6.4181Y-2.3311
X6.4181Y-2.4311
X6.5181Y-2.3311
X6.5181Y-2.4311
X6.6181Y-2.3311
X6.6181Y-2.4311
X6.7181Y-2.3311
X6.7181Y-2.4311
X6.8181Y-2.3311
X6.8181Y-2.4311
X6.9181Y-2.3311
X6.9181Y-2.4311
X7.0181Y-2.3311
X7.0181Y-2.4311
X7.1181Y-2.3311
X7.1181Y-2.4311
X7.2181Y-2.3311
X7.2181Y-2.4311
X7.3181Y-2.3311
X7.3181Y-2.4311
X7.4181Y-2.3311
X7.4181Y-2.4311
X7.5181Y-2.3311
X7.5181Y-2.4311
X7.6181Y-2.3311
X7.6181Y-2.4311
X7.7181Y-2.3311
X7.7181Y-2.4311
X7.8181Y-2.3311
X7.8181Y-2.4311
X7.9181Y-2.3311
X7.9181Y-2.4311
X8.0181Y-2.3311
X8.0181Y-2.4311
X8.1181Y-2.3311
X8.1181Y-2.4311
X8.2181Y-2.3311
X8.2181Y-2.4311
X5.1181Y-1.0811
X5.1181Y-1.1811
X5.2181Y-1.0811
X5.2181Y-1.1811
X5.3181Y-1.0811
X5.3181Y-1.1811
X5.4181Y-1.0811
X5.4181Y-1.1811
X5.5181Y-1.0811
X5.5181Y-1.1811
X5.6181Y-1.0811
X5.6181Y-1.1811
X5.7181Y-1.0811
X5.7181Y-1.1811
X5.8181Y-1.0811
X5.8181Y-1.1811
X5.9181Y-1.0811
X5.9181Y-1.1811
X6.0181Y-1.0811
X6.0181Y-1.1811
X6.1181Y-1.0811
X6.1181Y-1.1811
X6.2181Y-1.0811
X6.2181Y-1.1811
X6.3181Y-1.0811
X6.3181Y-1.1811
X6.4181Y-1.0811
X6.4181Y-1.1811
X6.5181Y-1.0811
X6.5181Y-1.1811
X6.6181Y-1.0811
X6.6181Y-1.1811
X6.7181Y-1.0811
X6.7181Y-1.1811
X6.8181Y-1.0811
X6.8181Y-1.1811
X6.9181Y-1.0811
X6.9181Y-1.1811
X7.0181Y-1.0811
X7.0181Y-1.1811
X7.1181Y-1.0811
X7.1181Y-1.1811
X7.2181Y-1.0811
X7.2181Y-1.1811
X7.3181Y-1.0811
X7.3181Y-1.1811
X7.4181Y-1.0811
X7.4181Y-1.1811
X7.5181Y-1.0811
X7.5181Y-1.1811
X7.6181Y-1.0811
X7.6181Y-1.1811
X7.7181Y-1.0811
X7.7181Y-1.1811
X7.8181Y-1.0811
X7.8181Y-1.1811
X7.9181Y-1.0811
X7.9181Y-1.1811
X8.0181Y-1.0811
X8.0181Y-1.1811
X8.1181Y-1.0811
X8.1181Y-1.1811
X8.2181Y-1.0811
X8.2181Y-1.1811
T9
X10.215Y-1.1535
X10.215Y-1.2437
X10.215Y-1.3339
X10.215Y-1.424
X10.215Y-1.5142
X10.315Y-1.1087
X10.315Y-1.1988
X10.315Y-1.289
X10.315Y-1.3791
X10.315Y-1.4693
X10.415Y-1.1535
X10.415Y-1.2437
X10.415Y-1.3337
X10.415Y-1.424
X10.415Y-1.5142
T10
X8.5921Y-3.5933
X8.6921Y-3.5933
X8.7921Y-3.5933
X4.5354Y-3.2567
X4.5354Y-3.3567
X4.5354Y-3.4567
T11
X10.4665Y-2.1673
X10.4665Y-2.7382
X10.6614Y-2.1437
X10.6614Y-2.7618
T12
X10.315Y-0.8319
X10.315Y-1.8161
T2
X10.6908Y-2.9752G85X10.7184Y-2.9752
G05
X10.7184Y-3.2508G85X10.6908Y-3.2508
G05
T0
M30
