G04 #@! TF.GenerationSoftware,KiCad,Pcbnew,5.0.2+dfsg1-1~bpo9+1*
G04 #@! TF.CreationDate,2022-10-01T08:37:02+02:00*
G04 #@! TF.ProjectId,nubus-to-ztex,6e756275-732d-4746-9f2d-7a7465782e6b,rev?*
G04 #@! TF.SameCoordinates,Original*
G04 #@! TF.FileFunction,Profile,NP*
%FSLAX46Y46*%
G04 Gerber Fmt 4.6, Leading zero omitted, Abs format (unit mm)*
G04 Created by KiCad (PCBNEW 5.0.2+dfsg1-1~bpo9+1) date Sat Oct  1 08:37:02 2022*
%MOMM*%
%LPD*%
G01*
G04 APERTURE LIST*
%ADD10C,0.150000*%
%ADD11C,0.200000*%
G04 APERTURE END LIST*
D10*
X270060000Y-7830000D02*
G75*
G03X270060000Y-7830000I-1800000J0D01*
G01*
X273330000Y-5100000D02*
X273330000Y-10680000D01*
X261800000Y-13030000D02*
X261800000Y-11630000D01*
X272380000Y-13030000D02*
X261800000Y-13030000D01*
X272380000Y-11630000D02*
X273330000Y-10680000D01*
X272380000Y-11630000D02*
X261800000Y-11630000D01*
X272380000Y-13030000D02*
X273330000Y-13980000D01*
X273330000Y-105080000D02*
X273330000Y-101230000D01*
X272380000Y-100280000D02*
X273330000Y-101230000D01*
X272380000Y-98880000D02*
X273330000Y-97930000D01*
X261800000Y-100280000D02*
X261800000Y-98880000D01*
X272380000Y-98880000D02*
X261800000Y-98880000D01*
X272380000Y-100280000D02*
X261800000Y-100280000D01*
D11*
X170930000Y-12480000D02*
G75*
G03X170930000Y-12480000I-1600000J0D01*
G01*
X200930000Y-12480000D02*
G75*
G03X200930000Y-12480000I-1600000J0D01*
G01*
D10*
X273330000Y-97930000D02*
X273330000Y-13980000D01*
D11*
X230930000Y-12480000D02*
G75*
G03X230930000Y-12480000I-1600000J0D01*
G01*
X270060000Y-95080000D02*
G75*
G03X270060000Y-95080000I-1800000J0D01*
G01*
D10*
X111730000Y-5100000D02*
X111730000Y-105080000D01*
X111730000Y-5100000D02*
X273330000Y-5100000D01*
X111730000Y-105080000D02*
X273330000Y-105080000D01*
M02*
