G04 #@! TF.GenerationSoftware,KiCad,Pcbnew,5.0.2+dfsg1-1~bpo9+1*
G04 #@! TF.CreationDate,2022-01-29T10:57:36+01:00*
G04 #@! TF.ProjectId,nubus-to-ztex,6e756275-732d-4746-9f2d-7a7465782e6b,rev?*
G04 #@! TF.SameCoordinates,Original*
G04 #@! TF.FileFunction,Copper,L4,Bot*
G04 #@! TF.FilePolarity,Positive*
%FSLAX46Y46*%
G04 Gerber Fmt 4.6, Leading zero omitted, Abs format (unit mm)*
G04 Created by KiCad (PCBNEW 5.0.2+dfsg1-1~bpo9+1) date Sat Jan 29 10:57:36 2022*
%MOMM*%
%LPD*%
G01*
G04 APERTURE LIST*
G04 #@! TA.AperFunction,ComponentPad*
%ADD10R,1.350000X1.350000*%
G04 #@! TD*
G04 #@! TA.AperFunction,ComponentPad*
%ADD11O,1.350000X1.350000*%
G04 #@! TD*
G04 #@! TA.AperFunction,ComponentPad*
%ADD12C,1.450000*%
G04 #@! TD*
G04 #@! TA.AperFunction,ComponentPad*
%ADD13O,1.900000X1.200000*%
G04 #@! TD*
G04 #@! TA.AperFunction,ComponentPad*
%ADD14R,1.700000X1.700000*%
G04 #@! TD*
G04 #@! TA.AperFunction,ComponentPad*
%ADD15O,1.700000X1.700000*%
G04 #@! TD*
G04 #@! TA.AperFunction,Conductor*
%ADD16C,0.100000*%
G04 #@! TD*
G04 #@! TA.AperFunction,ComponentPad*
%ADD17C,1.740000*%
G04 #@! TD*
G04 #@! TA.AperFunction,ComponentPad*
%ADD18O,1.740000X2.200000*%
G04 #@! TD*
G04 #@! TA.AperFunction,ComponentPad*
%ADD19C,2.000000*%
G04 #@! TD*
G04 #@! TA.AperFunction,ComponentPad*
%ADD20C,1.500000*%
G04 #@! TD*
G04 #@! TA.AperFunction,ComponentPad*
%ADD21C,3.500000*%
G04 #@! TD*
G04 #@! TA.AperFunction,ComponentPad*
%ADD22R,1.600000X1.600000*%
G04 #@! TD*
G04 #@! TA.AperFunction,ComponentPad*
%ADD23C,1.600000*%
G04 #@! TD*
G04 #@! TA.AperFunction,ComponentPad*
%ADD24C,1.550000*%
G04 #@! TD*
G04 #@! TA.AperFunction,ViaPad*
%ADD25C,0.800000*%
G04 #@! TD*
G04 #@! TA.AperFunction,Conductor*
%ADD26C,0.152400*%
G04 #@! TD*
G04 #@! TA.AperFunction,Conductor*
%ADD27C,1.200000*%
G04 #@! TD*
G04 #@! TA.AperFunction,Conductor*
%ADD28C,1.500000*%
G04 #@! TD*
G04 #@! TA.AperFunction,Conductor*
%ADD29C,0.500000*%
G04 #@! TD*
G04 #@! TA.AperFunction,Conductor*
%ADD30C,1.000000*%
G04 #@! TD*
G04 #@! TA.AperFunction,Conductor*
%ADD31C,0.800000*%
G04 #@! TD*
G04 #@! TA.AperFunction,Conductor*
%ADD32C,1.600000*%
G04 #@! TD*
G04 #@! TA.AperFunction,Conductor*
%ADD33C,0.200000*%
G04 #@! TD*
G04 #@! TA.AperFunction,Conductor*
%ADD34C,0.300000*%
G04 #@! TD*
G04 APERTURE END LIST*
D10*
G04 #@! TO.P,J2,1*
G04 #@! TO.N,GND*
X116600000Y-75800000D03*
D11*
G04 #@! TO.P,J2,2*
G04 #@! TO.N,+3V3*
X114600000Y-75800000D03*
G04 #@! TO.P,J2,3*
G04 #@! TO.N,GND*
X116600000Y-73800000D03*
G04 #@! TO.P,J2,4*
G04 #@! TO.N,CPLD_JTAG_TMS*
X114600000Y-73800000D03*
G04 #@! TO.P,J2,5*
G04 #@! TO.N,GND*
X116600000Y-71800000D03*
G04 #@! TO.P,J2,6*
G04 #@! TO.N,CPLD_JTAG_TCK*
X114600000Y-71800000D03*
G04 #@! TO.P,J2,7*
G04 #@! TO.N,GND*
X116600000Y-69800000D03*
G04 #@! TO.P,J2,8*
G04 #@! TO.N,CPLD_JTAG_TDO*
X114600000Y-69800000D03*
G04 #@! TO.P,J2,9*
G04 #@! TO.N,GND*
X116600000Y-67800000D03*
G04 #@! TO.P,J2,10*
G04 #@! TO.N,CPLD_JTAG_TDI*
X114600000Y-67800000D03*
G04 #@! TO.P,J2,11*
G04 #@! TO.N,GND*
X116600000Y-65800000D03*
G04 #@! TO.P,J2,12*
G04 #@! TO.N,Net-(J2-Pad12)*
X114600000Y-65800000D03*
G04 #@! TO.P,J2,13*
G04 #@! TO.N,GND*
X116600000Y-63800000D03*
G04 #@! TO.P,J2,14*
G04 #@! TO.N,Net-(J2-Pad14)*
X114600000Y-63800000D03*
G04 #@! TD*
D12*
G04 #@! TO.P,J6,6*
G04 #@! TO.N,SHIELD*
X269197500Y-81570000D03*
X269197500Y-76570000D03*
D13*
X271897500Y-82570000D03*
X271897500Y-75570000D03*
G04 #@! TD*
D14*
G04 #@! TO.P,J8,1*
G04 #@! TO.N,+3V3*
X202830000Y-79080000D03*
D15*
G04 #@! TO.P,J8,2*
G04 #@! TO.N,GND*
X205370000Y-79080000D03*
G04 #@! TD*
D16*
G04 #@! TO.N,GND*
G04 #@! TO.C,J7*
G36*
X218884505Y-90171204D02*
X218908773Y-90174804D01*
X218932572Y-90180765D01*
X218955671Y-90189030D01*
X218977850Y-90199520D01*
X218998893Y-90212132D01*
X219018599Y-90226747D01*
X219036777Y-90243223D01*
X219053253Y-90261401D01*
X219067868Y-90281107D01*
X219080480Y-90302150D01*
X219090970Y-90324329D01*
X219099235Y-90347428D01*
X219105196Y-90371227D01*
X219108796Y-90395495D01*
X219110000Y-90419999D01*
X219110000Y-92120001D01*
X219108796Y-92144505D01*
X219105196Y-92168773D01*
X219099235Y-92192572D01*
X219090970Y-92215671D01*
X219080480Y-92237850D01*
X219067868Y-92258893D01*
X219053253Y-92278599D01*
X219036777Y-92296777D01*
X219018599Y-92313253D01*
X218998893Y-92327868D01*
X218977850Y-92340480D01*
X218955671Y-92350970D01*
X218932572Y-92359235D01*
X218908773Y-92365196D01*
X218884505Y-92368796D01*
X218860001Y-92370000D01*
X217619999Y-92370000D01*
X217595495Y-92368796D01*
X217571227Y-92365196D01*
X217547428Y-92359235D01*
X217524329Y-92350970D01*
X217502150Y-92340480D01*
X217481107Y-92327868D01*
X217461401Y-92313253D01*
X217443223Y-92296777D01*
X217426747Y-92278599D01*
X217412132Y-92258893D01*
X217399520Y-92237850D01*
X217389030Y-92215671D01*
X217380765Y-92192572D01*
X217374804Y-92168773D01*
X217371204Y-92144505D01*
X217370000Y-92120001D01*
X217370000Y-90419999D01*
X217371204Y-90395495D01*
X217374804Y-90371227D01*
X217380765Y-90347428D01*
X217389030Y-90324329D01*
X217399520Y-90302150D01*
X217412132Y-90281107D01*
X217426747Y-90261401D01*
X217443223Y-90243223D01*
X217461401Y-90226747D01*
X217481107Y-90212132D01*
X217502150Y-90199520D01*
X217524329Y-90189030D01*
X217547428Y-90180765D01*
X217571227Y-90174804D01*
X217595495Y-90171204D01*
X217619999Y-90170000D01*
X218860001Y-90170000D01*
X218884505Y-90171204D01*
X218884505Y-90171204D01*
G37*
D17*
G04 #@! TD*
G04 #@! TO.P,J7,1*
G04 #@! TO.N,GND*
X218240000Y-91270000D03*
D18*
G04 #@! TO.P,J7,2*
G04 #@! TO.N,+5V*
X220780000Y-91270000D03*
G04 #@! TO.P,J7,3*
G04 #@! TO.N,GND*
X223320000Y-91270000D03*
G04 #@! TD*
D14*
G04 #@! TO.P,JCD1,1*
G04 #@! TO.N,Net-(JCD1-Pad1)*
X130000000Y-30000000D03*
D15*
G04 #@! TO.P,JCD1,2*
G04 #@! TO.N,Net-(JCD1-Pad2)*
X130000000Y-27460000D03*
G04 #@! TO.P,JCD1,3*
G04 #@! TO.N,GND*
X132540000Y-30000000D03*
G04 #@! TO.P,JCD1,4*
X132540000Y-27460000D03*
G04 #@! TO.P,JCD1,5*
G04 #@! TO.N,/B2B/RX*
X135080000Y-30000000D03*
G04 #@! TO.P,JCD1,6*
G04 #@! TO.N,/B2B/TX*
X135080000Y-27460000D03*
G04 #@! TO.P,JCD1,7*
G04 #@! TO.N,~ID3_3V3*
X137620000Y-30000000D03*
G04 #@! TO.P,JCD1,8*
G04 #@! TO.N,~ID2_3V3*
X137620000Y-27460000D03*
G04 #@! TO.P,JCD1,9*
G04 #@! TO.N,~ID0_3V3*
X140160000Y-30000000D03*
G04 #@! TO.P,JCD1,10*
G04 #@! TO.N,~ID1_3V3*
X140160000Y-27460000D03*
G04 #@! TO.P,JCD1,11*
G04 #@! TO.N,tmoen*
X142700000Y-30000000D03*
G04 #@! TO.P,JCD1,12*
G04 #@! TO.N,LED0*
X142700000Y-27460000D03*
G04 #@! TO.P,JCD1,13*
G04 #@! TO.N,HDMI_HPD_A*
X145240000Y-30000000D03*
G04 #@! TO.P,JCD1,14*
G04 #@! TO.N,LED1*
X145240000Y-27460000D03*
G04 #@! TO.P,JCD1,15*
G04 #@! TO.N,HDMI_SDA_A*
X147780000Y-30000000D03*
G04 #@! TO.P,JCD1,16*
G04 #@! TO.N,~CLK2X_3V3*
X147780000Y-27460000D03*
G04 #@! TO.P,JCD1,17*
G04 #@! TO.N,HDMI_SCL_A*
X150320000Y-30000000D03*
G04 #@! TO.P,JCD1,18*
G04 #@! TO.N,~TM2_3V3*
X150320000Y-27460000D03*
G04 #@! TO.P,JCD1,19*
G04 #@! TO.N,HDMI_CEC_A*
X152860000Y-30000000D03*
G04 #@! TO.P,JCD1,20*
G04 #@! TO.N,FPGA_VGA_HS*
X152860000Y-27460000D03*
G04 #@! TO.P,JCD1,21*
G04 #@! TO.N,HDMI_CLK+*
X155400000Y-30000000D03*
G04 #@! TO.P,JCD1,22*
G04 #@! TO.N,FPGA_VGA_VS*
X155400000Y-27460000D03*
G04 #@! TO.P,JCD1,23*
G04 #@! TO.N,HDMI_CLK-*
X157940000Y-30000000D03*
G04 #@! TO.P,JCD1,24*
G04 #@! TO.N,HDMI_D0-*
X157940000Y-27460000D03*
G04 #@! TO.P,JCD1,25*
G04 #@! TO.N,HDMI_D1-*
X160480000Y-30000000D03*
G04 #@! TO.P,JCD1,26*
G04 #@! TO.N,HDMI_D0+*
X160480000Y-27460000D03*
G04 #@! TO.P,JCD1,27*
G04 #@! TO.N,HDMI_D1+*
X163020000Y-30000000D03*
G04 #@! TO.P,JCD1,28*
G04 #@! TO.N,HDMI_D2-*
X163020000Y-27460000D03*
G04 #@! TO.P,JCD1,29*
G04 #@! TO.N,FPGA_VGA_CLK*
X165560000Y-30000000D03*
G04 #@! TO.P,JCD1,30*
G04 #@! TO.N,HDMI_D2+*
X165560000Y-27460000D03*
G04 #@! TO.P,JCD1,31*
G04 #@! TO.N,+3V3*
X168100000Y-30000000D03*
G04 #@! TO.P,JCD1,32*
X168100000Y-27460000D03*
G04 #@! TO.P,JCD1,33*
G04 #@! TO.N,GND*
X170640000Y-30000000D03*
G04 #@! TO.P,JCD1,34*
X170640000Y-27460000D03*
G04 #@! TO.P,JCD1,35*
G04 #@! TO.N,+3V3*
X173180000Y-30000000D03*
G04 #@! TO.P,JCD1,36*
X173180000Y-27460000D03*
G04 #@! TO.P,JCD1,37*
G04 #@! TO.N,FPGA_B7*
X175720000Y-30000000D03*
G04 #@! TO.P,JCD1,38*
G04 #@! TO.N,FPGA_R0*
X175720000Y-27460000D03*
G04 #@! TO.P,JCD1,39*
G04 #@! TO.N,FPGA_B6*
X178260000Y-30000000D03*
G04 #@! TO.P,JCD1,40*
G04 #@! TO.N,FPGA_R1*
X178260000Y-27460000D03*
G04 #@! TO.P,JCD1,41*
G04 #@! TO.N,FPGA_B5*
X180800000Y-30000000D03*
G04 #@! TO.P,JCD1,42*
G04 #@! TO.N,FPGA_R2*
X180800000Y-27460000D03*
G04 #@! TO.P,JCD1,43*
G04 #@! TO.N,FPGA_B4*
X183340000Y-30000000D03*
G04 #@! TO.P,JCD1,44*
G04 #@! TO.N,FPGA_R3*
X183340000Y-27460000D03*
G04 #@! TO.P,JCD1,45*
G04 #@! TO.N,FPGA_B3*
X185880000Y-30000000D03*
G04 #@! TO.P,JCD1,46*
G04 #@! TO.N,FPGA_R4*
X185880000Y-27460000D03*
G04 #@! TO.P,JCD1,47*
G04 #@! TO.N,FPGA_B2*
X188420000Y-30000000D03*
G04 #@! TO.P,JCD1,48*
G04 #@! TO.N,FPGA_R5*
X188420000Y-27460000D03*
G04 #@! TO.P,JCD1,49*
G04 #@! TO.N,FPGA_B1*
X190960000Y-30000000D03*
G04 #@! TO.P,JCD1,50*
G04 #@! TO.N,FPGA_R6*
X190960000Y-27460000D03*
G04 #@! TO.P,JCD1,51*
G04 #@! TO.N,FPGA_B0*
X193500000Y-30000000D03*
G04 #@! TO.P,JCD1,52*
G04 #@! TO.N,FPGA_R7*
X193500000Y-27460000D03*
G04 #@! TO.P,JCD1,53*
G04 #@! TO.N,FPGA_G7*
X196040000Y-30000000D03*
G04 #@! TO.P,JCD1,54*
G04 #@! TO.N,FPGA_G0*
X196040000Y-27460000D03*
G04 #@! TO.P,JCD1,55*
G04 #@! TO.N,FPGA_G6*
X198580000Y-30000000D03*
G04 #@! TO.P,JCD1,56*
G04 #@! TO.N,FPGA_G1*
X198580000Y-27460000D03*
G04 #@! TO.P,JCD1,57*
G04 #@! TO.N,FPGA_G5*
X201120000Y-30000000D03*
G04 #@! TO.P,JCD1,58*
G04 #@! TO.N,FPGA_G2*
X201120000Y-27460000D03*
G04 #@! TO.P,JCD1,59*
G04 #@! TO.N,FPGA_G4*
X203660000Y-30000000D03*
G04 #@! TO.P,JCD1,60*
G04 #@! TO.N,FPGA_G3*
X203660000Y-27460000D03*
G04 #@! TO.P,JCD1,61*
G04 #@! TO.N,FPGA_JTAG_TDO*
X206200000Y-30000000D03*
G04 #@! TO.P,JCD1,62*
G04 #@! TO.N,FPGA_JTAG_TMS*
X206200000Y-27460000D03*
G04 #@! TO.P,JCD1,63*
G04 #@! TO.N,GND*
X208740000Y-30000000D03*
G04 #@! TO.P,JCD1,64*
X208740000Y-27460000D03*
G04 #@! TD*
D10*
G04 #@! TO.P,J1,1*
G04 #@! TO.N,GND*
X228230000Y-27500000D03*
D11*
G04 #@! TO.P,J1,2*
G04 #@! TO.N,/B2B/JTAG_VIO*
X228230000Y-29500000D03*
G04 #@! TO.P,J1,3*
G04 #@! TO.N,GND*
X226230000Y-27500000D03*
G04 #@! TO.P,J1,4*
G04 #@! TO.N,FPGA_JTAG_TMS*
X226230000Y-29500000D03*
G04 #@! TO.P,J1,5*
G04 #@! TO.N,GND*
X224230000Y-27500000D03*
G04 #@! TO.P,J1,6*
G04 #@! TO.N,FPGA_JTAG_TCK*
X224230000Y-29500000D03*
G04 #@! TO.P,J1,7*
G04 #@! TO.N,GND*
X222230000Y-27500000D03*
G04 #@! TO.P,J1,8*
G04 #@! TO.N,FPGA_JTAG_TDO*
X222230000Y-29500000D03*
G04 #@! TO.P,J1,9*
G04 #@! TO.N,GND*
X220230000Y-27500000D03*
G04 #@! TO.P,J1,10*
G04 #@! TO.N,FPGA_JTAG_TDI*
X220230000Y-29500000D03*
G04 #@! TO.P,J1,11*
G04 #@! TO.N,GND*
X218230000Y-27500000D03*
G04 #@! TO.P,J1,12*
G04 #@! TO.N,Net-(J1-Pad12)*
X218230000Y-29500000D03*
G04 #@! TO.P,J1,13*
G04 #@! TO.N,GND*
X216230000Y-27500000D03*
G04 #@! TO.P,J1,14*
G04 #@! TO.N,Net-(J1-Pad14)*
X216230000Y-29500000D03*
G04 #@! TD*
D19*
G04 #@! TO.P,J5,SH*
G04 #@! TO.N,SHIELD*
X270800000Y-70150000D03*
X270800000Y-54450000D03*
X265850000Y-69550000D03*
X265850000Y-55050000D03*
G04 #@! TD*
D20*
G04 #@! TO.P,J9,15*
G04 #@! TO.N,Net-(J9-Pad15)*
X264540000Y-38460000D03*
G04 #@! TO.P,J9,14*
G04 #@! TO.N,/vga/VGA_VS*
X264540000Y-36170000D03*
G04 #@! TO.P,J9,13*
G04 #@! TO.N,/vga/VGA_HS*
X264540000Y-33876000D03*
G04 #@! TO.P,J9,12*
G04 #@! TO.N,Net-(J9-Pad12)*
X264540000Y-31590000D03*
G04 #@! TO.P,J9,11*
G04 #@! TO.N,Net-(J9-Pad11)*
X264540000Y-29300000D03*
G04 #@! TO.P,J9,10*
G04 #@! TO.N,GND*
X262000000Y-37320000D03*
G04 #@! TO.P,J9,9*
G04 #@! TO.N,Net-(J9-Pad9)*
X262000000Y-35030000D03*
G04 #@! TO.P,J9,8*
G04 #@! TO.N,GND*
X262000000Y-32740000D03*
G04 #@! TO.P,J9,7*
X262000000Y-30450000D03*
G04 #@! TO.P,J9,6*
X262000000Y-28160000D03*
G04 #@! TO.P,J9,5*
X259460000Y-38460000D03*
G04 #@! TO.P,J9,4*
G04 #@! TO.N,Net-(J9-Pad4)*
X259460000Y-36170000D03*
G04 #@! TO.P,J9,3*
G04 #@! TO.N,/vga/VGA_B*
X259460000Y-33880000D03*
G04 #@! TO.P,J9,2*
G04 #@! TO.N,/vga/VGA_G*
X259460000Y-31590000D03*
G04 #@! TO.P,J9,1*
G04 #@! TO.N,/vga/VGA_R*
X259460000Y-29300000D03*
D21*
G04 #@! TO.P,J9,0*
G04 #@! TO.N,SHIELD*
X262000000Y-21130000D03*
X262000000Y-46130000D03*
G04 #@! TD*
D22*
G04 #@! TO.P,C39,1*
G04 #@! TO.N,SHIELD*
X252540000Y-13380000D03*
D23*
G04 #@! TO.P,C39,2*
G04 #@! TO.N,GND*
X252540000Y-15880000D03*
G04 #@! TD*
D16*
G04 #@! TO.N,-12V*
G04 #@! TO.C,J4*
G36*
X200549505Y-99226204D02*
X200573773Y-99229804D01*
X200597572Y-99235765D01*
X200620671Y-99244030D01*
X200642850Y-99254520D01*
X200663893Y-99267132D01*
X200683599Y-99281747D01*
X200701777Y-99298223D01*
X200718253Y-99316401D01*
X200732868Y-99336107D01*
X200745480Y-99357150D01*
X200755970Y-99379329D01*
X200764235Y-99402428D01*
X200770196Y-99426227D01*
X200773796Y-99450495D01*
X200775000Y-99474999D01*
X200775000Y-100525001D01*
X200773796Y-100549505D01*
X200770196Y-100573773D01*
X200764235Y-100597572D01*
X200755970Y-100620671D01*
X200745480Y-100642850D01*
X200732868Y-100663893D01*
X200718253Y-100683599D01*
X200701777Y-100701777D01*
X200683599Y-100718253D01*
X200663893Y-100732868D01*
X200642850Y-100745480D01*
X200620671Y-100755970D01*
X200597572Y-100764235D01*
X200573773Y-100770196D01*
X200549505Y-100773796D01*
X200525001Y-100775000D01*
X199474999Y-100775000D01*
X199450495Y-100773796D01*
X199426227Y-100770196D01*
X199402428Y-100764235D01*
X199379329Y-100755970D01*
X199357150Y-100745480D01*
X199336107Y-100732868D01*
X199316401Y-100718253D01*
X199298223Y-100701777D01*
X199281747Y-100683599D01*
X199267132Y-100663893D01*
X199254520Y-100642850D01*
X199244030Y-100620671D01*
X199235765Y-100597572D01*
X199229804Y-100573773D01*
X199226204Y-100549505D01*
X199225000Y-100525001D01*
X199225000Y-99474999D01*
X199226204Y-99450495D01*
X199229804Y-99426227D01*
X199235765Y-99402428D01*
X199244030Y-99379329D01*
X199254520Y-99357150D01*
X199267132Y-99336107D01*
X199281747Y-99316401D01*
X199298223Y-99298223D01*
X199316401Y-99281747D01*
X199336107Y-99267132D01*
X199357150Y-99254520D01*
X199379329Y-99244030D01*
X199402428Y-99235765D01*
X199426227Y-99229804D01*
X199450495Y-99226204D01*
X199474999Y-99225000D01*
X200525001Y-99225000D01*
X200549505Y-99226204D01*
X200549505Y-99226204D01*
G37*
D24*
G04 #@! TD*
G04 #@! TO.P,J4,a1*
G04 #@! TO.N,-12V*
X200000000Y-100000000D03*
G04 #@! TO.P,J4,a2*
G04 #@! TO.N,SB0_5V*
X197460000Y-100000000D03*
G04 #@! TO.P,J4,a3*
G04 #@! TO.N,~SPV_5V*
X194920000Y-100000000D03*
G04 #@! TO.P,J4,a4*
G04 #@! TO.N,~SP_5V*
X192380000Y-100000000D03*
G04 #@! TO.P,J4,a5*
G04 #@! TO.N,~TM1_5V*
X189840000Y-100000000D03*
G04 #@! TO.P,J4,a6*
G04 #@! TO.N,~AD1_5V*
X187300000Y-100000000D03*
G04 #@! TO.P,J4,a7*
G04 #@! TO.N,~AD3_5V*
X184760000Y-100000000D03*
G04 #@! TO.P,J4,a8*
G04 #@! TO.N,~AD5_5V*
X182220000Y-100000000D03*
G04 #@! TO.P,J4,a9*
G04 #@! TO.N,~AD7_5V*
X179680000Y-100000000D03*
G04 #@! TO.P,J4,a10*
G04 #@! TO.N,~AD9_5V*
X177140000Y-100000000D03*
G04 #@! TO.P,J4,a11*
G04 #@! TO.N,~AD11_5V*
X174600000Y-100000000D03*
G04 #@! TO.P,J4,a12*
G04 #@! TO.N,~AD13_5V*
X172060000Y-100000000D03*
G04 #@! TO.P,J4,a13*
G04 #@! TO.N,~AD15_5V*
X169520000Y-100000000D03*
G04 #@! TO.P,J4,a14*
G04 #@! TO.N,~AD17_5V*
X166980000Y-100000000D03*
G04 #@! TO.P,J4,a15*
G04 #@! TO.N,~AD19_5V*
X164440000Y-100000000D03*
G04 #@! TO.P,J4,a16*
G04 #@! TO.N,~AD21_5V*
X161900000Y-100000000D03*
G04 #@! TO.P,J4,a17*
G04 #@! TO.N,~AD23_5V*
X159360000Y-100000000D03*
G04 #@! TO.P,J4,a18*
G04 #@! TO.N,~AD25_5V*
X156820000Y-100000000D03*
G04 #@! TO.P,J4,a19*
G04 #@! TO.N,~AD27_5V*
X154280000Y-100000000D03*
G04 #@! TO.P,J4,a20*
G04 #@! TO.N,~AD29_5V*
X151740000Y-100000000D03*
G04 #@! TO.P,J4,a21*
G04 #@! TO.N,~AD31_5V*
X149200000Y-100000000D03*
G04 #@! TO.P,J4,a22*
G04 #@! TO.N,GND*
X146660000Y-100000000D03*
G04 #@! TO.P,J4,a23*
X144120000Y-100000000D03*
G04 #@! TO.P,J4,a24*
G04 #@! TO.N,~ARB1_5V*
X141580000Y-100000000D03*
G04 #@! TO.P,J4,a25*
G04 #@! TO.N,~ARB3_5V*
X139040000Y-100000000D03*
G04 #@! TO.P,J4,a26*
G04 #@! TO.N,~ID1_5V*
X136500000Y-100000000D03*
G04 #@! TO.P,J4,a27*
G04 #@! TO.N,~ID3_5V*
X133960000Y-100000000D03*
G04 #@! TO.P,J4,a28*
G04 #@! TO.N,~ACK_5V*
X131420000Y-100000000D03*
G04 #@! TO.P,J4,a29*
G04 #@! TO.N,+5V*
X128880000Y-100000000D03*
G04 #@! TO.P,J4,a30*
G04 #@! TO.N,~RQST_5V*
X126340000Y-100000000D03*
G04 #@! TO.P,J4,a31*
G04 #@! TO.N,~NMRQ_5V*
X123800000Y-100000000D03*
G04 #@! TO.P,J4,a32*
G04 #@! TO.N,+12V*
X121260000Y-100000000D03*
G04 #@! TO.P,J4,b1*
G04 #@! TO.N,-12V*
X200000000Y-97460000D03*
G04 #@! TO.P,J4,b2*
G04 #@! TO.N,GND*
X197460000Y-97460000D03*
G04 #@! TO.P,J4,b3*
X194920000Y-97460000D03*
G04 #@! TO.P,J4,b4*
G04 #@! TO.N,+5V*
X192380000Y-97460000D03*
G04 #@! TO.P,J4,b5*
X189840000Y-97460000D03*
G04 #@! TO.P,J4,b6*
X187300000Y-97460000D03*
G04 #@! TO.P,J4,b7*
X184760000Y-97460000D03*
G04 #@! TO.P,J4,b8*
G04 #@! TO.N,~TM2_5V*
X182220000Y-97460000D03*
G04 #@! TO.P,J4,b9*
G04 #@! TO.N,~CM0_5V*
X179680000Y-97460000D03*
G04 #@! TO.P,J4,b10*
G04 #@! TO.N,~CM1_5V*
X177140000Y-97460000D03*
G04 #@! TO.P,J4,b11*
G04 #@! TO.N,~CM2_5V*
X174600000Y-97460000D03*
G04 #@! TO.P,J4,b12*
G04 #@! TO.N,GND*
X172060000Y-97460000D03*
G04 #@! TO.P,J4,b13*
X169520000Y-97460000D03*
G04 #@! TO.P,J4,b14*
X166980000Y-97460000D03*
G04 #@! TO.P,J4,b15*
X164440000Y-97460000D03*
G04 #@! TO.P,J4,b16*
X161900000Y-97460000D03*
G04 #@! TO.P,J4,b17*
X159360000Y-97460000D03*
G04 #@! TO.P,J4,b18*
X156820000Y-97460000D03*
G04 #@! TO.P,J4,b19*
X154280000Y-97460000D03*
G04 #@! TO.P,J4,b20*
X151740000Y-97460000D03*
G04 #@! TO.P,J4,b21*
X149200000Y-97460000D03*
G04 #@! TO.P,J4,b22*
X146660000Y-97460000D03*
G04 #@! TO.P,J4,b23*
X144120000Y-97460000D03*
G04 #@! TO.P,J4,b24*
G04 #@! TO.N,~CLK2X_5V*
X141580000Y-97460000D03*
G04 #@! TO.P,J4,b25*
G04 #@! TO.N,STDBYPWR*
X139040000Y-97460000D03*
G04 #@! TO.P,J4,b26*
G04 #@! TO.N,~CLK2XEN_5V*
X136500000Y-97460000D03*
G04 #@! TO.P,J4,b27*
G04 #@! TO.N,~CBUSY_5V*
X133960000Y-97460000D03*
G04 #@! TO.P,J4,b28*
G04 #@! TO.N,+5V*
X131420000Y-97460000D03*
G04 #@! TO.P,J4,b29*
X128880000Y-97460000D03*
G04 #@! TO.P,J4,b30*
G04 #@! TO.N,GND*
X126340000Y-97460000D03*
G04 #@! TO.P,J4,b31*
X123800000Y-97460000D03*
G04 #@! TO.P,J4,b32*
G04 #@! TO.N,+12V*
X121260000Y-97460000D03*
G04 #@! TO.P,J4,c1*
G04 #@! TO.N,~RESET_5V*
X200000000Y-94920000D03*
G04 #@! TO.P,J4,c2*
G04 #@! TO.N,SB1_5V*
X197460000Y-94920000D03*
G04 #@! TO.P,J4,c3*
G04 #@! TO.N,+5V*
X194920000Y-94920000D03*
G04 #@! TO.P,J4,c4*
X192380000Y-94920000D03*
G04 #@! TO.P,J4,c5*
G04 #@! TO.N,~TM0_5V*
X189840000Y-94920000D03*
G04 #@! TO.P,J4,c6*
G04 #@! TO.N,~AD0_5V*
X187300000Y-94920000D03*
G04 #@! TO.P,J4,c7*
G04 #@! TO.N,~AD2_5V*
X184760000Y-94920000D03*
G04 #@! TO.P,J4,c8*
G04 #@! TO.N,~AD4_5V*
X182220000Y-94920000D03*
G04 #@! TO.P,J4,c9*
G04 #@! TO.N,~AD6_5V*
X179680000Y-94920000D03*
G04 #@! TO.P,J4,c10*
G04 #@! TO.N,~AD8_5V*
X177140000Y-94920000D03*
G04 #@! TO.P,J4,c11*
G04 #@! TO.N,~AD10_5V*
X174600000Y-94920000D03*
G04 #@! TO.P,J4,c12*
G04 #@! TO.N,~AD12_5V*
X172060000Y-94920000D03*
G04 #@! TO.P,J4,c13*
G04 #@! TO.N,~AD14_5V*
X169520000Y-94920000D03*
G04 #@! TO.P,J4,c14*
G04 #@! TO.N,~AD16_5V*
X166980000Y-94920000D03*
G04 #@! TO.P,J4,c15*
G04 #@! TO.N,~AD18_5V*
X164440000Y-94920000D03*
G04 #@! TO.P,J4,c16*
G04 #@! TO.N,~AD20_5V*
X161900000Y-94920000D03*
G04 #@! TO.P,J4,c17*
G04 #@! TO.N,~AD22_5V*
X159360000Y-94920000D03*
G04 #@! TO.P,J4,c18*
G04 #@! TO.N,~AD24_5V*
X156820000Y-94920000D03*
G04 #@! TO.P,J4,c19*
G04 #@! TO.N,~AD26_5V*
X154280000Y-94920000D03*
G04 #@! TO.P,J4,c20*
G04 #@! TO.N,~AD28_5V*
X151740000Y-94920000D03*
G04 #@! TO.P,J4,c21*
G04 #@! TO.N,~AD30_5V*
X149200000Y-94920000D03*
G04 #@! TO.P,J4,c22*
G04 #@! TO.N,GND*
X146660000Y-94920000D03*
G04 #@! TO.P,J4,c23*
G04 #@! TO.N,~PFW_5V*
X144120000Y-94920000D03*
G04 #@! TO.P,J4,c24*
G04 #@! TO.N,~ARB0_5V*
X141580000Y-94920000D03*
G04 #@! TO.P,J4,c25*
G04 #@! TO.N,~ARB2_5V*
X139040000Y-94920000D03*
G04 #@! TO.P,J4,c26*
G04 #@! TO.N,~ID0_5V*
X136500000Y-94920000D03*
G04 #@! TO.P,J4,c27*
G04 #@! TO.N,~ID2_5V*
X133960000Y-94920000D03*
G04 #@! TO.P,J4,c28*
G04 #@! TO.N,~START_5V*
X131420000Y-94920000D03*
G04 #@! TO.P,J4,c29*
G04 #@! TO.N,+5V*
X128880000Y-94920000D03*
G04 #@! TO.P,J4,c30*
X126340000Y-94920000D03*
G04 #@! TO.P,J4,c31*
G04 #@! TO.N,GND*
X123800000Y-94920000D03*
G04 #@! TO.P,J4,c32*
G04 #@! TO.N,~CLK_5V*
X121260000Y-94920000D03*
G04 #@! TD*
D15*
G04 #@! TO.P,J3,6*
G04 #@! TO.N,Net-(J3-Pad6)*
X121900000Y-20800000D03*
G04 #@! TO.P,J3,5*
G04 #@! TO.N,/B2B/TX*
X121900000Y-23340000D03*
G04 #@! TO.P,J3,4*
G04 #@! TO.N,/B2B/RX*
X121900000Y-25880000D03*
G04 #@! TO.P,J3,3*
G04 #@! TO.N,Net-(J3-Pad3)*
X121900000Y-28420000D03*
G04 #@! TO.P,J3,2*
G04 #@! TO.N,Net-(J3-Pad2)*
X121900000Y-30960000D03*
D14*
G04 #@! TO.P,J3,1*
G04 #@! TO.N,GND*
X121900000Y-33500000D03*
G04 #@! TD*
D15*
G04 #@! TO.P,JAB1,64*
G04 #@! TO.N,GND*
X208740000Y-59210000D03*
G04 #@! TO.P,JAB1,63*
G04 #@! TO.N,/B2B/JTAG_VIO*
X208740000Y-61750000D03*
G04 #@! TO.P,JAB1,62*
G04 #@! TO.N,FPGA_JTAG_TCK*
X206200000Y-59210000D03*
G04 #@! TO.P,JAB1,61*
G04 #@! TO.N,FPGA_JTAG_TDI*
X206200000Y-61750000D03*
G04 #@! TO.P,JAB1,60*
G04 #@! TO.N,USBH0_D-*
X203660000Y-59210000D03*
G04 #@! TO.P,JAB1,59*
G04 #@! TO.N,USBH0_D+*
X203660000Y-61750000D03*
G04 #@! TO.P,JAB1,58*
G04 #@! TO.N,~AD0_3V3*
X201120000Y-59210000D03*
G04 #@! TO.P,JAB1,57*
G04 #@! TO.N,~AD1_3V3*
X201120000Y-61750000D03*
G04 #@! TO.P,JAB1,56*
G04 #@! TO.N,~AD2_3V3*
X198580000Y-59210000D03*
G04 #@! TO.P,JAB1,55*
G04 #@! TO.N,~AD3_3V3*
X198580000Y-61750000D03*
G04 #@! TO.P,JAB1,54*
G04 #@! TO.N,~AD4_3V3*
X196040000Y-59210000D03*
G04 #@! TO.P,JAB1,53*
G04 #@! TO.N,~AD5_3V3*
X196040000Y-61750000D03*
G04 #@! TO.P,JAB1,52*
G04 #@! TO.N,~AD6_3V3*
X193500000Y-59210000D03*
G04 #@! TO.P,JAB1,51*
G04 #@! TO.N,~AD7_3V3*
X193500000Y-61750000D03*
G04 #@! TO.P,JAB1,50*
G04 #@! TO.N,~AD8_3V3*
X190960000Y-59210000D03*
G04 #@! TO.P,JAB1,49*
G04 #@! TO.N,~AD9_3V3*
X190960000Y-61750000D03*
G04 #@! TO.P,JAB1,48*
G04 #@! TO.N,~AD10_3V3*
X188420000Y-59210000D03*
G04 #@! TO.P,JAB1,47*
G04 #@! TO.N,~AD11_3V3*
X188420000Y-61750000D03*
G04 #@! TO.P,JAB1,46*
G04 #@! TO.N,~AD12_3V3*
X185880000Y-59210000D03*
G04 #@! TO.P,JAB1,45*
G04 #@! TO.N,~AD13_3V3*
X185880000Y-61750000D03*
G04 #@! TO.P,JAB1,44*
G04 #@! TO.N,~AD14_3V3*
X183340000Y-59210000D03*
G04 #@! TO.P,JAB1,43*
G04 #@! TO.N,~AD15_3V3*
X183340000Y-61750000D03*
G04 #@! TO.P,JAB1,42*
G04 #@! TO.N,~AD16_3V3*
X180800000Y-59210000D03*
G04 #@! TO.P,JAB1,41*
G04 #@! TO.N,~AD17_3V3*
X180800000Y-61750000D03*
G04 #@! TO.P,JAB1,40*
G04 #@! TO.N,~AD18_3V3*
X178260000Y-59210000D03*
G04 #@! TO.P,JAB1,39*
G04 #@! TO.N,~AD19_3V3*
X178260000Y-61750000D03*
G04 #@! TO.P,JAB1,38*
G04 #@! TO.N,~AD20_3V3*
X175720000Y-59210000D03*
G04 #@! TO.P,JAB1,37*
G04 #@! TO.N,~AD21_3V3*
X175720000Y-61750000D03*
G04 #@! TO.P,JAB1,36*
G04 #@! TO.N,~AD22_3V3*
X173180000Y-59210000D03*
G04 #@! TO.P,JAB1,35*
G04 #@! TO.N,~AD23_3V3*
X173180000Y-61750000D03*
G04 #@! TO.P,JAB1,34*
G04 #@! TO.N,+3V3*
X170640000Y-59210000D03*
G04 #@! TO.P,JAB1,33*
X170640000Y-61750000D03*
G04 #@! TO.P,JAB1,32*
G04 #@! TO.N,GND*
X168100000Y-59210000D03*
G04 #@! TO.P,JAB1,31*
X168100000Y-61750000D03*
G04 #@! TO.P,JAB1,30*
G04 #@! TO.N,+3V3*
X165560000Y-59210000D03*
G04 #@! TO.P,JAB1,29*
X165560000Y-61750000D03*
G04 #@! TO.P,JAB1,28*
G04 #@! TO.N,~AD24_3V3*
X163020000Y-59210000D03*
G04 #@! TO.P,JAB1,27*
G04 #@! TO.N,NUBUS_OE*
X163020000Y-61750000D03*
G04 #@! TO.P,JAB1,26*
G04 #@! TO.N,~AD26_3V3*
X160480000Y-59210000D03*
G04 #@! TO.P,JAB1,25*
G04 #@! TO.N,~AD25_3V3*
X160480000Y-61750000D03*
G04 #@! TO.P,JAB1,24*
G04 #@! TO.N,~AD28_3V3*
X157940000Y-59210000D03*
G04 #@! TO.P,JAB1,23*
G04 #@! TO.N,~AD27_3V3*
X157940000Y-61750000D03*
G04 #@! TO.P,JAB1,22*
G04 #@! TO.N,~AD30_3V3*
X155400000Y-59210000D03*
G04 #@! TO.P,JAB1,21*
G04 #@! TO.N,~AD29_3V3*
X155400000Y-61750000D03*
G04 #@! TO.P,JAB1,20*
G04 #@! TO.N,~CLK_3V3*
X152860000Y-59210000D03*
G04 #@! TO.P,JAB1,19*
G04 #@! TO.N,~AD31_3V3*
X152860000Y-61750000D03*
G04 #@! TO.P,JAB1,18*
G04 #@! TO.N,NUBUS_AD_DIR*
X150320000Y-59210000D03*
G04 #@! TO.P,JAB1,17*
G04 #@! TO.N,~RESET_3V3*
X150320000Y-61750000D03*
G04 #@! TO.P,JAB1,16*
G04 #@! TO.N,fpga_to_cpld_signal_2*
X147780000Y-59210000D03*
G04 #@! TO.P,JAB1,15*
G04 #@! TO.N,NUBUS_MASTER_DIR*
X147780000Y-61750000D03*
G04 #@! TO.P,JAB1,14*
G04 #@! TO.N,fpga_to_cpld_clk*
X145240000Y-59210000D03*
G04 #@! TO.P,JAB1,13*
G04 #@! TO.N,fpga_to_cpld_signal*
X145240000Y-61750000D03*
G04 #@! TO.P,JAB1,12*
G04 #@! TO.N,ARB*
X142700000Y-59210000D03*
G04 #@! TO.P,JAB1,11*
G04 #@! TO.N,GRANT*
X142700000Y-61750000D03*
G04 #@! TO.P,JAB1,10*
G04 #@! TO.N,~ACK_3V3*
X140160000Y-59210000D03*
G04 #@! TO.P,JAB1,9*
G04 #@! TO.N,~START_3V3*
X140160000Y-61750000D03*
G04 #@! TO.P,JAB1,8*
G04 #@! TO.N,~TM1_3V3*
X137620000Y-59210000D03*
G04 #@! TO.P,JAB1,7*
G04 #@! TO.N,~TM0_3V3*
X137620000Y-61750000D03*
G04 #@! TO.P,JAB1,6*
G04 #@! TO.N,~NMRQ_3V3*
X135080000Y-59210000D03*
G04 #@! TO.P,JAB1,5*
G04 #@! TO.N,~RQST_3V3*
X135080000Y-61750000D03*
G04 #@! TO.P,JAB1,4*
G04 #@! TO.N,GND*
X132540000Y-59210000D03*
G04 #@! TO.P,JAB1,3*
X132540000Y-61750000D03*
G04 #@! TO.P,JAB1,2*
G04 #@! TO.N,+5V*
X130000000Y-59210000D03*
D14*
G04 #@! TO.P,JAB1,1*
X130000000Y-61750000D03*
G04 #@! TD*
D25*
G04 #@! TO.N,GND*
X137500000Y-89312500D03*
X256220000Y-61875000D03*
X128980000Y-79260000D03*
X246250000Y-22250000D03*
X252900000Y-82730000D03*
X256000000Y-31500000D03*
X251500000Y-23100000D03*
X252380000Y-61875000D03*
X256000000Y-33300000D03*
X262640000Y-79355000D03*
X149900000Y-71000000D03*
X117200000Y-84780000D03*
X189500000Y-71000000D03*
X243770000Y-35180000D03*
X125750000Y-73500000D03*
X115200000Y-87480000D03*
X145400000Y-88100000D03*
X255250000Y-27250000D03*
X242870000Y-30170000D03*
X248840000Y-40287500D03*
X139300000Y-87450000D03*
X155357500Y-79750000D03*
X148200000Y-86800000D03*
X141650000Y-14352500D03*
X256010000Y-87920000D03*
X127100000Y-70212500D03*
X179857500Y-79750000D03*
X115200000Y-90730000D03*
X263200000Y-67357500D03*
X145300000Y-90050000D03*
X224140000Y-96000000D03*
X248670000Y-34670001D03*
X146500000Y-80800000D03*
X194857500Y-79750000D03*
X168357500Y-79750000D03*
X163000000Y-71000000D03*
X137200000Y-72100000D03*
X267730000Y-79355000D03*
X267720000Y-77180000D03*
X233600000Y-36600000D03*
X267000000Y-65550000D03*
X140550000Y-75950000D03*
X174500000Y-71000000D03*
X135152523Y-83900000D03*
X247020000Y-29510000D03*
X267000000Y-58050000D03*
X255500000Y-58625000D03*
X255040000Y-53812500D03*
X248890000Y-16170000D03*
X115200000Y-89430000D03*
X186450000Y-79750000D03*
X183600000Y-71000000D03*
X116300000Y-16437500D03*
X246062500Y-59100000D03*
X267000000Y-61050000D03*
G04 #@! TO.N,+3V3*
X256000000Y-22250000D03*
X140112500Y-65000000D03*
X143500000Y-77950000D03*
X127250000Y-71787500D03*
X252000000Y-33000000D03*
X117503601Y-60080000D03*
X117503601Y-52370000D03*
X256000000Y-29500000D03*
X248080000Y-63750000D03*
X117503601Y-57330000D03*
X161750000Y-73687500D03*
X222537500Y-59000000D03*
X148750000Y-73687500D03*
X257550000Y-55387500D03*
X173300000Y-73700000D03*
X160287500Y-20250000D03*
X241210000Y-35980000D03*
X246800000Y-26300000D03*
X118665134Y-45500000D03*
X118665134Y-39500000D03*
X137500000Y-90887500D03*
X245550000Y-57975000D03*
X136727523Y-83900000D03*
X188250000Y-73687500D03*
X161000000Y-14700000D03*
X121200000Y-84780000D03*
X181250000Y-73687500D03*
X116300000Y-11212500D03*
X182100000Y-87100000D03*
X118300000Y-79800000D03*
X115812500Y-82500000D03*
X126287500Y-82100000D03*
X143787500Y-86100000D03*
X140387500Y-83700000D03*
G04 #@! TO.N,+5V*
X253850000Y-87660000D03*
X246230000Y-61872500D03*
X131697842Y-88000000D03*
X129897842Y-88000000D03*
X128097842Y-88000000D03*
X133421568Y-88014972D03*
X220840000Y-97970000D03*
G04 #@! TO.N,~RESET_5V*
X146000000Y-74450000D03*
G04 #@! TO.N,~TM1_5V*
X140500000Y-78000000D03*
X183850000Y-85000000D03*
G04 #@! TO.N,~TM2_5V*
X186900000Y-73800000D03*
X134960000Y-80370000D03*
X179800000Y-84200000D03*
G04 #@! TO.N,~TM0_5V*
X139750000Y-77000000D03*
X185800000Y-85000000D03*
G04 #@! TO.N,~ID3_3V3*
X125600000Y-38077042D03*
G04 #@! TO.N,~ID2_3V3*
X125600000Y-41043708D03*
G04 #@! TO.N,~ID1_3V3*
X125600000Y-44010374D03*
G04 #@! TO.N,~ID0_3V3*
X125600000Y-46977042D03*
G04 #@! TO.N,~CLK2X_5V*
X132920000Y-80370000D03*
G04 #@! TO.N,~START_3V3*
X132600000Y-73600000D03*
G04 #@! TO.N,~ACK_3V3*
X125750000Y-52344020D03*
X134000000Y-72250000D03*
G04 #@! TO.N,~RESET_3V3*
X154562500Y-13200000D03*
G04 #@! TO.N,~TM0_3V3*
X126000000Y-57330000D03*
G04 #@! TO.N,~TM1_3V3*
X126000000Y-60080000D03*
G04 #@! TO.N,FPGA_VGA_HS*
X252000000Y-35100000D03*
G04 #@! TO.N,FPGA_VGA_VS*
X252000000Y-36900000D03*
G04 #@! TO.N,HDMI_5V*
X255920000Y-63320000D03*
X260760000Y-65782500D03*
G04 #@! TO.N,ARB*
X153300000Y-18750000D03*
G04 #@! TO.N,NUBUS_AD_DIR*
X147500000Y-74750000D03*
G04 #@! TO.N,CPLD_JTAG_TDI*
X134750000Y-76600000D03*
G04 #@! TO.N,CPLD_JTAG_TDO*
X135850000Y-77300000D03*
G04 #@! TO.N,CPLD_JTAG_TMS*
X138450000Y-78900000D03*
G04 #@! TO.N,CPLD_JTAG_TCK*
X137050000Y-78000000D03*
G04 #@! TO.N,fpga_to_cpld_clk*
X131900000Y-79450000D03*
G04 #@! TO.N,GRANT*
X153300000Y-22000000D03*
G04 #@! TO.N,fpga_to_cpld_signal*
X136000000Y-72770000D03*
G04 #@! TO.N,TMx_oe_n*
X144450000Y-74800000D03*
X182550000Y-79750000D03*
G04 #@! TO.N,TM1_n_o*
X183200000Y-82900000D03*
X144450000Y-76800000D03*
G04 #@! TO.N,TM0_n_o*
X144450000Y-75800000D03*
X185150000Y-82900000D03*
G04 #@! TO.N,TM2_o_n*
X150050000Y-69860000D03*
X185800000Y-73100000D03*
G04 #@! TO.N,TM2_oe_n*
X136280000Y-80360000D03*
X184700000Y-73800000D03*
X148400000Y-72400000D03*
G04 #@! TD*
D26*
G04 #@! TO.N,/B2B/JTAG_VIO*
X209589999Y-60900001D02*
X208740000Y-61750000D01*
X222921399Y-34808601D02*
X222921399Y-47568601D01*
X222921399Y-47568601D02*
X209589999Y-60900001D01*
X228230000Y-29500000D02*
X222921399Y-34808601D01*
D27*
G04 #@! TO.N,+5V*
X189840000Y-97460000D02*
X192380000Y-97460000D01*
D28*
X128880000Y-100000000D02*
X128880000Y-101096015D01*
X128880000Y-101096015D02*
X130633985Y-102850000D01*
X130633985Y-102850000D02*
X131730000Y-102850000D01*
D29*
X184760000Y-97460000D02*
X183500000Y-98720000D01*
D27*
X187300000Y-97460000D02*
X184760000Y-97460000D01*
X192380000Y-94920000D02*
X192380000Y-97460000D01*
X194920000Y-94920000D02*
X192380000Y-94920000D01*
X130000000Y-61750000D02*
X128998000Y-61750000D01*
D28*
X123050000Y-67697600D02*
X123050000Y-86540000D01*
X123050000Y-89750000D02*
X124930000Y-91630000D01*
X123050000Y-88000000D02*
X123050000Y-89750000D01*
X123050000Y-86540000D02*
X123050000Y-88000000D01*
D30*
X243540000Y-97970000D02*
X253850000Y-87660000D01*
X220840000Y-97970000D02*
X243540000Y-97970000D01*
D31*
X241617500Y-61872500D02*
X205520000Y-97970000D01*
X246230000Y-61872500D02*
X241617500Y-61872500D01*
D30*
X220840000Y-97970000D02*
X205520000Y-97970000D01*
D27*
X126340000Y-94920000D02*
X126340000Y-93040000D01*
D28*
X126340000Y-93040000D02*
X124930000Y-91630000D01*
X127897927Y-62850000D02*
X123050000Y-67697600D01*
X128998000Y-61750000D02*
X127897927Y-62850000D01*
D32*
X130000000Y-61750000D02*
X130000000Y-59210000D01*
D30*
X128998000Y-61750000D02*
X128998000Y-59252000D01*
X129040000Y-59210000D02*
X130000000Y-59210000D01*
X128998000Y-59252000D02*
X129040000Y-59210000D01*
X200640000Y-102850000D02*
X205520000Y-97970000D01*
D26*
X183500000Y-102800000D02*
X183450000Y-102850000D01*
D29*
X183500000Y-98720000D02*
X183500000Y-102800000D01*
D30*
X193650000Y-102850000D02*
X200640000Y-102850000D01*
D29*
X193650000Y-98730000D02*
X192380000Y-97460000D01*
D26*
X131712814Y-88014972D02*
X131697842Y-88000000D01*
X133421568Y-88014972D02*
X131712814Y-88014972D01*
X131697842Y-88000000D02*
X129897842Y-88000000D01*
X129897842Y-88000000D02*
X128097842Y-88000000D01*
X124930000Y-91167842D02*
X124930000Y-91630000D01*
X128097842Y-88000000D02*
X124930000Y-91167842D01*
D27*
X128880000Y-97460000D02*
X131420000Y-97460000D01*
X128880000Y-97460000D02*
X128880000Y-100000000D01*
X128880000Y-94920000D02*
X128880000Y-97460000D01*
D29*
X193650000Y-101600000D02*
X193650000Y-98730000D01*
X193650000Y-101600000D02*
X193650000Y-102850000D01*
X187300000Y-97460000D02*
X186025000Y-98735000D01*
D26*
X186025000Y-102825000D02*
X186050000Y-102850000D01*
D29*
X186025000Y-98735000D02*
X186025000Y-102825000D01*
D28*
X183450000Y-102850000D02*
X186050000Y-102850000D01*
D29*
X189840000Y-97460000D02*
X191100000Y-98720000D01*
X191100000Y-98720000D02*
X191100000Y-102650000D01*
D26*
X191100000Y-102650000D02*
X191300000Y-102850000D01*
D28*
X191300000Y-102850000D02*
X193650000Y-102850000D01*
D27*
X188396015Y-97460000D02*
X189840000Y-97460000D01*
X187300000Y-97460000D02*
X188396015Y-97460000D01*
D26*
X188575000Y-97638985D02*
X188396015Y-97460000D01*
D29*
X188575000Y-102850000D02*
X188575000Y-97638985D01*
D28*
X186050000Y-102850000D02*
X188575000Y-102850000D01*
X188575000Y-102850000D02*
X191300000Y-102850000D01*
D29*
X132675000Y-98715000D02*
X132675000Y-102850000D01*
X131420000Y-97460000D02*
X132675000Y-98715000D01*
D28*
X132675000Y-102850000D02*
X131730000Y-102850000D01*
X183450000Y-102850000D02*
X132675000Y-102850000D01*
D27*
X127600000Y-94920000D02*
X128880000Y-94920000D01*
X126340000Y-94920000D02*
X127600000Y-94920000D01*
X127000000Y-93040000D02*
X126340000Y-93040000D01*
D26*
X127585000Y-93675000D02*
X127635000Y-93675000D01*
D27*
X127635000Y-93675000D02*
X127000000Y-93040000D01*
X126340000Y-94920000D02*
X127585000Y-93675000D01*
X128880000Y-94920000D02*
X127635000Y-93675000D01*
D33*
G04 #@! TO.N,-12V*
X200000000Y-99125000D02*
X200000000Y-97460000D01*
X200000000Y-100000000D02*
X200000000Y-99125000D01*
D26*
G04 #@! TO.N,~RESET_5V*
X196580000Y-91500000D02*
X200000000Y-94920000D01*
X181229999Y-76149999D02*
X196580000Y-91500000D01*
X147699999Y-76149999D02*
X181229999Y-76149999D01*
X146000000Y-74450000D02*
X147699999Y-76149999D01*
G04 #@! TO.N,~TM1_5V*
X141078601Y-78578601D02*
X176218601Y-78578601D01*
X140500000Y-78000000D02*
X141078601Y-78578601D01*
X182640000Y-85000000D02*
X183850000Y-85000000D01*
X176218601Y-78578601D02*
X182640000Y-85000000D01*
D34*
G04 #@! TO.N,+12V*
X121260000Y-97460000D02*
X121260000Y-100000000D01*
D26*
G04 #@! TO.N,~TM2_5V*
X136590000Y-82000000D02*
X177600000Y-82000000D01*
X134960000Y-80370000D02*
X136590000Y-82000000D01*
X177600000Y-82000000D02*
X179800000Y-84200000D01*
X180900000Y-96140000D02*
X182220000Y-97460000D01*
X180900000Y-85300000D02*
X180900000Y-96140000D01*
X179800000Y-84200000D02*
X180900000Y-85300000D01*
G04 #@! TO.N,~TM0_5V*
X190614999Y-89814999D02*
X186199999Y-85399999D01*
X190614999Y-94145001D02*
X190614999Y-89814999D01*
X186199999Y-85399999D02*
X185800000Y-85000000D01*
X189840000Y-94920000D02*
X190614999Y-94145001D01*
X184328601Y-83528601D02*
X185800000Y-85000000D01*
X182028601Y-83528601D02*
X184328601Y-83528601D01*
X139750000Y-77000000D02*
X143719670Y-77000000D01*
X143719670Y-77000000D02*
X144399670Y-77680000D01*
X144399670Y-77680000D02*
X176180000Y-77680000D01*
X176180000Y-77680000D02*
X182028601Y-83528601D01*
G04 #@! TO.N,~ID3_3V3*
X129542958Y-38077042D02*
X137620000Y-30000000D01*
X125600000Y-38077042D02*
X129542958Y-38077042D01*
G04 #@! TO.N,~ID2_3V3*
X138469999Y-28309999D02*
X137620000Y-27460000D01*
X125600000Y-41043708D02*
X128172622Y-41043708D01*
X128172622Y-41043708D02*
X138698601Y-30517729D01*
X138698601Y-30517729D02*
X138698601Y-28538601D01*
X138698601Y-28538601D02*
X138469999Y-28309999D01*
G04 #@! TO.N,~ID1_3V3*
X139081399Y-28538601D02*
X139310001Y-28309999D01*
X139081399Y-30565997D02*
X139081399Y-28538601D01*
X126037021Y-43610375D02*
X139081399Y-30565997D01*
X125999999Y-43610375D02*
X126037021Y-43610375D01*
X139310001Y-28309999D02*
X140160000Y-27460000D01*
X125600000Y-44010374D02*
X125999999Y-43610375D01*
G04 #@! TO.N,~ID0_3V3*
X140160000Y-32417042D02*
X140160000Y-30000000D01*
X125600000Y-46977042D02*
X140160000Y-32417042D01*
G04 #@! TO.N,~CLK2X_5V*
X132920000Y-80370000D02*
X132920000Y-83920000D01*
X132920000Y-83920000D02*
X135300000Y-86300000D01*
X140805001Y-96685001D02*
X141580000Y-97460000D01*
X140576399Y-96456399D02*
X140805001Y-96685001D01*
X139056399Y-96456399D02*
X140576399Y-96456399D01*
X138036399Y-95436399D02*
X139056399Y-96456399D01*
X138036399Y-94971069D02*
X138036399Y-95436399D01*
X135300000Y-92234670D02*
X138036399Y-94971069D01*
X135300000Y-86300000D02*
X135300000Y-92234670D01*
G04 #@! TO.N,~START_3V3*
X132600000Y-69310000D02*
X140160000Y-61750000D01*
X132600000Y-73600000D02*
X132600000Y-69310000D01*
G04 #@! TO.N,~ACK_3V3*
X133294020Y-52344020D02*
X140160000Y-59210000D01*
X125750000Y-52344020D02*
X133294020Y-52344020D01*
X141238601Y-60288601D02*
X141009999Y-60059999D01*
X141238601Y-62943569D02*
X141238601Y-60288601D01*
X134000000Y-70182170D02*
X141238601Y-62943569D01*
X134000000Y-72250000D02*
X134000000Y-70182170D01*
X141009999Y-60059999D02*
X140160000Y-59210000D01*
G04 #@! TO.N,~RESET_3V3*
X151169999Y-60900001D02*
X150320000Y-61750000D01*
X151703411Y-60366589D02*
X151169999Y-60900001D01*
X151703411Y-27020259D02*
X151703411Y-60366589D01*
X153928601Y-24795069D02*
X151703411Y-27020259D01*
X153928601Y-13833899D02*
X153928601Y-24795069D01*
X154562500Y-13200000D02*
X153928601Y-13833899D01*
G04 #@! TO.N,~TM0_3V3*
X138469999Y-60900001D02*
X137620000Y-61750000D01*
X138698601Y-60671399D02*
X138469999Y-60900001D01*
X138698601Y-58692271D02*
X138698601Y-60671399D01*
X137336330Y-57330000D02*
X138698601Y-58692271D01*
X126000000Y-57330000D02*
X137336330Y-57330000D01*
G04 #@! TO.N,~TM1_3V3*
X136770001Y-58360001D02*
X137620000Y-59210000D01*
X136541399Y-58131399D02*
X136770001Y-58360001D01*
X126000000Y-60080000D02*
X128280000Y-57800000D01*
X136210000Y-57800000D02*
X137620000Y-59210000D01*
X128280000Y-57800000D02*
X136210000Y-57800000D01*
G04 #@! TO.N,FPGA_VGA_HS*
X241166257Y-25345191D02*
X250921066Y-35100000D01*
X154974809Y-25345191D02*
X241166257Y-25345191D01*
X250921066Y-35100000D02*
X252000000Y-35100000D01*
X152860000Y-27460000D02*
X154974809Y-25345191D01*
G04 #@! TO.N,FPGA_VGA_VS*
X156249999Y-26610001D02*
X155400000Y-27460000D01*
X156430000Y-26430000D02*
X157210000Y-25650000D01*
X156430000Y-26430000D02*
X156249999Y-26610001D01*
X156508600Y-26351400D02*
X156430000Y-26430000D01*
X240750000Y-25650000D02*
X252000000Y-36900000D01*
X157210000Y-25650000D02*
X240750000Y-25650000D01*
G04 #@! TO.N,ARB*
X143549999Y-58360001D02*
X142700000Y-59210000D01*
X149241399Y-52668601D02*
X143549999Y-58360001D01*
X149241399Y-22808601D02*
X149241399Y-52668601D01*
X153300000Y-18750000D02*
X149241399Y-22808601D01*
G04 #@! TO.N,NUBUS_AD_DIR*
X150320000Y-59210000D02*
X149241399Y-60288601D01*
X147500000Y-74750000D02*
X147500000Y-65000000D01*
X147500000Y-65000000D02*
X149100000Y-63400000D01*
X149100000Y-60430000D02*
X149241399Y-60288601D01*
X149100000Y-63400000D02*
X149100000Y-60430000D01*
G04 #@! TO.N,FPGA_JTAG_TCK*
X206200000Y-47530000D02*
X224230000Y-29500000D01*
X206200000Y-59210000D02*
X206200000Y-47530000D01*
G04 #@! TO.N,FPGA_JTAG_TDI*
X205350001Y-60900001D02*
X206200000Y-61750000D01*
X205121399Y-60671399D02*
X205350001Y-60900001D01*
X205121399Y-44608601D02*
X205121399Y-60671399D01*
X220230000Y-29500000D02*
X205121399Y-44608601D01*
G04 #@! TO.N,FPGA_JTAG_TMS*
X206200000Y-27460000D02*
X207340000Y-28600000D01*
X225555001Y-28825001D02*
X226230000Y-29500000D01*
X207343601Y-28596399D02*
X225326399Y-28596399D01*
X225326399Y-28596399D02*
X225555001Y-28825001D01*
X207340000Y-28600000D02*
X207343601Y-28596399D01*
G04 #@! TO.N,fpga_to_cpld_clk*
X146318601Y-60288601D02*
X145240000Y-59210000D01*
X146318601Y-64101069D02*
X146318601Y-60288601D01*
X131900000Y-78519670D02*
X146318601Y-64101069D01*
X131900000Y-79450000D02*
X131900000Y-78519670D01*
G04 #@! TO.N,GRANT*
X143778601Y-60671399D02*
X142700000Y-61750000D01*
X143778601Y-58562465D02*
X143778601Y-60671399D01*
X149546209Y-52794857D02*
X143778601Y-58562465D01*
X153300000Y-22000000D02*
X151398601Y-23901399D01*
X151398601Y-23901399D02*
X151398601Y-30831399D01*
X151398601Y-30831399D02*
X149546209Y-32683791D01*
X149546209Y-32683791D02*
X149546209Y-52794857D01*
G04 #@! TO.N,fpga_to_cpld_signal*
X144390001Y-62599999D02*
X145240000Y-61750000D01*
X136000000Y-72770000D02*
X136000000Y-71559670D01*
X144390001Y-63169669D02*
X144390001Y-62599999D01*
X136000000Y-71559670D02*
X144390001Y-63169669D01*
G04 #@! TO.N,TMx_oe_n*
X179254809Y-76454809D02*
X147004809Y-76454809D01*
X182550000Y-79750000D02*
X179254809Y-76454809D01*
X145350000Y-74800000D02*
X144450000Y-74800000D01*
X147004809Y-76454809D02*
X145350000Y-74800000D01*
G04 #@! TO.N,TM1_n_o*
X144849999Y-77199999D02*
X144450000Y-76800000D01*
X176177171Y-77199999D02*
X144849999Y-77199999D01*
X181877172Y-82900000D02*
X176177171Y-77199999D01*
X183200000Y-82900000D02*
X181877172Y-82900000D01*
G04 #@! TO.N,TM0_n_o*
X185150000Y-82900000D02*
X182628601Y-80378601D01*
X178181018Y-76759619D02*
X181800000Y-80378601D01*
X145409619Y-76759619D02*
X178181018Y-76759619D01*
X144450000Y-75800000D02*
X145409619Y-76759619D01*
X182628601Y-80378601D02*
X181800000Y-80378601D01*
G04 #@! TO.N,TM2_o_n*
X185800000Y-72269670D02*
X185800000Y-72534315D01*
X183390330Y-69860000D02*
X185800000Y-72269670D01*
X185800000Y-72534315D02*
X185800000Y-73100000D01*
X150050000Y-69860000D02*
X183390330Y-69860000D01*
G04 #@! TO.N,TM2_oe_n*
X184134315Y-73800000D02*
X184700000Y-73800000D01*
X148400000Y-72400000D02*
X148965685Y-72400000D01*
X148965685Y-72400000D02*
X151944286Y-75378601D01*
X151944286Y-75378601D02*
X182555714Y-75378601D01*
X182555714Y-75378601D02*
X184134315Y-73800000D01*
G04 #@! TD*
M02*
