G04 #@! TF.GenerationSoftware,KiCad,Pcbnew,5.0.2+dfsg1-1~bpo9+1*
G04 #@! TF.CreationDate,2021-12-20T11:51:13+01:00*
G04 #@! TF.ProjectId,nubus-to-ztex,6e756275-732d-4746-9f2d-7a7465782e6b,rev?*
G04 #@! TF.SameCoordinates,Original*
G04 #@! TF.FileFunction,Copper,L3,Inr*
G04 #@! TF.FilePolarity,Positive*
%FSLAX46Y46*%
G04 Gerber Fmt 4.6, Leading zero omitted, Abs format (unit mm)*
G04 Created by KiCad (PCBNEW 5.0.2+dfsg1-1~bpo9+1) date Mon Dec 20 11:51:13 2021*
%MOMM*%
%LPD*%
G01*
G04 APERTURE LIST*
G04 #@! TA.AperFunction,Conductor*
%ADD10C,0.100000*%
G04 #@! TD*
G04 #@! TA.AperFunction,ViaPad*
%ADD11C,1.740000*%
G04 #@! TD*
G04 #@! TA.AperFunction,ViaPad*
%ADD12O,2.200000X1.740000*%
G04 #@! TD*
G04 #@! TA.AperFunction,ViaPad*
%ADD13C,1.450000*%
G04 #@! TD*
G04 #@! TA.AperFunction,ViaPad*
%ADD14O,1.900000X1.200000*%
G04 #@! TD*
G04 #@! TA.AperFunction,ViaPad*
%ADD15R,1.700000X1.700000*%
G04 #@! TD*
G04 #@! TA.AperFunction,ViaPad*
%ADD16O,1.700000X1.700000*%
G04 #@! TD*
G04 #@! TA.AperFunction,ViaPad*
%ADD17R,1.350000X1.350000*%
G04 #@! TD*
G04 #@! TA.AperFunction,ViaPad*
%ADD18O,1.350000X1.350000*%
G04 #@! TD*
G04 #@! TA.AperFunction,ViaPad*
%ADD19O,1.740000X2.200000*%
G04 #@! TD*
G04 #@! TA.AperFunction,ViaPad*
%ADD20C,2.000000*%
G04 #@! TD*
G04 #@! TA.AperFunction,ViaPad*
%ADD21C,1.500000*%
G04 #@! TD*
G04 #@! TA.AperFunction,ViaPad*
%ADD22C,3.500000*%
G04 #@! TD*
G04 #@! TA.AperFunction,ViaPad*
%ADD23R,1.600000X1.600000*%
G04 #@! TD*
G04 #@! TA.AperFunction,ViaPad*
%ADD24C,1.600000*%
G04 #@! TD*
G04 #@! TA.AperFunction,ViaPad*
%ADD25C,1.550000*%
G04 #@! TD*
G04 #@! TA.AperFunction,ViaPad*
%ADD26C,0.800000*%
G04 #@! TD*
G04 #@! TA.AperFunction,Conductor*
%ADD27C,0.800000*%
G04 #@! TD*
G04 #@! TA.AperFunction,Conductor*
%ADD28C,0.152400*%
G04 #@! TD*
G04 #@! TA.AperFunction,Conductor*
%ADD29C,0.250000*%
G04 #@! TD*
G04 #@! TA.AperFunction,Conductor*
%ADD30C,1.000000*%
G04 #@! TD*
G04 #@! TA.AperFunction,Conductor*
%ADD31C,0.500000*%
G04 #@! TD*
G04 #@! TA.AperFunction,Conductor*
%ADD32C,0.650000*%
G04 #@! TD*
G04 #@! TA.AperFunction,Conductor*
%ADD33C,1.500000*%
G04 #@! TD*
G04 #@! TA.AperFunction,Conductor*
%ADD34C,0.254000*%
G04 #@! TD*
G04 APERTURE END LIST*
D10*
G04 #@! TO.N,GND*
G04 #@! TO.C,J10*
G36*
X116074505Y-86931204D02*
X116098773Y-86934804D01*
X116122572Y-86940765D01*
X116145671Y-86949030D01*
X116167850Y-86959520D01*
X116188893Y-86972132D01*
X116208599Y-86986747D01*
X116226777Y-87003223D01*
X116243253Y-87021401D01*
X116257868Y-87041107D01*
X116270480Y-87062150D01*
X116280970Y-87084329D01*
X116289235Y-87107428D01*
X116295196Y-87131227D01*
X116298796Y-87155495D01*
X116300000Y-87179999D01*
X116300000Y-88420001D01*
X116298796Y-88444505D01*
X116295196Y-88468773D01*
X116289235Y-88492572D01*
X116280970Y-88515671D01*
X116270480Y-88537850D01*
X116257868Y-88558893D01*
X116243253Y-88578599D01*
X116226777Y-88596777D01*
X116208599Y-88613253D01*
X116188893Y-88627868D01*
X116167850Y-88640480D01*
X116145671Y-88650970D01*
X116122572Y-88659235D01*
X116098773Y-88665196D01*
X116074505Y-88668796D01*
X116050001Y-88670000D01*
X114349999Y-88670000D01*
X114325495Y-88668796D01*
X114301227Y-88665196D01*
X114277428Y-88659235D01*
X114254329Y-88650970D01*
X114232150Y-88640480D01*
X114211107Y-88627868D01*
X114191401Y-88613253D01*
X114173223Y-88596777D01*
X114156747Y-88578599D01*
X114142132Y-88558893D01*
X114129520Y-88537850D01*
X114119030Y-88515671D01*
X114110765Y-88492572D01*
X114104804Y-88468773D01*
X114101204Y-88444505D01*
X114100000Y-88420001D01*
X114100000Y-87179999D01*
X114101204Y-87155495D01*
X114104804Y-87131227D01*
X114110765Y-87107428D01*
X114119030Y-87084329D01*
X114129520Y-87062150D01*
X114142132Y-87041107D01*
X114156747Y-87021401D01*
X114173223Y-87003223D01*
X114191401Y-86986747D01*
X114211107Y-86972132D01*
X114232150Y-86959520D01*
X114254329Y-86949030D01*
X114277428Y-86940765D01*
X114301227Y-86934804D01*
X114325495Y-86931204D01*
X114349999Y-86930000D01*
X116050001Y-86930000D01*
X116074505Y-86931204D01*
X116074505Y-86931204D01*
G37*
D11*
X115200000Y-87800000D03*
D12*
G04 #@! TO.N,+12V*
X115200000Y-85260000D03*
G04 #@! TO.N,GND*
X115200000Y-82720000D03*
G04 #@! TD*
D13*
G04 #@! TO.N,SHIELD*
G04 #@! TO.C,J6*
X269197500Y-81570000D03*
X269197500Y-76570000D03*
D14*
X271897500Y-82570000D03*
X271897500Y-75570000D03*
G04 #@! TD*
D15*
G04 #@! TO.N,+3V3*
G04 #@! TO.C,J9*
X202830000Y-79080000D03*
D16*
G04 #@! TO.N,GND*
X205370000Y-79080000D03*
G04 #@! TD*
D17*
G04 #@! TO.N,GND*
G04 #@! TO.C,J8*
X116600000Y-75800000D03*
D18*
G04 #@! TO.N,+3V3*
X114600000Y-75800000D03*
G04 #@! TO.N,GND*
X116600000Y-73800000D03*
G04 #@! TO.N,CPLD_JTAG_TMS*
X114600000Y-73800000D03*
G04 #@! TO.N,GND*
X116600000Y-71800000D03*
G04 #@! TO.N,CPLD_JTAG_TCK*
X114600000Y-71800000D03*
G04 #@! TO.N,GND*
X116600000Y-69800000D03*
G04 #@! TO.N,CPLD_JTAG_TDO*
X114600000Y-69800000D03*
G04 #@! TO.N,GND*
X116600000Y-67800000D03*
G04 #@! TO.N,CPLD_JTAG_TDI*
X114600000Y-67800000D03*
G04 #@! TO.N,GND*
X116600000Y-65800000D03*
G04 #@! TO.N,Net-(J8-Pad12)*
X114600000Y-65800000D03*
G04 #@! TO.N,GND*
X116600000Y-63800000D03*
G04 #@! TO.N,Net-(J8-Pad14)*
X114600000Y-63800000D03*
G04 #@! TD*
D10*
G04 #@! TO.N,GND*
G04 #@! TO.C,J7*
G36*
X218884505Y-90171204D02*
X218908773Y-90174804D01*
X218932572Y-90180765D01*
X218955671Y-90189030D01*
X218977850Y-90199520D01*
X218998893Y-90212132D01*
X219018599Y-90226747D01*
X219036777Y-90243223D01*
X219053253Y-90261401D01*
X219067868Y-90281107D01*
X219080480Y-90302150D01*
X219090970Y-90324329D01*
X219099235Y-90347428D01*
X219105196Y-90371227D01*
X219108796Y-90395495D01*
X219110000Y-90419999D01*
X219110000Y-92120001D01*
X219108796Y-92144505D01*
X219105196Y-92168773D01*
X219099235Y-92192572D01*
X219090970Y-92215671D01*
X219080480Y-92237850D01*
X219067868Y-92258893D01*
X219053253Y-92278599D01*
X219036777Y-92296777D01*
X219018599Y-92313253D01*
X218998893Y-92327868D01*
X218977850Y-92340480D01*
X218955671Y-92350970D01*
X218932572Y-92359235D01*
X218908773Y-92365196D01*
X218884505Y-92368796D01*
X218860001Y-92370000D01*
X217619999Y-92370000D01*
X217595495Y-92368796D01*
X217571227Y-92365196D01*
X217547428Y-92359235D01*
X217524329Y-92350970D01*
X217502150Y-92340480D01*
X217481107Y-92327868D01*
X217461401Y-92313253D01*
X217443223Y-92296777D01*
X217426747Y-92278599D01*
X217412132Y-92258893D01*
X217399520Y-92237850D01*
X217389030Y-92215671D01*
X217380765Y-92192572D01*
X217374804Y-92168773D01*
X217371204Y-92144505D01*
X217370000Y-92120001D01*
X217370000Y-90419999D01*
X217371204Y-90395495D01*
X217374804Y-90371227D01*
X217380765Y-90347428D01*
X217389030Y-90324329D01*
X217399520Y-90302150D01*
X217412132Y-90281107D01*
X217426747Y-90261401D01*
X217443223Y-90243223D01*
X217461401Y-90226747D01*
X217481107Y-90212132D01*
X217502150Y-90199520D01*
X217524329Y-90189030D01*
X217547428Y-90180765D01*
X217571227Y-90174804D01*
X217595495Y-90171204D01*
X217619999Y-90170000D01*
X218860001Y-90170000D01*
X218884505Y-90171204D01*
X218884505Y-90171204D01*
G37*
D11*
X218240000Y-91270000D03*
D19*
G04 #@! TO.N,+5V*
X220780000Y-91270000D03*
G04 #@! TO.N,GND*
X223320000Y-91270000D03*
G04 #@! TD*
D15*
G04 #@! TO.N,Net-(JCD1-Pad1)*
G04 #@! TO.C,JCD1*
X130000000Y-30000000D03*
D16*
G04 #@! TO.N,Net-(JCD1-Pad2)*
X130000000Y-27460000D03*
G04 #@! TO.N,GND*
X132540000Y-30000000D03*
X132540000Y-27460000D03*
G04 #@! TO.N,/B2B/RX*
X135080000Y-30000000D03*
G04 #@! TO.N,/B2B/TX*
X135080000Y-27460000D03*
G04 #@! TO.N,~ID3_3V3*
X137620000Y-30000000D03*
G04 #@! TO.N,~ID2_3V3*
X137620000Y-27460000D03*
G04 #@! TO.N,~ID0_3V3*
X140160000Y-30000000D03*
G04 #@! TO.N,~ID1_3V3*
X140160000Y-27460000D03*
G04 #@! TO.N,tmoen*
X142700000Y-30000000D03*
G04 #@! TO.N,LED0*
X142700000Y-27460000D03*
G04 #@! TO.N,HDMI_HPD_A*
X145240000Y-30000000D03*
G04 #@! TO.N,LED1*
X145240000Y-27460000D03*
G04 #@! TO.N,HDMI_SDA_A*
X147780000Y-30000000D03*
G04 #@! TO.N,LED2*
X147780000Y-27460000D03*
G04 #@! TO.N,HDMI_SCL_A*
X150320000Y-30000000D03*
G04 #@! TO.N,LED3*
X150320000Y-27460000D03*
G04 #@! TO.N,HDMI_CEC_A*
X152860000Y-30000000D03*
G04 #@! TO.N,FPGA_VGA_HS*
X152860000Y-27460000D03*
G04 #@! TO.N,HDMI_CLK+*
X155400000Y-30000000D03*
G04 #@! TO.N,FPGA_VGA_VS*
X155400000Y-27460000D03*
G04 #@! TO.N,HDMI_CLK-*
X157940000Y-30000000D03*
G04 #@! TO.N,HDMI_D0-*
X157940000Y-27460000D03*
G04 #@! TO.N,HDMI_D1-*
X160480000Y-30000000D03*
G04 #@! TO.N,HDMI_D0+*
X160480000Y-27460000D03*
G04 #@! TO.N,HDMI_D1+*
X163020000Y-30000000D03*
G04 #@! TO.N,HDMI_D2-*
X163020000Y-27460000D03*
G04 #@! TO.N,FPGA_VGA_CLK*
X165560000Y-30000000D03*
G04 #@! TO.N,HDMI_D2+*
X165560000Y-27460000D03*
G04 #@! TO.N,+3V3*
X168100000Y-30000000D03*
X168100000Y-27460000D03*
G04 #@! TO.N,GND*
X170640000Y-30000000D03*
X170640000Y-27460000D03*
G04 #@! TO.N,+3V3*
X173180000Y-30000000D03*
X173180000Y-27460000D03*
G04 #@! TO.N,FPGA_B7*
X175720000Y-30000000D03*
G04 #@! TO.N,FPGA_R0*
X175720000Y-27460000D03*
G04 #@! TO.N,FPGA_B6*
X178260000Y-30000000D03*
G04 #@! TO.N,FPGA_R1*
X178260000Y-27460000D03*
G04 #@! TO.N,FPGA_B5*
X180800000Y-30000000D03*
G04 #@! TO.N,FPGA_R2*
X180800000Y-27460000D03*
G04 #@! TO.N,FPGA_B4*
X183340000Y-30000000D03*
G04 #@! TO.N,FPGA_R3*
X183340000Y-27460000D03*
G04 #@! TO.N,FPGA_B3*
X185880000Y-30000000D03*
G04 #@! TO.N,FPGA_R4*
X185880000Y-27460000D03*
G04 #@! TO.N,FPGA_B2*
X188420000Y-30000000D03*
G04 #@! TO.N,FPGA_R5*
X188420000Y-27460000D03*
G04 #@! TO.N,FPGA_B1*
X190960000Y-30000000D03*
G04 #@! TO.N,FPGA_R6*
X190960000Y-27460000D03*
G04 #@! TO.N,FPGA_B0*
X193500000Y-30000000D03*
G04 #@! TO.N,FPGA_R7*
X193500000Y-27460000D03*
G04 #@! TO.N,FPGA_G7*
X196040000Y-30000000D03*
G04 #@! TO.N,FPGA_G0*
X196040000Y-27460000D03*
G04 #@! TO.N,FPGA_G6*
X198580000Y-30000000D03*
G04 #@! TO.N,FPGA_G1*
X198580000Y-27460000D03*
G04 #@! TO.N,FPGA_G5*
X201120000Y-30000000D03*
G04 #@! TO.N,FPGA_G2*
X201120000Y-27460000D03*
G04 #@! TO.N,FPGA_G4*
X203660000Y-30000000D03*
G04 #@! TO.N,FPGA_G3*
X203660000Y-27460000D03*
G04 #@! TO.N,FPGA_JTAG_TDO*
X206200000Y-30000000D03*
G04 #@! TO.N,FPGA_JTAG_TMS*
X206200000Y-27460000D03*
G04 #@! TO.N,GND*
X208740000Y-30000000D03*
X208740000Y-27460000D03*
G04 #@! TD*
D17*
G04 #@! TO.N,GND*
G04 #@! TO.C,J1*
X228230000Y-27500000D03*
D18*
G04 #@! TO.N,/B2B/JTAG_VIO*
X228230000Y-29500000D03*
G04 #@! TO.N,GND*
X226230000Y-27500000D03*
G04 #@! TO.N,FPGA_JTAG_TMS*
X226230000Y-29500000D03*
G04 #@! TO.N,GND*
X224230000Y-27500000D03*
G04 #@! TO.N,FPGA_JTAG_TCK*
X224230000Y-29500000D03*
G04 #@! TO.N,GND*
X222230000Y-27500000D03*
G04 #@! TO.N,FPGA_JTAG_TDO*
X222230000Y-29500000D03*
G04 #@! TO.N,GND*
X220230000Y-27500000D03*
G04 #@! TO.N,FPGA_JTAG_TDI*
X220230000Y-29500000D03*
G04 #@! TO.N,GND*
X218230000Y-27500000D03*
G04 #@! TO.N,Net-(J1-Pad12)*
X218230000Y-29500000D03*
G04 #@! TO.N,GND*
X216230000Y-27500000D03*
G04 #@! TO.N,Net-(J1-Pad14)*
X216230000Y-29500000D03*
G04 #@! TD*
D20*
G04 #@! TO.N,SHIELD*
G04 #@! TO.C,J5*
X270800000Y-70150000D03*
X270800000Y-54450000D03*
X265850000Y-69550000D03*
X265850000Y-55050000D03*
G04 #@! TD*
D21*
G04 #@! TO.N,Net-(J4-Pad15)*
G04 #@! TO.C,J4*
X264540000Y-38460000D03*
G04 #@! TO.N,/vga/VGA_VS*
X264540000Y-36170000D03*
G04 #@! TO.N,/vga/VGA_HS*
X264540000Y-33876000D03*
G04 #@! TO.N,Net-(J4-Pad12)*
X264540000Y-31590000D03*
G04 #@! TO.N,Net-(J4-Pad11)*
X264540000Y-29300000D03*
G04 #@! TO.N,GND*
X262000000Y-37320000D03*
G04 #@! TO.N,Net-(J4-Pad9)*
X262000000Y-35030000D03*
G04 #@! TO.N,GND*
X262000000Y-32740000D03*
X262000000Y-30450000D03*
X262000000Y-28160000D03*
X259460000Y-38460000D03*
G04 #@! TO.N,Net-(J4-Pad4)*
X259460000Y-36170000D03*
G04 #@! TO.N,/vga/VGA_B*
X259460000Y-33880000D03*
G04 #@! TO.N,/vga/VGA_G*
X259460000Y-31590000D03*
G04 #@! TO.N,/vga/VGA_R*
X259460000Y-29300000D03*
D22*
G04 #@! TO.N,SHIELD*
X262000000Y-21130000D03*
X262000000Y-46130000D03*
G04 #@! TD*
D23*
G04 #@! TO.N,SHIELD*
G04 #@! TO.C,C11*
X252540000Y-13380000D03*
D24*
G04 #@! TO.N,GND*
X252540000Y-15880000D03*
G04 #@! TD*
D10*
G04 #@! TO.N,-12V*
G04 #@! TO.C,J3*
G36*
X200549505Y-99226204D02*
X200573773Y-99229804D01*
X200597572Y-99235765D01*
X200620671Y-99244030D01*
X200642850Y-99254520D01*
X200663893Y-99267132D01*
X200683599Y-99281747D01*
X200701777Y-99298223D01*
X200718253Y-99316401D01*
X200732868Y-99336107D01*
X200745480Y-99357150D01*
X200755970Y-99379329D01*
X200764235Y-99402428D01*
X200770196Y-99426227D01*
X200773796Y-99450495D01*
X200775000Y-99474999D01*
X200775000Y-100525001D01*
X200773796Y-100549505D01*
X200770196Y-100573773D01*
X200764235Y-100597572D01*
X200755970Y-100620671D01*
X200745480Y-100642850D01*
X200732868Y-100663893D01*
X200718253Y-100683599D01*
X200701777Y-100701777D01*
X200683599Y-100718253D01*
X200663893Y-100732868D01*
X200642850Y-100745480D01*
X200620671Y-100755970D01*
X200597572Y-100764235D01*
X200573773Y-100770196D01*
X200549505Y-100773796D01*
X200525001Y-100775000D01*
X199474999Y-100775000D01*
X199450495Y-100773796D01*
X199426227Y-100770196D01*
X199402428Y-100764235D01*
X199379329Y-100755970D01*
X199357150Y-100745480D01*
X199336107Y-100732868D01*
X199316401Y-100718253D01*
X199298223Y-100701777D01*
X199281747Y-100683599D01*
X199267132Y-100663893D01*
X199254520Y-100642850D01*
X199244030Y-100620671D01*
X199235765Y-100597572D01*
X199229804Y-100573773D01*
X199226204Y-100549505D01*
X199225000Y-100525001D01*
X199225000Y-99474999D01*
X199226204Y-99450495D01*
X199229804Y-99426227D01*
X199235765Y-99402428D01*
X199244030Y-99379329D01*
X199254520Y-99357150D01*
X199267132Y-99336107D01*
X199281747Y-99316401D01*
X199298223Y-99298223D01*
X199316401Y-99281747D01*
X199336107Y-99267132D01*
X199357150Y-99254520D01*
X199379329Y-99244030D01*
X199402428Y-99235765D01*
X199426227Y-99229804D01*
X199450495Y-99226204D01*
X199474999Y-99225000D01*
X200525001Y-99225000D01*
X200549505Y-99226204D01*
X200549505Y-99226204D01*
G37*
D25*
X200000000Y-100000000D03*
G04 #@! TO.N,SB0_5V*
X197460000Y-100000000D03*
G04 #@! TO.N,~SPV_5V*
X194920000Y-100000000D03*
G04 #@! TO.N,~SP_5V*
X192380000Y-100000000D03*
G04 #@! TO.N,~TM1_5V*
X189840000Y-100000000D03*
G04 #@! TO.N,~AD1_5V*
X187300000Y-100000000D03*
G04 #@! TO.N,~AD3_5V*
X184760000Y-100000000D03*
G04 #@! TO.N,~AD5_5V*
X182220000Y-100000000D03*
G04 #@! TO.N,~AD7_5V*
X179680000Y-100000000D03*
G04 #@! TO.N,~AD9_5V*
X177140000Y-100000000D03*
G04 #@! TO.N,~AD11_5V*
X174600000Y-100000000D03*
G04 #@! TO.N,~AD13_5V*
X172060000Y-100000000D03*
G04 #@! TO.N,~AD15_5V*
X169520000Y-100000000D03*
G04 #@! TO.N,~AD17_5V*
X166980000Y-100000000D03*
G04 #@! TO.N,~AD19_5V*
X164440000Y-100000000D03*
G04 #@! TO.N,~AD21_5V*
X161900000Y-100000000D03*
G04 #@! TO.N,~AD23_5V*
X159360000Y-100000000D03*
G04 #@! TO.N,~AD25_5V*
X156820000Y-100000000D03*
G04 #@! TO.N,~AD27_5V*
X154280000Y-100000000D03*
G04 #@! TO.N,~AD29_5V*
X151740000Y-100000000D03*
G04 #@! TO.N,~AD31_5V*
X149200000Y-100000000D03*
G04 #@! TO.N,GND*
X146660000Y-100000000D03*
X144120000Y-100000000D03*
G04 #@! TO.N,~ARB1_5V*
X141580000Y-100000000D03*
G04 #@! TO.N,~ARB3_5V*
X139040000Y-100000000D03*
G04 #@! TO.N,~ID1_5V*
X136500000Y-100000000D03*
G04 #@! TO.N,~ID3_5V*
X133960000Y-100000000D03*
G04 #@! TO.N,~ACK_5V*
X131420000Y-100000000D03*
G04 #@! TO.N,+5V*
X128880000Y-100000000D03*
G04 #@! TO.N,~RQST_5V*
X126340000Y-100000000D03*
G04 #@! TO.N,~NMRQ_5V*
X123800000Y-100000000D03*
G04 #@! TO.N,+12V*
X121260000Y-100000000D03*
G04 #@! TO.N,-12V*
X200000000Y-97460000D03*
G04 #@! TO.N,GND*
X197460000Y-97460000D03*
X194920000Y-97460000D03*
G04 #@! TO.N,+5V*
X192380000Y-97460000D03*
X189840000Y-97460000D03*
X187300000Y-97460000D03*
X184760000Y-97460000D03*
G04 #@! TO.N,~TM2_5V*
X182220000Y-97460000D03*
G04 #@! TO.N,~CM0_5V*
X179680000Y-97460000D03*
G04 #@! TO.N,~CM1_5V*
X177140000Y-97460000D03*
G04 #@! TO.N,~CM2_5V*
X174600000Y-97460000D03*
G04 #@! TO.N,GND*
X172060000Y-97460000D03*
X169520000Y-97460000D03*
X166980000Y-97460000D03*
X164440000Y-97460000D03*
X161900000Y-97460000D03*
X159360000Y-97460000D03*
X156820000Y-97460000D03*
X154280000Y-97460000D03*
X151740000Y-97460000D03*
X149200000Y-97460000D03*
X146660000Y-97460000D03*
X144120000Y-97460000D03*
G04 #@! TO.N,~CLK2X_5V*
X141580000Y-97460000D03*
G04 #@! TO.N,STDBYPWR*
X139040000Y-97460000D03*
G04 #@! TO.N,~CLK2XEN_5V*
X136500000Y-97460000D03*
G04 #@! TO.N,~CBUSY_5V*
X133960000Y-97460000D03*
G04 #@! TO.N,+5V*
X131420000Y-97460000D03*
X128880000Y-97460000D03*
G04 #@! TO.N,GND*
X126340000Y-97460000D03*
X123800000Y-97460000D03*
G04 #@! TO.N,+12V*
X121260000Y-97460000D03*
G04 #@! TO.N,~RESET_5V*
X200000000Y-94920000D03*
G04 #@! TO.N,SB1_5V*
X197460000Y-94920000D03*
G04 #@! TO.N,+5V*
X194920000Y-94920000D03*
X192380000Y-94920000D03*
G04 #@! TO.N,~TM0_5V*
X189840000Y-94920000D03*
G04 #@! TO.N,~AD0_5V*
X187300000Y-94920000D03*
G04 #@! TO.N,~AD2_5V*
X184760000Y-94920000D03*
G04 #@! TO.N,~AD4_5V*
X182220000Y-94920000D03*
G04 #@! TO.N,~AD6_5V*
X179680000Y-94920000D03*
G04 #@! TO.N,~AD8_5V*
X177140000Y-94920000D03*
G04 #@! TO.N,~AD10_5V*
X174600000Y-94920000D03*
G04 #@! TO.N,~AD12_5V*
X172060000Y-94920000D03*
G04 #@! TO.N,~AD14_5V*
X169520000Y-94920000D03*
G04 #@! TO.N,~AD16_5V*
X166980000Y-94920000D03*
G04 #@! TO.N,~AD18_5V*
X164440000Y-94920000D03*
G04 #@! TO.N,~AD20_5V*
X161900000Y-94920000D03*
G04 #@! TO.N,~AD22_5V*
X159360000Y-94920000D03*
G04 #@! TO.N,~AD24_5V*
X156820000Y-94920000D03*
G04 #@! TO.N,~AD26_5V*
X154280000Y-94920000D03*
G04 #@! TO.N,~AD28_5V*
X151740000Y-94920000D03*
G04 #@! TO.N,~AD30_5V*
X149200000Y-94920000D03*
G04 #@! TO.N,GND*
X146660000Y-94920000D03*
G04 #@! TO.N,~PFW_5V*
X144120000Y-94920000D03*
G04 #@! TO.N,~ARB0_5V*
X141580000Y-94920000D03*
G04 #@! TO.N,~ARB2_5V*
X139040000Y-94920000D03*
G04 #@! TO.N,~ID0_5V*
X136500000Y-94920000D03*
G04 #@! TO.N,~ID2_5V*
X133960000Y-94920000D03*
G04 #@! TO.N,~START_5V*
X131420000Y-94920000D03*
G04 #@! TO.N,+5V*
X128880000Y-94920000D03*
X126340000Y-94920000D03*
G04 #@! TO.N,GND*
X123800000Y-94920000D03*
G04 #@! TO.N,~CLK_5V*
X121260000Y-94920000D03*
G04 #@! TD*
D16*
G04 #@! TO.N,Net-(J2-Pad6)*
G04 #@! TO.C,J2*
X121900000Y-20800000D03*
G04 #@! TO.N,/B2B/TX*
X121900000Y-23340000D03*
G04 #@! TO.N,/B2B/RX*
X121900000Y-25880000D03*
G04 #@! TO.N,Net-(J2-Pad3)*
X121900000Y-28420000D03*
G04 #@! TO.N,Net-(J2-Pad2)*
X121900000Y-30960000D03*
D15*
G04 #@! TO.N,GND*
X121900000Y-33500000D03*
G04 #@! TD*
D16*
G04 #@! TO.N,GND*
G04 #@! TO.C,JAB1*
X208740000Y-59210000D03*
G04 #@! TO.N,/B2B/JTAG_VIO*
X208740000Y-61750000D03*
G04 #@! TO.N,FPGA_JTAG_TCK*
X206200000Y-59210000D03*
G04 #@! TO.N,FPGA_JTAG_TDI*
X206200000Y-61750000D03*
G04 #@! TO.N,USBH0_D-*
X203660000Y-59210000D03*
G04 #@! TO.N,USBH0_D+*
X203660000Y-61750000D03*
G04 #@! TO.N,~AD0_3V3*
X201120000Y-59210000D03*
G04 #@! TO.N,~AD1_3V3*
X201120000Y-61750000D03*
G04 #@! TO.N,~AD2_3V3*
X198580000Y-59210000D03*
G04 #@! TO.N,~AD3_3V3*
X198580000Y-61750000D03*
G04 #@! TO.N,~AD4_3V3*
X196040000Y-59210000D03*
G04 #@! TO.N,~AD5_3V3*
X196040000Y-61750000D03*
G04 #@! TO.N,~AD6_3V3*
X193500000Y-59210000D03*
G04 #@! TO.N,~AD7_3V3*
X193500000Y-61750000D03*
G04 #@! TO.N,~AD8_3V3*
X190960000Y-59210000D03*
G04 #@! TO.N,~AD9_3V3*
X190960000Y-61750000D03*
G04 #@! TO.N,~AD10_3V3*
X188420000Y-59210000D03*
G04 #@! TO.N,~AD11_3V3*
X188420000Y-61750000D03*
G04 #@! TO.N,~AD12_3V3*
X185880000Y-59210000D03*
G04 #@! TO.N,~AD13_3V3*
X185880000Y-61750000D03*
G04 #@! TO.N,~AD14_3V3*
X183340000Y-59210000D03*
G04 #@! TO.N,~AD15_3V3*
X183340000Y-61750000D03*
G04 #@! TO.N,~AD16_3V3*
X180800000Y-59210000D03*
G04 #@! TO.N,~AD17_3V3*
X180800000Y-61750000D03*
G04 #@! TO.N,~AD18_3V3*
X178260000Y-59210000D03*
G04 #@! TO.N,~AD19_3V3*
X178260000Y-61750000D03*
G04 #@! TO.N,~AD20_3V3*
X175720000Y-59210000D03*
G04 #@! TO.N,~AD21_3V3*
X175720000Y-61750000D03*
G04 #@! TO.N,~AD22_3V3*
X173180000Y-59210000D03*
G04 #@! TO.N,~AD23_3V3*
X173180000Y-61750000D03*
G04 #@! TO.N,+3V3*
X170640000Y-59210000D03*
X170640000Y-61750000D03*
G04 #@! TO.N,GND*
X168100000Y-59210000D03*
X168100000Y-61750000D03*
G04 #@! TO.N,+3V3*
X165560000Y-59210000D03*
X165560000Y-61750000D03*
G04 #@! TO.N,~AD24_3V3*
X163020000Y-59210000D03*
G04 #@! TO.N,NUBUS_OE*
X163020000Y-61750000D03*
G04 #@! TO.N,~AD26_3V3*
X160480000Y-59210000D03*
G04 #@! TO.N,~AD25_3V3*
X160480000Y-61750000D03*
G04 #@! TO.N,~AD28_3V3*
X157940000Y-59210000D03*
G04 #@! TO.N,~AD27_3V3*
X157940000Y-61750000D03*
G04 #@! TO.N,~AD30_3V3*
X155400000Y-59210000D03*
G04 #@! TO.N,~AD29_3V3*
X155400000Y-61750000D03*
G04 #@! TO.N,~CLK_3V3*
X152860000Y-59210000D03*
G04 #@! TO.N,~AD31_3V3*
X152860000Y-61750000D03*
G04 #@! TO.N,NUBUS_AD_DIR*
X150320000Y-59210000D03*
G04 #@! TO.N,~RESET_3V3*
X150320000Y-61750000D03*
G04 #@! TO.N,fpga_to_cpld_signal_2*
X147780000Y-59210000D03*
G04 #@! TO.N,NUBUS_MASTER_DIR*
X147780000Y-61750000D03*
G04 #@! TO.N,fpga_to_cpld_clk*
X145240000Y-59210000D03*
G04 #@! TO.N,fpga_to_cpld_signal*
X145240000Y-61750000D03*
G04 #@! TO.N,ARB*
X142700000Y-59210000D03*
G04 #@! TO.N,GRANT*
X142700000Y-61750000D03*
G04 #@! TO.N,~ACK_3V3*
X140160000Y-59210000D03*
G04 #@! TO.N,~START_3V3*
X140160000Y-61750000D03*
G04 #@! TO.N,~TM1_3V3*
X137620000Y-59210000D03*
G04 #@! TO.N,~TM0_3V3*
X137620000Y-61750000D03*
G04 #@! TO.N,~NMRQ_3V3*
X135080000Y-59210000D03*
G04 #@! TO.N,~RQST_3V3*
X135080000Y-61750000D03*
G04 #@! TO.N,GND*
X132540000Y-59210000D03*
X132540000Y-61750000D03*
G04 #@! TO.N,+5V*
X130000000Y-59210000D03*
D15*
X130000000Y-61750000D03*
G04 #@! TD*
D26*
G04 #@! TO.N,GND*
X255250000Y-27250000D03*
X234220000Y-50625000D03*
X233500000Y-47375000D03*
X256010000Y-87920000D03*
X243770000Y-35180000D03*
X267000000Y-58050000D03*
X262640000Y-79355000D03*
X252900000Y-82730000D03*
X222350000Y-53330000D03*
X267000000Y-65550000D03*
X141650000Y-14352500D03*
X233040000Y-42562500D03*
X224510000Y-47375000D03*
X242870000Y-30170000D03*
X141900000Y-67700000D03*
X224140000Y-96000000D03*
X143700000Y-76600000D03*
X144900000Y-80500000D03*
X138600000Y-71900000D03*
X168820000Y-55760000D03*
X168357500Y-79750000D03*
X155357500Y-79750000D03*
X181857500Y-79750000D03*
X193357500Y-79750000D03*
X163000000Y-71000000D03*
X188000000Y-71000000D03*
X176500000Y-71000000D03*
X149900000Y-71000000D03*
X134300000Y-83680000D03*
X127100000Y-70212500D03*
X128400000Y-77100000D03*
X120600000Y-68800000D03*
X256000000Y-33000000D03*
X256000000Y-31250000D03*
X248670000Y-34670001D03*
X247020000Y-29510000D03*
X246250000Y-22250000D03*
X248890000Y-16170000D03*
X267730000Y-79355000D03*
X267720000Y-77180000D03*
X251500000Y-23100000D03*
X248840000Y-40287500D03*
X237972500Y-37170000D03*
G04 #@! TO.N,+3V3*
X246800000Y-26300000D03*
X186750000Y-73687500D03*
X175300000Y-73700000D03*
X148750000Y-73687500D03*
X161750000Y-73687500D03*
X129050000Y-73000000D03*
X235550000Y-44137500D03*
X139500000Y-66400000D03*
X223550000Y-46725000D03*
X147000000Y-77812500D03*
X125012500Y-74400000D03*
X127000000Y-66900000D03*
X226080000Y-52500000D03*
X252000000Y-31250000D03*
X252000000Y-33000000D03*
X256000000Y-29500000D03*
X256000000Y-22250000D03*
X241210000Y-35980000D03*
G04 #@! TO.N,+5V*
X253850000Y-87660000D03*
X224230000Y-50622500D03*
X137447842Y-88000000D03*
X135647842Y-88000000D03*
X133847842Y-88000000D03*
X139171568Y-88014972D03*
X220840000Y-97970000D03*
G04 #@! TO.N,~RESET_5V*
X143600000Y-75500000D03*
G04 #@! TO.N,~TM1_5V*
X132000000Y-75400000D03*
G04 #@! TO.N,~NMRQ_5V*
X124200000Y-83600000D03*
G04 #@! TO.N,~TM0_5V*
X133100000Y-74600000D03*
G04 #@! TO.N,~START_3V3*
X131900000Y-77800000D03*
G04 #@! TO.N,~ACK_3V3*
X128900000Y-78600000D03*
G04 #@! TO.N,~TM0_3V3*
X132100000Y-67700000D03*
G04 #@! TO.N,~TM1_3V3*
X130100000Y-69100000D03*
G04 #@! TO.N,FPGA_VGA_HS*
X251850000Y-34730000D03*
G04 #@! TO.N,FPGA_VGA_VS*
X251850000Y-36460000D03*
G04 #@! TO.N,HDMI_5V*
X233920000Y-52070000D03*
X260760000Y-65782500D03*
G04 #@! TO.N,NUBUS_AD_DIR*
X148500000Y-78500000D03*
G04 #@! TO.N,CPLD_JTAG_TDI*
X134900000Y-78100000D03*
G04 #@! TO.N,CPLD_JTAG_TDO*
X136200000Y-77933333D03*
X139400000Y-73150000D03*
G04 #@! TO.N,CPLD_JTAG_TMS*
X137900000Y-80200000D03*
G04 #@! TO.N,CPLD_JTAG_TCK*
X137300000Y-79066666D03*
G04 #@! TO.N,fpga_to_cpld_signal_2*
X137900000Y-73899999D03*
G04 #@! TO.N,fpga_to_cpld_signal*
X136900000Y-72800000D03*
G04 #@! TD*
D27*
G04 #@! TO.N,+3V3*
X168100000Y-27460000D02*
X168100000Y-30000000D01*
D28*
X226080000Y-52500000D02*
X226479999Y-52100001D01*
X226479999Y-52100001D02*
X226479999Y-48470001D01*
X226479999Y-48470001D02*
X228225000Y-46725000D01*
X139500000Y-66400000D02*
X165460000Y-66400000D01*
X165460000Y-66400000D02*
X165560000Y-66500000D01*
X166000000Y-64500000D02*
X165560000Y-64060000D01*
X223150001Y-47124999D02*
X170764999Y-47124999D01*
D27*
X170640000Y-59210000D02*
X170640000Y-47000000D01*
X165560000Y-67000000D02*
X165560000Y-72250000D01*
X165560000Y-72250000D02*
X165560000Y-73750000D01*
X165560000Y-73750000D02*
X165560000Y-75510000D01*
D28*
X147000000Y-77812500D02*
X147000000Y-75437500D01*
X129050000Y-73000000D02*
X126412500Y-73000000D01*
X126412500Y-73000000D02*
X125012500Y-74400000D01*
X223550000Y-46725000D02*
X223150001Y-47124999D01*
D27*
X170640000Y-47000000D02*
X170640000Y-42360000D01*
D28*
X170764999Y-47124999D02*
X170640000Y-47000000D01*
D27*
X170640000Y-59210000D02*
X170640000Y-60412081D01*
X165560000Y-59210000D02*
X165560000Y-61750000D01*
X173180000Y-27460000D02*
X173180000Y-30000000D01*
X165560000Y-67000000D02*
X165560000Y-66500000D01*
X165560000Y-61750000D02*
X165560000Y-66500000D01*
D28*
X166000000Y-64500000D02*
X170000000Y-64500000D01*
D27*
X170640000Y-63860000D02*
X170640000Y-61750000D01*
D28*
X147000000Y-75437500D02*
X148750000Y-73687500D01*
X148750000Y-73687500D02*
X160250000Y-73687500D01*
X129050000Y-73000000D02*
X132900000Y-73000000D01*
X132900000Y-73000000D02*
X139500000Y-66400000D01*
D27*
X170640000Y-60412081D02*
X170640000Y-61750000D01*
X170640000Y-42360000D02*
X173180000Y-39820000D01*
X173180000Y-39820000D02*
X173180000Y-30000000D01*
D28*
X165560000Y-75510000D02*
X165600000Y-75550000D01*
X172200000Y-24700000D02*
X173180000Y-25680000D01*
D27*
X173180000Y-25680000D02*
X173180000Y-27460000D01*
D28*
X175300000Y-73700000D02*
X165610000Y-73700000D01*
X165610000Y-73700000D02*
X165560000Y-73750000D01*
X186750000Y-73687500D02*
X175312500Y-73687500D01*
X228225000Y-46725000D02*
X230812500Y-44137500D01*
X230812500Y-44137500D02*
X235550000Y-44137500D01*
X223550000Y-46725000D02*
X228225000Y-46725000D01*
X175312500Y-73687500D02*
X175300000Y-73700000D01*
X161750000Y-73687500D02*
X165497500Y-73687500D01*
X165497500Y-73687500D02*
X165560000Y-73750000D01*
X129050000Y-73000000D02*
X129050000Y-68950000D01*
X129050000Y-68950000D02*
X127000000Y-66900000D01*
X170000000Y-64500000D02*
X170640000Y-63860000D01*
X169000000Y-24700000D02*
X172200000Y-24700000D01*
X168100000Y-25600000D02*
X169000000Y-24700000D01*
D27*
X168100000Y-27460000D02*
X168100000Y-25600000D01*
D28*
X160250000Y-73687500D02*
X161750000Y-73687500D01*
X186750000Y-73687500D02*
X199687500Y-73687500D01*
D29*
X202830000Y-76830000D02*
X202830000Y-79080000D01*
D28*
X199687500Y-73687500D02*
X202830000Y-76830000D01*
X252000000Y-33000000D02*
X252000000Y-31250000D01*
X253750000Y-29500000D02*
X252000000Y-31250000D01*
X256000000Y-29500000D02*
X253750000Y-29500000D01*
X256750000Y-28750000D02*
X256000000Y-29500000D01*
X256750000Y-23000000D02*
X256750000Y-28750000D01*
X256000000Y-22250000D02*
X256750000Y-23000000D01*
X251750000Y-31250000D02*
X252000000Y-31250000D01*
X246800000Y-26300000D02*
X251750000Y-31250000D01*
D27*
X168100000Y-30000000D02*
X168100000Y-32800000D01*
X165560000Y-59210000D02*
X165560000Y-55540000D01*
D28*
X120300000Y-74700000D02*
X117037330Y-74700000D01*
X121400000Y-73600000D02*
X120300000Y-74700000D01*
X117037330Y-74700000D02*
X117033729Y-74703601D01*
X168100000Y-32800000D02*
X155900000Y-45000000D01*
X155900000Y-45000000D02*
X129600000Y-45000000D01*
X117033729Y-74703601D02*
X115696399Y-74703601D01*
X129600000Y-45000000D02*
X121400000Y-53200000D01*
X115696399Y-74703601D02*
X114600000Y-75800000D01*
X121400000Y-53200000D02*
X121400000Y-73600000D01*
X241210000Y-38477500D02*
X241210000Y-35980000D01*
X235550000Y-44137500D02*
X241210000Y-38477500D01*
X244190000Y-33000000D02*
X241210000Y-35980000D01*
X252000000Y-33000000D02*
X244190000Y-33000000D01*
D30*
G04 #@! TO.N,+5V*
X128880000Y-97460000D02*
X128880000Y-100000000D01*
X128880000Y-94920000D02*
X128880000Y-97460000D01*
X189840000Y-97460000D02*
X192380000Y-97460000D01*
X187300000Y-97460000D02*
X189840000Y-97460000D01*
X183450000Y-102850000D02*
X131730000Y-102850000D01*
D31*
X184760000Y-97460000D02*
X183500000Y-98720000D01*
D30*
X187300000Y-97460000D02*
X184760000Y-97460000D01*
D31*
X192380000Y-97460000D02*
X191100000Y-98740000D01*
D30*
X192380000Y-94920000D02*
X192380000Y-97460000D01*
X194920000Y-94920000D02*
X192380000Y-94920000D01*
X126340000Y-94920000D02*
X128880000Y-94920000D01*
X130000000Y-61750000D02*
X128998000Y-61750000D01*
X128998000Y-61750000D02*
X123050000Y-67697600D01*
X123050000Y-67697600D02*
X123050000Y-86540000D01*
X128880000Y-97460000D02*
X131420000Y-97460000D01*
X205520000Y-97970000D02*
X200690000Y-102800000D01*
D29*
X224230000Y-50622500D02*
X224230000Y-65610000D01*
D28*
X123050000Y-67697600D02*
X123022400Y-67670000D01*
D32*
X123050000Y-67697600D02*
X123050000Y-67697600D01*
D28*
X136882157Y-88000000D02*
X135647842Y-88000000D01*
X137447842Y-88000000D02*
X136882157Y-88000000D01*
X135647842Y-88000000D02*
X133847842Y-88000000D01*
X133847842Y-89952158D02*
X128880000Y-94920000D01*
X133847842Y-88000000D02*
X133847842Y-89952158D01*
X137447842Y-88000000D02*
X139156596Y-88000000D01*
X139156596Y-88000000D02*
X139171568Y-88014972D01*
D32*
X220840000Y-97970000D02*
X205520000Y-97970000D01*
D30*
X205520000Y-97970000D02*
X205520000Y-94620000D01*
X203400000Y-92500000D02*
X197340000Y-92500000D01*
X205520000Y-94620000D02*
X203400000Y-92500000D01*
D29*
X224230000Y-65610000D02*
X197340000Y-92500000D01*
D31*
X243540000Y-97970000D02*
X253850000Y-87660000D01*
X220840000Y-97970000D02*
X243540000Y-97970000D01*
D30*
X194920000Y-94920000D02*
X194920000Y-93280000D01*
X195700000Y-92500000D02*
X197340000Y-92500000D01*
X194920000Y-93280000D02*
X195700000Y-92500000D01*
X126340000Y-94920000D02*
X126340000Y-93040000D01*
X126340000Y-93040000D02*
X124930000Y-91630000D01*
X123050000Y-89750000D02*
X124930000Y-91630000D01*
X123050000Y-86540000D02*
X123050000Y-89750000D01*
D33*
X130000000Y-60500000D02*
X130000000Y-59210000D01*
X130000000Y-61750000D02*
X130000000Y-60500000D01*
D30*
X128998000Y-60212000D02*
X130000000Y-59210000D01*
X128998000Y-61750000D02*
X128998000Y-60212000D01*
X130633985Y-102850000D02*
X131730000Y-102850000D01*
X128880000Y-101096015D02*
X130633985Y-102850000D01*
X128880000Y-100000000D02*
X128880000Y-101096015D01*
X183450000Y-102850000D02*
X191050000Y-102850000D01*
D31*
X183500000Y-98720000D02*
X183500000Y-102800000D01*
X191100000Y-98740000D02*
X191100000Y-102800000D01*
D30*
X191100000Y-102800000D02*
X200690000Y-102800000D01*
D28*
G04 #@! TO.N,-12V*
X200000000Y-99125000D02*
X200000000Y-97460000D01*
X200000000Y-100000000D02*
X200000000Y-99125000D01*
D29*
G04 #@! TO.N,+12V*
X121260000Y-97460000D02*
X121260000Y-100000000D01*
X121260000Y-97460000D02*
X119060000Y-97460000D01*
X119060000Y-97460000D02*
X117800000Y-96200000D01*
X117800000Y-96200000D02*
X117800000Y-86400000D01*
X116660000Y-85260000D02*
X115200000Y-85260000D01*
X117800000Y-86400000D02*
X116660000Y-85260000D01*
D28*
G04 #@! TO.N,~AD23_3V3*
X173212500Y-61782500D02*
X173180000Y-61750000D01*
G04 #@! TO.N,HDMI_5V*
X247632500Y-65782500D02*
X233920000Y-52070000D01*
X260760000Y-65782500D02*
X247632500Y-65782500D01*
G04 #@! TO.N,CPLD_JTAG_TDO*
X139400000Y-74733333D02*
X139400000Y-73150000D01*
X136200000Y-77933333D02*
X139400000Y-74733333D01*
G04 #@! TD*
D34*
G04 #@! TO.N,+3V3*
G36*
X227424765Y-11095766D02*
X227090262Y-11752265D01*
X226975000Y-12480000D01*
X227090262Y-13207735D01*
X227424765Y-13864234D01*
X227945766Y-14385235D01*
X228602265Y-14719738D01*
X229330000Y-14835000D01*
X230057735Y-14719738D01*
X230714234Y-14385235D01*
X231235235Y-13864234D01*
X231569738Y-13207735D01*
X231669161Y-12580000D01*
X251092560Y-12580000D01*
X251092560Y-14180000D01*
X251141843Y-14427765D01*
X251282191Y-14637809D01*
X251492235Y-14778157D01*
X251592503Y-14798101D01*
X251323466Y-15067138D01*
X251105000Y-15594561D01*
X251105000Y-16165439D01*
X251323466Y-16692862D01*
X251727138Y-17096534D01*
X252254561Y-17315000D01*
X252825439Y-17315000D01*
X253352862Y-17096534D01*
X253756534Y-16692862D01*
X253975000Y-16165439D01*
X253975000Y-15594561D01*
X253756534Y-15067138D01*
X253487497Y-14798101D01*
X253587765Y-14778157D01*
X253797809Y-14637809D01*
X253938157Y-14427765D01*
X253987440Y-14180000D01*
X253987440Y-12580000D01*
X253938157Y-12332235D01*
X253797809Y-12122191D01*
X253587765Y-11981843D01*
X253340000Y-11932560D01*
X251740000Y-11932560D01*
X251492235Y-11981843D01*
X251282191Y-12122191D01*
X251141843Y-12332235D01*
X251092560Y-12580000D01*
X231669161Y-12580000D01*
X231685000Y-12480000D01*
X231569738Y-11752265D01*
X231235235Y-11095766D01*
X230766469Y-10627000D01*
X256873000Y-10627000D01*
X256873000Y-30659289D01*
X256586280Y-30372569D01*
X256205874Y-30215000D01*
X255794126Y-30215000D01*
X255413720Y-30372569D01*
X255122569Y-30663720D01*
X254965000Y-31044126D01*
X254965000Y-31455874D01*
X255122569Y-31836280D01*
X255411289Y-32125000D01*
X255122569Y-32413720D01*
X254965000Y-32794126D01*
X254965000Y-33205874D01*
X255122569Y-33586280D01*
X255413720Y-33877431D01*
X255794126Y-34035000D01*
X256205874Y-34035000D01*
X256586280Y-33877431D01*
X256873000Y-33590711D01*
X256873000Y-65071300D01*
X247927089Y-65071300D01*
X234955000Y-52099212D01*
X234955000Y-51864126D01*
X234805342Y-51502819D01*
X234806280Y-51502431D01*
X235097431Y-51211280D01*
X235255000Y-50830874D01*
X235255000Y-50419126D01*
X235097431Y-50038720D01*
X234806280Y-49747569D01*
X234425874Y-49590000D01*
X234014126Y-49590000D01*
X233633720Y-49747569D01*
X233342569Y-50038720D01*
X233185000Y-50419126D01*
X233185000Y-50830874D01*
X233334658Y-51192181D01*
X233333720Y-51192569D01*
X233042569Y-51483720D01*
X232885000Y-51864126D01*
X232885000Y-52275874D01*
X233042569Y-52656280D01*
X233333720Y-52947431D01*
X233714126Y-53105000D01*
X233949212Y-53105000D01*
X247080078Y-66235867D01*
X247119754Y-66295246D01*
X247179133Y-66334922D01*
X247179135Y-66334924D01*
X247355002Y-66452435D01*
X247355003Y-66452435D01*
X247355004Y-66452436D01*
X247562454Y-66493700D01*
X247562457Y-66493700D01*
X247632499Y-66507632D01*
X247702541Y-66493700D01*
X256873000Y-66493700D01*
X256873000Y-87319289D01*
X256596280Y-87042569D01*
X256215874Y-86885000D01*
X255804126Y-86885000D01*
X255423720Y-87042569D01*
X255132569Y-87333720D01*
X254975000Y-87714126D01*
X254975000Y-88125874D01*
X255132569Y-88506280D01*
X255423720Y-88797431D01*
X255804126Y-88955000D01*
X256215874Y-88955000D01*
X256596280Y-88797431D01*
X256873000Y-88520711D01*
X256873000Y-97873000D01*
X244888578Y-97873000D01*
X254074148Y-88687430D01*
X254436280Y-88537431D01*
X254727431Y-88246280D01*
X254885000Y-87865874D01*
X254885000Y-87454126D01*
X254727431Y-87073720D01*
X254436280Y-86782569D01*
X254055874Y-86625000D01*
X253644126Y-86625000D01*
X253263720Y-86782569D01*
X252972569Y-87073720D01*
X252822570Y-87435852D01*
X243173422Y-97085000D01*
X221408007Y-97085000D01*
X221045874Y-96935000D01*
X220634126Y-96935000D01*
X220453060Y-97010000D01*
X206655000Y-97010000D01*
X206655000Y-95794126D01*
X223105000Y-95794126D01*
X223105000Y-96205874D01*
X223262569Y-96586280D01*
X223553720Y-96877431D01*
X223934126Y-97035000D01*
X224345874Y-97035000D01*
X224726280Y-96877431D01*
X225017431Y-96586280D01*
X225175000Y-96205874D01*
X225175000Y-95794126D01*
X225017431Y-95413720D01*
X224726280Y-95122569D01*
X224345874Y-94965000D01*
X223934126Y-94965000D01*
X223553720Y-95122569D01*
X223262569Y-95413720D01*
X223105000Y-95794126D01*
X206655000Y-95794126D01*
X206655000Y-94731783D01*
X206677235Y-94620000D01*
X206589146Y-94177145D01*
X206338289Y-93801711D01*
X206243521Y-93738389D01*
X204281613Y-91776482D01*
X204218289Y-91681711D01*
X203842855Y-91430854D01*
X203511783Y-91365000D01*
X203400000Y-91342765D01*
X203288217Y-91365000D01*
X199549801Y-91365000D01*
X200494802Y-90419999D01*
X216722560Y-90419999D01*
X216722560Y-92120001D01*
X216790873Y-92463436D01*
X216985414Y-92754586D01*
X217276564Y-92949127D01*
X217619999Y-93017440D01*
X218860001Y-93017440D01*
X219203436Y-92949127D01*
X219494586Y-92754586D01*
X219651413Y-92519878D01*
X219694956Y-92585044D01*
X220192779Y-92917678D01*
X220780000Y-93034484D01*
X221367222Y-92917678D01*
X221865044Y-92585044D01*
X222050000Y-92308237D01*
X222234956Y-92585044D01*
X222732779Y-92917678D01*
X223320000Y-93034484D01*
X223907222Y-92917678D01*
X224405044Y-92585044D01*
X224737678Y-92087221D01*
X224825000Y-91648225D01*
X224825000Y-90891774D01*
X224737678Y-90452778D01*
X224405044Y-89954956D01*
X223907221Y-89622322D01*
X223320000Y-89505516D01*
X222732778Y-89622322D01*
X222234956Y-89954956D01*
X222050000Y-90231763D01*
X221865044Y-89954956D01*
X221367221Y-89622322D01*
X220780000Y-89505516D01*
X220192778Y-89622322D01*
X219694956Y-89954956D01*
X219651414Y-90020122D01*
X219494586Y-89785414D01*
X219203436Y-89590873D01*
X218860001Y-89522560D01*
X217619999Y-89522560D01*
X217276564Y-89590873D01*
X216985414Y-89785414D01*
X216790873Y-90076564D01*
X216722560Y-90419999D01*
X200494802Y-90419999D01*
X208390675Y-82524126D01*
X251865000Y-82524126D01*
X251865000Y-82935874D01*
X252022569Y-83316280D01*
X252313720Y-83607431D01*
X252694126Y-83765000D01*
X253105874Y-83765000D01*
X253486280Y-83607431D01*
X253777431Y-83316280D01*
X253935000Y-82935874D01*
X253935000Y-82524126D01*
X253777431Y-82143720D01*
X253486280Y-81852569D01*
X253105874Y-81695000D01*
X252694126Y-81695000D01*
X252313720Y-81852569D01*
X252022569Y-82143720D01*
X251865000Y-82524126D01*
X208390675Y-82524126D01*
X224714473Y-66200329D01*
X224777929Y-66157929D01*
X224843366Y-66059996D01*
X224945904Y-65906538D01*
X224955480Y-65858395D01*
X224990000Y-65684852D01*
X224990000Y-65684848D01*
X225004888Y-65610000D01*
X224990000Y-65535152D01*
X224990000Y-51326211D01*
X225107431Y-51208780D01*
X225265000Y-50828374D01*
X225265000Y-50416626D01*
X225107431Y-50036220D01*
X224816280Y-49745069D01*
X224435874Y-49587500D01*
X224024126Y-49587500D01*
X223643720Y-49745069D01*
X223352569Y-50036220D01*
X223195000Y-50416626D01*
X223195000Y-50828374D01*
X223352569Y-51208780D01*
X223470000Y-51326211D01*
X223470001Y-65295197D01*
X197400199Y-91365000D01*
X195811783Y-91365000D01*
X195700000Y-91342765D01*
X195588217Y-91365000D01*
X195257145Y-91430854D01*
X194881711Y-91681711D01*
X194818390Y-91776477D01*
X194196479Y-92398390D01*
X194101712Y-92461711D01*
X194019304Y-92585044D01*
X193850854Y-92837146D01*
X193762765Y-93280000D01*
X193785000Y-93391783D01*
X193785000Y-93785000D01*
X193239042Y-93785000D01*
X193178701Y-93724659D01*
X192660467Y-93510000D01*
X192099533Y-93510000D01*
X191581299Y-93724659D01*
X191184659Y-94121299D01*
X191110000Y-94301542D01*
X191035341Y-94121299D01*
X190638701Y-93724659D01*
X190120467Y-93510000D01*
X189559533Y-93510000D01*
X189041299Y-93724659D01*
X188644659Y-94121299D01*
X188570000Y-94301542D01*
X188495341Y-94121299D01*
X188098701Y-93724659D01*
X187580467Y-93510000D01*
X187019533Y-93510000D01*
X186501299Y-93724659D01*
X186104659Y-94121299D01*
X186030000Y-94301542D01*
X185955341Y-94121299D01*
X185558701Y-93724659D01*
X185040467Y-93510000D01*
X184479533Y-93510000D01*
X183961299Y-93724659D01*
X183564659Y-94121299D01*
X183490000Y-94301542D01*
X183415341Y-94121299D01*
X183018701Y-93724659D01*
X182500467Y-93510000D01*
X181939533Y-93510000D01*
X181421299Y-93724659D01*
X181024659Y-94121299D01*
X180950000Y-94301542D01*
X180875341Y-94121299D01*
X180478701Y-93724659D01*
X179960467Y-93510000D01*
X179399533Y-93510000D01*
X178881299Y-93724659D01*
X178484659Y-94121299D01*
X178410000Y-94301542D01*
X178335341Y-94121299D01*
X177938701Y-93724659D01*
X177420467Y-93510000D01*
X176859533Y-93510000D01*
X176341299Y-93724659D01*
X175944659Y-94121299D01*
X175870000Y-94301542D01*
X175795341Y-94121299D01*
X175398701Y-93724659D01*
X174880467Y-93510000D01*
X174319533Y-93510000D01*
X173801299Y-93724659D01*
X173404659Y-94121299D01*
X173330000Y-94301542D01*
X173255341Y-94121299D01*
X172858701Y-93724659D01*
X172340467Y-93510000D01*
X171779533Y-93510000D01*
X171261299Y-93724659D01*
X170864659Y-94121299D01*
X170790000Y-94301542D01*
X170715341Y-94121299D01*
X170318701Y-93724659D01*
X169800467Y-93510000D01*
X169239533Y-93510000D01*
X168721299Y-93724659D01*
X168324659Y-94121299D01*
X168250000Y-94301542D01*
X168175341Y-94121299D01*
X167778701Y-93724659D01*
X167260467Y-93510000D01*
X166699533Y-93510000D01*
X166181299Y-93724659D01*
X165784659Y-94121299D01*
X165710000Y-94301542D01*
X165635341Y-94121299D01*
X165238701Y-93724659D01*
X164720467Y-93510000D01*
X164159533Y-93510000D01*
X163641299Y-93724659D01*
X163244659Y-94121299D01*
X163170000Y-94301542D01*
X163095341Y-94121299D01*
X162698701Y-93724659D01*
X162180467Y-93510000D01*
X161619533Y-93510000D01*
X161101299Y-93724659D01*
X160704659Y-94121299D01*
X160630000Y-94301542D01*
X160555341Y-94121299D01*
X160158701Y-93724659D01*
X159640467Y-93510000D01*
X159079533Y-93510000D01*
X158561299Y-93724659D01*
X158164659Y-94121299D01*
X158090000Y-94301542D01*
X158015341Y-94121299D01*
X157618701Y-93724659D01*
X157100467Y-93510000D01*
X156539533Y-93510000D01*
X156021299Y-93724659D01*
X155624659Y-94121299D01*
X155550000Y-94301542D01*
X155475341Y-94121299D01*
X155078701Y-93724659D01*
X154560467Y-93510000D01*
X153999533Y-93510000D01*
X153481299Y-93724659D01*
X153084659Y-94121299D01*
X153010000Y-94301542D01*
X152935341Y-94121299D01*
X152538701Y-93724659D01*
X152020467Y-93510000D01*
X151459533Y-93510000D01*
X150941299Y-93724659D01*
X150544659Y-94121299D01*
X150470000Y-94301542D01*
X150395341Y-94121299D01*
X149998701Y-93724659D01*
X149480467Y-93510000D01*
X148919533Y-93510000D01*
X148401299Y-93724659D01*
X148004659Y-94121299D01*
X147930000Y-94301542D01*
X147855341Y-94121299D01*
X147458701Y-93724659D01*
X146940467Y-93510000D01*
X146379533Y-93510000D01*
X145861299Y-93724659D01*
X145464659Y-94121299D01*
X145390000Y-94301542D01*
X145315341Y-94121299D01*
X144918701Y-93724659D01*
X144400467Y-93510000D01*
X143839533Y-93510000D01*
X143321299Y-93724659D01*
X142924659Y-94121299D01*
X142850000Y-94301542D01*
X142775341Y-94121299D01*
X142378701Y-93724659D01*
X141860467Y-93510000D01*
X141299533Y-93510000D01*
X140781299Y-93724659D01*
X140384659Y-94121299D01*
X140310000Y-94301542D01*
X140235341Y-94121299D01*
X139838701Y-93724659D01*
X139320467Y-93510000D01*
X138759533Y-93510000D01*
X138241299Y-93724659D01*
X137844659Y-94121299D01*
X137770000Y-94301542D01*
X137695341Y-94121299D01*
X137298701Y-93724659D01*
X136780467Y-93510000D01*
X136219533Y-93510000D01*
X135701299Y-93724659D01*
X135304659Y-94121299D01*
X135230000Y-94301542D01*
X135155341Y-94121299D01*
X134758701Y-93724659D01*
X134240467Y-93510000D01*
X133679533Y-93510000D01*
X133161299Y-93724659D01*
X132764659Y-94121299D01*
X132690000Y-94301542D01*
X132615341Y-94121299D01*
X132218701Y-93724659D01*
X131700467Y-93510000D01*
X131295788Y-93510000D01*
X134301209Y-90504580D01*
X134360588Y-90464904D01*
X134400264Y-90405525D01*
X134400266Y-90405523D01*
X134517777Y-90229655D01*
X134517778Y-90229654D01*
X134559042Y-90022204D01*
X134559042Y-90022200D01*
X134572974Y-89952158D01*
X134559042Y-89882116D01*
X134559042Y-88752511D01*
X134600353Y-88711200D01*
X134895331Y-88711200D01*
X135061562Y-88877431D01*
X135441968Y-89035000D01*
X135853716Y-89035000D01*
X136234122Y-88877431D01*
X136400353Y-88711200D01*
X136695331Y-88711200D01*
X136861562Y-88877431D01*
X137241968Y-89035000D01*
X137653716Y-89035000D01*
X138034122Y-88877431D01*
X138200353Y-88711200D01*
X138404085Y-88711200D01*
X138585288Y-88892403D01*
X138965694Y-89049972D01*
X139377442Y-89049972D01*
X139757848Y-88892403D01*
X140048999Y-88601252D01*
X140206568Y-88220846D01*
X140206568Y-87809098D01*
X140048999Y-87428692D01*
X139757848Y-87137541D01*
X139377442Y-86979972D01*
X138965694Y-86979972D01*
X138585288Y-87137541D01*
X138434029Y-87288800D01*
X138200353Y-87288800D01*
X138034122Y-87122569D01*
X137653716Y-86965000D01*
X137241968Y-86965000D01*
X136861562Y-87122569D01*
X136695331Y-87288800D01*
X136400353Y-87288800D01*
X136234122Y-87122569D01*
X135853716Y-86965000D01*
X135441968Y-86965000D01*
X135061562Y-87122569D01*
X134895331Y-87288800D01*
X134600353Y-87288800D01*
X134434122Y-87122569D01*
X134053716Y-86965000D01*
X133641968Y-86965000D01*
X133261562Y-87122569D01*
X132970411Y-87413720D01*
X132812842Y-87794126D01*
X132812842Y-88205874D01*
X132970411Y-88586280D01*
X133136642Y-88752511D01*
X133136643Y-89657568D01*
X129247968Y-93546244D01*
X129160467Y-93510000D01*
X128599533Y-93510000D01*
X128081299Y-93724659D01*
X128020958Y-93785000D01*
X127475000Y-93785000D01*
X127475000Y-93151782D01*
X127497235Y-93039999D01*
X127409146Y-92597145D01*
X127401060Y-92585044D01*
X127158289Y-92221711D01*
X127063521Y-92158389D01*
X125811612Y-90906481D01*
X125811608Y-90906475D01*
X124185000Y-89279869D01*
X124185000Y-84635000D01*
X124405874Y-84635000D01*
X124786280Y-84477431D01*
X125077431Y-84186280D01*
X125235000Y-83805874D01*
X125235000Y-83474126D01*
X133265000Y-83474126D01*
X133265000Y-83885874D01*
X133422569Y-84266280D01*
X133713720Y-84557431D01*
X134094126Y-84715000D01*
X134505874Y-84715000D01*
X134886280Y-84557431D01*
X135177431Y-84266280D01*
X135335000Y-83885874D01*
X135335000Y-83474126D01*
X135177431Y-83093720D01*
X134886280Y-82802569D01*
X134505874Y-82645000D01*
X134094126Y-82645000D01*
X133713720Y-82802569D01*
X133422569Y-83093720D01*
X133265000Y-83474126D01*
X125235000Y-83474126D01*
X125235000Y-83394126D01*
X125077431Y-83013720D01*
X124786280Y-82722569D01*
X124405874Y-82565000D01*
X124185000Y-82565000D01*
X124185000Y-76894126D01*
X127365000Y-76894126D01*
X127365000Y-77305874D01*
X127522569Y-77686280D01*
X127813720Y-77977431D01*
X128004814Y-78056585D01*
X127865000Y-78394126D01*
X127865000Y-78805874D01*
X128022569Y-79186280D01*
X128313720Y-79477431D01*
X128694126Y-79635000D01*
X129105874Y-79635000D01*
X129486280Y-79477431D01*
X129777431Y-79186280D01*
X129935000Y-78805874D01*
X129935000Y-78394126D01*
X129777431Y-78013720D01*
X129486280Y-77722569D01*
X129295186Y-77643415D01*
X129315602Y-77594126D01*
X130865000Y-77594126D01*
X130865000Y-78005874D01*
X131022569Y-78386280D01*
X131313720Y-78677431D01*
X131694126Y-78835000D01*
X132105874Y-78835000D01*
X132486280Y-78677431D01*
X132777431Y-78386280D01*
X132935000Y-78005874D01*
X132935000Y-77894126D01*
X133865000Y-77894126D01*
X133865000Y-78305874D01*
X134022569Y-78686280D01*
X134313720Y-78977431D01*
X134694126Y-79135000D01*
X135105874Y-79135000D01*
X135486280Y-78977431D01*
X135641458Y-78822253D01*
X135994126Y-78968333D01*
X136265000Y-78968333D01*
X136265000Y-79272540D01*
X136422569Y-79652946D01*
X136713720Y-79944097D01*
X136865000Y-80006759D01*
X136865000Y-80405874D01*
X137022569Y-80786280D01*
X137313720Y-81077431D01*
X137694126Y-81235000D01*
X138105874Y-81235000D01*
X138486280Y-81077431D01*
X138777431Y-80786280D01*
X138935000Y-80405874D01*
X138935000Y-80294126D01*
X143865000Y-80294126D01*
X143865000Y-80705874D01*
X144022569Y-81086280D01*
X144313720Y-81377431D01*
X144694126Y-81535000D01*
X145105874Y-81535000D01*
X145486280Y-81377431D01*
X145777431Y-81086280D01*
X145935000Y-80705874D01*
X145935000Y-80294126D01*
X145777431Y-79913720D01*
X145486280Y-79622569D01*
X145296902Y-79544126D01*
X154322500Y-79544126D01*
X154322500Y-79955874D01*
X154480069Y-80336280D01*
X154771220Y-80627431D01*
X155151626Y-80785000D01*
X155563374Y-80785000D01*
X155943780Y-80627431D01*
X156234931Y-80336280D01*
X156392500Y-79955874D01*
X156392500Y-79544126D01*
X167322500Y-79544126D01*
X167322500Y-79955874D01*
X167480069Y-80336280D01*
X167771220Y-80627431D01*
X168151626Y-80785000D01*
X168563374Y-80785000D01*
X168943780Y-80627431D01*
X169234931Y-80336280D01*
X169392500Y-79955874D01*
X169392500Y-79544126D01*
X180822500Y-79544126D01*
X180822500Y-79955874D01*
X180980069Y-80336280D01*
X181271220Y-80627431D01*
X181651626Y-80785000D01*
X182063374Y-80785000D01*
X182443780Y-80627431D01*
X182734931Y-80336280D01*
X182892500Y-79955874D01*
X182892500Y-79544126D01*
X192322500Y-79544126D01*
X192322500Y-79955874D01*
X192480069Y-80336280D01*
X192771220Y-80627431D01*
X193151626Y-80785000D01*
X193563374Y-80785000D01*
X193943780Y-80627431D01*
X194234931Y-80336280D01*
X194392500Y-79955874D01*
X194392500Y-79544126D01*
X194318615Y-79365750D01*
X201345000Y-79365750D01*
X201345000Y-80056309D01*
X201441673Y-80289698D01*
X201620301Y-80468327D01*
X201853690Y-80565000D01*
X202544250Y-80565000D01*
X202703000Y-80406250D01*
X202703000Y-79207000D01*
X201503750Y-79207000D01*
X201345000Y-79365750D01*
X194318615Y-79365750D01*
X194234931Y-79163720D01*
X193943780Y-78872569D01*
X193563374Y-78715000D01*
X193151626Y-78715000D01*
X192771220Y-78872569D01*
X192480069Y-79163720D01*
X192322500Y-79544126D01*
X182892500Y-79544126D01*
X182734931Y-79163720D01*
X182443780Y-78872569D01*
X182063374Y-78715000D01*
X181651626Y-78715000D01*
X181271220Y-78872569D01*
X180980069Y-79163720D01*
X180822500Y-79544126D01*
X169392500Y-79544126D01*
X169234931Y-79163720D01*
X168943780Y-78872569D01*
X168563374Y-78715000D01*
X168151626Y-78715000D01*
X167771220Y-78872569D01*
X167480069Y-79163720D01*
X167322500Y-79544126D01*
X156392500Y-79544126D01*
X156234931Y-79163720D01*
X155943780Y-78872569D01*
X155563374Y-78715000D01*
X155151626Y-78715000D01*
X154771220Y-78872569D01*
X154480069Y-79163720D01*
X154322500Y-79544126D01*
X145296902Y-79544126D01*
X145105874Y-79465000D01*
X144694126Y-79465000D01*
X144313720Y-79622569D01*
X144022569Y-79913720D01*
X143865000Y-80294126D01*
X138935000Y-80294126D01*
X138935000Y-79994126D01*
X138777431Y-79613720D01*
X138486280Y-79322569D01*
X138335000Y-79259907D01*
X138335000Y-78860792D01*
X138177431Y-78480386D01*
X137991171Y-78294126D01*
X147465000Y-78294126D01*
X147465000Y-78705874D01*
X147622569Y-79086280D01*
X147913720Y-79377431D01*
X148294126Y-79535000D01*
X148705874Y-79535000D01*
X149086280Y-79377431D01*
X149377431Y-79086280D01*
X149535000Y-78705874D01*
X149535000Y-78294126D01*
X149456120Y-78103691D01*
X201345000Y-78103691D01*
X201345000Y-78794250D01*
X201503750Y-78953000D01*
X202703000Y-78953000D01*
X202703000Y-77753750D01*
X202957000Y-77753750D01*
X202957000Y-78953000D01*
X202977000Y-78953000D01*
X202977000Y-79207000D01*
X202957000Y-79207000D01*
X202957000Y-80406250D01*
X203115750Y-80565000D01*
X203806310Y-80565000D01*
X204039699Y-80468327D01*
X204218327Y-80289698D01*
X204284904Y-80128967D01*
X204299375Y-80150625D01*
X204790582Y-80478839D01*
X205223744Y-80565000D01*
X205516256Y-80565000D01*
X205949418Y-80478839D01*
X206440625Y-80150625D01*
X206768839Y-79659418D01*
X206884092Y-79080000D01*
X206768839Y-78500582D01*
X206440625Y-78009375D01*
X205949418Y-77681161D01*
X205516256Y-77595000D01*
X205223744Y-77595000D01*
X204790582Y-77681161D01*
X204299375Y-78009375D01*
X204284904Y-78031033D01*
X204218327Y-77870302D01*
X204039699Y-77691673D01*
X203806310Y-77595000D01*
X203115750Y-77595000D01*
X202957000Y-77753750D01*
X202703000Y-77753750D01*
X202544250Y-77595000D01*
X201853690Y-77595000D01*
X201620301Y-77691673D01*
X201441673Y-77870302D01*
X201345000Y-78103691D01*
X149456120Y-78103691D01*
X149377431Y-77913720D01*
X149086280Y-77622569D01*
X148705874Y-77465000D01*
X148294126Y-77465000D01*
X147913720Y-77622569D01*
X147622569Y-77913720D01*
X147465000Y-78294126D01*
X137991171Y-78294126D01*
X137886280Y-78189235D01*
X137505874Y-78031666D01*
X137235000Y-78031666D01*
X137235000Y-77904121D01*
X139844995Y-75294126D01*
X142565000Y-75294126D01*
X142565000Y-75705874D01*
X142722569Y-76086280D01*
X142772027Y-76135738D01*
X142665000Y-76394126D01*
X142665000Y-76805874D01*
X142822569Y-77186280D01*
X143113720Y-77477431D01*
X143494126Y-77635000D01*
X143905874Y-77635000D01*
X144286280Y-77477431D01*
X144577431Y-77186280D01*
X144735000Y-76805874D01*
X144735000Y-76394126D01*
X144577431Y-76013720D01*
X144527973Y-75964262D01*
X144635000Y-75705874D01*
X144635000Y-75294126D01*
X144477431Y-74913720D01*
X144186280Y-74622569D01*
X143805874Y-74465000D01*
X143394126Y-74465000D01*
X143013720Y-74622569D01*
X142722569Y-74913720D01*
X142565000Y-75294126D01*
X139844995Y-75294126D01*
X139853369Y-75285753D01*
X139912745Y-75246079D01*
X139952420Y-75186702D01*
X139952424Y-75186698D01*
X140069935Y-75010831D01*
X140069935Y-75010830D01*
X140069936Y-75010829D01*
X140111200Y-74803379D01*
X140111200Y-74803376D01*
X140125132Y-74733334D01*
X140111200Y-74663292D01*
X140111200Y-73902511D01*
X140277431Y-73736280D01*
X140435000Y-73355874D01*
X140435000Y-72944126D01*
X140277431Y-72563720D01*
X139986280Y-72272569D01*
X139627508Y-72123961D01*
X139635000Y-72105874D01*
X139635000Y-71694126D01*
X139477431Y-71313720D01*
X139186280Y-71022569D01*
X138805874Y-70865000D01*
X138394126Y-70865000D01*
X138013720Y-71022569D01*
X137722569Y-71313720D01*
X137565000Y-71694126D01*
X137565000Y-72001289D01*
X137486280Y-71922569D01*
X137105874Y-71765000D01*
X136694126Y-71765000D01*
X136313720Y-71922569D01*
X136022569Y-72213720D01*
X135865000Y-72594126D01*
X135865000Y-73005874D01*
X136022569Y-73386280D01*
X136313720Y-73677431D01*
X136694126Y-73835000D01*
X136865000Y-73835000D01*
X136865000Y-74105873D01*
X137022569Y-74486279D01*
X137313720Y-74777430D01*
X137694126Y-74934999D01*
X138105874Y-74934999D01*
X138253831Y-74873713D01*
X136229212Y-76898333D01*
X135994126Y-76898333D01*
X135613720Y-77055902D01*
X135458542Y-77211080D01*
X135105874Y-77065000D01*
X134694126Y-77065000D01*
X134313720Y-77222569D01*
X134022569Y-77513720D01*
X133865000Y-77894126D01*
X132935000Y-77894126D01*
X132935000Y-77594126D01*
X132777431Y-77213720D01*
X132486280Y-76922569D01*
X132105874Y-76765000D01*
X131694126Y-76765000D01*
X131313720Y-76922569D01*
X131022569Y-77213720D01*
X130865000Y-77594126D01*
X129315602Y-77594126D01*
X129435000Y-77305874D01*
X129435000Y-76894126D01*
X129277431Y-76513720D01*
X128986280Y-76222569D01*
X128605874Y-76065000D01*
X128194126Y-76065000D01*
X127813720Y-76222569D01*
X127522569Y-76513720D01*
X127365000Y-76894126D01*
X124185000Y-76894126D01*
X124185000Y-75194126D01*
X130965000Y-75194126D01*
X130965000Y-75605874D01*
X131122569Y-75986280D01*
X131413720Y-76277431D01*
X131794126Y-76435000D01*
X132205874Y-76435000D01*
X132586280Y-76277431D01*
X132877431Y-75986280D01*
X133022936Y-75635000D01*
X133305874Y-75635000D01*
X133686280Y-75477431D01*
X133977431Y-75186280D01*
X134135000Y-74805874D01*
X134135000Y-74394126D01*
X133977431Y-74013720D01*
X133686280Y-73722569D01*
X133305874Y-73565000D01*
X132894126Y-73565000D01*
X132513720Y-73722569D01*
X132222569Y-74013720D01*
X132077064Y-74365000D01*
X131794126Y-74365000D01*
X131413720Y-74522569D01*
X131122569Y-74813720D01*
X130965000Y-75194126D01*
X124185000Y-75194126D01*
X124185000Y-70006626D01*
X126065000Y-70006626D01*
X126065000Y-70418374D01*
X126222569Y-70798780D01*
X126513720Y-71089931D01*
X126894126Y-71247500D01*
X127305874Y-71247500D01*
X127686280Y-71089931D01*
X127977431Y-70798780D01*
X127979358Y-70794126D01*
X148865000Y-70794126D01*
X148865000Y-71205874D01*
X149022569Y-71586280D01*
X149313720Y-71877431D01*
X149694126Y-72035000D01*
X150105874Y-72035000D01*
X150486280Y-71877431D01*
X150777431Y-71586280D01*
X150935000Y-71205874D01*
X150935000Y-70794126D01*
X161965000Y-70794126D01*
X161965000Y-71205874D01*
X162122569Y-71586280D01*
X162413720Y-71877431D01*
X162794126Y-72035000D01*
X163205874Y-72035000D01*
X163586280Y-71877431D01*
X163877431Y-71586280D01*
X164035000Y-71205874D01*
X164035000Y-70794126D01*
X175465000Y-70794126D01*
X175465000Y-71205874D01*
X175622569Y-71586280D01*
X175913720Y-71877431D01*
X176294126Y-72035000D01*
X176705874Y-72035000D01*
X177086280Y-71877431D01*
X177377431Y-71586280D01*
X177535000Y-71205874D01*
X177535000Y-70794126D01*
X186965000Y-70794126D01*
X186965000Y-71205874D01*
X187122569Y-71586280D01*
X187413720Y-71877431D01*
X187794126Y-72035000D01*
X188205874Y-72035000D01*
X188586280Y-71877431D01*
X188877431Y-71586280D01*
X189035000Y-71205874D01*
X189035000Y-70794126D01*
X188877431Y-70413720D01*
X188586280Y-70122569D01*
X188205874Y-69965000D01*
X187794126Y-69965000D01*
X187413720Y-70122569D01*
X187122569Y-70413720D01*
X186965000Y-70794126D01*
X177535000Y-70794126D01*
X177377431Y-70413720D01*
X177086280Y-70122569D01*
X176705874Y-69965000D01*
X176294126Y-69965000D01*
X175913720Y-70122569D01*
X175622569Y-70413720D01*
X175465000Y-70794126D01*
X164035000Y-70794126D01*
X163877431Y-70413720D01*
X163586280Y-70122569D01*
X163205874Y-69965000D01*
X162794126Y-69965000D01*
X162413720Y-70122569D01*
X162122569Y-70413720D01*
X161965000Y-70794126D01*
X150935000Y-70794126D01*
X150777431Y-70413720D01*
X150486280Y-70122569D01*
X150105874Y-69965000D01*
X149694126Y-69965000D01*
X149313720Y-70122569D01*
X149022569Y-70413720D01*
X148865000Y-70794126D01*
X127979358Y-70794126D01*
X128135000Y-70418374D01*
X128135000Y-70006626D01*
X127977431Y-69626220D01*
X127686280Y-69335069D01*
X127305874Y-69177500D01*
X126894126Y-69177500D01*
X126513720Y-69335069D01*
X126222569Y-69626220D01*
X126065000Y-70006626D01*
X124185000Y-70006626D01*
X124185000Y-68894126D01*
X129065000Y-68894126D01*
X129065000Y-69305874D01*
X129222569Y-69686280D01*
X129513720Y-69977431D01*
X129894126Y-70135000D01*
X130305874Y-70135000D01*
X130686280Y-69977431D01*
X130977431Y-69686280D01*
X131135000Y-69305874D01*
X131135000Y-68894126D01*
X130977431Y-68513720D01*
X130686280Y-68222569D01*
X130305874Y-68065000D01*
X129894126Y-68065000D01*
X129513720Y-68222569D01*
X129222569Y-68513720D01*
X129065000Y-68894126D01*
X124185000Y-68894126D01*
X124185000Y-68167755D01*
X124858674Y-67494126D01*
X131065000Y-67494126D01*
X131065000Y-67905874D01*
X131222569Y-68286280D01*
X131513720Y-68577431D01*
X131894126Y-68735000D01*
X132305874Y-68735000D01*
X132686280Y-68577431D01*
X132977431Y-68286280D01*
X133135000Y-67905874D01*
X133135000Y-67494126D01*
X140865000Y-67494126D01*
X140865000Y-67905874D01*
X141022569Y-68286280D01*
X141313720Y-68577431D01*
X141694126Y-68735000D01*
X142105874Y-68735000D01*
X142486280Y-68577431D01*
X142777431Y-68286280D01*
X142935000Y-67905874D01*
X142935000Y-67494126D01*
X142777431Y-67113720D01*
X142486280Y-66822569D01*
X142105874Y-66665000D01*
X141694126Y-66665000D01*
X141313720Y-66822569D01*
X141022569Y-67113720D01*
X140865000Y-67494126D01*
X133135000Y-67494126D01*
X132977431Y-67113720D01*
X132686280Y-66822569D01*
X132305874Y-66665000D01*
X131894126Y-66665000D01*
X131513720Y-66822569D01*
X131222569Y-67113720D01*
X131065000Y-67494126D01*
X124858674Y-67494126D01*
X129113005Y-63240081D01*
X129150000Y-63247440D01*
X130850000Y-63247440D01*
X131097765Y-63198157D01*
X131307809Y-63057809D01*
X131448157Y-62847765D01*
X131457184Y-62802381D01*
X131469375Y-62820625D01*
X131960582Y-63148839D01*
X132393744Y-63235000D01*
X132686256Y-63235000D01*
X133119418Y-63148839D01*
X133610625Y-62820625D01*
X133810000Y-62522239D01*
X134009375Y-62820625D01*
X134500582Y-63148839D01*
X134933744Y-63235000D01*
X135226256Y-63235000D01*
X135659418Y-63148839D01*
X136150625Y-62820625D01*
X136350000Y-62522239D01*
X136549375Y-62820625D01*
X137040582Y-63148839D01*
X137473744Y-63235000D01*
X137766256Y-63235000D01*
X138199418Y-63148839D01*
X138690625Y-62820625D01*
X138890000Y-62522239D01*
X139089375Y-62820625D01*
X139580582Y-63148839D01*
X140013744Y-63235000D01*
X140306256Y-63235000D01*
X140739418Y-63148839D01*
X141230625Y-62820625D01*
X141430000Y-62522239D01*
X141629375Y-62820625D01*
X142120582Y-63148839D01*
X142553744Y-63235000D01*
X142846256Y-63235000D01*
X143279418Y-63148839D01*
X143770625Y-62820625D01*
X143970000Y-62522239D01*
X144169375Y-62820625D01*
X144660582Y-63148839D01*
X145093744Y-63235000D01*
X145386256Y-63235000D01*
X145819418Y-63148839D01*
X146310625Y-62820625D01*
X146510000Y-62522239D01*
X146709375Y-62820625D01*
X147200582Y-63148839D01*
X147633744Y-63235000D01*
X147926256Y-63235000D01*
X148359418Y-63148839D01*
X148850625Y-62820625D01*
X149050000Y-62522239D01*
X149249375Y-62820625D01*
X149740582Y-63148839D01*
X150173744Y-63235000D01*
X150466256Y-63235000D01*
X150899418Y-63148839D01*
X151390625Y-62820625D01*
X151590000Y-62522239D01*
X151789375Y-62820625D01*
X152280582Y-63148839D01*
X152713744Y-63235000D01*
X153006256Y-63235000D01*
X153439418Y-63148839D01*
X153930625Y-62820625D01*
X154130000Y-62522239D01*
X154329375Y-62820625D01*
X154820582Y-63148839D01*
X155253744Y-63235000D01*
X155546256Y-63235000D01*
X155979418Y-63148839D01*
X156470625Y-62820625D01*
X156670000Y-62522239D01*
X156869375Y-62820625D01*
X157360582Y-63148839D01*
X157793744Y-63235000D01*
X158086256Y-63235000D01*
X158519418Y-63148839D01*
X159010625Y-62820625D01*
X159210000Y-62522239D01*
X159409375Y-62820625D01*
X159900582Y-63148839D01*
X160333744Y-63235000D01*
X160626256Y-63235000D01*
X161059418Y-63148839D01*
X161550625Y-62820625D01*
X161750000Y-62522239D01*
X161949375Y-62820625D01*
X162440582Y-63148839D01*
X162873744Y-63235000D01*
X163166256Y-63235000D01*
X163599418Y-63148839D01*
X164090625Y-62820625D01*
X164303843Y-62501522D01*
X164364817Y-62631358D01*
X164793076Y-63021645D01*
X165203110Y-63191476D01*
X165433000Y-63070155D01*
X165433000Y-61877000D01*
X165413000Y-61877000D01*
X165413000Y-61623000D01*
X165433000Y-61623000D01*
X165433000Y-59337000D01*
X165413000Y-59337000D01*
X165413000Y-59083000D01*
X165433000Y-59083000D01*
X165433000Y-57889845D01*
X165687000Y-57889845D01*
X165687000Y-59083000D01*
X165707000Y-59083000D01*
X165707000Y-59337000D01*
X165687000Y-59337000D01*
X165687000Y-61623000D01*
X165707000Y-61623000D01*
X165707000Y-61877000D01*
X165687000Y-61877000D01*
X165687000Y-63070155D01*
X165916890Y-63191476D01*
X166326924Y-63021645D01*
X166755183Y-62631358D01*
X166816157Y-62501522D01*
X167029375Y-62820625D01*
X167520582Y-63148839D01*
X167953744Y-63235000D01*
X168246256Y-63235000D01*
X168679418Y-63148839D01*
X169170625Y-62820625D01*
X169383843Y-62501522D01*
X169444817Y-62631358D01*
X169873076Y-63021645D01*
X170283110Y-63191476D01*
X170513000Y-63070155D01*
X170513000Y-61877000D01*
X170493000Y-61877000D01*
X170493000Y-61623000D01*
X170513000Y-61623000D01*
X170513000Y-59337000D01*
X170493000Y-59337000D01*
X170493000Y-59083000D01*
X170513000Y-59083000D01*
X170513000Y-57889845D01*
X170767000Y-57889845D01*
X170767000Y-59083000D01*
X170787000Y-59083000D01*
X170787000Y-59337000D01*
X170767000Y-59337000D01*
X170767000Y-61623000D01*
X170787000Y-61623000D01*
X170787000Y-61877000D01*
X170767000Y-61877000D01*
X170767000Y-63070155D01*
X170996890Y-63191476D01*
X171406924Y-63021645D01*
X171835183Y-62631358D01*
X171896157Y-62501522D01*
X172109375Y-62820625D01*
X172600582Y-63148839D01*
X173033744Y-63235000D01*
X173326256Y-63235000D01*
X173759418Y-63148839D01*
X174250625Y-62820625D01*
X174450000Y-62522239D01*
X174649375Y-62820625D01*
X175140582Y-63148839D01*
X175573744Y-63235000D01*
X175866256Y-63235000D01*
X176299418Y-63148839D01*
X176790625Y-62820625D01*
X176990000Y-62522239D01*
X177189375Y-62820625D01*
X177680582Y-63148839D01*
X178113744Y-63235000D01*
X178406256Y-63235000D01*
X178839418Y-63148839D01*
X179330625Y-62820625D01*
X179530000Y-62522239D01*
X179729375Y-62820625D01*
X180220582Y-63148839D01*
X180653744Y-63235000D01*
X180946256Y-63235000D01*
X181379418Y-63148839D01*
X181870625Y-62820625D01*
X182070000Y-62522239D01*
X182269375Y-62820625D01*
X182760582Y-63148839D01*
X183193744Y-63235000D01*
X183486256Y-63235000D01*
X183919418Y-63148839D01*
X184410625Y-62820625D01*
X184610000Y-62522239D01*
X184809375Y-62820625D01*
X185300582Y-63148839D01*
X185733744Y-63235000D01*
X186026256Y-63235000D01*
X186459418Y-63148839D01*
X186950625Y-62820625D01*
X187150000Y-62522239D01*
X187349375Y-62820625D01*
X187840582Y-63148839D01*
X188273744Y-63235000D01*
X188566256Y-63235000D01*
X188999418Y-63148839D01*
X189490625Y-62820625D01*
X189690000Y-62522239D01*
X189889375Y-62820625D01*
X190380582Y-63148839D01*
X190813744Y-63235000D01*
X191106256Y-63235000D01*
X191539418Y-63148839D01*
X192030625Y-62820625D01*
X192230000Y-62522239D01*
X192429375Y-62820625D01*
X192920582Y-63148839D01*
X193353744Y-63235000D01*
X193646256Y-63235000D01*
X194079418Y-63148839D01*
X194570625Y-62820625D01*
X194770000Y-62522239D01*
X194969375Y-62820625D01*
X195460582Y-63148839D01*
X195893744Y-63235000D01*
X196186256Y-63235000D01*
X196619418Y-63148839D01*
X197110625Y-62820625D01*
X197310000Y-62522239D01*
X197509375Y-62820625D01*
X198000582Y-63148839D01*
X198433744Y-63235000D01*
X198726256Y-63235000D01*
X199159418Y-63148839D01*
X199650625Y-62820625D01*
X199850000Y-62522239D01*
X200049375Y-62820625D01*
X200540582Y-63148839D01*
X200973744Y-63235000D01*
X201266256Y-63235000D01*
X201699418Y-63148839D01*
X202190625Y-62820625D01*
X202390000Y-62522239D01*
X202589375Y-62820625D01*
X203080582Y-63148839D01*
X203513744Y-63235000D01*
X203806256Y-63235000D01*
X204239418Y-63148839D01*
X204730625Y-62820625D01*
X204930000Y-62522239D01*
X205129375Y-62820625D01*
X205620582Y-63148839D01*
X206053744Y-63235000D01*
X206346256Y-63235000D01*
X206779418Y-63148839D01*
X207270625Y-62820625D01*
X207470000Y-62522239D01*
X207669375Y-62820625D01*
X208160582Y-63148839D01*
X208593744Y-63235000D01*
X208886256Y-63235000D01*
X209319418Y-63148839D01*
X209810625Y-62820625D01*
X210138839Y-62329418D01*
X210254092Y-61750000D01*
X210138839Y-61170582D01*
X209810625Y-60679375D01*
X209512239Y-60480000D01*
X209810625Y-60280625D01*
X210138839Y-59789418D01*
X210254092Y-59210000D01*
X210138839Y-58630582D01*
X209810625Y-58139375D01*
X209319418Y-57811161D01*
X208886256Y-57725000D01*
X208593744Y-57725000D01*
X208160582Y-57811161D01*
X207669375Y-58139375D01*
X207470000Y-58437761D01*
X207270625Y-58139375D01*
X206779418Y-57811161D01*
X206346256Y-57725000D01*
X206053744Y-57725000D01*
X205620582Y-57811161D01*
X205129375Y-58139375D01*
X204930000Y-58437761D01*
X204730625Y-58139375D01*
X204239418Y-57811161D01*
X203806256Y-57725000D01*
X203513744Y-57725000D01*
X203080582Y-57811161D01*
X202589375Y-58139375D01*
X202390000Y-58437761D01*
X202190625Y-58139375D01*
X201699418Y-57811161D01*
X201266256Y-57725000D01*
X200973744Y-57725000D01*
X200540582Y-57811161D01*
X200049375Y-58139375D01*
X199850000Y-58437761D01*
X199650625Y-58139375D01*
X199159418Y-57811161D01*
X198726256Y-57725000D01*
X198433744Y-57725000D01*
X198000582Y-57811161D01*
X197509375Y-58139375D01*
X197310000Y-58437761D01*
X197110625Y-58139375D01*
X196619418Y-57811161D01*
X196186256Y-57725000D01*
X195893744Y-57725000D01*
X195460582Y-57811161D01*
X194969375Y-58139375D01*
X194770000Y-58437761D01*
X194570625Y-58139375D01*
X194079418Y-57811161D01*
X193646256Y-57725000D01*
X193353744Y-57725000D01*
X192920582Y-57811161D01*
X192429375Y-58139375D01*
X192230000Y-58437761D01*
X192030625Y-58139375D01*
X191539418Y-57811161D01*
X191106256Y-57725000D01*
X190813744Y-57725000D01*
X190380582Y-57811161D01*
X189889375Y-58139375D01*
X189690000Y-58437761D01*
X189490625Y-58139375D01*
X188999418Y-57811161D01*
X188566256Y-57725000D01*
X188273744Y-57725000D01*
X187840582Y-57811161D01*
X187349375Y-58139375D01*
X187150000Y-58437761D01*
X186950625Y-58139375D01*
X186459418Y-57811161D01*
X186026256Y-57725000D01*
X185733744Y-57725000D01*
X185300582Y-57811161D01*
X184809375Y-58139375D01*
X184610000Y-58437761D01*
X184410625Y-58139375D01*
X183919418Y-57811161D01*
X183486256Y-57725000D01*
X183193744Y-57725000D01*
X182760582Y-57811161D01*
X182269375Y-58139375D01*
X182070000Y-58437761D01*
X181870625Y-58139375D01*
X181379418Y-57811161D01*
X180946256Y-57725000D01*
X180653744Y-57725000D01*
X180220582Y-57811161D01*
X179729375Y-58139375D01*
X179530000Y-58437761D01*
X179330625Y-58139375D01*
X178839418Y-57811161D01*
X178406256Y-57725000D01*
X178113744Y-57725000D01*
X177680582Y-57811161D01*
X177189375Y-58139375D01*
X176990000Y-58437761D01*
X176790625Y-58139375D01*
X176299418Y-57811161D01*
X175866256Y-57725000D01*
X175573744Y-57725000D01*
X175140582Y-57811161D01*
X174649375Y-58139375D01*
X174450000Y-58437761D01*
X174250625Y-58139375D01*
X173759418Y-57811161D01*
X173326256Y-57725000D01*
X173033744Y-57725000D01*
X172600582Y-57811161D01*
X172109375Y-58139375D01*
X171896157Y-58458478D01*
X171835183Y-58328642D01*
X171406924Y-57938355D01*
X170996890Y-57768524D01*
X170767000Y-57889845D01*
X170513000Y-57889845D01*
X170283110Y-57768524D01*
X169873076Y-57938355D01*
X169444817Y-58328642D01*
X169383843Y-58458478D01*
X169170625Y-58139375D01*
X168679418Y-57811161D01*
X168246256Y-57725000D01*
X167953744Y-57725000D01*
X167520582Y-57811161D01*
X167029375Y-58139375D01*
X166816157Y-58458478D01*
X166755183Y-58328642D01*
X166326924Y-57938355D01*
X165916890Y-57768524D01*
X165687000Y-57889845D01*
X165433000Y-57889845D01*
X165203110Y-57768524D01*
X164793076Y-57938355D01*
X164364817Y-58328642D01*
X164303843Y-58458478D01*
X164090625Y-58139375D01*
X163599418Y-57811161D01*
X163166256Y-57725000D01*
X162873744Y-57725000D01*
X162440582Y-57811161D01*
X161949375Y-58139375D01*
X161750000Y-58437761D01*
X161550625Y-58139375D01*
X161059418Y-57811161D01*
X160626256Y-57725000D01*
X160333744Y-57725000D01*
X159900582Y-57811161D01*
X159409375Y-58139375D01*
X159210000Y-58437761D01*
X159010625Y-58139375D01*
X158519418Y-57811161D01*
X158086256Y-57725000D01*
X157793744Y-57725000D01*
X157360582Y-57811161D01*
X156869375Y-58139375D01*
X156670000Y-58437761D01*
X156470625Y-58139375D01*
X155979418Y-57811161D01*
X155546256Y-57725000D01*
X155253744Y-57725000D01*
X154820582Y-57811161D01*
X154329375Y-58139375D01*
X154130000Y-58437761D01*
X153930625Y-58139375D01*
X153439418Y-57811161D01*
X153006256Y-57725000D01*
X152713744Y-57725000D01*
X152280582Y-57811161D01*
X151789375Y-58139375D01*
X151590000Y-58437761D01*
X151390625Y-58139375D01*
X150899418Y-57811161D01*
X150466256Y-57725000D01*
X150173744Y-57725000D01*
X149740582Y-57811161D01*
X149249375Y-58139375D01*
X149050000Y-58437761D01*
X148850625Y-58139375D01*
X148359418Y-57811161D01*
X147926256Y-57725000D01*
X147633744Y-57725000D01*
X147200582Y-57811161D01*
X146709375Y-58139375D01*
X146510000Y-58437761D01*
X146310625Y-58139375D01*
X145819418Y-57811161D01*
X145386256Y-57725000D01*
X145093744Y-57725000D01*
X144660582Y-57811161D01*
X144169375Y-58139375D01*
X143970000Y-58437761D01*
X143770625Y-58139375D01*
X143279418Y-57811161D01*
X142846256Y-57725000D01*
X142553744Y-57725000D01*
X142120582Y-57811161D01*
X141629375Y-58139375D01*
X141430000Y-58437761D01*
X141230625Y-58139375D01*
X140739418Y-57811161D01*
X140306256Y-57725000D01*
X140013744Y-57725000D01*
X139580582Y-57811161D01*
X139089375Y-58139375D01*
X138890000Y-58437761D01*
X138690625Y-58139375D01*
X138199418Y-57811161D01*
X137766256Y-57725000D01*
X137473744Y-57725000D01*
X137040582Y-57811161D01*
X136549375Y-58139375D01*
X136350000Y-58437761D01*
X136150625Y-58139375D01*
X135659418Y-57811161D01*
X135226256Y-57725000D01*
X134933744Y-57725000D01*
X134500582Y-57811161D01*
X134009375Y-58139375D01*
X133810000Y-58437761D01*
X133610625Y-58139375D01*
X133119418Y-57811161D01*
X132686256Y-57725000D01*
X132393744Y-57725000D01*
X131960582Y-57811161D01*
X131469375Y-58139375D01*
X131270000Y-58437761D01*
X131070625Y-58139375D01*
X130579418Y-57811161D01*
X130146256Y-57725000D01*
X129853744Y-57725000D01*
X129420582Y-57811161D01*
X128929375Y-58139375D01*
X128601161Y-58630582D01*
X128508513Y-59096355D01*
X128274479Y-59330389D01*
X128179712Y-59393711D01*
X128006558Y-59652855D01*
X127928854Y-59769146D01*
X127840765Y-60212000D01*
X127863000Y-60323783D01*
X127863000Y-61279845D01*
X122326496Y-66815978D01*
X122231711Y-66879311D01*
X122098284Y-67078999D01*
X121980869Y-67254710D01*
X121980865Y-67254729D01*
X121980854Y-67254746D01*
X121936827Y-67476084D01*
X121892765Y-67697562D01*
X121915000Y-67809365D01*
X121915001Y-86428213D01*
X121915000Y-86428218D01*
X121915001Y-89638212D01*
X121892765Y-89750000D01*
X121980854Y-90192854D01*
X121980855Y-90192855D01*
X122231712Y-90568289D01*
X122326479Y-90631611D01*
X124206475Y-92511608D01*
X124206481Y-92511612D01*
X125205001Y-93510132D01*
X125205000Y-94060958D01*
X125144659Y-94121299D01*
X125070000Y-94301542D01*
X124995341Y-94121299D01*
X124598701Y-93724659D01*
X124080467Y-93510000D01*
X123519533Y-93510000D01*
X123001299Y-93724659D01*
X122604659Y-94121299D01*
X122530000Y-94301542D01*
X122455341Y-94121299D01*
X122058701Y-93724659D01*
X121540467Y-93510000D01*
X120979533Y-93510000D01*
X120461299Y-93724659D01*
X120064659Y-94121299D01*
X119850000Y-94639533D01*
X119850000Y-95200467D01*
X120064659Y-95718701D01*
X120461299Y-96115341D01*
X120641542Y-96190000D01*
X120461299Y-96264659D01*
X120064659Y-96661299D01*
X120048629Y-96700000D01*
X119374802Y-96700000D01*
X118560000Y-95885199D01*
X118560000Y-86474846D01*
X118574888Y-86399999D01*
X118560000Y-86325152D01*
X118560000Y-86325148D01*
X118515904Y-86103463D01*
X118430672Y-85975904D01*
X118390329Y-85915526D01*
X118390327Y-85915524D01*
X118347929Y-85852071D01*
X118284475Y-85809673D01*
X117250331Y-84775530D01*
X117207929Y-84712071D01*
X116956537Y-84544096D01*
X116734852Y-84500000D01*
X116734847Y-84500000D01*
X116731831Y-84499400D01*
X116515044Y-84174956D01*
X116238238Y-83990000D01*
X116515044Y-83805044D01*
X116847678Y-83307222D01*
X116964484Y-82720000D01*
X116847678Y-82132778D01*
X116515044Y-81634956D01*
X116017222Y-81302322D01*
X115578226Y-81215000D01*
X114821774Y-81215000D01*
X114382778Y-81302322D01*
X113884956Y-81634956D01*
X113627000Y-82021014D01*
X113627000Y-76639342D01*
X113810460Y-76845349D01*
X114270598Y-77067920D01*
X114473000Y-76945090D01*
X114473000Y-75927000D01*
X114453000Y-75927000D01*
X114453000Y-75673000D01*
X114473000Y-75673000D01*
X114473000Y-75653000D01*
X114727000Y-75653000D01*
X114727000Y-75673000D01*
X114747000Y-75673000D01*
X114747000Y-75927000D01*
X114727000Y-75927000D01*
X114727000Y-76945090D01*
X114929402Y-77067920D01*
X115389540Y-76845349D01*
X115400516Y-76833024D01*
X115467191Y-76932809D01*
X115677235Y-77073157D01*
X115925000Y-77122440D01*
X117275000Y-77122440D01*
X117522765Y-77073157D01*
X117732809Y-76932809D01*
X117873157Y-76722765D01*
X117922440Y-76475000D01*
X117922440Y-75125000D01*
X117873157Y-74877235D01*
X117732809Y-74667191D01*
X117638286Y-74604032D01*
X117833993Y-74311136D01*
X117935664Y-73800000D01*
X117833993Y-73288864D01*
X117544457Y-72855543D01*
X117461331Y-72800000D01*
X117544457Y-72744457D01*
X117833993Y-72311136D01*
X117935664Y-71800000D01*
X117833993Y-71288864D01*
X117544457Y-70855543D01*
X117461331Y-70800000D01*
X117544457Y-70744457D01*
X117833993Y-70311136D01*
X117935664Y-69800000D01*
X117833993Y-69288864D01*
X117544457Y-68855543D01*
X117461331Y-68800000D01*
X117544457Y-68744457D01*
X117644905Y-68594126D01*
X119565000Y-68594126D01*
X119565000Y-69005874D01*
X119722569Y-69386280D01*
X120013720Y-69677431D01*
X120394126Y-69835000D01*
X120805874Y-69835000D01*
X121186280Y-69677431D01*
X121477431Y-69386280D01*
X121635000Y-69005874D01*
X121635000Y-68594126D01*
X121477431Y-68213720D01*
X121186280Y-67922569D01*
X120805874Y-67765000D01*
X120394126Y-67765000D01*
X120013720Y-67922569D01*
X119722569Y-68213720D01*
X119565000Y-68594126D01*
X117644905Y-68594126D01*
X117833993Y-68311136D01*
X117935664Y-67800000D01*
X117833993Y-67288864D01*
X117544457Y-66855543D01*
X117461331Y-66800000D01*
X117544457Y-66744457D01*
X117833993Y-66311136D01*
X117935664Y-65800000D01*
X117833993Y-65288864D01*
X117544457Y-64855543D01*
X117461331Y-64800000D01*
X117544457Y-64744457D01*
X117833993Y-64311136D01*
X117935664Y-63800000D01*
X117833993Y-63288864D01*
X117544457Y-62855543D01*
X117111136Y-62566007D01*
X116729022Y-62490000D01*
X116470978Y-62490000D01*
X116088864Y-62566007D01*
X115655543Y-62855543D01*
X115600000Y-62938669D01*
X115544457Y-62855543D01*
X115111136Y-62566007D01*
X114729022Y-62490000D01*
X114470978Y-62490000D01*
X114088864Y-62566007D01*
X113655543Y-62855543D01*
X113627000Y-62898261D01*
X113627000Y-55554126D01*
X167785000Y-55554126D01*
X167785000Y-55965874D01*
X167942569Y-56346280D01*
X168233720Y-56637431D01*
X168614126Y-56795000D01*
X169025874Y-56795000D01*
X169406280Y-56637431D01*
X169697431Y-56346280D01*
X169855000Y-55965874D01*
X169855000Y-55554126D01*
X169697431Y-55173720D01*
X169406280Y-54882569D01*
X169025874Y-54725000D01*
X168614126Y-54725000D01*
X168233720Y-54882569D01*
X167942569Y-55173720D01*
X167785000Y-55554126D01*
X113627000Y-55554126D01*
X113627000Y-53124126D01*
X221315000Y-53124126D01*
X221315000Y-53535874D01*
X221472569Y-53916280D01*
X221763720Y-54207431D01*
X222144126Y-54365000D01*
X222555874Y-54365000D01*
X222936280Y-54207431D01*
X223227431Y-53916280D01*
X223385000Y-53535874D01*
X223385000Y-53124126D01*
X223227431Y-52743720D01*
X222936280Y-52452569D01*
X222555874Y-52295000D01*
X222144126Y-52295000D01*
X221763720Y-52452569D01*
X221472569Y-52743720D01*
X221315000Y-53124126D01*
X113627000Y-53124126D01*
X113627000Y-47169126D01*
X223475000Y-47169126D01*
X223475000Y-47580874D01*
X223632569Y-47961280D01*
X223923720Y-48252431D01*
X224304126Y-48410000D01*
X224715874Y-48410000D01*
X225096280Y-48252431D01*
X225387431Y-47961280D01*
X225545000Y-47580874D01*
X225545000Y-47169126D01*
X232465000Y-47169126D01*
X232465000Y-47580874D01*
X232622569Y-47961280D01*
X232913720Y-48252431D01*
X233294126Y-48410000D01*
X233705874Y-48410000D01*
X234086280Y-48252431D01*
X234377431Y-47961280D01*
X234535000Y-47580874D01*
X234535000Y-47169126D01*
X234377431Y-46788720D01*
X234086280Y-46497569D01*
X233705874Y-46340000D01*
X233294126Y-46340000D01*
X232913720Y-46497569D01*
X232622569Y-46788720D01*
X232465000Y-47169126D01*
X225545000Y-47169126D01*
X225387431Y-46788720D01*
X225096280Y-46497569D01*
X224715874Y-46340000D01*
X224304126Y-46340000D01*
X223923720Y-46497569D01*
X223632569Y-46788720D01*
X223475000Y-47169126D01*
X113627000Y-47169126D01*
X113627000Y-42356626D01*
X232005000Y-42356626D01*
X232005000Y-42768374D01*
X232162569Y-43148780D01*
X232453720Y-43439931D01*
X232834126Y-43597500D01*
X233245874Y-43597500D01*
X233626280Y-43439931D01*
X233917431Y-43148780D01*
X234075000Y-42768374D01*
X234075000Y-42356626D01*
X233917431Y-41976220D01*
X233626280Y-41685069D01*
X233245874Y-41527500D01*
X232834126Y-41527500D01*
X232453720Y-41685069D01*
X232162569Y-41976220D01*
X232005000Y-42356626D01*
X113627000Y-42356626D01*
X113627000Y-40081626D01*
X247805000Y-40081626D01*
X247805000Y-40493374D01*
X247962569Y-40873780D01*
X248253720Y-41164931D01*
X248634126Y-41322500D01*
X249045874Y-41322500D01*
X249426280Y-41164931D01*
X249717431Y-40873780D01*
X249875000Y-40493374D01*
X249875000Y-40081626D01*
X249717431Y-39701220D01*
X249426280Y-39410069D01*
X249045874Y-39252500D01*
X248634126Y-39252500D01*
X248253720Y-39410069D01*
X247962569Y-39701220D01*
X247805000Y-40081626D01*
X113627000Y-40081626D01*
X113627000Y-36964126D01*
X236937500Y-36964126D01*
X236937500Y-37375874D01*
X237095069Y-37756280D01*
X237386220Y-38047431D01*
X237766626Y-38205000D01*
X238178374Y-38205000D01*
X238558780Y-38047431D01*
X238849931Y-37756280D01*
X239007500Y-37375874D01*
X239007500Y-36964126D01*
X238849931Y-36583720D01*
X238558780Y-36292569D01*
X238178374Y-36135000D01*
X237766626Y-36135000D01*
X237386220Y-36292569D01*
X237095069Y-36583720D01*
X236937500Y-36964126D01*
X113627000Y-36964126D01*
X113627000Y-20800000D01*
X120385908Y-20800000D01*
X120501161Y-21379418D01*
X120829375Y-21870625D01*
X121127761Y-22070000D01*
X120829375Y-22269375D01*
X120501161Y-22760582D01*
X120385908Y-23340000D01*
X120501161Y-23919418D01*
X120829375Y-24410625D01*
X121127761Y-24610000D01*
X120829375Y-24809375D01*
X120501161Y-25300582D01*
X120385908Y-25880000D01*
X120501161Y-26459418D01*
X120829375Y-26950625D01*
X121127761Y-27150000D01*
X120829375Y-27349375D01*
X120501161Y-27840582D01*
X120385908Y-28420000D01*
X120501161Y-28999418D01*
X120829375Y-29490625D01*
X121127761Y-29690000D01*
X120829375Y-29889375D01*
X120501161Y-30380582D01*
X120385908Y-30960000D01*
X120501161Y-31539418D01*
X120829375Y-32030625D01*
X120847619Y-32042816D01*
X120802235Y-32051843D01*
X120592191Y-32192191D01*
X120451843Y-32402235D01*
X120402560Y-32650000D01*
X120402560Y-34350000D01*
X120451843Y-34597765D01*
X120592191Y-34807809D01*
X120802235Y-34948157D01*
X121050000Y-34997440D01*
X122750000Y-34997440D01*
X122867208Y-34974126D01*
X242735000Y-34974126D01*
X242735000Y-35385874D01*
X242892569Y-35766280D01*
X243183720Y-36057431D01*
X243564126Y-36215000D01*
X243975874Y-36215000D01*
X244356280Y-36057431D01*
X244647431Y-35766280D01*
X244805000Y-35385874D01*
X244805000Y-34974126D01*
X244647431Y-34593720D01*
X244517838Y-34464127D01*
X247635000Y-34464127D01*
X247635000Y-34875875D01*
X247792569Y-35256281D01*
X248083720Y-35547432D01*
X248464126Y-35705001D01*
X248875874Y-35705001D01*
X249256280Y-35547432D01*
X249547431Y-35256281D01*
X249705000Y-34875875D01*
X249705000Y-34524126D01*
X250815000Y-34524126D01*
X250815000Y-34935874D01*
X250972569Y-35316280D01*
X251251289Y-35595000D01*
X250972569Y-35873720D01*
X250815000Y-36254126D01*
X250815000Y-36665874D01*
X250972569Y-37046280D01*
X251263720Y-37337431D01*
X251644126Y-37495000D01*
X252055874Y-37495000D01*
X252436280Y-37337431D01*
X252727431Y-37046280D01*
X252885000Y-36665874D01*
X252885000Y-36254126D01*
X252727431Y-35873720D01*
X252448711Y-35595000D01*
X252727431Y-35316280D01*
X252885000Y-34935874D01*
X252885000Y-34524126D01*
X252727431Y-34143720D01*
X252436280Y-33852569D01*
X252055874Y-33695000D01*
X251644126Y-33695000D01*
X251263720Y-33852569D01*
X250972569Y-34143720D01*
X250815000Y-34524126D01*
X249705000Y-34524126D01*
X249705000Y-34464127D01*
X249547431Y-34083721D01*
X249256280Y-33792570D01*
X248875874Y-33635001D01*
X248464126Y-33635001D01*
X248083720Y-33792570D01*
X247792569Y-34083721D01*
X247635000Y-34464127D01*
X244517838Y-34464127D01*
X244356280Y-34302569D01*
X243975874Y-34145000D01*
X243564126Y-34145000D01*
X243183720Y-34302569D01*
X242892569Y-34593720D01*
X242735000Y-34974126D01*
X122867208Y-34974126D01*
X122997765Y-34948157D01*
X123207809Y-34807809D01*
X123348157Y-34597765D01*
X123397440Y-34350000D01*
X123397440Y-32650000D01*
X123348157Y-32402235D01*
X123207809Y-32192191D01*
X122997765Y-32051843D01*
X122952381Y-32042816D01*
X122970625Y-32030625D01*
X123298839Y-31539418D01*
X123414092Y-30960000D01*
X123298839Y-30380582D01*
X122970625Y-29889375D01*
X122672239Y-29690000D01*
X122970625Y-29490625D01*
X123298839Y-28999418D01*
X123414092Y-28420000D01*
X123298839Y-27840582D01*
X123044543Y-27460000D01*
X128485908Y-27460000D01*
X128601161Y-28039418D01*
X128929375Y-28530625D01*
X128947619Y-28542816D01*
X128902235Y-28551843D01*
X128692191Y-28692191D01*
X128551843Y-28902235D01*
X128502560Y-29150000D01*
X128502560Y-30850000D01*
X128551843Y-31097765D01*
X128692191Y-31307809D01*
X128902235Y-31448157D01*
X129150000Y-31497440D01*
X130850000Y-31497440D01*
X131097765Y-31448157D01*
X131307809Y-31307809D01*
X131448157Y-31097765D01*
X131457184Y-31052381D01*
X131469375Y-31070625D01*
X131960582Y-31398839D01*
X132393744Y-31485000D01*
X132686256Y-31485000D01*
X133119418Y-31398839D01*
X133610625Y-31070625D01*
X133810000Y-30772239D01*
X134009375Y-31070625D01*
X134500582Y-31398839D01*
X134933744Y-31485000D01*
X135226256Y-31485000D01*
X135659418Y-31398839D01*
X136150625Y-31070625D01*
X136350000Y-30772239D01*
X136549375Y-31070625D01*
X137040582Y-31398839D01*
X137473744Y-31485000D01*
X137766256Y-31485000D01*
X138199418Y-31398839D01*
X138690625Y-31070625D01*
X138890000Y-30772239D01*
X139089375Y-31070625D01*
X139580582Y-31398839D01*
X140013744Y-31485000D01*
X140306256Y-31485000D01*
X140739418Y-31398839D01*
X141230625Y-31070625D01*
X141430000Y-30772239D01*
X141629375Y-31070625D01*
X142120582Y-31398839D01*
X142553744Y-31485000D01*
X142846256Y-31485000D01*
X143279418Y-31398839D01*
X143770625Y-31070625D01*
X143970000Y-30772239D01*
X144169375Y-31070625D01*
X144660582Y-31398839D01*
X145093744Y-31485000D01*
X145386256Y-31485000D01*
X145819418Y-31398839D01*
X146310625Y-31070625D01*
X146510000Y-30772239D01*
X146709375Y-31070625D01*
X147200582Y-31398839D01*
X147633744Y-31485000D01*
X147926256Y-31485000D01*
X148359418Y-31398839D01*
X148850625Y-31070625D01*
X149050000Y-30772239D01*
X149249375Y-31070625D01*
X149740582Y-31398839D01*
X150173744Y-31485000D01*
X150466256Y-31485000D01*
X150899418Y-31398839D01*
X151390625Y-31070625D01*
X151590000Y-30772239D01*
X151789375Y-31070625D01*
X152280582Y-31398839D01*
X152713744Y-31485000D01*
X153006256Y-31485000D01*
X153439418Y-31398839D01*
X153930625Y-31070625D01*
X154130000Y-30772239D01*
X154329375Y-31070625D01*
X154820582Y-31398839D01*
X155253744Y-31485000D01*
X155546256Y-31485000D01*
X155979418Y-31398839D01*
X156470625Y-31070625D01*
X156670000Y-30772239D01*
X156869375Y-31070625D01*
X157360582Y-31398839D01*
X157793744Y-31485000D01*
X158086256Y-31485000D01*
X158519418Y-31398839D01*
X159010625Y-31070625D01*
X159210000Y-30772239D01*
X159409375Y-31070625D01*
X159900582Y-31398839D01*
X160333744Y-31485000D01*
X160626256Y-31485000D01*
X161059418Y-31398839D01*
X161550625Y-31070625D01*
X161750000Y-30772239D01*
X161949375Y-31070625D01*
X162440582Y-31398839D01*
X162873744Y-31485000D01*
X163166256Y-31485000D01*
X163599418Y-31398839D01*
X164090625Y-31070625D01*
X164290000Y-30772239D01*
X164489375Y-31070625D01*
X164980582Y-31398839D01*
X165413744Y-31485000D01*
X165706256Y-31485000D01*
X166139418Y-31398839D01*
X166630625Y-31070625D01*
X166843843Y-30751522D01*
X166904817Y-30881358D01*
X167333076Y-31271645D01*
X167743110Y-31441476D01*
X167973000Y-31320155D01*
X167973000Y-30127000D01*
X167953000Y-30127000D01*
X167953000Y-29873000D01*
X167973000Y-29873000D01*
X167973000Y-27587000D01*
X167953000Y-27587000D01*
X167953000Y-27333000D01*
X167973000Y-27333000D01*
X167973000Y-26139845D01*
X168227000Y-26139845D01*
X168227000Y-27333000D01*
X168247000Y-27333000D01*
X168247000Y-27587000D01*
X168227000Y-27587000D01*
X168227000Y-29873000D01*
X168247000Y-29873000D01*
X168247000Y-30127000D01*
X168227000Y-30127000D01*
X168227000Y-31320155D01*
X168456890Y-31441476D01*
X168866924Y-31271645D01*
X169295183Y-30881358D01*
X169356157Y-30751522D01*
X169569375Y-31070625D01*
X170060582Y-31398839D01*
X170493744Y-31485000D01*
X170786256Y-31485000D01*
X171219418Y-31398839D01*
X171710625Y-31070625D01*
X171923843Y-30751522D01*
X171984817Y-30881358D01*
X172413076Y-31271645D01*
X172823110Y-31441476D01*
X173053000Y-31320155D01*
X173053000Y-30127000D01*
X173033000Y-30127000D01*
X173033000Y-29873000D01*
X173053000Y-29873000D01*
X173053000Y-27587000D01*
X173033000Y-27587000D01*
X173033000Y-27333000D01*
X173053000Y-27333000D01*
X173053000Y-26139845D01*
X173307000Y-26139845D01*
X173307000Y-27333000D01*
X173327000Y-27333000D01*
X173327000Y-27587000D01*
X173307000Y-27587000D01*
X173307000Y-29873000D01*
X173327000Y-29873000D01*
X173327000Y-30127000D01*
X173307000Y-30127000D01*
X173307000Y-31320155D01*
X173536890Y-31441476D01*
X173946924Y-31271645D01*
X174375183Y-30881358D01*
X174436157Y-30751522D01*
X174649375Y-31070625D01*
X175140582Y-31398839D01*
X175573744Y-31485000D01*
X175866256Y-31485000D01*
X176299418Y-31398839D01*
X176790625Y-31070625D01*
X176990000Y-30772239D01*
X177189375Y-31070625D01*
X177680582Y-31398839D01*
X178113744Y-31485000D01*
X178406256Y-31485000D01*
X178839418Y-31398839D01*
X179330625Y-31070625D01*
X179530000Y-30772239D01*
X179729375Y-31070625D01*
X180220582Y-31398839D01*
X180653744Y-31485000D01*
X180946256Y-31485000D01*
X181379418Y-31398839D01*
X181870625Y-31070625D01*
X182070000Y-30772239D01*
X182269375Y-31070625D01*
X182760582Y-31398839D01*
X183193744Y-31485000D01*
X183486256Y-31485000D01*
X183919418Y-31398839D01*
X184410625Y-31070625D01*
X184610000Y-30772239D01*
X184809375Y-31070625D01*
X185300582Y-31398839D01*
X185733744Y-31485000D01*
X186026256Y-31485000D01*
X186459418Y-31398839D01*
X186950625Y-31070625D01*
X187150000Y-30772239D01*
X187349375Y-31070625D01*
X187840582Y-31398839D01*
X188273744Y-31485000D01*
X188566256Y-31485000D01*
X188999418Y-31398839D01*
X189490625Y-31070625D01*
X189690000Y-30772239D01*
X189889375Y-31070625D01*
X190380582Y-31398839D01*
X190813744Y-31485000D01*
X191106256Y-31485000D01*
X191539418Y-31398839D01*
X192030625Y-31070625D01*
X192230000Y-30772239D01*
X192429375Y-31070625D01*
X192920582Y-31398839D01*
X193353744Y-31485000D01*
X193646256Y-31485000D01*
X194079418Y-31398839D01*
X194570625Y-31070625D01*
X194770000Y-30772239D01*
X194969375Y-31070625D01*
X195460582Y-31398839D01*
X195893744Y-31485000D01*
X196186256Y-31485000D01*
X196619418Y-31398839D01*
X197110625Y-31070625D01*
X197310000Y-30772239D01*
X197509375Y-31070625D01*
X198000582Y-31398839D01*
X198433744Y-31485000D01*
X198726256Y-31485000D01*
X199159418Y-31398839D01*
X199650625Y-31070625D01*
X199850000Y-30772239D01*
X200049375Y-31070625D01*
X200540582Y-31398839D01*
X200973744Y-31485000D01*
X201266256Y-31485000D01*
X201699418Y-31398839D01*
X202190625Y-31070625D01*
X202390000Y-30772239D01*
X202589375Y-31070625D01*
X203080582Y-31398839D01*
X203513744Y-31485000D01*
X203806256Y-31485000D01*
X204239418Y-31398839D01*
X204730625Y-31070625D01*
X204930000Y-30772239D01*
X205129375Y-31070625D01*
X205620582Y-31398839D01*
X206053744Y-31485000D01*
X206346256Y-31485000D01*
X206779418Y-31398839D01*
X207270625Y-31070625D01*
X207470000Y-30772239D01*
X207669375Y-31070625D01*
X208160582Y-31398839D01*
X208593744Y-31485000D01*
X208886256Y-31485000D01*
X209319418Y-31398839D01*
X209810625Y-31070625D01*
X210138839Y-30579418D01*
X210254092Y-30000000D01*
X210138839Y-29420582D01*
X209810625Y-28929375D01*
X209512239Y-28730000D01*
X209810625Y-28530625D01*
X210138839Y-28039418D01*
X210246135Y-27500000D01*
X214894336Y-27500000D01*
X214996007Y-28011136D01*
X215285543Y-28444457D01*
X215368669Y-28500000D01*
X215285543Y-28555543D01*
X214996007Y-28988864D01*
X214894336Y-29500000D01*
X214996007Y-30011136D01*
X215285543Y-30444457D01*
X215718864Y-30733993D01*
X216100978Y-30810000D01*
X216359022Y-30810000D01*
X216741136Y-30733993D01*
X217174457Y-30444457D01*
X217230000Y-30361331D01*
X217285543Y-30444457D01*
X217718864Y-30733993D01*
X218100978Y-30810000D01*
X218359022Y-30810000D01*
X218741136Y-30733993D01*
X219174457Y-30444457D01*
X219230000Y-30361331D01*
X219285543Y-30444457D01*
X219718864Y-30733993D01*
X220100978Y-30810000D01*
X220359022Y-30810000D01*
X220741136Y-30733993D01*
X221174457Y-30444457D01*
X221230000Y-30361331D01*
X221285543Y-30444457D01*
X221718864Y-30733993D01*
X222100978Y-30810000D01*
X222359022Y-30810000D01*
X222741136Y-30733993D01*
X223174457Y-30444457D01*
X223230000Y-30361331D01*
X223285543Y-30444457D01*
X223718864Y-30733993D01*
X224100978Y-30810000D01*
X224359022Y-30810000D01*
X224741136Y-30733993D01*
X225174457Y-30444457D01*
X225230000Y-30361331D01*
X225285543Y-30444457D01*
X225718864Y-30733993D01*
X226100978Y-30810000D01*
X226359022Y-30810000D01*
X226741136Y-30733993D01*
X227174457Y-30444457D01*
X227230000Y-30361331D01*
X227285543Y-30444457D01*
X227718864Y-30733993D01*
X228100978Y-30810000D01*
X228359022Y-30810000D01*
X228741136Y-30733993D01*
X229174457Y-30444457D01*
X229463993Y-30011136D01*
X229473343Y-29964126D01*
X241835000Y-29964126D01*
X241835000Y-30375874D01*
X241992569Y-30756280D01*
X242283720Y-31047431D01*
X242664126Y-31205000D01*
X243075874Y-31205000D01*
X243456280Y-31047431D01*
X243747431Y-30756280D01*
X243905000Y-30375874D01*
X243905000Y-29964126D01*
X243747431Y-29583720D01*
X243467837Y-29304126D01*
X245985000Y-29304126D01*
X245985000Y-29715874D01*
X246142569Y-30096280D01*
X246433720Y-30387431D01*
X246814126Y-30545000D01*
X247225874Y-30545000D01*
X247606280Y-30387431D01*
X247897431Y-30096280D01*
X248055000Y-29715874D01*
X248055000Y-29304126D01*
X247897431Y-28923720D01*
X247606280Y-28632569D01*
X247225874Y-28475000D01*
X246814126Y-28475000D01*
X246433720Y-28632569D01*
X246142569Y-28923720D01*
X245985000Y-29304126D01*
X243467837Y-29304126D01*
X243456280Y-29292569D01*
X243075874Y-29135000D01*
X242664126Y-29135000D01*
X242283720Y-29292569D01*
X241992569Y-29583720D01*
X241835000Y-29964126D01*
X229473343Y-29964126D01*
X229565664Y-29500000D01*
X229463993Y-28988864D01*
X229268286Y-28695968D01*
X229362809Y-28632809D01*
X229503157Y-28422765D01*
X229552440Y-28175000D01*
X229552440Y-27044126D01*
X254215000Y-27044126D01*
X254215000Y-27455874D01*
X254372569Y-27836280D01*
X254663720Y-28127431D01*
X255044126Y-28285000D01*
X255455874Y-28285000D01*
X255836280Y-28127431D01*
X256127431Y-27836280D01*
X256285000Y-27455874D01*
X256285000Y-27044126D01*
X256127431Y-26663720D01*
X255836280Y-26372569D01*
X255455874Y-26215000D01*
X255044126Y-26215000D01*
X254663720Y-26372569D01*
X254372569Y-26663720D01*
X254215000Y-27044126D01*
X229552440Y-27044126D01*
X229552440Y-26825000D01*
X229503157Y-26577235D01*
X229362809Y-26367191D01*
X229152765Y-26226843D01*
X228905000Y-26177560D01*
X227555000Y-26177560D01*
X227307235Y-26226843D01*
X227097191Y-26367191D01*
X227034032Y-26461714D01*
X226741136Y-26266007D01*
X226359022Y-26190000D01*
X226100978Y-26190000D01*
X225718864Y-26266007D01*
X225285543Y-26555543D01*
X225230000Y-26638669D01*
X225174457Y-26555543D01*
X224741136Y-26266007D01*
X224359022Y-26190000D01*
X224100978Y-26190000D01*
X223718864Y-26266007D01*
X223285543Y-26555543D01*
X223230000Y-26638669D01*
X223174457Y-26555543D01*
X222741136Y-26266007D01*
X222359022Y-26190000D01*
X222100978Y-26190000D01*
X221718864Y-26266007D01*
X221285543Y-26555543D01*
X221230000Y-26638669D01*
X221174457Y-26555543D01*
X220741136Y-26266007D01*
X220359022Y-26190000D01*
X220100978Y-26190000D01*
X219718864Y-26266007D01*
X219285543Y-26555543D01*
X219230000Y-26638669D01*
X219174457Y-26555543D01*
X218741136Y-26266007D01*
X218359022Y-26190000D01*
X218100978Y-26190000D01*
X217718864Y-26266007D01*
X217285543Y-26555543D01*
X217230000Y-26638669D01*
X217174457Y-26555543D01*
X216741136Y-26266007D01*
X216359022Y-26190000D01*
X216100978Y-26190000D01*
X215718864Y-26266007D01*
X215285543Y-26555543D01*
X214996007Y-26988864D01*
X214894336Y-27500000D01*
X210246135Y-27500000D01*
X210254092Y-27460000D01*
X210138839Y-26880582D01*
X209810625Y-26389375D01*
X209319418Y-26061161D01*
X208886256Y-25975000D01*
X208593744Y-25975000D01*
X208160582Y-26061161D01*
X207669375Y-26389375D01*
X207470000Y-26687761D01*
X207270625Y-26389375D01*
X206779418Y-26061161D01*
X206346256Y-25975000D01*
X206053744Y-25975000D01*
X205620582Y-26061161D01*
X205129375Y-26389375D01*
X204930000Y-26687761D01*
X204730625Y-26389375D01*
X204239418Y-26061161D01*
X203806256Y-25975000D01*
X203513744Y-25975000D01*
X203080582Y-26061161D01*
X202589375Y-26389375D01*
X202390000Y-26687761D01*
X202190625Y-26389375D01*
X201699418Y-26061161D01*
X201266256Y-25975000D01*
X200973744Y-25975000D01*
X200540582Y-26061161D01*
X200049375Y-26389375D01*
X199850000Y-26687761D01*
X199650625Y-26389375D01*
X199159418Y-26061161D01*
X198726256Y-25975000D01*
X198433744Y-25975000D01*
X198000582Y-26061161D01*
X197509375Y-26389375D01*
X197310000Y-26687761D01*
X197110625Y-26389375D01*
X196619418Y-26061161D01*
X196186256Y-25975000D01*
X195893744Y-25975000D01*
X195460582Y-26061161D01*
X194969375Y-26389375D01*
X194770000Y-26687761D01*
X194570625Y-26389375D01*
X194079418Y-26061161D01*
X193646256Y-25975000D01*
X193353744Y-25975000D01*
X192920582Y-26061161D01*
X192429375Y-26389375D01*
X192230000Y-26687761D01*
X192030625Y-26389375D01*
X191539418Y-26061161D01*
X191106256Y-25975000D01*
X190813744Y-25975000D01*
X190380582Y-26061161D01*
X189889375Y-26389375D01*
X189690000Y-26687761D01*
X189490625Y-26389375D01*
X188999418Y-26061161D01*
X188566256Y-25975000D01*
X188273744Y-25975000D01*
X187840582Y-26061161D01*
X187349375Y-26389375D01*
X187150000Y-26687761D01*
X186950625Y-26389375D01*
X186459418Y-26061161D01*
X186026256Y-25975000D01*
X185733744Y-25975000D01*
X185300582Y-26061161D01*
X184809375Y-26389375D01*
X184610000Y-26687761D01*
X184410625Y-26389375D01*
X183919418Y-26061161D01*
X183486256Y-25975000D01*
X183193744Y-25975000D01*
X182760582Y-26061161D01*
X182269375Y-26389375D01*
X182070000Y-26687761D01*
X181870625Y-26389375D01*
X181379418Y-26061161D01*
X180946256Y-25975000D01*
X180653744Y-25975000D01*
X180220582Y-26061161D01*
X179729375Y-26389375D01*
X179530000Y-26687761D01*
X179330625Y-26389375D01*
X178839418Y-26061161D01*
X178406256Y-25975000D01*
X178113744Y-25975000D01*
X177680582Y-26061161D01*
X177189375Y-26389375D01*
X176990000Y-26687761D01*
X176790625Y-26389375D01*
X176299418Y-26061161D01*
X175866256Y-25975000D01*
X175573744Y-25975000D01*
X175140582Y-26061161D01*
X174649375Y-26389375D01*
X174436157Y-26708478D01*
X174375183Y-26578642D01*
X173946924Y-26188355D01*
X173536890Y-26018524D01*
X173307000Y-26139845D01*
X173053000Y-26139845D01*
X172823110Y-26018524D01*
X172413076Y-26188355D01*
X171984817Y-26578642D01*
X171923843Y-26708478D01*
X171710625Y-26389375D01*
X171219418Y-26061161D01*
X170786256Y-25975000D01*
X170493744Y-25975000D01*
X170060582Y-26061161D01*
X169569375Y-26389375D01*
X169356157Y-26708478D01*
X169295183Y-26578642D01*
X168866924Y-26188355D01*
X168456890Y-26018524D01*
X168227000Y-26139845D01*
X167973000Y-26139845D01*
X167743110Y-26018524D01*
X167333076Y-26188355D01*
X166904817Y-26578642D01*
X166843843Y-26708478D01*
X166630625Y-26389375D01*
X166139418Y-26061161D01*
X165706256Y-25975000D01*
X165413744Y-25975000D01*
X164980582Y-26061161D01*
X164489375Y-26389375D01*
X164290000Y-26687761D01*
X164090625Y-26389375D01*
X163599418Y-26061161D01*
X163166256Y-25975000D01*
X162873744Y-25975000D01*
X162440582Y-26061161D01*
X161949375Y-26389375D01*
X161750000Y-26687761D01*
X161550625Y-26389375D01*
X161059418Y-26061161D01*
X160626256Y-25975000D01*
X160333744Y-25975000D01*
X159900582Y-26061161D01*
X159409375Y-26389375D01*
X159210000Y-26687761D01*
X159010625Y-26389375D01*
X158519418Y-26061161D01*
X158086256Y-25975000D01*
X157793744Y-25975000D01*
X157360582Y-26061161D01*
X156869375Y-26389375D01*
X156670000Y-26687761D01*
X156470625Y-26389375D01*
X155979418Y-26061161D01*
X155546256Y-25975000D01*
X155253744Y-25975000D01*
X154820582Y-26061161D01*
X154329375Y-26389375D01*
X154130000Y-26687761D01*
X153930625Y-26389375D01*
X153439418Y-26061161D01*
X153006256Y-25975000D01*
X152713744Y-25975000D01*
X152280582Y-26061161D01*
X151789375Y-26389375D01*
X151590000Y-26687761D01*
X151390625Y-26389375D01*
X150899418Y-26061161D01*
X150466256Y-25975000D01*
X150173744Y-25975000D01*
X149740582Y-26061161D01*
X149249375Y-26389375D01*
X149050000Y-26687761D01*
X148850625Y-26389375D01*
X148359418Y-26061161D01*
X147926256Y-25975000D01*
X147633744Y-25975000D01*
X147200582Y-26061161D01*
X146709375Y-26389375D01*
X146510000Y-26687761D01*
X146310625Y-26389375D01*
X145819418Y-26061161D01*
X145386256Y-25975000D01*
X145093744Y-25975000D01*
X144660582Y-26061161D01*
X144169375Y-26389375D01*
X143970000Y-26687761D01*
X143770625Y-26389375D01*
X143279418Y-26061161D01*
X142846256Y-25975000D01*
X142553744Y-25975000D01*
X142120582Y-26061161D01*
X141629375Y-26389375D01*
X141430000Y-26687761D01*
X141230625Y-26389375D01*
X140739418Y-26061161D01*
X140306256Y-25975000D01*
X140013744Y-25975000D01*
X139580582Y-26061161D01*
X139089375Y-26389375D01*
X138890000Y-26687761D01*
X138690625Y-26389375D01*
X138199418Y-26061161D01*
X137766256Y-25975000D01*
X137473744Y-25975000D01*
X137040582Y-26061161D01*
X136549375Y-26389375D01*
X136350000Y-26687761D01*
X136150625Y-26389375D01*
X135659418Y-26061161D01*
X135226256Y-25975000D01*
X134933744Y-25975000D01*
X134500582Y-26061161D01*
X134009375Y-26389375D01*
X133810000Y-26687761D01*
X133610625Y-26389375D01*
X133119418Y-26061161D01*
X132686256Y-25975000D01*
X132393744Y-25975000D01*
X131960582Y-26061161D01*
X131469375Y-26389375D01*
X131270000Y-26687761D01*
X131070625Y-26389375D01*
X130579418Y-26061161D01*
X130146256Y-25975000D01*
X129853744Y-25975000D01*
X129420582Y-26061161D01*
X128929375Y-26389375D01*
X128601161Y-26880582D01*
X128485908Y-27460000D01*
X123044543Y-27460000D01*
X122970625Y-27349375D01*
X122672239Y-27150000D01*
X122970625Y-26950625D01*
X123298839Y-26459418D01*
X123414092Y-25880000D01*
X123298839Y-25300582D01*
X122970625Y-24809375D01*
X122672239Y-24610000D01*
X122970625Y-24410625D01*
X123298839Y-23919418D01*
X123414092Y-23340000D01*
X123298839Y-22760582D01*
X122970625Y-22269375D01*
X122672239Y-22070000D01*
X122710962Y-22044126D01*
X245215000Y-22044126D01*
X245215000Y-22455874D01*
X245372569Y-22836280D01*
X245663720Y-23127431D01*
X246044126Y-23285000D01*
X246455874Y-23285000D01*
X246836280Y-23127431D01*
X247069585Y-22894126D01*
X250465000Y-22894126D01*
X250465000Y-23305874D01*
X250622569Y-23686280D01*
X250913720Y-23977431D01*
X251294126Y-24135000D01*
X251705874Y-24135000D01*
X252086280Y-23977431D01*
X252377431Y-23686280D01*
X252535000Y-23305874D01*
X252535000Y-22894126D01*
X252377431Y-22513720D01*
X252086280Y-22222569D01*
X251705874Y-22065000D01*
X251294126Y-22065000D01*
X250913720Y-22222569D01*
X250622569Y-22513720D01*
X250465000Y-22894126D01*
X247069585Y-22894126D01*
X247127431Y-22836280D01*
X247285000Y-22455874D01*
X247285000Y-22044126D01*
X247127431Y-21663720D01*
X246836280Y-21372569D01*
X246455874Y-21215000D01*
X246044126Y-21215000D01*
X245663720Y-21372569D01*
X245372569Y-21663720D01*
X245215000Y-22044126D01*
X122710962Y-22044126D01*
X122970625Y-21870625D01*
X123298839Y-21379418D01*
X123414092Y-20800000D01*
X123298839Y-20220582D01*
X122970625Y-19729375D01*
X122479418Y-19401161D01*
X122046256Y-19315000D01*
X121753744Y-19315000D01*
X121320582Y-19401161D01*
X120829375Y-19729375D01*
X120501161Y-20220582D01*
X120385908Y-20800000D01*
X113627000Y-20800000D01*
X113627000Y-15964126D01*
X247855000Y-15964126D01*
X247855000Y-16375874D01*
X248012569Y-16756280D01*
X248303720Y-17047431D01*
X248684126Y-17205000D01*
X249095874Y-17205000D01*
X249476280Y-17047431D01*
X249767431Y-16756280D01*
X249925000Y-16375874D01*
X249925000Y-15964126D01*
X249767431Y-15583720D01*
X249476280Y-15292569D01*
X249095874Y-15135000D01*
X248684126Y-15135000D01*
X248303720Y-15292569D01*
X248012569Y-15583720D01*
X247855000Y-15964126D01*
X113627000Y-15964126D01*
X113627000Y-14146626D01*
X140615000Y-14146626D01*
X140615000Y-14558374D01*
X140772569Y-14938780D01*
X141063720Y-15229931D01*
X141444126Y-15387500D01*
X141855874Y-15387500D01*
X142236280Y-15229931D01*
X142527431Y-14938780D01*
X142685000Y-14558374D01*
X142685000Y-14146626D01*
X142527431Y-13766220D01*
X142236280Y-13475069D01*
X141855874Y-13317500D01*
X141444126Y-13317500D01*
X141063720Y-13475069D01*
X140772569Y-13766220D01*
X140615000Y-14146626D01*
X113627000Y-14146626D01*
X113627000Y-10627000D01*
X227893531Y-10627000D01*
X227424765Y-11095766D01*
X227424765Y-11095766D01*
G37*
X227424765Y-11095766D02*
X227090262Y-11752265D01*
X226975000Y-12480000D01*
X227090262Y-13207735D01*
X227424765Y-13864234D01*
X227945766Y-14385235D01*
X228602265Y-14719738D01*
X229330000Y-14835000D01*
X230057735Y-14719738D01*
X230714234Y-14385235D01*
X231235235Y-13864234D01*
X231569738Y-13207735D01*
X231669161Y-12580000D01*
X251092560Y-12580000D01*
X251092560Y-14180000D01*
X251141843Y-14427765D01*
X251282191Y-14637809D01*
X251492235Y-14778157D01*
X251592503Y-14798101D01*
X251323466Y-15067138D01*
X251105000Y-15594561D01*
X251105000Y-16165439D01*
X251323466Y-16692862D01*
X251727138Y-17096534D01*
X252254561Y-17315000D01*
X252825439Y-17315000D01*
X253352862Y-17096534D01*
X253756534Y-16692862D01*
X253975000Y-16165439D01*
X253975000Y-15594561D01*
X253756534Y-15067138D01*
X253487497Y-14798101D01*
X253587765Y-14778157D01*
X253797809Y-14637809D01*
X253938157Y-14427765D01*
X253987440Y-14180000D01*
X253987440Y-12580000D01*
X253938157Y-12332235D01*
X253797809Y-12122191D01*
X253587765Y-11981843D01*
X253340000Y-11932560D01*
X251740000Y-11932560D01*
X251492235Y-11981843D01*
X251282191Y-12122191D01*
X251141843Y-12332235D01*
X251092560Y-12580000D01*
X231669161Y-12580000D01*
X231685000Y-12480000D01*
X231569738Y-11752265D01*
X231235235Y-11095766D01*
X230766469Y-10627000D01*
X256873000Y-10627000D01*
X256873000Y-30659289D01*
X256586280Y-30372569D01*
X256205874Y-30215000D01*
X255794126Y-30215000D01*
X255413720Y-30372569D01*
X255122569Y-30663720D01*
X254965000Y-31044126D01*
X254965000Y-31455874D01*
X255122569Y-31836280D01*
X255411289Y-32125000D01*
X255122569Y-32413720D01*
X254965000Y-32794126D01*
X254965000Y-33205874D01*
X255122569Y-33586280D01*
X255413720Y-33877431D01*
X255794126Y-34035000D01*
X256205874Y-34035000D01*
X256586280Y-33877431D01*
X256873000Y-33590711D01*
X256873000Y-65071300D01*
X247927089Y-65071300D01*
X234955000Y-52099212D01*
X234955000Y-51864126D01*
X234805342Y-51502819D01*
X234806280Y-51502431D01*
X235097431Y-51211280D01*
X235255000Y-50830874D01*
X235255000Y-50419126D01*
X235097431Y-50038720D01*
X234806280Y-49747569D01*
X234425874Y-49590000D01*
X234014126Y-49590000D01*
X233633720Y-49747569D01*
X233342569Y-50038720D01*
X233185000Y-50419126D01*
X233185000Y-50830874D01*
X233334658Y-51192181D01*
X233333720Y-51192569D01*
X233042569Y-51483720D01*
X232885000Y-51864126D01*
X232885000Y-52275874D01*
X233042569Y-52656280D01*
X233333720Y-52947431D01*
X233714126Y-53105000D01*
X233949212Y-53105000D01*
X247080078Y-66235867D01*
X247119754Y-66295246D01*
X247179133Y-66334922D01*
X247179135Y-66334924D01*
X247355002Y-66452435D01*
X247355003Y-66452435D01*
X247355004Y-66452436D01*
X247562454Y-66493700D01*
X247562457Y-66493700D01*
X247632499Y-66507632D01*
X247702541Y-66493700D01*
X256873000Y-66493700D01*
X256873000Y-87319289D01*
X256596280Y-87042569D01*
X256215874Y-86885000D01*
X255804126Y-86885000D01*
X255423720Y-87042569D01*
X255132569Y-87333720D01*
X254975000Y-87714126D01*
X254975000Y-88125874D01*
X255132569Y-88506280D01*
X255423720Y-88797431D01*
X255804126Y-88955000D01*
X256215874Y-88955000D01*
X256596280Y-88797431D01*
X256873000Y-88520711D01*
X256873000Y-97873000D01*
X244888578Y-97873000D01*
X254074148Y-88687430D01*
X254436280Y-88537431D01*
X254727431Y-88246280D01*
X254885000Y-87865874D01*
X254885000Y-87454126D01*
X254727431Y-87073720D01*
X254436280Y-86782569D01*
X254055874Y-86625000D01*
X253644126Y-86625000D01*
X253263720Y-86782569D01*
X252972569Y-87073720D01*
X252822570Y-87435852D01*
X243173422Y-97085000D01*
X221408007Y-97085000D01*
X221045874Y-96935000D01*
X220634126Y-96935000D01*
X220453060Y-97010000D01*
X206655000Y-97010000D01*
X206655000Y-95794126D01*
X223105000Y-95794126D01*
X223105000Y-96205874D01*
X223262569Y-96586280D01*
X223553720Y-96877431D01*
X223934126Y-97035000D01*
X224345874Y-97035000D01*
X224726280Y-96877431D01*
X225017431Y-96586280D01*
X225175000Y-96205874D01*
X225175000Y-95794126D01*
X225017431Y-95413720D01*
X224726280Y-95122569D01*
X224345874Y-94965000D01*
X223934126Y-94965000D01*
X223553720Y-95122569D01*
X223262569Y-95413720D01*
X223105000Y-95794126D01*
X206655000Y-95794126D01*
X206655000Y-94731783D01*
X206677235Y-94620000D01*
X206589146Y-94177145D01*
X206338289Y-93801711D01*
X206243521Y-93738389D01*
X204281613Y-91776482D01*
X204218289Y-91681711D01*
X203842855Y-91430854D01*
X203511783Y-91365000D01*
X203400000Y-91342765D01*
X203288217Y-91365000D01*
X199549801Y-91365000D01*
X200494802Y-90419999D01*
X216722560Y-90419999D01*
X216722560Y-92120001D01*
X216790873Y-92463436D01*
X216985414Y-92754586D01*
X217276564Y-92949127D01*
X217619999Y-93017440D01*
X218860001Y-93017440D01*
X219203436Y-92949127D01*
X219494586Y-92754586D01*
X219651413Y-92519878D01*
X219694956Y-92585044D01*
X220192779Y-92917678D01*
X220780000Y-93034484D01*
X221367222Y-92917678D01*
X221865044Y-92585044D01*
X222050000Y-92308237D01*
X222234956Y-92585044D01*
X222732779Y-92917678D01*
X223320000Y-93034484D01*
X223907222Y-92917678D01*
X224405044Y-92585044D01*
X224737678Y-92087221D01*
X224825000Y-91648225D01*
X224825000Y-90891774D01*
X224737678Y-90452778D01*
X224405044Y-89954956D01*
X223907221Y-89622322D01*
X223320000Y-89505516D01*
X222732778Y-89622322D01*
X222234956Y-89954956D01*
X222050000Y-90231763D01*
X221865044Y-89954956D01*
X221367221Y-89622322D01*
X220780000Y-89505516D01*
X220192778Y-89622322D01*
X219694956Y-89954956D01*
X219651414Y-90020122D01*
X219494586Y-89785414D01*
X219203436Y-89590873D01*
X218860001Y-89522560D01*
X217619999Y-89522560D01*
X217276564Y-89590873D01*
X216985414Y-89785414D01*
X216790873Y-90076564D01*
X216722560Y-90419999D01*
X200494802Y-90419999D01*
X208390675Y-82524126D01*
X251865000Y-82524126D01*
X251865000Y-82935874D01*
X252022569Y-83316280D01*
X252313720Y-83607431D01*
X252694126Y-83765000D01*
X253105874Y-83765000D01*
X253486280Y-83607431D01*
X253777431Y-83316280D01*
X253935000Y-82935874D01*
X253935000Y-82524126D01*
X253777431Y-82143720D01*
X253486280Y-81852569D01*
X253105874Y-81695000D01*
X252694126Y-81695000D01*
X252313720Y-81852569D01*
X252022569Y-82143720D01*
X251865000Y-82524126D01*
X208390675Y-82524126D01*
X224714473Y-66200329D01*
X224777929Y-66157929D01*
X224843366Y-66059996D01*
X224945904Y-65906538D01*
X224955480Y-65858395D01*
X224990000Y-65684852D01*
X224990000Y-65684848D01*
X225004888Y-65610000D01*
X224990000Y-65535152D01*
X224990000Y-51326211D01*
X225107431Y-51208780D01*
X225265000Y-50828374D01*
X225265000Y-50416626D01*
X225107431Y-50036220D01*
X224816280Y-49745069D01*
X224435874Y-49587500D01*
X224024126Y-49587500D01*
X223643720Y-49745069D01*
X223352569Y-50036220D01*
X223195000Y-50416626D01*
X223195000Y-50828374D01*
X223352569Y-51208780D01*
X223470000Y-51326211D01*
X223470001Y-65295197D01*
X197400199Y-91365000D01*
X195811783Y-91365000D01*
X195700000Y-91342765D01*
X195588217Y-91365000D01*
X195257145Y-91430854D01*
X194881711Y-91681711D01*
X194818390Y-91776477D01*
X194196479Y-92398390D01*
X194101712Y-92461711D01*
X194019304Y-92585044D01*
X193850854Y-92837146D01*
X193762765Y-93280000D01*
X193785000Y-93391783D01*
X193785000Y-93785000D01*
X193239042Y-93785000D01*
X193178701Y-93724659D01*
X192660467Y-93510000D01*
X192099533Y-93510000D01*
X191581299Y-93724659D01*
X191184659Y-94121299D01*
X191110000Y-94301542D01*
X191035341Y-94121299D01*
X190638701Y-93724659D01*
X190120467Y-93510000D01*
X189559533Y-93510000D01*
X189041299Y-93724659D01*
X188644659Y-94121299D01*
X188570000Y-94301542D01*
X188495341Y-94121299D01*
X188098701Y-93724659D01*
X187580467Y-93510000D01*
X187019533Y-93510000D01*
X186501299Y-93724659D01*
X186104659Y-94121299D01*
X186030000Y-94301542D01*
X185955341Y-94121299D01*
X185558701Y-93724659D01*
X185040467Y-93510000D01*
X184479533Y-93510000D01*
X183961299Y-93724659D01*
X183564659Y-94121299D01*
X183490000Y-94301542D01*
X183415341Y-94121299D01*
X183018701Y-93724659D01*
X182500467Y-93510000D01*
X181939533Y-93510000D01*
X181421299Y-93724659D01*
X181024659Y-94121299D01*
X180950000Y-94301542D01*
X180875341Y-94121299D01*
X180478701Y-93724659D01*
X179960467Y-93510000D01*
X179399533Y-93510000D01*
X178881299Y-93724659D01*
X178484659Y-94121299D01*
X178410000Y-94301542D01*
X178335341Y-94121299D01*
X177938701Y-93724659D01*
X177420467Y-93510000D01*
X176859533Y-93510000D01*
X176341299Y-93724659D01*
X175944659Y-94121299D01*
X175870000Y-94301542D01*
X175795341Y-94121299D01*
X175398701Y-93724659D01*
X174880467Y-93510000D01*
X174319533Y-93510000D01*
X173801299Y-93724659D01*
X173404659Y-94121299D01*
X173330000Y-94301542D01*
X173255341Y-94121299D01*
X172858701Y-93724659D01*
X172340467Y-93510000D01*
X171779533Y-93510000D01*
X171261299Y-93724659D01*
X170864659Y-94121299D01*
X170790000Y-94301542D01*
X170715341Y-94121299D01*
X170318701Y-93724659D01*
X169800467Y-93510000D01*
X169239533Y-93510000D01*
X168721299Y-93724659D01*
X168324659Y-94121299D01*
X168250000Y-94301542D01*
X168175341Y-94121299D01*
X167778701Y-93724659D01*
X167260467Y-93510000D01*
X166699533Y-93510000D01*
X166181299Y-93724659D01*
X165784659Y-94121299D01*
X165710000Y-94301542D01*
X165635341Y-94121299D01*
X165238701Y-93724659D01*
X164720467Y-93510000D01*
X164159533Y-93510000D01*
X163641299Y-93724659D01*
X163244659Y-94121299D01*
X163170000Y-94301542D01*
X163095341Y-94121299D01*
X162698701Y-93724659D01*
X162180467Y-93510000D01*
X161619533Y-93510000D01*
X161101299Y-93724659D01*
X160704659Y-94121299D01*
X160630000Y-94301542D01*
X160555341Y-94121299D01*
X160158701Y-93724659D01*
X159640467Y-93510000D01*
X159079533Y-93510000D01*
X158561299Y-93724659D01*
X158164659Y-94121299D01*
X158090000Y-94301542D01*
X158015341Y-94121299D01*
X157618701Y-93724659D01*
X157100467Y-93510000D01*
X156539533Y-93510000D01*
X156021299Y-93724659D01*
X155624659Y-94121299D01*
X155550000Y-94301542D01*
X155475341Y-94121299D01*
X155078701Y-93724659D01*
X154560467Y-93510000D01*
X153999533Y-93510000D01*
X153481299Y-93724659D01*
X153084659Y-94121299D01*
X153010000Y-94301542D01*
X152935341Y-94121299D01*
X152538701Y-93724659D01*
X152020467Y-93510000D01*
X151459533Y-93510000D01*
X150941299Y-93724659D01*
X150544659Y-94121299D01*
X150470000Y-94301542D01*
X150395341Y-94121299D01*
X149998701Y-93724659D01*
X149480467Y-93510000D01*
X148919533Y-93510000D01*
X148401299Y-93724659D01*
X148004659Y-94121299D01*
X147930000Y-94301542D01*
X147855341Y-94121299D01*
X147458701Y-93724659D01*
X146940467Y-93510000D01*
X146379533Y-93510000D01*
X145861299Y-93724659D01*
X145464659Y-94121299D01*
X145390000Y-94301542D01*
X145315341Y-94121299D01*
X144918701Y-93724659D01*
X144400467Y-93510000D01*
X143839533Y-93510000D01*
X143321299Y-93724659D01*
X142924659Y-94121299D01*
X142850000Y-94301542D01*
X142775341Y-94121299D01*
X142378701Y-93724659D01*
X141860467Y-93510000D01*
X141299533Y-93510000D01*
X140781299Y-93724659D01*
X140384659Y-94121299D01*
X140310000Y-94301542D01*
X140235341Y-94121299D01*
X139838701Y-93724659D01*
X139320467Y-93510000D01*
X138759533Y-93510000D01*
X138241299Y-93724659D01*
X137844659Y-94121299D01*
X137770000Y-94301542D01*
X137695341Y-94121299D01*
X137298701Y-93724659D01*
X136780467Y-93510000D01*
X136219533Y-93510000D01*
X135701299Y-93724659D01*
X135304659Y-94121299D01*
X135230000Y-94301542D01*
X135155341Y-94121299D01*
X134758701Y-93724659D01*
X134240467Y-93510000D01*
X133679533Y-93510000D01*
X133161299Y-93724659D01*
X132764659Y-94121299D01*
X132690000Y-94301542D01*
X132615341Y-94121299D01*
X132218701Y-93724659D01*
X131700467Y-93510000D01*
X131295788Y-93510000D01*
X134301209Y-90504580D01*
X134360588Y-90464904D01*
X134400264Y-90405525D01*
X134400266Y-90405523D01*
X134517777Y-90229655D01*
X134517778Y-90229654D01*
X134559042Y-90022204D01*
X134559042Y-90022200D01*
X134572974Y-89952158D01*
X134559042Y-89882116D01*
X134559042Y-88752511D01*
X134600353Y-88711200D01*
X134895331Y-88711200D01*
X135061562Y-88877431D01*
X135441968Y-89035000D01*
X135853716Y-89035000D01*
X136234122Y-88877431D01*
X136400353Y-88711200D01*
X136695331Y-88711200D01*
X136861562Y-88877431D01*
X137241968Y-89035000D01*
X137653716Y-89035000D01*
X138034122Y-88877431D01*
X138200353Y-88711200D01*
X138404085Y-88711200D01*
X138585288Y-88892403D01*
X138965694Y-89049972D01*
X139377442Y-89049972D01*
X139757848Y-88892403D01*
X140048999Y-88601252D01*
X140206568Y-88220846D01*
X140206568Y-87809098D01*
X140048999Y-87428692D01*
X139757848Y-87137541D01*
X139377442Y-86979972D01*
X138965694Y-86979972D01*
X138585288Y-87137541D01*
X138434029Y-87288800D01*
X138200353Y-87288800D01*
X138034122Y-87122569D01*
X137653716Y-86965000D01*
X137241968Y-86965000D01*
X136861562Y-87122569D01*
X136695331Y-87288800D01*
X136400353Y-87288800D01*
X136234122Y-87122569D01*
X135853716Y-86965000D01*
X135441968Y-86965000D01*
X135061562Y-87122569D01*
X134895331Y-87288800D01*
X134600353Y-87288800D01*
X134434122Y-87122569D01*
X134053716Y-86965000D01*
X133641968Y-86965000D01*
X133261562Y-87122569D01*
X132970411Y-87413720D01*
X132812842Y-87794126D01*
X132812842Y-88205874D01*
X132970411Y-88586280D01*
X133136642Y-88752511D01*
X133136643Y-89657568D01*
X129247968Y-93546244D01*
X129160467Y-93510000D01*
X128599533Y-93510000D01*
X128081299Y-93724659D01*
X128020958Y-93785000D01*
X127475000Y-93785000D01*
X127475000Y-93151782D01*
X127497235Y-93039999D01*
X127409146Y-92597145D01*
X127401060Y-92585044D01*
X127158289Y-92221711D01*
X127063521Y-92158389D01*
X125811612Y-90906481D01*
X125811608Y-90906475D01*
X124185000Y-89279869D01*
X124185000Y-84635000D01*
X124405874Y-84635000D01*
X124786280Y-84477431D01*
X125077431Y-84186280D01*
X125235000Y-83805874D01*
X125235000Y-83474126D01*
X133265000Y-83474126D01*
X133265000Y-83885874D01*
X133422569Y-84266280D01*
X133713720Y-84557431D01*
X134094126Y-84715000D01*
X134505874Y-84715000D01*
X134886280Y-84557431D01*
X135177431Y-84266280D01*
X135335000Y-83885874D01*
X135335000Y-83474126D01*
X135177431Y-83093720D01*
X134886280Y-82802569D01*
X134505874Y-82645000D01*
X134094126Y-82645000D01*
X133713720Y-82802569D01*
X133422569Y-83093720D01*
X133265000Y-83474126D01*
X125235000Y-83474126D01*
X125235000Y-83394126D01*
X125077431Y-83013720D01*
X124786280Y-82722569D01*
X124405874Y-82565000D01*
X124185000Y-82565000D01*
X124185000Y-76894126D01*
X127365000Y-76894126D01*
X127365000Y-77305874D01*
X127522569Y-77686280D01*
X127813720Y-77977431D01*
X128004814Y-78056585D01*
X127865000Y-78394126D01*
X127865000Y-78805874D01*
X128022569Y-79186280D01*
X128313720Y-79477431D01*
X128694126Y-79635000D01*
X129105874Y-79635000D01*
X129486280Y-79477431D01*
X129777431Y-79186280D01*
X129935000Y-78805874D01*
X129935000Y-78394126D01*
X129777431Y-78013720D01*
X129486280Y-77722569D01*
X129295186Y-77643415D01*
X129315602Y-77594126D01*
X130865000Y-77594126D01*
X130865000Y-78005874D01*
X131022569Y-78386280D01*
X131313720Y-78677431D01*
X131694126Y-78835000D01*
X132105874Y-78835000D01*
X132486280Y-78677431D01*
X132777431Y-78386280D01*
X132935000Y-78005874D01*
X132935000Y-77894126D01*
X133865000Y-77894126D01*
X133865000Y-78305874D01*
X134022569Y-78686280D01*
X134313720Y-78977431D01*
X134694126Y-79135000D01*
X135105874Y-79135000D01*
X135486280Y-78977431D01*
X135641458Y-78822253D01*
X135994126Y-78968333D01*
X136265000Y-78968333D01*
X136265000Y-79272540D01*
X136422569Y-79652946D01*
X136713720Y-79944097D01*
X136865000Y-80006759D01*
X136865000Y-80405874D01*
X137022569Y-80786280D01*
X137313720Y-81077431D01*
X137694126Y-81235000D01*
X138105874Y-81235000D01*
X138486280Y-81077431D01*
X138777431Y-80786280D01*
X138935000Y-80405874D01*
X138935000Y-80294126D01*
X143865000Y-80294126D01*
X143865000Y-80705874D01*
X144022569Y-81086280D01*
X144313720Y-81377431D01*
X144694126Y-81535000D01*
X145105874Y-81535000D01*
X145486280Y-81377431D01*
X145777431Y-81086280D01*
X145935000Y-80705874D01*
X145935000Y-80294126D01*
X145777431Y-79913720D01*
X145486280Y-79622569D01*
X145296902Y-79544126D01*
X154322500Y-79544126D01*
X154322500Y-79955874D01*
X154480069Y-80336280D01*
X154771220Y-80627431D01*
X155151626Y-80785000D01*
X155563374Y-80785000D01*
X155943780Y-80627431D01*
X156234931Y-80336280D01*
X156392500Y-79955874D01*
X156392500Y-79544126D01*
X167322500Y-79544126D01*
X167322500Y-79955874D01*
X167480069Y-80336280D01*
X167771220Y-80627431D01*
X168151626Y-80785000D01*
X168563374Y-80785000D01*
X168943780Y-80627431D01*
X169234931Y-80336280D01*
X169392500Y-79955874D01*
X169392500Y-79544126D01*
X180822500Y-79544126D01*
X180822500Y-79955874D01*
X180980069Y-80336280D01*
X181271220Y-80627431D01*
X181651626Y-80785000D01*
X182063374Y-80785000D01*
X182443780Y-80627431D01*
X182734931Y-80336280D01*
X182892500Y-79955874D01*
X182892500Y-79544126D01*
X192322500Y-79544126D01*
X192322500Y-79955874D01*
X192480069Y-80336280D01*
X192771220Y-80627431D01*
X193151626Y-80785000D01*
X193563374Y-80785000D01*
X193943780Y-80627431D01*
X194234931Y-80336280D01*
X194392500Y-79955874D01*
X194392500Y-79544126D01*
X194318615Y-79365750D01*
X201345000Y-79365750D01*
X201345000Y-80056309D01*
X201441673Y-80289698D01*
X201620301Y-80468327D01*
X201853690Y-80565000D01*
X202544250Y-80565000D01*
X202703000Y-80406250D01*
X202703000Y-79207000D01*
X201503750Y-79207000D01*
X201345000Y-79365750D01*
X194318615Y-79365750D01*
X194234931Y-79163720D01*
X193943780Y-78872569D01*
X193563374Y-78715000D01*
X193151626Y-78715000D01*
X192771220Y-78872569D01*
X192480069Y-79163720D01*
X192322500Y-79544126D01*
X182892500Y-79544126D01*
X182734931Y-79163720D01*
X182443780Y-78872569D01*
X182063374Y-78715000D01*
X181651626Y-78715000D01*
X181271220Y-78872569D01*
X180980069Y-79163720D01*
X180822500Y-79544126D01*
X169392500Y-79544126D01*
X169234931Y-79163720D01*
X168943780Y-78872569D01*
X168563374Y-78715000D01*
X168151626Y-78715000D01*
X167771220Y-78872569D01*
X167480069Y-79163720D01*
X167322500Y-79544126D01*
X156392500Y-79544126D01*
X156234931Y-79163720D01*
X155943780Y-78872569D01*
X155563374Y-78715000D01*
X155151626Y-78715000D01*
X154771220Y-78872569D01*
X154480069Y-79163720D01*
X154322500Y-79544126D01*
X145296902Y-79544126D01*
X145105874Y-79465000D01*
X144694126Y-79465000D01*
X144313720Y-79622569D01*
X144022569Y-79913720D01*
X143865000Y-80294126D01*
X138935000Y-80294126D01*
X138935000Y-79994126D01*
X138777431Y-79613720D01*
X138486280Y-79322569D01*
X138335000Y-79259907D01*
X138335000Y-78860792D01*
X138177431Y-78480386D01*
X137991171Y-78294126D01*
X147465000Y-78294126D01*
X147465000Y-78705874D01*
X147622569Y-79086280D01*
X147913720Y-79377431D01*
X148294126Y-79535000D01*
X148705874Y-79535000D01*
X149086280Y-79377431D01*
X149377431Y-79086280D01*
X149535000Y-78705874D01*
X149535000Y-78294126D01*
X149456120Y-78103691D01*
X201345000Y-78103691D01*
X201345000Y-78794250D01*
X201503750Y-78953000D01*
X202703000Y-78953000D01*
X202703000Y-77753750D01*
X202957000Y-77753750D01*
X202957000Y-78953000D01*
X202977000Y-78953000D01*
X202977000Y-79207000D01*
X202957000Y-79207000D01*
X202957000Y-80406250D01*
X203115750Y-80565000D01*
X203806310Y-80565000D01*
X204039699Y-80468327D01*
X204218327Y-80289698D01*
X204284904Y-80128967D01*
X204299375Y-80150625D01*
X204790582Y-80478839D01*
X205223744Y-80565000D01*
X205516256Y-80565000D01*
X205949418Y-80478839D01*
X206440625Y-80150625D01*
X206768839Y-79659418D01*
X206884092Y-79080000D01*
X206768839Y-78500582D01*
X206440625Y-78009375D01*
X205949418Y-77681161D01*
X205516256Y-77595000D01*
X205223744Y-77595000D01*
X204790582Y-77681161D01*
X204299375Y-78009375D01*
X204284904Y-78031033D01*
X204218327Y-77870302D01*
X204039699Y-77691673D01*
X203806310Y-77595000D01*
X203115750Y-77595000D01*
X202957000Y-77753750D01*
X202703000Y-77753750D01*
X202544250Y-77595000D01*
X201853690Y-77595000D01*
X201620301Y-77691673D01*
X201441673Y-77870302D01*
X201345000Y-78103691D01*
X149456120Y-78103691D01*
X149377431Y-77913720D01*
X149086280Y-77622569D01*
X148705874Y-77465000D01*
X148294126Y-77465000D01*
X147913720Y-77622569D01*
X147622569Y-77913720D01*
X147465000Y-78294126D01*
X137991171Y-78294126D01*
X137886280Y-78189235D01*
X137505874Y-78031666D01*
X137235000Y-78031666D01*
X137235000Y-77904121D01*
X139844995Y-75294126D01*
X142565000Y-75294126D01*
X142565000Y-75705874D01*
X142722569Y-76086280D01*
X142772027Y-76135738D01*
X142665000Y-76394126D01*
X142665000Y-76805874D01*
X142822569Y-77186280D01*
X143113720Y-77477431D01*
X143494126Y-77635000D01*
X143905874Y-77635000D01*
X144286280Y-77477431D01*
X144577431Y-77186280D01*
X144735000Y-76805874D01*
X144735000Y-76394126D01*
X144577431Y-76013720D01*
X144527973Y-75964262D01*
X144635000Y-75705874D01*
X144635000Y-75294126D01*
X144477431Y-74913720D01*
X144186280Y-74622569D01*
X143805874Y-74465000D01*
X143394126Y-74465000D01*
X143013720Y-74622569D01*
X142722569Y-74913720D01*
X142565000Y-75294126D01*
X139844995Y-75294126D01*
X139853369Y-75285753D01*
X139912745Y-75246079D01*
X139952420Y-75186702D01*
X139952424Y-75186698D01*
X140069935Y-75010831D01*
X140069935Y-75010830D01*
X140069936Y-75010829D01*
X140111200Y-74803379D01*
X140111200Y-74803376D01*
X140125132Y-74733334D01*
X140111200Y-74663292D01*
X140111200Y-73902511D01*
X140277431Y-73736280D01*
X140435000Y-73355874D01*
X140435000Y-72944126D01*
X140277431Y-72563720D01*
X139986280Y-72272569D01*
X139627508Y-72123961D01*
X139635000Y-72105874D01*
X139635000Y-71694126D01*
X139477431Y-71313720D01*
X139186280Y-71022569D01*
X138805874Y-70865000D01*
X138394126Y-70865000D01*
X138013720Y-71022569D01*
X137722569Y-71313720D01*
X137565000Y-71694126D01*
X137565000Y-72001289D01*
X137486280Y-71922569D01*
X137105874Y-71765000D01*
X136694126Y-71765000D01*
X136313720Y-71922569D01*
X136022569Y-72213720D01*
X135865000Y-72594126D01*
X135865000Y-73005874D01*
X136022569Y-73386280D01*
X136313720Y-73677431D01*
X136694126Y-73835000D01*
X136865000Y-73835000D01*
X136865000Y-74105873D01*
X137022569Y-74486279D01*
X137313720Y-74777430D01*
X137694126Y-74934999D01*
X138105874Y-74934999D01*
X138253831Y-74873713D01*
X136229212Y-76898333D01*
X135994126Y-76898333D01*
X135613720Y-77055902D01*
X135458542Y-77211080D01*
X135105874Y-77065000D01*
X134694126Y-77065000D01*
X134313720Y-77222569D01*
X134022569Y-77513720D01*
X133865000Y-77894126D01*
X132935000Y-77894126D01*
X132935000Y-77594126D01*
X132777431Y-77213720D01*
X132486280Y-76922569D01*
X132105874Y-76765000D01*
X131694126Y-76765000D01*
X131313720Y-76922569D01*
X131022569Y-77213720D01*
X130865000Y-77594126D01*
X129315602Y-77594126D01*
X129435000Y-77305874D01*
X129435000Y-76894126D01*
X129277431Y-76513720D01*
X128986280Y-76222569D01*
X128605874Y-76065000D01*
X128194126Y-76065000D01*
X127813720Y-76222569D01*
X127522569Y-76513720D01*
X127365000Y-76894126D01*
X124185000Y-76894126D01*
X124185000Y-75194126D01*
X130965000Y-75194126D01*
X130965000Y-75605874D01*
X131122569Y-75986280D01*
X131413720Y-76277431D01*
X131794126Y-76435000D01*
X132205874Y-76435000D01*
X132586280Y-76277431D01*
X132877431Y-75986280D01*
X133022936Y-75635000D01*
X133305874Y-75635000D01*
X133686280Y-75477431D01*
X133977431Y-75186280D01*
X134135000Y-74805874D01*
X134135000Y-74394126D01*
X133977431Y-74013720D01*
X133686280Y-73722569D01*
X133305874Y-73565000D01*
X132894126Y-73565000D01*
X132513720Y-73722569D01*
X132222569Y-74013720D01*
X132077064Y-74365000D01*
X131794126Y-74365000D01*
X131413720Y-74522569D01*
X131122569Y-74813720D01*
X130965000Y-75194126D01*
X124185000Y-75194126D01*
X124185000Y-70006626D01*
X126065000Y-70006626D01*
X126065000Y-70418374D01*
X126222569Y-70798780D01*
X126513720Y-71089931D01*
X126894126Y-71247500D01*
X127305874Y-71247500D01*
X127686280Y-71089931D01*
X127977431Y-70798780D01*
X127979358Y-70794126D01*
X148865000Y-70794126D01*
X148865000Y-71205874D01*
X149022569Y-71586280D01*
X149313720Y-71877431D01*
X149694126Y-72035000D01*
X150105874Y-72035000D01*
X150486280Y-71877431D01*
X150777431Y-71586280D01*
X150935000Y-71205874D01*
X150935000Y-70794126D01*
X161965000Y-70794126D01*
X161965000Y-71205874D01*
X162122569Y-71586280D01*
X162413720Y-71877431D01*
X162794126Y-72035000D01*
X163205874Y-72035000D01*
X163586280Y-71877431D01*
X163877431Y-71586280D01*
X164035000Y-71205874D01*
X164035000Y-70794126D01*
X175465000Y-70794126D01*
X175465000Y-71205874D01*
X175622569Y-71586280D01*
X175913720Y-71877431D01*
X176294126Y-72035000D01*
X176705874Y-72035000D01*
X177086280Y-71877431D01*
X177377431Y-71586280D01*
X177535000Y-71205874D01*
X177535000Y-70794126D01*
X186965000Y-70794126D01*
X186965000Y-71205874D01*
X187122569Y-71586280D01*
X187413720Y-71877431D01*
X187794126Y-72035000D01*
X188205874Y-72035000D01*
X188586280Y-71877431D01*
X188877431Y-71586280D01*
X189035000Y-71205874D01*
X189035000Y-70794126D01*
X188877431Y-70413720D01*
X188586280Y-70122569D01*
X188205874Y-69965000D01*
X187794126Y-69965000D01*
X187413720Y-70122569D01*
X187122569Y-70413720D01*
X186965000Y-70794126D01*
X177535000Y-70794126D01*
X177377431Y-70413720D01*
X177086280Y-70122569D01*
X176705874Y-69965000D01*
X176294126Y-69965000D01*
X175913720Y-70122569D01*
X175622569Y-70413720D01*
X175465000Y-70794126D01*
X164035000Y-70794126D01*
X163877431Y-70413720D01*
X163586280Y-70122569D01*
X163205874Y-69965000D01*
X162794126Y-69965000D01*
X162413720Y-70122569D01*
X162122569Y-70413720D01*
X161965000Y-70794126D01*
X150935000Y-70794126D01*
X150777431Y-70413720D01*
X150486280Y-70122569D01*
X150105874Y-69965000D01*
X149694126Y-69965000D01*
X149313720Y-70122569D01*
X149022569Y-70413720D01*
X148865000Y-70794126D01*
X127979358Y-70794126D01*
X128135000Y-70418374D01*
X128135000Y-70006626D01*
X127977431Y-69626220D01*
X127686280Y-69335069D01*
X127305874Y-69177500D01*
X126894126Y-69177500D01*
X126513720Y-69335069D01*
X126222569Y-69626220D01*
X126065000Y-70006626D01*
X124185000Y-70006626D01*
X124185000Y-68894126D01*
X129065000Y-68894126D01*
X129065000Y-69305874D01*
X129222569Y-69686280D01*
X129513720Y-69977431D01*
X129894126Y-70135000D01*
X130305874Y-70135000D01*
X130686280Y-69977431D01*
X130977431Y-69686280D01*
X131135000Y-69305874D01*
X131135000Y-68894126D01*
X130977431Y-68513720D01*
X130686280Y-68222569D01*
X130305874Y-68065000D01*
X129894126Y-68065000D01*
X129513720Y-68222569D01*
X129222569Y-68513720D01*
X129065000Y-68894126D01*
X124185000Y-68894126D01*
X124185000Y-68167755D01*
X124858674Y-67494126D01*
X131065000Y-67494126D01*
X131065000Y-67905874D01*
X131222569Y-68286280D01*
X131513720Y-68577431D01*
X131894126Y-68735000D01*
X132305874Y-68735000D01*
X132686280Y-68577431D01*
X132977431Y-68286280D01*
X133135000Y-67905874D01*
X133135000Y-67494126D01*
X140865000Y-67494126D01*
X140865000Y-67905874D01*
X141022569Y-68286280D01*
X141313720Y-68577431D01*
X141694126Y-68735000D01*
X142105874Y-68735000D01*
X142486280Y-68577431D01*
X142777431Y-68286280D01*
X142935000Y-67905874D01*
X142935000Y-67494126D01*
X142777431Y-67113720D01*
X142486280Y-66822569D01*
X142105874Y-66665000D01*
X141694126Y-66665000D01*
X141313720Y-66822569D01*
X141022569Y-67113720D01*
X140865000Y-67494126D01*
X133135000Y-67494126D01*
X132977431Y-67113720D01*
X132686280Y-66822569D01*
X132305874Y-66665000D01*
X131894126Y-66665000D01*
X131513720Y-66822569D01*
X131222569Y-67113720D01*
X131065000Y-67494126D01*
X124858674Y-67494126D01*
X129113005Y-63240081D01*
X129150000Y-63247440D01*
X130850000Y-63247440D01*
X131097765Y-63198157D01*
X131307809Y-63057809D01*
X131448157Y-62847765D01*
X131457184Y-62802381D01*
X131469375Y-62820625D01*
X131960582Y-63148839D01*
X132393744Y-63235000D01*
X132686256Y-63235000D01*
X133119418Y-63148839D01*
X133610625Y-62820625D01*
X133810000Y-62522239D01*
X134009375Y-62820625D01*
X134500582Y-63148839D01*
X134933744Y-63235000D01*
X135226256Y-63235000D01*
X135659418Y-63148839D01*
X136150625Y-62820625D01*
X136350000Y-62522239D01*
X136549375Y-62820625D01*
X137040582Y-63148839D01*
X137473744Y-63235000D01*
X137766256Y-63235000D01*
X138199418Y-63148839D01*
X138690625Y-62820625D01*
X138890000Y-62522239D01*
X139089375Y-62820625D01*
X139580582Y-63148839D01*
X140013744Y-63235000D01*
X140306256Y-63235000D01*
X140739418Y-63148839D01*
X141230625Y-62820625D01*
X141430000Y-62522239D01*
X141629375Y-62820625D01*
X142120582Y-63148839D01*
X142553744Y-63235000D01*
X142846256Y-63235000D01*
X143279418Y-63148839D01*
X143770625Y-62820625D01*
X143970000Y-62522239D01*
X144169375Y-62820625D01*
X144660582Y-63148839D01*
X145093744Y-63235000D01*
X145386256Y-63235000D01*
X145819418Y-63148839D01*
X146310625Y-62820625D01*
X146510000Y-62522239D01*
X146709375Y-62820625D01*
X147200582Y-63148839D01*
X147633744Y-63235000D01*
X147926256Y-63235000D01*
X148359418Y-63148839D01*
X148850625Y-62820625D01*
X149050000Y-62522239D01*
X149249375Y-62820625D01*
X149740582Y-63148839D01*
X150173744Y-63235000D01*
X150466256Y-63235000D01*
X150899418Y-63148839D01*
X151390625Y-62820625D01*
X151590000Y-62522239D01*
X151789375Y-62820625D01*
X152280582Y-63148839D01*
X152713744Y-63235000D01*
X153006256Y-63235000D01*
X153439418Y-63148839D01*
X153930625Y-62820625D01*
X154130000Y-62522239D01*
X154329375Y-62820625D01*
X154820582Y-63148839D01*
X155253744Y-63235000D01*
X155546256Y-63235000D01*
X155979418Y-63148839D01*
X156470625Y-62820625D01*
X156670000Y-62522239D01*
X156869375Y-62820625D01*
X157360582Y-63148839D01*
X157793744Y-63235000D01*
X158086256Y-63235000D01*
X158519418Y-63148839D01*
X159010625Y-62820625D01*
X159210000Y-62522239D01*
X159409375Y-62820625D01*
X159900582Y-63148839D01*
X160333744Y-63235000D01*
X160626256Y-63235000D01*
X161059418Y-63148839D01*
X161550625Y-62820625D01*
X161750000Y-62522239D01*
X161949375Y-62820625D01*
X162440582Y-63148839D01*
X162873744Y-63235000D01*
X163166256Y-63235000D01*
X163599418Y-63148839D01*
X164090625Y-62820625D01*
X164303843Y-62501522D01*
X164364817Y-62631358D01*
X164793076Y-63021645D01*
X165203110Y-63191476D01*
X165433000Y-63070155D01*
X165433000Y-61877000D01*
X165413000Y-61877000D01*
X165413000Y-61623000D01*
X165433000Y-61623000D01*
X165433000Y-59337000D01*
X165413000Y-59337000D01*
X165413000Y-59083000D01*
X165433000Y-59083000D01*
X165433000Y-57889845D01*
X165687000Y-57889845D01*
X165687000Y-59083000D01*
X165707000Y-59083000D01*
X165707000Y-59337000D01*
X165687000Y-59337000D01*
X165687000Y-61623000D01*
X165707000Y-61623000D01*
X165707000Y-61877000D01*
X165687000Y-61877000D01*
X165687000Y-63070155D01*
X165916890Y-63191476D01*
X166326924Y-63021645D01*
X166755183Y-62631358D01*
X166816157Y-62501522D01*
X167029375Y-62820625D01*
X167520582Y-63148839D01*
X167953744Y-63235000D01*
X168246256Y-63235000D01*
X168679418Y-63148839D01*
X169170625Y-62820625D01*
X169383843Y-62501522D01*
X169444817Y-62631358D01*
X169873076Y-63021645D01*
X170283110Y-63191476D01*
X170513000Y-63070155D01*
X170513000Y-61877000D01*
X170493000Y-61877000D01*
X170493000Y-61623000D01*
X170513000Y-61623000D01*
X170513000Y-59337000D01*
X170493000Y-59337000D01*
X170493000Y-59083000D01*
X170513000Y-59083000D01*
X170513000Y-57889845D01*
X170767000Y-57889845D01*
X170767000Y-59083000D01*
X170787000Y-59083000D01*
X170787000Y-59337000D01*
X170767000Y-59337000D01*
X170767000Y-61623000D01*
X170787000Y-61623000D01*
X170787000Y-61877000D01*
X170767000Y-61877000D01*
X170767000Y-63070155D01*
X170996890Y-63191476D01*
X171406924Y-63021645D01*
X171835183Y-62631358D01*
X171896157Y-62501522D01*
X172109375Y-62820625D01*
X172600582Y-63148839D01*
X173033744Y-63235000D01*
X173326256Y-63235000D01*
X173759418Y-63148839D01*
X174250625Y-62820625D01*
X174450000Y-62522239D01*
X174649375Y-62820625D01*
X175140582Y-63148839D01*
X175573744Y-63235000D01*
X175866256Y-63235000D01*
X176299418Y-63148839D01*
X176790625Y-62820625D01*
X176990000Y-62522239D01*
X177189375Y-62820625D01*
X177680582Y-63148839D01*
X178113744Y-63235000D01*
X178406256Y-63235000D01*
X178839418Y-63148839D01*
X179330625Y-62820625D01*
X179530000Y-62522239D01*
X179729375Y-62820625D01*
X180220582Y-63148839D01*
X180653744Y-63235000D01*
X180946256Y-63235000D01*
X181379418Y-63148839D01*
X181870625Y-62820625D01*
X182070000Y-62522239D01*
X182269375Y-62820625D01*
X182760582Y-63148839D01*
X183193744Y-63235000D01*
X183486256Y-63235000D01*
X183919418Y-63148839D01*
X184410625Y-62820625D01*
X184610000Y-62522239D01*
X184809375Y-62820625D01*
X185300582Y-63148839D01*
X185733744Y-63235000D01*
X186026256Y-63235000D01*
X186459418Y-63148839D01*
X186950625Y-62820625D01*
X187150000Y-62522239D01*
X187349375Y-62820625D01*
X187840582Y-63148839D01*
X188273744Y-63235000D01*
X188566256Y-63235000D01*
X188999418Y-63148839D01*
X189490625Y-62820625D01*
X189690000Y-62522239D01*
X189889375Y-62820625D01*
X190380582Y-63148839D01*
X190813744Y-63235000D01*
X191106256Y-63235000D01*
X191539418Y-63148839D01*
X192030625Y-62820625D01*
X192230000Y-62522239D01*
X192429375Y-62820625D01*
X192920582Y-63148839D01*
X193353744Y-63235000D01*
X193646256Y-63235000D01*
X194079418Y-63148839D01*
X194570625Y-62820625D01*
X194770000Y-62522239D01*
X194969375Y-62820625D01*
X195460582Y-63148839D01*
X195893744Y-63235000D01*
X196186256Y-63235000D01*
X196619418Y-63148839D01*
X197110625Y-62820625D01*
X197310000Y-62522239D01*
X197509375Y-62820625D01*
X198000582Y-63148839D01*
X198433744Y-63235000D01*
X198726256Y-63235000D01*
X199159418Y-63148839D01*
X199650625Y-62820625D01*
X199850000Y-62522239D01*
X200049375Y-62820625D01*
X200540582Y-63148839D01*
X200973744Y-63235000D01*
X201266256Y-63235000D01*
X201699418Y-63148839D01*
X202190625Y-62820625D01*
X202390000Y-62522239D01*
X202589375Y-62820625D01*
X203080582Y-63148839D01*
X203513744Y-63235000D01*
X203806256Y-63235000D01*
X204239418Y-63148839D01*
X204730625Y-62820625D01*
X204930000Y-62522239D01*
X205129375Y-62820625D01*
X205620582Y-63148839D01*
X206053744Y-63235000D01*
X206346256Y-63235000D01*
X206779418Y-63148839D01*
X207270625Y-62820625D01*
X207470000Y-62522239D01*
X207669375Y-62820625D01*
X208160582Y-63148839D01*
X208593744Y-63235000D01*
X208886256Y-63235000D01*
X209319418Y-63148839D01*
X209810625Y-62820625D01*
X210138839Y-62329418D01*
X210254092Y-61750000D01*
X210138839Y-61170582D01*
X209810625Y-60679375D01*
X209512239Y-60480000D01*
X209810625Y-60280625D01*
X210138839Y-59789418D01*
X210254092Y-59210000D01*
X210138839Y-58630582D01*
X209810625Y-58139375D01*
X209319418Y-57811161D01*
X208886256Y-57725000D01*
X208593744Y-57725000D01*
X208160582Y-57811161D01*
X207669375Y-58139375D01*
X207470000Y-58437761D01*
X207270625Y-58139375D01*
X206779418Y-57811161D01*
X206346256Y-57725000D01*
X206053744Y-57725000D01*
X205620582Y-57811161D01*
X205129375Y-58139375D01*
X204930000Y-58437761D01*
X204730625Y-58139375D01*
X204239418Y-57811161D01*
X203806256Y-57725000D01*
X203513744Y-57725000D01*
X203080582Y-57811161D01*
X202589375Y-58139375D01*
X202390000Y-58437761D01*
X202190625Y-58139375D01*
X201699418Y-57811161D01*
X201266256Y-57725000D01*
X200973744Y-57725000D01*
X200540582Y-57811161D01*
X200049375Y-58139375D01*
X199850000Y-58437761D01*
X199650625Y-58139375D01*
X199159418Y-57811161D01*
X198726256Y-57725000D01*
X198433744Y-57725000D01*
X198000582Y-57811161D01*
X197509375Y-58139375D01*
X197310000Y-58437761D01*
X197110625Y-58139375D01*
X196619418Y-57811161D01*
X196186256Y-57725000D01*
X195893744Y-57725000D01*
X195460582Y-57811161D01*
X194969375Y-58139375D01*
X194770000Y-58437761D01*
X194570625Y-58139375D01*
X194079418Y-57811161D01*
X193646256Y-57725000D01*
X193353744Y-57725000D01*
X192920582Y-57811161D01*
X192429375Y-58139375D01*
X192230000Y-58437761D01*
X192030625Y-58139375D01*
X191539418Y-57811161D01*
X191106256Y-57725000D01*
X190813744Y-57725000D01*
X190380582Y-57811161D01*
X189889375Y-58139375D01*
X189690000Y-58437761D01*
X189490625Y-58139375D01*
X188999418Y-57811161D01*
X188566256Y-57725000D01*
X188273744Y-57725000D01*
X187840582Y-57811161D01*
X187349375Y-58139375D01*
X187150000Y-58437761D01*
X186950625Y-58139375D01*
X186459418Y-57811161D01*
X186026256Y-57725000D01*
X185733744Y-57725000D01*
X185300582Y-57811161D01*
X184809375Y-58139375D01*
X184610000Y-58437761D01*
X184410625Y-58139375D01*
X183919418Y-57811161D01*
X183486256Y-57725000D01*
X183193744Y-57725000D01*
X182760582Y-57811161D01*
X182269375Y-58139375D01*
X182070000Y-58437761D01*
X181870625Y-58139375D01*
X181379418Y-57811161D01*
X180946256Y-57725000D01*
X180653744Y-57725000D01*
X180220582Y-57811161D01*
X179729375Y-58139375D01*
X179530000Y-58437761D01*
X179330625Y-58139375D01*
X178839418Y-57811161D01*
X178406256Y-57725000D01*
X178113744Y-57725000D01*
X177680582Y-57811161D01*
X177189375Y-58139375D01*
X176990000Y-58437761D01*
X176790625Y-58139375D01*
X176299418Y-57811161D01*
X175866256Y-57725000D01*
X175573744Y-57725000D01*
X175140582Y-57811161D01*
X174649375Y-58139375D01*
X174450000Y-58437761D01*
X174250625Y-58139375D01*
X173759418Y-57811161D01*
X173326256Y-57725000D01*
X173033744Y-57725000D01*
X172600582Y-57811161D01*
X172109375Y-58139375D01*
X171896157Y-58458478D01*
X171835183Y-58328642D01*
X171406924Y-57938355D01*
X170996890Y-57768524D01*
X170767000Y-57889845D01*
X170513000Y-57889845D01*
X170283110Y-57768524D01*
X169873076Y-57938355D01*
X169444817Y-58328642D01*
X169383843Y-58458478D01*
X169170625Y-58139375D01*
X168679418Y-57811161D01*
X168246256Y-57725000D01*
X167953744Y-57725000D01*
X167520582Y-57811161D01*
X167029375Y-58139375D01*
X166816157Y-58458478D01*
X166755183Y-58328642D01*
X166326924Y-57938355D01*
X165916890Y-57768524D01*
X165687000Y-57889845D01*
X165433000Y-57889845D01*
X165203110Y-57768524D01*
X164793076Y-57938355D01*
X164364817Y-58328642D01*
X164303843Y-58458478D01*
X164090625Y-58139375D01*
X163599418Y-57811161D01*
X163166256Y-57725000D01*
X162873744Y-57725000D01*
X162440582Y-57811161D01*
X161949375Y-58139375D01*
X161750000Y-58437761D01*
X161550625Y-58139375D01*
X161059418Y-57811161D01*
X160626256Y-57725000D01*
X160333744Y-57725000D01*
X159900582Y-57811161D01*
X159409375Y-58139375D01*
X159210000Y-58437761D01*
X159010625Y-58139375D01*
X158519418Y-57811161D01*
X158086256Y-57725000D01*
X157793744Y-57725000D01*
X157360582Y-57811161D01*
X156869375Y-58139375D01*
X156670000Y-58437761D01*
X156470625Y-58139375D01*
X155979418Y-57811161D01*
X155546256Y-57725000D01*
X155253744Y-57725000D01*
X154820582Y-57811161D01*
X154329375Y-58139375D01*
X154130000Y-58437761D01*
X153930625Y-58139375D01*
X153439418Y-57811161D01*
X153006256Y-57725000D01*
X152713744Y-57725000D01*
X152280582Y-57811161D01*
X151789375Y-58139375D01*
X151590000Y-58437761D01*
X151390625Y-58139375D01*
X150899418Y-57811161D01*
X150466256Y-57725000D01*
X150173744Y-57725000D01*
X149740582Y-57811161D01*
X149249375Y-58139375D01*
X149050000Y-58437761D01*
X148850625Y-58139375D01*
X148359418Y-57811161D01*
X147926256Y-57725000D01*
X147633744Y-57725000D01*
X147200582Y-57811161D01*
X146709375Y-58139375D01*
X146510000Y-58437761D01*
X146310625Y-58139375D01*
X145819418Y-57811161D01*
X145386256Y-57725000D01*
X145093744Y-57725000D01*
X144660582Y-57811161D01*
X144169375Y-58139375D01*
X143970000Y-58437761D01*
X143770625Y-58139375D01*
X143279418Y-57811161D01*
X142846256Y-57725000D01*
X142553744Y-57725000D01*
X142120582Y-57811161D01*
X141629375Y-58139375D01*
X141430000Y-58437761D01*
X141230625Y-58139375D01*
X140739418Y-57811161D01*
X140306256Y-57725000D01*
X140013744Y-57725000D01*
X139580582Y-57811161D01*
X139089375Y-58139375D01*
X138890000Y-58437761D01*
X138690625Y-58139375D01*
X138199418Y-57811161D01*
X137766256Y-57725000D01*
X137473744Y-57725000D01*
X137040582Y-57811161D01*
X136549375Y-58139375D01*
X136350000Y-58437761D01*
X136150625Y-58139375D01*
X135659418Y-57811161D01*
X135226256Y-57725000D01*
X134933744Y-57725000D01*
X134500582Y-57811161D01*
X134009375Y-58139375D01*
X133810000Y-58437761D01*
X133610625Y-58139375D01*
X133119418Y-57811161D01*
X132686256Y-57725000D01*
X132393744Y-57725000D01*
X131960582Y-57811161D01*
X131469375Y-58139375D01*
X131270000Y-58437761D01*
X131070625Y-58139375D01*
X130579418Y-57811161D01*
X130146256Y-57725000D01*
X129853744Y-57725000D01*
X129420582Y-57811161D01*
X128929375Y-58139375D01*
X128601161Y-58630582D01*
X128508513Y-59096355D01*
X128274479Y-59330389D01*
X128179712Y-59393711D01*
X128006558Y-59652855D01*
X127928854Y-59769146D01*
X127840765Y-60212000D01*
X127863000Y-60323783D01*
X127863000Y-61279845D01*
X122326496Y-66815978D01*
X122231711Y-66879311D01*
X122098284Y-67078999D01*
X121980869Y-67254710D01*
X121980865Y-67254729D01*
X121980854Y-67254746D01*
X121936827Y-67476084D01*
X121892765Y-67697562D01*
X121915000Y-67809365D01*
X121915001Y-86428213D01*
X121915000Y-86428218D01*
X121915001Y-89638212D01*
X121892765Y-89750000D01*
X121980854Y-90192854D01*
X121980855Y-90192855D01*
X122231712Y-90568289D01*
X122326479Y-90631611D01*
X124206475Y-92511608D01*
X124206481Y-92511612D01*
X125205001Y-93510132D01*
X125205000Y-94060958D01*
X125144659Y-94121299D01*
X125070000Y-94301542D01*
X124995341Y-94121299D01*
X124598701Y-93724659D01*
X124080467Y-93510000D01*
X123519533Y-93510000D01*
X123001299Y-93724659D01*
X122604659Y-94121299D01*
X122530000Y-94301542D01*
X122455341Y-94121299D01*
X122058701Y-93724659D01*
X121540467Y-93510000D01*
X120979533Y-93510000D01*
X120461299Y-93724659D01*
X120064659Y-94121299D01*
X119850000Y-94639533D01*
X119850000Y-95200467D01*
X120064659Y-95718701D01*
X120461299Y-96115341D01*
X120641542Y-96190000D01*
X120461299Y-96264659D01*
X120064659Y-96661299D01*
X120048629Y-96700000D01*
X119374802Y-96700000D01*
X118560000Y-95885199D01*
X118560000Y-86474846D01*
X118574888Y-86399999D01*
X118560000Y-86325152D01*
X118560000Y-86325148D01*
X118515904Y-86103463D01*
X118430672Y-85975904D01*
X118390329Y-85915526D01*
X118390327Y-85915524D01*
X118347929Y-85852071D01*
X118284475Y-85809673D01*
X117250331Y-84775530D01*
X117207929Y-84712071D01*
X116956537Y-84544096D01*
X116734852Y-84500000D01*
X116734847Y-84500000D01*
X116731831Y-84499400D01*
X116515044Y-84174956D01*
X116238238Y-83990000D01*
X116515044Y-83805044D01*
X116847678Y-83307222D01*
X116964484Y-82720000D01*
X116847678Y-82132778D01*
X116515044Y-81634956D01*
X116017222Y-81302322D01*
X115578226Y-81215000D01*
X114821774Y-81215000D01*
X114382778Y-81302322D01*
X113884956Y-81634956D01*
X113627000Y-82021014D01*
X113627000Y-76639342D01*
X113810460Y-76845349D01*
X114270598Y-77067920D01*
X114473000Y-76945090D01*
X114473000Y-75927000D01*
X114453000Y-75927000D01*
X114453000Y-75673000D01*
X114473000Y-75673000D01*
X114473000Y-75653000D01*
X114727000Y-75653000D01*
X114727000Y-75673000D01*
X114747000Y-75673000D01*
X114747000Y-75927000D01*
X114727000Y-75927000D01*
X114727000Y-76945090D01*
X114929402Y-77067920D01*
X115389540Y-76845349D01*
X115400516Y-76833024D01*
X115467191Y-76932809D01*
X115677235Y-77073157D01*
X115925000Y-77122440D01*
X117275000Y-77122440D01*
X117522765Y-77073157D01*
X117732809Y-76932809D01*
X117873157Y-76722765D01*
X117922440Y-76475000D01*
X117922440Y-75125000D01*
X117873157Y-74877235D01*
X117732809Y-74667191D01*
X117638286Y-74604032D01*
X117833993Y-74311136D01*
X117935664Y-73800000D01*
X117833993Y-73288864D01*
X117544457Y-72855543D01*
X117461331Y-72800000D01*
X117544457Y-72744457D01*
X117833993Y-72311136D01*
X117935664Y-71800000D01*
X117833993Y-71288864D01*
X117544457Y-70855543D01*
X117461331Y-70800000D01*
X117544457Y-70744457D01*
X117833993Y-70311136D01*
X117935664Y-69800000D01*
X117833993Y-69288864D01*
X117544457Y-68855543D01*
X117461331Y-68800000D01*
X117544457Y-68744457D01*
X117644905Y-68594126D01*
X119565000Y-68594126D01*
X119565000Y-69005874D01*
X119722569Y-69386280D01*
X120013720Y-69677431D01*
X120394126Y-69835000D01*
X120805874Y-69835000D01*
X121186280Y-69677431D01*
X121477431Y-69386280D01*
X121635000Y-69005874D01*
X121635000Y-68594126D01*
X121477431Y-68213720D01*
X121186280Y-67922569D01*
X120805874Y-67765000D01*
X120394126Y-67765000D01*
X120013720Y-67922569D01*
X119722569Y-68213720D01*
X119565000Y-68594126D01*
X117644905Y-68594126D01*
X117833993Y-68311136D01*
X117935664Y-67800000D01*
X117833993Y-67288864D01*
X117544457Y-66855543D01*
X117461331Y-66800000D01*
X117544457Y-66744457D01*
X117833993Y-66311136D01*
X117935664Y-65800000D01*
X117833993Y-65288864D01*
X117544457Y-64855543D01*
X117461331Y-64800000D01*
X117544457Y-64744457D01*
X117833993Y-64311136D01*
X117935664Y-63800000D01*
X117833993Y-63288864D01*
X117544457Y-62855543D01*
X117111136Y-62566007D01*
X116729022Y-62490000D01*
X116470978Y-62490000D01*
X116088864Y-62566007D01*
X115655543Y-62855543D01*
X115600000Y-62938669D01*
X115544457Y-62855543D01*
X115111136Y-62566007D01*
X114729022Y-62490000D01*
X114470978Y-62490000D01*
X114088864Y-62566007D01*
X113655543Y-62855543D01*
X113627000Y-62898261D01*
X113627000Y-55554126D01*
X167785000Y-55554126D01*
X167785000Y-55965874D01*
X167942569Y-56346280D01*
X168233720Y-56637431D01*
X168614126Y-56795000D01*
X169025874Y-56795000D01*
X169406280Y-56637431D01*
X169697431Y-56346280D01*
X169855000Y-55965874D01*
X169855000Y-55554126D01*
X169697431Y-55173720D01*
X169406280Y-54882569D01*
X169025874Y-54725000D01*
X168614126Y-54725000D01*
X168233720Y-54882569D01*
X167942569Y-55173720D01*
X167785000Y-55554126D01*
X113627000Y-55554126D01*
X113627000Y-53124126D01*
X221315000Y-53124126D01*
X221315000Y-53535874D01*
X221472569Y-53916280D01*
X221763720Y-54207431D01*
X222144126Y-54365000D01*
X222555874Y-54365000D01*
X222936280Y-54207431D01*
X223227431Y-53916280D01*
X223385000Y-53535874D01*
X223385000Y-53124126D01*
X223227431Y-52743720D01*
X222936280Y-52452569D01*
X222555874Y-52295000D01*
X222144126Y-52295000D01*
X221763720Y-52452569D01*
X221472569Y-52743720D01*
X221315000Y-53124126D01*
X113627000Y-53124126D01*
X113627000Y-47169126D01*
X223475000Y-47169126D01*
X223475000Y-47580874D01*
X223632569Y-47961280D01*
X223923720Y-48252431D01*
X224304126Y-48410000D01*
X224715874Y-48410000D01*
X225096280Y-48252431D01*
X225387431Y-47961280D01*
X225545000Y-47580874D01*
X225545000Y-47169126D01*
X232465000Y-47169126D01*
X232465000Y-47580874D01*
X232622569Y-47961280D01*
X232913720Y-48252431D01*
X233294126Y-48410000D01*
X233705874Y-48410000D01*
X234086280Y-48252431D01*
X234377431Y-47961280D01*
X234535000Y-47580874D01*
X234535000Y-47169126D01*
X234377431Y-46788720D01*
X234086280Y-46497569D01*
X233705874Y-46340000D01*
X233294126Y-46340000D01*
X232913720Y-46497569D01*
X232622569Y-46788720D01*
X232465000Y-47169126D01*
X225545000Y-47169126D01*
X225387431Y-46788720D01*
X225096280Y-46497569D01*
X224715874Y-46340000D01*
X224304126Y-46340000D01*
X223923720Y-46497569D01*
X223632569Y-46788720D01*
X223475000Y-47169126D01*
X113627000Y-47169126D01*
X113627000Y-42356626D01*
X232005000Y-42356626D01*
X232005000Y-42768374D01*
X232162569Y-43148780D01*
X232453720Y-43439931D01*
X232834126Y-43597500D01*
X233245874Y-43597500D01*
X233626280Y-43439931D01*
X233917431Y-43148780D01*
X234075000Y-42768374D01*
X234075000Y-42356626D01*
X233917431Y-41976220D01*
X233626280Y-41685069D01*
X233245874Y-41527500D01*
X232834126Y-41527500D01*
X232453720Y-41685069D01*
X232162569Y-41976220D01*
X232005000Y-42356626D01*
X113627000Y-42356626D01*
X113627000Y-40081626D01*
X247805000Y-40081626D01*
X247805000Y-40493374D01*
X247962569Y-40873780D01*
X248253720Y-41164931D01*
X248634126Y-41322500D01*
X249045874Y-41322500D01*
X249426280Y-41164931D01*
X249717431Y-40873780D01*
X249875000Y-40493374D01*
X249875000Y-40081626D01*
X249717431Y-39701220D01*
X249426280Y-39410069D01*
X249045874Y-39252500D01*
X248634126Y-39252500D01*
X248253720Y-39410069D01*
X247962569Y-39701220D01*
X247805000Y-40081626D01*
X113627000Y-40081626D01*
X113627000Y-36964126D01*
X236937500Y-36964126D01*
X236937500Y-37375874D01*
X237095069Y-37756280D01*
X237386220Y-38047431D01*
X237766626Y-38205000D01*
X238178374Y-38205000D01*
X238558780Y-38047431D01*
X238849931Y-37756280D01*
X239007500Y-37375874D01*
X239007500Y-36964126D01*
X238849931Y-36583720D01*
X238558780Y-36292569D01*
X238178374Y-36135000D01*
X237766626Y-36135000D01*
X237386220Y-36292569D01*
X237095069Y-36583720D01*
X236937500Y-36964126D01*
X113627000Y-36964126D01*
X113627000Y-20800000D01*
X120385908Y-20800000D01*
X120501161Y-21379418D01*
X120829375Y-21870625D01*
X121127761Y-22070000D01*
X120829375Y-22269375D01*
X120501161Y-22760582D01*
X120385908Y-23340000D01*
X120501161Y-23919418D01*
X120829375Y-24410625D01*
X121127761Y-24610000D01*
X120829375Y-24809375D01*
X120501161Y-25300582D01*
X120385908Y-25880000D01*
X120501161Y-26459418D01*
X120829375Y-26950625D01*
X121127761Y-27150000D01*
X120829375Y-27349375D01*
X120501161Y-27840582D01*
X120385908Y-28420000D01*
X120501161Y-28999418D01*
X120829375Y-29490625D01*
X121127761Y-29690000D01*
X120829375Y-29889375D01*
X120501161Y-30380582D01*
X120385908Y-30960000D01*
X120501161Y-31539418D01*
X120829375Y-32030625D01*
X120847619Y-32042816D01*
X120802235Y-32051843D01*
X120592191Y-32192191D01*
X120451843Y-32402235D01*
X120402560Y-32650000D01*
X120402560Y-34350000D01*
X120451843Y-34597765D01*
X120592191Y-34807809D01*
X120802235Y-34948157D01*
X121050000Y-34997440D01*
X122750000Y-34997440D01*
X122867208Y-34974126D01*
X242735000Y-34974126D01*
X242735000Y-35385874D01*
X242892569Y-35766280D01*
X243183720Y-36057431D01*
X243564126Y-36215000D01*
X243975874Y-36215000D01*
X244356280Y-36057431D01*
X244647431Y-35766280D01*
X244805000Y-35385874D01*
X244805000Y-34974126D01*
X244647431Y-34593720D01*
X244517838Y-34464127D01*
X247635000Y-34464127D01*
X247635000Y-34875875D01*
X247792569Y-35256281D01*
X248083720Y-35547432D01*
X248464126Y-35705001D01*
X248875874Y-35705001D01*
X249256280Y-35547432D01*
X249547431Y-35256281D01*
X249705000Y-34875875D01*
X249705000Y-34524126D01*
X250815000Y-34524126D01*
X250815000Y-34935874D01*
X250972569Y-35316280D01*
X251251289Y-35595000D01*
X250972569Y-35873720D01*
X250815000Y-36254126D01*
X250815000Y-36665874D01*
X250972569Y-37046280D01*
X251263720Y-37337431D01*
X251644126Y-37495000D01*
X252055874Y-37495000D01*
X252436280Y-37337431D01*
X252727431Y-37046280D01*
X252885000Y-36665874D01*
X252885000Y-36254126D01*
X252727431Y-35873720D01*
X252448711Y-35595000D01*
X252727431Y-35316280D01*
X252885000Y-34935874D01*
X252885000Y-34524126D01*
X252727431Y-34143720D01*
X252436280Y-33852569D01*
X252055874Y-33695000D01*
X251644126Y-33695000D01*
X251263720Y-33852569D01*
X250972569Y-34143720D01*
X250815000Y-34524126D01*
X249705000Y-34524126D01*
X249705000Y-34464127D01*
X249547431Y-34083721D01*
X249256280Y-33792570D01*
X248875874Y-33635001D01*
X248464126Y-33635001D01*
X248083720Y-33792570D01*
X247792569Y-34083721D01*
X247635000Y-34464127D01*
X244517838Y-34464127D01*
X244356280Y-34302569D01*
X243975874Y-34145000D01*
X243564126Y-34145000D01*
X243183720Y-34302569D01*
X242892569Y-34593720D01*
X242735000Y-34974126D01*
X122867208Y-34974126D01*
X122997765Y-34948157D01*
X123207809Y-34807809D01*
X123348157Y-34597765D01*
X123397440Y-34350000D01*
X123397440Y-32650000D01*
X123348157Y-32402235D01*
X123207809Y-32192191D01*
X122997765Y-32051843D01*
X122952381Y-32042816D01*
X122970625Y-32030625D01*
X123298839Y-31539418D01*
X123414092Y-30960000D01*
X123298839Y-30380582D01*
X122970625Y-29889375D01*
X122672239Y-29690000D01*
X122970625Y-29490625D01*
X123298839Y-28999418D01*
X123414092Y-28420000D01*
X123298839Y-27840582D01*
X123044543Y-27460000D01*
X128485908Y-27460000D01*
X128601161Y-28039418D01*
X128929375Y-28530625D01*
X128947619Y-28542816D01*
X128902235Y-28551843D01*
X128692191Y-28692191D01*
X128551843Y-28902235D01*
X128502560Y-29150000D01*
X128502560Y-30850000D01*
X128551843Y-31097765D01*
X128692191Y-31307809D01*
X128902235Y-31448157D01*
X129150000Y-31497440D01*
X130850000Y-31497440D01*
X131097765Y-31448157D01*
X131307809Y-31307809D01*
X131448157Y-31097765D01*
X131457184Y-31052381D01*
X131469375Y-31070625D01*
X131960582Y-31398839D01*
X132393744Y-31485000D01*
X132686256Y-31485000D01*
X133119418Y-31398839D01*
X133610625Y-31070625D01*
X133810000Y-30772239D01*
X134009375Y-31070625D01*
X134500582Y-31398839D01*
X134933744Y-31485000D01*
X135226256Y-31485000D01*
X135659418Y-31398839D01*
X136150625Y-31070625D01*
X136350000Y-30772239D01*
X136549375Y-31070625D01*
X137040582Y-31398839D01*
X137473744Y-31485000D01*
X137766256Y-31485000D01*
X138199418Y-31398839D01*
X138690625Y-31070625D01*
X138890000Y-30772239D01*
X139089375Y-31070625D01*
X139580582Y-31398839D01*
X140013744Y-31485000D01*
X140306256Y-31485000D01*
X140739418Y-31398839D01*
X141230625Y-31070625D01*
X141430000Y-30772239D01*
X141629375Y-31070625D01*
X142120582Y-31398839D01*
X142553744Y-31485000D01*
X142846256Y-31485000D01*
X143279418Y-31398839D01*
X143770625Y-31070625D01*
X143970000Y-30772239D01*
X144169375Y-31070625D01*
X144660582Y-31398839D01*
X145093744Y-31485000D01*
X145386256Y-31485000D01*
X145819418Y-31398839D01*
X146310625Y-31070625D01*
X146510000Y-30772239D01*
X146709375Y-31070625D01*
X147200582Y-31398839D01*
X147633744Y-31485000D01*
X147926256Y-31485000D01*
X148359418Y-31398839D01*
X148850625Y-31070625D01*
X149050000Y-30772239D01*
X149249375Y-31070625D01*
X149740582Y-31398839D01*
X150173744Y-31485000D01*
X150466256Y-31485000D01*
X150899418Y-31398839D01*
X151390625Y-31070625D01*
X151590000Y-30772239D01*
X151789375Y-31070625D01*
X152280582Y-31398839D01*
X152713744Y-31485000D01*
X153006256Y-31485000D01*
X153439418Y-31398839D01*
X153930625Y-31070625D01*
X154130000Y-30772239D01*
X154329375Y-31070625D01*
X154820582Y-31398839D01*
X155253744Y-31485000D01*
X155546256Y-31485000D01*
X155979418Y-31398839D01*
X156470625Y-31070625D01*
X156670000Y-30772239D01*
X156869375Y-31070625D01*
X157360582Y-31398839D01*
X157793744Y-31485000D01*
X158086256Y-31485000D01*
X158519418Y-31398839D01*
X159010625Y-31070625D01*
X159210000Y-30772239D01*
X159409375Y-31070625D01*
X159900582Y-31398839D01*
X160333744Y-31485000D01*
X160626256Y-31485000D01*
X161059418Y-31398839D01*
X161550625Y-31070625D01*
X161750000Y-30772239D01*
X161949375Y-31070625D01*
X162440582Y-31398839D01*
X162873744Y-31485000D01*
X163166256Y-31485000D01*
X163599418Y-31398839D01*
X164090625Y-31070625D01*
X164290000Y-30772239D01*
X164489375Y-31070625D01*
X164980582Y-31398839D01*
X165413744Y-31485000D01*
X165706256Y-31485000D01*
X166139418Y-31398839D01*
X166630625Y-31070625D01*
X166843843Y-30751522D01*
X166904817Y-30881358D01*
X167333076Y-31271645D01*
X167743110Y-31441476D01*
X167973000Y-31320155D01*
X167973000Y-30127000D01*
X167953000Y-30127000D01*
X167953000Y-29873000D01*
X167973000Y-29873000D01*
X167973000Y-27587000D01*
X167953000Y-27587000D01*
X167953000Y-27333000D01*
X167973000Y-27333000D01*
X167973000Y-26139845D01*
X168227000Y-26139845D01*
X168227000Y-27333000D01*
X168247000Y-27333000D01*
X168247000Y-27587000D01*
X168227000Y-27587000D01*
X168227000Y-29873000D01*
X168247000Y-29873000D01*
X168247000Y-30127000D01*
X168227000Y-30127000D01*
X168227000Y-31320155D01*
X168456890Y-31441476D01*
X168866924Y-31271645D01*
X169295183Y-30881358D01*
X169356157Y-30751522D01*
X169569375Y-31070625D01*
X170060582Y-31398839D01*
X170493744Y-31485000D01*
X170786256Y-31485000D01*
X171219418Y-31398839D01*
X171710625Y-31070625D01*
X171923843Y-30751522D01*
X171984817Y-30881358D01*
X172413076Y-31271645D01*
X172823110Y-31441476D01*
X173053000Y-31320155D01*
X173053000Y-30127000D01*
X173033000Y-30127000D01*
X173033000Y-29873000D01*
X173053000Y-29873000D01*
X173053000Y-27587000D01*
X173033000Y-27587000D01*
X173033000Y-27333000D01*
X173053000Y-27333000D01*
X173053000Y-26139845D01*
X173307000Y-26139845D01*
X173307000Y-27333000D01*
X173327000Y-27333000D01*
X173327000Y-27587000D01*
X173307000Y-27587000D01*
X173307000Y-29873000D01*
X173327000Y-29873000D01*
X173327000Y-30127000D01*
X173307000Y-30127000D01*
X173307000Y-31320155D01*
X173536890Y-31441476D01*
X173946924Y-31271645D01*
X174375183Y-30881358D01*
X174436157Y-30751522D01*
X174649375Y-31070625D01*
X175140582Y-31398839D01*
X175573744Y-31485000D01*
X175866256Y-31485000D01*
X176299418Y-31398839D01*
X176790625Y-31070625D01*
X176990000Y-30772239D01*
X177189375Y-31070625D01*
X177680582Y-31398839D01*
X178113744Y-31485000D01*
X178406256Y-31485000D01*
X178839418Y-31398839D01*
X179330625Y-31070625D01*
X179530000Y-30772239D01*
X179729375Y-31070625D01*
X180220582Y-31398839D01*
X180653744Y-31485000D01*
X180946256Y-31485000D01*
X181379418Y-31398839D01*
X181870625Y-31070625D01*
X182070000Y-30772239D01*
X182269375Y-31070625D01*
X182760582Y-31398839D01*
X183193744Y-31485000D01*
X183486256Y-31485000D01*
X183919418Y-31398839D01*
X184410625Y-31070625D01*
X184610000Y-30772239D01*
X184809375Y-31070625D01*
X185300582Y-31398839D01*
X185733744Y-31485000D01*
X186026256Y-31485000D01*
X186459418Y-31398839D01*
X186950625Y-31070625D01*
X187150000Y-30772239D01*
X187349375Y-31070625D01*
X187840582Y-31398839D01*
X188273744Y-31485000D01*
X188566256Y-31485000D01*
X188999418Y-31398839D01*
X189490625Y-31070625D01*
X189690000Y-30772239D01*
X189889375Y-31070625D01*
X190380582Y-31398839D01*
X190813744Y-31485000D01*
X191106256Y-31485000D01*
X191539418Y-31398839D01*
X192030625Y-31070625D01*
X192230000Y-30772239D01*
X192429375Y-31070625D01*
X192920582Y-31398839D01*
X193353744Y-31485000D01*
X193646256Y-31485000D01*
X194079418Y-31398839D01*
X194570625Y-31070625D01*
X194770000Y-30772239D01*
X194969375Y-31070625D01*
X195460582Y-31398839D01*
X195893744Y-31485000D01*
X196186256Y-31485000D01*
X196619418Y-31398839D01*
X197110625Y-31070625D01*
X197310000Y-30772239D01*
X197509375Y-31070625D01*
X198000582Y-31398839D01*
X198433744Y-31485000D01*
X198726256Y-31485000D01*
X199159418Y-31398839D01*
X199650625Y-31070625D01*
X199850000Y-30772239D01*
X200049375Y-31070625D01*
X200540582Y-31398839D01*
X200973744Y-31485000D01*
X201266256Y-31485000D01*
X201699418Y-31398839D01*
X202190625Y-31070625D01*
X202390000Y-30772239D01*
X202589375Y-31070625D01*
X203080582Y-31398839D01*
X203513744Y-31485000D01*
X203806256Y-31485000D01*
X204239418Y-31398839D01*
X204730625Y-31070625D01*
X204930000Y-30772239D01*
X205129375Y-31070625D01*
X205620582Y-31398839D01*
X206053744Y-31485000D01*
X206346256Y-31485000D01*
X206779418Y-31398839D01*
X207270625Y-31070625D01*
X207470000Y-30772239D01*
X207669375Y-31070625D01*
X208160582Y-31398839D01*
X208593744Y-31485000D01*
X208886256Y-31485000D01*
X209319418Y-31398839D01*
X209810625Y-31070625D01*
X210138839Y-30579418D01*
X210254092Y-30000000D01*
X210138839Y-29420582D01*
X209810625Y-28929375D01*
X209512239Y-28730000D01*
X209810625Y-28530625D01*
X210138839Y-28039418D01*
X210246135Y-27500000D01*
X214894336Y-27500000D01*
X214996007Y-28011136D01*
X215285543Y-28444457D01*
X215368669Y-28500000D01*
X215285543Y-28555543D01*
X214996007Y-28988864D01*
X214894336Y-29500000D01*
X214996007Y-30011136D01*
X215285543Y-30444457D01*
X215718864Y-30733993D01*
X216100978Y-30810000D01*
X216359022Y-30810000D01*
X216741136Y-30733993D01*
X217174457Y-30444457D01*
X217230000Y-30361331D01*
X217285543Y-30444457D01*
X217718864Y-30733993D01*
X218100978Y-30810000D01*
X218359022Y-30810000D01*
X218741136Y-30733993D01*
X219174457Y-30444457D01*
X219230000Y-30361331D01*
X219285543Y-30444457D01*
X219718864Y-30733993D01*
X220100978Y-30810000D01*
X220359022Y-30810000D01*
X220741136Y-30733993D01*
X221174457Y-30444457D01*
X221230000Y-30361331D01*
X221285543Y-30444457D01*
X221718864Y-30733993D01*
X222100978Y-30810000D01*
X222359022Y-30810000D01*
X222741136Y-30733993D01*
X223174457Y-30444457D01*
X223230000Y-30361331D01*
X223285543Y-30444457D01*
X223718864Y-30733993D01*
X224100978Y-30810000D01*
X224359022Y-30810000D01*
X224741136Y-30733993D01*
X225174457Y-30444457D01*
X225230000Y-30361331D01*
X225285543Y-30444457D01*
X225718864Y-30733993D01*
X226100978Y-30810000D01*
X226359022Y-30810000D01*
X226741136Y-30733993D01*
X227174457Y-30444457D01*
X227230000Y-30361331D01*
X227285543Y-30444457D01*
X227718864Y-30733993D01*
X228100978Y-30810000D01*
X228359022Y-30810000D01*
X228741136Y-30733993D01*
X229174457Y-30444457D01*
X229463993Y-30011136D01*
X229473343Y-29964126D01*
X241835000Y-29964126D01*
X241835000Y-30375874D01*
X241992569Y-30756280D01*
X242283720Y-31047431D01*
X242664126Y-31205000D01*
X243075874Y-31205000D01*
X243456280Y-31047431D01*
X243747431Y-30756280D01*
X243905000Y-30375874D01*
X243905000Y-29964126D01*
X243747431Y-29583720D01*
X243467837Y-29304126D01*
X245985000Y-29304126D01*
X245985000Y-29715874D01*
X246142569Y-30096280D01*
X246433720Y-30387431D01*
X246814126Y-30545000D01*
X247225874Y-30545000D01*
X247606280Y-30387431D01*
X247897431Y-30096280D01*
X248055000Y-29715874D01*
X248055000Y-29304126D01*
X247897431Y-28923720D01*
X247606280Y-28632569D01*
X247225874Y-28475000D01*
X246814126Y-28475000D01*
X246433720Y-28632569D01*
X246142569Y-28923720D01*
X245985000Y-29304126D01*
X243467837Y-29304126D01*
X243456280Y-29292569D01*
X243075874Y-29135000D01*
X242664126Y-29135000D01*
X242283720Y-29292569D01*
X241992569Y-29583720D01*
X241835000Y-29964126D01*
X229473343Y-29964126D01*
X229565664Y-29500000D01*
X229463993Y-28988864D01*
X229268286Y-28695968D01*
X229362809Y-28632809D01*
X229503157Y-28422765D01*
X229552440Y-28175000D01*
X229552440Y-27044126D01*
X254215000Y-27044126D01*
X254215000Y-27455874D01*
X254372569Y-27836280D01*
X254663720Y-28127431D01*
X255044126Y-28285000D01*
X255455874Y-28285000D01*
X255836280Y-28127431D01*
X256127431Y-27836280D01*
X256285000Y-27455874D01*
X256285000Y-27044126D01*
X256127431Y-26663720D01*
X255836280Y-26372569D01*
X255455874Y-26215000D01*
X255044126Y-26215000D01*
X254663720Y-26372569D01*
X254372569Y-26663720D01*
X254215000Y-27044126D01*
X229552440Y-27044126D01*
X229552440Y-26825000D01*
X229503157Y-26577235D01*
X229362809Y-26367191D01*
X229152765Y-26226843D01*
X228905000Y-26177560D01*
X227555000Y-26177560D01*
X227307235Y-26226843D01*
X227097191Y-26367191D01*
X227034032Y-26461714D01*
X226741136Y-26266007D01*
X226359022Y-26190000D01*
X226100978Y-26190000D01*
X225718864Y-26266007D01*
X225285543Y-26555543D01*
X225230000Y-26638669D01*
X225174457Y-26555543D01*
X224741136Y-26266007D01*
X224359022Y-26190000D01*
X224100978Y-26190000D01*
X223718864Y-26266007D01*
X223285543Y-26555543D01*
X223230000Y-26638669D01*
X223174457Y-26555543D01*
X222741136Y-26266007D01*
X222359022Y-26190000D01*
X222100978Y-26190000D01*
X221718864Y-26266007D01*
X221285543Y-26555543D01*
X221230000Y-26638669D01*
X221174457Y-26555543D01*
X220741136Y-26266007D01*
X220359022Y-26190000D01*
X220100978Y-26190000D01*
X219718864Y-26266007D01*
X219285543Y-26555543D01*
X219230000Y-26638669D01*
X219174457Y-26555543D01*
X218741136Y-26266007D01*
X218359022Y-26190000D01*
X218100978Y-26190000D01*
X217718864Y-26266007D01*
X217285543Y-26555543D01*
X217230000Y-26638669D01*
X217174457Y-26555543D01*
X216741136Y-26266007D01*
X216359022Y-26190000D01*
X216100978Y-26190000D01*
X215718864Y-26266007D01*
X215285543Y-26555543D01*
X214996007Y-26988864D01*
X214894336Y-27500000D01*
X210246135Y-27500000D01*
X210254092Y-27460000D01*
X210138839Y-26880582D01*
X209810625Y-26389375D01*
X209319418Y-26061161D01*
X208886256Y-25975000D01*
X208593744Y-25975000D01*
X208160582Y-26061161D01*
X207669375Y-26389375D01*
X207470000Y-26687761D01*
X207270625Y-26389375D01*
X206779418Y-26061161D01*
X206346256Y-25975000D01*
X206053744Y-25975000D01*
X205620582Y-26061161D01*
X205129375Y-26389375D01*
X204930000Y-26687761D01*
X204730625Y-26389375D01*
X204239418Y-26061161D01*
X203806256Y-25975000D01*
X203513744Y-25975000D01*
X203080582Y-26061161D01*
X202589375Y-26389375D01*
X202390000Y-26687761D01*
X202190625Y-26389375D01*
X201699418Y-26061161D01*
X201266256Y-25975000D01*
X200973744Y-25975000D01*
X200540582Y-26061161D01*
X200049375Y-26389375D01*
X199850000Y-26687761D01*
X199650625Y-26389375D01*
X199159418Y-26061161D01*
X198726256Y-25975000D01*
X198433744Y-25975000D01*
X198000582Y-26061161D01*
X197509375Y-26389375D01*
X197310000Y-26687761D01*
X197110625Y-26389375D01*
X196619418Y-26061161D01*
X196186256Y-25975000D01*
X195893744Y-25975000D01*
X195460582Y-26061161D01*
X194969375Y-26389375D01*
X194770000Y-26687761D01*
X194570625Y-26389375D01*
X194079418Y-26061161D01*
X193646256Y-25975000D01*
X193353744Y-25975000D01*
X192920582Y-26061161D01*
X192429375Y-26389375D01*
X192230000Y-26687761D01*
X192030625Y-26389375D01*
X191539418Y-26061161D01*
X191106256Y-25975000D01*
X190813744Y-25975000D01*
X190380582Y-26061161D01*
X189889375Y-26389375D01*
X189690000Y-26687761D01*
X189490625Y-26389375D01*
X188999418Y-26061161D01*
X188566256Y-25975000D01*
X188273744Y-25975000D01*
X187840582Y-26061161D01*
X187349375Y-26389375D01*
X187150000Y-26687761D01*
X186950625Y-26389375D01*
X186459418Y-26061161D01*
X186026256Y-25975000D01*
X185733744Y-25975000D01*
X185300582Y-26061161D01*
X184809375Y-26389375D01*
X184610000Y-26687761D01*
X184410625Y-26389375D01*
X183919418Y-26061161D01*
X183486256Y-25975000D01*
X183193744Y-25975000D01*
X182760582Y-26061161D01*
X182269375Y-26389375D01*
X182070000Y-26687761D01*
X181870625Y-26389375D01*
X181379418Y-26061161D01*
X180946256Y-25975000D01*
X180653744Y-25975000D01*
X180220582Y-26061161D01*
X179729375Y-26389375D01*
X179530000Y-26687761D01*
X179330625Y-26389375D01*
X178839418Y-26061161D01*
X178406256Y-25975000D01*
X178113744Y-25975000D01*
X177680582Y-26061161D01*
X177189375Y-26389375D01*
X176990000Y-26687761D01*
X176790625Y-26389375D01*
X176299418Y-26061161D01*
X175866256Y-25975000D01*
X175573744Y-25975000D01*
X175140582Y-26061161D01*
X174649375Y-26389375D01*
X174436157Y-26708478D01*
X174375183Y-26578642D01*
X173946924Y-26188355D01*
X173536890Y-26018524D01*
X173307000Y-26139845D01*
X173053000Y-26139845D01*
X172823110Y-26018524D01*
X172413076Y-26188355D01*
X171984817Y-26578642D01*
X171923843Y-26708478D01*
X171710625Y-26389375D01*
X171219418Y-26061161D01*
X170786256Y-25975000D01*
X170493744Y-25975000D01*
X170060582Y-26061161D01*
X169569375Y-26389375D01*
X169356157Y-26708478D01*
X169295183Y-26578642D01*
X168866924Y-26188355D01*
X168456890Y-26018524D01*
X168227000Y-26139845D01*
X167973000Y-26139845D01*
X167743110Y-26018524D01*
X167333076Y-26188355D01*
X166904817Y-26578642D01*
X166843843Y-26708478D01*
X166630625Y-26389375D01*
X166139418Y-26061161D01*
X165706256Y-25975000D01*
X165413744Y-25975000D01*
X164980582Y-26061161D01*
X164489375Y-26389375D01*
X164290000Y-26687761D01*
X164090625Y-26389375D01*
X163599418Y-26061161D01*
X163166256Y-25975000D01*
X162873744Y-25975000D01*
X162440582Y-26061161D01*
X161949375Y-26389375D01*
X161750000Y-26687761D01*
X161550625Y-26389375D01*
X161059418Y-26061161D01*
X160626256Y-25975000D01*
X160333744Y-25975000D01*
X159900582Y-26061161D01*
X159409375Y-26389375D01*
X159210000Y-26687761D01*
X159010625Y-26389375D01*
X158519418Y-26061161D01*
X158086256Y-25975000D01*
X157793744Y-25975000D01*
X157360582Y-26061161D01*
X156869375Y-26389375D01*
X156670000Y-26687761D01*
X156470625Y-26389375D01*
X155979418Y-26061161D01*
X155546256Y-25975000D01*
X155253744Y-25975000D01*
X154820582Y-26061161D01*
X154329375Y-26389375D01*
X154130000Y-26687761D01*
X153930625Y-26389375D01*
X153439418Y-26061161D01*
X153006256Y-25975000D01*
X152713744Y-25975000D01*
X152280582Y-26061161D01*
X151789375Y-26389375D01*
X151590000Y-26687761D01*
X151390625Y-26389375D01*
X150899418Y-26061161D01*
X150466256Y-25975000D01*
X150173744Y-25975000D01*
X149740582Y-26061161D01*
X149249375Y-26389375D01*
X149050000Y-26687761D01*
X148850625Y-26389375D01*
X148359418Y-26061161D01*
X147926256Y-25975000D01*
X147633744Y-25975000D01*
X147200582Y-26061161D01*
X146709375Y-26389375D01*
X146510000Y-26687761D01*
X146310625Y-26389375D01*
X145819418Y-26061161D01*
X145386256Y-25975000D01*
X145093744Y-25975000D01*
X144660582Y-26061161D01*
X144169375Y-26389375D01*
X143970000Y-26687761D01*
X143770625Y-26389375D01*
X143279418Y-26061161D01*
X142846256Y-25975000D01*
X142553744Y-25975000D01*
X142120582Y-26061161D01*
X141629375Y-26389375D01*
X141430000Y-26687761D01*
X141230625Y-26389375D01*
X140739418Y-26061161D01*
X140306256Y-25975000D01*
X140013744Y-25975000D01*
X139580582Y-26061161D01*
X139089375Y-26389375D01*
X138890000Y-26687761D01*
X138690625Y-26389375D01*
X138199418Y-26061161D01*
X137766256Y-25975000D01*
X137473744Y-25975000D01*
X137040582Y-26061161D01*
X136549375Y-26389375D01*
X136350000Y-26687761D01*
X136150625Y-26389375D01*
X135659418Y-26061161D01*
X135226256Y-25975000D01*
X134933744Y-25975000D01*
X134500582Y-26061161D01*
X134009375Y-26389375D01*
X133810000Y-26687761D01*
X133610625Y-26389375D01*
X133119418Y-26061161D01*
X132686256Y-25975000D01*
X132393744Y-25975000D01*
X131960582Y-26061161D01*
X131469375Y-26389375D01*
X131270000Y-26687761D01*
X131070625Y-26389375D01*
X130579418Y-26061161D01*
X130146256Y-25975000D01*
X129853744Y-25975000D01*
X129420582Y-26061161D01*
X128929375Y-26389375D01*
X128601161Y-26880582D01*
X128485908Y-27460000D01*
X123044543Y-27460000D01*
X122970625Y-27349375D01*
X122672239Y-27150000D01*
X122970625Y-26950625D01*
X123298839Y-26459418D01*
X123414092Y-25880000D01*
X123298839Y-25300582D01*
X122970625Y-24809375D01*
X122672239Y-24610000D01*
X122970625Y-24410625D01*
X123298839Y-23919418D01*
X123414092Y-23340000D01*
X123298839Y-22760582D01*
X122970625Y-22269375D01*
X122672239Y-22070000D01*
X122710962Y-22044126D01*
X245215000Y-22044126D01*
X245215000Y-22455874D01*
X245372569Y-22836280D01*
X245663720Y-23127431D01*
X246044126Y-23285000D01*
X246455874Y-23285000D01*
X246836280Y-23127431D01*
X247069585Y-22894126D01*
X250465000Y-22894126D01*
X250465000Y-23305874D01*
X250622569Y-23686280D01*
X250913720Y-23977431D01*
X251294126Y-24135000D01*
X251705874Y-24135000D01*
X252086280Y-23977431D01*
X252377431Y-23686280D01*
X252535000Y-23305874D01*
X252535000Y-22894126D01*
X252377431Y-22513720D01*
X252086280Y-22222569D01*
X251705874Y-22065000D01*
X251294126Y-22065000D01*
X250913720Y-22222569D01*
X250622569Y-22513720D01*
X250465000Y-22894126D01*
X247069585Y-22894126D01*
X247127431Y-22836280D01*
X247285000Y-22455874D01*
X247285000Y-22044126D01*
X247127431Y-21663720D01*
X246836280Y-21372569D01*
X246455874Y-21215000D01*
X246044126Y-21215000D01*
X245663720Y-21372569D01*
X245372569Y-21663720D01*
X245215000Y-22044126D01*
X122710962Y-22044126D01*
X122970625Y-21870625D01*
X123298839Y-21379418D01*
X123414092Y-20800000D01*
X123298839Y-20220582D01*
X122970625Y-19729375D01*
X122479418Y-19401161D01*
X122046256Y-19315000D01*
X121753744Y-19315000D01*
X121320582Y-19401161D01*
X120829375Y-19729375D01*
X120501161Y-20220582D01*
X120385908Y-20800000D01*
X113627000Y-20800000D01*
X113627000Y-15964126D01*
X247855000Y-15964126D01*
X247855000Y-16375874D01*
X248012569Y-16756280D01*
X248303720Y-17047431D01*
X248684126Y-17205000D01*
X249095874Y-17205000D01*
X249476280Y-17047431D01*
X249767431Y-16756280D01*
X249925000Y-16375874D01*
X249925000Y-15964126D01*
X249767431Y-15583720D01*
X249476280Y-15292569D01*
X249095874Y-15135000D01*
X248684126Y-15135000D01*
X248303720Y-15292569D01*
X248012569Y-15583720D01*
X247855000Y-15964126D01*
X113627000Y-15964126D01*
X113627000Y-14146626D01*
X140615000Y-14146626D01*
X140615000Y-14558374D01*
X140772569Y-14938780D01*
X141063720Y-15229931D01*
X141444126Y-15387500D01*
X141855874Y-15387500D01*
X142236280Y-15229931D01*
X142527431Y-14938780D01*
X142685000Y-14558374D01*
X142685000Y-14146626D01*
X142527431Y-13766220D01*
X142236280Y-13475069D01*
X141855874Y-13317500D01*
X141444126Y-13317500D01*
X141063720Y-13475069D01*
X140772569Y-13766220D01*
X140615000Y-14146626D01*
X113627000Y-14146626D01*
X113627000Y-10627000D01*
X227893531Y-10627000D01*
X227424765Y-11095766D01*
G04 #@! TD*
M02*
