G04 #@! TF.GenerationSoftware,KiCad,Pcbnew,5.0.2+dfsg1-1~bpo9+1*
G04 #@! TF.CreationDate,2022-09-26T19:02:55+02:00*
G04 #@! TF.ProjectId,nubus-to-ztex,6e756275-732d-4746-9f2d-7a7465782e6b,rev?*
G04 #@! TF.SameCoordinates,Original*
G04 #@! TF.FileFunction,Legend,Top*
G04 #@! TF.FilePolarity,Positive*
%FSLAX46Y46*%
G04 Gerber Fmt 4.6, Leading zero omitted, Abs format (unit mm)*
G04 Created by KiCad (PCBNEW 5.0.2+dfsg1-1~bpo9+1) date Mon Sep 26 19:02:55 2022*
%MOMM*%
%LPD*%
G01*
G04 APERTURE LIST*
%ADD10C,0.300000*%
%ADD11C,0.250000*%
%ADD12C,0.200000*%
%ADD13C,0.120000*%
%ADD14C,0.150000*%
%ADD15C,0.127000*%
%ADD16C,0.015000*%
G04 APERTURE END LIST*
D10*
X119202857Y-72398571D02*
X118702857Y-71684285D01*
X118345714Y-72398571D02*
X118345714Y-70898571D01*
X118917142Y-70898571D01*
X119060000Y-70970000D01*
X119131428Y-71041428D01*
X119202857Y-71184285D01*
X119202857Y-71398571D01*
X119131428Y-71541428D01*
X119060000Y-71612857D01*
X118917142Y-71684285D01*
X118345714Y-71684285D01*
X120845714Y-72541428D02*
X120702857Y-72470000D01*
X120560000Y-72327142D01*
X120345714Y-72112857D01*
X120202857Y-72041428D01*
X120060000Y-72041428D01*
X120131428Y-72398571D02*
X119988571Y-72327142D01*
X119845714Y-72184285D01*
X119774285Y-71898571D01*
X119774285Y-71398571D01*
X119845714Y-71112857D01*
X119988571Y-70970000D01*
X120131428Y-70898571D01*
X120417142Y-70898571D01*
X120560000Y-70970000D01*
X120702857Y-71112857D01*
X120774285Y-71398571D01*
X120774285Y-71898571D01*
X120702857Y-72184285D01*
X120560000Y-72327142D01*
X120417142Y-72398571D01*
X120131428Y-72398571D01*
X121345714Y-72327142D02*
X121560000Y-72398571D01*
X121917142Y-72398571D01*
X122060000Y-72327142D01*
X122131428Y-72255714D01*
X122202857Y-72112857D01*
X122202857Y-71970000D01*
X122131428Y-71827142D01*
X122060000Y-71755714D01*
X121917142Y-71684285D01*
X121631428Y-71612857D01*
X121488571Y-71541428D01*
X121417142Y-71470000D01*
X121345714Y-71327142D01*
X121345714Y-71184285D01*
X121417142Y-71041428D01*
X121488571Y-70970000D01*
X121631428Y-70898571D01*
X121988571Y-70898571D01*
X122202857Y-70970000D01*
X122631428Y-70898571D02*
X123488571Y-70898571D01*
X123060000Y-72398571D02*
X123060000Y-70898571D01*
X129387500Y-17215000D02*
X130101785Y-17215000D01*
X129191071Y-17643571D02*
X129878571Y-16143571D01*
X130191071Y-17643571D01*
X131566071Y-17500714D02*
X131485714Y-17572142D01*
X131262500Y-17643571D01*
X131119642Y-17643571D01*
X130914285Y-17572142D01*
X130789285Y-17429285D01*
X130735714Y-17286428D01*
X130700000Y-17000714D01*
X130726785Y-16786428D01*
X130833928Y-16500714D01*
X130923214Y-16357857D01*
X131083928Y-16215000D01*
X131307142Y-16143571D01*
X131450000Y-16143571D01*
X131655357Y-16215000D01*
X131717857Y-16286428D01*
X132191071Y-17643571D02*
X132378571Y-16143571D01*
X133048214Y-17643571D02*
X132512500Y-16786428D01*
X133235714Y-16143571D02*
X132271428Y-17000714D01*
X127128571Y-20122142D02*
X127333928Y-20193571D01*
X127691071Y-20193571D01*
X127842857Y-20122142D01*
X127923214Y-20050714D01*
X128012500Y-19907857D01*
X128030357Y-19765000D01*
X127976785Y-19622142D01*
X127914285Y-19550714D01*
X127780357Y-19479285D01*
X127503571Y-19407857D01*
X127369642Y-19336428D01*
X127307142Y-19265000D01*
X127253571Y-19122142D01*
X127271428Y-18979285D01*
X127360714Y-18836428D01*
X127441071Y-18765000D01*
X127592857Y-18693571D01*
X127950000Y-18693571D01*
X128155357Y-18765000D01*
X128592857Y-18693571D02*
X129450000Y-18693571D01*
X128833928Y-20193571D02*
X129021428Y-18693571D01*
X129744642Y-19765000D02*
X130458928Y-19765000D01*
X129548214Y-20193571D02*
X130235714Y-18693571D01*
X130548214Y-20193571D01*
X131905357Y-20193571D02*
X131494642Y-19479285D01*
X131048214Y-20193571D02*
X131235714Y-18693571D01*
X131807142Y-18693571D01*
X131941071Y-18765000D01*
X132003571Y-18836428D01*
X132057142Y-18979285D01*
X132030357Y-19193571D01*
X131941071Y-19336428D01*
X131860714Y-19407857D01*
X131708928Y-19479285D01*
X131137500Y-19479285D01*
X132521428Y-18693571D02*
X133378571Y-18693571D01*
X132762500Y-20193571D02*
X132950000Y-18693571D01*
X166738571Y-15058571D02*
X167595714Y-15058571D01*
X166979642Y-16558571D02*
X167167142Y-15058571D01*
X167908214Y-16558571D02*
X168095714Y-15058571D01*
X168461785Y-16130000D01*
X169095714Y-15058571D01*
X168908214Y-16558571D01*
X170095714Y-15058571D02*
X170238571Y-15058571D01*
X170372500Y-15130000D01*
X170435000Y-15201428D01*
X170488571Y-15344285D01*
X170524285Y-15630000D01*
X170479642Y-15987142D01*
X170372500Y-16272857D01*
X170283214Y-16415714D01*
X170202857Y-16487142D01*
X170051071Y-16558571D01*
X169908214Y-16558571D01*
X169774285Y-16487142D01*
X169711785Y-16415714D01*
X169658214Y-16272857D01*
X169622500Y-15987142D01*
X169667142Y-15630000D01*
X169774285Y-15344285D01*
X169863571Y-15201428D01*
X169943928Y-15130000D01*
X170095714Y-15058571D01*
X172318928Y-14987142D02*
X170792142Y-16915714D01*
X173408214Y-16558571D02*
X172551071Y-16558571D01*
X172979642Y-16558571D02*
X173167142Y-15058571D01*
X172997500Y-15272857D01*
X172836785Y-15415714D01*
X172685000Y-15487142D01*
X147418571Y-18110000D02*
X146418571Y-18110000D01*
X146561428Y-18110000D02*
X146490000Y-18038571D01*
X146418571Y-17895714D01*
X146418571Y-17681428D01*
X146490000Y-17538571D01*
X146632857Y-17467142D01*
X147418571Y-17467142D01*
X146632857Y-17467142D02*
X146490000Y-17395714D01*
X146418571Y-17252857D01*
X146418571Y-17038571D01*
X146490000Y-16895714D01*
X146632857Y-16824285D01*
X147418571Y-16824285D01*
X147418571Y-16110000D02*
X146418571Y-16110000D01*
X145918571Y-16110000D02*
X145990000Y-16181428D01*
X146061428Y-16110000D01*
X145990000Y-16038571D01*
X145918571Y-16110000D01*
X146061428Y-16110000D01*
X147347142Y-14752857D02*
X147418571Y-14895714D01*
X147418571Y-15181428D01*
X147347142Y-15324285D01*
X147275714Y-15395714D01*
X147132857Y-15467142D01*
X146704285Y-15467142D01*
X146561428Y-15395714D01*
X146490000Y-15324285D01*
X146418571Y-15181428D01*
X146418571Y-14895714D01*
X146490000Y-14752857D01*
X147418571Y-14110000D02*
X146418571Y-14110000D01*
X146704285Y-14110000D02*
X146561428Y-14038571D01*
X146490000Y-13967142D01*
X146418571Y-13824285D01*
X146418571Y-13681428D01*
X147418571Y-12967142D02*
X147347142Y-13110000D01*
X147275714Y-13181428D01*
X147132857Y-13252857D01*
X146704285Y-13252857D01*
X146561428Y-13181428D01*
X146490000Y-13110000D01*
X146418571Y-12967142D01*
X146418571Y-12752857D01*
X146490000Y-12610000D01*
X146561428Y-12538571D01*
X146704285Y-12467142D01*
X147132857Y-12467142D01*
X147275714Y-12538571D01*
X147347142Y-12610000D01*
X147418571Y-12752857D01*
X147418571Y-12967142D01*
X146847142Y-11824285D02*
X146847142Y-10681428D01*
X147347142Y-10038571D02*
X147418571Y-9895714D01*
X147418571Y-9610000D01*
X147347142Y-9467142D01*
X147204285Y-9395714D01*
X147132857Y-9395714D01*
X146990000Y-9467142D01*
X146918571Y-9610000D01*
X146918571Y-9824285D01*
X146847142Y-9967142D01*
X146704285Y-10038571D01*
X146632857Y-10038571D01*
X146490000Y-9967142D01*
X146418571Y-9824285D01*
X146418571Y-9610000D01*
X146490000Y-9467142D01*
X147418571Y-8110000D02*
X145918571Y-8110000D01*
X147347142Y-8110000D02*
X147418571Y-8252857D01*
X147418571Y-8538571D01*
X147347142Y-8681428D01*
X147275714Y-8752857D01*
X147132857Y-8824285D01*
X146704285Y-8824285D01*
X146561428Y-8752857D01*
X146490000Y-8681428D01*
X146418571Y-8538571D01*
X146418571Y-8252857D01*
X146490000Y-8110000D01*
X112964285Y-66628571D02*
X112964285Y-65128571D01*
X113535714Y-65128571D01*
X113678571Y-65200000D01*
X113750000Y-65271428D01*
X113821428Y-65414285D01*
X113821428Y-65628571D01*
X113750000Y-65771428D01*
X113678571Y-65842857D01*
X113535714Y-65914285D01*
X112964285Y-65914285D01*
X114464285Y-66628571D02*
X114464285Y-65128571D01*
X114964285Y-66200000D01*
X115464285Y-65128571D01*
X115464285Y-66628571D01*
X116464285Y-65128571D02*
X116750000Y-65128571D01*
X116892857Y-65200000D01*
X117035714Y-65342857D01*
X117107142Y-65628571D01*
X117107142Y-66128571D01*
X117035714Y-66414285D01*
X116892857Y-66557142D01*
X116750000Y-66628571D01*
X116464285Y-66628571D01*
X116321428Y-66557142D01*
X116178571Y-66414285D01*
X116107142Y-66128571D01*
X116107142Y-65628571D01*
X116178571Y-65342857D01*
X116321428Y-65200000D01*
X116464285Y-65128571D01*
X117750000Y-66628571D02*
X117750000Y-65128571D01*
X118107142Y-65128571D01*
X118321428Y-65200000D01*
X118464285Y-65342857D01*
X118535714Y-65485714D01*
X118607142Y-65771428D01*
X118607142Y-65985714D01*
X118535714Y-66271428D01*
X118464285Y-66414285D01*
X118321428Y-66557142D01*
X118107142Y-66628571D01*
X117750000Y-66628571D01*
D11*
X118790699Y-12217380D02*
X119409747Y-12217380D01*
X119028794Y-12598333D01*
X119171651Y-12598333D01*
X119260937Y-12645952D01*
X119302604Y-12693571D01*
X119338318Y-12788809D01*
X119308556Y-13026904D01*
X119249032Y-13122142D01*
X119195461Y-13169761D01*
X119094270Y-13217380D01*
X118808556Y-13217380D01*
X118719270Y-13169761D01*
X118677604Y-13122142D01*
X119725223Y-13122142D02*
X119766889Y-13169761D01*
X119713318Y-13217380D01*
X119671651Y-13169761D01*
X119725223Y-13122142D01*
X119713318Y-13217380D01*
X120219270Y-12217380D02*
X120838318Y-12217380D01*
X120457366Y-12598333D01*
X120600223Y-12598333D01*
X120689508Y-12645952D01*
X120731175Y-12693571D01*
X120766889Y-12788809D01*
X120737127Y-13026904D01*
X120677604Y-13122142D01*
X120624032Y-13169761D01*
X120522842Y-13217380D01*
X120237127Y-13217380D01*
X120147842Y-13169761D01*
X120106175Y-13122142D01*
X121124032Y-12217380D02*
X121332366Y-13217380D01*
X121790699Y-12217380D01*
X116737127Y-14967380D02*
X116862127Y-13967380D01*
X117243080Y-13967380D01*
X117332366Y-14015000D01*
X117374032Y-14062619D01*
X117409747Y-14157857D01*
X117391889Y-14300714D01*
X117332366Y-14395952D01*
X117278794Y-14443571D01*
X117177604Y-14491190D01*
X116796651Y-14491190D01*
X117879985Y-14967380D02*
X117790699Y-14919761D01*
X117749032Y-14872142D01*
X117713318Y-14776904D01*
X117749032Y-14491190D01*
X117808556Y-14395952D01*
X117862127Y-14348333D01*
X117963318Y-14300714D01*
X118106175Y-14300714D01*
X118195461Y-14348333D01*
X118237127Y-14395952D01*
X118272842Y-14491190D01*
X118237127Y-14776904D01*
X118177604Y-14872142D01*
X118124032Y-14919761D01*
X118022842Y-14967380D01*
X117879985Y-14967380D01*
X118629985Y-14300714D02*
X118737127Y-14967380D01*
X118987127Y-14491190D01*
X119118080Y-14967380D01*
X119391889Y-14300714D01*
X120076413Y-14919761D02*
X119975223Y-14967380D01*
X119784747Y-14967380D01*
X119695461Y-14919761D01*
X119659747Y-14824523D01*
X119707366Y-14443571D01*
X119766889Y-14348333D01*
X119868080Y-14300714D01*
X120058556Y-14300714D01*
X120147842Y-14348333D01*
X120183556Y-14443571D01*
X120171651Y-14538809D01*
X119683556Y-14634047D01*
X120546651Y-14967380D02*
X120629985Y-14300714D01*
X120606175Y-14491190D02*
X120665699Y-14395952D01*
X120719270Y-14348333D01*
X120820461Y-14300714D01*
X120915699Y-14300714D01*
X122243080Y-13967380D02*
X122433556Y-13967380D01*
X122522842Y-14015000D01*
X122606175Y-14110238D01*
X122629985Y-14300714D01*
X122588318Y-14634047D01*
X122516889Y-14824523D01*
X122409747Y-14919761D01*
X122308556Y-14967380D01*
X122118080Y-14967380D01*
X122028794Y-14919761D01*
X121945461Y-14824523D01*
X121921651Y-14634047D01*
X121963318Y-14300714D01*
X122034747Y-14110238D01*
X122141889Y-14015000D01*
X122243080Y-13967380D01*
X122975223Y-14967380D02*
X123100223Y-13967380D01*
X123546651Y-14967380D01*
X123671651Y-13967380D01*
D12*
X182585714Y-83642380D02*
X182014285Y-83642380D01*
X182300000Y-83642380D02*
X182300000Y-82642380D01*
X182204761Y-82785238D01*
X182109523Y-82880476D01*
X182014285Y-82928095D01*
D10*
X124357142Y-82461428D02*
X124428571Y-82256071D01*
X124428571Y-81898928D01*
X124357142Y-81747142D01*
X124285714Y-81666785D01*
X124142857Y-81577500D01*
X124000000Y-81559642D01*
X123857142Y-81613214D01*
X123785714Y-81675714D01*
X123714285Y-81809642D01*
X123642857Y-82086428D01*
X123571428Y-82220357D01*
X123500000Y-82282857D01*
X123357142Y-82336428D01*
X123214285Y-82318571D01*
X123071428Y-82229285D01*
X123000000Y-82148928D01*
X122928571Y-81997142D01*
X122928571Y-81640000D01*
X123000000Y-81434642D01*
X122928571Y-80997142D02*
X122928571Y-80140000D01*
X124428571Y-80756071D02*
X122928571Y-80568571D01*
X124000000Y-79845357D02*
X124000000Y-79131071D01*
X124428571Y-80041785D02*
X122928571Y-79354285D01*
X124428571Y-79041785D01*
X124428571Y-77684642D02*
X123714285Y-78095357D01*
X124428571Y-78541785D02*
X122928571Y-78354285D01*
X122928571Y-77782857D01*
X123000000Y-77648928D01*
X123071428Y-77586428D01*
X123214285Y-77532857D01*
X123428571Y-77559642D01*
X123571428Y-77648928D01*
X123642857Y-77729285D01*
X123714285Y-77881071D01*
X123714285Y-78452500D01*
X122928571Y-77068571D02*
X122928571Y-76211428D01*
X124428571Y-76827500D02*
X122928571Y-76640000D01*
X208732857Y-100250000D02*
X209447142Y-100250000D01*
X208590000Y-100678571D02*
X209090000Y-99178571D01*
X209590000Y-100678571D01*
X202337142Y-97352857D02*
X202551428Y-97424285D01*
X202622857Y-97495714D01*
X202694285Y-97638571D01*
X202694285Y-97852857D01*
X202622857Y-97995714D01*
X202551428Y-98067142D01*
X202408571Y-98138571D01*
X201837142Y-98138571D01*
X201837142Y-96638571D01*
X202337142Y-96638571D01*
X202480000Y-96710000D01*
X202551428Y-96781428D01*
X202622857Y-96924285D01*
X202622857Y-97067142D01*
X202551428Y-97210000D01*
X202480000Y-97281428D01*
X202337142Y-97352857D01*
X201837142Y-97352857D01*
X202634285Y-95445714D02*
X202562857Y-95517142D01*
X202348571Y-95588571D01*
X202205714Y-95588571D01*
X201991428Y-95517142D01*
X201848571Y-95374285D01*
X201777142Y-95231428D01*
X201705714Y-94945714D01*
X201705714Y-94731428D01*
X201777142Y-94445714D01*
X201848571Y-94302857D01*
X201991428Y-94160000D01*
X202205714Y-94088571D01*
X202348571Y-94088571D01*
X202562857Y-94160000D01*
X202634285Y-94231428D01*
X200568571Y-93268571D02*
X199711428Y-93268571D01*
X200140000Y-93268571D02*
X200140000Y-91768571D01*
X199997142Y-91982857D01*
X199854285Y-92125714D01*
X199711428Y-92197142D01*
D12*
X113285714Y-85852380D02*
X112714285Y-85852380D01*
X113000000Y-85852380D02*
X113000000Y-84852380D01*
X112904761Y-84995238D01*
X112809523Y-85090476D01*
X112714285Y-85138095D01*
X148685714Y-91442380D02*
X148114285Y-91442380D01*
X148400000Y-91442380D02*
X148400000Y-90442380D01*
X148304761Y-90585238D01*
X148209523Y-90680476D01*
X148114285Y-90728095D01*
X189385714Y-83442380D02*
X188814285Y-83442380D01*
X189100000Y-83442380D02*
X189100000Y-82442380D01*
X189004761Y-82585238D01*
X188909523Y-82680476D01*
X188814285Y-82728095D01*
D10*
X112592857Y-37745714D02*
X112521428Y-37951071D01*
X112521428Y-38308214D01*
X112592857Y-38460000D01*
X112664285Y-38540357D01*
X112807142Y-38629642D01*
X112950000Y-38647500D01*
X113092857Y-38593928D01*
X113164285Y-38531428D01*
X113235714Y-38397500D01*
X113307142Y-38120714D01*
X113378571Y-37986785D01*
X113450000Y-37924285D01*
X113592857Y-37870714D01*
X113735714Y-37888571D01*
X113878571Y-37977857D01*
X113950000Y-38058214D01*
X114021428Y-38210000D01*
X114021428Y-38567142D01*
X113950000Y-38772500D01*
X112521428Y-39451071D02*
X112592857Y-39317142D01*
X112735714Y-39263571D01*
X114021428Y-39424285D01*
X112521428Y-40236785D02*
X112592857Y-40102857D01*
X112664285Y-40040357D01*
X112807142Y-39986785D01*
X113235714Y-40040357D01*
X113378571Y-40129642D01*
X113450000Y-40210000D01*
X113521428Y-40361785D01*
X113521428Y-40576071D01*
X113450000Y-40710000D01*
X113378571Y-40772500D01*
X113235714Y-40826071D01*
X112807142Y-40772500D01*
X112664285Y-40683214D01*
X112592857Y-40602857D01*
X112521428Y-40451071D01*
X112521428Y-40236785D01*
X113521428Y-41290357D02*
X113521428Y-41861785D01*
X114021428Y-41567142D02*
X112735714Y-41406428D01*
X112592857Y-41460000D01*
X112521428Y-41593928D01*
X112521428Y-41736785D01*
X112521428Y-43379642D02*
X114021428Y-43567142D01*
X112521428Y-44093928D02*
X114021428Y-44281428D01*
X114021428Y-44638571D01*
X113950000Y-44843928D01*
X113807142Y-44968928D01*
X113664285Y-45022500D01*
X113378571Y-45058214D01*
X113164285Y-45031428D01*
X112878571Y-44924285D01*
X112735714Y-44835000D01*
X112592857Y-44674285D01*
X112521428Y-44451071D01*
X112521428Y-44093928D01*
D12*
X275770000Y-105080000D02*
X275770000Y-3480000D01*
X274170000Y-84560000D02*
X261140000Y-84560000D01*
X246185714Y-55552380D02*
X245614285Y-55552380D01*
X245900000Y-55552380D02*
X245900000Y-54552380D01*
X245804761Y-54695238D01*
X245709523Y-54790476D01*
X245614285Y-54838095D01*
X268005714Y-81092380D02*
X267434285Y-81092380D01*
X267720000Y-81092380D02*
X267720000Y-80092380D01*
X267624761Y-80235238D01*
X267529523Y-80330476D01*
X267434285Y-80378095D01*
X174485714Y-83602380D02*
X173914285Y-83602380D01*
X174200000Y-83602380D02*
X174200000Y-82602380D01*
X174104761Y-82745238D01*
X174009523Y-82840476D01*
X173914285Y-82888095D01*
X162935714Y-83502380D02*
X162364285Y-83502380D01*
X162650000Y-83502380D02*
X162650000Y-82502380D01*
X162554761Y-82645238D01*
X162459523Y-82740476D01*
X162364285Y-82788095D01*
X149935714Y-83552380D02*
X149364285Y-83552380D01*
X149650000Y-83552380D02*
X149650000Y-82552380D01*
X149554761Y-82695238D01*
X149459523Y-82790476D01*
X149364285Y-82838095D01*
X129985714Y-71752380D02*
X129414285Y-71752380D01*
X129700000Y-71752380D02*
X129700000Y-70752380D01*
X129604761Y-70895238D01*
X129509523Y-70990476D01*
X129414285Y-71038095D01*
D11*
X220631428Y-87605714D02*
X220631428Y-86843809D01*
X221012380Y-87224761D02*
X220250476Y-87224761D01*
X220012380Y-85891428D02*
X220012380Y-86367619D01*
X220488571Y-86415238D01*
X220440952Y-86367619D01*
X220393333Y-86272380D01*
X220393333Y-86034285D01*
X220440952Y-85939047D01*
X220488571Y-85891428D01*
X220583809Y-85843809D01*
X220821904Y-85843809D01*
X220917142Y-85891428D01*
X220964761Y-85939047D01*
X221012380Y-86034285D01*
X221012380Y-86272380D01*
X220964761Y-86367619D01*
X220917142Y-86415238D01*
X220012380Y-85558095D02*
X221012380Y-85224761D01*
X220012380Y-84891428D01*
X225620000Y-92021904D02*
X225572380Y-92117142D01*
X225572380Y-92260000D01*
X225620000Y-92402857D01*
X225715238Y-92498095D01*
X225810476Y-92545714D01*
X226000952Y-92593333D01*
X226143809Y-92593333D01*
X226334285Y-92545714D01*
X226429523Y-92498095D01*
X226524761Y-92402857D01*
X226572380Y-92260000D01*
X226572380Y-92164761D01*
X226524761Y-92021904D01*
X226477142Y-91974285D01*
X226143809Y-91974285D01*
X226143809Y-92164761D01*
X226572380Y-91545714D02*
X225572380Y-91545714D01*
X226572380Y-90974285D01*
X225572380Y-90974285D01*
X226572380Y-90498095D02*
X225572380Y-90498095D01*
X225572380Y-90260000D01*
X225620000Y-90117142D01*
X225715238Y-90021904D01*
X225810476Y-89974285D01*
X226000952Y-89926666D01*
X226143809Y-89926666D01*
X226334285Y-89974285D01*
X226429523Y-90021904D01*
X226524761Y-90117142D01*
X226572380Y-90260000D01*
X226572380Y-90498095D01*
X215220000Y-92021904D02*
X215172380Y-92117142D01*
X215172380Y-92260000D01*
X215220000Y-92402857D01*
X215315238Y-92498095D01*
X215410476Y-92545714D01*
X215600952Y-92593333D01*
X215743809Y-92593333D01*
X215934285Y-92545714D01*
X216029523Y-92498095D01*
X216124761Y-92402857D01*
X216172380Y-92260000D01*
X216172380Y-92164761D01*
X216124761Y-92021904D01*
X216077142Y-91974285D01*
X215743809Y-91974285D01*
X215743809Y-92164761D01*
X216172380Y-91545714D02*
X215172380Y-91545714D01*
X216172380Y-90974285D01*
X215172380Y-90974285D01*
X216172380Y-90498095D02*
X215172380Y-90498095D01*
X215172380Y-90260000D01*
X215220000Y-90117142D01*
X215315238Y-90021904D01*
X215410476Y-89974285D01*
X215600952Y-89926666D01*
X215743809Y-89926666D01*
X215934285Y-89974285D01*
X216029523Y-90021904D01*
X216124761Y-90117142D01*
X216172380Y-90260000D01*
X216172380Y-90498095D01*
X206200000Y-83261904D02*
X206152380Y-83357142D01*
X206152380Y-83500000D01*
X206200000Y-83642857D01*
X206295238Y-83738095D01*
X206390476Y-83785714D01*
X206580952Y-83833333D01*
X206723809Y-83833333D01*
X206914285Y-83785714D01*
X207009523Y-83738095D01*
X207104761Y-83642857D01*
X207152380Y-83500000D01*
X207152380Y-83404761D01*
X207104761Y-83261904D01*
X207057142Y-83214285D01*
X206723809Y-83214285D01*
X206723809Y-83404761D01*
X207152380Y-82785714D02*
X206152380Y-82785714D01*
X207152380Y-82214285D01*
X206152380Y-82214285D01*
X207152380Y-81738095D02*
X206152380Y-81738095D01*
X206152380Y-81500000D01*
X206200000Y-81357142D01*
X206295238Y-81261904D01*
X206390476Y-81214285D01*
X206580952Y-81166666D01*
X206723809Y-81166666D01*
X206914285Y-81214285D01*
X207009523Y-81261904D01*
X207104761Y-81357142D01*
X207152380Y-81500000D01*
X207152380Y-81738095D01*
X201771428Y-84661904D02*
X201771428Y-83900000D01*
X202152380Y-84280952D02*
X201390476Y-84280952D01*
X201152380Y-83519047D02*
X201152380Y-82900000D01*
X201533333Y-83233333D01*
X201533333Y-83090476D01*
X201580952Y-82995238D01*
X201628571Y-82947619D01*
X201723809Y-82900000D01*
X201961904Y-82900000D01*
X202057142Y-82947619D01*
X202104761Y-82995238D01*
X202152380Y-83090476D01*
X202152380Y-83376190D01*
X202104761Y-83471428D01*
X202057142Y-83519047D01*
X201152380Y-82614285D02*
X202152380Y-82280952D01*
X201152380Y-81947619D01*
X201152380Y-81709523D02*
X201152380Y-81090476D01*
X201533333Y-81423809D01*
X201533333Y-81280952D01*
X201580952Y-81185714D01*
X201628571Y-81138095D01*
X201723809Y-81090476D01*
X201961904Y-81090476D01*
X202057142Y-81138095D01*
X202104761Y-81185714D01*
X202152380Y-81280952D01*
X202152380Y-81566666D01*
X202104761Y-81661904D01*
X202057142Y-81709523D01*
D10*
X228137142Y-91422857D02*
X227637142Y-91422857D01*
X227637142Y-92208571D02*
X227637142Y-90708571D01*
X228351428Y-90708571D01*
X229565714Y-92208571D02*
X229565714Y-91422857D01*
X229494285Y-91280000D01*
X229351428Y-91208571D01*
X229065714Y-91208571D01*
X228922857Y-91280000D01*
X229565714Y-92137142D02*
X229422857Y-92208571D01*
X229065714Y-92208571D01*
X228922857Y-92137142D01*
X228851428Y-91994285D01*
X228851428Y-91851428D01*
X228922857Y-91708571D01*
X229065714Y-91637142D01*
X229422857Y-91637142D01*
X229565714Y-91565714D01*
X230280000Y-91208571D02*
X230280000Y-92208571D01*
X230280000Y-91351428D02*
X230351428Y-91280000D01*
X230494285Y-91208571D01*
X230708571Y-91208571D01*
X230851428Y-91280000D01*
X230922857Y-91422857D01*
X230922857Y-92208571D01*
X228994285Y-93258571D02*
X228280000Y-93258571D01*
X228208571Y-93972857D01*
X228280000Y-93901428D01*
X228422857Y-93830000D01*
X228780000Y-93830000D01*
X228922857Y-93901428D01*
X228994285Y-93972857D01*
X229065714Y-94115714D01*
X229065714Y-94472857D01*
X228994285Y-94615714D01*
X228922857Y-94687142D01*
X228780000Y-94758571D01*
X228422857Y-94758571D01*
X228280000Y-94687142D01*
X228208571Y-94615714D01*
X229494285Y-93258571D02*
X229994285Y-94758571D01*
X230494285Y-93258571D01*
X228851428Y-97308571D02*
X227994285Y-97308571D01*
X228422857Y-97308571D02*
X228422857Y-95808571D01*
X228280000Y-96022857D01*
X228137142Y-96165714D01*
X227994285Y-96237142D01*
X229351428Y-95808571D02*
X229708571Y-97308571D01*
X229994285Y-96237142D01*
X230280000Y-97308571D01*
X230637142Y-95808571D01*
D12*
X211270000Y-74450000D02*
X211270000Y-23650000D01*
D10*
X113195238Y-7203571D02*
X113195238Y-5703571D01*
X114338095Y-7203571D01*
X114338095Y-5703571D01*
X116147619Y-6203571D02*
X116147619Y-7203571D01*
X115290476Y-6203571D02*
X115290476Y-6989285D01*
X115385714Y-7132142D01*
X115576190Y-7203571D01*
X115861904Y-7203571D01*
X116052380Y-7132142D01*
X116147619Y-7060714D01*
X117766666Y-6417857D02*
X118052380Y-6489285D01*
X118147619Y-6560714D01*
X118242857Y-6703571D01*
X118242857Y-6917857D01*
X118147619Y-7060714D01*
X118052380Y-7132142D01*
X117861904Y-7203571D01*
X117099999Y-7203571D01*
X117099999Y-5703571D01*
X117766666Y-5703571D01*
X117957142Y-5775000D01*
X118052380Y-5846428D01*
X118147619Y-5989285D01*
X118147619Y-6132142D01*
X118052380Y-6275000D01*
X117957142Y-6346428D01*
X117766666Y-6417857D01*
X117099999Y-6417857D01*
X119957142Y-6203571D02*
X119957142Y-7203571D01*
X119099999Y-6203571D02*
X119099999Y-6989285D01*
X119195238Y-7132142D01*
X119385714Y-7203571D01*
X119671428Y-7203571D01*
X119861904Y-7132142D01*
X119957142Y-7060714D01*
X120814285Y-7132142D02*
X121004761Y-7203571D01*
X121385714Y-7203571D01*
X121576190Y-7132142D01*
X121671428Y-6989285D01*
X121671428Y-6917857D01*
X121576190Y-6775000D01*
X121385714Y-6703571D01*
X121099999Y-6703571D01*
X120909523Y-6632142D01*
X120814285Y-6489285D01*
X120814285Y-6417857D01*
X120909523Y-6275000D01*
X121099999Y-6203571D01*
X121385714Y-6203571D01*
X121576190Y-6275000D01*
X123195238Y-6417857D02*
X122528571Y-6417857D01*
X122528571Y-7203571D02*
X122528571Y-5703571D01*
X123480952Y-5703571D01*
X124242857Y-7203571D02*
X124242857Y-5703571D01*
X125004761Y-5703571D01*
X125195238Y-5775000D01*
X125290476Y-5846428D01*
X125385714Y-5989285D01*
X125385714Y-6203571D01*
X125290476Y-6346428D01*
X125195238Y-6417857D01*
X125004761Y-6489285D01*
X124242857Y-6489285D01*
X127290476Y-5775000D02*
X127100000Y-5703571D01*
X126814285Y-5703571D01*
X126528571Y-5775000D01*
X126338095Y-5917857D01*
X126242857Y-6060714D01*
X126147619Y-6346428D01*
X126147619Y-6560714D01*
X126242857Y-6846428D01*
X126338095Y-6989285D01*
X126528571Y-7132142D01*
X126814285Y-7203571D01*
X127004761Y-7203571D01*
X127290476Y-7132142D01*
X127385714Y-7060714D01*
X127385714Y-6560714D01*
X127004761Y-6560714D01*
X128147619Y-6775000D02*
X129100000Y-6775000D01*
X127957142Y-7203571D02*
X128623809Y-5703571D01*
X129290476Y-7203571D01*
X118052380Y-8253571D02*
X118719047Y-9753571D01*
X119385714Y-8253571D01*
X121100000Y-9753571D02*
X119957142Y-9753571D01*
X120528571Y-9753571D02*
X120528571Y-8253571D01*
X120338095Y-8467857D01*
X120147619Y-8610714D01*
X119957142Y-8682142D01*
X121957142Y-9610714D02*
X122052380Y-9682142D01*
X121957142Y-9753571D01*
X121861904Y-9682142D01*
X121957142Y-9610714D01*
X121957142Y-9753571D01*
X122814285Y-8396428D02*
X122909523Y-8325000D01*
X123100000Y-8253571D01*
X123576190Y-8253571D01*
X123766666Y-8325000D01*
X123861904Y-8396428D01*
X123957142Y-8539285D01*
X123957142Y-8682142D01*
X123861904Y-8896428D01*
X122719047Y-9753571D01*
X123957142Y-9753571D01*
X268247142Y-85148571D02*
X268247142Y-86362857D01*
X268318571Y-86505714D01*
X268390000Y-86577142D01*
X268532857Y-86648571D01*
X268818571Y-86648571D01*
X268961428Y-86577142D01*
X269032857Y-86505714D01*
X269104285Y-86362857D01*
X269104285Y-85148571D01*
X269747142Y-86577142D02*
X269961428Y-86648571D01*
X270318571Y-86648571D01*
X270461428Y-86577142D01*
X270532857Y-86505714D01*
X270604285Y-86362857D01*
X270604285Y-86220000D01*
X270532857Y-86077142D01*
X270461428Y-86005714D01*
X270318571Y-85934285D01*
X270032857Y-85862857D01*
X269890000Y-85791428D01*
X269818571Y-85720000D01*
X269747142Y-85577142D01*
X269747142Y-85434285D01*
X269818571Y-85291428D01*
X269890000Y-85220000D01*
X270032857Y-85148571D01*
X270390000Y-85148571D01*
X270604285Y-85220000D01*
X271747142Y-85862857D02*
X271961428Y-85934285D01*
X272032857Y-86005714D01*
X272104285Y-86148571D01*
X272104285Y-86362857D01*
X272032857Y-86505714D01*
X271961428Y-86577142D01*
X271818571Y-86648571D01*
X271247142Y-86648571D01*
X271247142Y-85148571D01*
X271747142Y-85148571D01*
X271890000Y-85220000D01*
X271961428Y-85291428D01*
X272032857Y-85434285D01*
X272032857Y-85577142D01*
X271961428Y-85720000D01*
X271890000Y-85791428D01*
X271747142Y-85862857D01*
X271247142Y-85862857D01*
X258207142Y-70678571D02*
X258207142Y-69178571D01*
X258207142Y-69892857D02*
X259064285Y-69892857D01*
X259064285Y-70678571D02*
X259064285Y-69178571D01*
X259778571Y-70678571D02*
X259778571Y-69178571D01*
X260135714Y-69178571D01*
X260350000Y-69250000D01*
X260492857Y-69392857D01*
X260564285Y-69535714D01*
X260635714Y-69821428D01*
X260635714Y-70035714D01*
X260564285Y-70321428D01*
X260492857Y-70464285D01*
X260350000Y-70607142D01*
X260135714Y-70678571D01*
X259778571Y-70678571D01*
X261278571Y-70678571D02*
X261278571Y-69178571D01*
X261778571Y-70250000D01*
X262278571Y-69178571D01*
X262278571Y-70678571D01*
X262992857Y-70678571D02*
X262992857Y-69178571D01*
X191318571Y-72428571D02*
X192318571Y-72428571D01*
X191318571Y-73928571D01*
X192318571Y-73928571D01*
X192675714Y-72428571D02*
X193532857Y-72428571D01*
X193104285Y-73928571D02*
X193104285Y-72428571D01*
X194604285Y-73857142D02*
X194461428Y-73928571D01*
X194175714Y-73928571D01*
X194032857Y-73857142D01*
X193961428Y-73714285D01*
X193961428Y-73142857D01*
X194032857Y-73000000D01*
X194175714Y-72928571D01*
X194461428Y-72928571D01*
X194604285Y-73000000D01*
X194675714Y-73142857D01*
X194675714Y-73285714D01*
X193961428Y-73428571D01*
X195175714Y-73928571D02*
X195961428Y-72928571D01*
X195175714Y-72928571D02*
X195961428Y-73928571D01*
X197604285Y-72571428D02*
X197675714Y-72500000D01*
X197818571Y-72428571D01*
X198175714Y-72428571D01*
X198318571Y-72500000D01*
X198390000Y-72571428D01*
X198461428Y-72714285D01*
X198461428Y-72857142D01*
X198390000Y-73071428D01*
X197532857Y-73928571D01*
X198461428Y-73928571D01*
X199104285Y-73785714D02*
X199175714Y-73857142D01*
X199104285Y-73928571D01*
X199032857Y-73857142D01*
X199104285Y-73785714D01*
X199104285Y-73928571D01*
X200604285Y-73928571D02*
X199747142Y-73928571D01*
X200175714Y-73928571D02*
X200175714Y-72428571D01*
X200032857Y-72642857D01*
X199890000Y-72785714D01*
X199747142Y-72857142D01*
X201104285Y-72428571D02*
X202032857Y-72428571D01*
X201532857Y-73000000D01*
X201747142Y-73000000D01*
X201890000Y-73071428D01*
X201961428Y-73142857D01*
X202032857Y-73285714D01*
X202032857Y-73642857D01*
X201961428Y-73785714D01*
X201890000Y-73857142D01*
X201747142Y-73928571D01*
X201318571Y-73928571D01*
X201175714Y-73857142D01*
X201104285Y-73785714D01*
X204032857Y-73928571D02*
X203890000Y-73857142D01*
X203818571Y-73785714D01*
X203747142Y-73642857D01*
X203747142Y-73214285D01*
X203818571Y-73071428D01*
X203890000Y-73000000D01*
X204032857Y-72928571D01*
X204247142Y-72928571D01*
X204390000Y-73000000D01*
X204461428Y-73071428D01*
X204532857Y-73214285D01*
X204532857Y-73642857D01*
X204461428Y-73785714D01*
X204390000Y-73857142D01*
X204247142Y-73928571D01*
X204032857Y-73928571D01*
X205818571Y-72928571D02*
X205818571Y-73928571D01*
X205175714Y-72928571D02*
X205175714Y-73714285D01*
X205247142Y-73857142D01*
X205390000Y-73928571D01*
X205604285Y-73928571D01*
X205747142Y-73857142D01*
X205818571Y-73785714D01*
X206318571Y-72928571D02*
X206890000Y-72928571D01*
X206532857Y-72428571D02*
X206532857Y-73714285D01*
X206604285Y-73857142D01*
X206747142Y-73928571D01*
X206890000Y-73928571D01*
X207604285Y-73928571D02*
X207461428Y-73857142D01*
X207390000Y-73714285D01*
X207390000Y-72428571D01*
X208175714Y-73928571D02*
X208175714Y-72928571D01*
X208175714Y-72428571D02*
X208104285Y-72500000D01*
X208175714Y-72571428D01*
X208247142Y-72500000D01*
X208175714Y-72428571D01*
X208175714Y-72571428D01*
X208890000Y-72928571D02*
X208890000Y-73928571D01*
X208890000Y-73071428D02*
X208961428Y-73000000D01*
X209104285Y-72928571D01*
X209318571Y-72928571D01*
X209461428Y-73000000D01*
X209532857Y-73142857D01*
X209532857Y-73928571D01*
X210818571Y-73857142D02*
X210675714Y-73928571D01*
X210390000Y-73928571D01*
X210247142Y-73857142D01*
X210175714Y-73714285D01*
X210175714Y-73142857D01*
X210247142Y-73000000D01*
X210390000Y-72928571D01*
X210675714Y-72928571D01*
X210818571Y-73000000D01*
X210890000Y-73142857D01*
X210890000Y-73285714D01*
X210175714Y-73428571D01*
X246027142Y-77793571D02*
X246027142Y-79007857D01*
X246098571Y-79150714D01*
X246170000Y-79222142D01*
X246312857Y-79293571D01*
X246598571Y-79293571D01*
X246741428Y-79222142D01*
X246812857Y-79150714D01*
X246884285Y-79007857D01*
X246884285Y-77793571D01*
X247527142Y-79222142D02*
X247741428Y-79293571D01*
X248098571Y-79293571D01*
X248241428Y-79222142D01*
X248312857Y-79150714D01*
X248384285Y-79007857D01*
X248384285Y-78865000D01*
X248312857Y-78722142D01*
X248241428Y-78650714D01*
X248098571Y-78579285D01*
X247812857Y-78507857D01*
X247670000Y-78436428D01*
X247598571Y-78365000D01*
X247527142Y-78222142D01*
X247527142Y-78079285D01*
X247598571Y-77936428D01*
X247670000Y-77865000D01*
X247812857Y-77793571D01*
X248170000Y-77793571D01*
X248384285Y-77865000D01*
X249527142Y-78507857D02*
X249741428Y-78579285D01*
X249812857Y-78650714D01*
X249884285Y-78793571D01*
X249884285Y-79007857D01*
X249812857Y-79150714D01*
X249741428Y-79222142D01*
X249598571Y-79293571D01*
X249027142Y-79293571D01*
X249027142Y-77793571D01*
X249527142Y-77793571D01*
X249670000Y-77865000D01*
X249741428Y-77936428D01*
X249812857Y-78079285D01*
X249812857Y-78222142D01*
X249741428Y-78365000D01*
X249670000Y-78436428D01*
X249527142Y-78507857D01*
X249027142Y-78507857D01*
X246348571Y-80843571D02*
X246348571Y-82343571D01*
X246348571Y-80915000D02*
X246491428Y-80843571D01*
X246777142Y-80843571D01*
X246920000Y-80915000D01*
X246991428Y-80986428D01*
X247062857Y-81129285D01*
X247062857Y-81557857D01*
X246991428Y-81700714D01*
X246920000Y-81772142D01*
X246777142Y-81843571D01*
X246491428Y-81843571D01*
X246348571Y-81772142D01*
X247562857Y-80843571D02*
X247848571Y-81843571D01*
X248134285Y-81129285D01*
X248420000Y-81843571D01*
X248705714Y-80843571D01*
X249277142Y-81843571D02*
X249277142Y-80843571D01*
X249277142Y-81129285D02*
X249348571Y-80986428D01*
X249420000Y-80915000D01*
X249562857Y-80843571D01*
X249705714Y-80843571D01*
X254107142Y-73603571D02*
X254107142Y-74817857D01*
X254178571Y-74960714D01*
X254250000Y-75032142D01*
X254392857Y-75103571D01*
X254678571Y-75103571D01*
X254821428Y-75032142D01*
X254892857Y-74960714D01*
X254964285Y-74817857D01*
X254964285Y-73603571D01*
X255607142Y-75032142D02*
X255821428Y-75103571D01*
X256178571Y-75103571D01*
X256321428Y-75032142D01*
X256392857Y-74960714D01*
X256464285Y-74817857D01*
X256464285Y-74675000D01*
X256392857Y-74532142D01*
X256321428Y-74460714D01*
X256178571Y-74389285D01*
X255892857Y-74317857D01*
X255750000Y-74246428D01*
X255678571Y-74175000D01*
X255607142Y-74032142D01*
X255607142Y-73889285D01*
X255678571Y-73746428D01*
X255750000Y-73675000D01*
X255892857Y-73603571D01*
X256250000Y-73603571D01*
X256464285Y-73675000D01*
X257607142Y-74317857D02*
X257821428Y-74389285D01*
X257892857Y-74460714D01*
X257964285Y-74603571D01*
X257964285Y-74817857D01*
X257892857Y-74960714D01*
X257821428Y-75032142D01*
X257678571Y-75103571D01*
X257107142Y-75103571D01*
X257107142Y-73603571D01*
X257607142Y-73603571D01*
X257750000Y-73675000D01*
X257821428Y-73746428D01*
X257892857Y-73889285D01*
X257892857Y-74032142D01*
X257821428Y-74175000D01*
X257750000Y-74246428D01*
X257607142Y-74317857D01*
X257107142Y-74317857D01*
X254428571Y-77653571D02*
X254428571Y-76153571D01*
X256214285Y-76082142D02*
X254928571Y-78010714D01*
X257000000Y-76153571D02*
X257285714Y-76153571D01*
X257428571Y-76225000D01*
X257571428Y-76367857D01*
X257642857Y-76653571D01*
X257642857Y-77153571D01*
X257571428Y-77439285D01*
X257428571Y-77582142D01*
X257285714Y-77653571D01*
X257000000Y-77653571D01*
X256857142Y-77582142D01*
X256714285Y-77439285D01*
X256642857Y-77153571D01*
X256642857Y-76653571D01*
X256714285Y-76367857D01*
X256857142Y-76225000D01*
X257000000Y-76153571D01*
X248107142Y-66253571D02*
X248107142Y-64753571D01*
X248107142Y-65467857D02*
X248964285Y-65467857D01*
X248964285Y-66253571D02*
X248964285Y-64753571D01*
X249678571Y-66253571D02*
X249678571Y-64753571D01*
X250035714Y-64753571D01*
X250250000Y-64825000D01*
X250392857Y-64967857D01*
X250464285Y-65110714D01*
X250535714Y-65396428D01*
X250535714Y-65610714D01*
X250464285Y-65896428D01*
X250392857Y-66039285D01*
X250250000Y-66182142D01*
X250035714Y-66253571D01*
X249678571Y-66253571D01*
X251178571Y-66253571D02*
X251178571Y-64753571D01*
X251678571Y-65825000D01*
X252178571Y-64753571D01*
X252178571Y-66253571D01*
X252892857Y-66253571D02*
X252892857Y-64753571D01*
X249571428Y-68732142D02*
X249428571Y-68803571D01*
X249142857Y-68803571D01*
X249000000Y-68732142D01*
X248928571Y-68660714D01*
X248857142Y-68517857D01*
X248857142Y-68089285D01*
X248928571Y-67946428D01*
X249000000Y-67875000D01*
X249142857Y-67803571D01*
X249428571Y-67803571D01*
X249571428Y-67875000D01*
X250000000Y-67803571D02*
X250571428Y-67803571D01*
X250214285Y-67303571D02*
X250214285Y-68589285D01*
X250285714Y-68732142D01*
X250428571Y-68803571D01*
X250571428Y-68803571D01*
X251071428Y-68803571D02*
X251071428Y-67803571D01*
X251071428Y-68089285D02*
X251142857Y-67946428D01*
X251214285Y-67875000D01*
X251357142Y-67803571D01*
X251500000Y-67803571D01*
X252214285Y-68803571D02*
X252071428Y-68732142D01*
X252000000Y-68589285D01*
X252000000Y-67303571D01*
X201398571Y-15643571D02*
X201246785Y-16857857D01*
X201300357Y-17000714D01*
X201362857Y-17072142D01*
X201496785Y-17143571D01*
X201782500Y-17143571D01*
X201934285Y-17072142D01*
X202014642Y-17000714D01*
X202103928Y-16857857D01*
X202255714Y-15643571D01*
X202720000Y-17072142D02*
X202853928Y-17143571D01*
X203139642Y-17143571D01*
X203291428Y-17072142D01*
X203380714Y-16929285D01*
X203389642Y-16857857D01*
X203336071Y-16715000D01*
X203202142Y-16643571D01*
X202987857Y-16643571D01*
X202853928Y-16572142D01*
X202800357Y-16429285D01*
X202809285Y-16357857D01*
X202898571Y-16215000D01*
X203050357Y-16143571D01*
X203264642Y-16143571D01*
X203398571Y-16215000D01*
X204577142Y-17072142D02*
X204425357Y-17143571D01*
X204139642Y-17143571D01*
X204005714Y-17072142D01*
X203952142Y-16929285D01*
X204023571Y-16357857D01*
X204112857Y-16215000D01*
X204264642Y-16143571D01*
X204550357Y-16143571D01*
X204684285Y-16215000D01*
X204737857Y-16357857D01*
X204720000Y-16500714D01*
X203987857Y-16643571D01*
X205282500Y-17143571D02*
X205407500Y-16143571D01*
X205371785Y-16429285D02*
X205461071Y-16286428D01*
X205541428Y-16215000D01*
X205693214Y-16143571D01*
X205836071Y-16143571D01*
X197425357Y-19693571D02*
X196711071Y-19693571D01*
X196898571Y-18193571D01*
X198023571Y-18907857D02*
X198523571Y-18907857D01*
X198639642Y-19693571D02*
X197925357Y-19693571D01*
X198112857Y-18193571D01*
X198827142Y-18193571D01*
X199282500Y-19693571D02*
X199470000Y-18193571D01*
X199827142Y-18193571D01*
X200032500Y-18265000D01*
X200157500Y-18407857D01*
X200211071Y-18550714D01*
X200246785Y-18836428D01*
X200220000Y-19050714D01*
X200112857Y-19336428D01*
X200023571Y-19479285D01*
X199862857Y-19622142D01*
X199639642Y-19693571D01*
X199282500Y-19693571D01*
X202398571Y-18193571D02*
X202541428Y-18193571D01*
X202675357Y-18265000D01*
X202737857Y-18336428D01*
X202791428Y-18479285D01*
X202827142Y-18765000D01*
X202782500Y-19122142D01*
X202675357Y-19407857D01*
X202586071Y-19550714D01*
X202505714Y-19622142D01*
X202353928Y-19693571D01*
X202211071Y-19693571D01*
X202077142Y-19622142D01*
X202014642Y-19550714D01*
X201961071Y-19407857D01*
X201925357Y-19122142D01*
X201970000Y-18765000D01*
X202077142Y-18479285D01*
X202166428Y-18336428D01*
X202246785Y-18265000D01*
X202398571Y-18193571D01*
X203371785Y-19550714D02*
X203434285Y-19622142D01*
X203353928Y-19693571D01*
X203291428Y-19622142D01*
X203371785Y-19550714D01*
X203353928Y-19693571D01*
X204086071Y-19550714D02*
X204148571Y-19622142D01*
X204068214Y-19693571D01*
X204005714Y-19622142D01*
X204086071Y-19550714D01*
X204068214Y-19693571D01*
X204827142Y-18193571D02*
X205755714Y-18193571D01*
X205184285Y-18765000D01*
X205398571Y-18765000D01*
X205532500Y-18836428D01*
X205595000Y-18907857D01*
X205648571Y-19050714D01*
X205603928Y-19407857D01*
X205514642Y-19550714D01*
X205434285Y-19622142D01*
X205282500Y-19693571D01*
X204853928Y-19693571D01*
X204720000Y-19622142D01*
X204657500Y-19550714D01*
X123968571Y-24312857D02*
X123968571Y-23455714D01*
X125468571Y-23884285D02*
X123968571Y-23884285D01*
X123968571Y-23098571D02*
X125468571Y-22098571D01*
X123968571Y-22098571D02*
X125468571Y-23098571D01*
X125538571Y-26230000D02*
X124824285Y-26730000D01*
X125538571Y-27087142D02*
X124038571Y-27087142D01*
X124038571Y-26515714D01*
X124110000Y-26372857D01*
X124181428Y-26301428D01*
X124324285Y-26230000D01*
X124538571Y-26230000D01*
X124681428Y-26301428D01*
X124752857Y-26372857D01*
X124824285Y-26515714D01*
X124824285Y-27087142D01*
X124038571Y-25730000D02*
X125538571Y-24730000D01*
X124038571Y-24730000D02*
X125538571Y-25730000D01*
X124310000Y-34772857D02*
X124238571Y-34915714D01*
X124238571Y-35130000D01*
X124310000Y-35344285D01*
X124452857Y-35487142D01*
X124595714Y-35558571D01*
X124881428Y-35630000D01*
X125095714Y-35630000D01*
X125381428Y-35558571D01*
X125524285Y-35487142D01*
X125667142Y-35344285D01*
X125738571Y-35130000D01*
X125738571Y-34987142D01*
X125667142Y-34772857D01*
X125595714Y-34701428D01*
X125095714Y-34701428D01*
X125095714Y-34987142D01*
X125738571Y-34058571D02*
X124238571Y-34058571D01*
X125738571Y-33201428D01*
X124238571Y-33201428D01*
X125738571Y-32487142D02*
X124238571Y-32487142D01*
X124238571Y-32130000D01*
X124310000Y-31915714D01*
X124452857Y-31772857D01*
X124595714Y-31701428D01*
X124881428Y-31630000D01*
X125095714Y-31630000D01*
X125381428Y-31701428D01*
X125524285Y-31772857D01*
X125667142Y-31915714D01*
X125738571Y-32130000D01*
X125738571Y-32487142D01*
X218844285Y-24502857D02*
X218344285Y-24502857D01*
X218344285Y-25288571D02*
X218344285Y-23788571D01*
X219058571Y-23788571D01*
X219630000Y-25288571D02*
X219630000Y-23788571D01*
X220201428Y-23788571D01*
X220344285Y-23860000D01*
X220415714Y-23931428D01*
X220487142Y-24074285D01*
X220487142Y-24288571D01*
X220415714Y-24431428D01*
X220344285Y-24502857D01*
X220201428Y-24574285D01*
X219630000Y-24574285D01*
X221915714Y-23860000D02*
X221772857Y-23788571D01*
X221558571Y-23788571D01*
X221344285Y-23860000D01*
X221201428Y-24002857D01*
X221130000Y-24145714D01*
X221058571Y-24431428D01*
X221058571Y-24645714D01*
X221130000Y-24931428D01*
X221201428Y-25074285D01*
X221344285Y-25217142D01*
X221558571Y-25288571D01*
X221701428Y-25288571D01*
X221915714Y-25217142D01*
X221987142Y-25145714D01*
X221987142Y-24645714D01*
X221701428Y-24645714D01*
X222558571Y-24860000D02*
X223272857Y-24860000D01*
X222415714Y-25288571D02*
X222915714Y-23788571D01*
X223415714Y-25288571D01*
X225487142Y-23788571D02*
X225487142Y-24860000D01*
X225415714Y-25074285D01*
X225272857Y-25217142D01*
X225058571Y-25288571D01*
X224915714Y-25288571D01*
X225987142Y-23788571D02*
X226844285Y-23788571D01*
X226415714Y-25288571D02*
X226415714Y-23788571D01*
X227272857Y-24860000D02*
X227987142Y-24860000D01*
X227130000Y-25288571D02*
X227630000Y-23788571D01*
X228130000Y-25288571D01*
X229415714Y-23860000D02*
X229272857Y-23788571D01*
X229058571Y-23788571D01*
X228844285Y-23860000D01*
X228701428Y-24002857D01*
X228630000Y-24145714D01*
X228558571Y-24431428D01*
X228558571Y-24645714D01*
X228630000Y-24931428D01*
X228701428Y-25074285D01*
X228844285Y-25217142D01*
X229058571Y-25288571D01*
X229201428Y-25288571D01*
X229415714Y-25217142D01*
X229487142Y-25145714D01*
X229487142Y-24645714D01*
X229201428Y-24645714D01*
D12*
X274170000Y-17750000D02*
X264170000Y-17750000D01*
X15120000Y-3480000D02*
X15120000Y-13480000D01*
X91320000Y-3480000D02*
X91320000Y-13480000D01*
X15120000Y-13480000D02*
X91320000Y-13480000D01*
X15120000Y-13480000D02*
X1120000Y-13480000D01*
X1120000Y-13480000D02*
X1120000Y-3480000D01*
X-170000Y-13480000D02*
X-170000Y-3480000D01*
X13830000Y-13480000D02*
X-170000Y-13480000D01*
X13830000Y-13480000D02*
X90030000Y-13480000D01*
X90030000Y-3480000D02*
X90030000Y-13480000D01*
X13830000Y-3480000D02*
X13830000Y-13480000D01*
X76330000Y-105080000D02*
X76330000Y-3480000D01*
X-22580000Y-105080000D02*
X-22580000Y-3480000D01*
X273330000Y-105080000D02*
X273330000Y-3480000D01*
X95530000Y-105080000D02*
X95530000Y-3480000D01*
X274170000Y-105080000D02*
X-22580000Y-105080000D01*
X274170000Y-3480000D02*
X274170000Y-105080000D01*
X-22580000Y-3480000D02*
X274170000Y-3480000D01*
X127470000Y-74450000D02*
X127470000Y-23650000D01*
X127470000Y-74450000D02*
X211270000Y-74450000D01*
X127470000Y-23650000D02*
X211270000Y-23650000D01*
D13*
G04 #@! TO.C,D7*
X136450000Y-19060293D02*
X136450000Y-21745293D01*
X136450000Y-21745293D02*
X138370000Y-21745293D01*
X138370000Y-21745293D02*
X138370000Y-19060293D01*
G04 #@! TO.C,D6*
X135840000Y-21745293D02*
X135840000Y-19060293D01*
X133920000Y-21745293D02*
X135840000Y-21745293D01*
X133920000Y-19060293D02*
X133920000Y-21745293D01*
G04 #@! TO.C,D8*
X121610000Y-70110000D02*
X124295000Y-70110000D01*
X124295000Y-70110000D02*
X124295000Y-68190000D01*
X124295000Y-68190000D02*
X121610000Y-68190000D01*
G04 #@! TO.C,D9*
X176681484Y-21782130D02*
X176681484Y-19097130D01*
X174761484Y-21782130D02*
X176681484Y-21782130D01*
X174761484Y-19097130D02*
X174761484Y-21782130D01*
G04 #@! TO.C,D10*
X177301484Y-19097130D02*
X177301484Y-21782130D01*
X177301484Y-21782130D02*
X179221484Y-21782130D01*
X179221484Y-21782130D02*
X179221484Y-19097130D01*
G04 #@! TO.C,R11*
X135390000Y-15897514D02*
X135390000Y-16223072D01*
X134370000Y-15897514D02*
X134370000Y-16223072D01*
G04 #@! TO.C,R12*
X136910000Y-15897514D02*
X136910000Y-16223072D01*
X137930000Y-15897514D02*
X137930000Y-16223072D01*
G04 #@! TO.C,R13*
X118447221Y-68640000D02*
X118772779Y-68640000D01*
X118447221Y-69660000D02*
X118772779Y-69660000D01*
G04 #@! TO.C,R14*
X175211484Y-16054351D02*
X175211484Y-16379909D01*
X176231484Y-16054351D02*
X176231484Y-16379909D01*
G04 #@! TO.C,R15*
X178771484Y-16054351D02*
X178771484Y-16379909D01*
X177751484Y-16054351D02*
X177751484Y-16379909D01*
G04 #@! TO.C,D4*
X190663332Y-14315000D02*
X190663332Y-17000000D01*
X192583332Y-14315000D02*
X190663332Y-14315000D01*
X192583332Y-17000000D02*
X192583332Y-14315000D01*
G04 #@! TO.C,D5*
X194835000Y-17000000D02*
X194835000Y-14315000D01*
X194835000Y-14315000D02*
X192915000Y-14315000D01*
X192915000Y-14315000D02*
X192915000Y-17000000D01*
G04 #@! TO.C,R10*
X194385000Y-19812779D02*
X194385000Y-19487221D01*
X193365000Y-19812779D02*
X193365000Y-19487221D01*
G04 #@! TO.C,R9*
X191113332Y-19762779D02*
X191113332Y-19437221D01*
X192133332Y-19762779D02*
X192133332Y-19437221D01*
G04 #@! TO.C,C12*
X127660000Y-50962221D02*
X127660000Y-51287779D01*
X126640000Y-50962221D02*
X126640000Y-51287779D01*
G04 #@! TO.C,J9*
X124300000Y-48520000D02*
X125410000Y-48520000D01*
X125410000Y-48520000D02*
X125410000Y-49850000D01*
X111670000Y-48520000D02*
X111670000Y-63880000D01*
X111670000Y-63880000D02*
X120300000Y-63880000D01*
X120300000Y-48520000D02*
X120300000Y-63880000D01*
X111670000Y-48520000D02*
X120300000Y-48520000D01*
X111670000Y-61280000D02*
X120300000Y-61280000D01*
X111670000Y-58740000D02*
X120300000Y-58740000D01*
X111670000Y-56200000D02*
X120300000Y-56200000D01*
X111670000Y-53660000D02*
X120300000Y-53660000D01*
X111670000Y-51120000D02*
X120300000Y-51120000D01*
X122810000Y-62910000D02*
X123250000Y-62910000D01*
X120300000Y-62910000D02*
X120710000Y-62910000D01*
X122810000Y-62190000D02*
X123250000Y-62190000D01*
X120300000Y-62190000D02*
X120710000Y-62190000D01*
X122810000Y-60370000D02*
X123250000Y-60370000D01*
X120300000Y-60370000D02*
X120710000Y-60370000D01*
X122810000Y-59650000D02*
X123250000Y-59650000D01*
X120300000Y-59650000D02*
X120710000Y-59650000D01*
X122810000Y-57830000D02*
X123250000Y-57830000D01*
X120300000Y-57830000D02*
X120710000Y-57830000D01*
X122810000Y-57110000D02*
X123250000Y-57110000D01*
X120300000Y-57110000D02*
X120710000Y-57110000D01*
X122810000Y-55290000D02*
X123250000Y-55290000D01*
X120300000Y-55290000D02*
X120710000Y-55290000D01*
X122810000Y-54570000D02*
X123250000Y-54570000D01*
X120300000Y-54570000D02*
X120710000Y-54570000D01*
X122810000Y-52750000D02*
X123250000Y-52750000D01*
X120300000Y-52750000D02*
X120710000Y-52750000D01*
X122810000Y-52030000D02*
X123250000Y-52030000D01*
X120300000Y-52030000D02*
X120710000Y-52030000D01*
X122810000Y-50210000D02*
X123190000Y-50210000D01*
X120300000Y-50210000D02*
X120710000Y-50210000D01*
X122810000Y-49490000D02*
X123190000Y-49490000D01*
X120300000Y-49490000D02*
X120710000Y-49490000D01*
X111670000Y-51001900D02*
X120300000Y-51001900D01*
X111670000Y-50883805D02*
X120300000Y-50883805D01*
X111670000Y-50765710D02*
X120300000Y-50765710D01*
X111670000Y-50647615D02*
X120300000Y-50647615D01*
X111670000Y-50529520D02*
X120300000Y-50529520D01*
X111670000Y-50411425D02*
X120300000Y-50411425D01*
X111670000Y-50293330D02*
X120300000Y-50293330D01*
X111670000Y-50175235D02*
X120300000Y-50175235D01*
X111670000Y-50057140D02*
X120300000Y-50057140D01*
X111670000Y-49939045D02*
X120300000Y-49939045D01*
X111670000Y-49820950D02*
X120300000Y-49820950D01*
X111670000Y-49702855D02*
X120300000Y-49702855D01*
X111670000Y-49584760D02*
X120300000Y-49584760D01*
X111670000Y-49466665D02*
X120300000Y-49466665D01*
X111670000Y-49348570D02*
X120300000Y-49348570D01*
X111670000Y-49230475D02*
X120300000Y-49230475D01*
X111670000Y-49112380D02*
X120300000Y-49112380D01*
X111670000Y-48994285D02*
X120300000Y-48994285D01*
X111670000Y-48876190D02*
X120300000Y-48876190D01*
X111670000Y-48758095D02*
X120300000Y-48758095D01*
X111670000Y-48640000D02*
X120300000Y-48640000D01*
G04 #@! TO.C,C11*
X147510000Y-49237221D02*
X147510000Y-49562779D01*
X146490000Y-49237221D02*
X146490000Y-49562779D01*
G04 #@! TO.C,U12*
X151510000Y-49400000D02*
X151510000Y-47600000D01*
X148290000Y-47600000D02*
X148290000Y-50050000D01*
D14*
G04 #@! TO.C,U14*
X145650000Y-51025000D02*
X145650000Y-46575000D01*
X138750000Y-52550000D02*
X138750000Y-46575000D01*
D13*
G04 #@! TO.C,C9*
X156837221Y-20890000D02*
X157162779Y-20890000D01*
X156837221Y-21910000D02*
X157162779Y-21910000D01*
G04 #@! TO.C,C10*
X156741422Y-22890000D02*
X157258578Y-22890000D01*
X156741422Y-24310000D02*
X157258578Y-24310000D01*
D15*
G04 #@! TO.C,J2*
X150000000Y-19850000D02*
X163600000Y-19850000D01*
X150000000Y-5350000D02*
X163600000Y-5350000D01*
X150000000Y-5400000D02*
X150000000Y-7800000D01*
X163600000Y-5400000D02*
X163600000Y-7800000D01*
X150800000Y-19800000D02*
X150800000Y-19100000D01*
X162800000Y-19800000D02*
X162800000Y-19100000D01*
X150800000Y-19100000D02*
X152500000Y-18100000D01*
X152500000Y-18100000D02*
X154900000Y-17500000D01*
X154900000Y-17500000D02*
X158400000Y-17500000D01*
X158400000Y-17500000D02*
X161000000Y-18100000D01*
X161000000Y-18100000D02*
X162800000Y-19100000D01*
X150000000Y-7800000D02*
X163600000Y-7800000D01*
D13*
G04 #@! TO.C,C8*
X190412779Y-47460000D02*
X190087221Y-47460000D01*
X190412779Y-46440000D02*
X190087221Y-46440000D01*
D14*
G04 #@! TO.C,U13*
X184300000Y-48125000D02*
X184300000Y-48250000D01*
X188950000Y-48125000D02*
X188950000Y-48350000D01*
X188950000Y-53375000D02*
X188950000Y-53150000D01*
X184300000Y-53375000D02*
X184300000Y-53150000D01*
X184300000Y-48125000D02*
X188950000Y-48125000D01*
X184300000Y-53375000D02*
X188950000Y-53375000D01*
X184300000Y-48250000D02*
X182950000Y-48250000D01*
D13*
G04 #@! TO.C,C7*
X134890000Y-72362779D02*
X134890000Y-72037221D01*
X135910000Y-72362779D02*
X135910000Y-72037221D01*
D14*
G04 #@! TO.C,U4*
X130175000Y-74875000D02*
X130175000Y-75000000D01*
X134825000Y-74875000D02*
X134825000Y-75100000D01*
X134825000Y-80125000D02*
X134825000Y-79900000D01*
X130175000Y-80125000D02*
X130175000Y-79900000D01*
X130175000Y-74875000D02*
X134825000Y-74875000D01*
X130175000Y-80125000D02*
X134825000Y-80125000D01*
X130175000Y-75000000D02*
X128825000Y-75000000D01*
D13*
G04 #@! TO.C,C30*
X138210000Y-46637221D02*
X138210000Y-46962779D01*
X137190000Y-46637221D02*
X137190000Y-46962779D01*
G04 #@! TO.C,R36*
X114562779Y-83190000D02*
X114237221Y-83190000D01*
X114562779Y-84210000D02*
X114237221Y-84210000D01*
G04 #@! TO.C,R37*
X120137221Y-79290000D02*
X120462779Y-79290000D01*
X120137221Y-80310000D02*
X120462779Y-80310000D01*
G04 #@! TO.C,R38*
X125662779Y-82790000D02*
X125337221Y-82790000D01*
X125662779Y-83810000D02*
X125337221Y-83810000D01*
G04 #@! TO.C,R39*
X121237221Y-82190000D02*
X121562779Y-82190000D01*
X121237221Y-83210000D02*
X121562779Y-83210000D01*
G04 #@! TO.C,R40*
X182610000Y-85262779D02*
X182610000Y-84937221D01*
X181590000Y-85262779D02*
X181590000Y-84937221D01*
G04 #@! TO.C,R41*
X186262779Y-71810000D02*
X185937221Y-71810000D01*
X186262779Y-70790000D02*
X185937221Y-70790000D01*
G04 #@! TO.C,R42*
X143162779Y-84390000D02*
X142837221Y-84390000D01*
X143162779Y-85410000D02*
X142837221Y-85410000D01*
G04 #@! TO.C,R43*
X144437221Y-82690000D02*
X144762779Y-82690000D01*
X144437221Y-83710000D02*
X144762779Y-83710000D01*
G04 #@! TO.C,R44*
X136410000Y-89762779D02*
X136410000Y-89437221D01*
X135390000Y-89762779D02*
X135390000Y-89437221D01*
G04 #@! TO.C,R45*
X139762779Y-85410000D02*
X139437221Y-85410000D01*
X139762779Y-84390000D02*
X139437221Y-84390000D01*
G04 #@! TO.C,C3*
X131041422Y-55390000D02*
X131558578Y-55390000D01*
X131041422Y-56810000D02*
X131558578Y-56810000D01*
G04 #@! TO.C,D3*
X113840000Y-14500000D02*
X113840000Y-17185000D01*
X113840000Y-17185000D02*
X115760000Y-17185000D01*
X115760000Y-17185000D02*
X115760000Y-14500000D01*
G04 #@! TO.C,R3*
X115310000Y-11837221D02*
X115310000Y-12162779D01*
X114290000Y-11837221D02*
X114290000Y-12162779D01*
G04 #@! TO.C,C5*
X181990000Y-73062779D02*
X181990000Y-72737221D01*
X183010000Y-73062779D02*
X183010000Y-72737221D01*
D14*
G04 #@! TO.C,U2*
X181875000Y-80825000D02*
X182000000Y-80825000D01*
X181875000Y-76175000D02*
X182100000Y-76175000D01*
X187125000Y-76175000D02*
X186900000Y-76175000D01*
X187125000Y-80825000D02*
X186900000Y-80825000D01*
X181875000Y-80825000D02*
X181875000Y-76175000D01*
X187125000Y-80825000D02*
X187125000Y-76175000D01*
X182000000Y-80825000D02*
X182000000Y-82175000D01*
G04 #@! TO.C,U6*
X168950000Y-80725000D02*
X168950000Y-76275000D01*
X162050000Y-82250000D02*
X162050000Y-76275000D01*
G04 #@! TO.C,U8*
X188550000Y-82250000D02*
X188550000Y-76275000D01*
X195450000Y-80725000D02*
X195450000Y-76275000D01*
G04 #@! TO.C,U7*
X180450000Y-80725000D02*
X180450000Y-76275000D01*
X173550000Y-82250000D02*
X173550000Y-76275000D01*
G04 #@! TO.C,U5*
X155950000Y-80725000D02*
X155950000Y-76275000D01*
X149050000Y-82250000D02*
X149050000Y-76275000D01*
D13*
G04 #@! TO.C,C4*
X119362779Y-85290000D02*
X119037221Y-85290000D01*
X119362779Y-84270000D02*
X119037221Y-84270000D01*
D14*
G04 #@! TO.C,U1*
X114375000Y-86155000D02*
X114375000Y-86280000D01*
X119025000Y-86155000D02*
X119025000Y-86380000D01*
X119025000Y-91405000D02*
X119025000Y-91180000D01*
X114375000Y-91405000D02*
X114375000Y-91180000D01*
X114375000Y-86155000D02*
X119025000Y-86155000D01*
X114375000Y-91405000D02*
X119025000Y-91405000D01*
X114375000Y-86280000D02*
X113025000Y-86280000D01*
D13*
G04 #@! TO.C,C6*
X139210000Y-90262779D02*
X139210000Y-89937221D01*
X138190000Y-90262779D02*
X138190000Y-89937221D01*
D14*
G04 #@! TO.C,U3*
X146075000Y-91375000D02*
X146075000Y-91250000D01*
X141425000Y-91375000D02*
X141425000Y-91150000D01*
X141425000Y-86125000D02*
X141425000Y-86350000D01*
X146075000Y-86125000D02*
X146075000Y-86350000D01*
X146075000Y-91375000D02*
X141425000Y-91375000D01*
X146075000Y-86125000D02*
X141425000Y-86125000D01*
X146075000Y-91250000D02*
X147425000Y-91250000D01*
D12*
G04 #@! TO.C,U9*
X246610000Y-54965000D02*
G75*
G03X246610000Y-54965000I-100000J0D01*
G01*
D15*
X248750000Y-54850000D02*
X253150000Y-54850000D01*
X248750000Y-63050000D02*
X253150000Y-63050000D01*
D13*
G04 #@! TO.C,D11*
X124587634Y-44917042D02*
X121902634Y-44917042D01*
X124587634Y-46837042D02*
X124587634Y-44917042D01*
X121902634Y-46837042D02*
X124587634Y-46837042D01*
G04 #@! TO.C,D14*
X121902634Y-37937042D02*
X124587634Y-37937042D01*
X124587634Y-37937042D02*
X124587634Y-36017042D01*
X124587634Y-36017042D02*
X121902634Y-36017042D01*
G04 #@! TO.C,D13*
X124587634Y-38983708D02*
X121902634Y-38983708D01*
X124587634Y-40903708D02*
X124587634Y-38983708D01*
X121902634Y-40903708D02*
X124587634Y-40903708D01*
G04 #@! TO.C,D12*
X121902634Y-43870374D02*
X124587634Y-43870374D01*
X124587634Y-43870374D02*
X124587634Y-41950374D01*
X124587634Y-41950374D02*
X121902634Y-41950374D01*
G04 #@! TO.C,R16*
X118889855Y-46387042D02*
X119215413Y-46387042D01*
X118889855Y-45367042D02*
X119215413Y-45367042D01*
G04 #@! TO.C,R19*
X118889855Y-36467042D02*
X119215413Y-36467042D01*
X118889855Y-37487042D02*
X119215413Y-37487042D01*
G04 #@! TO.C,R18*
X118889855Y-40453708D02*
X119215413Y-40453708D01*
X118889855Y-39433708D02*
X119215413Y-39433708D01*
G04 #@! TO.C,R17*
X118889855Y-42400374D02*
X119215413Y-42400374D01*
X118889855Y-43420374D02*
X119215413Y-43420374D01*
G04 #@! TO.C,J6*
X268897500Y-82970000D02*
X268897500Y-82520000D01*
X270747500Y-82970000D02*
X268897500Y-82970000D01*
X273297500Y-75170000D02*
X273047500Y-75170000D01*
X273297500Y-82970000D02*
X273047500Y-82970000D01*
X270747500Y-75170000D02*
X268897500Y-75170000D01*
X268897500Y-75170000D02*
X268897500Y-75620000D01*
X268347500Y-80770000D02*
X268347500Y-80320000D01*
X268347500Y-80770000D02*
X268797500Y-80770000D01*
G04 #@! TO.C,C29*
X203841422Y-81490000D02*
X204358578Y-81490000D01*
X203841422Y-82910000D02*
X204358578Y-82910000D01*
G04 #@! TO.C,C17*
X163510000Y-73062779D02*
X163510000Y-72737221D01*
X162490000Y-73062779D02*
X162490000Y-72737221D01*
G04 #@! TO.C,J8*
X204100000Y-80410000D02*
X204100000Y-77750000D01*
X204100000Y-80410000D02*
X206700000Y-80410000D01*
X206700000Y-80410000D02*
X206700000Y-77750000D01*
X204100000Y-77750000D02*
X206700000Y-77750000D01*
X201500000Y-77750000D02*
X202830000Y-77750000D01*
X201500000Y-79080000D02*
X201500000Y-77750000D01*
G04 #@! TO.C,C18*
X173990000Y-73062779D02*
X173990000Y-72737221D01*
X175010000Y-73062779D02*
X175010000Y-72737221D01*
G04 #@! TO.C,C19*
X190010000Y-73062779D02*
X190010000Y-72737221D01*
X188990000Y-73062779D02*
X188990000Y-72737221D01*
G04 #@! TO.C,C14*
X149390000Y-73062779D02*
X149390000Y-72737221D01*
X150410000Y-73062779D02*
X150410000Y-72737221D01*
G04 #@! TO.C,C28*
X221521422Y-95290000D02*
X222038578Y-95290000D01*
X221521422Y-96710000D02*
X222038578Y-96710000D01*
G04 #@! TO.C,J7*
X216860000Y-88240000D02*
X216860000Y-94260000D01*
X216860000Y-94260000D02*
X224700000Y-94260000D01*
X224700000Y-94260000D02*
X224700000Y-88240000D01*
X224700000Y-88240000D02*
X216860000Y-88240000D01*
X216570000Y-89270000D02*
X216570000Y-93270000D01*
X218240000Y-94260000D02*
X218240000Y-93260000D01*
X218240000Y-93260000D02*
X223320000Y-93260000D01*
X223320000Y-93260000D02*
X223320000Y-94260000D01*
X218240000Y-93260000D02*
X218490000Y-92730000D01*
X218490000Y-92730000D02*
X223070000Y-92730000D01*
X223070000Y-92730000D02*
X223320000Y-93260000D01*
X218490000Y-94260000D02*
X218490000Y-93260000D01*
X223070000Y-94260000D02*
X223070000Y-93260000D01*
X217440000Y-88240000D02*
X217440000Y-88840000D01*
X217440000Y-88840000D02*
X219040000Y-88840000D01*
X219040000Y-88840000D02*
X219040000Y-88240000D01*
X219980000Y-88240000D02*
X219980000Y-88840000D01*
X219980000Y-88840000D02*
X221580000Y-88840000D01*
X221580000Y-88840000D02*
X221580000Y-88240000D01*
X222520000Y-88240000D02*
X222520000Y-88840000D01*
X222520000Y-88840000D02*
X224120000Y-88840000D01*
X224120000Y-88840000D02*
X224120000Y-88240000D01*
G04 #@! TO.C,R6*
X132207842Y-86169870D02*
X132207842Y-85844312D01*
X131187842Y-86169870D02*
X131187842Y-85844312D01*
G04 #@! TO.C,R7*
X129387842Y-86169870D02*
X129387842Y-85844312D01*
X130407842Y-86169870D02*
X130407842Y-85844312D01*
G04 #@! TO.C,R8*
X127587842Y-85844312D02*
X127587842Y-86169870D01*
X128607842Y-85844312D02*
X128607842Y-86169870D01*
G04 #@! TO.C,R5*
X132987842Y-86169870D02*
X132987842Y-85844312D01*
X134007842Y-86169870D02*
X134007842Y-85844312D01*
G04 #@! TO.C,C20*
X253310000Y-53182779D02*
X253310000Y-52857221D01*
X254330000Y-53182779D02*
X254330000Y-52857221D01*
G04 #@! TO.C,JCD1*
X210070000Y-31330000D02*
X210070000Y-26130000D01*
X131270000Y-31330000D02*
X210070000Y-31330000D01*
X128670000Y-26130000D02*
X210070000Y-26130000D01*
X131270000Y-31330000D02*
X131270000Y-28730000D01*
X131270000Y-28730000D02*
X128670000Y-28730000D01*
X128670000Y-28730000D02*
X128670000Y-26130000D01*
X130000000Y-31330000D02*
X128670000Y-31330000D01*
X128670000Y-31330000D02*
X128670000Y-30000000D01*
G04 #@! TO.C,C1*
X172537779Y-34110000D02*
X172212221Y-34110000D01*
X172537779Y-33090000D02*
X172212221Y-33090000D01*
G04 #@! TO.C,J1*
X215170000Y-26440000D02*
X215170000Y-30560000D01*
X227230000Y-26440000D02*
X215170000Y-26440000D01*
X229290000Y-30560000D02*
X215170000Y-30560000D01*
X227230000Y-26440000D02*
X227230000Y-28500000D01*
X227230000Y-28500000D02*
X229290000Y-28500000D01*
X229290000Y-28500000D02*
X229290000Y-30560000D01*
X228230000Y-26440000D02*
X229290000Y-26440000D01*
X229290000Y-26440000D02*
X229290000Y-27500000D01*
G04 #@! TO.C,C26*
X254467221Y-89570000D02*
X254792779Y-89570000D01*
X254467221Y-88550000D02*
X254792779Y-88550000D01*
G04 #@! TO.C,C27*
X253212779Y-81970000D02*
X252887221Y-81970000D01*
X253212779Y-80950000D02*
X252887221Y-80950000D01*
G04 #@! TO.C,C25*
X258012064Y-87270000D02*
X256807936Y-87270000D01*
X258012064Y-85450000D02*
X256807936Y-85450000D01*
G04 #@! TO.C,FB1*
X257611422Y-83360000D02*
X258128578Y-83360000D01*
X257611422Y-84780000D02*
X258128578Y-84780000D01*
G04 #@! TO.C,U11*
X251290000Y-84310000D02*
X251290000Y-86110000D01*
X254510000Y-86110000D02*
X254510000Y-83660000D01*
G04 #@! TO.C,U10*
X266300000Y-77745000D02*
X264500000Y-77745000D01*
X264500000Y-80965000D02*
X266950000Y-80965000D01*
G04 #@! TO.C,R22*
X263672779Y-76050000D02*
X263347221Y-76050000D01*
X263672779Y-77070000D02*
X263347221Y-77070000D01*
G04 #@! TO.C,R23*
X263672779Y-82660000D02*
X263347221Y-82660000D01*
X263672779Y-81640000D02*
X263347221Y-81640000D01*
G04 #@! TO.C,R25*
X261370000Y-81062779D02*
X261370000Y-80737221D01*
X260350000Y-81062779D02*
X260350000Y-80737221D01*
G04 #@! TO.C,R26*
X249402779Y-86820000D02*
X249077221Y-86820000D01*
X249402779Y-85800000D02*
X249077221Y-85800000D01*
G04 #@! TO.C,R24*
X261370000Y-77972779D02*
X261370000Y-77647221D01*
X260350000Y-77972779D02*
X260350000Y-77647221D01*
G04 #@! TO.C,R27*
X249402779Y-84620000D02*
X249077221Y-84620000D01*
X249402779Y-83600000D02*
X249077221Y-83600000D01*
G04 #@! TO.C,D2*
X190331666Y-16990000D02*
X190331666Y-14305000D01*
X190331666Y-14305000D02*
X188411666Y-14305000D01*
X188411666Y-14305000D02*
X188411666Y-16990000D01*
G04 #@! TO.C,D1*
X186160000Y-14305000D02*
X186160000Y-16990000D01*
X188080000Y-14305000D02*
X186160000Y-14305000D01*
X188080000Y-16990000D02*
X188080000Y-14305000D01*
G04 #@! TO.C,R2*
X189881666Y-19742779D02*
X189881666Y-19417221D01*
X188861666Y-19742779D02*
X188861666Y-19417221D01*
G04 #@! TO.C,R1*
X186610000Y-19742779D02*
X186610000Y-19417221D01*
X187630000Y-19742779D02*
X187630000Y-19417221D01*
G04 #@! TO.C,C24*
X262520000Y-66407221D02*
X262520000Y-66732779D01*
X263540000Y-66407221D02*
X263540000Y-66732779D01*
G04 #@! TO.C,C23*
X245370000Y-61252779D02*
X245370000Y-60927221D01*
X244350000Y-61252779D02*
X244350000Y-60927221D01*
G04 #@! TO.C,C22*
X255780000Y-54762779D02*
X255780000Y-54437221D01*
X256800000Y-54762779D02*
X256800000Y-54437221D01*
G04 #@! TO.C,C21*
X259798578Y-54520000D02*
X259281422Y-54520000D01*
X259798578Y-53100000D02*
X259281422Y-53100000D01*
G04 #@! TO.C,J5*
X270600000Y-54100000D02*
X267600000Y-54100000D01*
X265500000Y-70500000D02*
X266100000Y-70500000D01*
X265500000Y-56800000D02*
X264850000Y-56800000D01*
X265500000Y-54100000D02*
X265500000Y-56800000D01*
X265500000Y-54100000D02*
X266100000Y-54100000D01*
X274100000Y-54100000D02*
X273100000Y-54100000D01*
X273100000Y-70500000D02*
X274100000Y-70500000D01*
X265500000Y-70500000D02*
X265500000Y-67300000D01*
X270600000Y-70500000D02*
X267600000Y-70500000D01*
G04 #@! TO.C,C39*
X267860000Y-43360000D02*
G75*
G03X267860000Y-43360000I-3270000J0D01*
G01*
X264590000Y-46590000D02*
X264590000Y-40130000D01*
X264550000Y-46590000D02*
X264550000Y-40130000D01*
X264510000Y-46590000D02*
X264510000Y-40130000D01*
X264470000Y-46588000D02*
X264470000Y-40132000D01*
X264430000Y-46587000D02*
X264430000Y-40133000D01*
X264390000Y-46584000D02*
X264390000Y-40136000D01*
X264350000Y-46582000D02*
X264350000Y-44400000D01*
X264350000Y-42320000D02*
X264350000Y-40138000D01*
X264310000Y-46578000D02*
X264310000Y-44400000D01*
X264310000Y-42320000D02*
X264310000Y-40142000D01*
X264270000Y-46575000D02*
X264270000Y-44400000D01*
X264270000Y-42320000D02*
X264270000Y-40145000D01*
X264230000Y-46571000D02*
X264230000Y-44400000D01*
X264230000Y-42320000D02*
X264230000Y-40149000D01*
X264190000Y-46566000D02*
X264190000Y-44400000D01*
X264190000Y-42320000D02*
X264190000Y-40154000D01*
X264150000Y-46561000D02*
X264150000Y-44400000D01*
X264150000Y-42320000D02*
X264150000Y-40159000D01*
X264110000Y-46555000D02*
X264110000Y-44400000D01*
X264110000Y-42320000D02*
X264110000Y-40165000D01*
X264070000Y-46549000D02*
X264070000Y-44400000D01*
X264070000Y-42320000D02*
X264070000Y-40171000D01*
X264030000Y-46542000D02*
X264030000Y-44400000D01*
X264030000Y-42320000D02*
X264030000Y-40178000D01*
X263990000Y-46535000D02*
X263990000Y-44400000D01*
X263990000Y-42320000D02*
X263990000Y-40185000D01*
X263950000Y-46527000D02*
X263950000Y-44400000D01*
X263950000Y-42320000D02*
X263950000Y-40193000D01*
X263910000Y-46519000D02*
X263910000Y-44400000D01*
X263910000Y-42320000D02*
X263910000Y-40201000D01*
X263869000Y-46510000D02*
X263869000Y-44400000D01*
X263869000Y-42320000D02*
X263869000Y-40210000D01*
X263829000Y-46501000D02*
X263829000Y-44400000D01*
X263829000Y-42320000D02*
X263829000Y-40219000D01*
X263789000Y-46491000D02*
X263789000Y-44400000D01*
X263789000Y-42320000D02*
X263789000Y-40229000D01*
X263749000Y-46481000D02*
X263749000Y-44400000D01*
X263749000Y-42320000D02*
X263749000Y-40239000D01*
X263709000Y-46470000D02*
X263709000Y-44400000D01*
X263709000Y-42320000D02*
X263709000Y-40250000D01*
X263669000Y-46458000D02*
X263669000Y-44400000D01*
X263669000Y-42320000D02*
X263669000Y-40262000D01*
X263629000Y-46446000D02*
X263629000Y-44400000D01*
X263629000Y-42320000D02*
X263629000Y-40274000D01*
X263589000Y-46434000D02*
X263589000Y-44400000D01*
X263589000Y-42320000D02*
X263589000Y-40286000D01*
X263549000Y-46421000D02*
X263549000Y-44400000D01*
X263549000Y-42320000D02*
X263549000Y-40299000D01*
X263509000Y-46407000D02*
X263509000Y-44400000D01*
X263509000Y-42320000D02*
X263509000Y-40313000D01*
X263469000Y-46393000D02*
X263469000Y-44400000D01*
X263469000Y-42320000D02*
X263469000Y-40327000D01*
X263429000Y-46378000D02*
X263429000Y-44400000D01*
X263429000Y-42320000D02*
X263429000Y-40342000D01*
X263389000Y-46362000D02*
X263389000Y-44400000D01*
X263389000Y-42320000D02*
X263389000Y-40358000D01*
X263349000Y-46346000D02*
X263349000Y-44400000D01*
X263349000Y-42320000D02*
X263349000Y-40374000D01*
X263309000Y-46330000D02*
X263309000Y-44400000D01*
X263309000Y-42320000D02*
X263309000Y-40390000D01*
X263269000Y-46312000D02*
X263269000Y-44400000D01*
X263269000Y-42320000D02*
X263269000Y-40408000D01*
X263229000Y-46294000D02*
X263229000Y-44400000D01*
X263229000Y-42320000D02*
X263229000Y-40426000D01*
X263189000Y-46276000D02*
X263189000Y-44400000D01*
X263189000Y-42320000D02*
X263189000Y-40444000D01*
X263149000Y-46256000D02*
X263149000Y-44400000D01*
X263149000Y-42320000D02*
X263149000Y-40464000D01*
X263109000Y-46236000D02*
X263109000Y-44400000D01*
X263109000Y-42320000D02*
X263109000Y-40484000D01*
X263069000Y-46216000D02*
X263069000Y-44400000D01*
X263069000Y-42320000D02*
X263069000Y-40504000D01*
X263029000Y-46194000D02*
X263029000Y-44400000D01*
X263029000Y-42320000D02*
X263029000Y-40526000D01*
X262989000Y-46172000D02*
X262989000Y-44400000D01*
X262989000Y-42320000D02*
X262989000Y-40548000D01*
X262949000Y-46150000D02*
X262949000Y-44400000D01*
X262949000Y-42320000D02*
X262949000Y-40570000D01*
X262909000Y-46126000D02*
X262909000Y-44400000D01*
X262909000Y-42320000D02*
X262909000Y-40594000D01*
X262869000Y-46102000D02*
X262869000Y-44400000D01*
X262869000Y-42320000D02*
X262869000Y-40618000D01*
X262829000Y-46076000D02*
X262829000Y-44400000D01*
X262829000Y-42320000D02*
X262829000Y-40644000D01*
X262789000Y-46050000D02*
X262789000Y-44400000D01*
X262789000Y-42320000D02*
X262789000Y-40670000D01*
X262749000Y-46024000D02*
X262749000Y-44400000D01*
X262749000Y-42320000D02*
X262749000Y-40696000D01*
X262709000Y-45996000D02*
X262709000Y-44400000D01*
X262709000Y-42320000D02*
X262709000Y-40724000D01*
X262669000Y-45967000D02*
X262669000Y-44400000D01*
X262669000Y-42320000D02*
X262669000Y-40753000D01*
X262629000Y-45938000D02*
X262629000Y-44400000D01*
X262629000Y-42320000D02*
X262629000Y-40782000D01*
X262589000Y-45908000D02*
X262589000Y-44400000D01*
X262589000Y-42320000D02*
X262589000Y-40812000D01*
X262549000Y-45876000D02*
X262549000Y-44400000D01*
X262549000Y-42320000D02*
X262549000Y-40844000D01*
X262509000Y-45844000D02*
X262509000Y-44400000D01*
X262509000Y-42320000D02*
X262509000Y-40876000D01*
X262469000Y-45810000D02*
X262469000Y-44400000D01*
X262469000Y-42320000D02*
X262469000Y-40910000D01*
X262429000Y-45776000D02*
X262429000Y-44400000D01*
X262429000Y-42320000D02*
X262429000Y-40944000D01*
X262389000Y-45740000D02*
X262389000Y-44400000D01*
X262389000Y-42320000D02*
X262389000Y-40980000D01*
X262349000Y-45703000D02*
X262349000Y-44400000D01*
X262349000Y-42320000D02*
X262349000Y-41017000D01*
X262309000Y-45665000D02*
X262309000Y-44400000D01*
X262309000Y-42320000D02*
X262309000Y-41055000D01*
X262269000Y-45625000D02*
X262269000Y-41095000D01*
X262229000Y-45584000D02*
X262229000Y-41136000D01*
X262189000Y-45542000D02*
X262189000Y-41178000D01*
X262149000Y-45497000D02*
X262149000Y-41223000D01*
X262109000Y-45452000D02*
X262109000Y-41268000D01*
X262069000Y-45404000D02*
X262069000Y-41316000D01*
X262029000Y-45355000D02*
X262029000Y-41365000D01*
X261989000Y-45304000D02*
X261989000Y-41416000D01*
X261949000Y-45250000D02*
X261949000Y-41470000D01*
X261909000Y-45194000D02*
X261909000Y-41526000D01*
X261869000Y-45136000D02*
X261869000Y-41584000D01*
X261829000Y-45074000D02*
X261829000Y-41646000D01*
X261789000Y-45010000D02*
X261789000Y-41710000D01*
X261749000Y-44941000D02*
X261749000Y-41779000D01*
X261709000Y-44869000D02*
X261709000Y-41851000D01*
X261669000Y-44792000D02*
X261669000Y-41928000D01*
X261629000Y-44710000D02*
X261629000Y-42010000D01*
X261589000Y-44622000D02*
X261589000Y-42098000D01*
X261549000Y-44525000D02*
X261549000Y-42195000D01*
X261509000Y-44419000D02*
X261509000Y-42301000D01*
X261469000Y-44300000D02*
X261469000Y-42420000D01*
X261429000Y-44162000D02*
X261429000Y-42558000D01*
X261389000Y-43993000D02*
X261389000Y-42727000D01*
X261349000Y-43762000D02*
X261349000Y-42958000D01*
X268090241Y-45199000D02*
X267460241Y-45199000D01*
X267775241Y-45514000D02*
X267775241Y-44884000D01*
G04 #@! TO.C,R33*
X265052064Y-39000000D02*
X263847936Y-39000000D01*
X265052064Y-36280000D02*
X263847936Y-36280000D01*
G04 #@! TO.C,J4*
X207890000Y-105300000D02*
X207890000Y-99740000D01*
X207890000Y-99740000D02*
X202370000Y-99740000D01*
X202370000Y-99740000D02*
X202370000Y-100740000D01*
X113370000Y-105300000D02*
X113370000Y-99740000D01*
X113370000Y-99740000D02*
X118890000Y-99740000D01*
X118890000Y-99740000D02*
X118890000Y-100740000D01*
X202371000Y-100740000D02*
X201095000Y-100740000D01*
X198905000Y-100740000D02*
X198329000Y-100740000D01*
X196590000Y-100740000D02*
X195789000Y-100740000D01*
X194050000Y-100740000D02*
X193249000Y-100740000D01*
X191510000Y-100740000D02*
X190709000Y-100740000D01*
X188970000Y-100740000D02*
X188169000Y-100740000D01*
X186430000Y-100740000D02*
X185629000Y-100740000D01*
X183890000Y-100740000D02*
X183089000Y-100740000D01*
X181350000Y-100740000D02*
X180549000Y-100740000D01*
X178810000Y-100740000D02*
X178009000Y-100740000D01*
X176270000Y-100740000D02*
X175469000Y-100740000D01*
X173730000Y-100740000D02*
X172929000Y-100740000D01*
X171190000Y-100740000D02*
X170389000Y-100740000D01*
X168650000Y-100740000D02*
X167849000Y-100740000D01*
X166110000Y-100740000D02*
X165309000Y-100740000D01*
X163570000Y-100740000D02*
X162769000Y-100740000D01*
X161030000Y-100740000D02*
X160229000Y-100740000D01*
X158490000Y-100740000D02*
X157689000Y-100740000D01*
X155950000Y-100740000D02*
X155149000Y-100740000D01*
X153410000Y-100740000D02*
X152609000Y-100740000D01*
X150870000Y-100740000D02*
X150069000Y-100740000D01*
X148330000Y-100740000D02*
X147529000Y-100740000D01*
X145790000Y-100740000D02*
X144989000Y-100740000D01*
X143250000Y-100740000D02*
X142449000Y-100740000D01*
X140710000Y-100740000D02*
X139909000Y-100740000D01*
X138170000Y-100740000D02*
X137369000Y-100740000D01*
X135630000Y-100740000D02*
X134829000Y-100740000D01*
X133090000Y-100740000D02*
X132289000Y-100740000D01*
X130550000Y-100740000D02*
X129749000Y-100740000D01*
X128010000Y-100740000D02*
X127209000Y-100740000D01*
X125470000Y-100740000D02*
X124669000Y-100740000D01*
X122930000Y-100740000D02*
X122129000Y-100740000D01*
X120390000Y-100740000D02*
X118890000Y-100740000D01*
X201095000Y-100000000D02*
X201695000Y-100300000D01*
X201695000Y-100300000D02*
X201695000Y-99700000D01*
X201695000Y-99700000D02*
X201095000Y-100000000D01*
G04 #@! TO.C,C2*
X166677221Y-56270000D02*
X167002779Y-56270000D01*
X166677221Y-55250000D02*
X167002779Y-55250000D01*
G04 #@! TO.C,R4*
X160662779Y-71690000D02*
X160337221Y-71690000D01*
X160662779Y-72710000D02*
X160337221Y-72710000D01*
G04 #@! TO.C,J3*
X123170000Y-34770000D02*
X121900000Y-34770000D01*
X123170000Y-33500000D02*
X123170000Y-34770000D01*
X120857071Y-20420000D02*
X120460000Y-20420000D01*
X120857071Y-21180000D02*
X120460000Y-21180000D01*
X111800000Y-20420000D02*
X117800000Y-20420000D01*
X111800000Y-21180000D02*
X111800000Y-20420000D01*
X117800000Y-21180000D02*
X111800000Y-21180000D01*
X120460000Y-22070000D02*
X117800000Y-22070000D01*
X120857071Y-22960000D02*
X120460000Y-22960000D01*
X120857071Y-23720000D02*
X120460000Y-23720000D01*
X111800000Y-22960000D02*
X117800000Y-22960000D01*
X111800000Y-23720000D02*
X111800000Y-22960000D01*
X117800000Y-23720000D02*
X111800000Y-23720000D01*
X120460000Y-24610000D02*
X117800000Y-24610000D01*
X120857071Y-25500000D02*
X120460000Y-25500000D01*
X120857071Y-26260000D02*
X120460000Y-26260000D01*
X111800000Y-25500000D02*
X117800000Y-25500000D01*
X111800000Y-26260000D02*
X111800000Y-25500000D01*
X117800000Y-26260000D02*
X111800000Y-26260000D01*
X120460000Y-27150000D02*
X117800000Y-27150000D01*
X120857071Y-28040000D02*
X120460000Y-28040000D01*
X120857071Y-28800000D02*
X120460000Y-28800000D01*
X111800000Y-28040000D02*
X117800000Y-28040000D01*
X111800000Y-28800000D02*
X111800000Y-28040000D01*
X117800000Y-28800000D02*
X111800000Y-28800000D01*
X120460000Y-29690000D02*
X117800000Y-29690000D01*
X120857071Y-30580000D02*
X120460000Y-30580000D01*
X120857071Y-31340000D02*
X120460000Y-31340000D01*
X111800000Y-30580000D02*
X117800000Y-30580000D01*
X111800000Y-31340000D02*
X111800000Y-30580000D01*
X117800000Y-31340000D02*
X111800000Y-31340000D01*
X120460000Y-32230000D02*
X117800000Y-32230000D01*
X120790000Y-33120000D02*
X120460000Y-33120000D01*
X120790000Y-33880000D02*
X120460000Y-33880000D01*
X117800000Y-33220000D02*
X111800000Y-33220000D01*
X117800000Y-33340000D02*
X111800000Y-33340000D01*
X117800000Y-33460000D02*
X111800000Y-33460000D01*
X117800000Y-33580000D02*
X111800000Y-33580000D01*
X117800000Y-33700000D02*
X111800000Y-33700000D01*
X117800000Y-33820000D02*
X111800000Y-33820000D01*
X111800000Y-33120000D02*
X117800000Y-33120000D01*
X111800000Y-33880000D02*
X111800000Y-33120000D01*
X117800000Y-33880000D02*
X111800000Y-33880000D01*
X117800000Y-34830000D02*
X120460000Y-34830000D01*
X117800000Y-19470000D02*
X117800000Y-34830000D01*
X120460000Y-19470000D02*
X117800000Y-19470000D01*
X120460000Y-34830000D02*
X120460000Y-19470000D01*
G04 #@! TO.C,JAB1*
X128670000Y-63080000D02*
X128670000Y-61750000D01*
X130000000Y-63080000D02*
X128670000Y-63080000D01*
X128670000Y-60480000D02*
X128670000Y-57880000D01*
X131270000Y-60480000D02*
X128670000Y-60480000D01*
X131270000Y-63080000D02*
X131270000Y-60480000D01*
X128670000Y-57880000D02*
X210070000Y-57880000D01*
X131270000Y-63080000D02*
X210070000Y-63080000D01*
X210070000Y-63080000D02*
X210070000Y-57880000D01*
G04 #@! TO.C,D7*
D14*
X136681904Y-23082380D02*
X136681904Y-22082380D01*
X136920000Y-22082380D01*
X137062857Y-22130000D01*
X137158095Y-22225238D01*
X137205714Y-22320476D01*
X137253333Y-22510952D01*
X137253333Y-22653809D01*
X137205714Y-22844285D01*
X137158095Y-22939523D01*
X137062857Y-23034761D01*
X136920000Y-23082380D01*
X136681904Y-23082380D01*
X137586666Y-22082380D02*
X138253333Y-22082380D01*
X137824761Y-23082380D01*
G04 #@! TO.C,D6*
X134051904Y-22962380D02*
X134051904Y-21962380D01*
X134290000Y-21962380D01*
X134432857Y-22010000D01*
X134528095Y-22105238D01*
X134575714Y-22200476D01*
X134623333Y-22390952D01*
X134623333Y-22533809D01*
X134575714Y-22724285D01*
X134528095Y-22819523D01*
X134432857Y-22914761D01*
X134290000Y-22962380D01*
X134051904Y-22962380D01*
X135480476Y-21962380D02*
X135290000Y-21962380D01*
X135194761Y-22010000D01*
X135147142Y-22057619D01*
X135051904Y-22200476D01*
X135004285Y-22390952D01*
X135004285Y-22771904D01*
X135051904Y-22867142D01*
X135099523Y-22914761D01*
X135194761Y-22962380D01*
X135385238Y-22962380D01*
X135480476Y-22914761D01*
X135528095Y-22867142D01*
X135575714Y-22771904D01*
X135575714Y-22533809D01*
X135528095Y-22438571D01*
X135480476Y-22390952D01*
X135385238Y-22343333D01*
X135194761Y-22343333D01*
X135099523Y-22390952D01*
X135051904Y-22438571D01*
X135004285Y-22533809D01*
G04 #@! TO.C,D8*
X125592380Y-69908095D02*
X124592380Y-69908095D01*
X124592380Y-69670000D01*
X124640000Y-69527142D01*
X124735238Y-69431904D01*
X124830476Y-69384285D01*
X125020952Y-69336666D01*
X125163809Y-69336666D01*
X125354285Y-69384285D01*
X125449523Y-69431904D01*
X125544761Y-69527142D01*
X125592380Y-69670000D01*
X125592380Y-69908095D01*
X125020952Y-68765238D02*
X124973333Y-68860476D01*
X124925714Y-68908095D01*
X124830476Y-68955714D01*
X124782857Y-68955714D01*
X124687619Y-68908095D01*
X124640000Y-68860476D01*
X124592380Y-68765238D01*
X124592380Y-68574761D01*
X124640000Y-68479523D01*
X124687619Y-68431904D01*
X124782857Y-68384285D01*
X124830476Y-68384285D01*
X124925714Y-68431904D01*
X124973333Y-68479523D01*
X125020952Y-68574761D01*
X125020952Y-68765238D01*
X125068571Y-68860476D01*
X125116190Y-68908095D01*
X125211428Y-68955714D01*
X125401904Y-68955714D01*
X125497142Y-68908095D01*
X125544761Y-68860476D01*
X125592380Y-68765238D01*
X125592380Y-68574761D01*
X125544761Y-68479523D01*
X125497142Y-68431904D01*
X125401904Y-68384285D01*
X125211428Y-68384285D01*
X125116190Y-68431904D01*
X125068571Y-68479523D01*
X125020952Y-68574761D01*
G04 #@! TO.C,D9*
X174913388Y-23039510D02*
X174913388Y-22039510D01*
X175151484Y-22039510D01*
X175294341Y-22087130D01*
X175389579Y-22182368D01*
X175437198Y-22277606D01*
X175484817Y-22468082D01*
X175484817Y-22610939D01*
X175437198Y-22801415D01*
X175389579Y-22896653D01*
X175294341Y-22991891D01*
X175151484Y-23039510D01*
X174913388Y-23039510D01*
X175961007Y-23039510D02*
X176151484Y-23039510D01*
X176246722Y-22991891D01*
X176294341Y-22944272D01*
X176389579Y-22801415D01*
X176437198Y-22610939D01*
X176437198Y-22229987D01*
X176389579Y-22134749D01*
X176341960Y-22087130D01*
X176246722Y-22039510D01*
X176056245Y-22039510D01*
X175961007Y-22087130D01*
X175913388Y-22134749D01*
X175865769Y-22229987D01*
X175865769Y-22468082D01*
X175913388Y-22563320D01*
X175961007Y-22610939D01*
X176056245Y-22658558D01*
X176246722Y-22658558D01*
X176341960Y-22610939D01*
X176389579Y-22563320D01*
X176437198Y-22468082D01*
G04 #@! TO.C,D10*
X177017198Y-23039510D02*
X177017198Y-22039510D01*
X177255293Y-22039510D01*
X177398150Y-22087130D01*
X177493388Y-22182368D01*
X177541007Y-22277606D01*
X177588626Y-22468082D01*
X177588626Y-22610939D01*
X177541007Y-22801415D01*
X177493388Y-22896653D01*
X177398150Y-22991891D01*
X177255293Y-23039510D01*
X177017198Y-23039510D01*
X178541007Y-23039510D02*
X177969579Y-23039510D01*
X178255293Y-23039510D02*
X178255293Y-22039510D01*
X178160055Y-22182368D01*
X178064817Y-22277606D01*
X177969579Y-22325225D01*
X179160055Y-22039510D02*
X179255293Y-22039510D01*
X179350531Y-22087130D01*
X179398150Y-22134749D01*
X179445769Y-22229987D01*
X179493388Y-22420463D01*
X179493388Y-22658558D01*
X179445769Y-22849034D01*
X179398150Y-22944272D01*
X179350531Y-22991891D01*
X179255293Y-23039510D01*
X179160055Y-23039510D01*
X179064817Y-22991891D01*
X179017198Y-22944272D01*
X178969579Y-22849034D01*
X178921960Y-22658558D01*
X178921960Y-22420463D01*
X178969579Y-22229987D01*
X179017198Y-22134749D01*
X179064817Y-22087130D01*
X179160055Y-22039510D01*
G04 #@! TO.C,R11*
X134107142Y-14332380D02*
X133773809Y-13856190D01*
X133535714Y-14332380D02*
X133535714Y-13332380D01*
X133916666Y-13332380D01*
X134011904Y-13380000D01*
X134059523Y-13427619D01*
X134107142Y-13522857D01*
X134107142Y-13665714D01*
X134059523Y-13760952D01*
X134011904Y-13808571D01*
X133916666Y-13856190D01*
X133535714Y-13856190D01*
X135059523Y-14332380D02*
X134488095Y-14332380D01*
X134773809Y-14332380D02*
X134773809Y-13332380D01*
X134678571Y-13475238D01*
X134583333Y-13570476D01*
X134488095Y-13618095D01*
X136011904Y-14332380D02*
X135440476Y-14332380D01*
X135726190Y-14332380D02*
X135726190Y-13332380D01*
X135630952Y-13475238D01*
X135535714Y-13570476D01*
X135440476Y-13618095D01*
G04 #@! TO.C,R12*
X136857142Y-14332380D02*
X136523809Y-13856190D01*
X136285714Y-14332380D02*
X136285714Y-13332380D01*
X136666666Y-13332380D01*
X136761904Y-13380000D01*
X136809523Y-13427619D01*
X136857142Y-13522857D01*
X136857142Y-13665714D01*
X136809523Y-13760952D01*
X136761904Y-13808571D01*
X136666666Y-13856190D01*
X136285714Y-13856190D01*
X137809523Y-14332380D02*
X137238095Y-14332380D01*
X137523809Y-14332380D02*
X137523809Y-13332380D01*
X137428571Y-13475238D01*
X137333333Y-13570476D01*
X137238095Y-13618095D01*
X138190476Y-13427619D02*
X138238095Y-13380000D01*
X138333333Y-13332380D01*
X138571428Y-13332380D01*
X138666666Y-13380000D01*
X138714285Y-13427619D01*
X138761904Y-13522857D01*
X138761904Y-13618095D01*
X138714285Y-13760952D01*
X138142857Y-14332380D01*
X138761904Y-14332380D01*
G04 #@! TO.C,R13*
X117967142Y-68172380D02*
X117633809Y-67696190D01*
X117395714Y-68172380D02*
X117395714Y-67172380D01*
X117776666Y-67172380D01*
X117871904Y-67220000D01*
X117919523Y-67267619D01*
X117967142Y-67362857D01*
X117967142Y-67505714D01*
X117919523Y-67600952D01*
X117871904Y-67648571D01*
X117776666Y-67696190D01*
X117395714Y-67696190D01*
X118919523Y-68172380D02*
X118348095Y-68172380D01*
X118633809Y-68172380D02*
X118633809Y-67172380D01*
X118538571Y-67315238D01*
X118443333Y-67410476D01*
X118348095Y-67458095D01*
X119252857Y-67172380D02*
X119871904Y-67172380D01*
X119538571Y-67553333D01*
X119681428Y-67553333D01*
X119776666Y-67600952D01*
X119824285Y-67648571D01*
X119871904Y-67743809D01*
X119871904Y-67981904D01*
X119824285Y-68077142D01*
X119776666Y-68124761D01*
X119681428Y-68172380D01*
X119395714Y-68172380D01*
X119300476Y-68124761D01*
X119252857Y-68077142D01*
G04 #@! TO.C,R14*
X175017142Y-14362380D02*
X174683809Y-13886190D01*
X174445714Y-14362380D02*
X174445714Y-13362380D01*
X174826666Y-13362380D01*
X174921904Y-13410000D01*
X174969523Y-13457619D01*
X175017142Y-13552857D01*
X175017142Y-13695714D01*
X174969523Y-13790952D01*
X174921904Y-13838571D01*
X174826666Y-13886190D01*
X174445714Y-13886190D01*
X175969523Y-14362380D02*
X175398095Y-14362380D01*
X175683809Y-14362380D02*
X175683809Y-13362380D01*
X175588571Y-13505238D01*
X175493333Y-13600476D01*
X175398095Y-13648095D01*
X176826666Y-13695714D02*
X176826666Y-14362380D01*
X176588571Y-13314761D02*
X176350476Y-14029047D01*
X176969523Y-14029047D01*
G04 #@! TO.C,R15*
X177847142Y-14362380D02*
X177513809Y-13886190D01*
X177275714Y-14362380D02*
X177275714Y-13362380D01*
X177656666Y-13362380D01*
X177751904Y-13410000D01*
X177799523Y-13457619D01*
X177847142Y-13552857D01*
X177847142Y-13695714D01*
X177799523Y-13790952D01*
X177751904Y-13838571D01*
X177656666Y-13886190D01*
X177275714Y-13886190D01*
X178799523Y-14362380D02*
X178228095Y-14362380D01*
X178513809Y-14362380D02*
X178513809Y-13362380D01*
X178418571Y-13505238D01*
X178323333Y-13600476D01*
X178228095Y-13648095D01*
X179704285Y-13362380D02*
X179228095Y-13362380D01*
X179180476Y-13838571D01*
X179228095Y-13790952D01*
X179323333Y-13743333D01*
X179561428Y-13743333D01*
X179656666Y-13790952D01*
X179704285Y-13838571D01*
X179751904Y-13933809D01*
X179751904Y-14171904D01*
X179704285Y-14267142D01*
X179656666Y-14314761D01*
X179561428Y-14362380D01*
X179323333Y-14362380D01*
X179228095Y-14314761D01*
X179180476Y-14267142D01*
G04 #@! TO.C,D4*
X192025712Y-13788095D02*
X191025712Y-13788095D01*
X191025712Y-13550000D01*
X191073332Y-13407142D01*
X191168570Y-13311904D01*
X191263808Y-13264285D01*
X191454284Y-13216666D01*
X191597141Y-13216666D01*
X191787617Y-13264285D01*
X191882855Y-13311904D01*
X191978093Y-13407142D01*
X192025712Y-13550000D01*
X192025712Y-13788095D01*
X191359046Y-12359523D02*
X192025712Y-12359523D01*
X190978093Y-12597619D02*
X191692379Y-12835714D01*
X191692379Y-12216666D01*
G04 #@! TO.C,D5*
X194327380Y-13788095D02*
X193327380Y-13788095D01*
X193327380Y-13550000D01*
X193375000Y-13407142D01*
X193470238Y-13311904D01*
X193565476Y-13264285D01*
X193755952Y-13216666D01*
X193898809Y-13216666D01*
X194089285Y-13264285D01*
X194184523Y-13311904D01*
X194279761Y-13407142D01*
X194327380Y-13550000D01*
X194327380Y-13788095D01*
X193327380Y-12311904D02*
X193327380Y-12788095D01*
X193803571Y-12835714D01*
X193755952Y-12788095D01*
X193708333Y-12692857D01*
X193708333Y-12454761D01*
X193755952Y-12359523D01*
X193803571Y-12311904D01*
X193898809Y-12264285D01*
X194136904Y-12264285D01*
X194232142Y-12311904D01*
X194279761Y-12359523D01*
X194327380Y-12454761D01*
X194327380Y-12692857D01*
X194279761Y-12788095D01*
X194232142Y-12835714D01*
G04 #@! TO.C,R10*
X194482379Y-23407858D02*
X194006189Y-23741191D01*
X194482379Y-23979286D02*
X193482379Y-23979286D01*
X193482379Y-23598334D01*
X193529999Y-23503096D01*
X193577618Y-23455477D01*
X193672856Y-23407858D01*
X193815713Y-23407858D01*
X193910951Y-23455477D01*
X193958570Y-23503096D01*
X194006189Y-23598334D01*
X194006189Y-23979286D01*
X194482379Y-22455477D02*
X194482379Y-23026905D01*
X194482379Y-22741191D02*
X193482379Y-22741191D01*
X193625237Y-22836429D01*
X193720475Y-22931667D01*
X193768094Y-23026905D01*
X193482379Y-21836429D02*
X193482379Y-21741191D01*
X193529999Y-21645953D01*
X193577618Y-21598334D01*
X193672856Y-21550715D01*
X193863332Y-21503096D01*
X194101427Y-21503096D01*
X194291903Y-21550715D01*
X194387141Y-21598334D01*
X194434760Y-21645953D01*
X194482379Y-21741191D01*
X194482379Y-21836429D01*
X194434760Y-21931667D01*
X194387141Y-21979286D01*
X194291903Y-22026905D01*
X194101427Y-22074524D01*
X193863332Y-22074524D01*
X193672856Y-22026905D01*
X193577618Y-21979286D01*
X193529999Y-21931667D01*
X193482379Y-21836429D01*
G04 #@! TO.C,R9*
X192125712Y-22541666D02*
X191649522Y-22875000D01*
X192125712Y-23113095D02*
X191125712Y-23113095D01*
X191125712Y-22732142D01*
X191173332Y-22636904D01*
X191220951Y-22589285D01*
X191316189Y-22541666D01*
X191459046Y-22541666D01*
X191554284Y-22589285D01*
X191601903Y-22636904D01*
X191649522Y-22732142D01*
X191649522Y-23113095D01*
X192125712Y-22065476D02*
X192125712Y-21875000D01*
X192078093Y-21779761D01*
X192030474Y-21732142D01*
X191887617Y-21636904D01*
X191697141Y-21589285D01*
X191316189Y-21589285D01*
X191220951Y-21636904D01*
X191173332Y-21684523D01*
X191125712Y-21779761D01*
X191125712Y-21970238D01*
X191173332Y-22065476D01*
X191220951Y-22113095D01*
X191316189Y-22160714D01*
X191554284Y-22160714D01*
X191649522Y-22113095D01*
X191697141Y-22065476D01*
X191744760Y-21970238D01*
X191744760Y-21779761D01*
X191697141Y-21684523D01*
X191649522Y-21636904D01*
X191554284Y-21589285D01*
G04 #@! TO.C,C12*
X128937142Y-51767857D02*
X128984761Y-51815476D01*
X129032380Y-51958333D01*
X129032380Y-52053571D01*
X128984761Y-52196428D01*
X128889523Y-52291666D01*
X128794285Y-52339285D01*
X128603809Y-52386904D01*
X128460952Y-52386904D01*
X128270476Y-52339285D01*
X128175238Y-52291666D01*
X128080000Y-52196428D01*
X128032380Y-52053571D01*
X128032380Y-51958333D01*
X128080000Y-51815476D01*
X128127619Y-51767857D01*
X129032380Y-50815476D02*
X129032380Y-51386904D01*
X129032380Y-51101190D02*
X128032380Y-51101190D01*
X128175238Y-51196428D01*
X128270476Y-51291666D01*
X128318095Y-51386904D01*
X128127619Y-50434523D02*
X128080000Y-50386904D01*
X128032380Y-50291666D01*
X128032380Y-50053571D01*
X128080000Y-49958333D01*
X128127619Y-49910714D01*
X128222857Y-49863095D01*
X128318095Y-49863095D01*
X128460952Y-49910714D01*
X129032380Y-50482142D01*
X129032380Y-49863095D01*
G04 #@! TO.C,J9*
X118316666Y-46532380D02*
X118316666Y-47246666D01*
X118269047Y-47389523D01*
X118173809Y-47484761D01*
X118030952Y-47532380D01*
X117935714Y-47532380D01*
X118840476Y-47532380D02*
X119030952Y-47532380D01*
X119126190Y-47484761D01*
X119173809Y-47437142D01*
X119269047Y-47294285D01*
X119316666Y-47103809D01*
X119316666Y-46722857D01*
X119269047Y-46627619D01*
X119221428Y-46580000D01*
X119126190Y-46532380D01*
X118935714Y-46532380D01*
X118840476Y-46580000D01*
X118792857Y-46627619D01*
X118745238Y-46722857D01*
X118745238Y-46960952D01*
X118792857Y-47056190D01*
X118840476Y-47103809D01*
X118935714Y-47151428D01*
X119126190Y-47151428D01*
X119221428Y-47103809D01*
X119269047Y-47056190D01*
X119316666Y-46960952D01*
G04 #@! TO.C,C11*
X147457142Y-53042857D02*
X147504761Y-53090476D01*
X147552380Y-53233333D01*
X147552380Y-53328571D01*
X147504761Y-53471428D01*
X147409523Y-53566666D01*
X147314285Y-53614285D01*
X147123809Y-53661904D01*
X146980952Y-53661904D01*
X146790476Y-53614285D01*
X146695238Y-53566666D01*
X146600000Y-53471428D01*
X146552380Y-53328571D01*
X146552380Y-53233333D01*
X146600000Y-53090476D01*
X146647619Y-53042857D01*
X147552380Y-52090476D02*
X147552380Y-52661904D01*
X147552380Y-52376190D02*
X146552380Y-52376190D01*
X146695238Y-52471428D01*
X146790476Y-52566666D01*
X146838095Y-52661904D01*
X147552380Y-51138095D02*
X147552380Y-51709523D01*
X147552380Y-51423809D02*
X146552380Y-51423809D01*
X146695238Y-51519047D01*
X146790476Y-51614285D01*
X146838095Y-51709523D01*
G04 #@! TO.C,U12*
X152252380Y-49838095D02*
X153061904Y-49838095D01*
X153157142Y-49790476D01*
X153204761Y-49742857D01*
X153252380Y-49647619D01*
X153252380Y-49457142D01*
X153204761Y-49361904D01*
X153157142Y-49314285D01*
X153061904Y-49266666D01*
X152252380Y-49266666D01*
X153252380Y-48266666D02*
X153252380Y-48838095D01*
X153252380Y-48552380D02*
X152252380Y-48552380D01*
X152395238Y-48647619D01*
X152490476Y-48742857D01*
X152538095Y-48838095D01*
X152347619Y-47885714D02*
X152300000Y-47838095D01*
X152252380Y-47742857D01*
X152252380Y-47504761D01*
X152300000Y-47409523D01*
X152347619Y-47361904D01*
X152442857Y-47314285D01*
X152538095Y-47314285D01*
X152680952Y-47361904D01*
X153252380Y-47933333D01*
X153252380Y-47314285D01*
G04 #@! TO.C,U14*
X137452380Y-52638095D02*
X138261904Y-52638095D01*
X138357142Y-52590476D01*
X138404761Y-52542857D01*
X138452380Y-52447619D01*
X138452380Y-52257142D01*
X138404761Y-52161904D01*
X138357142Y-52114285D01*
X138261904Y-52066666D01*
X137452380Y-52066666D01*
X138452380Y-51066666D02*
X138452380Y-51638095D01*
X138452380Y-51352380D02*
X137452380Y-51352380D01*
X137595238Y-51447619D01*
X137690476Y-51542857D01*
X137738095Y-51638095D01*
X137785714Y-50209523D02*
X138452380Y-50209523D01*
X137404761Y-50447619D02*
X138119047Y-50685714D01*
X138119047Y-50066666D01*
G04 #@! TO.C,C9*
X156833333Y-20327142D02*
X156785714Y-20374761D01*
X156642857Y-20422380D01*
X156547619Y-20422380D01*
X156404761Y-20374761D01*
X156309523Y-20279523D01*
X156261904Y-20184285D01*
X156214285Y-19993809D01*
X156214285Y-19850952D01*
X156261904Y-19660476D01*
X156309523Y-19565238D01*
X156404761Y-19470000D01*
X156547619Y-19422380D01*
X156642857Y-19422380D01*
X156785714Y-19470000D01*
X156833333Y-19517619D01*
X157309523Y-20422380D02*
X157500000Y-20422380D01*
X157595238Y-20374761D01*
X157642857Y-20327142D01*
X157738095Y-20184285D01*
X157785714Y-19993809D01*
X157785714Y-19612857D01*
X157738095Y-19517619D01*
X157690476Y-19470000D01*
X157595238Y-19422380D01*
X157404761Y-19422380D01*
X157309523Y-19470000D01*
X157261904Y-19517619D01*
X157214285Y-19612857D01*
X157214285Y-19850952D01*
X157261904Y-19946190D01*
X157309523Y-19993809D01*
X157404761Y-20041428D01*
X157595238Y-20041428D01*
X157690476Y-19993809D01*
X157738095Y-19946190D01*
X157785714Y-19850952D01*
G04 #@! TO.C,C10*
X156357142Y-22307142D02*
X156309523Y-22354761D01*
X156166666Y-22402380D01*
X156071428Y-22402380D01*
X155928571Y-22354761D01*
X155833333Y-22259523D01*
X155785714Y-22164285D01*
X155738095Y-21973809D01*
X155738095Y-21830952D01*
X155785714Y-21640476D01*
X155833333Y-21545238D01*
X155928571Y-21450000D01*
X156071428Y-21402380D01*
X156166666Y-21402380D01*
X156309523Y-21450000D01*
X156357142Y-21497619D01*
X157309523Y-22402380D02*
X156738095Y-22402380D01*
X157023809Y-22402380D02*
X157023809Y-21402380D01*
X156928571Y-21545238D01*
X156833333Y-21640476D01*
X156738095Y-21688095D01*
X157928571Y-21402380D02*
X158023809Y-21402380D01*
X158119047Y-21450000D01*
X158166666Y-21497619D01*
X158214285Y-21592857D01*
X158261904Y-21783333D01*
X158261904Y-22021428D01*
X158214285Y-22211904D01*
X158166666Y-22307142D01*
X158119047Y-22354761D01*
X158023809Y-22402380D01*
X157928571Y-22402380D01*
X157833333Y-22354761D01*
X157785714Y-22307142D01*
X157738095Y-22211904D01*
X157690476Y-22021428D01*
X157690476Y-21783333D01*
X157738095Y-21592857D01*
X157785714Y-21497619D01*
X157833333Y-21450000D01*
X157928571Y-21402380D01*
G04 #@! TO.C,J2*
D16*
X147620745Y-14980224D02*
X147620745Y-15695359D01*
X147573069Y-15838386D01*
X147477718Y-15933738D01*
X147334691Y-15981413D01*
X147239340Y-15981413D01*
X148049826Y-15075576D02*
X148097502Y-15027900D01*
X148192853Y-14980224D01*
X148431231Y-14980224D01*
X148526583Y-15027900D01*
X148574258Y-15075576D01*
X148621934Y-15170927D01*
X148621934Y-15266278D01*
X148574258Y-15409305D01*
X148002150Y-15981413D01*
X148621934Y-15981413D01*
G04 #@! TO.C,C8*
D14*
X190083333Y-48737142D02*
X190035714Y-48784761D01*
X189892857Y-48832380D01*
X189797619Y-48832380D01*
X189654761Y-48784761D01*
X189559523Y-48689523D01*
X189511904Y-48594285D01*
X189464285Y-48403809D01*
X189464285Y-48260952D01*
X189511904Y-48070476D01*
X189559523Y-47975238D01*
X189654761Y-47880000D01*
X189797619Y-47832380D01*
X189892857Y-47832380D01*
X190035714Y-47880000D01*
X190083333Y-47927619D01*
X190654761Y-48260952D02*
X190559523Y-48213333D01*
X190511904Y-48165714D01*
X190464285Y-48070476D01*
X190464285Y-48022857D01*
X190511904Y-47927619D01*
X190559523Y-47880000D01*
X190654761Y-47832380D01*
X190845238Y-47832380D01*
X190940476Y-47880000D01*
X190988095Y-47927619D01*
X191035714Y-48022857D01*
X191035714Y-48070476D01*
X190988095Y-48165714D01*
X190940476Y-48213333D01*
X190845238Y-48260952D01*
X190654761Y-48260952D01*
X190559523Y-48308571D01*
X190511904Y-48356190D01*
X190464285Y-48451428D01*
X190464285Y-48641904D01*
X190511904Y-48737142D01*
X190559523Y-48784761D01*
X190654761Y-48832380D01*
X190845238Y-48832380D01*
X190940476Y-48784761D01*
X190988095Y-48737142D01*
X191035714Y-48641904D01*
X191035714Y-48451428D01*
X190988095Y-48356190D01*
X190940476Y-48308571D01*
X190845238Y-48260952D01*
G04 #@! TO.C,U13*
X185386904Y-46652380D02*
X185386904Y-47461904D01*
X185434523Y-47557142D01*
X185482142Y-47604761D01*
X185577380Y-47652380D01*
X185767857Y-47652380D01*
X185863095Y-47604761D01*
X185910714Y-47557142D01*
X185958333Y-47461904D01*
X185958333Y-46652380D01*
X186958333Y-47652380D02*
X186386904Y-47652380D01*
X186672619Y-47652380D02*
X186672619Y-46652380D01*
X186577380Y-46795238D01*
X186482142Y-46890476D01*
X186386904Y-46938095D01*
X187291666Y-46652380D02*
X187910714Y-46652380D01*
X187577380Y-47033333D01*
X187720238Y-47033333D01*
X187815476Y-47080952D01*
X187863095Y-47128571D01*
X187910714Y-47223809D01*
X187910714Y-47461904D01*
X187863095Y-47557142D01*
X187815476Y-47604761D01*
X187720238Y-47652380D01*
X187434523Y-47652380D01*
X187339285Y-47604761D01*
X187291666Y-47557142D01*
G04 #@! TO.C,C7*
X134327142Y-72366666D02*
X134374761Y-72414285D01*
X134422380Y-72557142D01*
X134422380Y-72652380D01*
X134374761Y-72795238D01*
X134279523Y-72890476D01*
X134184285Y-72938095D01*
X133993809Y-72985714D01*
X133850952Y-72985714D01*
X133660476Y-72938095D01*
X133565238Y-72890476D01*
X133470000Y-72795238D01*
X133422380Y-72652380D01*
X133422380Y-72557142D01*
X133470000Y-72414285D01*
X133517619Y-72366666D01*
X133422380Y-72033333D02*
X133422380Y-71366666D01*
X134422380Y-71795238D01*
G04 #@! TO.C,U4*
X131738095Y-73402380D02*
X131738095Y-74211904D01*
X131785714Y-74307142D01*
X131833333Y-74354761D01*
X131928571Y-74402380D01*
X132119047Y-74402380D01*
X132214285Y-74354761D01*
X132261904Y-74307142D01*
X132309523Y-74211904D01*
X132309523Y-73402380D01*
X133214285Y-73735714D02*
X133214285Y-74402380D01*
X132976190Y-73354761D02*
X132738095Y-74069047D01*
X133357142Y-74069047D01*
G04 #@! TO.C,C30*
X136257142Y-47542857D02*
X136304761Y-47590476D01*
X136352380Y-47733333D01*
X136352380Y-47828571D01*
X136304761Y-47971428D01*
X136209523Y-48066666D01*
X136114285Y-48114285D01*
X135923809Y-48161904D01*
X135780952Y-48161904D01*
X135590476Y-48114285D01*
X135495238Y-48066666D01*
X135400000Y-47971428D01*
X135352380Y-47828571D01*
X135352380Y-47733333D01*
X135400000Y-47590476D01*
X135447619Y-47542857D01*
X135352380Y-47209523D02*
X135352380Y-46590476D01*
X135733333Y-46923809D01*
X135733333Y-46780952D01*
X135780952Y-46685714D01*
X135828571Y-46638095D01*
X135923809Y-46590476D01*
X136161904Y-46590476D01*
X136257142Y-46638095D01*
X136304761Y-46685714D01*
X136352380Y-46780952D01*
X136352380Y-47066666D01*
X136304761Y-47161904D01*
X136257142Y-47209523D01*
X135352380Y-45971428D02*
X135352380Y-45876190D01*
X135400000Y-45780952D01*
X135447619Y-45733333D01*
X135542857Y-45685714D01*
X135733333Y-45638095D01*
X135971428Y-45638095D01*
X136161904Y-45685714D01*
X136257142Y-45733333D01*
X136304761Y-45780952D01*
X136352380Y-45876190D01*
X136352380Y-45971428D01*
X136304761Y-46066666D01*
X136257142Y-46114285D01*
X136161904Y-46161904D01*
X135971428Y-46209523D01*
X135733333Y-46209523D01*
X135542857Y-46161904D01*
X135447619Y-46114285D01*
X135400000Y-46066666D01*
X135352380Y-45971428D01*
G04 #@! TO.C,R36*
X113057142Y-82652380D02*
X112723809Y-82176190D01*
X112485714Y-82652380D02*
X112485714Y-81652380D01*
X112866666Y-81652380D01*
X112961904Y-81700000D01*
X113009523Y-81747619D01*
X113057142Y-81842857D01*
X113057142Y-81985714D01*
X113009523Y-82080952D01*
X112961904Y-82128571D01*
X112866666Y-82176190D01*
X112485714Y-82176190D01*
X113390476Y-81652380D02*
X114009523Y-81652380D01*
X113676190Y-82033333D01*
X113819047Y-82033333D01*
X113914285Y-82080952D01*
X113961904Y-82128571D01*
X114009523Y-82223809D01*
X114009523Y-82461904D01*
X113961904Y-82557142D01*
X113914285Y-82604761D01*
X113819047Y-82652380D01*
X113533333Y-82652380D01*
X113438095Y-82604761D01*
X113390476Y-82557142D01*
X114866666Y-81652380D02*
X114676190Y-81652380D01*
X114580952Y-81700000D01*
X114533333Y-81747619D01*
X114438095Y-81890476D01*
X114390476Y-82080952D01*
X114390476Y-82461904D01*
X114438095Y-82557142D01*
X114485714Y-82604761D01*
X114580952Y-82652380D01*
X114771428Y-82652380D01*
X114866666Y-82604761D01*
X114914285Y-82557142D01*
X114961904Y-82461904D01*
X114961904Y-82223809D01*
X114914285Y-82128571D01*
X114866666Y-82080952D01*
X114771428Y-82033333D01*
X114580952Y-82033333D01*
X114485714Y-82080952D01*
X114438095Y-82128571D01*
X114390476Y-82223809D01*
G04 #@! TO.C,R37*
X119657142Y-78822380D02*
X119323809Y-78346190D01*
X119085714Y-78822380D02*
X119085714Y-77822380D01*
X119466666Y-77822380D01*
X119561904Y-77870000D01*
X119609523Y-77917619D01*
X119657142Y-78012857D01*
X119657142Y-78155714D01*
X119609523Y-78250952D01*
X119561904Y-78298571D01*
X119466666Y-78346190D01*
X119085714Y-78346190D01*
X119990476Y-77822380D02*
X120609523Y-77822380D01*
X120276190Y-78203333D01*
X120419047Y-78203333D01*
X120514285Y-78250952D01*
X120561904Y-78298571D01*
X120609523Y-78393809D01*
X120609523Y-78631904D01*
X120561904Y-78727142D01*
X120514285Y-78774761D01*
X120419047Y-78822380D01*
X120133333Y-78822380D01*
X120038095Y-78774761D01*
X119990476Y-78727142D01*
X120942857Y-77822380D02*
X121609523Y-77822380D01*
X121180952Y-78822380D01*
G04 #@! TO.C,R38*
X124857142Y-85182380D02*
X124523809Y-84706190D01*
X124285714Y-85182380D02*
X124285714Y-84182380D01*
X124666666Y-84182380D01*
X124761904Y-84230000D01*
X124809523Y-84277619D01*
X124857142Y-84372857D01*
X124857142Y-84515714D01*
X124809523Y-84610952D01*
X124761904Y-84658571D01*
X124666666Y-84706190D01*
X124285714Y-84706190D01*
X125190476Y-84182380D02*
X125809523Y-84182380D01*
X125476190Y-84563333D01*
X125619047Y-84563333D01*
X125714285Y-84610952D01*
X125761904Y-84658571D01*
X125809523Y-84753809D01*
X125809523Y-84991904D01*
X125761904Y-85087142D01*
X125714285Y-85134761D01*
X125619047Y-85182380D01*
X125333333Y-85182380D01*
X125238095Y-85134761D01*
X125190476Y-85087142D01*
X126380952Y-84610952D02*
X126285714Y-84563333D01*
X126238095Y-84515714D01*
X126190476Y-84420476D01*
X126190476Y-84372857D01*
X126238095Y-84277619D01*
X126285714Y-84230000D01*
X126380952Y-84182380D01*
X126571428Y-84182380D01*
X126666666Y-84230000D01*
X126714285Y-84277619D01*
X126761904Y-84372857D01*
X126761904Y-84420476D01*
X126714285Y-84515714D01*
X126666666Y-84563333D01*
X126571428Y-84610952D01*
X126380952Y-84610952D01*
X126285714Y-84658571D01*
X126238095Y-84706190D01*
X126190476Y-84801428D01*
X126190476Y-84991904D01*
X126238095Y-85087142D01*
X126285714Y-85134761D01*
X126380952Y-85182380D01*
X126571428Y-85182380D01*
X126666666Y-85134761D01*
X126714285Y-85087142D01*
X126761904Y-84991904D01*
X126761904Y-84801428D01*
X126714285Y-84706190D01*
X126666666Y-84658571D01*
X126571428Y-84610952D01*
G04 #@! TO.C,R39*
X120757142Y-81722380D02*
X120423809Y-81246190D01*
X120185714Y-81722380D02*
X120185714Y-80722380D01*
X120566666Y-80722380D01*
X120661904Y-80770000D01*
X120709523Y-80817619D01*
X120757142Y-80912857D01*
X120757142Y-81055714D01*
X120709523Y-81150952D01*
X120661904Y-81198571D01*
X120566666Y-81246190D01*
X120185714Y-81246190D01*
X121090476Y-80722380D02*
X121709523Y-80722380D01*
X121376190Y-81103333D01*
X121519047Y-81103333D01*
X121614285Y-81150952D01*
X121661904Y-81198571D01*
X121709523Y-81293809D01*
X121709523Y-81531904D01*
X121661904Y-81627142D01*
X121614285Y-81674761D01*
X121519047Y-81722380D01*
X121233333Y-81722380D01*
X121138095Y-81674761D01*
X121090476Y-81627142D01*
X122185714Y-81722380D02*
X122376190Y-81722380D01*
X122471428Y-81674761D01*
X122519047Y-81627142D01*
X122614285Y-81484285D01*
X122661904Y-81293809D01*
X122661904Y-80912857D01*
X122614285Y-80817619D01*
X122566666Y-80770000D01*
X122471428Y-80722380D01*
X122280952Y-80722380D01*
X122185714Y-80770000D01*
X122138095Y-80817619D01*
X122090476Y-80912857D01*
X122090476Y-81150952D01*
X122138095Y-81246190D01*
X122185714Y-81293809D01*
X122280952Y-81341428D01*
X122471428Y-81341428D01*
X122566666Y-81293809D01*
X122614285Y-81246190D01*
X122661904Y-81150952D01*
G04 #@! TO.C,R40*
X181152380Y-86542857D02*
X180676190Y-86876190D01*
X181152380Y-87114285D02*
X180152380Y-87114285D01*
X180152380Y-86733333D01*
X180200000Y-86638095D01*
X180247619Y-86590476D01*
X180342857Y-86542857D01*
X180485714Y-86542857D01*
X180580952Y-86590476D01*
X180628571Y-86638095D01*
X180676190Y-86733333D01*
X180676190Y-87114285D01*
X180485714Y-85685714D02*
X181152380Y-85685714D01*
X180104761Y-85923809D02*
X180819047Y-86161904D01*
X180819047Y-85542857D01*
X180152380Y-84971428D02*
X180152380Y-84876190D01*
X180200000Y-84780952D01*
X180247619Y-84733333D01*
X180342857Y-84685714D01*
X180533333Y-84638095D01*
X180771428Y-84638095D01*
X180961904Y-84685714D01*
X181057142Y-84733333D01*
X181104761Y-84780952D01*
X181152380Y-84876190D01*
X181152380Y-84971428D01*
X181104761Y-85066666D01*
X181057142Y-85114285D01*
X180961904Y-85161904D01*
X180771428Y-85209523D01*
X180533333Y-85209523D01*
X180342857Y-85161904D01*
X180247619Y-85114285D01*
X180200000Y-85066666D01*
X180152380Y-84971428D01*
G04 #@! TO.C,R41*
X185357142Y-70252380D02*
X185023809Y-69776190D01*
X184785714Y-70252380D02*
X184785714Y-69252380D01*
X185166666Y-69252380D01*
X185261904Y-69300000D01*
X185309523Y-69347619D01*
X185357142Y-69442857D01*
X185357142Y-69585714D01*
X185309523Y-69680952D01*
X185261904Y-69728571D01*
X185166666Y-69776190D01*
X184785714Y-69776190D01*
X186214285Y-69585714D02*
X186214285Y-70252380D01*
X185976190Y-69204761D02*
X185738095Y-69919047D01*
X186357142Y-69919047D01*
X187261904Y-70252380D02*
X186690476Y-70252380D01*
X186976190Y-70252380D02*
X186976190Y-69252380D01*
X186880952Y-69395238D01*
X186785714Y-69490476D01*
X186690476Y-69538095D01*
G04 #@! TO.C,R42*
X142357142Y-86782380D02*
X142023809Y-86306190D01*
X141785714Y-86782380D02*
X141785714Y-85782380D01*
X142166666Y-85782380D01*
X142261904Y-85830000D01*
X142309523Y-85877619D01*
X142357142Y-85972857D01*
X142357142Y-86115714D01*
X142309523Y-86210952D01*
X142261904Y-86258571D01*
X142166666Y-86306190D01*
X141785714Y-86306190D01*
X143214285Y-86115714D02*
X143214285Y-86782380D01*
X142976190Y-85734761D02*
X142738095Y-86449047D01*
X143357142Y-86449047D01*
X143690476Y-85877619D02*
X143738095Y-85830000D01*
X143833333Y-85782380D01*
X144071428Y-85782380D01*
X144166666Y-85830000D01*
X144214285Y-85877619D01*
X144261904Y-85972857D01*
X144261904Y-86068095D01*
X144214285Y-86210952D01*
X143642857Y-86782380D01*
X144261904Y-86782380D01*
G04 #@! TO.C,R43*
X143957142Y-82222380D02*
X143623809Y-81746190D01*
X143385714Y-82222380D02*
X143385714Y-81222380D01*
X143766666Y-81222380D01*
X143861904Y-81270000D01*
X143909523Y-81317619D01*
X143957142Y-81412857D01*
X143957142Y-81555714D01*
X143909523Y-81650952D01*
X143861904Y-81698571D01*
X143766666Y-81746190D01*
X143385714Y-81746190D01*
X144814285Y-81555714D02*
X144814285Y-82222380D01*
X144576190Y-81174761D02*
X144338095Y-81889047D01*
X144957142Y-81889047D01*
X145242857Y-81222380D02*
X145861904Y-81222380D01*
X145528571Y-81603333D01*
X145671428Y-81603333D01*
X145766666Y-81650952D01*
X145814285Y-81698571D01*
X145861904Y-81793809D01*
X145861904Y-82031904D01*
X145814285Y-82127142D01*
X145766666Y-82174761D01*
X145671428Y-82222380D01*
X145385714Y-82222380D01*
X145290476Y-82174761D01*
X145242857Y-82127142D01*
G04 #@! TO.C,R44*
X134922380Y-90242857D02*
X134446190Y-90576190D01*
X134922380Y-90814285D02*
X133922380Y-90814285D01*
X133922380Y-90433333D01*
X133970000Y-90338095D01*
X134017619Y-90290476D01*
X134112857Y-90242857D01*
X134255714Y-90242857D01*
X134350952Y-90290476D01*
X134398571Y-90338095D01*
X134446190Y-90433333D01*
X134446190Y-90814285D01*
X134255714Y-89385714D02*
X134922380Y-89385714D01*
X133874761Y-89623809D02*
X134589047Y-89861904D01*
X134589047Y-89242857D01*
X134255714Y-88433333D02*
X134922380Y-88433333D01*
X133874761Y-88671428D02*
X134589047Y-88909523D01*
X134589047Y-88290476D01*
G04 #@! TO.C,R45*
X138957142Y-86782380D02*
X138623809Y-86306190D01*
X138385714Y-86782380D02*
X138385714Y-85782380D01*
X138766666Y-85782380D01*
X138861904Y-85830000D01*
X138909523Y-85877619D01*
X138957142Y-85972857D01*
X138957142Y-86115714D01*
X138909523Y-86210952D01*
X138861904Y-86258571D01*
X138766666Y-86306190D01*
X138385714Y-86306190D01*
X139814285Y-86115714D02*
X139814285Y-86782380D01*
X139576190Y-85734761D02*
X139338095Y-86449047D01*
X139957142Y-86449047D01*
X140814285Y-85782380D02*
X140338095Y-85782380D01*
X140290476Y-86258571D01*
X140338095Y-86210952D01*
X140433333Y-86163333D01*
X140671428Y-86163333D01*
X140766666Y-86210952D01*
X140814285Y-86258571D01*
X140861904Y-86353809D01*
X140861904Y-86591904D01*
X140814285Y-86687142D01*
X140766666Y-86734761D01*
X140671428Y-86782380D01*
X140433333Y-86782380D01*
X140338095Y-86734761D01*
X140290476Y-86687142D01*
G04 #@! TO.C,C3*
X131133333Y-54807142D02*
X131085714Y-54854761D01*
X130942857Y-54902380D01*
X130847619Y-54902380D01*
X130704761Y-54854761D01*
X130609523Y-54759523D01*
X130561904Y-54664285D01*
X130514285Y-54473809D01*
X130514285Y-54330952D01*
X130561904Y-54140476D01*
X130609523Y-54045238D01*
X130704761Y-53950000D01*
X130847619Y-53902380D01*
X130942857Y-53902380D01*
X131085714Y-53950000D01*
X131133333Y-53997619D01*
X131466666Y-53902380D02*
X132085714Y-53902380D01*
X131752380Y-54283333D01*
X131895238Y-54283333D01*
X131990476Y-54330952D01*
X132038095Y-54378571D01*
X132085714Y-54473809D01*
X132085714Y-54711904D01*
X132038095Y-54807142D01*
X131990476Y-54854761D01*
X131895238Y-54902380D01*
X131609523Y-54902380D01*
X131514285Y-54854761D01*
X131466666Y-54807142D01*
G04 #@! TO.C,D3*
X113602380Y-16238095D02*
X112602380Y-16238095D01*
X112602380Y-16000000D01*
X112650000Y-15857142D01*
X112745238Y-15761904D01*
X112840476Y-15714285D01*
X113030952Y-15666666D01*
X113173809Y-15666666D01*
X113364285Y-15714285D01*
X113459523Y-15761904D01*
X113554761Y-15857142D01*
X113602380Y-16000000D01*
X113602380Y-16238095D01*
X112602380Y-15333333D02*
X112602380Y-14714285D01*
X112983333Y-15047619D01*
X112983333Y-14904761D01*
X113030952Y-14809523D01*
X113078571Y-14761904D01*
X113173809Y-14714285D01*
X113411904Y-14714285D01*
X113507142Y-14761904D01*
X113554761Y-14809523D01*
X113602380Y-14904761D01*
X113602380Y-15190476D01*
X113554761Y-15285714D01*
X113507142Y-15333333D01*
G04 #@! TO.C,R3*
X113552380Y-12166666D02*
X113076190Y-12500000D01*
X113552380Y-12738095D02*
X112552380Y-12738095D01*
X112552380Y-12357142D01*
X112600000Y-12261904D01*
X112647619Y-12214285D01*
X112742857Y-12166666D01*
X112885714Y-12166666D01*
X112980952Y-12214285D01*
X113028571Y-12261904D01*
X113076190Y-12357142D01*
X113076190Y-12738095D01*
X112552380Y-11833333D02*
X112552380Y-11214285D01*
X112933333Y-11547619D01*
X112933333Y-11404761D01*
X112980952Y-11309523D01*
X113028571Y-11261904D01*
X113123809Y-11214285D01*
X113361904Y-11214285D01*
X113457142Y-11261904D01*
X113504761Y-11309523D01*
X113552380Y-11404761D01*
X113552380Y-11690476D01*
X113504761Y-11785714D01*
X113457142Y-11833333D01*
G04 #@! TO.C,C5*
X181457142Y-70866666D02*
X181504761Y-70914285D01*
X181552380Y-71057142D01*
X181552380Y-71152380D01*
X181504761Y-71295238D01*
X181409523Y-71390476D01*
X181314285Y-71438095D01*
X181123809Y-71485714D01*
X180980952Y-71485714D01*
X180790476Y-71438095D01*
X180695238Y-71390476D01*
X180600000Y-71295238D01*
X180552380Y-71152380D01*
X180552380Y-71057142D01*
X180600000Y-70914285D01*
X180647619Y-70866666D01*
X180552380Y-69961904D02*
X180552380Y-70438095D01*
X181028571Y-70485714D01*
X180980952Y-70438095D01*
X180933333Y-70342857D01*
X180933333Y-70104761D01*
X180980952Y-70009523D01*
X181028571Y-69961904D01*
X181123809Y-69914285D01*
X181361904Y-69914285D01*
X181457142Y-69961904D01*
X181504761Y-70009523D01*
X181552380Y-70104761D01*
X181552380Y-70342857D01*
X181504761Y-70438095D01*
X181457142Y-70485714D01*
G04 #@! TO.C,U2*
X180602380Y-79261904D02*
X181411904Y-79261904D01*
X181507142Y-79214285D01*
X181554761Y-79166666D01*
X181602380Y-79071428D01*
X181602380Y-78880952D01*
X181554761Y-78785714D01*
X181507142Y-78738095D01*
X181411904Y-78690476D01*
X180602380Y-78690476D01*
X180697619Y-78261904D02*
X180650000Y-78214285D01*
X180602380Y-78119047D01*
X180602380Y-77880952D01*
X180650000Y-77785714D01*
X180697619Y-77738095D01*
X180792857Y-77690476D01*
X180888095Y-77690476D01*
X181030952Y-77738095D01*
X181602380Y-78309523D01*
X181602380Y-77690476D01*
G04 #@! TO.C,U6*
X160652380Y-79261904D02*
X161461904Y-79261904D01*
X161557142Y-79214285D01*
X161604761Y-79166666D01*
X161652380Y-79071428D01*
X161652380Y-78880952D01*
X161604761Y-78785714D01*
X161557142Y-78738095D01*
X161461904Y-78690476D01*
X160652380Y-78690476D01*
X160652380Y-77785714D02*
X160652380Y-77976190D01*
X160700000Y-78071428D01*
X160747619Y-78119047D01*
X160890476Y-78214285D01*
X161080952Y-78261904D01*
X161461904Y-78261904D01*
X161557142Y-78214285D01*
X161604761Y-78166666D01*
X161652380Y-78071428D01*
X161652380Y-77880952D01*
X161604761Y-77785714D01*
X161557142Y-77738095D01*
X161461904Y-77690476D01*
X161223809Y-77690476D01*
X161128571Y-77738095D01*
X161080952Y-77785714D01*
X161033333Y-77880952D01*
X161033333Y-78071428D01*
X161080952Y-78166666D01*
X161128571Y-78214285D01*
X161223809Y-78261904D01*
G04 #@! TO.C,U8*
X187352380Y-79211904D02*
X188161904Y-79211904D01*
X188257142Y-79164285D01*
X188304761Y-79116666D01*
X188352380Y-79021428D01*
X188352380Y-78830952D01*
X188304761Y-78735714D01*
X188257142Y-78688095D01*
X188161904Y-78640476D01*
X187352380Y-78640476D01*
X187780952Y-78021428D02*
X187733333Y-78116666D01*
X187685714Y-78164285D01*
X187590476Y-78211904D01*
X187542857Y-78211904D01*
X187447619Y-78164285D01*
X187400000Y-78116666D01*
X187352380Y-78021428D01*
X187352380Y-77830952D01*
X187400000Y-77735714D01*
X187447619Y-77688095D01*
X187542857Y-77640476D01*
X187590476Y-77640476D01*
X187685714Y-77688095D01*
X187733333Y-77735714D01*
X187780952Y-77830952D01*
X187780952Y-78021428D01*
X187828571Y-78116666D01*
X187876190Y-78164285D01*
X187971428Y-78211904D01*
X188161904Y-78211904D01*
X188257142Y-78164285D01*
X188304761Y-78116666D01*
X188352380Y-78021428D01*
X188352380Y-77830952D01*
X188304761Y-77735714D01*
X188257142Y-77688095D01*
X188161904Y-77640476D01*
X187971428Y-77640476D01*
X187876190Y-77688095D01*
X187828571Y-77735714D01*
X187780952Y-77830952D01*
G04 #@! TO.C,U7*
X172152380Y-79261904D02*
X172961904Y-79261904D01*
X173057142Y-79214285D01*
X173104761Y-79166666D01*
X173152380Y-79071428D01*
X173152380Y-78880952D01*
X173104761Y-78785714D01*
X173057142Y-78738095D01*
X172961904Y-78690476D01*
X172152380Y-78690476D01*
X172152380Y-78309523D02*
X172152380Y-77642857D01*
X173152380Y-78071428D01*
G04 #@! TO.C,U5*
X147752380Y-78461904D02*
X148561904Y-78461904D01*
X148657142Y-78414285D01*
X148704761Y-78366666D01*
X148752380Y-78271428D01*
X148752380Y-78080952D01*
X148704761Y-77985714D01*
X148657142Y-77938095D01*
X148561904Y-77890476D01*
X147752380Y-77890476D01*
X147752380Y-76938095D02*
X147752380Y-77414285D01*
X148228571Y-77461904D01*
X148180952Y-77414285D01*
X148133333Y-77319047D01*
X148133333Y-77080952D01*
X148180952Y-76985714D01*
X148228571Y-76938095D01*
X148323809Y-76890476D01*
X148561904Y-76890476D01*
X148657142Y-76938095D01*
X148704761Y-76985714D01*
X148752380Y-77080952D01*
X148752380Y-77319047D01*
X148704761Y-77414285D01*
X148657142Y-77461904D01*
G04 #@! TO.C,C4*
X119033333Y-83637142D02*
X118985714Y-83684761D01*
X118842857Y-83732380D01*
X118747619Y-83732380D01*
X118604761Y-83684761D01*
X118509523Y-83589523D01*
X118461904Y-83494285D01*
X118414285Y-83303809D01*
X118414285Y-83160952D01*
X118461904Y-82970476D01*
X118509523Y-82875238D01*
X118604761Y-82780000D01*
X118747619Y-82732380D01*
X118842857Y-82732380D01*
X118985714Y-82780000D01*
X119033333Y-82827619D01*
X119890476Y-83065714D02*
X119890476Y-83732380D01*
X119652380Y-82684761D02*
X119414285Y-83399047D01*
X120033333Y-83399047D01*
G04 #@! TO.C,U1*
X114438095Y-84682380D02*
X114438095Y-85491904D01*
X114485714Y-85587142D01*
X114533333Y-85634761D01*
X114628571Y-85682380D01*
X114819047Y-85682380D01*
X114914285Y-85634761D01*
X114961904Y-85587142D01*
X115009523Y-85491904D01*
X115009523Y-84682380D01*
X116009523Y-85682380D02*
X115438095Y-85682380D01*
X115723809Y-85682380D02*
X115723809Y-84682380D01*
X115628571Y-84825238D01*
X115533333Y-84920476D01*
X115438095Y-84968095D01*
G04 #@! TO.C,C6*
X138463333Y-92727142D02*
X138415714Y-92774761D01*
X138272857Y-92822380D01*
X138177619Y-92822380D01*
X138034761Y-92774761D01*
X137939523Y-92679523D01*
X137891904Y-92584285D01*
X137844285Y-92393809D01*
X137844285Y-92250952D01*
X137891904Y-92060476D01*
X137939523Y-91965238D01*
X138034761Y-91870000D01*
X138177619Y-91822380D01*
X138272857Y-91822380D01*
X138415714Y-91870000D01*
X138463333Y-91917619D01*
X139320476Y-91822380D02*
X139130000Y-91822380D01*
X139034761Y-91870000D01*
X138987142Y-91917619D01*
X138891904Y-92060476D01*
X138844285Y-92250952D01*
X138844285Y-92631904D01*
X138891904Y-92727142D01*
X138939523Y-92774761D01*
X139034761Y-92822380D01*
X139225238Y-92822380D01*
X139320476Y-92774761D01*
X139368095Y-92727142D01*
X139415714Y-92631904D01*
X139415714Y-92393809D01*
X139368095Y-92298571D01*
X139320476Y-92250952D01*
X139225238Y-92203333D01*
X139034761Y-92203333D01*
X138939523Y-92250952D01*
X138891904Y-92298571D01*
X138844285Y-92393809D01*
G04 #@! TO.C,U3*
X142988095Y-91752380D02*
X142988095Y-92561904D01*
X143035714Y-92657142D01*
X143083333Y-92704761D01*
X143178571Y-92752380D01*
X143369047Y-92752380D01*
X143464285Y-92704761D01*
X143511904Y-92657142D01*
X143559523Y-92561904D01*
X143559523Y-91752380D01*
X143940476Y-91752380D02*
X144559523Y-91752380D01*
X144226190Y-92133333D01*
X144369047Y-92133333D01*
X144464285Y-92180952D01*
X144511904Y-92228571D01*
X144559523Y-92323809D01*
X144559523Y-92561904D01*
X144511904Y-92657142D01*
X144464285Y-92704761D01*
X144369047Y-92752380D01*
X144083333Y-92752380D01*
X143988095Y-92704761D01*
X143940476Y-92657142D01*
G04 #@! TO.C,U9*
X249543095Y-53490380D02*
X249543095Y-54299904D01*
X249590714Y-54395142D01*
X249638333Y-54442761D01*
X249733571Y-54490380D01*
X249924047Y-54490380D01*
X250019285Y-54442761D01*
X250066904Y-54395142D01*
X250114523Y-54299904D01*
X250114523Y-53490380D01*
X250638333Y-54490380D02*
X250828809Y-54490380D01*
X250924047Y-54442761D01*
X250971666Y-54395142D01*
X251066904Y-54252285D01*
X251114523Y-54061809D01*
X251114523Y-53680857D01*
X251066904Y-53585619D01*
X251019285Y-53538000D01*
X250924047Y-53490380D01*
X250733571Y-53490380D01*
X250638333Y-53538000D01*
X250590714Y-53585619D01*
X250543095Y-53680857D01*
X250543095Y-53918952D01*
X250590714Y-54014190D01*
X250638333Y-54061809D01*
X250733571Y-54109428D01*
X250924047Y-54109428D01*
X251019285Y-54061809D01*
X251066904Y-54014190D01*
X251114523Y-53918952D01*
G04 #@! TO.C,D11*
X124418348Y-47619422D02*
X124418348Y-46619422D01*
X124656443Y-46619422D01*
X124799300Y-46667042D01*
X124894538Y-46762280D01*
X124942157Y-46857518D01*
X124989776Y-47047994D01*
X124989776Y-47190851D01*
X124942157Y-47381327D01*
X124894538Y-47476565D01*
X124799300Y-47571803D01*
X124656443Y-47619422D01*
X124418348Y-47619422D01*
X125942157Y-47619422D02*
X125370729Y-47619422D01*
X125656443Y-47619422D02*
X125656443Y-46619422D01*
X125561205Y-46762280D01*
X125465967Y-46857518D01*
X125370729Y-46905137D01*
X126894538Y-47619422D02*
X126323110Y-47619422D01*
X126608824Y-47619422D02*
X126608824Y-46619422D01*
X126513586Y-46762280D01*
X126418348Y-46857518D01*
X126323110Y-46905137D01*
G04 #@! TO.C,D14*
X124418348Y-38629422D02*
X124418348Y-37629422D01*
X124656443Y-37629422D01*
X124799300Y-37677042D01*
X124894538Y-37772280D01*
X124942157Y-37867518D01*
X124989776Y-38057994D01*
X124989776Y-38200851D01*
X124942157Y-38391327D01*
X124894538Y-38486565D01*
X124799300Y-38581803D01*
X124656443Y-38629422D01*
X124418348Y-38629422D01*
X125942157Y-38629422D02*
X125370729Y-38629422D01*
X125656443Y-38629422D02*
X125656443Y-37629422D01*
X125561205Y-37772280D01*
X125465967Y-37867518D01*
X125370729Y-37915137D01*
X126799300Y-37962756D02*
X126799300Y-38629422D01*
X126561205Y-37581803D02*
X126323110Y-38296089D01*
X126942157Y-38296089D01*
G04 #@! TO.C,D13*
X124418348Y-41629420D02*
X124418348Y-40629420D01*
X124656443Y-40629420D01*
X124799300Y-40677040D01*
X124894538Y-40772278D01*
X124942157Y-40867516D01*
X124989776Y-41057992D01*
X124989776Y-41200849D01*
X124942157Y-41391325D01*
X124894538Y-41486563D01*
X124799300Y-41581801D01*
X124656443Y-41629420D01*
X124418348Y-41629420D01*
X125942157Y-41629420D02*
X125370729Y-41629420D01*
X125656443Y-41629420D02*
X125656443Y-40629420D01*
X125561205Y-40772278D01*
X125465967Y-40867516D01*
X125370729Y-40915135D01*
X126275491Y-40629420D02*
X126894538Y-40629420D01*
X126561205Y-41010373D01*
X126704062Y-41010373D01*
X126799300Y-41057992D01*
X126846919Y-41105611D01*
X126894538Y-41200849D01*
X126894538Y-41438944D01*
X126846919Y-41534182D01*
X126799300Y-41581801D01*
X126704062Y-41629420D01*
X126418348Y-41629420D01*
X126323110Y-41581801D01*
X126275491Y-41534182D01*
G04 #@! TO.C,D12*
X124418348Y-44589420D02*
X124418348Y-43589420D01*
X124656443Y-43589420D01*
X124799300Y-43637040D01*
X124894538Y-43732278D01*
X124942157Y-43827516D01*
X124989776Y-44017992D01*
X124989776Y-44160849D01*
X124942157Y-44351325D01*
X124894538Y-44446563D01*
X124799300Y-44541801D01*
X124656443Y-44589420D01*
X124418348Y-44589420D01*
X125942157Y-44589420D02*
X125370729Y-44589420D01*
X125656443Y-44589420D02*
X125656443Y-43589420D01*
X125561205Y-43732278D01*
X125465967Y-43827516D01*
X125370729Y-43875135D01*
X126323110Y-43684659D02*
X126370729Y-43637040D01*
X126465967Y-43589420D01*
X126704062Y-43589420D01*
X126799300Y-43637040D01*
X126846919Y-43684659D01*
X126894538Y-43779897D01*
X126894538Y-43875135D01*
X126846919Y-44017992D01*
X126275491Y-44589420D01*
X126894538Y-44589420D01*
G04 #@! TO.C,R16*
X115429776Y-46409422D02*
X115096443Y-45933232D01*
X114858348Y-46409422D02*
X114858348Y-45409422D01*
X115239300Y-45409422D01*
X115334538Y-45457042D01*
X115382157Y-45504661D01*
X115429776Y-45599899D01*
X115429776Y-45742756D01*
X115382157Y-45837994D01*
X115334538Y-45885613D01*
X115239300Y-45933232D01*
X114858348Y-45933232D01*
X116382157Y-46409422D02*
X115810729Y-46409422D01*
X116096443Y-46409422D02*
X116096443Y-45409422D01*
X116001205Y-45552280D01*
X115905967Y-45647518D01*
X115810729Y-45695137D01*
X117239300Y-45409422D02*
X117048824Y-45409422D01*
X116953586Y-45457042D01*
X116905967Y-45504661D01*
X116810729Y-45647518D01*
X116763110Y-45837994D01*
X116763110Y-46218946D01*
X116810729Y-46314184D01*
X116858348Y-46361803D01*
X116953586Y-46409422D01*
X117144062Y-46409422D01*
X117239300Y-46361803D01*
X117286919Y-46314184D01*
X117334538Y-46218946D01*
X117334538Y-45980851D01*
X117286919Y-45885613D01*
X117239300Y-45837994D01*
X117144062Y-45790375D01*
X116953586Y-45790375D01*
X116858348Y-45837994D01*
X116810729Y-45885613D01*
X116763110Y-45980851D01*
G04 #@! TO.C,R19*
X115429776Y-37429422D02*
X115096443Y-36953232D01*
X114858348Y-37429422D02*
X114858348Y-36429422D01*
X115239300Y-36429422D01*
X115334538Y-36477042D01*
X115382157Y-36524661D01*
X115429776Y-36619899D01*
X115429776Y-36762756D01*
X115382157Y-36857994D01*
X115334538Y-36905613D01*
X115239300Y-36953232D01*
X114858348Y-36953232D01*
X116382157Y-37429422D02*
X115810729Y-37429422D01*
X116096443Y-37429422D02*
X116096443Y-36429422D01*
X116001205Y-36572280D01*
X115905967Y-36667518D01*
X115810729Y-36715137D01*
X116858348Y-37429422D02*
X117048824Y-37429422D01*
X117144062Y-37381803D01*
X117191681Y-37334184D01*
X117286919Y-37191327D01*
X117334538Y-37000851D01*
X117334538Y-36619899D01*
X117286919Y-36524661D01*
X117239300Y-36477042D01*
X117144062Y-36429422D01*
X116953586Y-36429422D01*
X116858348Y-36477042D01*
X116810729Y-36524661D01*
X116763110Y-36619899D01*
X116763110Y-36857994D01*
X116810729Y-36953232D01*
X116858348Y-37000851D01*
X116953586Y-37048470D01*
X117144062Y-37048470D01*
X117239300Y-37000851D01*
X117286919Y-36953232D01*
X117334538Y-36857994D01*
G04 #@! TO.C,R18*
X115429776Y-40432756D02*
X115096443Y-39956566D01*
X114858348Y-40432756D02*
X114858348Y-39432756D01*
X115239300Y-39432756D01*
X115334538Y-39480376D01*
X115382157Y-39527995D01*
X115429776Y-39623233D01*
X115429776Y-39766090D01*
X115382157Y-39861328D01*
X115334538Y-39908947D01*
X115239300Y-39956566D01*
X114858348Y-39956566D01*
X116382157Y-40432756D02*
X115810729Y-40432756D01*
X116096443Y-40432756D02*
X116096443Y-39432756D01*
X116001205Y-39575614D01*
X115905967Y-39670852D01*
X115810729Y-39718471D01*
X116953586Y-39861328D02*
X116858348Y-39813709D01*
X116810729Y-39766090D01*
X116763110Y-39670852D01*
X116763110Y-39623233D01*
X116810729Y-39527995D01*
X116858348Y-39480376D01*
X116953586Y-39432756D01*
X117144062Y-39432756D01*
X117239300Y-39480376D01*
X117286919Y-39527995D01*
X117334538Y-39623233D01*
X117334538Y-39670852D01*
X117286919Y-39766090D01*
X117239300Y-39813709D01*
X117144062Y-39861328D01*
X116953586Y-39861328D01*
X116858348Y-39908947D01*
X116810729Y-39956566D01*
X116763110Y-40051804D01*
X116763110Y-40242280D01*
X116810729Y-40337518D01*
X116858348Y-40385137D01*
X116953586Y-40432756D01*
X117144062Y-40432756D01*
X117239300Y-40385137D01*
X117286919Y-40337518D01*
X117334538Y-40242280D01*
X117334538Y-40051804D01*
X117286919Y-39956566D01*
X117239300Y-39908947D01*
X117144062Y-39861328D01*
G04 #@! TO.C,R17*
X115429776Y-43406088D02*
X115096443Y-42929898D01*
X114858348Y-43406088D02*
X114858348Y-42406088D01*
X115239300Y-42406088D01*
X115334538Y-42453708D01*
X115382157Y-42501327D01*
X115429776Y-42596565D01*
X115429776Y-42739422D01*
X115382157Y-42834660D01*
X115334538Y-42882279D01*
X115239300Y-42929898D01*
X114858348Y-42929898D01*
X116382157Y-43406088D02*
X115810729Y-43406088D01*
X116096443Y-43406088D02*
X116096443Y-42406088D01*
X116001205Y-42548946D01*
X115905967Y-42644184D01*
X115810729Y-42691803D01*
X116715491Y-42406088D02*
X117382157Y-42406088D01*
X116953586Y-43406088D01*
G04 #@! TO.C,J6*
X266999880Y-79403333D02*
X267714166Y-79403333D01*
X267857023Y-79450952D01*
X267952261Y-79546190D01*
X267999880Y-79689047D01*
X267999880Y-79784285D01*
X266999880Y-78498571D02*
X266999880Y-78689047D01*
X267047500Y-78784285D01*
X267095119Y-78831904D01*
X267237976Y-78927142D01*
X267428452Y-78974761D01*
X267809404Y-78974761D01*
X267904642Y-78927142D01*
X267952261Y-78879523D01*
X267999880Y-78784285D01*
X267999880Y-78593809D01*
X267952261Y-78498571D01*
X267904642Y-78450952D01*
X267809404Y-78403333D01*
X267571309Y-78403333D01*
X267476071Y-78450952D01*
X267428452Y-78498571D01*
X267380833Y-78593809D01*
X267380833Y-78784285D01*
X267428452Y-78879523D01*
X267476071Y-78927142D01*
X267571309Y-78974761D01*
G04 #@! TO.C,C29*
X203457142Y-84457142D02*
X203409523Y-84504761D01*
X203266666Y-84552380D01*
X203171428Y-84552380D01*
X203028571Y-84504761D01*
X202933333Y-84409523D01*
X202885714Y-84314285D01*
X202838095Y-84123809D01*
X202838095Y-83980952D01*
X202885714Y-83790476D01*
X202933333Y-83695238D01*
X203028571Y-83600000D01*
X203171428Y-83552380D01*
X203266666Y-83552380D01*
X203409523Y-83600000D01*
X203457142Y-83647619D01*
X203838095Y-83647619D02*
X203885714Y-83600000D01*
X203980952Y-83552380D01*
X204219047Y-83552380D01*
X204314285Y-83600000D01*
X204361904Y-83647619D01*
X204409523Y-83742857D01*
X204409523Y-83838095D01*
X204361904Y-83980952D01*
X203790476Y-84552380D01*
X204409523Y-84552380D01*
X204885714Y-84552380D02*
X205076190Y-84552380D01*
X205171428Y-84504761D01*
X205219047Y-84457142D01*
X205314285Y-84314285D01*
X205361904Y-84123809D01*
X205361904Y-83742857D01*
X205314285Y-83647619D01*
X205266666Y-83600000D01*
X205171428Y-83552380D01*
X204980952Y-83552380D01*
X204885714Y-83600000D01*
X204838095Y-83647619D01*
X204790476Y-83742857D01*
X204790476Y-83980952D01*
X204838095Y-84076190D01*
X204885714Y-84123809D01*
X204980952Y-84171428D01*
X205171428Y-84171428D01*
X205266666Y-84123809D01*
X205314285Y-84076190D01*
X205361904Y-83980952D01*
G04 #@! TO.C,C17*
X162157142Y-70742857D02*
X162204761Y-70790476D01*
X162252380Y-70933333D01*
X162252380Y-71028571D01*
X162204761Y-71171428D01*
X162109523Y-71266666D01*
X162014285Y-71314285D01*
X161823809Y-71361904D01*
X161680952Y-71361904D01*
X161490476Y-71314285D01*
X161395238Y-71266666D01*
X161300000Y-71171428D01*
X161252380Y-71028571D01*
X161252380Y-70933333D01*
X161300000Y-70790476D01*
X161347619Y-70742857D01*
X162252380Y-69790476D02*
X162252380Y-70361904D01*
X162252380Y-70076190D02*
X161252380Y-70076190D01*
X161395238Y-70171428D01*
X161490476Y-70266666D01*
X161538095Y-70361904D01*
X161252380Y-69457142D02*
X161252380Y-68790476D01*
X162252380Y-69219047D01*
G04 #@! TO.C,J8*
X207552380Y-79783333D02*
X208266666Y-79783333D01*
X208409523Y-79830952D01*
X208504761Y-79926190D01*
X208552380Y-80069047D01*
X208552380Y-80164285D01*
X207980952Y-79164285D02*
X207933333Y-79259523D01*
X207885714Y-79307142D01*
X207790476Y-79354761D01*
X207742857Y-79354761D01*
X207647619Y-79307142D01*
X207600000Y-79259523D01*
X207552380Y-79164285D01*
X207552380Y-78973809D01*
X207600000Y-78878571D01*
X207647619Y-78830952D01*
X207742857Y-78783333D01*
X207790476Y-78783333D01*
X207885714Y-78830952D01*
X207933333Y-78878571D01*
X207980952Y-78973809D01*
X207980952Y-79164285D01*
X208028571Y-79259523D01*
X208076190Y-79307142D01*
X208171428Y-79354761D01*
X208361904Y-79354761D01*
X208457142Y-79307142D01*
X208504761Y-79259523D01*
X208552380Y-79164285D01*
X208552380Y-78973809D01*
X208504761Y-78878571D01*
X208457142Y-78830952D01*
X208361904Y-78783333D01*
X208171428Y-78783333D01*
X208076190Y-78830952D01*
X208028571Y-78878571D01*
X207980952Y-78973809D01*
G04 #@! TO.C,C18*
X173657142Y-70642857D02*
X173704761Y-70690476D01*
X173752380Y-70833333D01*
X173752380Y-70928571D01*
X173704761Y-71071428D01*
X173609523Y-71166666D01*
X173514285Y-71214285D01*
X173323809Y-71261904D01*
X173180952Y-71261904D01*
X172990476Y-71214285D01*
X172895238Y-71166666D01*
X172800000Y-71071428D01*
X172752380Y-70928571D01*
X172752380Y-70833333D01*
X172800000Y-70690476D01*
X172847619Y-70642857D01*
X173752380Y-69690476D02*
X173752380Y-70261904D01*
X173752380Y-69976190D02*
X172752380Y-69976190D01*
X172895238Y-70071428D01*
X172990476Y-70166666D01*
X173038095Y-70261904D01*
X173180952Y-69119047D02*
X173133333Y-69214285D01*
X173085714Y-69261904D01*
X172990476Y-69309523D01*
X172942857Y-69309523D01*
X172847619Y-69261904D01*
X172800000Y-69214285D01*
X172752380Y-69119047D01*
X172752380Y-68928571D01*
X172800000Y-68833333D01*
X172847619Y-68785714D01*
X172942857Y-68738095D01*
X172990476Y-68738095D01*
X173085714Y-68785714D01*
X173133333Y-68833333D01*
X173180952Y-68928571D01*
X173180952Y-69119047D01*
X173228571Y-69214285D01*
X173276190Y-69261904D01*
X173371428Y-69309523D01*
X173561904Y-69309523D01*
X173657142Y-69261904D01*
X173704761Y-69214285D01*
X173752380Y-69119047D01*
X173752380Y-68928571D01*
X173704761Y-68833333D01*
X173657142Y-68785714D01*
X173561904Y-68738095D01*
X173371428Y-68738095D01*
X173276190Y-68785714D01*
X173228571Y-68833333D01*
X173180952Y-68928571D01*
G04 #@! TO.C,C19*
X188857142Y-70642857D02*
X188904761Y-70690476D01*
X188952380Y-70833333D01*
X188952380Y-70928571D01*
X188904761Y-71071428D01*
X188809523Y-71166666D01*
X188714285Y-71214285D01*
X188523809Y-71261904D01*
X188380952Y-71261904D01*
X188190476Y-71214285D01*
X188095238Y-71166666D01*
X188000000Y-71071428D01*
X187952380Y-70928571D01*
X187952380Y-70833333D01*
X188000000Y-70690476D01*
X188047619Y-70642857D01*
X188952380Y-69690476D02*
X188952380Y-70261904D01*
X188952380Y-69976190D02*
X187952380Y-69976190D01*
X188095238Y-70071428D01*
X188190476Y-70166666D01*
X188238095Y-70261904D01*
X188952380Y-69214285D02*
X188952380Y-69023809D01*
X188904761Y-68928571D01*
X188857142Y-68880952D01*
X188714285Y-68785714D01*
X188523809Y-68738095D01*
X188142857Y-68738095D01*
X188047619Y-68785714D01*
X188000000Y-68833333D01*
X187952380Y-68928571D01*
X187952380Y-69119047D01*
X188000000Y-69214285D01*
X188047619Y-69261904D01*
X188142857Y-69309523D01*
X188380952Y-69309523D01*
X188476190Y-69261904D01*
X188523809Y-69214285D01*
X188571428Y-69119047D01*
X188571428Y-68928571D01*
X188523809Y-68833333D01*
X188476190Y-68785714D01*
X188380952Y-68738095D01*
G04 #@! TO.C,C14*
X146457142Y-73387142D02*
X146409523Y-73434761D01*
X146266666Y-73482380D01*
X146171428Y-73482380D01*
X146028571Y-73434761D01*
X145933333Y-73339523D01*
X145885714Y-73244285D01*
X145838095Y-73053809D01*
X145838095Y-72910952D01*
X145885714Y-72720476D01*
X145933333Y-72625238D01*
X146028571Y-72530000D01*
X146171428Y-72482380D01*
X146266666Y-72482380D01*
X146409523Y-72530000D01*
X146457142Y-72577619D01*
X147409523Y-73482380D02*
X146838095Y-73482380D01*
X147123809Y-73482380D02*
X147123809Y-72482380D01*
X147028571Y-72625238D01*
X146933333Y-72720476D01*
X146838095Y-72768095D01*
X148266666Y-72815714D02*
X148266666Y-73482380D01*
X148028571Y-72434761D02*
X147790476Y-73149047D01*
X148409523Y-73149047D01*
G04 #@! TO.C,C28*
X221137142Y-94707142D02*
X221089523Y-94754761D01*
X220946666Y-94802380D01*
X220851428Y-94802380D01*
X220708571Y-94754761D01*
X220613333Y-94659523D01*
X220565714Y-94564285D01*
X220518095Y-94373809D01*
X220518095Y-94230952D01*
X220565714Y-94040476D01*
X220613333Y-93945238D01*
X220708571Y-93850000D01*
X220851428Y-93802380D01*
X220946666Y-93802380D01*
X221089523Y-93850000D01*
X221137142Y-93897619D01*
X221518095Y-93897619D02*
X221565714Y-93850000D01*
X221660952Y-93802380D01*
X221899047Y-93802380D01*
X221994285Y-93850000D01*
X222041904Y-93897619D01*
X222089523Y-93992857D01*
X222089523Y-94088095D01*
X222041904Y-94230952D01*
X221470476Y-94802380D01*
X222089523Y-94802380D01*
X222660952Y-94230952D02*
X222565714Y-94183333D01*
X222518095Y-94135714D01*
X222470476Y-94040476D01*
X222470476Y-93992857D01*
X222518095Y-93897619D01*
X222565714Y-93850000D01*
X222660952Y-93802380D01*
X222851428Y-93802380D01*
X222946666Y-93850000D01*
X222994285Y-93897619D01*
X223041904Y-93992857D01*
X223041904Y-94040476D01*
X222994285Y-94135714D01*
X222946666Y-94183333D01*
X222851428Y-94230952D01*
X222660952Y-94230952D01*
X222565714Y-94278571D01*
X222518095Y-94326190D01*
X222470476Y-94421428D01*
X222470476Y-94611904D01*
X222518095Y-94707142D01*
X222565714Y-94754761D01*
X222660952Y-94802380D01*
X222851428Y-94802380D01*
X222946666Y-94754761D01*
X222994285Y-94707142D01*
X223041904Y-94611904D01*
X223041904Y-94421428D01*
X222994285Y-94326190D01*
X222946666Y-94278571D01*
X222851428Y-94230952D01*
G04 #@! TO.C,J7*
X225766666Y-88002380D02*
X225766666Y-88716666D01*
X225719047Y-88859523D01*
X225623809Y-88954761D01*
X225480952Y-89002380D01*
X225385714Y-89002380D01*
X226147619Y-88002380D02*
X226814285Y-88002380D01*
X226385714Y-89002380D01*
G04 #@! TO.C,R6*
X132159046Y-90056666D02*
X131682856Y-90390000D01*
X132159046Y-90628095D02*
X131159046Y-90628095D01*
X131159046Y-90247142D01*
X131206666Y-90151904D01*
X131254285Y-90104285D01*
X131349523Y-90056666D01*
X131492380Y-90056666D01*
X131587618Y-90104285D01*
X131635237Y-90151904D01*
X131682856Y-90247142D01*
X131682856Y-90628095D01*
X131159046Y-89199523D02*
X131159046Y-89390000D01*
X131206666Y-89485238D01*
X131254285Y-89532857D01*
X131397142Y-89628095D01*
X131587618Y-89675714D01*
X131968570Y-89675714D01*
X132063808Y-89628095D01*
X132111427Y-89580476D01*
X132159046Y-89485238D01*
X132159046Y-89294761D01*
X132111427Y-89199523D01*
X132063808Y-89151904D01*
X131968570Y-89104285D01*
X131730475Y-89104285D01*
X131635237Y-89151904D01*
X131587618Y-89199523D01*
X131539999Y-89294761D01*
X131539999Y-89485238D01*
X131587618Y-89580476D01*
X131635237Y-89628095D01*
X131730475Y-89675714D01*
G04 #@! TO.C,R7*
X130315713Y-90056666D02*
X129839523Y-90390000D01*
X130315713Y-90628095D02*
X129315713Y-90628095D01*
X129315713Y-90247142D01*
X129363333Y-90151904D01*
X129410952Y-90104285D01*
X129506190Y-90056666D01*
X129649047Y-90056666D01*
X129744285Y-90104285D01*
X129791904Y-90151904D01*
X129839523Y-90247142D01*
X129839523Y-90628095D01*
X129315713Y-89723333D02*
X129315713Y-89056666D01*
X130315713Y-89485238D01*
G04 #@! TO.C,R8*
X128472380Y-90056666D02*
X127996190Y-90390000D01*
X128472380Y-90628095D02*
X127472380Y-90628095D01*
X127472380Y-90247142D01*
X127520000Y-90151904D01*
X127567619Y-90104285D01*
X127662857Y-90056666D01*
X127805714Y-90056666D01*
X127900952Y-90104285D01*
X127948571Y-90151904D01*
X127996190Y-90247142D01*
X127996190Y-90628095D01*
X127900952Y-89485238D02*
X127853333Y-89580476D01*
X127805714Y-89628095D01*
X127710476Y-89675714D01*
X127662857Y-89675714D01*
X127567619Y-89628095D01*
X127520000Y-89580476D01*
X127472380Y-89485238D01*
X127472380Y-89294761D01*
X127520000Y-89199523D01*
X127567619Y-89151904D01*
X127662857Y-89104285D01*
X127710476Y-89104285D01*
X127805714Y-89151904D01*
X127853333Y-89199523D01*
X127900952Y-89294761D01*
X127900952Y-89485238D01*
X127948571Y-89580476D01*
X127996190Y-89628095D01*
X128091428Y-89675714D01*
X128281904Y-89675714D01*
X128377142Y-89628095D01*
X128424761Y-89580476D01*
X128472380Y-89485238D01*
X128472380Y-89294761D01*
X128424761Y-89199523D01*
X128377142Y-89151904D01*
X128281904Y-89104285D01*
X128091428Y-89104285D01*
X127996190Y-89151904D01*
X127948571Y-89199523D01*
X127900952Y-89294761D01*
G04 #@! TO.C,R5*
X134002380Y-90056666D02*
X133526190Y-90390000D01*
X134002380Y-90628095D02*
X133002380Y-90628095D01*
X133002380Y-90247142D01*
X133050000Y-90151904D01*
X133097619Y-90104285D01*
X133192857Y-90056666D01*
X133335714Y-90056666D01*
X133430952Y-90104285D01*
X133478571Y-90151904D01*
X133526190Y-90247142D01*
X133526190Y-90628095D01*
X133002380Y-89151904D02*
X133002380Y-89628095D01*
X133478571Y-89675714D01*
X133430952Y-89628095D01*
X133383333Y-89532857D01*
X133383333Y-89294761D01*
X133430952Y-89199523D01*
X133478571Y-89151904D01*
X133573809Y-89104285D01*
X133811904Y-89104285D01*
X133907142Y-89151904D01*
X133954761Y-89199523D01*
X134002380Y-89294761D01*
X134002380Y-89532857D01*
X133954761Y-89628095D01*
X133907142Y-89675714D01*
G04 #@! TO.C,C20*
X252867142Y-53592857D02*
X252914761Y-53640476D01*
X252962380Y-53783333D01*
X252962380Y-53878571D01*
X252914761Y-54021428D01*
X252819523Y-54116666D01*
X252724285Y-54164285D01*
X252533809Y-54211904D01*
X252390952Y-54211904D01*
X252200476Y-54164285D01*
X252105238Y-54116666D01*
X252010000Y-54021428D01*
X251962380Y-53878571D01*
X251962380Y-53783333D01*
X252010000Y-53640476D01*
X252057619Y-53592857D01*
X252057619Y-53211904D02*
X252010000Y-53164285D01*
X251962380Y-53069047D01*
X251962380Y-52830952D01*
X252010000Y-52735714D01*
X252057619Y-52688095D01*
X252152857Y-52640476D01*
X252248095Y-52640476D01*
X252390952Y-52688095D01*
X252962380Y-53259523D01*
X252962380Y-52640476D01*
X251962380Y-52021428D02*
X251962380Y-51926190D01*
X252010000Y-51830952D01*
X252057619Y-51783333D01*
X252152857Y-51735714D01*
X252343333Y-51688095D01*
X252581428Y-51688095D01*
X252771904Y-51735714D01*
X252867142Y-51783333D01*
X252914761Y-51830952D01*
X252962380Y-51926190D01*
X252962380Y-52021428D01*
X252914761Y-52116666D01*
X252867142Y-52164285D01*
X252771904Y-52211904D01*
X252581428Y-52259523D01*
X252343333Y-52259523D01*
X252152857Y-52211904D01*
X252057619Y-52164285D01*
X252010000Y-52116666D01*
X251962380Y-52021428D01*
G04 #@! TO.C,JCD1*
X128666666Y-32052380D02*
X128666666Y-32766666D01*
X128619047Y-32909523D01*
X128523809Y-33004761D01*
X128380952Y-33052380D01*
X128285714Y-33052380D01*
X129714285Y-32957142D02*
X129666666Y-33004761D01*
X129523809Y-33052380D01*
X129428571Y-33052380D01*
X129285714Y-33004761D01*
X129190476Y-32909523D01*
X129142857Y-32814285D01*
X129095238Y-32623809D01*
X129095238Y-32480952D01*
X129142857Y-32290476D01*
X129190476Y-32195238D01*
X129285714Y-32100000D01*
X129428571Y-32052380D01*
X129523809Y-32052380D01*
X129666666Y-32100000D01*
X129714285Y-32147619D01*
X130142857Y-33052380D02*
X130142857Y-32052380D01*
X130380952Y-32052380D01*
X130523809Y-32100000D01*
X130619047Y-32195238D01*
X130666666Y-32290476D01*
X130714285Y-32480952D01*
X130714285Y-32623809D01*
X130666666Y-32814285D01*
X130619047Y-32909523D01*
X130523809Y-33004761D01*
X130380952Y-33052380D01*
X130142857Y-33052380D01*
X131666666Y-33052380D02*
X131095238Y-33052380D01*
X131380952Y-33052380D02*
X131380952Y-32052380D01*
X131285714Y-32195238D01*
X131190476Y-32290476D01*
X131095238Y-32338095D01*
G04 #@! TO.C,C1*
X172208333Y-35387142D02*
X172160714Y-35434761D01*
X172017857Y-35482380D01*
X171922619Y-35482380D01*
X171779761Y-35434761D01*
X171684523Y-35339523D01*
X171636904Y-35244285D01*
X171589285Y-35053809D01*
X171589285Y-34910952D01*
X171636904Y-34720476D01*
X171684523Y-34625238D01*
X171779761Y-34530000D01*
X171922619Y-34482380D01*
X172017857Y-34482380D01*
X172160714Y-34530000D01*
X172208333Y-34577619D01*
X173160714Y-35482380D02*
X172589285Y-35482380D01*
X172875000Y-35482380D02*
X172875000Y-34482380D01*
X172779761Y-34625238D01*
X172684523Y-34720476D01*
X172589285Y-34768095D01*
G04 #@! TO.C,J1*
X229742380Y-28833333D02*
X230456666Y-28833333D01*
X230599523Y-28880952D01*
X230694761Y-28976190D01*
X230742380Y-29119047D01*
X230742380Y-29214285D01*
X230742380Y-27833333D02*
X230742380Y-28404761D01*
X230742380Y-28119047D02*
X229742380Y-28119047D01*
X229885238Y-28214285D01*
X229980476Y-28309523D01*
X230028095Y-28404761D01*
G04 #@! TO.C,C26*
X257097142Y-89607142D02*
X257049523Y-89654761D01*
X256906666Y-89702380D01*
X256811428Y-89702380D01*
X256668571Y-89654761D01*
X256573333Y-89559523D01*
X256525714Y-89464285D01*
X256478095Y-89273809D01*
X256478095Y-89130952D01*
X256525714Y-88940476D01*
X256573333Y-88845238D01*
X256668571Y-88750000D01*
X256811428Y-88702380D01*
X256906666Y-88702380D01*
X257049523Y-88750000D01*
X257097142Y-88797619D01*
X257478095Y-88797619D02*
X257525714Y-88750000D01*
X257620952Y-88702380D01*
X257859047Y-88702380D01*
X257954285Y-88750000D01*
X258001904Y-88797619D01*
X258049523Y-88892857D01*
X258049523Y-88988095D01*
X258001904Y-89130952D01*
X257430476Y-89702380D01*
X258049523Y-89702380D01*
X258906666Y-88702380D02*
X258716190Y-88702380D01*
X258620952Y-88750000D01*
X258573333Y-88797619D01*
X258478095Y-88940476D01*
X258430476Y-89130952D01*
X258430476Y-89511904D01*
X258478095Y-89607142D01*
X258525714Y-89654761D01*
X258620952Y-89702380D01*
X258811428Y-89702380D01*
X258906666Y-89654761D01*
X258954285Y-89607142D01*
X259001904Y-89511904D01*
X259001904Y-89273809D01*
X258954285Y-89178571D01*
X258906666Y-89130952D01*
X258811428Y-89083333D01*
X258620952Y-89083333D01*
X258525714Y-89130952D01*
X258478095Y-89178571D01*
X258430476Y-89273809D01*
G04 #@! TO.C,C27*
X252307142Y-80347142D02*
X252259523Y-80394761D01*
X252116666Y-80442380D01*
X252021428Y-80442380D01*
X251878571Y-80394761D01*
X251783333Y-80299523D01*
X251735714Y-80204285D01*
X251688095Y-80013809D01*
X251688095Y-79870952D01*
X251735714Y-79680476D01*
X251783333Y-79585238D01*
X251878571Y-79490000D01*
X252021428Y-79442380D01*
X252116666Y-79442380D01*
X252259523Y-79490000D01*
X252307142Y-79537619D01*
X252688095Y-79537619D02*
X252735714Y-79490000D01*
X252830952Y-79442380D01*
X253069047Y-79442380D01*
X253164285Y-79490000D01*
X253211904Y-79537619D01*
X253259523Y-79632857D01*
X253259523Y-79728095D01*
X253211904Y-79870952D01*
X252640476Y-80442380D01*
X253259523Y-80442380D01*
X253592857Y-79442380D02*
X254259523Y-79442380D01*
X253830952Y-80442380D01*
G04 #@! TO.C,C25*
X260967142Y-86617142D02*
X260919523Y-86664761D01*
X260776666Y-86712380D01*
X260681428Y-86712380D01*
X260538571Y-86664761D01*
X260443333Y-86569523D01*
X260395714Y-86474285D01*
X260348095Y-86283809D01*
X260348095Y-86140952D01*
X260395714Y-85950476D01*
X260443333Y-85855238D01*
X260538571Y-85760000D01*
X260681428Y-85712380D01*
X260776666Y-85712380D01*
X260919523Y-85760000D01*
X260967142Y-85807619D01*
X261348095Y-85807619D02*
X261395714Y-85760000D01*
X261490952Y-85712380D01*
X261729047Y-85712380D01*
X261824285Y-85760000D01*
X261871904Y-85807619D01*
X261919523Y-85902857D01*
X261919523Y-85998095D01*
X261871904Y-86140952D01*
X261300476Y-86712380D01*
X261919523Y-86712380D01*
X262824285Y-85712380D02*
X262348095Y-85712380D01*
X262300476Y-86188571D01*
X262348095Y-86140952D01*
X262443333Y-86093333D01*
X262681428Y-86093333D01*
X262776666Y-86140952D01*
X262824285Y-86188571D01*
X262871904Y-86283809D01*
X262871904Y-86521904D01*
X262824285Y-86617142D01*
X262776666Y-86664761D01*
X262681428Y-86712380D01*
X262443333Y-86712380D01*
X262348095Y-86664761D01*
X262300476Y-86617142D01*
G04 #@! TO.C,FB1*
X256326666Y-82418571D02*
X255993333Y-82418571D01*
X255993333Y-82942380D02*
X255993333Y-81942380D01*
X256469523Y-81942380D01*
X257183809Y-82418571D02*
X257326666Y-82466190D01*
X257374285Y-82513809D01*
X257421904Y-82609047D01*
X257421904Y-82751904D01*
X257374285Y-82847142D01*
X257326666Y-82894761D01*
X257231428Y-82942380D01*
X256850476Y-82942380D01*
X256850476Y-81942380D01*
X257183809Y-81942380D01*
X257279047Y-81990000D01*
X257326666Y-82037619D01*
X257374285Y-82132857D01*
X257374285Y-82228095D01*
X257326666Y-82323333D01*
X257279047Y-82370952D01*
X257183809Y-82418571D01*
X256850476Y-82418571D01*
X258374285Y-82942380D02*
X257802857Y-82942380D01*
X258088571Y-82942380D02*
X258088571Y-81942380D01*
X257993333Y-82085238D01*
X257898095Y-82180476D01*
X257802857Y-82228095D01*
G04 #@! TO.C,U11*
X250991904Y-87422380D02*
X250991904Y-88231904D01*
X251039523Y-88327142D01*
X251087142Y-88374761D01*
X251182380Y-88422380D01*
X251372857Y-88422380D01*
X251468095Y-88374761D01*
X251515714Y-88327142D01*
X251563333Y-88231904D01*
X251563333Y-87422380D01*
X252563333Y-88422380D02*
X251991904Y-88422380D01*
X252277619Y-88422380D02*
X252277619Y-87422380D01*
X252182380Y-87565238D01*
X252087142Y-87660476D01*
X251991904Y-87708095D01*
X253515714Y-88422380D02*
X252944285Y-88422380D01*
X253230000Y-88422380D02*
X253230000Y-87422380D01*
X253134761Y-87565238D01*
X253039523Y-87660476D01*
X252944285Y-87708095D01*
G04 #@! TO.C,U10*
X265061904Y-81402380D02*
X265061904Y-82211904D01*
X265109523Y-82307142D01*
X265157142Y-82354761D01*
X265252380Y-82402380D01*
X265442857Y-82402380D01*
X265538095Y-82354761D01*
X265585714Y-82307142D01*
X265633333Y-82211904D01*
X265633333Y-81402380D01*
X266633333Y-82402380D02*
X266061904Y-82402380D01*
X266347619Y-82402380D02*
X266347619Y-81402380D01*
X266252380Y-81545238D01*
X266157142Y-81640476D01*
X266061904Y-81688095D01*
X267252380Y-81402380D02*
X267347619Y-81402380D01*
X267442857Y-81450000D01*
X267490476Y-81497619D01*
X267538095Y-81592857D01*
X267585714Y-81783333D01*
X267585714Y-82021428D01*
X267538095Y-82211904D01*
X267490476Y-82307142D01*
X267442857Y-82354761D01*
X267347619Y-82402380D01*
X267252380Y-82402380D01*
X267157142Y-82354761D01*
X267109523Y-82307142D01*
X267061904Y-82211904D01*
X267014285Y-82021428D01*
X267014285Y-81783333D01*
X267061904Y-81592857D01*
X267109523Y-81497619D01*
X267157142Y-81450000D01*
X267252380Y-81402380D01*
G04 #@! TO.C,R22*
X262797142Y-75592380D02*
X262463809Y-75116190D01*
X262225714Y-75592380D02*
X262225714Y-74592380D01*
X262606666Y-74592380D01*
X262701904Y-74640000D01*
X262749523Y-74687619D01*
X262797142Y-74782857D01*
X262797142Y-74925714D01*
X262749523Y-75020952D01*
X262701904Y-75068571D01*
X262606666Y-75116190D01*
X262225714Y-75116190D01*
X263178095Y-74687619D02*
X263225714Y-74640000D01*
X263320952Y-74592380D01*
X263559047Y-74592380D01*
X263654285Y-74640000D01*
X263701904Y-74687619D01*
X263749523Y-74782857D01*
X263749523Y-74878095D01*
X263701904Y-75020952D01*
X263130476Y-75592380D01*
X263749523Y-75592380D01*
X264130476Y-74687619D02*
X264178095Y-74640000D01*
X264273333Y-74592380D01*
X264511428Y-74592380D01*
X264606666Y-74640000D01*
X264654285Y-74687619D01*
X264701904Y-74782857D01*
X264701904Y-74878095D01*
X264654285Y-75020952D01*
X264082857Y-75592380D01*
X264701904Y-75592380D01*
G04 #@! TO.C,R23*
X262867142Y-84032380D02*
X262533809Y-83556190D01*
X262295714Y-84032380D02*
X262295714Y-83032380D01*
X262676666Y-83032380D01*
X262771904Y-83080000D01*
X262819523Y-83127619D01*
X262867142Y-83222857D01*
X262867142Y-83365714D01*
X262819523Y-83460952D01*
X262771904Y-83508571D01*
X262676666Y-83556190D01*
X262295714Y-83556190D01*
X263248095Y-83127619D02*
X263295714Y-83080000D01*
X263390952Y-83032380D01*
X263629047Y-83032380D01*
X263724285Y-83080000D01*
X263771904Y-83127619D01*
X263819523Y-83222857D01*
X263819523Y-83318095D01*
X263771904Y-83460952D01*
X263200476Y-84032380D01*
X263819523Y-84032380D01*
X264152857Y-83032380D02*
X264771904Y-83032380D01*
X264438571Y-83413333D01*
X264581428Y-83413333D01*
X264676666Y-83460952D01*
X264724285Y-83508571D01*
X264771904Y-83603809D01*
X264771904Y-83841904D01*
X264724285Y-83937142D01*
X264676666Y-83984761D01*
X264581428Y-84032380D01*
X264295714Y-84032380D01*
X264200476Y-83984761D01*
X264152857Y-83937142D01*
G04 #@! TO.C,R25*
X259882380Y-81542857D02*
X259406190Y-81876190D01*
X259882380Y-82114285D02*
X258882380Y-82114285D01*
X258882380Y-81733333D01*
X258930000Y-81638095D01*
X258977619Y-81590476D01*
X259072857Y-81542857D01*
X259215714Y-81542857D01*
X259310952Y-81590476D01*
X259358571Y-81638095D01*
X259406190Y-81733333D01*
X259406190Y-82114285D01*
X258977619Y-81161904D02*
X258930000Y-81114285D01*
X258882380Y-81019047D01*
X258882380Y-80780952D01*
X258930000Y-80685714D01*
X258977619Y-80638095D01*
X259072857Y-80590476D01*
X259168095Y-80590476D01*
X259310952Y-80638095D01*
X259882380Y-81209523D01*
X259882380Y-80590476D01*
X258882380Y-79685714D02*
X258882380Y-80161904D01*
X259358571Y-80209523D01*
X259310952Y-80161904D01*
X259263333Y-80066666D01*
X259263333Y-79828571D01*
X259310952Y-79733333D01*
X259358571Y-79685714D01*
X259453809Y-79638095D01*
X259691904Y-79638095D01*
X259787142Y-79685714D01*
X259834761Y-79733333D01*
X259882380Y-79828571D01*
X259882380Y-80066666D01*
X259834761Y-80161904D01*
X259787142Y-80209523D01*
G04 #@! TO.C,R26*
X245437142Y-86842380D02*
X245103809Y-86366190D01*
X244865714Y-86842380D02*
X244865714Y-85842380D01*
X245246666Y-85842380D01*
X245341904Y-85890000D01*
X245389523Y-85937619D01*
X245437142Y-86032857D01*
X245437142Y-86175714D01*
X245389523Y-86270952D01*
X245341904Y-86318571D01*
X245246666Y-86366190D01*
X244865714Y-86366190D01*
X245818095Y-85937619D02*
X245865714Y-85890000D01*
X245960952Y-85842380D01*
X246199047Y-85842380D01*
X246294285Y-85890000D01*
X246341904Y-85937619D01*
X246389523Y-86032857D01*
X246389523Y-86128095D01*
X246341904Y-86270952D01*
X245770476Y-86842380D01*
X246389523Y-86842380D01*
X247246666Y-85842380D02*
X247056190Y-85842380D01*
X246960952Y-85890000D01*
X246913333Y-85937619D01*
X246818095Y-86080476D01*
X246770476Y-86270952D01*
X246770476Y-86651904D01*
X246818095Y-86747142D01*
X246865714Y-86794761D01*
X246960952Y-86842380D01*
X247151428Y-86842380D01*
X247246666Y-86794761D01*
X247294285Y-86747142D01*
X247341904Y-86651904D01*
X247341904Y-86413809D01*
X247294285Y-86318571D01*
X247246666Y-86270952D01*
X247151428Y-86223333D01*
X246960952Y-86223333D01*
X246865714Y-86270952D01*
X246818095Y-86318571D01*
X246770476Y-86413809D01*
G04 #@! TO.C,R24*
X259882380Y-78452857D02*
X259406190Y-78786190D01*
X259882380Y-79024285D02*
X258882380Y-79024285D01*
X258882380Y-78643333D01*
X258930000Y-78548095D01*
X258977619Y-78500476D01*
X259072857Y-78452857D01*
X259215714Y-78452857D01*
X259310952Y-78500476D01*
X259358571Y-78548095D01*
X259406190Y-78643333D01*
X259406190Y-79024285D01*
X258977619Y-78071904D02*
X258930000Y-78024285D01*
X258882380Y-77929047D01*
X258882380Y-77690952D01*
X258930000Y-77595714D01*
X258977619Y-77548095D01*
X259072857Y-77500476D01*
X259168095Y-77500476D01*
X259310952Y-77548095D01*
X259882380Y-78119523D01*
X259882380Y-77500476D01*
X259215714Y-76643333D02*
X259882380Y-76643333D01*
X258834761Y-76881428D02*
X259549047Y-77119523D01*
X259549047Y-76500476D01*
G04 #@! TO.C,R27*
X245437142Y-84532380D02*
X245103809Y-84056190D01*
X244865714Y-84532380D02*
X244865714Y-83532380D01*
X245246666Y-83532380D01*
X245341904Y-83580000D01*
X245389523Y-83627619D01*
X245437142Y-83722857D01*
X245437142Y-83865714D01*
X245389523Y-83960952D01*
X245341904Y-84008571D01*
X245246666Y-84056190D01*
X244865714Y-84056190D01*
X245818095Y-83627619D02*
X245865714Y-83580000D01*
X245960952Y-83532380D01*
X246199047Y-83532380D01*
X246294285Y-83580000D01*
X246341904Y-83627619D01*
X246389523Y-83722857D01*
X246389523Y-83818095D01*
X246341904Y-83960952D01*
X245770476Y-84532380D01*
X246389523Y-84532380D01*
X246722857Y-83532380D02*
X247389523Y-83532380D01*
X246960952Y-84532380D01*
G04 #@! TO.C,D2*
X189807380Y-13798095D02*
X188807380Y-13798095D01*
X188807380Y-13560000D01*
X188855000Y-13417142D01*
X188950238Y-13321904D01*
X189045476Y-13274285D01*
X189235952Y-13226666D01*
X189378809Y-13226666D01*
X189569285Y-13274285D01*
X189664523Y-13321904D01*
X189759761Y-13417142D01*
X189807380Y-13560000D01*
X189807380Y-13798095D01*
X188902619Y-12845714D02*
X188855000Y-12798095D01*
X188807380Y-12702857D01*
X188807380Y-12464761D01*
X188855000Y-12369523D01*
X188902619Y-12321904D01*
X188997857Y-12274285D01*
X189093095Y-12274285D01*
X189235952Y-12321904D01*
X189807380Y-12893333D01*
X189807380Y-12274285D01*
G04 #@! TO.C,D1*
X187592380Y-13738095D02*
X186592380Y-13738095D01*
X186592380Y-13500000D01*
X186640000Y-13357142D01*
X186735238Y-13261904D01*
X186830476Y-13214285D01*
X187020952Y-13166666D01*
X187163809Y-13166666D01*
X187354285Y-13214285D01*
X187449523Y-13261904D01*
X187544761Y-13357142D01*
X187592380Y-13500000D01*
X187592380Y-13738095D01*
X187592380Y-12214285D02*
X187592380Y-12785714D01*
X187592380Y-12500000D02*
X186592380Y-12500000D01*
X186735238Y-12595238D01*
X186830476Y-12690476D01*
X186878095Y-12785714D01*
G04 #@! TO.C,R2*
X189777380Y-22636666D02*
X189301190Y-22970000D01*
X189777380Y-23208095D02*
X188777380Y-23208095D01*
X188777380Y-22827142D01*
X188825000Y-22731904D01*
X188872619Y-22684285D01*
X188967857Y-22636666D01*
X189110714Y-22636666D01*
X189205952Y-22684285D01*
X189253571Y-22731904D01*
X189301190Y-22827142D01*
X189301190Y-23208095D01*
X188872619Y-22255714D02*
X188825000Y-22208095D01*
X188777380Y-22112857D01*
X188777380Y-21874761D01*
X188825000Y-21779523D01*
X188872619Y-21731904D01*
X188967857Y-21684285D01*
X189063095Y-21684285D01*
X189205952Y-21731904D01*
X189777380Y-22303333D01*
X189777380Y-21684285D01*
G04 #@! TO.C,R1*
X187792380Y-22596666D02*
X187316190Y-22930000D01*
X187792380Y-23168095D02*
X186792380Y-23168095D01*
X186792380Y-22787142D01*
X186840000Y-22691904D01*
X186887619Y-22644285D01*
X186982857Y-22596666D01*
X187125714Y-22596666D01*
X187220952Y-22644285D01*
X187268571Y-22691904D01*
X187316190Y-22787142D01*
X187316190Y-23168095D01*
X187792380Y-21644285D02*
X187792380Y-22215714D01*
X187792380Y-21930000D02*
X186792380Y-21930000D01*
X186935238Y-22025238D01*
X187030476Y-22120476D01*
X187078095Y-22215714D01*
G04 #@! TO.C,C24*
X260137142Y-67717142D02*
X260089523Y-67764761D01*
X259946666Y-67812380D01*
X259851428Y-67812380D01*
X259708571Y-67764761D01*
X259613333Y-67669523D01*
X259565714Y-67574285D01*
X259518095Y-67383809D01*
X259518095Y-67240952D01*
X259565714Y-67050476D01*
X259613333Y-66955238D01*
X259708571Y-66860000D01*
X259851428Y-66812380D01*
X259946666Y-66812380D01*
X260089523Y-66860000D01*
X260137142Y-66907619D01*
X260518095Y-66907619D02*
X260565714Y-66860000D01*
X260660952Y-66812380D01*
X260899047Y-66812380D01*
X260994285Y-66860000D01*
X261041904Y-66907619D01*
X261089523Y-67002857D01*
X261089523Y-67098095D01*
X261041904Y-67240952D01*
X260470476Y-67812380D01*
X261089523Y-67812380D01*
X261946666Y-67145714D02*
X261946666Y-67812380D01*
X261708571Y-66764761D02*
X261470476Y-67479047D01*
X262089523Y-67479047D01*
G04 #@! TO.C,C23*
X243682142Y-61792857D02*
X243729761Y-61840476D01*
X243777380Y-61983333D01*
X243777380Y-62078571D01*
X243729761Y-62221428D01*
X243634523Y-62316666D01*
X243539285Y-62364285D01*
X243348809Y-62411904D01*
X243205952Y-62411904D01*
X243015476Y-62364285D01*
X242920238Y-62316666D01*
X242825000Y-62221428D01*
X242777380Y-62078571D01*
X242777380Y-61983333D01*
X242825000Y-61840476D01*
X242872619Y-61792857D01*
X242872619Y-61411904D02*
X242825000Y-61364285D01*
X242777380Y-61269047D01*
X242777380Y-61030952D01*
X242825000Y-60935714D01*
X242872619Y-60888095D01*
X242967857Y-60840476D01*
X243063095Y-60840476D01*
X243205952Y-60888095D01*
X243777380Y-61459523D01*
X243777380Y-60840476D01*
X242777380Y-60507142D02*
X242777380Y-59888095D01*
X243158333Y-60221428D01*
X243158333Y-60078571D01*
X243205952Y-59983333D01*
X243253571Y-59935714D01*
X243348809Y-59888095D01*
X243586904Y-59888095D01*
X243682142Y-59935714D01*
X243729761Y-59983333D01*
X243777380Y-60078571D01*
X243777380Y-60364285D01*
X243729761Y-60459523D01*
X243682142Y-60507142D01*
G04 #@! TO.C,C22*
X255957142Y-52807142D02*
X255909523Y-52854761D01*
X255766666Y-52902380D01*
X255671428Y-52902380D01*
X255528571Y-52854761D01*
X255433333Y-52759523D01*
X255385714Y-52664285D01*
X255338095Y-52473809D01*
X255338095Y-52330952D01*
X255385714Y-52140476D01*
X255433333Y-52045238D01*
X255528571Y-51950000D01*
X255671428Y-51902380D01*
X255766666Y-51902380D01*
X255909523Y-51950000D01*
X255957142Y-51997619D01*
X256338095Y-51997619D02*
X256385714Y-51950000D01*
X256480952Y-51902380D01*
X256719047Y-51902380D01*
X256814285Y-51950000D01*
X256861904Y-51997619D01*
X256909523Y-52092857D01*
X256909523Y-52188095D01*
X256861904Y-52330952D01*
X256290476Y-52902380D01*
X256909523Y-52902380D01*
X257290476Y-51997619D02*
X257338095Y-51950000D01*
X257433333Y-51902380D01*
X257671428Y-51902380D01*
X257766666Y-51950000D01*
X257814285Y-51997619D01*
X257861904Y-52092857D01*
X257861904Y-52188095D01*
X257814285Y-52330952D01*
X257242857Y-52902380D01*
X257861904Y-52902380D01*
G04 #@! TO.C,C21*
X258957142Y-52457142D02*
X258909523Y-52504761D01*
X258766666Y-52552380D01*
X258671428Y-52552380D01*
X258528571Y-52504761D01*
X258433333Y-52409523D01*
X258385714Y-52314285D01*
X258338095Y-52123809D01*
X258338095Y-51980952D01*
X258385714Y-51790476D01*
X258433333Y-51695238D01*
X258528571Y-51600000D01*
X258671428Y-51552380D01*
X258766666Y-51552380D01*
X258909523Y-51600000D01*
X258957142Y-51647619D01*
X259338095Y-51647619D02*
X259385714Y-51600000D01*
X259480952Y-51552380D01*
X259719047Y-51552380D01*
X259814285Y-51600000D01*
X259861904Y-51647619D01*
X259909523Y-51742857D01*
X259909523Y-51838095D01*
X259861904Y-51980952D01*
X259290476Y-52552380D01*
X259909523Y-52552380D01*
X260861904Y-52552380D02*
X260290476Y-52552380D01*
X260576190Y-52552380D02*
X260576190Y-51552380D01*
X260480952Y-51695238D01*
X260385714Y-51790476D01*
X260290476Y-51838095D01*
G04 #@! TO.C,J5*
X263262380Y-56503333D02*
X263976666Y-56503333D01*
X264119523Y-56550952D01*
X264214761Y-56646190D01*
X264262380Y-56789047D01*
X264262380Y-56884285D01*
X263262380Y-55550952D02*
X263262380Y-56027142D01*
X263738571Y-56074761D01*
X263690952Y-56027142D01*
X263643333Y-55931904D01*
X263643333Y-55693809D01*
X263690952Y-55598571D01*
X263738571Y-55550952D01*
X263833809Y-55503333D01*
X264071904Y-55503333D01*
X264167142Y-55550952D01*
X264214761Y-55598571D01*
X264262380Y-55693809D01*
X264262380Y-55931904D01*
X264214761Y-56027142D01*
X264167142Y-56074761D01*
G04 #@! TO.C,C39*
X259902857Y-42707142D02*
X259855238Y-42659523D01*
X259807619Y-42516666D01*
X259807619Y-42421428D01*
X259855238Y-42278571D01*
X259950476Y-42183333D01*
X260045714Y-42135714D01*
X260236190Y-42088095D01*
X260379047Y-42088095D01*
X260569523Y-42135714D01*
X260664761Y-42183333D01*
X260760000Y-42278571D01*
X260807619Y-42421428D01*
X260807619Y-42516666D01*
X260760000Y-42659523D01*
X260712380Y-42707142D01*
X260807619Y-43040476D02*
X260807619Y-43659523D01*
X260426666Y-43326190D01*
X260426666Y-43469047D01*
X260379047Y-43564285D01*
X260331428Y-43611904D01*
X260236190Y-43659523D01*
X259998095Y-43659523D01*
X259902857Y-43611904D01*
X259855238Y-43564285D01*
X259807619Y-43469047D01*
X259807619Y-43183333D01*
X259855238Y-43088095D01*
X259902857Y-43040476D01*
X259807619Y-44135714D02*
X259807619Y-44326190D01*
X259855238Y-44421428D01*
X259902857Y-44469047D01*
X260045714Y-44564285D01*
X260236190Y-44611904D01*
X260617142Y-44611904D01*
X260712380Y-44564285D01*
X260760000Y-44516666D01*
X260807619Y-44421428D01*
X260807619Y-44230952D01*
X260760000Y-44135714D01*
X260712380Y-44088095D01*
X260617142Y-44040476D01*
X260379047Y-44040476D01*
X260283809Y-44088095D01*
X260236190Y-44135714D01*
X260188571Y-44230952D01*
X260188571Y-44421428D01*
X260236190Y-44516666D01*
X260283809Y-44564285D01*
X260379047Y-44611904D01*
G04 #@! TO.C,R33*
X263877142Y-35832380D02*
X263543809Y-35356190D01*
X263305714Y-35832380D02*
X263305714Y-34832380D01*
X263686666Y-34832380D01*
X263781904Y-34880000D01*
X263829523Y-34927619D01*
X263877142Y-35022857D01*
X263877142Y-35165714D01*
X263829523Y-35260952D01*
X263781904Y-35308571D01*
X263686666Y-35356190D01*
X263305714Y-35356190D01*
X264210476Y-34832380D02*
X264829523Y-34832380D01*
X264496190Y-35213333D01*
X264639047Y-35213333D01*
X264734285Y-35260952D01*
X264781904Y-35308571D01*
X264829523Y-35403809D01*
X264829523Y-35641904D01*
X264781904Y-35737142D01*
X264734285Y-35784761D01*
X264639047Y-35832380D01*
X264353333Y-35832380D01*
X264258095Y-35784761D01*
X264210476Y-35737142D01*
X265162857Y-34832380D02*
X265781904Y-34832380D01*
X265448571Y-35213333D01*
X265591428Y-35213333D01*
X265686666Y-35260952D01*
X265734285Y-35308571D01*
X265781904Y-35403809D01*
X265781904Y-35641904D01*
X265734285Y-35737142D01*
X265686666Y-35784761D01*
X265591428Y-35832380D01*
X265305714Y-35832380D01*
X265210476Y-35784761D01*
X265162857Y-35737142D01*
G04 #@! TO.C,J4*
X204746666Y-98452380D02*
X204746666Y-99166666D01*
X204699047Y-99309523D01*
X204603809Y-99404761D01*
X204460952Y-99452380D01*
X204365714Y-99452380D01*
X205651428Y-98785714D02*
X205651428Y-99452380D01*
X205413333Y-98404761D02*
X205175238Y-99119047D01*
X205794285Y-99119047D01*
G04 #@! TO.C,C2*
X166673333Y-54687142D02*
X166625714Y-54734761D01*
X166482857Y-54782380D01*
X166387619Y-54782380D01*
X166244761Y-54734761D01*
X166149523Y-54639523D01*
X166101904Y-54544285D01*
X166054285Y-54353809D01*
X166054285Y-54210952D01*
X166101904Y-54020476D01*
X166149523Y-53925238D01*
X166244761Y-53830000D01*
X166387619Y-53782380D01*
X166482857Y-53782380D01*
X166625714Y-53830000D01*
X166673333Y-53877619D01*
X167054285Y-53877619D02*
X167101904Y-53830000D01*
X167197142Y-53782380D01*
X167435238Y-53782380D01*
X167530476Y-53830000D01*
X167578095Y-53877619D01*
X167625714Y-53972857D01*
X167625714Y-54068095D01*
X167578095Y-54210952D01*
X167006666Y-54782380D01*
X167625714Y-54782380D01*
G04 #@! TO.C,R4*
X158033333Y-72652380D02*
X157700000Y-72176190D01*
X157461904Y-72652380D02*
X157461904Y-71652380D01*
X157842857Y-71652380D01*
X157938095Y-71700000D01*
X157985714Y-71747619D01*
X158033333Y-71842857D01*
X158033333Y-71985714D01*
X157985714Y-72080952D01*
X157938095Y-72128571D01*
X157842857Y-72176190D01*
X157461904Y-72176190D01*
X158890476Y-71985714D02*
X158890476Y-72652380D01*
X158652380Y-71604761D02*
X158414285Y-72319047D01*
X159033333Y-72319047D01*
G04 #@! TO.C,J3*
X117181666Y-35222380D02*
X117181666Y-35936666D01*
X117134047Y-36079523D01*
X117038809Y-36174761D01*
X116895952Y-36222380D01*
X116800714Y-36222380D01*
X117562619Y-35222380D02*
X118181666Y-35222380D01*
X117848333Y-35603333D01*
X117991190Y-35603333D01*
X118086428Y-35650952D01*
X118134047Y-35698571D01*
X118181666Y-35793809D01*
X118181666Y-36031904D01*
X118134047Y-36127142D01*
X118086428Y-36174761D01*
X117991190Y-36222380D01*
X117705476Y-36222380D01*
X117610238Y-36174761D01*
X117562619Y-36127142D01*
G04 #@! TO.C,JAB1*
X128738095Y-63752380D02*
X128738095Y-64466666D01*
X128690476Y-64609523D01*
X128595238Y-64704761D01*
X128452380Y-64752380D01*
X128357142Y-64752380D01*
X129166666Y-64466666D02*
X129642857Y-64466666D01*
X129071428Y-64752380D02*
X129404761Y-63752380D01*
X129738095Y-64752380D01*
X130404761Y-64228571D02*
X130547619Y-64276190D01*
X130595238Y-64323809D01*
X130642857Y-64419047D01*
X130642857Y-64561904D01*
X130595238Y-64657142D01*
X130547619Y-64704761D01*
X130452380Y-64752380D01*
X130071428Y-64752380D01*
X130071428Y-63752380D01*
X130404761Y-63752380D01*
X130500000Y-63800000D01*
X130547619Y-63847619D01*
X130595238Y-63942857D01*
X130595238Y-64038095D01*
X130547619Y-64133333D01*
X130500000Y-64180952D01*
X130404761Y-64228571D01*
X130071428Y-64228571D01*
X131595238Y-64752380D02*
X131023809Y-64752380D01*
X131309523Y-64752380D02*
X131309523Y-63752380D01*
X131214285Y-63895238D01*
X131119047Y-63990476D01*
X131023809Y-64038095D01*
G04 #@! TD*
M02*
