G04 #@! TF.GenerationSoftware,KiCad,Pcbnew,5.0.2+dfsg1-1~bpo9+1*
G04 #@! TF.CreationDate,2021-12-20T11:51:13+01:00*
G04 #@! TF.ProjectId,nubus-to-ztex,6e756275-732d-4746-9f2d-7a7465782e6b,rev?*
G04 #@! TF.SameCoordinates,Original*
G04 #@! TF.FileFunction,Legend,Top*
G04 #@! TF.FilePolarity,Positive*
%FSLAX46Y46*%
G04 Gerber Fmt 4.6, Leading zero omitted, Abs format (unit mm)*
G04 Created by KiCad (PCBNEW 5.0.2+dfsg1-1~bpo9+1) date Mon Dec 20 11:51:13 2021*
%MOMM*%
%LPD*%
G01*
G04 APERTURE LIST*
%ADD10C,0.300000*%
%ADD11C,0.250000*%
%ADD12C,0.200000*%
%ADD13C,0.120000*%
%ADD14C,0.100000*%
%ADD15C,0.150000*%
%ADD16C,0.127000*%
G04 APERTURE END LIST*
D10*
X118657142Y-83707142D02*
X119800000Y-83707142D01*
X119228571Y-84278571D02*
X119228571Y-83135714D01*
X121300000Y-84278571D02*
X120442857Y-84278571D01*
X120871428Y-84278571D02*
X120871428Y-82778571D01*
X120728571Y-82992857D01*
X120585714Y-83135714D01*
X120442857Y-83207142D01*
X121871428Y-82921428D02*
X121942857Y-82850000D01*
X122085714Y-82778571D01*
X122442857Y-82778571D01*
X122585714Y-82850000D01*
X122657142Y-82921428D01*
X122728571Y-83064285D01*
X122728571Y-83207142D01*
X122657142Y-83421428D01*
X121800000Y-84278571D01*
X122728571Y-84278571D01*
X123157142Y-82778571D02*
X123657142Y-84278571D01*
X124157142Y-82778571D01*
D11*
X118020000Y-91721904D02*
X117972380Y-91817142D01*
X117972380Y-91960000D01*
X118020000Y-92102857D01*
X118115238Y-92198095D01*
X118210476Y-92245714D01*
X118400952Y-92293333D01*
X118543809Y-92293333D01*
X118734285Y-92245714D01*
X118829523Y-92198095D01*
X118924761Y-92102857D01*
X118972380Y-91960000D01*
X118972380Y-91864761D01*
X118924761Y-91721904D01*
X118877142Y-91674285D01*
X118543809Y-91674285D01*
X118543809Y-91864761D01*
X118972380Y-91245714D02*
X117972380Y-91245714D01*
X118972380Y-90674285D01*
X117972380Y-90674285D01*
X118972380Y-90198095D02*
X117972380Y-90198095D01*
X117972380Y-89960000D01*
X118020000Y-89817142D01*
X118115238Y-89721904D01*
X118210476Y-89674285D01*
X118400952Y-89626666D01*
X118543809Y-89626666D01*
X118734285Y-89674285D01*
X118829523Y-89721904D01*
X118924761Y-89817142D01*
X118972380Y-89960000D01*
X118972380Y-90198095D01*
X112678095Y-79620000D02*
X112582857Y-79572380D01*
X112440000Y-79572380D01*
X112297142Y-79620000D01*
X112201904Y-79715238D01*
X112154285Y-79810476D01*
X112106666Y-80000952D01*
X112106666Y-80143809D01*
X112154285Y-80334285D01*
X112201904Y-80429523D01*
X112297142Y-80524761D01*
X112440000Y-80572380D01*
X112535238Y-80572380D01*
X112678095Y-80524761D01*
X112725714Y-80477142D01*
X112725714Y-80143809D01*
X112535238Y-80143809D01*
X113154285Y-80572380D02*
X113154285Y-79572380D01*
X113725714Y-80572380D01*
X113725714Y-79572380D01*
X114201904Y-80572380D02*
X114201904Y-79572380D01*
X114440000Y-79572380D01*
X114582857Y-79620000D01*
X114678095Y-79715238D01*
X114725714Y-79810476D01*
X114773333Y-80000952D01*
X114773333Y-80143809D01*
X114725714Y-80334285D01*
X114678095Y-80429523D01*
X114582857Y-80524761D01*
X114440000Y-80572380D01*
X114201904Y-80572380D01*
D10*
X114257142Y-90842857D02*
X113757142Y-90842857D01*
X113757142Y-91628571D02*
X113757142Y-90128571D01*
X114471428Y-90128571D01*
X115685714Y-91628571D02*
X115685714Y-90842857D01*
X115614285Y-90700000D01*
X115471428Y-90628571D01*
X115185714Y-90628571D01*
X115042857Y-90700000D01*
X115685714Y-91557142D02*
X115542857Y-91628571D01*
X115185714Y-91628571D01*
X115042857Y-91557142D01*
X114971428Y-91414285D01*
X114971428Y-91271428D01*
X115042857Y-91128571D01*
X115185714Y-91057142D01*
X115542857Y-91057142D01*
X115685714Y-90985714D01*
X116400000Y-90628571D02*
X116400000Y-91628571D01*
X116400000Y-90771428D02*
X116471428Y-90700000D01*
X116614285Y-90628571D01*
X116828571Y-90628571D01*
X116971428Y-90700000D01*
X117042857Y-90842857D01*
X117042857Y-91628571D01*
X114471428Y-94178571D02*
X113614285Y-94178571D01*
X114042857Y-94178571D02*
X114042857Y-92678571D01*
X113900000Y-92892857D01*
X113757142Y-93035714D01*
X113614285Y-93107142D01*
X115042857Y-92821428D02*
X115114285Y-92750000D01*
X115257142Y-92678571D01*
X115614285Y-92678571D01*
X115757142Y-92750000D01*
X115828571Y-92821428D01*
X115900000Y-92964285D01*
X115900000Y-93107142D01*
X115828571Y-93321428D01*
X114971428Y-94178571D01*
X115900000Y-94178571D01*
X116328571Y-92678571D02*
X116828571Y-94178571D01*
X117328571Y-92678571D01*
X113900000Y-96728571D02*
X113042857Y-96728571D01*
X113471428Y-96728571D02*
X113471428Y-95228571D01*
X113328571Y-95442857D01*
X113185714Y-95585714D01*
X113042857Y-95657142D01*
X114542857Y-96585714D02*
X114614285Y-96657142D01*
X114542857Y-96728571D01*
X114471428Y-96657142D01*
X114542857Y-96585714D01*
X114542857Y-96728571D01*
X115971428Y-95228571D02*
X115257142Y-95228571D01*
X115185714Y-95942857D01*
X115257142Y-95871428D01*
X115400000Y-95800000D01*
X115757142Y-95800000D01*
X115900000Y-95871428D01*
X115971428Y-95942857D01*
X116042857Y-96085714D01*
X116042857Y-96442857D01*
X115971428Y-96585714D01*
X115900000Y-96657142D01*
X115757142Y-96728571D01*
X115400000Y-96728571D01*
X115257142Y-96657142D01*
X115185714Y-96585714D01*
X116542857Y-95228571D02*
X116900000Y-96728571D01*
X117185714Y-95657142D01*
X117471428Y-96728571D01*
X117828571Y-95228571D01*
D12*
X275770000Y-105080000D02*
X275770000Y-3480000D01*
X274170000Y-88030000D02*
X261140000Y-88030000D01*
X239935714Y-29802380D02*
X239364285Y-29802380D01*
X239650000Y-29802380D02*
X239650000Y-28802380D01*
X239554761Y-28945238D01*
X239459523Y-29040476D01*
X239364285Y-29088095D01*
X224185714Y-44302380D02*
X223614285Y-44302380D01*
X223900000Y-44302380D02*
X223900000Y-43302380D01*
X223804761Y-43445238D01*
X223709523Y-43540476D01*
X223614285Y-43588095D01*
X268135714Y-80952380D02*
X267564285Y-80952380D01*
X267850000Y-80952380D02*
X267850000Y-79952380D01*
X267754761Y-80095238D01*
X267659523Y-80190476D01*
X267564285Y-80238095D01*
X176485714Y-83602380D02*
X175914285Y-83602380D01*
X176200000Y-83602380D02*
X176200000Y-82602380D01*
X176104761Y-82745238D01*
X176009523Y-82840476D01*
X175914285Y-82888095D01*
X162935714Y-83502380D02*
X162364285Y-83502380D01*
X162650000Y-83502380D02*
X162650000Y-82502380D01*
X162554761Y-82645238D01*
X162459523Y-82740476D01*
X162364285Y-82788095D01*
X149935714Y-83552380D02*
X149364285Y-83552380D01*
X149650000Y-83552380D02*
X149650000Y-82552380D01*
X149554761Y-82695238D01*
X149459523Y-82790476D01*
X149364285Y-82838095D01*
X132535714Y-84052380D02*
X131964285Y-84052380D01*
X132250000Y-84052380D02*
X132250000Y-83052380D01*
X132154761Y-83195238D01*
X132059523Y-83290476D01*
X131964285Y-83338095D01*
D11*
X220631428Y-87605714D02*
X220631428Y-86843809D01*
X221012380Y-87224761D02*
X220250476Y-87224761D01*
X220012380Y-85891428D02*
X220012380Y-86367619D01*
X220488571Y-86415238D01*
X220440952Y-86367619D01*
X220393333Y-86272380D01*
X220393333Y-86034285D01*
X220440952Y-85939047D01*
X220488571Y-85891428D01*
X220583809Y-85843809D01*
X220821904Y-85843809D01*
X220917142Y-85891428D01*
X220964761Y-85939047D01*
X221012380Y-86034285D01*
X221012380Y-86272380D01*
X220964761Y-86367619D01*
X220917142Y-86415238D01*
X220012380Y-85558095D02*
X221012380Y-85224761D01*
X220012380Y-84891428D01*
X225620000Y-92021904D02*
X225572380Y-92117142D01*
X225572380Y-92260000D01*
X225620000Y-92402857D01*
X225715238Y-92498095D01*
X225810476Y-92545714D01*
X226000952Y-92593333D01*
X226143809Y-92593333D01*
X226334285Y-92545714D01*
X226429523Y-92498095D01*
X226524761Y-92402857D01*
X226572380Y-92260000D01*
X226572380Y-92164761D01*
X226524761Y-92021904D01*
X226477142Y-91974285D01*
X226143809Y-91974285D01*
X226143809Y-92164761D01*
X226572380Y-91545714D02*
X225572380Y-91545714D01*
X226572380Y-90974285D01*
X225572380Y-90974285D01*
X226572380Y-90498095D02*
X225572380Y-90498095D01*
X225572380Y-90260000D01*
X225620000Y-90117142D01*
X225715238Y-90021904D01*
X225810476Y-89974285D01*
X226000952Y-89926666D01*
X226143809Y-89926666D01*
X226334285Y-89974285D01*
X226429523Y-90021904D01*
X226524761Y-90117142D01*
X226572380Y-90260000D01*
X226572380Y-90498095D01*
X215220000Y-92021904D02*
X215172380Y-92117142D01*
X215172380Y-92260000D01*
X215220000Y-92402857D01*
X215315238Y-92498095D01*
X215410476Y-92545714D01*
X215600952Y-92593333D01*
X215743809Y-92593333D01*
X215934285Y-92545714D01*
X216029523Y-92498095D01*
X216124761Y-92402857D01*
X216172380Y-92260000D01*
X216172380Y-92164761D01*
X216124761Y-92021904D01*
X216077142Y-91974285D01*
X215743809Y-91974285D01*
X215743809Y-92164761D01*
X216172380Y-91545714D02*
X215172380Y-91545714D01*
X216172380Y-90974285D01*
X215172380Y-90974285D01*
X216172380Y-90498095D02*
X215172380Y-90498095D01*
X215172380Y-90260000D01*
X215220000Y-90117142D01*
X215315238Y-90021904D01*
X215410476Y-89974285D01*
X215600952Y-89926666D01*
X215743809Y-89926666D01*
X215934285Y-89974285D01*
X216029523Y-90021904D01*
X216124761Y-90117142D01*
X216172380Y-90260000D01*
X216172380Y-90498095D01*
X206200000Y-83261904D02*
X206152380Y-83357142D01*
X206152380Y-83500000D01*
X206200000Y-83642857D01*
X206295238Y-83738095D01*
X206390476Y-83785714D01*
X206580952Y-83833333D01*
X206723809Y-83833333D01*
X206914285Y-83785714D01*
X207009523Y-83738095D01*
X207104761Y-83642857D01*
X207152380Y-83500000D01*
X207152380Y-83404761D01*
X207104761Y-83261904D01*
X207057142Y-83214285D01*
X206723809Y-83214285D01*
X206723809Y-83404761D01*
X207152380Y-82785714D02*
X206152380Y-82785714D01*
X207152380Y-82214285D01*
X206152380Y-82214285D01*
X207152380Y-81738095D02*
X206152380Y-81738095D01*
X206152380Y-81500000D01*
X206200000Y-81357142D01*
X206295238Y-81261904D01*
X206390476Y-81214285D01*
X206580952Y-81166666D01*
X206723809Y-81166666D01*
X206914285Y-81214285D01*
X207009523Y-81261904D01*
X207104761Y-81357142D01*
X207152380Y-81500000D01*
X207152380Y-81738095D01*
X201771428Y-84661904D02*
X201771428Y-83900000D01*
X202152380Y-84280952D02*
X201390476Y-84280952D01*
X201152380Y-83519047D02*
X201152380Y-82900000D01*
X201533333Y-83233333D01*
X201533333Y-83090476D01*
X201580952Y-82995238D01*
X201628571Y-82947619D01*
X201723809Y-82900000D01*
X201961904Y-82900000D01*
X202057142Y-82947619D01*
X202104761Y-82995238D01*
X202152380Y-83090476D01*
X202152380Y-83376190D01*
X202104761Y-83471428D01*
X202057142Y-83519047D01*
X201152380Y-82614285D02*
X202152380Y-82280952D01*
X201152380Y-81947619D01*
X201152380Y-81709523D02*
X201152380Y-81090476D01*
X201533333Y-81423809D01*
X201533333Y-81280952D01*
X201580952Y-81185714D01*
X201628571Y-81138095D01*
X201723809Y-81090476D01*
X201961904Y-81090476D01*
X202057142Y-81138095D01*
X202104761Y-81185714D01*
X202152380Y-81280952D01*
X202152380Y-81566666D01*
X202104761Y-81661904D01*
X202057142Y-81709523D01*
D10*
X119735714Y-75900000D02*
X119807142Y-75971428D01*
X119878571Y-76185714D01*
X119878571Y-76328571D01*
X119807142Y-76542857D01*
X119664285Y-76685714D01*
X119521428Y-76757142D01*
X119235714Y-76828571D01*
X119021428Y-76828571D01*
X118735714Y-76757142D01*
X118592857Y-76685714D01*
X118450000Y-76542857D01*
X118378571Y-76328571D01*
X118378571Y-76185714D01*
X118450000Y-75971428D01*
X118521428Y-75900000D01*
X119878571Y-75257142D02*
X118378571Y-75257142D01*
X118378571Y-74685714D01*
X118450000Y-74542857D01*
X118521428Y-74471428D01*
X118664285Y-74400000D01*
X118878571Y-74400000D01*
X119021428Y-74471428D01*
X119092857Y-74542857D01*
X119164285Y-74685714D01*
X119164285Y-75257142D01*
X119878571Y-73042857D02*
X119878571Y-73757142D01*
X118378571Y-73757142D01*
X119878571Y-72542857D02*
X118378571Y-72542857D01*
X118378571Y-72185714D01*
X118450000Y-71971428D01*
X118592857Y-71828571D01*
X118735714Y-71757142D01*
X119021428Y-71685714D01*
X119235714Y-71685714D01*
X119521428Y-71757142D01*
X119664285Y-71828571D01*
X119807142Y-71971428D01*
X119878571Y-72185714D01*
X119878571Y-72542857D01*
X118378571Y-69471428D02*
X119450000Y-69471428D01*
X119664285Y-69542857D01*
X119807142Y-69685714D01*
X119878571Y-69900000D01*
X119878571Y-70042857D01*
X118378571Y-68971428D02*
X118378571Y-68114285D01*
X119878571Y-68542857D02*
X118378571Y-68542857D01*
X119450000Y-67685714D02*
X119450000Y-66971428D01*
X119878571Y-67828571D02*
X118378571Y-67328571D01*
X119878571Y-66828571D01*
X118450000Y-65542857D02*
X118378571Y-65685714D01*
X118378571Y-65900000D01*
X118450000Y-66114285D01*
X118592857Y-66257142D01*
X118735714Y-66328571D01*
X119021428Y-66400000D01*
X119235714Y-66400000D01*
X119521428Y-66328571D01*
X119664285Y-66257142D01*
X119807142Y-66114285D01*
X119878571Y-65900000D01*
X119878571Y-65757142D01*
X119807142Y-65542857D01*
X119735714Y-65471428D01*
X119235714Y-65471428D01*
X119235714Y-65757142D01*
X228137142Y-91422857D02*
X227637142Y-91422857D01*
X227637142Y-92208571D02*
X227637142Y-90708571D01*
X228351428Y-90708571D01*
X229565714Y-92208571D02*
X229565714Y-91422857D01*
X229494285Y-91280000D01*
X229351428Y-91208571D01*
X229065714Y-91208571D01*
X228922857Y-91280000D01*
X229565714Y-92137142D02*
X229422857Y-92208571D01*
X229065714Y-92208571D01*
X228922857Y-92137142D01*
X228851428Y-91994285D01*
X228851428Y-91851428D01*
X228922857Y-91708571D01*
X229065714Y-91637142D01*
X229422857Y-91637142D01*
X229565714Y-91565714D01*
X230280000Y-91208571D02*
X230280000Y-92208571D01*
X230280000Y-91351428D02*
X230351428Y-91280000D01*
X230494285Y-91208571D01*
X230708571Y-91208571D01*
X230851428Y-91280000D01*
X230922857Y-91422857D01*
X230922857Y-92208571D01*
X228994285Y-93258571D02*
X228280000Y-93258571D01*
X228208571Y-93972857D01*
X228280000Y-93901428D01*
X228422857Y-93830000D01*
X228780000Y-93830000D01*
X228922857Y-93901428D01*
X228994285Y-93972857D01*
X229065714Y-94115714D01*
X229065714Y-94472857D01*
X228994285Y-94615714D01*
X228922857Y-94687142D01*
X228780000Y-94758571D01*
X228422857Y-94758571D01*
X228280000Y-94687142D01*
X228208571Y-94615714D01*
X229494285Y-93258571D02*
X229994285Y-94758571D01*
X230494285Y-93258571D01*
X228851428Y-97308571D02*
X227994285Y-97308571D01*
X228422857Y-97308571D02*
X228422857Y-95808571D01*
X228280000Y-96022857D01*
X228137142Y-96165714D01*
X227994285Y-96237142D01*
X229351428Y-95808571D02*
X229708571Y-97308571D01*
X229994285Y-96237142D01*
X230280000Y-97308571D01*
X230637142Y-95808571D01*
D12*
X211270000Y-74450000D02*
X211270000Y-23650000D01*
D10*
X113471428Y-12378571D02*
X113471428Y-10878571D01*
X114328571Y-12378571D01*
X114328571Y-10878571D01*
X115685714Y-11378571D02*
X115685714Y-12378571D01*
X115042857Y-11378571D02*
X115042857Y-12164285D01*
X115114285Y-12307142D01*
X115257142Y-12378571D01*
X115471428Y-12378571D01*
X115614285Y-12307142D01*
X115685714Y-12235714D01*
X116900000Y-11592857D02*
X117114285Y-11664285D01*
X117185714Y-11735714D01*
X117257142Y-11878571D01*
X117257142Y-12092857D01*
X117185714Y-12235714D01*
X117114285Y-12307142D01*
X116971428Y-12378571D01*
X116400000Y-12378571D01*
X116400000Y-10878571D01*
X116900000Y-10878571D01*
X117042857Y-10950000D01*
X117114285Y-11021428D01*
X117185714Y-11164285D01*
X117185714Y-11307142D01*
X117114285Y-11450000D01*
X117042857Y-11521428D01*
X116900000Y-11592857D01*
X116400000Y-11592857D01*
X118542857Y-11378571D02*
X118542857Y-12378571D01*
X117900000Y-11378571D02*
X117900000Y-12164285D01*
X117971428Y-12307142D01*
X118114285Y-12378571D01*
X118328571Y-12378571D01*
X118471428Y-12307142D01*
X118542857Y-12235714D01*
X119185714Y-12307142D02*
X119328571Y-12378571D01*
X119614285Y-12378571D01*
X119757142Y-12307142D01*
X119828571Y-12164285D01*
X119828571Y-12092857D01*
X119757142Y-11950000D01*
X119614285Y-11878571D01*
X119400000Y-11878571D01*
X119257142Y-11807142D01*
X119185714Y-11664285D01*
X119185714Y-11592857D01*
X119257142Y-11450000D01*
X119400000Y-11378571D01*
X119614285Y-11378571D01*
X119757142Y-11450000D01*
X120971428Y-11592857D02*
X120471428Y-11592857D01*
X120471428Y-12378571D02*
X120471428Y-10878571D01*
X121185714Y-10878571D01*
X121757142Y-12378571D02*
X121757142Y-10878571D01*
X122328571Y-10878571D01*
X122471428Y-10950000D01*
X122542857Y-11021428D01*
X122614285Y-11164285D01*
X122614285Y-11378571D01*
X122542857Y-11521428D01*
X122471428Y-11592857D01*
X122328571Y-11664285D01*
X121757142Y-11664285D01*
X124042857Y-10950000D02*
X123900000Y-10878571D01*
X123685714Y-10878571D01*
X123471428Y-10950000D01*
X123328571Y-11092857D01*
X123257142Y-11235714D01*
X123185714Y-11521428D01*
X123185714Y-11735714D01*
X123257142Y-12021428D01*
X123328571Y-12164285D01*
X123471428Y-12307142D01*
X123685714Y-12378571D01*
X123828571Y-12378571D01*
X124042857Y-12307142D01*
X124114285Y-12235714D01*
X124114285Y-11735714D01*
X123828571Y-11735714D01*
X124685714Y-11950000D02*
X125400000Y-11950000D01*
X124542857Y-12378571D02*
X125042857Y-10878571D01*
X125542857Y-12378571D01*
X126971428Y-10878571D02*
X127471428Y-12378571D01*
X127971428Y-10878571D01*
X129257142Y-12378571D02*
X128400000Y-12378571D01*
X128828571Y-12378571D02*
X128828571Y-10878571D01*
X128685714Y-11092857D01*
X128542857Y-11235714D01*
X128400000Y-11307142D01*
X129900000Y-12235714D02*
X129971428Y-12307142D01*
X129900000Y-12378571D01*
X129828571Y-12307142D01*
X129900000Y-12235714D01*
X129900000Y-12378571D01*
X130900000Y-10878571D02*
X131042857Y-10878571D01*
X131185714Y-10950000D01*
X131257142Y-11021428D01*
X131328571Y-11164285D01*
X131400000Y-11450000D01*
X131400000Y-11807142D01*
X131328571Y-12092857D01*
X131257142Y-12235714D01*
X131185714Y-12307142D01*
X131042857Y-12378571D01*
X130900000Y-12378571D01*
X130757142Y-12307142D01*
X130685714Y-12235714D01*
X130614285Y-12092857D01*
X130542857Y-11807142D01*
X130542857Y-11450000D01*
X130614285Y-11164285D01*
X130685714Y-11021428D01*
X130757142Y-10950000D01*
X130900000Y-10878571D01*
X268207142Y-84578571D02*
X268207142Y-85792857D01*
X268278571Y-85935714D01*
X268350000Y-86007142D01*
X268492857Y-86078571D01*
X268778571Y-86078571D01*
X268921428Y-86007142D01*
X268992857Y-85935714D01*
X269064285Y-85792857D01*
X269064285Y-84578571D01*
X269707142Y-86007142D02*
X269921428Y-86078571D01*
X270278571Y-86078571D01*
X270421428Y-86007142D01*
X270492857Y-85935714D01*
X270564285Y-85792857D01*
X270564285Y-85650000D01*
X270492857Y-85507142D01*
X270421428Y-85435714D01*
X270278571Y-85364285D01*
X269992857Y-85292857D01*
X269850000Y-85221428D01*
X269778571Y-85150000D01*
X269707142Y-85007142D01*
X269707142Y-84864285D01*
X269778571Y-84721428D01*
X269850000Y-84650000D01*
X269992857Y-84578571D01*
X270350000Y-84578571D01*
X270564285Y-84650000D01*
X271707142Y-85292857D02*
X271921428Y-85364285D01*
X271992857Y-85435714D01*
X272064285Y-85578571D01*
X272064285Y-85792857D01*
X271992857Y-85935714D01*
X271921428Y-86007142D01*
X271778571Y-86078571D01*
X271207142Y-86078571D01*
X271207142Y-84578571D01*
X271707142Y-84578571D01*
X271850000Y-84650000D01*
X271921428Y-84721428D01*
X271992857Y-84864285D01*
X271992857Y-85007142D01*
X271921428Y-85150000D01*
X271850000Y-85221428D01*
X271707142Y-85292857D01*
X271207142Y-85292857D01*
X263117142Y-73178571D02*
X263117142Y-71678571D01*
X263117142Y-72392857D02*
X263974285Y-72392857D01*
X263974285Y-73178571D02*
X263974285Y-71678571D01*
X264688571Y-73178571D02*
X264688571Y-71678571D01*
X265045714Y-71678571D01*
X265260000Y-71750000D01*
X265402857Y-71892857D01*
X265474285Y-72035714D01*
X265545714Y-72321428D01*
X265545714Y-72535714D01*
X265474285Y-72821428D01*
X265402857Y-72964285D01*
X265260000Y-73107142D01*
X265045714Y-73178571D01*
X264688571Y-73178571D01*
X266188571Y-73178571D02*
X266188571Y-71678571D01*
X266688571Y-72750000D01*
X267188571Y-71678571D01*
X267188571Y-73178571D01*
X267902857Y-73178571D02*
X267902857Y-71678571D01*
X256827142Y-49578571D02*
X257327142Y-51078571D01*
X257827142Y-49578571D01*
X259112857Y-49650000D02*
X258970000Y-49578571D01*
X258755714Y-49578571D01*
X258541428Y-49650000D01*
X258398571Y-49792857D01*
X258327142Y-49935714D01*
X258255714Y-50221428D01*
X258255714Y-50435714D01*
X258327142Y-50721428D01*
X258398571Y-50864285D01*
X258541428Y-51007142D01*
X258755714Y-51078571D01*
X258898571Y-51078571D01*
X259112857Y-51007142D01*
X259184285Y-50935714D01*
X259184285Y-50435714D01*
X258898571Y-50435714D01*
X259755714Y-50650000D02*
X260470000Y-50650000D01*
X259612857Y-51078571D02*
X260112857Y-49578571D01*
X260612857Y-51078571D01*
X191318571Y-72428571D02*
X192318571Y-72428571D01*
X191318571Y-73928571D01*
X192318571Y-73928571D01*
X192675714Y-72428571D02*
X193532857Y-72428571D01*
X193104285Y-73928571D02*
X193104285Y-72428571D01*
X194604285Y-73857142D02*
X194461428Y-73928571D01*
X194175714Y-73928571D01*
X194032857Y-73857142D01*
X193961428Y-73714285D01*
X193961428Y-73142857D01*
X194032857Y-73000000D01*
X194175714Y-72928571D01*
X194461428Y-72928571D01*
X194604285Y-73000000D01*
X194675714Y-73142857D01*
X194675714Y-73285714D01*
X193961428Y-73428571D01*
X195175714Y-73928571D02*
X195961428Y-72928571D01*
X195175714Y-72928571D02*
X195961428Y-73928571D01*
X197604285Y-72571428D02*
X197675714Y-72500000D01*
X197818571Y-72428571D01*
X198175714Y-72428571D01*
X198318571Y-72500000D01*
X198390000Y-72571428D01*
X198461428Y-72714285D01*
X198461428Y-72857142D01*
X198390000Y-73071428D01*
X197532857Y-73928571D01*
X198461428Y-73928571D01*
X199104285Y-73785714D02*
X199175714Y-73857142D01*
X199104285Y-73928571D01*
X199032857Y-73857142D01*
X199104285Y-73785714D01*
X199104285Y-73928571D01*
X200604285Y-73928571D02*
X199747142Y-73928571D01*
X200175714Y-73928571D02*
X200175714Y-72428571D01*
X200032857Y-72642857D01*
X199890000Y-72785714D01*
X199747142Y-72857142D01*
X201104285Y-72428571D02*
X202032857Y-72428571D01*
X201532857Y-73000000D01*
X201747142Y-73000000D01*
X201890000Y-73071428D01*
X201961428Y-73142857D01*
X202032857Y-73285714D01*
X202032857Y-73642857D01*
X201961428Y-73785714D01*
X201890000Y-73857142D01*
X201747142Y-73928571D01*
X201318571Y-73928571D01*
X201175714Y-73857142D01*
X201104285Y-73785714D01*
X204032857Y-73928571D02*
X203890000Y-73857142D01*
X203818571Y-73785714D01*
X203747142Y-73642857D01*
X203747142Y-73214285D01*
X203818571Y-73071428D01*
X203890000Y-73000000D01*
X204032857Y-72928571D01*
X204247142Y-72928571D01*
X204390000Y-73000000D01*
X204461428Y-73071428D01*
X204532857Y-73214285D01*
X204532857Y-73642857D01*
X204461428Y-73785714D01*
X204390000Y-73857142D01*
X204247142Y-73928571D01*
X204032857Y-73928571D01*
X205818571Y-72928571D02*
X205818571Y-73928571D01*
X205175714Y-72928571D02*
X205175714Y-73714285D01*
X205247142Y-73857142D01*
X205390000Y-73928571D01*
X205604285Y-73928571D01*
X205747142Y-73857142D01*
X205818571Y-73785714D01*
X206318571Y-72928571D02*
X206890000Y-72928571D01*
X206532857Y-72428571D02*
X206532857Y-73714285D01*
X206604285Y-73857142D01*
X206747142Y-73928571D01*
X206890000Y-73928571D01*
X207604285Y-73928571D02*
X207461428Y-73857142D01*
X207390000Y-73714285D01*
X207390000Y-72428571D01*
X208175714Y-73928571D02*
X208175714Y-72928571D01*
X208175714Y-72428571D02*
X208104285Y-72500000D01*
X208175714Y-72571428D01*
X208247142Y-72500000D01*
X208175714Y-72428571D01*
X208175714Y-72571428D01*
X208890000Y-72928571D02*
X208890000Y-73928571D01*
X208890000Y-73071428D02*
X208961428Y-73000000D01*
X209104285Y-72928571D01*
X209318571Y-72928571D01*
X209461428Y-73000000D01*
X209532857Y-73142857D01*
X209532857Y-73928571D01*
X210818571Y-73857142D02*
X210675714Y-73928571D01*
X210390000Y-73928571D01*
X210247142Y-73857142D01*
X210175714Y-73714285D01*
X210175714Y-73142857D01*
X210247142Y-73000000D01*
X210390000Y-72928571D01*
X210675714Y-72928571D01*
X210818571Y-73000000D01*
X210890000Y-73142857D01*
X210890000Y-73285714D01*
X210175714Y-73428571D01*
X246027142Y-77793571D02*
X246027142Y-79007857D01*
X246098571Y-79150714D01*
X246170000Y-79222142D01*
X246312857Y-79293571D01*
X246598571Y-79293571D01*
X246741428Y-79222142D01*
X246812857Y-79150714D01*
X246884285Y-79007857D01*
X246884285Y-77793571D01*
X247527142Y-79222142D02*
X247741428Y-79293571D01*
X248098571Y-79293571D01*
X248241428Y-79222142D01*
X248312857Y-79150714D01*
X248384285Y-79007857D01*
X248384285Y-78865000D01*
X248312857Y-78722142D01*
X248241428Y-78650714D01*
X248098571Y-78579285D01*
X247812857Y-78507857D01*
X247670000Y-78436428D01*
X247598571Y-78365000D01*
X247527142Y-78222142D01*
X247527142Y-78079285D01*
X247598571Y-77936428D01*
X247670000Y-77865000D01*
X247812857Y-77793571D01*
X248170000Y-77793571D01*
X248384285Y-77865000D01*
X249527142Y-78507857D02*
X249741428Y-78579285D01*
X249812857Y-78650714D01*
X249884285Y-78793571D01*
X249884285Y-79007857D01*
X249812857Y-79150714D01*
X249741428Y-79222142D01*
X249598571Y-79293571D01*
X249027142Y-79293571D01*
X249027142Y-77793571D01*
X249527142Y-77793571D01*
X249670000Y-77865000D01*
X249741428Y-77936428D01*
X249812857Y-78079285D01*
X249812857Y-78222142D01*
X249741428Y-78365000D01*
X249670000Y-78436428D01*
X249527142Y-78507857D01*
X249027142Y-78507857D01*
X246348571Y-80843571D02*
X246348571Y-82343571D01*
X246348571Y-80915000D02*
X246491428Y-80843571D01*
X246777142Y-80843571D01*
X246920000Y-80915000D01*
X246991428Y-80986428D01*
X247062857Y-81129285D01*
X247062857Y-81557857D01*
X246991428Y-81700714D01*
X246920000Y-81772142D01*
X246777142Y-81843571D01*
X246491428Y-81843571D01*
X246348571Y-81772142D01*
X247562857Y-80843571D02*
X247848571Y-81843571D01*
X248134285Y-81129285D01*
X248420000Y-81843571D01*
X248705714Y-80843571D01*
X249277142Y-81843571D02*
X249277142Y-80843571D01*
X249277142Y-81129285D02*
X249348571Y-80986428D01*
X249420000Y-80915000D01*
X249562857Y-80843571D01*
X249705714Y-80843571D01*
X257717142Y-71303571D02*
X257717142Y-72517857D01*
X257788571Y-72660714D01*
X257860000Y-72732142D01*
X258002857Y-72803571D01*
X258288571Y-72803571D01*
X258431428Y-72732142D01*
X258502857Y-72660714D01*
X258574285Y-72517857D01*
X258574285Y-71303571D01*
X259217142Y-72732142D02*
X259431428Y-72803571D01*
X259788571Y-72803571D01*
X259931428Y-72732142D01*
X260002857Y-72660714D01*
X260074285Y-72517857D01*
X260074285Y-72375000D01*
X260002857Y-72232142D01*
X259931428Y-72160714D01*
X259788571Y-72089285D01*
X259502857Y-72017857D01*
X259360000Y-71946428D01*
X259288571Y-71875000D01*
X259217142Y-71732142D01*
X259217142Y-71589285D01*
X259288571Y-71446428D01*
X259360000Y-71375000D01*
X259502857Y-71303571D01*
X259860000Y-71303571D01*
X260074285Y-71375000D01*
X261217142Y-72017857D02*
X261431428Y-72089285D01*
X261502857Y-72160714D01*
X261574285Y-72303571D01*
X261574285Y-72517857D01*
X261502857Y-72660714D01*
X261431428Y-72732142D01*
X261288571Y-72803571D01*
X260717142Y-72803571D01*
X260717142Y-71303571D01*
X261217142Y-71303571D01*
X261360000Y-71375000D01*
X261431428Y-71446428D01*
X261502857Y-71589285D01*
X261502857Y-71732142D01*
X261431428Y-71875000D01*
X261360000Y-71946428D01*
X261217142Y-72017857D01*
X260717142Y-72017857D01*
X258038571Y-75353571D02*
X258038571Y-73853571D01*
X259824285Y-73782142D02*
X258538571Y-75710714D01*
X260610000Y-73853571D02*
X260895714Y-73853571D01*
X261038571Y-73925000D01*
X261181428Y-74067857D01*
X261252857Y-74353571D01*
X261252857Y-74853571D01*
X261181428Y-75139285D01*
X261038571Y-75282142D01*
X260895714Y-75353571D01*
X260610000Y-75353571D01*
X260467142Y-75282142D01*
X260324285Y-75139285D01*
X260252857Y-74853571D01*
X260252857Y-74353571D01*
X260324285Y-74067857D01*
X260467142Y-73925000D01*
X260610000Y-73853571D01*
X237997142Y-24163571D02*
X238497142Y-25663571D01*
X238997142Y-24163571D01*
X240282857Y-24235000D02*
X240140000Y-24163571D01*
X239925714Y-24163571D01*
X239711428Y-24235000D01*
X239568571Y-24377857D01*
X239497142Y-24520714D01*
X239425714Y-24806428D01*
X239425714Y-25020714D01*
X239497142Y-25306428D01*
X239568571Y-25449285D01*
X239711428Y-25592142D01*
X239925714Y-25663571D01*
X240068571Y-25663571D01*
X240282857Y-25592142D01*
X240354285Y-25520714D01*
X240354285Y-25020714D01*
X240068571Y-25020714D01*
X240925714Y-25235000D02*
X241640000Y-25235000D01*
X240782857Y-25663571D02*
X241282857Y-24163571D01*
X241782857Y-25663571D01*
X238961428Y-28142142D02*
X238818571Y-28213571D01*
X238532857Y-28213571D01*
X238390000Y-28142142D01*
X238318571Y-28070714D01*
X238247142Y-27927857D01*
X238247142Y-27499285D01*
X238318571Y-27356428D01*
X238390000Y-27285000D01*
X238532857Y-27213571D01*
X238818571Y-27213571D01*
X238961428Y-27285000D01*
X239390000Y-27213571D02*
X239961428Y-27213571D01*
X239604285Y-26713571D02*
X239604285Y-27999285D01*
X239675714Y-28142142D01*
X239818571Y-28213571D01*
X239961428Y-28213571D01*
X240461428Y-28213571D02*
X240461428Y-27213571D01*
X240461428Y-27499285D02*
X240532857Y-27356428D01*
X240604285Y-27285000D01*
X240747142Y-27213571D01*
X240890000Y-27213571D01*
X241604285Y-28213571D02*
X241461428Y-28142142D01*
X241390000Y-27999285D01*
X241390000Y-26713571D01*
X226107142Y-55003571D02*
X226107142Y-53503571D01*
X226107142Y-54217857D02*
X226964285Y-54217857D01*
X226964285Y-55003571D02*
X226964285Y-53503571D01*
X227678571Y-55003571D02*
X227678571Y-53503571D01*
X228035714Y-53503571D01*
X228250000Y-53575000D01*
X228392857Y-53717857D01*
X228464285Y-53860714D01*
X228535714Y-54146428D01*
X228535714Y-54360714D01*
X228464285Y-54646428D01*
X228392857Y-54789285D01*
X228250000Y-54932142D01*
X228035714Y-55003571D01*
X227678571Y-55003571D01*
X229178571Y-55003571D02*
X229178571Y-53503571D01*
X229678571Y-54575000D01*
X230178571Y-53503571D01*
X230178571Y-55003571D01*
X230892857Y-55003571D02*
X230892857Y-53503571D01*
X227571428Y-57482142D02*
X227428571Y-57553571D01*
X227142857Y-57553571D01*
X227000000Y-57482142D01*
X226928571Y-57410714D01*
X226857142Y-57267857D01*
X226857142Y-56839285D01*
X226928571Y-56696428D01*
X227000000Y-56625000D01*
X227142857Y-56553571D01*
X227428571Y-56553571D01*
X227571428Y-56625000D01*
X228000000Y-56553571D02*
X228571428Y-56553571D01*
X228214285Y-56053571D02*
X228214285Y-57339285D01*
X228285714Y-57482142D01*
X228428571Y-57553571D01*
X228571428Y-57553571D01*
X229071428Y-57553571D02*
X229071428Y-56553571D01*
X229071428Y-56839285D02*
X229142857Y-56696428D01*
X229214285Y-56625000D01*
X229357142Y-56553571D01*
X229500000Y-56553571D01*
X230214285Y-57553571D02*
X230071428Y-57482142D01*
X230000000Y-57339285D01*
X230000000Y-56053571D01*
X153411428Y-17308571D02*
X152697142Y-17308571D01*
X152697142Y-15808571D01*
X153911428Y-16522857D02*
X154411428Y-16522857D01*
X154625714Y-17308571D02*
X153911428Y-17308571D01*
X153911428Y-15808571D01*
X154625714Y-15808571D01*
X155268571Y-17308571D02*
X155268571Y-15808571D01*
X155625714Y-15808571D01*
X155840000Y-15880000D01*
X155982857Y-16022857D01*
X156054285Y-16165714D01*
X156125714Y-16451428D01*
X156125714Y-16665714D01*
X156054285Y-16951428D01*
X155982857Y-17094285D01*
X155840000Y-17237142D01*
X155625714Y-17308571D01*
X155268571Y-17308571D01*
X158197142Y-15808571D02*
X158340000Y-15808571D01*
X158482857Y-15880000D01*
X158554285Y-15951428D01*
X158625714Y-16094285D01*
X158697142Y-16380000D01*
X158697142Y-16737142D01*
X158625714Y-17022857D01*
X158554285Y-17165714D01*
X158482857Y-17237142D01*
X158340000Y-17308571D01*
X158197142Y-17308571D01*
X158054285Y-17237142D01*
X157982857Y-17165714D01*
X157911428Y-17022857D01*
X157840000Y-16737142D01*
X157840000Y-16380000D01*
X157911428Y-16094285D01*
X157982857Y-15951428D01*
X158054285Y-15880000D01*
X158197142Y-15808571D01*
X159340000Y-17165714D02*
X159411428Y-17237142D01*
X159340000Y-17308571D01*
X159268571Y-17237142D01*
X159340000Y-17165714D01*
X159340000Y-17308571D01*
X160054285Y-17165714D02*
X160125714Y-17237142D01*
X160054285Y-17308571D01*
X159982857Y-17237142D01*
X160054285Y-17165714D01*
X160054285Y-17308571D01*
X160625714Y-15808571D02*
X161554285Y-15808571D01*
X161054285Y-16380000D01*
X161268571Y-16380000D01*
X161411428Y-16451428D01*
X161482857Y-16522857D01*
X161554285Y-16665714D01*
X161554285Y-17022857D01*
X161482857Y-17165714D01*
X161411428Y-17237142D01*
X161268571Y-17308571D01*
X160840000Y-17308571D01*
X160697142Y-17237142D01*
X160625714Y-17165714D01*
X123968571Y-24312857D02*
X123968571Y-23455714D01*
X125468571Y-23884285D02*
X123968571Y-23884285D01*
X123968571Y-23098571D02*
X125468571Y-22098571D01*
X123968571Y-22098571D02*
X125468571Y-23098571D01*
X125538571Y-26230000D02*
X124824285Y-26730000D01*
X125538571Y-27087142D02*
X124038571Y-27087142D01*
X124038571Y-26515714D01*
X124110000Y-26372857D01*
X124181428Y-26301428D01*
X124324285Y-26230000D01*
X124538571Y-26230000D01*
X124681428Y-26301428D01*
X124752857Y-26372857D01*
X124824285Y-26515714D01*
X124824285Y-27087142D01*
X124038571Y-25730000D02*
X125538571Y-24730000D01*
X124038571Y-24730000D02*
X125538571Y-25730000D01*
X124310000Y-34772857D02*
X124238571Y-34915714D01*
X124238571Y-35130000D01*
X124310000Y-35344285D01*
X124452857Y-35487142D01*
X124595714Y-35558571D01*
X124881428Y-35630000D01*
X125095714Y-35630000D01*
X125381428Y-35558571D01*
X125524285Y-35487142D01*
X125667142Y-35344285D01*
X125738571Y-35130000D01*
X125738571Y-34987142D01*
X125667142Y-34772857D01*
X125595714Y-34701428D01*
X125095714Y-34701428D01*
X125095714Y-34987142D01*
X125738571Y-34058571D02*
X124238571Y-34058571D01*
X125738571Y-33201428D01*
X124238571Y-33201428D01*
X125738571Y-32487142D02*
X124238571Y-32487142D01*
X124238571Y-32130000D01*
X124310000Y-31915714D01*
X124452857Y-31772857D01*
X124595714Y-31701428D01*
X124881428Y-31630000D01*
X125095714Y-31630000D01*
X125381428Y-31701428D01*
X125524285Y-31772857D01*
X125667142Y-31915714D01*
X125738571Y-32130000D01*
X125738571Y-32487142D01*
X218844285Y-24502857D02*
X218344285Y-24502857D01*
X218344285Y-25288571D02*
X218344285Y-23788571D01*
X219058571Y-23788571D01*
X219630000Y-25288571D02*
X219630000Y-23788571D01*
X220201428Y-23788571D01*
X220344285Y-23860000D01*
X220415714Y-23931428D01*
X220487142Y-24074285D01*
X220487142Y-24288571D01*
X220415714Y-24431428D01*
X220344285Y-24502857D01*
X220201428Y-24574285D01*
X219630000Y-24574285D01*
X221915714Y-23860000D02*
X221772857Y-23788571D01*
X221558571Y-23788571D01*
X221344285Y-23860000D01*
X221201428Y-24002857D01*
X221130000Y-24145714D01*
X221058571Y-24431428D01*
X221058571Y-24645714D01*
X221130000Y-24931428D01*
X221201428Y-25074285D01*
X221344285Y-25217142D01*
X221558571Y-25288571D01*
X221701428Y-25288571D01*
X221915714Y-25217142D01*
X221987142Y-25145714D01*
X221987142Y-24645714D01*
X221701428Y-24645714D01*
X222558571Y-24860000D02*
X223272857Y-24860000D01*
X222415714Y-25288571D02*
X222915714Y-23788571D01*
X223415714Y-25288571D01*
X225487142Y-23788571D02*
X225487142Y-24860000D01*
X225415714Y-25074285D01*
X225272857Y-25217142D01*
X225058571Y-25288571D01*
X224915714Y-25288571D01*
X225987142Y-23788571D02*
X226844285Y-23788571D01*
X226415714Y-25288571D02*
X226415714Y-23788571D01*
X227272857Y-24860000D02*
X227987142Y-24860000D01*
X227130000Y-25288571D02*
X227630000Y-23788571D01*
X228130000Y-25288571D01*
X229415714Y-23860000D02*
X229272857Y-23788571D01*
X229058571Y-23788571D01*
X228844285Y-23860000D01*
X228701428Y-24002857D01*
X228630000Y-24145714D01*
X228558571Y-24431428D01*
X228558571Y-24645714D01*
X228630000Y-24931428D01*
X228701428Y-25074285D01*
X228844285Y-25217142D01*
X229058571Y-25288571D01*
X229201428Y-25288571D01*
X229415714Y-25217142D01*
X229487142Y-25145714D01*
X229487142Y-24645714D01*
X229201428Y-24645714D01*
D12*
X274170000Y-15350000D02*
X264170000Y-15350000D01*
X15120000Y-3480000D02*
X15120000Y-13480000D01*
X91320000Y-3480000D02*
X91320000Y-13480000D01*
X15120000Y-13480000D02*
X91320000Y-13480000D01*
X15120000Y-13480000D02*
X1120000Y-13480000D01*
X1120000Y-13480000D02*
X1120000Y-3480000D01*
X-170000Y-13480000D02*
X-170000Y-3480000D01*
X13830000Y-13480000D02*
X-170000Y-13480000D01*
X13830000Y-13480000D02*
X90030000Y-13480000D01*
X90030000Y-3480000D02*
X90030000Y-13480000D01*
X13830000Y-3480000D02*
X13830000Y-13480000D01*
X76330000Y-105080000D02*
X76330000Y-3480000D01*
X-22580000Y-105080000D02*
X-22580000Y-3480000D01*
X273330000Y-105080000D02*
X273330000Y-3480000D01*
X95530000Y-105080000D02*
X95530000Y-3480000D01*
X274170000Y-105080000D02*
X-22580000Y-105080000D01*
X274170000Y-3480000D02*
X274170000Y-105080000D01*
X-22580000Y-3480000D02*
X274170000Y-3480000D01*
X127470000Y-74450000D02*
X127470000Y-23650000D01*
X127470000Y-74450000D02*
X211270000Y-74450000D01*
X127470000Y-23650000D02*
X211270000Y-23650000D01*
D13*
G04 #@! TO.C,R19*
X252510000Y-39662779D02*
X252510000Y-39337221D01*
X251490000Y-39662779D02*
X251490000Y-39337221D01*
G04 #@! TO.C,C33*
X120610000Y-85941422D02*
X120610000Y-86458578D01*
X119190000Y-85941422D02*
X119190000Y-86458578D01*
G04 #@! TO.C,J10*
X112170000Y-89180000D02*
X118190000Y-89180000D01*
X118190000Y-89180000D02*
X118190000Y-81340000D01*
X118190000Y-81340000D02*
X112170000Y-81340000D01*
X112170000Y-81340000D02*
X112170000Y-89180000D01*
X113200000Y-89470000D02*
X117200000Y-89470000D01*
X118190000Y-87800000D02*
X117190000Y-87800000D01*
X117190000Y-87800000D02*
X117190000Y-82720000D01*
X117190000Y-82720000D02*
X118190000Y-82720000D01*
X117190000Y-87800000D02*
X116660000Y-87550000D01*
X116660000Y-87550000D02*
X116660000Y-82970000D01*
X116660000Y-82970000D02*
X117190000Y-82720000D01*
X118190000Y-87550000D02*
X117190000Y-87550000D01*
X118190000Y-82970000D02*
X117190000Y-82970000D01*
X112170000Y-88600000D02*
X112770000Y-88600000D01*
X112770000Y-88600000D02*
X112770000Y-87000000D01*
X112770000Y-87000000D02*
X112170000Y-87000000D01*
X112170000Y-86060000D02*
X112770000Y-86060000D01*
X112770000Y-86060000D02*
X112770000Y-84460000D01*
X112770000Y-84460000D02*
X112170000Y-84460000D01*
X112170000Y-83520000D02*
X112770000Y-83520000D01*
X112770000Y-83520000D02*
X112770000Y-81920000D01*
X112770000Y-81920000D02*
X112170000Y-81920000D01*
G04 #@! TO.C,J6*
X268897500Y-82970000D02*
X268897500Y-82520000D01*
X270747500Y-82970000D02*
X268897500Y-82970000D01*
X273297500Y-75170000D02*
X273047500Y-75170000D01*
X273297500Y-82970000D02*
X273047500Y-82970000D01*
X270747500Y-75170000D02*
X268897500Y-75170000D01*
X268897500Y-75170000D02*
X268897500Y-75620000D01*
X268347500Y-80770000D02*
X268347500Y-80320000D01*
X268347500Y-80770000D02*
X268797500Y-80770000D01*
G04 #@! TO.C,U2*
X255830000Y-24240000D02*
X254900000Y-24240000D01*
X252670000Y-24240000D02*
X253600000Y-24240000D01*
X252670000Y-24240000D02*
X252670000Y-26400000D01*
X255830000Y-24240000D02*
X255830000Y-25700000D01*
G04 #@! TO.C,R20*
X254162779Y-22760000D02*
X253837221Y-22760000D01*
X254162779Y-21740000D02*
X253837221Y-21740000D01*
G04 #@! TO.C,U4*
X242048900Y-36141100D02*
X242547560Y-36141100D01*
X249491100Y-36141100D02*
X249491100Y-35642440D01*
X249491100Y-28698900D02*
X248992440Y-28698900D01*
X242048900Y-28698900D02*
X242048900Y-29197560D01*
X242048900Y-35642440D02*
X242048900Y-36141100D01*
X248992440Y-36141100D02*
X249491100Y-36141100D01*
X249491100Y-29197560D02*
X249491100Y-28698900D01*
X242547560Y-28698900D02*
X242048900Y-28698900D01*
D14*
G36*
X240309000Y-33979499D02*
X240309000Y-34360499D01*
X240563000Y-34360499D01*
X240563000Y-33979499D01*
X240309000Y-33979499D01*
G37*
X240309000Y-33979499D02*
X240309000Y-34360499D01*
X240563000Y-34360499D01*
X240563000Y-33979499D01*
X240309000Y-33979499D01*
G36*
X246329501Y-37627000D02*
X246329501Y-37881000D01*
X246710501Y-37881000D01*
X246710501Y-37627000D01*
X246329501Y-37627000D01*
G37*
X246329501Y-37627000D02*
X246329501Y-37881000D01*
X246710501Y-37881000D01*
X246710501Y-37627000D01*
X246329501Y-37627000D01*
G36*
X251231000Y-32479499D02*
X251231000Y-32860500D01*
X250977000Y-32860500D01*
X250977000Y-32479499D01*
X251231000Y-32479499D01*
G37*
X251231000Y-32479499D02*
X251231000Y-32860500D01*
X250977000Y-32860500D01*
X250977000Y-32479499D01*
X251231000Y-32479499D01*
G36*
X246829500Y-27213000D02*
X246829500Y-26959000D01*
X247210500Y-26959000D01*
X247210500Y-27213000D01*
X246829500Y-27213000D01*
G37*
X246829500Y-27213000D02*
X246829500Y-26959000D01*
X247210500Y-26959000D01*
X247210500Y-27213000D01*
X246829500Y-27213000D01*
D13*
G04 #@! TO.C,R18*
X249490000Y-39662779D02*
X249490000Y-39337221D01*
X250510000Y-39662779D02*
X250510000Y-39337221D01*
G04 #@! TO.C,R1*
X252010000Y-24837221D02*
X252010000Y-25162779D01*
X250990000Y-24837221D02*
X250990000Y-25162779D01*
G04 #@! TO.C,C32*
X245740000Y-24412779D02*
X245740000Y-24087221D01*
X246760000Y-24412779D02*
X246760000Y-24087221D01*
D15*
G04 #@! TO.C,U8*
X131600000Y-81375000D02*
X131600000Y-82650000D01*
X131025000Y-71025000D02*
X131025000Y-71700000D01*
X141375000Y-71025000D02*
X141375000Y-71700000D01*
X141375000Y-81375000D02*
X141375000Y-80700000D01*
X131025000Y-81375000D02*
X131025000Y-80700000D01*
X141375000Y-81375000D02*
X140700000Y-81375000D01*
X141375000Y-71025000D02*
X140700000Y-71025000D01*
X131025000Y-71025000D02*
X131700000Y-71025000D01*
X131025000Y-81375000D02*
X131600000Y-81375000D01*
D13*
G04 #@! TO.C,U11*
X175700000Y-76425000D02*
X174525000Y-76425000D01*
X175700000Y-80575000D02*
X174525000Y-80575000D01*
X182300000Y-76425000D02*
X183475000Y-76425000D01*
X175700000Y-82000000D02*
X175700000Y-80575000D01*
X174525000Y-80575000D02*
X174525000Y-76425000D01*
X183475000Y-80575000D02*
X183475000Y-76425000D01*
X182300000Y-80575000D02*
X183475000Y-80575000D01*
G04 #@! TO.C,U10*
X168800000Y-80575000D02*
X169975000Y-80575000D01*
X169975000Y-80575000D02*
X169975000Y-76425000D01*
X161025000Y-80575000D02*
X161025000Y-76425000D01*
X162200000Y-82000000D02*
X162200000Y-80575000D01*
X168800000Y-76425000D02*
X169975000Y-76425000D01*
X162200000Y-80575000D02*
X161025000Y-80575000D01*
X162200000Y-76425000D02*
X161025000Y-76425000D01*
G04 #@! TO.C,U9*
X149200000Y-76425000D02*
X148025000Y-76425000D01*
X149200000Y-80575000D02*
X148025000Y-80575000D01*
X155800000Y-76425000D02*
X156975000Y-76425000D01*
X149200000Y-82000000D02*
X149200000Y-80575000D01*
X148025000Y-80575000D02*
X148025000Y-76425000D01*
X156975000Y-80575000D02*
X156975000Y-76425000D01*
X155800000Y-80575000D02*
X156975000Y-80575000D01*
G04 #@! TO.C,U12*
X193800000Y-80575000D02*
X194975000Y-80575000D01*
X194975000Y-80575000D02*
X194975000Y-76425000D01*
X186025000Y-80575000D02*
X186025000Y-76425000D01*
X187200000Y-82000000D02*
X187200000Y-80575000D01*
X193800000Y-76425000D02*
X194975000Y-76425000D01*
X187200000Y-80575000D02*
X186025000Y-80575000D01*
X187200000Y-76425000D02*
X186025000Y-76425000D01*
G04 #@! TO.C,U1*
X122590000Y-69100000D02*
X122590000Y-70900000D01*
X125810000Y-70900000D02*
X125810000Y-68450000D01*
G04 #@! TO.C,C31*
X204041422Y-81990000D02*
X204558578Y-81990000D01*
X204041422Y-83410000D02*
X204558578Y-83410000D01*
G04 #@! TO.C,C24*
X163510000Y-73062779D02*
X163510000Y-72737221D01*
X162490000Y-73062779D02*
X162490000Y-72737221D01*
G04 #@! TO.C,J9*
X204100000Y-80410000D02*
X204100000Y-77750000D01*
X204100000Y-80410000D02*
X206700000Y-80410000D01*
X206700000Y-80410000D02*
X206700000Y-77750000D01*
X204100000Y-77750000D02*
X206700000Y-77750000D01*
X201500000Y-77750000D02*
X202830000Y-77750000D01*
X201500000Y-79080000D02*
X201500000Y-77750000D01*
G04 #@! TO.C,C30*
X141487221Y-65490000D02*
X141812779Y-65490000D01*
X141487221Y-66510000D02*
X141812779Y-66510000D01*
G04 #@! TO.C,C29*
X253837221Y-30740000D02*
X254162779Y-30740000D01*
X253837221Y-31760000D02*
X254162779Y-31760000D01*
G04 #@! TO.C,J8*
X117660000Y-62740000D02*
X113540000Y-62740000D01*
X117660000Y-74800000D02*
X117660000Y-62740000D01*
X113540000Y-76860000D02*
X113540000Y-62740000D01*
X117660000Y-74800000D02*
X115600000Y-74800000D01*
X115600000Y-74800000D02*
X115600000Y-76860000D01*
X115600000Y-76860000D02*
X113540000Y-76860000D01*
X117660000Y-75800000D02*
X117660000Y-76860000D01*
X117660000Y-76860000D02*
X116600000Y-76860000D01*
G04 #@! TO.C,C28*
X127890000Y-71162779D02*
X127890000Y-70837221D01*
X128910000Y-71162779D02*
X128910000Y-70837221D01*
G04 #@! TO.C,C27*
X146310000Y-78437221D02*
X146310000Y-78762779D01*
X145290000Y-78437221D02*
X145290000Y-78762779D01*
G04 #@! TO.C,C1*
X128910000Y-74937221D02*
X128910000Y-75262779D01*
X127890000Y-74937221D02*
X127890000Y-75262779D01*
G04 #@! TO.C,C25*
X175990000Y-73062779D02*
X175990000Y-72737221D01*
X177010000Y-73062779D02*
X177010000Y-72737221D01*
G04 #@! TO.C,C2*
X188510000Y-73062779D02*
X188510000Y-72737221D01*
X187490000Y-73062779D02*
X187490000Y-72737221D01*
G04 #@! TO.C,C26*
X125637221Y-72590000D02*
X125962779Y-72590000D01*
X125637221Y-73610000D02*
X125962779Y-73610000D01*
G04 #@! TO.C,R17*
X125162779Y-66390000D02*
X124837221Y-66390000D01*
X125162779Y-67410000D02*
X124837221Y-67410000D01*
G04 #@! TO.C,C22*
X139637221Y-68210000D02*
X139962779Y-68210000D01*
X139637221Y-67190000D02*
X139962779Y-67190000D01*
G04 #@! TO.C,C23*
X149390000Y-73062779D02*
X149390000Y-72737221D01*
X150410000Y-73062779D02*
X150410000Y-72737221D01*
G04 #@! TO.C,C3*
X144510000Y-78437221D02*
X144510000Y-78762779D01*
X143490000Y-78437221D02*
X143490000Y-78762779D01*
G04 #@! TO.C,C20*
X221521422Y-95290000D02*
X222038578Y-95290000D01*
X221521422Y-96710000D02*
X222038578Y-96710000D01*
G04 #@! TO.C,J7*
X216860000Y-88240000D02*
X216860000Y-94260000D01*
X216860000Y-94260000D02*
X224700000Y-94260000D01*
X224700000Y-94260000D02*
X224700000Y-88240000D01*
X224700000Y-88240000D02*
X216860000Y-88240000D01*
X216570000Y-89270000D02*
X216570000Y-93270000D01*
X218240000Y-94260000D02*
X218240000Y-93260000D01*
X218240000Y-93260000D02*
X223320000Y-93260000D01*
X223320000Y-93260000D02*
X223320000Y-94260000D01*
X218240000Y-93260000D02*
X218490000Y-92730000D01*
X218490000Y-92730000D02*
X223070000Y-92730000D01*
X223070000Y-92730000D02*
X223320000Y-93260000D01*
X218490000Y-94260000D02*
X218490000Y-93260000D01*
X223070000Y-94260000D02*
X223070000Y-93260000D01*
X217440000Y-88240000D02*
X217440000Y-88840000D01*
X217440000Y-88840000D02*
X219040000Y-88840000D01*
X219040000Y-88840000D02*
X219040000Y-88240000D01*
X219980000Y-88240000D02*
X219980000Y-88840000D01*
X219980000Y-88840000D02*
X221580000Y-88840000D01*
X221580000Y-88840000D02*
X221580000Y-88240000D01*
X222520000Y-88240000D02*
X222520000Y-88840000D01*
X222520000Y-88840000D02*
X224120000Y-88840000D01*
X224120000Y-88840000D02*
X224120000Y-88240000D01*
G04 #@! TO.C,R24*
X137957842Y-86169870D02*
X137957842Y-85844312D01*
X136937842Y-86169870D02*
X136937842Y-85844312D01*
G04 #@! TO.C,R25*
X135137842Y-86169870D02*
X135137842Y-85844312D01*
X136157842Y-86169870D02*
X136157842Y-85844312D01*
G04 #@! TO.C,R26*
X134357842Y-86169870D02*
X134357842Y-85844312D01*
X133337842Y-86169870D02*
X133337842Y-85844312D01*
G04 #@! TO.C,R23*
X138737842Y-86169870D02*
X138737842Y-85844312D01*
X139757842Y-86169870D02*
X139757842Y-85844312D01*
G04 #@! TO.C,C21*
X231310000Y-41932779D02*
X231310000Y-41607221D01*
X232330000Y-41932779D02*
X232330000Y-41607221D01*
G04 #@! TO.C,JCD1*
X210070000Y-31330000D02*
X210070000Y-26130000D01*
X131270000Y-31330000D02*
X210070000Y-31330000D01*
X128670000Y-26130000D02*
X210070000Y-26130000D01*
X131270000Y-31330000D02*
X131270000Y-28730000D01*
X131270000Y-28730000D02*
X128670000Y-28730000D01*
X128670000Y-28730000D02*
X128670000Y-26130000D01*
X130000000Y-31330000D02*
X128670000Y-31330000D01*
X128670000Y-31330000D02*
X128670000Y-30000000D01*
G04 #@! TO.C,C19*
X172537779Y-34110000D02*
X172212221Y-34110000D01*
X172537779Y-33090000D02*
X172212221Y-33090000D01*
G04 #@! TO.C,J1*
X215170000Y-26440000D02*
X215170000Y-30560000D01*
X227230000Y-26440000D02*
X215170000Y-26440000D01*
X229290000Y-30560000D02*
X215170000Y-30560000D01*
X227230000Y-26440000D02*
X227230000Y-28500000D01*
X227230000Y-28500000D02*
X229290000Y-28500000D01*
X229290000Y-28500000D02*
X229290000Y-30560000D01*
X228230000Y-26440000D02*
X229290000Y-26440000D01*
X229290000Y-26440000D02*
X229290000Y-27500000D01*
G04 #@! TO.C,C17*
X254467221Y-89570000D02*
X254792779Y-89570000D01*
X254467221Y-88550000D02*
X254792779Y-88550000D01*
G04 #@! TO.C,C18*
X253212779Y-81970000D02*
X252887221Y-81970000D01*
X253212779Y-80950000D02*
X252887221Y-80950000D01*
G04 #@! TO.C,C16*
X258012064Y-87270000D02*
X256807936Y-87270000D01*
X258012064Y-85450000D02*
X256807936Y-85450000D01*
G04 #@! TO.C,FB1*
X257611422Y-83360000D02*
X258128578Y-83360000D01*
X257611422Y-84780000D02*
X258128578Y-84780000D01*
G04 #@! TO.C,U7*
X251290000Y-84310000D02*
X251290000Y-86110000D01*
X254510000Y-86110000D02*
X254510000Y-83660000D01*
G04 #@! TO.C,U6*
X266300000Y-77745000D02*
X264500000Y-77745000D01*
X264500000Y-80965000D02*
X266950000Y-80965000D01*
G04 #@! TO.C,R11*
X263672779Y-76050000D02*
X263347221Y-76050000D01*
X263672779Y-77070000D02*
X263347221Y-77070000D01*
G04 #@! TO.C,R12*
X263672779Y-82660000D02*
X263347221Y-82660000D01*
X263672779Y-81640000D02*
X263347221Y-81640000D01*
G04 #@! TO.C,R14*
X261370000Y-81062779D02*
X261370000Y-80737221D01*
X260350000Y-81062779D02*
X260350000Y-80737221D01*
G04 #@! TO.C,R15*
X249402779Y-86820000D02*
X249077221Y-86820000D01*
X249402779Y-85800000D02*
X249077221Y-85800000D01*
G04 #@! TO.C,R13*
X261370000Y-77972779D02*
X261370000Y-77647221D01*
X260350000Y-77972779D02*
X260350000Y-77647221D01*
G04 #@! TO.C,R16*
X249402779Y-84620000D02*
X249077221Y-84620000D01*
X249402779Y-83600000D02*
X249077221Y-83600000D01*
G04 #@! TO.C,D3*
X146426666Y-16290000D02*
X146426666Y-13605000D01*
X146426666Y-13605000D02*
X144506666Y-13605000D01*
X144506666Y-13605000D02*
X144506666Y-16290000D01*
G04 #@! TO.C,D2*
X142260000Y-13605000D02*
X142260000Y-16290000D01*
X144180000Y-13605000D02*
X142260000Y-13605000D01*
X144180000Y-16290000D02*
X144180000Y-13605000D01*
G04 #@! TO.C,D4*
X146753332Y-13605000D02*
X146753332Y-16290000D01*
X148673332Y-13605000D02*
X146753332Y-13605000D01*
X148673332Y-16290000D02*
X148673332Y-13605000D01*
G04 #@! TO.C,D5*
X150920000Y-16290000D02*
X150920000Y-13605000D01*
X150920000Y-13605000D02*
X149000000Y-13605000D01*
X149000000Y-13605000D02*
X149000000Y-16290000D01*
G04 #@! TO.C,R8*
X145976666Y-19042779D02*
X145976666Y-18717221D01*
X144956666Y-19042779D02*
X144956666Y-18717221D01*
G04 #@! TO.C,R7*
X142710000Y-19042779D02*
X142710000Y-18717221D01*
X143730000Y-19042779D02*
X143730000Y-18717221D01*
G04 #@! TO.C,R9*
X148223332Y-19042779D02*
X148223332Y-18717221D01*
X147203332Y-19042779D02*
X147203332Y-18717221D01*
G04 #@! TO.C,R10*
X149450000Y-19042779D02*
X149450000Y-18717221D01*
X150470000Y-19042779D02*
X150470000Y-18717221D01*
G04 #@! TO.C,C15*
X261520000Y-66407221D02*
X261520000Y-66732779D01*
X262540000Y-66407221D02*
X262540000Y-66732779D01*
G04 #@! TO.C,C14*
X221840000Y-51247221D02*
X221840000Y-51572779D01*
X222860000Y-51247221D02*
X222860000Y-51572779D01*
G04 #@! TO.C,C13*
X233780000Y-43512779D02*
X233780000Y-43187221D01*
X234800000Y-43512779D02*
X234800000Y-43187221D01*
G04 #@! TO.C,C12*
X237798578Y-43270000D02*
X237281422Y-43270000D01*
X237798578Y-41850000D02*
X237281422Y-41850000D01*
G04 #@! TO.C,J5*
X269600000Y-54100000D02*
X266600000Y-54100000D01*
X264500000Y-70500000D02*
X265100000Y-70500000D01*
X264500000Y-56800000D02*
X263850000Y-56800000D01*
X264500000Y-54100000D02*
X264500000Y-56800000D01*
X264500000Y-54100000D02*
X265100000Y-54100000D01*
X273100000Y-54100000D02*
X272100000Y-54100000D01*
X272100000Y-70500000D02*
X273100000Y-70500000D01*
X264500000Y-70500000D02*
X264500000Y-67300000D01*
X269600000Y-70500000D02*
X266600000Y-70500000D01*
D12*
G04 #@! TO.C,U5*
X224610000Y-43715000D02*
G75*
G03X224610000Y-43715000I-100000J0D01*
G01*
D16*
X226750000Y-43600000D02*
X231150000Y-43600000D01*
X226750000Y-51800000D02*
X231150000Y-51800000D01*
D15*
G04 #@! TO.C,J4*
X273430000Y-46130000D02*
X273430000Y-21130000D01*
D13*
G04 #@! TO.C,C9*
X240582779Y-37370000D02*
X240257221Y-37370000D01*
X240582779Y-38390000D02*
X240257221Y-38390000D01*
G04 #@! TO.C,C8*
X253837221Y-32490000D02*
X254162779Y-32490000D01*
X253837221Y-33510000D02*
X254162779Y-33510000D01*
G04 #@! TO.C,C5*
X248520000Y-25162779D02*
X248520000Y-24837221D01*
X247500000Y-25162779D02*
X247500000Y-24837221D01*
G04 #@! TO.C,C6*
X238922779Y-36490000D02*
X238597221Y-36490000D01*
X238922779Y-35470000D02*
X238597221Y-35470000D01*
G04 #@! TO.C,C7*
X253837221Y-30010000D02*
X254162779Y-30010000D01*
X253837221Y-28990000D02*
X254162779Y-28990000D01*
G04 #@! TO.C,C10*
X253167221Y-27300000D02*
X253492779Y-27300000D01*
X253167221Y-28320000D02*
X253492779Y-28320000D01*
G04 #@! TO.C,C11*
X255810000Y-14630000D02*
G75*
G03X255810000Y-14630000I-3270000J0D01*
G01*
X255770000Y-14630000D02*
X249310000Y-14630000D01*
X255770000Y-14670000D02*
X249310000Y-14670000D01*
X255770000Y-14710000D02*
X249310000Y-14710000D01*
X255768000Y-14750000D02*
X249312000Y-14750000D01*
X255767000Y-14790000D02*
X249313000Y-14790000D01*
X255764000Y-14830000D02*
X249316000Y-14830000D01*
X255762000Y-14870000D02*
X253580000Y-14870000D01*
X251500000Y-14870000D02*
X249318000Y-14870000D01*
X255758000Y-14910000D02*
X253580000Y-14910000D01*
X251500000Y-14910000D02*
X249322000Y-14910000D01*
X255755000Y-14950000D02*
X253580000Y-14950000D01*
X251500000Y-14950000D02*
X249325000Y-14950000D01*
X255751000Y-14990000D02*
X253580000Y-14990000D01*
X251500000Y-14990000D02*
X249329000Y-14990000D01*
X255746000Y-15030000D02*
X253580000Y-15030000D01*
X251500000Y-15030000D02*
X249334000Y-15030000D01*
X255741000Y-15070000D02*
X253580000Y-15070000D01*
X251500000Y-15070000D02*
X249339000Y-15070000D01*
X255735000Y-15110000D02*
X253580000Y-15110000D01*
X251500000Y-15110000D02*
X249345000Y-15110000D01*
X255729000Y-15150000D02*
X253580000Y-15150000D01*
X251500000Y-15150000D02*
X249351000Y-15150000D01*
X255722000Y-15190000D02*
X253580000Y-15190000D01*
X251500000Y-15190000D02*
X249358000Y-15190000D01*
X255715000Y-15230000D02*
X253580000Y-15230000D01*
X251500000Y-15230000D02*
X249365000Y-15230000D01*
X255707000Y-15270000D02*
X253580000Y-15270000D01*
X251500000Y-15270000D02*
X249373000Y-15270000D01*
X255699000Y-15310000D02*
X253580000Y-15310000D01*
X251500000Y-15310000D02*
X249381000Y-15310000D01*
X255690000Y-15351000D02*
X253580000Y-15351000D01*
X251500000Y-15351000D02*
X249390000Y-15351000D01*
X255681000Y-15391000D02*
X253580000Y-15391000D01*
X251500000Y-15391000D02*
X249399000Y-15391000D01*
X255671000Y-15431000D02*
X253580000Y-15431000D01*
X251500000Y-15431000D02*
X249409000Y-15431000D01*
X255661000Y-15471000D02*
X253580000Y-15471000D01*
X251500000Y-15471000D02*
X249419000Y-15471000D01*
X255650000Y-15511000D02*
X253580000Y-15511000D01*
X251500000Y-15511000D02*
X249430000Y-15511000D01*
X255638000Y-15551000D02*
X253580000Y-15551000D01*
X251500000Y-15551000D02*
X249442000Y-15551000D01*
X255626000Y-15591000D02*
X253580000Y-15591000D01*
X251500000Y-15591000D02*
X249454000Y-15591000D01*
X255614000Y-15631000D02*
X253580000Y-15631000D01*
X251500000Y-15631000D02*
X249466000Y-15631000D01*
X255601000Y-15671000D02*
X253580000Y-15671000D01*
X251500000Y-15671000D02*
X249479000Y-15671000D01*
X255587000Y-15711000D02*
X253580000Y-15711000D01*
X251500000Y-15711000D02*
X249493000Y-15711000D01*
X255573000Y-15751000D02*
X253580000Y-15751000D01*
X251500000Y-15751000D02*
X249507000Y-15751000D01*
X255558000Y-15791000D02*
X253580000Y-15791000D01*
X251500000Y-15791000D02*
X249522000Y-15791000D01*
X255542000Y-15831000D02*
X253580000Y-15831000D01*
X251500000Y-15831000D02*
X249538000Y-15831000D01*
X255526000Y-15871000D02*
X253580000Y-15871000D01*
X251500000Y-15871000D02*
X249554000Y-15871000D01*
X255510000Y-15911000D02*
X253580000Y-15911000D01*
X251500000Y-15911000D02*
X249570000Y-15911000D01*
X255492000Y-15951000D02*
X253580000Y-15951000D01*
X251500000Y-15951000D02*
X249588000Y-15951000D01*
X255474000Y-15991000D02*
X253580000Y-15991000D01*
X251500000Y-15991000D02*
X249606000Y-15991000D01*
X255456000Y-16031000D02*
X253580000Y-16031000D01*
X251500000Y-16031000D02*
X249624000Y-16031000D01*
X255436000Y-16071000D02*
X253580000Y-16071000D01*
X251500000Y-16071000D02*
X249644000Y-16071000D01*
X255416000Y-16111000D02*
X253580000Y-16111000D01*
X251500000Y-16111000D02*
X249664000Y-16111000D01*
X255396000Y-16151000D02*
X253580000Y-16151000D01*
X251500000Y-16151000D02*
X249684000Y-16151000D01*
X255374000Y-16191000D02*
X253580000Y-16191000D01*
X251500000Y-16191000D02*
X249706000Y-16191000D01*
X255352000Y-16231000D02*
X253580000Y-16231000D01*
X251500000Y-16231000D02*
X249728000Y-16231000D01*
X255330000Y-16271000D02*
X253580000Y-16271000D01*
X251500000Y-16271000D02*
X249750000Y-16271000D01*
X255306000Y-16311000D02*
X253580000Y-16311000D01*
X251500000Y-16311000D02*
X249774000Y-16311000D01*
X255282000Y-16351000D02*
X253580000Y-16351000D01*
X251500000Y-16351000D02*
X249798000Y-16351000D01*
X255256000Y-16391000D02*
X253580000Y-16391000D01*
X251500000Y-16391000D02*
X249824000Y-16391000D01*
X255230000Y-16431000D02*
X253580000Y-16431000D01*
X251500000Y-16431000D02*
X249850000Y-16431000D01*
X255204000Y-16471000D02*
X253580000Y-16471000D01*
X251500000Y-16471000D02*
X249876000Y-16471000D01*
X255176000Y-16511000D02*
X253580000Y-16511000D01*
X251500000Y-16511000D02*
X249904000Y-16511000D01*
X255147000Y-16551000D02*
X253580000Y-16551000D01*
X251500000Y-16551000D02*
X249933000Y-16551000D01*
X255118000Y-16591000D02*
X253580000Y-16591000D01*
X251500000Y-16591000D02*
X249962000Y-16591000D01*
X255088000Y-16631000D02*
X253580000Y-16631000D01*
X251500000Y-16631000D02*
X249992000Y-16631000D01*
X255056000Y-16671000D02*
X253580000Y-16671000D01*
X251500000Y-16671000D02*
X250024000Y-16671000D01*
X255024000Y-16711000D02*
X253580000Y-16711000D01*
X251500000Y-16711000D02*
X250056000Y-16711000D01*
X254990000Y-16751000D02*
X253580000Y-16751000D01*
X251500000Y-16751000D02*
X250090000Y-16751000D01*
X254956000Y-16791000D02*
X253580000Y-16791000D01*
X251500000Y-16791000D02*
X250124000Y-16791000D01*
X254920000Y-16831000D02*
X253580000Y-16831000D01*
X251500000Y-16831000D02*
X250160000Y-16831000D01*
X254883000Y-16871000D02*
X253580000Y-16871000D01*
X251500000Y-16871000D02*
X250197000Y-16871000D01*
X254845000Y-16911000D02*
X253580000Y-16911000D01*
X251500000Y-16911000D02*
X250235000Y-16911000D01*
X254805000Y-16951000D02*
X250275000Y-16951000D01*
X254764000Y-16991000D02*
X250316000Y-16991000D01*
X254722000Y-17031000D02*
X250358000Y-17031000D01*
X254677000Y-17071000D02*
X250403000Y-17071000D01*
X254632000Y-17111000D02*
X250448000Y-17111000D01*
X254584000Y-17151000D02*
X250496000Y-17151000D01*
X254535000Y-17191000D02*
X250545000Y-17191000D01*
X254484000Y-17231000D02*
X250596000Y-17231000D01*
X254430000Y-17271000D02*
X250650000Y-17271000D01*
X254374000Y-17311000D02*
X250706000Y-17311000D01*
X254316000Y-17351000D02*
X250764000Y-17351000D01*
X254254000Y-17391000D02*
X250826000Y-17391000D01*
X254190000Y-17431000D02*
X250890000Y-17431000D01*
X254121000Y-17471000D02*
X250959000Y-17471000D01*
X254049000Y-17511000D02*
X251031000Y-17511000D01*
X253972000Y-17551000D02*
X251108000Y-17551000D01*
X253890000Y-17591000D02*
X251190000Y-17591000D01*
X253802000Y-17631000D02*
X251278000Y-17631000D01*
X253705000Y-17671000D02*
X251375000Y-17671000D01*
X253599000Y-17711000D02*
X251481000Y-17711000D01*
X253480000Y-17751000D02*
X251600000Y-17751000D01*
X253342000Y-17791000D02*
X251738000Y-17791000D01*
X253173000Y-17831000D02*
X251907000Y-17831000D01*
X252942000Y-17871000D02*
X252138000Y-17871000D01*
X254379000Y-11129759D02*
X254379000Y-11759759D01*
X254694000Y-11444759D02*
X254064000Y-11444759D01*
G04 #@! TO.C,R6*
X253747221Y-35950000D02*
X254072779Y-35950000D01*
X253747221Y-36970000D02*
X254072779Y-36970000D01*
G04 #@! TO.C,R3*
X250260000Y-25162779D02*
X250260000Y-24837221D01*
X249240000Y-25162779D02*
X249240000Y-24837221D01*
G04 #@! TO.C,R5*
X253757221Y-34220000D02*
X254082779Y-34220000D01*
X253757221Y-35240000D02*
X254082779Y-35240000D01*
G04 #@! TO.C,R4*
X248180000Y-14167936D02*
X248180000Y-15372064D01*
X245460000Y-14167936D02*
X245460000Y-15372064D01*
G04 #@! TO.C,J3*
X207890000Y-105300000D02*
X207890000Y-99740000D01*
X207890000Y-99740000D02*
X202370000Y-99740000D01*
X202370000Y-99740000D02*
X202370000Y-100740000D01*
X113370000Y-105300000D02*
X113370000Y-99740000D01*
X113370000Y-99740000D02*
X118890000Y-99740000D01*
X118890000Y-99740000D02*
X118890000Y-100740000D01*
X202371000Y-100740000D02*
X201095000Y-100740000D01*
X198905000Y-100740000D02*
X198329000Y-100740000D01*
X196590000Y-100740000D02*
X195789000Y-100740000D01*
X194050000Y-100740000D02*
X193249000Y-100740000D01*
X191510000Y-100740000D02*
X190709000Y-100740000D01*
X188970000Y-100740000D02*
X188169000Y-100740000D01*
X186430000Y-100740000D02*
X185629000Y-100740000D01*
X183890000Y-100740000D02*
X183089000Y-100740000D01*
X181350000Y-100740000D02*
X180549000Y-100740000D01*
X178810000Y-100740000D02*
X178009000Y-100740000D01*
X176270000Y-100740000D02*
X175469000Y-100740000D01*
X173730000Y-100740000D02*
X172929000Y-100740000D01*
X171190000Y-100740000D02*
X170389000Y-100740000D01*
X168650000Y-100740000D02*
X167849000Y-100740000D01*
X166110000Y-100740000D02*
X165309000Y-100740000D01*
X163570000Y-100740000D02*
X162769000Y-100740000D01*
X161030000Y-100740000D02*
X160229000Y-100740000D01*
X158490000Y-100740000D02*
X157689000Y-100740000D01*
X155950000Y-100740000D02*
X155149000Y-100740000D01*
X153410000Y-100740000D02*
X152609000Y-100740000D01*
X150870000Y-100740000D02*
X150069000Y-100740000D01*
X148330000Y-100740000D02*
X147529000Y-100740000D01*
X145790000Y-100740000D02*
X144989000Y-100740000D01*
X143250000Y-100740000D02*
X142449000Y-100740000D01*
X140710000Y-100740000D02*
X139909000Y-100740000D01*
X138170000Y-100740000D02*
X137369000Y-100740000D01*
X135630000Y-100740000D02*
X134829000Y-100740000D01*
X133090000Y-100740000D02*
X132289000Y-100740000D01*
X130550000Y-100740000D02*
X129749000Y-100740000D01*
X128010000Y-100740000D02*
X127209000Y-100740000D01*
X125470000Y-100740000D02*
X124669000Y-100740000D01*
X122930000Y-100740000D02*
X122129000Y-100740000D01*
X120390000Y-100740000D02*
X118890000Y-100740000D01*
X201095000Y-100000000D02*
X201695000Y-100300000D01*
X201695000Y-100300000D02*
X201695000Y-99700000D01*
X201695000Y-99700000D02*
X201095000Y-100000000D01*
G04 #@! TO.C,C4*
X166677221Y-56270000D02*
X167002779Y-56270000D01*
X166677221Y-55250000D02*
X167002779Y-55250000D01*
G04 #@! TO.C,R2*
X160662779Y-71690000D02*
X160337221Y-71690000D01*
X160662779Y-72710000D02*
X160337221Y-72710000D01*
G04 #@! TO.C,J2*
X123170000Y-34770000D02*
X121900000Y-34770000D01*
X123170000Y-33500000D02*
X123170000Y-34770000D01*
X120857071Y-20420000D02*
X120460000Y-20420000D01*
X120857071Y-21180000D02*
X120460000Y-21180000D01*
X111800000Y-20420000D02*
X117800000Y-20420000D01*
X111800000Y-21180000D02*
X111800000Y-20420000D01*
X117800000Y-21180000D02*
X111800000Y-21180000D01*
X120460000Y-22070000D02*
X117800000Y-22070000D01*
X120857071Y-22960000D02*
X120460000Y-22960000D01*
X120857071Y-23720000D02*
X120460000Y-23720000D01*
X111800000Y-22960000D02*
X117800000Y-22960000D01*
X111800000Y-23720000D02*
X111800000Y-22960000D01*
X117800000Y-23720000D02*
X111800000Y-23720000D01*
X120460000Y-24610000D02*
X117800000Y-24610000D01*
X120857071Y-25500000D02*
X120460000Y-25500000D01*
X120857071Y-26260000D02*
X120460000Y-26260000D01*
X111800000Y-25500000D02*
X117800000Y-25500000D01*
X111800000Y-26260000D02*
X111800000Y-25500000D01*
X117800000Y-26260000D02*
X111800000Y-26260000D01*
X120460000Y-27150000D02*
X117800000Y-27150000D01*
X120857071Y-28040000D02*
X120460000Y-28040000D01*
X120857071Y-28800000D02*
X120460000Y-28800000D01*
X111800000Y-28040000D02*
X117800000Y-28040000D01*
X111800000Y-28800000D02*
X111800000Y-28040000D01*
X117800000Y-28800000D02*
X111800000Y-28800000D01*
X120460000Y-29690000D02*
X117800000Y-29690000D01*
X120857071Y-30580000D02*
X120460000Y-30580000D01*
X120857071Y-31340000D02*
X120460000Y-31340000D01*
X111800000Y-30580000D02*
X117800000Y-30580000D01*
X111800000Y-31340000D02*
X111800000Y-30580000D01*
X117800000Y-31340000D02*
X111800000Y-31340000D01*
X120460000Y-32230000D02*
X117800000Y-32230000D01*
X120790000Y-33120000D02*
X120460000Y-33120000D01*
X120790000Y-33880000D02*
X120460000Y-33880000D01*
X117800000Y-33220000D02*
X111800000Y-33220000D01*
X117800000Y-33340000D02*
X111800000Y-33340000D01*
X117800000Y-33460000D02*
X111800000Y-33460000D01*
X117800000Y-33580000D02*
X111800000Y-33580000D01*
X117800000Y-33700000D02*
X111800000Y-33700000D01*
X117800000Y-33820000D02*
X111800000Y-33820000D01*
X111800000Y-33120000D02*
X117800000Y-33120000D01*
X111800000Y-33880000D02*
X111800000Y-33120000D01*
X117800000Y-33880000D02*
X111800000Y-33880000D01*
X117800000Y-34830000D02*
X120460000Y-34830000D01*
X117800000Y-19470000D02*
X117800000Y-34830000D01*
X120460000Y-19470000D02*
X117800000Y-19470000D01*
X120460000Y-34830000D02*
X120460000Y-19470000D01*
G04 #@! TO.C,JAB1*
X128670000Y-63080000D02*
X128670000Y-61750000D01*
X130000000Y-63080000D02*
X128670000Y-63080000D01*
X128670000Y-60480000D02*
X128670000Y-57880000D01*
X131270000Y-60480000D02*
X128670000Y-60480000D01*
X131270000Y-63080000D02*
X131270000Y-60480000D01*
X128670000Y-57880000D02*
X210070000Y-57880000D01*
X131270000Y-63080000D02*
X210070000Y-63080000D01*
X210070000Y-63080000D02*
X210070000Y-57880000D01*
G04 #@! TO.C,R19*
D15*
X252452380Y-43142857D02*
X251976190Y-43476190D01*
X252452380Y-43714285D02*
X251452380Y-43714285D01*
X251452380Y-43333333D01*
X251500000Y-43238095D01*
X251547619Y-43190476D01*
X251642857Y-43142857D01*
X251785714Y-43142857D01*
X251880952Y-43190476D01*
X251928571Y-43238095D01*
X251976190Y-43333333D01*
X251976190Y-43714285D01*
X252452380Y-42190476D02*
X252452380Y-42761904D01*
X252452380Y-42476190D02*
X251452380Y-42476190D01*
X251595238Y-42571428D01*
X251690476Y-42666666D01*
X251738095Y-42761904D01*
X252452380Y-41714285D02*
X252452380Y-41523809D01*
X252404761Y-41428571D01*
X252357142Y-41380952D01*
X252214285Y-41285714D01*
X252023809Y-41238095D01*
X251642857Y-41238095D01*
X251547619Y-41285714D01*
X251500000Y-41333333D01*
X251452380Y-41428571D01*
X251452380Y-41619047D01*
X251500000Y-41714285D01*
X251547619Y-41761904D01*
X251642857Y-41809523D01*
X251880952Y-41809523D01*
X251976190Y-41761904D01*
X252023809Y-41714285D01*
X252071428Y-41619047D01*
X252071428Y-41428571D01*
X252023809Y-41333333D01*
X251976190Y-41285714D01*
X251880952Y-41238095D01*
G04 #@! TO.C,C33*
X120757142Y-90142857D02*
X120804761Y-90190476D01*
X120852380Y-90333333D01*
X120852380Y-90428571D01*
X120804761Y-90571428D01*
X120709523Y-90666666D01*
X120614285Y-90714285D01*
X120423809Y-90761904D01*
X120280952Y-90761904D01*
X120090476Y-90714285D01*
X119995238Y-90666666D01*
X119900000Y-90571428D01*
X119852380Y-90428571D01*
X119852380Y-90333333D01*
X119900000Y-90190476D01*
X119947619Y-90142857D01*
X119852380Y-89809523D02*
X119852380Y-89190476D01*
X120233333Y-89523809D01*
X120233333Y-89380952D01*
X120280952Y-89285714D01*
X120328571Y-89238095D01*
X120423809Y-89190476D01*
X120661904Y-89190476D01*
X120757142Y-89238095D01*
X120804761Y-89285714D01*
X120852380Y-89380952D01*
X120852380Y-89666666D01*
X120804761Y-89761904D01*
X120757142Y-89809523D01*
X119852380Y-88857142D02*
X119852380Y-88238095D01*
X120233333Y-88571428D01*
X120233333Y-88428571D01*
X120280952Y-88333333D01*
X120328571Y-88285714D01*
X120423809Y-88238095D01*
X120661904Y-88238095D01*
X120757142Y-88285714D01*
X120804761Y-88333333D01*
X120852380Y-88428571D01*
X120852380Y-88714285D01*
X120804761Y-88809523D01*
X120757142Y-88857142D01*
G04 #@! TO.C,J10*
X117052380Y-80409523D02*
X117766666Y-80409523D01*
X117909523Y-80457142D01*
X118004761Y-80552380D01*
X118052380Y-80695238D01*
X118052380Y-80790476D01*
X118052380Y-79409523D02*
X118052380Y-79980952D01*
X118052380Y-79695238D02*
X117052380Y-79695238D01*
X117195238Y-79790476D01*
X117290476Y-79885714D01*
X117338095Y-79980952D01*
X117052380Y-78790476D02*
X117052380Y-78695238D01*
X117100000Y-78600000D01*
X117147619Y-78552380D01*
X117242857Y-78504761D01*
X117433333Y-78457142D01*
X117671428Y-78457142D01*
X117861904Y-78504761D01*
X117957142Y-78552380D01*
X118004761Y-78600000D01*
X118052380Y-78695238D01*
X118052380Y-78790476D01*
X118004761Y-78885714D01*
X117957142Y-78933333D01*
X117861904Y-78980952D01*
X117671428Y-79028571D01*
X117433333Y-79028571D01*
X117242857Y-78980952D01*
X117147619Y-78933333D01*
X117100000Y-78885714D01*
X117052380Y-78790476D01*
G04 #@! TO.C,J6*
X266999880Y-79403333D02*
X267714166Y-79403333D01*
X267857023Y-79450952D01*
X267952261Y-79546190D01*
X267999880Y-79689047D01*
X267999880Y-79784285D01*
X266999880Y-78498571D02*
X266999880Y-78689047D01*
X267047500Y-78784285D01*
X267095119Y-78831904D01*
X267237976Y-78927142D01*
X267428452Y-78974761D01*
X267809404Y-78974761D01*
X267904642Y-78927142D01*
X267952261Y-78879523D01*
X267999880Y-78784285D01*
X267999880Y-78593809D01*
X267952261Y-78498571D01*
X267904642Y-78450952D01*
X267809404Y-78403333D01*
X267571309Y-78403333D01*
X267476071Y-78450952D01*
X267428452Y-78498571D01*
X267380833Y-78593809D01*
X267380833Y-78784285D01*
X267428452Y-78879523D01*
X267476071Y-78927142D01*
X267571309Y-78974761D01*
G04 #@! TO.C,U2*
X256202380Y-25011904D02*
X257011904Y-25011904D01*
X257107142Y-24964285D01*
X257154761Y-24916666D01*
X257202380Y-24821428D01*
X257202380Y-24630952D01*
X257154761Y-24535714D01*
X257107142Y-24488095D01*
X257011904Y-24440476D01*
X256202380Y-24440476D01*
X256297619Y-24011904D02*
X256250000Y-23964285D01*
X256202380Y-23869047D01*
X256202380Y-23630952D01*
X256250000Y-23535714D01*
X256297619Y-23488095D01*
X256392857Y-23440476D01*
X256488095Y-23440476D01*
X256630952Y-23488095D01*
X257202380Y-24059523D01*
X257202380Y-23440476D01*
G04 #@! TO.C,R20*
X253357142Y-21202380D02*
X253023809Y-20726190D01*
X252785714Y-21202380D02*
X252785714Y-20202380D01*
X253166666Y-20202380D01*
X253261904Y-20250000D01*
X253309523Y-20297619D01*
X253357142Y-20392857D01*
X253357142Y-20535714D01*
X253309523Y-20630952D01*
X253261904Y-20678571D01*
X253166666Y-20726190D01*
X252785714Y-20726190D01*
X253738095Y-20297619D02*
X253785714Y-20250000D01*
X253880952Y-20202380D01*
X254119047Y-20202380D01*
X254214285Y-20250000D01*
X254261904Y-20297619D01*
X254309523Y-20392857D01*
X254309523Y-20488095D01*
X254261904Y-20630952D01*
X253690476Y-21202380D01*
X254309523Y-21202380D01*
X254928571Y-20202380D02*
X255023809Y-20202380D01*
X255119047Y-20250000D01*
X255166666Y-20297619D01*
X255214285Y-20392857D01*
X255261904Y-20583333D01*
X255261904Y-20821428D01*
X255214285Y-21011904D01*
X255166666Y-21107142D01*
X255119047Y-21154761D01*
X255023809Y-21202380D01*
X254928571Y-21202380D01*
X254833333Y-21154761D01*
X254785714Y-21107142D01*
X254738095Y-21011904D01*
X254690476Y-20821428D01*
X254690476Y-20583333D01*
X254738095Y-20392857D01*
X254785714Y-20297619D01*
X254833333Y-20250000D01*
X254928571Y-20202380D01*
G04 #@! TO.C,U4*
X237968095Y-31342380D02*
X237968095Y-32151904D01*
X238015714Y-32247142D01*
X238063333Y-32294761D01*
X238158571Y-32342380D01*
X238349047Y-32342380D01*
X238444285Y-32294761D01*
X238491904Y-32247142D01*
X238539523Y-32151904D01*
X238539523Y-31342380D01*
X239444285Y-31675714D02*
X239444285Y-32342380D01*
X239206190Y-31294761D02*
X238968095Y-32009047D01*
X239587142Y-32009047D01*
X714064761Y-68416666D02*
X714540952Y-68416666D01*
X713969523Y-68702380D02*
X714302857Y-67702380D01*
X714636190Y-68702380D01*
X714969523Y-68702380D02*
X714969523Y-67702380D01*
X715207619Y-67702380D01*
X715350476Y-67750000D01*
X715445714Y-67845238D01*
X715493333Y-67940476D01*
X715540952Y-68130952D01*
X715540952Y-68273809D01*
X715493333Y-68464285D01*
X715445714Y-68559523D01*
X715350476Y-68654761D01*
X715207619Y-68702380D01*
X714969523Y-68702380D01*
X715826666Y-67702380D02*
X716160000Y-68702380D01*
X716493333Y-67702380D01*
X716731428Y-67702380D02*
X717398095Y-67702380D01*
X716969523Y-68702380D01*
X718302857Y-68702380D02*
X717731428Y-68702380D01*
X718017142Y-68702380D02*
X718017142Y-67702380D01*
X717921904Y-67845238D01*
X717826666Y-67940476D01*
X717731428Y-67988095D01*
X718683809Y-67797619D02*
X718731428Y-67750000D01*
X718826666Y-67702380D01*
X719064761Y-67702380D01*
X719160000Y-67750000D01*
X719207619Y-67797619D01*
X719255238Y-67892857D01*
X719255238Y-67988095D01*
X719207619Y-68130952D01*
X718636190Y-68702380D01*
X719255238Y-68702380D01*
X720160000Y-67702380D02*
X719683809Y-67702380D01*
X719636190Y-68178571D01*
X719683809Y-68130952D01*
X719779047Y-68083333D01*
X720017142Y-68083333D01*
X720112380Y-68130952D01*
X720160000Y-68178571D01*
X720207619Y-68273809D01*
X720207619Y-68511904D01*
X720160000Y-68607142D01*
X720112380Y-68654761D01*
X720017142Y-68702380D01*
X719779047Y-68702380D01*
X719683809Y-68654761D01*
X719636190Y-68607142D01*
X720636190Y-68321428D02*
X721398095Y-68321428D01*
X722017142Y-68702380D02*
X721921904Y-68654761D01*
X721874285Y-68559523D01*
X721874285Y-67702380D01*
X722826666Y-68035714D02*
X722826666Y-69035714D01*
X722826666Y-68654761D02*
X722731428Y-68702380D01*
X722540952Y-68702380D01*
X722445714Y-68654761D01*
X722398095Y-68607142D01*
X722350476Y-68511904D01*
X722350476Y-68226190D01*
X722398095Y-68130952D01*
X722445714Y-68083333D01*
X722540952Y-68035714D01*
X722731428Y-68035714D01*
X722826666Y-68083333D01*
X723160000Y-68035714D02*
X723540952Y-68035714D01*
X723302857Y-68702380D02*
X723302857Y-67845238D01*
X723350476Y-67750000D01*
X723445714Y-67702380D01*
X723540952Y-67702380D01*
X723874285Y-68035714D02*
X723874285Y-69035714D01*
X723874285Y-68083333D02*
X723969523Y-68035714D01*
X724160000Y-68035714D01*
X724255238Y-68083333D01*
X724302857Y-68130952D01*
X724350476Y-68226190D01*
X724350476Y-68511904D01*
X724302857Y-68607142D01*
X724255238Y-68654761D01*
X724160000Y-68702380D01*
X723969523Y-68702380D01*
X723874285Y-68654761D01*
X725207619Y-68035714D02*
X725207619Y-68702380D01*
X724969523Y-67654761D02*
X724731428Y-68369047D01*
X725350476Y-68369047D01*
X725874285Y-68130952D02*
X725779047Y-68083333D01*
X725731428Y-68035714D01*
X725683809Y-67940476D01*
X725683809Y-67892857D01*
X725731428Y-67797619D01*
X725779047Y-67750000D01*
X725874285Y-67702380D01*
X726064761Y-67702380D01*
X726160000Y-67750000D01*
X726207619Y-67797619D01*
X726255238Y-67892857D01*
X726255238Y-67940476D01*
X726207619Y-68035714D01*
X726160000Y-68083333D01*
X726064761Y-68130952D01*
X725874285Y-68130952D01*
X725779047Y-68178571D01*
X725731428Y-68226190D01*
X725683809Y-68321428D01*
X725683809Y-68511904D01*
X725731428Y-68607142D01*
X725779047Y-68654761D01*
X725874285Y-68702380D01*
X726064761Y-68702380D01*
X726160000Y-68654761D01*
X726207619Y-68607142D01*
X726255238Y-68511904D01*
X726255238Y-68321428D01*
X726207619Y-68226190D01*
X726160000Y-68178571D01*
X726064761Y-68130952D01*
X240182000Y-28491380D02*
X240182000Y-28729476D01*
X239943904Y-28634238D02*
X240182000Y-28729476D01*
X240420095Y-28634238D01*
X240039142Y-28919952D02*
X240182000Y-28729476D01*
X240324857Y-28919952D01*
X240182000Y-28491380D02*
X240182000Y-28729476D01*
X239943904Y-28634238D02*
X240182000Y-28729476D01*
X240420095Y-28634238D01*
X240039142Y-28919952D02*
X240182000Y-28729476D01*
X240324857Y-28919952D01*
G04 #@! TO.C,R18*
X250452380Y-43142857D02*
X249976190Y-43476190D01*
X250452380Y-43714285D02*
X249452380Y-43714285D01*
X249452380Y-43333333D01*
X249500000Y-43238095D01*
X249547619Y-43190476D01*
X249642857Y-43142857D01*
X249785714Y-43142857D01*
X249880952Y-43190476D01*
X249928571Y-43238095D01*
X249976190Y-43333333D01*
X249976190Y-43714285D01*
X250452380Y-42190476D02*
X250452380Y-42761904D01*
X250452380Y-42476190D02*
X249452380Y-42476190D01*
X249595238Y-42571428D01*
X249690476Y-42666666D01*
X249738095Y-42761904D01*
X249880952Y-41619047D02*
X249833333Y-41714285D01*
X249785714Y-41761904D01*
X249690476Y-41809523D01*
X249642857Y-41809523D01*
X249547619Y-41761904D01*
X249500000Y-41714285D01*
X249452380Y-41619047D01*
X249452380Y-41428571D01*
X249500000Y-41333333D01*
X249547619Y-41285714D01*
X249642857Y-41238095D01*
X249690476Y-41238095D01*
X249785714Y-41285714D01*
X249833333Y-41333333D01*
X249880952Y-41428571D01*
X249880952Y-41619047D01*
X249928571Y-41714285D01*
X249976190Y-41761904D01*
X250071428Y-41809523D01*
X250261904Y-41809523D01*
X250357142Y-41761904D01*
X250404761Y-41714285D01*
X250452380Y-41619047D01*
X250452380Y-41428571D01*
X250404761Y-41333333D01*
X250357142Y-41285714D01*
X250261904Y-41238095D01*
X250071428Y-41238095D01*
X249976190Y-41285714D01*
X249928571Y-41333333D01*
X249880952Y-41428571D01*
G04 #@! TO.C,R1*
X251952380Y-21666666D02*
X251476190Y-22000000D01*
X251952380Y-22238095D02*
X250952380Y-22238095D01*
X250952380Y-21857142D01*
X251000000Y-21761904D01*
X251047619Y-21714285D01*
X251142857Y-21666666D01*
X251285714Y-21666666D01*
X251380952Y-21714285D01*
X251428571Y-21761904D01*
X251476190Y-21857142D01*
X251476190Y-22238095D01*
X251952380Y-20714285D02*
X251952380Y-21285714D01*
X251952380Y-21000000D02*
X250952380Y-21000000D01*
X251095238Y-21095238D01*
X251190476Y-21190476D01*
X251238095Y-21285714D01*
G04 #@! TO.C,C32*
X245107142Y-23892857D02*
X245154761Y-23940476D01*
X245202380Y-24083333D01*
X245202380Y-24178571D01*
X245154761Y-24321428D01*
X245059523Y-24416666D01*
X244964285Y-24464285D01*
X244773809Y-24511904D01*
X244630952Y-24511904D01*
X244440476Y-24464285D01*
X244345238Y-24416666D01*
X244250000Y-24321428D01*
X244202380Y-24178571D01*
X244202380Y-24083333D01*
X244250000Y-23940476D01*
X244297619Y-23892857D01*
X244202380Y-23559523D02*
X244202380Y-22940476D01*
X244583333Y-23273809D01*
X244583333Y-23130952D01*
X244630952Y-23035714D01*
X244678571Y-22988095D01*
X244773809Y-22940476D01*
X245011904Y-22940476D01*
X245107142Y-22988095D01*
X245154761Y-23035714D01*
X245202380Y-23130952D01*
X245202380Y-23416666D01*
X245154761Y-23511904D01*
X245107142Y-23559523D01*
X244297619Y-22559523D02*
X244250000Y-22511904D01*
X244202380Y-22416666D01*
X244202380Y-22178571D01*
X244250000Y-22083333D01*
X244297619Y-22035714D01*
X244392857Y-21988095D01*
X244488095Y-21988095D01*
X244630952Y-22035714D01*
X245202380Y-22607142D01*
X245202380Y-21988095D01*
G04 #@! TO.C,U8*
X128352380Y-82761904D02*
X129161904Y-82761904D01*
X129257142Y-82714285D01*
X129304761Y-82666666D01*
X129352380Y-82571428D01*
X129352380Y-82380952D01*
X129304761Y-82285714D01*
X129257142Y-82238095D01*
X129161904Y-82190476D01*
X128352380Y-82190476D01*
X128780952Y-81571428D02*
X128733333Y-81666666D01*
X128685714Y-81714285D01*
X128590476Y-81761904D01*
X128542857Y-81761904D01*
X128447619Y-81714285D01*
X128400000Y-81666666D01*
X128352380Y-81571428D01*
X128352380Y-81380952D01*
X128400000Y-81285714D01*
X128447619Y-81238095D01*
X128542857Y-81190476D01*
X128590476Y-81190476D01*
X128685714Y-81238095D01*
X128733333Y-81285714D01*
X128780952Y-81380952D01*
X128780952Y-81571428D01*
X128828571Y-81666666D01*
X128876190Y-81714285D01*
X128971428Y-81761904D01*
X129161904Y-81761904D01*
X129257142Y-81714285D01*
X129304761Y-81666666D01*
X129352380Y-81571428D01*
X129352380Y-81380952D01*
X129304761Y-81285714D01*
X129257142Y-81238095D01*
X129161904Y-81190476D01*
X128971428Y-81190476D01*
X128876190Y-81238095D01*
X128828571Y-81285714D01*
X128780952Y-81380952D01*
G04 #@! TO.C,U11*
X173202380Y-83238095D02*
X174011904Y-83238095D01*
X174107142Y-83190476D01*
X174154761Y-83142857D01*
X174202380Y-83047619D01*
X174202380Y-82857142D01*
X174154761Y-82761904D01*
X174107142Y-82714285D01*
X174011904Y-82666666D01*
X173202380Y-82666666D01*
X174202380Y-81666666D02*
X174202380Y-82238095D01*
X174202380Y-81952380D02*
X173202380Y-81952380D01*
X173345238Y-82047619D01*
X173440476Y-82142857D01*
X173488095Y-82238095D01*
X174202380Y-80714285D02*
X174202380Y-81285714D01*
X174202380Y-81000000D02*
X173202380Y-81000000D01*
X173345238Y-81095238D01*
X173440476Y-81190476D01*
X173488095Y-81285714D01*
G04 #@! TO.C,U10*
X159602380Y-83388095D02*
X160411904Y-83388095D01*
X160507142Y-83340476D01*
X160554761Y-83292857D01*
X160602380Y-83197619D01*
X160602380Y-83007142D01*
X160554761Y-82911904D01*
X160507142Y-82864285D01*
X160411904Y-82816666D01*
X159602380Y-82816666D01*
X160602380Y-81816666D02*
X160602380Y-82388095D01*
X160602380Y-82102380D02*
X159602380Y-82102380D01*
X159745238Y-82197619D01*
X159840476Y-82292857D01*
X159888095Y-82388095D01*
X159602380Y-81197619D02*
X159602380Y-81102380D01*
X159650000Y-81007142D01*
X159697619Y-80959523D01*
X159792857Y-80911904D01*
X159983333Y-80864285D01*
X160221428Y-80864285D01*
X160411904Y-80911904D01*
X160507142Y-80959523D01*
X160554761Y-81007142D01*
X160602380Y-81102380D01*
X160602380Y-81197619D01*
X160554761Y-81292857D01*
X160507142Y-81340476D01*
X160411904Y-81388095D01*
X160221428Y-81435714D01*
X159983333Y-81435714D01*
X159792857Y-81388095D01*
X159697619Y-81340476D01*
X159650000Y-81292857D01*
X159602380Y-81197619D01*
G04 #@! TO.C,U9*
X146752380Y-83061904D02*
X147561904Y-83061904D01*
X147657142Y-83014285D01*
X147704761Y-82966666D01*
X147752380Y-82871428D01*
X147752380Y-82680952D01*
X147704761Y-82585714D01*
X147657142Y-82538095D01*
X147561904Y-82490476D01*
X146752380Y-82490476D01*
X147752380Y-81966666D02*
X147752380Y-81776190D01*
X147704761Y-81680952D01*
X147657142Y-81633333D01*
X147514285Y-81538095D01*
X147323809Y-81490476D01*
X146942857Y-81490476D01*
X146847619Y-81538095D01*
X146800000Y-81585714D01*
X146752380Y-81680952D01*
X146752380Y-81871428D01*
X146800000Y-81966666D01*
X146847619Y-82014285D01*
X146942857Y-82061904D01*
X147180952Y-82061904D01*
X147276190Y-82014285D01*
X147323809Y-81966666D01*
X147371428Y-81871428D01*
X147371428Y-81680952D01*
X147323809Y-81585714D01*
X147276190Y-81538095D01*
X147180952Y-81490476D01*
G04 #@! TO.C,U12*
X184602380Y-83088095D02*
X185411904Y-83088095D01*
X185507142Y-83040476D01*
X185554761Y-82992857D01*
X185602380Y-82897619D01*
X185602380Y-82707142D01*
X185554761Y-82611904D01*
X185507142Y-82564285D01*
X185411904Y-82516666D01*
X184602380Y-82516666D01*
X185602380Y-81516666D02*
X185602380Y-82088095D01*
X185602380Y-81802380D02*
X184602380Y-81802380D01*
X184745238Y-81897619D01*
X184840476Y-81992857D01*
X184888095Y-82088095D01*
X184697619Y-81135714D02*
X184650000Y-81088095D01*
X184602380Y-80992857D01*
X184602380Y-80754761D01*
X184650000Y-80659523D01*
X184697619Y-80611904D01*
X184792857Y-80564285D01*
X184888095Y-80564285D01*
X185030952Y-80611904D01*
X185602380Y-81183333D01*
X185602380Y-80564285D01*
G04 #@! TO.C,U1*
X121152380Y-71661904D02*
X121961904Y-71661904D01*
X122057142Y-71614285D01*
X122104761Y-71566666D01*
X122152380Y-71471428D01*
X122152380Y-71280952D01*
X122104761Y-71185714D01*
X122057142Y-71138095D01*
X121961904Y-71090476D01*
X121152380Y-71090476D01*
X122152380Y-70090476D02*
X122152380Y-70661904D01*
X122152380Y-70376190D02*
X121152380Y-70376190D01*
X121295238Y-70471428D01*
X121390476Y-70566666D01*
X121438095Y-70661904D01*
G04 #@! TO.C,C31*
X203657142Y-84957142D02*
X203609523Y-85004761D01*
X203466666Y-85052380D01*
X203371428Y-85052380D01*
X203228571Y-85004761D01*
X203133333Y-84909523D01*
X203085714Y-84814285D01*
X203038095Y-84623809D01*
X203038095Y-84480952D01*
X203085714Y-84290476D01*
X203133333Y-84195238D01*
X203228571Y-84100000D01*
X203371428Y-84052380D01*
X203466666Y-84052380D01*
X203609523Y-84100000D01*
X203657142Y-84147619D01*
X203990476Y-84052380D02*
X204609523Y-84052380D01*
X204276190Y-84433333D01*
X204419047Y-84433333D01*
X204514285Y-84480952D01*
X204561904Y-84528571D01*
X204609523Y-84623809D01*
X204609523Y-84861904D01*
X204561904Y-84957142D01*
X204514285Y-85004761D01*
X204419047Y-85052380D01*
X204133333Y-85052380D01*
X204038095Y-85004761D01*
X203990476Y-84957142D01*
X205561904Y-85052380D02*
X204990476Y-85052380D01*
X205276190Y-85052380D02*
X205276190Y-84052380D01*
X205180952Y-84195238D01*
X205085714Y-84290476D01*
X204990476Y-84338095D01*
G04 #@! TO.C,C24*
X162357142Y-70542857D02*
X162404761Y-70590476D01*
X162452380Y-70733333D01*
X162452380Y-70828571D01*
X162404761Y-70971428D01*
X162309523Y-71066666D01*
X162214285Y-71114285D01*
X162023809Y-71161904D01*
X161880952Y-71161904D01*
X161690476Y-71114285D01*
X161595238Y-71066666D01*
X161500000Y-70971428D01*
X161452380Y-70828571D01*
X161452380Y-70733333D01*
X161500000Y-70590476D01*
X161547619Y-70542857D01*
X161547619Y-70161904D02*
X161500000Y-70114285D01*
X161452380Y-70019047D01*
X161452380Y-69780952D01*
X161500000Y-69685714D01*
X161547619Y-69638095D01*
X161642857Y-69590476D01*
X161738095Y-69590476D01*
X161880952Y-69638095D01*
X162452380Y-70209523D01*
X162452380Y-69590476D01*
X161785714Y-68733333D02*
X162452380Y-68733333D01*
X161404761Y-68971428D02*
X162119047Y-69209523D01*
X162119047Y-68590476D01*
G04 #@! TO.C,J9*
X207552380Y-79783333D02*
X208266666Y-79783333D01*
X208409523Y-79830952D01*
X208504761Y-79926190D01*
X208552380Y-80069047D01*
X208552380Y-80164285D01*
X208552380Y-79259523D02*
X208552380Y-79069047D01*
X208504761Y-78973809D01*
X208457142Y-78926190D01*
X208314285Y-78830952D01*
X208123809Y-78783333D01*
X207742857Y-78783333D01*
X207647619Y-78830952D01*
X207600000Y-78878571D01*
X207552380Y-78973809D01*
X207552380Y-79164285D01*
X207600000Y-79259523D01*
X207647619Y-79307142D01*
X207742857Y-79354761D01*
X207980952Y-79354761D01*
X208076190Y-79307142D01*
X208123809Y-79259523D01*
X208171428Y-79164285D01*
X208171428Y-78973809D01*
X208123809Y-78878571D01*
X208076190Y-78830952D01*
X207980952Y-78783333D01*
G04 #@! TO.C,C30*
X141357142Y-64857142D02*
X141309523Y-64904761D01*
X141166666Y-64952380D01*
X141071428Y-64952380D01*
X140928571Y-64904761D01*
X140833333Y-64809523D01*
X140785714Y-64714285D01*
X140738095Y-64523809D01*
X140738095Y-64380952D01*
X140785714Y-64190476D01*
X140833333Y-64095238D01*
X140928571Y-64000000D01*
X141071428Y-63952380D01*
X141166666Y-63952380D01*
X141309523Y-64000000D01*
X141357142Y-64047619D01*
X141690476Y-63952380D02*
X142309523Y-63952380D01*
X141976190Y-64333333D01*
X142119047Y-64333333D01*
X142214285Y-64380952D01*
X142261904Y-64428571D01*
X142309523Y-64523809D01*
X142309523Y-64761904D01*
X142261904Y-64857142D01*
X142214285Y-64904761D01*
X142119047Y-64952380D01*
X141833333Y-64952380D01*
X141738095Y-64904761D01*
X141690476Y-64857142D01*
X142928571Y-63952380D02*
X143023809Y-63952380D01*
X143119047Y-64000000D01*
X143166666Y-64047619D01*
X143214285Y-64142857D01*
X143261904Y-64333333D01*
X143261904Y-64571428D01*
X143214285Y-64761904D01*
X143166666Y-64857142D01*
X143119047Y-64904761D01*
X143023809Y-64952380D01*
X142928571Y-64952380D01*
X142833333Y-64904761D01*
X142785714Y-64857142D01*
X142738095Y-64761904D01*
X142690476Y-64571428D01*
X142690476Y-64333333D01*
X142738095Y-64142857D01*
X142785714Y-64047619D01*
X142833333Y-64000000D01*
X142928571Y-63952380D01*
G04 #@! TO.C,C29*
X256107142Y-31607142D02*
X256059523Y-31654761D01*
X255916666Y-31702380D01*
X255821428Y-31702380D01*
X255678571Y-31654761D01*
X255583333Y-31559523D01*
X255535714Y-31464285D01*
X255488095Y-31273809D01*
X255488095Y-31130952D01*
X255535714Y-30940476D01*
X255583333Y-30845238D01*
X255678571Y-30750000D01*
X255821428Y-30702380D01*
X255916666Y-30702380D01*
X256059523Y-30750000D01*
X256107142Y-30797619D01*
X256488095Y-30797619D02*
X256535714Y-30750000D01*
X256630952Y-30702380D01*
X256869047Y-30702380D01*
X256964285Y-30750000D01*
X257011904Y-30797619D01*
X257059523Y-30892857D01*
X257059523Y-30988095D01*
X257011904Y-31130952D01*
X256440476Y-31702380D01*
X257059523Y-31702380D01*
X257535714Y-31702380D02*
X257726190Y-31702380D01*
X257821428Y-31654761D01*
X257869047Y-31607142D01*
X257964285Y-31464285D01*
X258011904Y-31273809D01*
X258011904Y-30892857D01*
X257964285Y-30797619D01*
X257916666Y-30750000D01*
X257821428Y-30702380D01*
X257630952Y-30702380D01*
X257535714Y-30750000D01*
X257488095Y-30797619D01*
X257440476Y-30892857D01*
X257440476Y-31130952D01*
X257488095Y-31226190D01*
X257535714Y-31273809D01*
X257630952Y-31321428D01*
X257821428Y-31321428D01*
X257916666Y-31273809D01*
X257964285Y-31226190D01*
X258011904Y-31130952D01*
G04 #@! TO.C,J8*
X115266666Y-77312380D02*
X115266666Y-78026666D01*
X115219047Y-78169523D01*
X115123809Y-78264761D01*
X114980952Y-78312380D01*
X114885714Y-78312380D01*
X115885714Y-77740952D02*
X115790476Y-77693333D01*
X115742857Y-77645714D01*
X115695238Y-77550476D01*
X115695238Y-77502857D01*
X115742857Y-77407619D01*
X115790476Y-77360000D01*
X115885714Y-77312380D01*
X116076190Y-77312380D01*
X116171428Y-77360000D01*
X116219047Y-77407619D01*
X116266666Y-77502857D01*
X116266666Y-77550476D01*
X116219047Y-77645714D01*
X116171428Y-77693333D01*
X116076190Y-77740952D01*
X115885714Y-77740952D01*
X115790476Y-77788571D01*
X115742857Y-77836190D01*
X115695238Y-77931428D01*
X115695238Y-78121904D01*
X115742857Y-78217142D01*
X115790476Y-78264761D01*
X115885714Y-78312380D01*
X116076190Y-78312380D01*
X116171428Y-78264761D01*
X116219047Y-78217142D01*
X116266666Y-78121904D01*
X116266666Y-77931428D01*
X116219047Y-77836190D01*
X116171428Y-77788571D01*
X116076190Y-77740952D01*
G04 #@! TO.C,C28*
X128757142Y-68542857D02*
X128804761Y-68590476D01*
X128852380Y-68733333D01*
X128852380Y-68828571D01*
X128804761Y-68971428D01*
X128709523Y-69066666D01*
X128614285Y-69114285D01*
X128423809Y-69161904D01*
X128280952Y-69161904D01*
X128090476Y-69114285D01*
X127995238Y-69066666D01*
X127900000Y-68971428D01*
X127852380Y-68828571D01*
X127852380Y-68733333D01*
X127900000Y-68590476D01*
X127947619Y-68542857D01*
X127947619Y-68161904D02*
X127900000Y-68114285D01*
X127852380Y-68019047D01*
X127852380Y-67780952D01*
X127900000Y-67685714D01*
X127947619Y-67638095D01*
X128042857Y-67590476D01*
X128138095Y-67590476D01*
X128280952Y-67638095D01*
X128852380Y-68209523D01*
X128852380Y-67590476D01*
X128280952Y-67019047D02*
X128233333Y-67114285D01*
X128185714Y-67161904D01*
X128090476Y-67209523D01*
X128042857Y-67209523D01*
X127947619Y-67161904D01*
X127900000Y-67114285D01*
X127852380Y-67019047D01*
X127852380Y-66828571D01*
X127900000Y-66733333D01*
X127947619Y-66685714D01*
X128042857Y-66638095D01*
X128090476Y-66638095D01*
X128185714Y-66685714D01*
X128233333Y-66733333D01*
X128280952Y-66828571D01*
X128280952Y-67019047D01*
X128328571Y-67114285D01*
X128376190Y-67161904D01*
X128471428Y-67209523D01*
X128661904Y-67209523D01*
X128757142Y-67161904D01*
X128804761Y-67114285D01*
X128852380Y-67019047D01*
X128852380Y-66828571D01*
X128804761Y-66733333D01*
X128757142Y-66685714D01*
X128661904Y-66638095D01*
X128471428Y-66638095D01*
X128376190Y-66685714D01*
X128328571Y-66733333D01*
X128280952Y-66828571D01*
G04 #@! TO.C,C27*
X146357142Y-82342857D02*
X146404761Y-82390476D01*
X146452380Y-82533333D01*
X146452380Y-82628571D01*
X146404761Y-82771428D01*
X146309523Y-82866666D01*
X146214285Y-82914285D01*
X146023809Y-82961904D01*
X145880952Y-82961904D01*
X145690476Y-82914285D01*
X145595238Y-82866666D01*
X145500000Y-82771428D01*
X145452380Y-82628571D01*
X145452380Y-82533333D01*
X145500000Y-82390476D01*
X145547619Y-82342857D01*
X145547619Y-81961904D02*
X145500000Y-81914285D01*
X145452380Y-81819047D01*
X145452380Y-81580952D01*
X145500000Y-81485714D01*
X145547619Y-81438095D01*
X145642857Y-81390476D01*
X145738095Y-81390476D01*
X145880952Y-81438095D01*
X146452380Y-82009523D01*
X146452380Y-81390476D01*
X145452380Y-81057142D02*
X145452380Y-80390476D01*
X146452380Y-80819047D01*
G04 #@! TO.C,C1*
X127257142Y-75866666D02*
X127304761Y-75914285D01*
X127352380Y-76057142D01*
X127352380Y-76152380D01*
X127304761Y-76295238D01*
X127209523Y-76390476D01*
X127114285Y-76438095D01*
X126923809Y-76485714D01*
X126780952Y-76485714D01*
X126590476Y-76438095D01*
X126495238Y-76390476D01*
X126400000Y-76295238D01*
X126352380Y-76152380D01*
X126352380Y-76057142D01*
X126400000Y-75914285D01*
X126447619Y-75866666D01*
X127352380Y-74914285D02*
X127352380Y-75485714D01*
X127352380Y-75200000D02*
X126352380Y-75200000D01*
X126495238Y-75295238D01*
X126590476Y-75390476D01*
X126638095Y-75485714D01*
G04 #@! TO.C,C25*
X175857142Y-70642857D02*
X175904761Y-70690476D01*
X175952380Y-70833333D01*
X175952380Y-70928571D01*
X175904761Y-71071428D01*
X175809523Y-71166666D01*
X175714285Y-71214285D01*
X175523809Y-71261904D01*
X175380952Y-71261904D01*
X175190476Y-71214285D01*
X175095238Y-71166666D01*
X175000000Y-71071428D01*
X174952380Y-70928571D01*
X174952380Y-70833333D01*
X175000000Y-70690476D01*
X175047619Y-70642857D01*
X175047619Y-70261904D02*
X175000000Y-70214285D01*
X174952380Y-70119047D01*
X174952380Y-69880952D01*
X175000000Y-69785714D01*
X175047619Y-69738095D01*
X175142857Y-69690476D01*
X175238095Y-69690476D01*
X175380952Y-69738095D01*
X175952380Y-70309523D01*
X175952380Y-69690476D01*
X174952380Y-68785714D02*
X174952380Y-69261904D01*
X175428571Y-69309523D01*
X175380952Y-69261904D01*
X175333333Y-69166666D01*
X175333333Y-68928571D01*
X175380952Y-68833333D01*
X175428571Y-68785714D01*
X175523809Y-68738095D01*
X175761904Y-68738095D01*
X175857142Y-68785714D01*
X175904761Y-68833333D01*
X175952380Y-68928571D01*
X175952380Y-69166666D01*
X175904761Y-69261904D01*
X175857142Y-69309523D01*
G04 #@! TO.C,C2*
X187257142Y-70566666D02*
X187304761Y-70614285D01*
X187352380Y-70757142D01*
X187352380Y-70852380D01*
X187304761Y-70995238D01*
X187209523Y-71090476D01*
X187114285Y-71138095D01*
X186923809Y-71185714D01*
X186780952Y-71185714D01*
X186590476Y-71138095D01*
X186495238Y-71090476D01*
X186400000Y-70995238D01*
X186352380Y-70852380D01*
X186352380Y-70757142D01*
X186400000Y-70614285D01*
X186447619Y-70566666D01*
X186447619Y-70185714D02*
X186400000Y-70138095D01*
X186352380Y-70042857D01*
X186352380Y-69804761D01*
X186400000Y-69709523D01*
X186447619Y-69661904D01*
X186542857Y-69614285D01*
X186638095Y-69614285D01*
X186780952Y-69661904D01*
X187352380Y-70233333D01*
X187352380Y-69614285D01*
G04 #@! TO.C,C26*
X122157142Y-73457142D02*
X122109523Y-73504761D01*
X121966666Y-73552380D01*
X121871428Y-73552380D01*
X121728571Y-73504761D01*
X121633333Y-73409523D01*
X121585714Y-73314285D01*
X121538095Y-73123809D01*
X121538095Y-72980952D01*
X121585714Y-72790476D01*
X121633333Y-72695238D01*
X121728571Y-72600000D01*
X121871428Y-72552380D01*
X121966666Y-72552380D01*
X122109523Y-72600000D01*
X122157142Y-72647619D01*
X122538095Y-72647619D02*
X122585714Y-72600000D01*
X122680952Y-72552380D01*
X122919047Y-72552380D01*
X123014285Y-72600000D01*
X123061904Y-72647619D01*
X123109523Y-72742857D01*
X123109523Y-72838095D01*
X123061904Y-72980952D01*
X122490476Y-73552380D01*
X123109523Y-73552380D01*
X123966666Y-72552380D02*
X123776190Y-72552380D01*
X123680952Y-72600000D01*
X123633333Y-72647619D01*
X123538095Y-72790476D01*
X123490476Y-72980952D01*
X123490476Y-73361904D01*
X123538095Y-73457142D01*
X123585714Y-73504761D01*
X123680952Y-73552380D01*
X123871428Y-73552380D01*
X123966666Y-73504761D01*
X124014285Y-73457142D01*
X124061904Y-73361904D01*
X124061904Y-73123809D01*
X124014285Y-73028571D01*
X123966666Y-72980952D01*
X123871428Y-72933333D01*
X123680952Y-72933333D01*
X123585714Y-72980952D01*
X123538095Y-73028571D01*
X123490476Y-73123809D01*
G04 #@! TO.C,R17*
X124457142Y-65752380D02*
X124123809Y-65276190D01*
X123885714Y-65752380D02*
X123885714Y-64752380D01*
X124266666Y-64752380D01*
X124361904Y-64800000D01*
X124409523Y-64847619D01*
X124457142Y-64942857D01*
X124457142Y-65085714D01*
X124409523Y-65180952D01*
X124361904Y-65228571D01*
X124266666Y-65276190D01*
X123885714Y-65276190D01*
X125409523Y-65752380D02*
X124838095Y-65752380D01*
X125123809Y-65752380D02*
X125123809Y-64752380D01*
X125028571Y-64895238D01*
X124933333Y-64990476D01*
X124838095Y-65038095D01*
X125742857Y-64752380D02*
X126409523Y-64752380D01*
X125980952Y-65752380D01*
G04 #@! TO.C,C22*
X141957142Y-69057142D02*
X141909523Y-69104761D01*
X141766666Y-69152380D01*
X141671428Y-69152380D01*
X141528571Y-69104761D01*
X141433333Y-69009523D01*
X141385714Y-68914285D01*
X141338095Y-68723809D01*
X141338095Y-68580952D01*
X141385714Y-68390476D01*
X141433333Y-68295238D01*
X141528571Y-68200000D01*
X141671428Y-68152380D01*
X141766666Y-68152380D01*
X141909523Y-68200000D01*
X141957142Y-68247619D01*
X142338095Y-68247619D02*
X142385714Y-68200000D01*
X142480952Y-68152380D01*
X142719047Y-68152380D01*
X142814285Y-68200000D01*
X142861904Y-68247619D01*
X142909523Y-68342857D01*
X142909523Y-68438095D01*
X142861904Y-68580952D01*
X142290476Y-69152380D01*
X142909523Y-69152380D01*
X143290476Y-68247619D02*
X143338095Y-68200000D01*
X143433333Y-68152380D01*
X143671428Y-68152380D01*
X143766666Y-68200000D01*
X143814285Y-68247619D01*
X143861904Y-68342857D01*
X143861904Y-68438095D01*
X143814285Y-68580952D01*
X143242857Y-69152380D01*
X143861904Y-69152380D01*
G04 #@! TO.C,C23*
X149257142Y-70642857D02*
X149304761Y-70690476D01*
X149352380Y-70833333D01*
X149352380Y-70928571D01*
X149304761Y-71071428D01*
X149209523Y-71166666D01*
X149114285Y-71214285D01*
X148923809Y-71261904D01*
X148780952Y-71261904D01*
X148590476Y-71214285D01*
X148495238Y-71166666D01*
X148400000Y-71071428D01*
X148352380Y-70928571D01*
X148352380Y-70833333D01*
X148400000Y-70690476D01*
X148447619Y-70642857D01*
X148447619Y-70261904D02*
X148400000Y-70214285D01*
X148352380Y-70119047D01*
X148352380Y-69880952D01*
X148400000Y-69785714D01*
X148447619Y-69738095D01*
X148542857Y-69690476D01*
X148638095Y-69690476D01*
X148780952Y-69738095D01*
X149352380Y-70309523D01*
X149352380Y-69690476D01*
X148352380Y-69357142D02*
X148352380Y-68738095D01*
X148733333Y-69071428D01*
X148733333Y-68928571D01*
X148780952Y-68833333D01*
X148828571Y-68785714D01*
X148923809Y-68738095D01*
X149161904Y-68738095D01*
X149257142Y-68785714D01*
X149304761Y-68833333D01*
X149352380Y-68928571D01*
X149352380Y-69214285D01*
X149304761Y-69309523D01*
X149257142Y-69357142D01*
G04 #@! TO.C,C3*
X144357142Y-81266666D02*
X144404761Y-81314285D01*
X144452380Y-81457142D01*
X144452380Y-81552380D01*
X144404761Y-81695238D01*
X144309523Y-81790476D01*
X144214285Y-81838095D01*
X144023809Y-81885714D01*
X143880952Y-81885714D01*
X143690476Y-81838095D01*
X143595238Y-81790476D01*
X143500000Y-81695238D01*
X143452380Y-81552380D01*
X143452380Y-81457142D01*
X143500000Y-81314285D01*
X143547619Y-81266666D01*
X143452380Y-80933333D02*
X143452380Y-80314285D01*
X143833333Y-80647619D01*
X143833333Y-80504761D01*
X143880952Y-80409523D01*
X143928571Y-80361904D01*
X144023809Y-80314285D01*
X144261904Y-80314285D01*
X144357142Y-80361904D01*
X144404761Y-80409523D01*
X144452380Y-80504761D01*
X144452380Y-80790476D01*
X144404761Y-80885714D01*
X144357142Y-80933333D01*
G04 #@! TO.C,C20*
X221137142Y-94707142D02*
X221089523Y-94754761D01*
X220946666Y-94802380D01*
X220851428Y-94802380D01*
X220708571Y-94754761D01*
X220613333Y-94659523D01*
X220565714Y-94564285D01*
X220518095Y-94373809D01*
X220518095Y-94230952D01*
X220565714Y-94040476D01*
X220613333Y-93945238D01*
X220708571Y-93850000D01*
X220851428Y-93802380D01*
X220946666Y-93802380D01*
X221089523Y-93850000D01*
X221137142Y-93897619D01*
X221518095Y-93897619D02*
X221565714Y-93850000D01*
X221660952Y-93802380D01*
X221899047Y-93802380D01*
X221994285Y-93850000D01*
X222041904Y-93897619D01*
X222089523Y-93992857D01*
X222089523Y-94088095D01*
X222041904Y-94230952D01*
X221470476Y-94802380D01*
X222089523Y-94802380D01*
X222708571Y-93802380D02*
X222803809Y-93802380D01*
X222899047Y-93850000D01*
X222946666Y-93897619D01*
X222994285Y-93992857D01*
X223041904Y-94183333D01*
X223041904Y-94421428D01*
X222994285Y-94611904D01*
X222946666Y-94707142D01*
X222899047Y-94754761D01*
X222803809Y-94802380D01*
X222708571Y-94802380D01*
X222613333Y-94754761D01*
X222565714Y-94707142D01*
X222518095Y-94611904D01*
X222470476Y-94421428D01*
X222470476Y-94183333D01*
X222518095Y-93992857D01*
X222565714Y-93897619D01*
X222613333Y-93850000D01*
X222708571Y-93802380D01*
G04 #@! TO.C,J7*
X225766666Y-88002380D02*
X225766666Y-88716666D01*
X225719047Y-88859523D01*
X225623809Y-88954761D01*
X225480952Y-89002380D01*
X225385714Y-89002380D01*
X226147619Y-88002380D02*
X226814285Y-88002380D01*
X226385714Y-89002380D01*
G04 #@! TO.C,R24*
X137852380Y-90542857D02*
X137376190Y-90876190D01*
X137852380Y-91114285D02*
X136852380Y-91114285D01*
X136852380Y-90733333D01*
X136900000Y-90638095D01*
X136947619Y-90590476D01*
X137042857Y-90542857D01*
X137185714Y-90542857D01*
X137280952Y-90590476D01*
X137328571Y-90638095D01*
X137376190Y-90733333D01*
X137376190Y-91114285D01*
X136947619Y-90161904D02*
X136900000Y-90114285D01*
X136852380Y-90019047D01*
X136852380Y-89780952D01*
X136900000Y-89685714D01*
X136947619Y-89638095D01*
X137042857Y-89590476D01*
X137138095Y-89590476D01*
X137280952Y-89638095D01*
X137852380Y-90209523D01*
X137852380Y-89590476D01*
X137185714Y-88733333D02*
X137852380Y-88733333D01*
X136804761Y-88971428D02*
X137519047Y-89209523D01*
X137519047Y-88590476D01*
G04 #@! TO.C,R25*
X136152380Y-90542857D02*
X135676190Y-90876190D01*
X136152380Y-91114285D02*
X135152380Y-91114285D01*
X135152380Y-90733333D01*
X135200000Y-90638095D01*
X135247619Y-90590476D01*
X135342857Y-90542857D01*
X135485714Y-90542857D01*
X135580952Y-90590476D01*
X135628571Y-90638095D01*
X135676190Y-90733333D01*
X135676190Y-91114285D01*
X135247619Y-90161904D02*
X135200000Y-90114285D01*
X135152380Y-90019047D01*
X135152380Y-89780952D01*
X135200000Y-89685714D01*
X135247619Y-89638095D01*
X135342857Y-89590476D01*
X135438095Y-89590476D01*
X135580952Y-89638095D01*
X136152380Y-90209523D01*
X136152380Y-89590476D01*
X135152380Y-88685714D02*
X135152380Y-89161904D01*
X135628571Y-89209523D01*
X135580952Y-89161904D01*
X135533333Y-89066666D01*
X135533333Y-88828571D01*
X135580952Y-88733333D01*
X135628571Y-88685714D01*
X135723809Y-88638095D01*
X135961904Y-88638095D01*
X136057142Y-88685714D01*
X136104761Y-88733333D01*
X136152380Y-88828571D01*
X136152380Y-89066666D01*
X136104761Y-89161904D01*
X136057142Y-89209523D01*
G04 #@! TO.C,R26*
X134352380Y-90542857D02*
X133876190Y-90876190D01*
X134352380Y-91114285D02*
X133352380Y-91114285D01*
X133352380Y-90733333D01*
X133400000Y-90638095D01*
X133447619Y-90590476D01*
X133542857Y-90542857D01*
X133685714Y-90542857D01*
X133780952Y-90590476D01*
X133828571Y-90638095D01*
X133876190Y-90733333D01*
X133876190Y-91114285D01*
X133447619Y-90161904D02*
X133400000Y-90114285D01*
X133352380Y-90019047D01*
X133352380Y-89780952D01*
X133400000Y-89685714D01*
X133447619Y-89638095D01*
X133542857Y-89590476D01*
X133638095Y-89590476D01*
X133780952Y-89638095D01*
X134352380Y-90209523D01*
X134352380Y-89590476D01*
X133352380Y-88733333D02*
X133352380Y-88923809D01*
X133400000Y-89019047D01*
X133447619Y-89066666D01*
X133590476Y-89161904D01*
X133780952Y-89209523D01*
X134161904Y-89209523D01*
X134257142Y-89161904D01*
X134304761Y-89114285D01*
X134352380Y-89019047D01*
X134352380Y-88828571D01*
X134304761Y-88733333D01*
X134257142Y-88685714D01*
X134161904Y-88638095D01*
X133923809Y-88638095D01*
X133828571Y-88685714D01*
X133780952Y-88733333D01*
X133733333Y-88828571D01*
X133733333Y-89019047D01*
X133780952Y-89114285D01*
X133828571Y-89161904D01*
X133923809Y-89209523D01*
G04 #@! TO.C,R23*
X139752380Y-90542857D02*
X139276190Y-90876190D01*
X139752380Y-91114285D02*
X138752380Y-91114285D01*
X138752380Y-90733333D01*
X138800000Y-90638095D01*
X138847619Y-90590476D01*
X138942857Y-90542857D01*
X139085714Y-90542857D01*
X139180952Y-90590476D01*
X139228571Y-90638095D01*
X139276190Y-90733333D01*
X139276190Y-91114285D01*
X138847619Y-90161904D02*
X138800000Y-90114285D01*
X138752380Y-90019047D01*
X138752380Y-89780952D01*
X138800000Y-89685714D01*
X138847619Y-89638095D01*
X138942857Y-89590476D01*
X139038095Y-89590476D01*
X139180952Y-89638095D01*
X139752380Y-90209523D01*
X139752380Y-89590476D01*
X138752380Y-89257142D02*
X138752380Y-88638095D01*
X139133333Y-88971428D01*
X139133333Y-88828571D01*
X139180952Y-88733333D01*
X139228571Y-88685714D01*
X139323809Y-88638095D01*
X139561904Y-88638095D01*
X139657142Y-88685714D01*
X139704761Y-88733333D01*
X139752380Y-88828571D01*
X139752380Y-89114285D01*
X139704761Y-89209523D01*
X139657142Y-89257142D01*
G04 #@! TO.C,C21*
X229857142Y-40157142D02*
X229809523Y-40204761D01*
X229666666Y-40252380D01*
X229571428Y-40252380D01*
X229428571Y-40204761D01*
X229333333Y-40109523D01*
X229285714Y-40014285D01*
X229238095Y-39823809D01*
X229238095Y-39680952D01*
X229285714Y-39490476D01*
X229333333Y-39395238D01*
X229428571Y-39300000D01*
X229571428Y-39252380D01*
X229666666Y-39252380D01*
X229809523Y-39300000D01*
X229857142Y-39347619D01*
X230238095Y-39347619D02*
X230285714Y-39300000D01*
X230380952Y-39252380D01*
X230619047Y-39252380D01*
X230714285Y-39300000D01*
X230761904Y-39347619D01*
X230809523Y-39442857D01*
X230809523Y-39538095D01*
X230761904Y-39680952D01*
X230190476Y-40252380D01*
X230809523Y-40252380D01*
X231761904Y-40252380D02*
X231190476Y-40252380D01*
X231476190Y-40252380D02*
X231476190Y-39252380D01*
X231380952Y-39395238D01*
X231285714Y-39490476D01*
X231190476Y-39538095D01*
G04 #@! TO.C,JCD1*
X127122380Y-30063333D02*
X127836666Y-30063333D01*
X127979523Y-30110952D01*
X128074761Y-30206190D01*
X128122380Y-30349047D01*
X128122380Y-30444285D01*
X128027142Y-29015714D02*
X128074761Y-29063333D01*
X128122380Y-29206190D01*
X128122380Y-29301428D01*
X128074761Y-29444285D01*
X127979523Y-29539523D01*
X127884285Y-29587142D01*
X127693809Y-29634761D01*
X127550952Y-29634761D01*
X127360476Y-29587142D01*
X127265238Y-29539523D01*
X127170000Y-29444285D01*
X127122380Y-29301428D01*
X127122380Y-29206190D01*
X127170000Y-29063333D01*
X127217619Y-29015714D01*
X128122380Y-28587142D02*
X127122380Y-28587142D01*
X127122380Y-28349047D01*
X127170000Y-28206190D01*
X127265238Y-28110952D01*
X127360476Y-28063333D01*
X127550952Y-28015714D01*
X127693809Y-28015714D01*
X127884285Y-28063333D01*
X127979523Y-28110952D01*
X128074761Y-28206190D01*
X128122380Y-28349047D01*
X128122380Y-28587142D01*
X128122380Y-27063333D02*
X128122380Y-27634761D01*
X128122380Y-27349047D02*
X127122380Y-27349047D01*
X127265238Y-27444285D01*
X127360476Y-27539523D01*
X127408095Y-27634761D01*
G04 #@! TO.C,C19*
X171732142Y-35387142D02*
X171684523Y-35434761D01*
X171541666Y-35482380D01*
X171446428Y-35482380D01*
X171303571Y-35434761D01*
X171208333Y-35339523D01*
X171160714Y-35244285D01*
X171113095Y-35053809D01*
X171113095Y-34910952D01*
X171160714Y-34720476D01*
X171208333Y-34625238D01*
X171303571Y-34530000D01*
X171446428Y-34482380D01*
X171541666Y-34482380D01*
X171684523Y-34530000D01*
X171732142Y-34577619D01*
X172684523Y-35482380D02*
X172113095Y-35482380D01*
X172398809Y-35482380D02*
X172398809Y-34482380D01*
X172303571Y-34625238D01*
X172208333Y-34720476D01*
X172113095Y-34768095D01*
X173160714Y-35482380D02*
X173351190Y-35482380D01*
X173446428Y-35434761D01*
X173494047Y-35387142D01*
X173589285Y-35244285D01*
X173636904Y-35053809D01*
X173636904Y-34672857D01*
X173589285Y-34577619D01*
X173541666Y-34530000D01*
X173446428Y-34482380D01*
X173255952Y-34482380D01*
X173160714Y-34530000D01*
X173113095Y-34577619D01*
X173065476Y-34672857D01*
X173065476Y-34910952D01*
X173113095Y-35006190D01*
X173160714Y-35053809D01*
X173255952Y-35101428D01*
X173446428Y-35101428D01*
X173541666Y-35053809D01*
X173589285Y-35006190D01*
X173636904Y-34910952D01*
G04 #@! TO.C,J1*
X229742380Y-28833333D02*
X230456666Y-28833333D01*
X230599523Y-28880952D01*
X230694761Y-28976190D01*
X230742380Y-29119047D01*
X230742380Y-29214285D01*
X230742380Y-27833333D02*
X230742380Y-28404761D01*
X230742380Y-28119047D02*
X229742380Y-28119047D01*
X229885238Y-28214285D01*
X229980476Y-28309523D01*
X230028095Y-28404761D01*
G04 #@! TO.C,C17*
X257097142Y-89607142D02*
X257049523Y-89654761D01*
X256906666Y-89702380D01*
X256811428Y-89702380D01*
X256668571Y-89654761D01*
X256573333Y-89559523D01*
X256525714Y-89464285D01*
X256478095Y-89273809D01*
X256478095Y-89130952D01*
X256525714Y-88940476D01*
X256573333Y-88845238D01*
X256668571Y-88750000D01*
X256811428Y-88702380D01*
X256906666Y-88702380D01*
X257049523Y-88750000D01*
X257097142Y-88797619D01*
X258049523Y-89702380D02*
X257478095Y-89702380D01*
X257763809Y-89702380D02*
X257763809Y-88702380D01*
X257668571Y-88845238D01*
X257573333Y-88940476D01*
X257478095Y-88988095D01*
X258382857Y-88702380D02*
X259049523Y-88702380D01*
X258620952Y-89702380D01*
G04 #@! TO.C,C18*
X252307142Y-80347142D02*
X252259523Y-80394761D01*
X252116666Y-80442380D01*
X252021428Y-80442380D01*
X251878571Y-80394761D01*
X251783333Y-80299523D01*
X251735714Y-80204285D01*
X251688095Y-80013809D01*
X251688095Y-79870952D01*
X251735714Y-79680476D01*
X251783333Y-79585238D01*
X251878571Y-79490000D01*
X252021428Y-79442380D01*
X252116666Y-79442380D01*
X252259523Y-79490000D01*
X252307142Y-79537619D01*
X253259523Y-80442380D02*
X252688095Y-80442380D01*
X252973809Y-80442380D02*
X252973809Y-79442380D01*
X252878571Y-79585238D01*
X252783333Y-79680476D01*
X252688095Y-79728095D01*
X253830952Y-79870952D02*
X253735714Y-79823333D01*
X253688095Y-79775714D01*
X253640476Y-79680476D01*
X253640476Y-79632857D01*
X253688095Y-79537619D01*
X253735714Y-79490000D01*
X253830952Y-79442380D01*
X254021428Y-79442380D01*
X254116666Y-79490000D01*
X254164285Y-79537619D01*
X254211904Y-79632857D01*
X254211904Y-79680476D01*
X254164285Y-79775714D01*
X254116666Y-79823333D01*
X254021428Y-79870952D01*
X253830952Y-79870952D01*
X253735714Y-79918571D01*
X253688095Y-79966190D01*
X253640476Y-80061428D01*
X253640476Y-80251904D01*
X253688095Y-80347142D01*
X253735714Y-80394761D01*
X253830952Y-80442380D01*
X254021428Y-80442380D01*
X254116666Y-80394761D01*
X254164285Y-80347142D01*
X254211904Y-80251904D01*
X254211904Y-80061428D01*
X254164285Y-79966190D01*
X254116666Y-79918571D01*
X254021428Y-79870952D01*
G04 #@! TO.C,C16*
X260967142Y-86617142D02*
X260919523Y-86664761D01*
X260776666Y-86712380D01*
X260681428Y-86712380D01*
X260538571Y-86664761D01*
X260443333Y-86569523D01*
X260395714Y-86474285D01*
X260348095Y-86283809D01*
X260348095Y-86140952D01*
X260395714Y-85950476D01*
X260443333Y-85855238D01*
X260538571Y-85760000D01*
X260681428Y-85712380D01*
X260776666Y-85712380D01*
X260919523Y-85760000D01*
X260967142Y-85807619D01*
X261919523Y-86712380D02*
X261348095Y-86712380D01*
X261633809Y-86712380D02*
X261633809Y-85712380D01*
X261538571Y-85855238D01*
X261443333Y-85950476D01*
X261348095Y-85998095D01*
X262776666Y-85712380D02*
X262586190Y-85712380D01*
X262490952Y-85760000D01*
X262443333Y-85807619D01*
X262348095Y-85950476D01*
X262300476Y-86140952D01*
X262300476Y-86521904D01*
X262348095Y-86617142D01*
X262395714Y-86664761D01*
X262490952Y-86712380D01*
X262681428Y-86712380D01*
X262776666Y-86664761D01*
X262824285Y-86617142D01*
X262871904Y-86521904D01*
X262871904Y-86283809D01*
X262824285Y-86188571D01*
X262776666Y-86140952D01*
X262681428Y-86093333D01*
X262490952Y-86093333D01*
X262395714Y-86140952D01*
X262348095Y-86188571D01*
X262300476Y-86283809D01*
G04 #@! TO.C,FB1*
X256326666Y-82418571D02*
X255993333Y-82418571D01*
X255993333Y-82942380D02*
X255993333Y-81942380D01*
X256469523Y-81942380D01*
X257183809Y-82418571D02*
X257326666Y-82466190D01*
X257374285Y-82513809D01*
X257421904Y-82609047D01*
X257421904Y-82751904D01*
X257374285Y-82847142D01*
X257326666Y-82894761D01*
X257231428Y-82942380D01*
X256850476Y-82942380D01*
X256850476Y-81942380D01*
X257183809Y-81942380D01*
X257279047Y-81990000D01*
X257326666Y-82037619D01*
X257374285Y-82132857D01*
X257374285Y-82228095D01*
X257326666Y-82323333D01*
X257279047Y-82370952D01*
X257183809Y-82418571D01*
X256850476Y-82418571D01*
X258374285Y-82942380D02*
X257802857Y-82942380D01*
X258088571Y-82942380D02*
X258088571Y-81942380D01*
X257993333Y-82085238D01*
X257898095Y-82180476D01*
X257802857Y-82228095D01*
G04 #@! TO.C,U7*
X251468095Y-87422380D02*
X251468095Y-88231904D01*
X251515714Y-88327142D01*
X251563333Y-88374761D01*
X251658571Y-88422380D01*
X251849047Y-88422380D01*
X251944285Y-88374761D01*
X251991904Y-88327142D01*
X252039523Y-88231904D01*
X252039523Y-87422380D01*
X252420476Y-87422380D02*
X253087142Y-87422380D01*
X252658571Y-88422380D01*
G04 #@! TO.C,U6*
X265538095Y-81402380D02*
X265538095Y-82211904D01*
X265585714Y-82307142D01*
X265633333Y-82354761D01*
X265728571Y-82402380D01*
X265919047Y-82402380D01*
X266014285Y-82354761D01*
X266061904Y-82307142D01*
X266109523Y-82211904D01*
X266109523Y-81402380D01*
X267014285Y-81402380D02*
X266823809Y-81402380D01*
X266728571Y-81450000D01*
X266680952Y-81497619D01*
X266585714Y-81640476D01*
X266538095Y-81830952D01*
X266538095Y-82211904D01*
X266585714Y-82307142D01*
X266633333Y-82354761D01*
X266728571Y-82402380D01*
X266919047Y-82402380D01*
X267014285Y-82354761D01*
X267061904Y-82307142D01*
X267109523Y-82211904D01*
X267109523Y-81973809D01*
X267061904Y-81878571D01*
X267014285Y-81830952D01*
X266919047Y-81783333D01*
X266728571Y-81783333D01*
X266633333Y-81830952D01*
X266585714Y-81878571D01*
X266538095Y-81973809D01*
G04 #@! TO.C,R11*
X262797142Y-75592380D02*
X262463809Y-75116190D01*
X262225714Y-75592380D02*
X262225714Y-74592380D01*
X262606666Y-74592380D01*
X262701904Y-74640000D01*
X262749523Y-74687619D01*
X262797142Y-74782857D01*
X262797142Y-74925714D01*
X262749523Y-75020952D01*
X262701904Y-75068571D01*
X262606666Y-75116190D01*
X262225714Y-75116190D01*
X263749523Y-75592380D02*
X263178095Y-75592380D01*
X263463809Y-75592380D02*
X263463809Y-74592380D01*
X263368571Y-74735238D01*
X263273333Y-74830476D01*
X263178095Y-74878095D01*
X264701904Y-75592380D02*
X264130476Y-75592380D01*
X264416190Y-75592380D02*
X264416190Y-74592380D01*
X264320952Y-74735238D01*
X264225714Y-74830476D01*
X264130476Y-74878095D01*
G04 #@! TO.C,R12*
X262867142Y-84032380D02*
X262533809Y-83556190D01*
X262295714Y-84032380D02*
X262295714Y-83032380D01*
X262676666Y-83032380D01*
X262771904Y-83080000D01*
X262819523Y-83127619D01*
X262867142Y-83222857D01*
X262867142Y-83365714D01*
X262819523Y-83460952D01*
X262771904Y-83508571D01*
X262676666Y-83556190D01*
X262295714Y-83556190D01*
X263819523Y-84032380D02*
X263248095Y-84032380D01*
X263533809Y-84032380D02*
X263533809Y-83032380D01*
X263438571Y-83175238D01*
X263343333Y-83270476D01*
X263248095Y-83318095D01*
X264200476Y-83127619D02*
X264248095Y-83080000D01*
X264343333Y-83032380D01*
X264581428Y-83032380D01*
X264676666Y-83080000D01*
X264724285Y-83127619D01*
X264771904Y-83222857D01*
X264771904Y-83318095D01*
X264724285Y-83460952D01*
X264152857Y-84032380D01*
X264771904Y-84032380D01*
G04 #@! TO.C,R14*
X259882380Y-81542857D02*
X259406190Y-81876190D01*
X259882380Y-82114285D02*
X258882380Y-82114285D01*
X258882380Y-81733333D01*
X258930000Y-81638095D01*
X258977619Y-81590476D01*
X259072857Y-81542857D01*
X259215714Y-81542857D01*
X259310952Y-81590476D01*
X259358571Y-81638095D01*
X259406190Y-81733333D01*
X259406190Y-82114285D01*
X259882380Y-80590476D02*
X259882380Y-81161904D01*
X259882380Y-80876190D02*
X258882380Y-80876190D01*
X259025238Y-80971428D01*
X259120476Y-81066666D01*
X259168095Y-81161904D01*
X259215714Y-79733333D02*
X259882380Y-79733333D01*
X258834761Y-79971428D02*
X259549047Y-80209523D01*
X259549047Y-79590476D01*
G04 #@! TO.C,R15*
X245437142Y-86842380D02*
X245103809Y-86366190D01*
X244865714Y-86842380D02*
X244865714Y-85842380D01*
X245246666Y-85842380D01*
X245341904Y-85890000D01*
X245389523Y-85937619D01*
X245437142Y-86032857D01*
X245437142Y-86175714D01*
X245389523Y-86270952D01*
X245341904Y-86318571D01*
X245246666Y-86366190D01*
X244865714Y-86366190D01*
X246389523Y-86842380D02*
X245818095Y-86842380D01*
X246103809Y-86842380D02*
X246103809Y-85842380D01*
X246008571Y-85985238D01*
X245913333Y-86080476D01*
X245818095Y-86128095D01*
X247294285Y-85842380D02*
X246818095Y-85842380D01*
X246770476Y-86318571D01*
X246818095Y-86270952D01*
X246913333Y-86223333D01*
X247151428Y-86223333D01*
X247246666Y-86270952D01*
X247294285Y-86318571D01*
X247341904Y-86413809D01*
X247341904Y-86651904D01*
X247294285Y-86747142D01*
X247246666Y-86794761D01*
X247151428Y-86842380D01*
X246913333Y-86842380D01*
X246818095Y-86794761D01*
X246770476Y-86747142D01*
G04 #@! TO.C,R13*
X259882380Y-78452857D02*
X259406190Y-78786190D01*
X259882380Y-79024285D02*
X258882380Y-79024285D01*
X258882380Y-78643333D01*
X258930000Y-78548095D01*
X258977619Y-78500476D01*
X259072857Y-78452857D01*
X259215714Y-78452857D01*
X259310952Y-78500476D01*
X259358571Y-78548095D01*
X259406190Y-78643333D01*
X259406190Y-79024285D01*
X259882380Y-77500476D02*
X259882380Y-78071904D01*
X259882380Y-77786190D02*
X258882380Y-77786190D01*
X259025238Y-77881428D01*
X259120476Y-77976666D01*
X259168095Y-78071904D01*
X258882380Y-77167142D02*
X258882380Y-76548095D01*
X259263333Y-76881428D01*
X259263333Y-76738571D01*
X259310952Y-76643333D01*
X259358571Y-76595714D01*
X259453809Y-76548095D01*
X259691904Y-76548095D01*
X259787142Y-76595714D01*
X259834761Y-76643333D01*
X259882380Y-76738571D01*
X259882380Y-77024285D01*
X259834761Y-77119523D01*
X259787142Y-77167142D01*
G04 #@! TO.C,R16*
X245437142Y-84532380D02*
X245103809Y-84056190D01*
X244865714Y-84532380D02*
X244865714Y-83532380D01*
X245246666Y-83532380D01*
X245341904Y-83580000D01*
X245389523Y-83627619D01*
X245437142Y-83722857D01*
X245437142Y-83865714D01*
X245389523Y-83960952D01*
X245341904Y-84008571D01*
X245246666Y-84056190D01*
X244865714Y-84056190D01*
X246389523Y-84532380D02*
X245818095Y-84532380D01*
X246103809Y-84532380D02*
X246103809Y-83532380D01*
X246008571Y-83675238D01*
X245913333Y-83770476D01*
X245818095Y-83818095D01*
X247246666Y-83532380D02*
X247056190Y-83532380D01*
X246960952Y-83580000D01*
X246913333Y-83627619D01*
X246818095Y-83770476D01*
X246770476Y-83960952D01*
X246770476Y-84341904D01*
X246818095Y-84437142D01*
X246865714Y-84484761D01*
X246960952Y-84532380D01*
X247151428Y-84532380D01*
X247246666Y-84484761D01*
X247294285Y-84437142D01*
X247341904Y-84341904D01*
X247341904Y-84103809D01*
X247294285Y-84008571D01*
X247246666Y-83960952D01*
X247151428Y-83913333D01*
X246960952Y-83913333D01*
X246865714Y-83960952D01*
X246818095Y-84008571D01*
X246770476Y-84103809D01*
G04 #@! TO.C,D3*
X145902380Y-13098095D02*
X144902380Y-13098095D01*
X144902380Y-12860000D01*
X144950000Y-12717142D01*
X145045238Y-12621904D01*
X145140476Y-12574285D01*
X145330952Y-12526666D01*
X145473809Y-12526666D01*
X145664285Y-12574285D01*
X145759523Y-12621904D01*
X145854761Y-12717142D01*
X145902380Y-12860000D01*
X145902380Y-13098095D01*
X144902380Y-12193333D02*
X144902380Y-11574285D01*
X145283333Y-11907619D01*
X145283333Y-11764761D01*
X145330952Y-11669523D01*
X145378571Y-11621904D01*
X145473809Y-11574285D01*
X145711904Y-11574285D01*
X145807142Y-11621904D01*
X145854761Y-11669523D01*
X145902380Y-11764761D01*
X145902380Y-12050476D01*
X145854761Y-12145714D01*
X145807142Y-12193333D01*
G04 #@! TO.C,D2*
X143692380Y-13038095D02*
X142692380Y-13038095D01*
X142692380Y-12800000D01*
X142740000Y-12657142D01*
X142835238Y-12561904D01*
X142930476Y-12514285D01*
X143120952Y-12466666D01*
X143263809Y-12466666D01*
X143454285Y-12514285D01*
X143549523Y-12561904D01*
X143644761Y-12657142D01*
X143692380Y-12800000D01*
X143692380Y-13038095D01*
X142787619Y-12085714D02*
X142740000Y-12038095D01*
X142692380Y-11942857D01*
X142692380Y-11704761D01*
X142740000Y-11609523D01*
X142787619Y-11561904D01*
X142882857Y-11514285D01*
X142978095Y-11514285D01*
X143120952Y-11561904D01*
X143692380Y-12133333D01*
X143692380Y-11514285D01*
G04 #@! TO.C,D4*
X148152380Y-13138095D02*
X147152380Y-13138095D01*
X147152380Y-12900000D01*
X147200000Y-12757142D01*
X147295238Y-12661904D01*
X147390476Y-12614285D01*
X147580952Y-12566666D01*
X147723809Y-12566666D01*
X147914285Y-12614285D01*
X148009523Y-12661904D01*
X148104761Y-12757142D01*
X148152380Y-12900000D01*
X148152380Y-13138095D01*
X147485714Y-11709523D02*
X148152380Y-11709523D01*
X147104761Y-11947619D02*
X147819047Y-12185714D01*
X147819047Y-11566666D01*
G04 #@! TO.C,D5*
X150532380Y-13138095D02*
X149532380Y-13138095D01*
X149532380Y-12900000D01*
X149580000Y-12757142D01*
X149675238Y-12661904D01*
X149770476Y-12614285D01*
X149960952Y-12566666D01*
X150103809Y-12566666D01*
X150294285Y-12614285D01*
X150389523Y-12661904D01*
X150484761Y-12757142D01*
X150532380Y-12900000D01*
X150532380Y-13138095D01*
X149532380Y-11661904D02*
X149532380Y-12138095D01*
X150008571Y-12185714D01*
X149960952Y-12138095D01*
X149913333Y-12042857D01*
X149913333Y-11804761D01*
X149960952Y-11709523D01*
X150008571Y-11661904D01*
X150103809Y-11614285D01*
X150341904Y-11614285D01*
X150437142Y-11661904D01*
X150484761Y-11709523D01*
X150532380Y-11804761D01*
X150532380Y-12042857D01*
X150484761Y-12138095D01*
X150437142Y-12185714D01*
G04 #@! TO.C,R8*
X145872380Y-21936666D02*
X145396190Y-22270000D01*
X145872380Y-22508095D02*
X144872380Y-22508095D01*
X144872380Y-22127142D01*
X144920000Y-22031904D01*
X144967619Y-21984285D01*
X145062857Y-21936666D01*
X145205714Y-21936666D01*
X145300952Y-21984285D01*
X145348571Y-22031904D01*
X145396190Y-22127142D01*
X145396190Y-22508095D01*
X145300952Y-21365238D02*
X145253333Y-21460476D01*
X145205714Y-21508095D01*
X145110476Y-21555714D01*
X145062857Y-21555714D01*
X144967619Y-21508095D01*
X144920000Y-21460476D01*
X144872380Y-21365238D01*
X144872380Y-21174761D01*
X144920000Y-21079523D01*
X144967619Y-21031904D01*
X145062857Y-20984285D01*
X145110476Y-20984285D01*
X145205714Y-21031904D01*
X145253333Y-21079523D01*
X145300952Y-21174761D01*
X145300952Y-21365238D01*
X145348571Y-21460476D01*
X145396190Y-21508095D01*
X145491428Y-21555714D01*
X145681904Y-21555714D01*
X145777142Y-21508095D01*
X145824761Y-21460476D01*
X145872380Y-21365238D01*
X145872380Y-21174761D01*
X145824761Y-21079523D01*
X145777142Y-21031904D01*
X145681904Y-20984285D01*
X145491428Y-20984285D01*
X145396190Y-21031904D01*
X145348571Y-21079523D01*
X145300952Y-21174761D01*
G04 #@! TO.C,R7*
X143892380Y-21896666D02*
X143416190Y-22230000D01*
X143892380Y-22468095D02*
X142892380Y-22468095D01*
X142892380Y-22087142D01*
X142940000Y-21991904D01*
X142987619Y-21944285D01*
X143082857Y-21896666D01*
X143225714Y-21896666D01*
X143320952Y-21944285D01*
X143368571Y-21991904D01*
X143416190Y-22087142D01*
X143416190Y-22468095D01*
X142892380Y-21563333D02*
X142892380Y-20896666D01*
X143892380Y-21325238D01*
G04 #@! TO.C,R9*
X148282380Y-22006666D02*
X147806190Y-22340000D01*
X148282380Y-22578095D02*
X147282380Y-22578095D01*
X147282380Y-22197142D01*
X147330000Y-22101904D01*
X147377619Y-22054285D01*
X147472857Y-22006666D01*
X147615714Y-22006666D01*
X147710952Y-22054285D01*
X147758571Y-22101904D01*
X147806190Y-22197142D01*
X147806190Y-22578095D01*
X148282380Y-21530476D02*
X148282380Y-21340000D01*
X148234761Y-21244761D01*
X148187142Y-21197142D01*
X148044285Y-21101904D01*
X147853809Y-21054285D01*
X147472857Y-21054285D01*
X147377619Y-21101904D01*
X147330000Y-21149523D01*
X147282380Y-21244761D01*
X147282380Y-21435238D01*
X147330000Y-21530476D01*
X147377619Y-21578095D01*
X147472857Y-21625714D01*
X147710952Y-21625714D01*
X147806190Y-21578095D01*
X147853809Y-21530476D01*
X147901428Y-21435238D01*
X147901428Y-21244761D01*
X147853809Y-21149523D01*
X147806190Y-21101904D01*
X147710952Y-21054285D01*
G04 #@! TO.C,R10*
X150462380Y-22402857D02*
X149986190Y-22736190D01*
X150462380Y-22974285D02*
X149462380Y-22974285D01*
X149462380Y-22593333D01*
X149510000Y-22498095D01*
X149557619Y-22450476D01*
X149652857Y-22402857D01*
X149795714Y-22402857D01*
X149890952Y-22450476D01*
X149938571Y-22498095D01*
X149986190Y-22593333D01*
X149986190Y-22974285D01*
X150462380Y-21450476D02*
X150462380Y-22021904D01*
X150462380Y-21736190D02*
X149462380Y-21736190D01*
X149605238Y-21831428D01*
X149700476Y-21926666D01*
X149748095Y-22021904D01*
X149462380Y-20831428D02*
X149462380Y-20736190D01*
X149510000Y-20640952D01*
X149557619Y-20593333D01*
X149652857Y-20545714D01*
X149843333Y-20498095D01*
X150081428Y-20498095D01*
X150271904Y-20545714D01*
X150367142Y-20593333D01*
X150414761Y-20640952D01*
X150462380Y-20736190D01*
X150462380Y-20831428D01*
X150414761Y-20926666D01*
X150367142Y-20974285D01*
X150271904Y-21021904D01*
X150081428Y-21069523D01*
X149843333Y-21069523D01*
X149652857Y-21021904D01*
X149557619Y-20974285D01*
X149510000Y-20926666D01*
X149462380Y-20831428D01*
G04 #@! TO.C,C15*
X262427142Y-63832857D02*
X262474761Y-63880476D01*
X262522380Y-64023333D01*
X262522380Y-64118571D01*
X262474761Y-64261428D01*
X262379523Y-64356666D01*
X262284285Y-64404285D01*
X262093809Y-64451904D01*
X261950952Y-64451904D01*
X261760476Y-64404285D01*
X261665238Y-64356666D01*
X261570000Y-64261428D01*
X261522380Y-64118571D01*
X261522380Y-64023333D01*
X261570000Y-63880476D01*
X261617619Y-63832857D01*
X262522380Y-62880476D02*
X262522380Y-63451904D01*
X262522380Y-63166190D02*
X261522380Y-63166190D01*
X261665238Y-63261428D01*
X261760476Y-63356666D01*
X261808095Y-63451904D01*
X261522380Y-61975714D02*
X261522380Y-62451904D01*
X261998571Y-62499523D01*
X261950952Y-62451904D01*
X261903333Y-62356666D01*
X261903333Y-62118571D01*
X261950952Y-62023333D01*
X261998571Y-61975714D01*
X262093809Y-61928095D01*
X262331904Y-61928095D01*
X262427142Y-61975714D01*
X262474761Y-62023333D01*
X262522380Y-62118571D01*
X262522380Y-62356666D01*
X262474761Y-62451904D01*
X262427142Y-62499523D01*
G04 #@! TO.C,C14*
X221197142Y-52152857D02*
X221244761Y-52200476D01*
X221292380Y-52343333D01*
X221292380Y-52438571D01*
X221244761Y-52581428D01*
X221149523Y-52676666D01*
X221054285Y-52724285D01*
X220863809Y-52771904D01*
X220720952Y-52771904D01*
X220530476Y-52724285D01*
X220435238Y-52676666D01*
X220340000Y-52581428D01*
X220292380Y-52438571D01*
X220292380Y-52343333D01*
X220340000Y-52200476D01*
X220387619Y-52152857D01*
X221292380Y-51200476D02*
X221292380Y-51771904D01*
X221292380Y-51486190D02*
X220292380Y-51486190D01*
X220435238Y-51581428D01*
X220530476Y-51676666D01*
X220578095Y-51771904D01*
X220625714Y-50343333D02*
X221292380Y-50343333D01*
X220244761Y-50581428D02*
X220959047Y-50819523D01*
X220959047Y-50200476D01*
G04 #@! TO.C,C13*
X233957142Y-41557142D02*
X233909523Y-41604761D01*
X233766666Y-41652380D01*
X233671428Y-41652380D01*
X233528571Y-41604761D01*
X233433333Y-41509523D01*
X233385714Y-41414285D01*
X233338095Y-41223809D01*
X233338095Y-41080952D01*
X233385714Y-40890476D01*
X233433333Y-40795238D01*
X233528571Y-40700000D01*
X233671428Y-40652380D01*
X233766666Y-40652380D01*
X233909523Y-40700000D01*
X233957142Y-40747619D01*
X234909523Y-41652380D02*
X234338095Y-41652380D01*
X234623809Y-41652380D02*
X234623809Y-40652380D01*
X234528571Y-40795238D01*
X234433333Y-40890476D01*
X234338095Y-40938095D01*
X235242857Y-40652380D02*
X235861904Y-40652380D01*
X235528571Y-41033333D01*
X235671428Y-41033333D01*
X235766666Y-41080952D01*
X235814285Y-41128571D01*
X235861904Y-41223809D01*
X235861904Y-41461904D01*
X235814285Y-41557142D01*
X235766666Y-41604761D01*
X235671428Y-41652380D01*
X235385714Y-41652380D01*
X235290476Y-41604761D01*
X235242857Y-41557142D01*
G04 #@! TO.C,C12*
X236957142Y-41207142D02*
X236909523Y-41254761D01*
X236766666Y-41302380D01*
X236671428Y-41302380D01*
X236528571Y-41254761D01*
X236433333Y-41159523D01*
X236385714Y-41064285D01*
X236338095Y-40873809D01*
X236338095Y-40730952D01*
X236385714Y-40540476D01*
X236433333Y-40445238D01*
X236528571Y-40350000D01*
X236671428Y-40302380D01*
X236766666Y-40302380D01*
X236909523Y-40350000D01*
X236957142Y-40397619D01*
X237909523Y-41302380D02*
X237338095Y-41302380D01*
X237623809Y-41302380D02*
X237623809Y-40302380D01*
X237528571Y-40445238D01*
X237433333Y-40540476D01*
X237338095Y-40588095D01*
X238290476Y-40397619D02*
X238338095Y-40350000D01*
X238433333Y-40302380D01*
X238671428Y-40302380D01*
X238766666Y-40350000D01*
X238814285Y-40397619D01*
X238861904Y-40492857D01*
X238861904Y-40588095D01*
X238814285Y-40730952D01*
X238242857Y-41302380D01*
X238861904Y-41302380D01*
G04 #@! TO.C,J5*
X262262380Y-56503333D02*
X262976666Y-56503333D01*
X263119523Y-56550952D01*
X263214761Y-56646190D01*
X263262380Y-56789047D01*
X263262380Y-56884285D01*
X262262380Y-55550952D02*
X262262380Y-56027142D01*
X262738571Y-56074761D01*
X262690952Y-56027142D01*
X262643333Y-55931904D01*
X262643333Y-55693809D01*
X262690952Y-55598571D01*
X262738571Y-55550952D01*
X262833809Y-55503333D01*
X263071904Y-55503333D01*
X263167142Y-55550952D01*
X263214761Y-55598571D01*
X263262380Y-55693809D01*
X263262380Y-55931904D01*
X263214761Y-56027142D01*
X263167142Y-56074761D01*
G04 #@! TO.C,U5*
X227543095Y-42240380D02*
X227543095Y-43049904D01*
X227590714Y-43145142D01*
X227638333Y-43192761D01*
X227733571Y-43240380D01*
X227924047Y-43240380D01*
X228019285Y-43192761D01*
X228066904Y-43145142D01*
X228114523Y-43049904D01*
X228114523Y-42240380D01*
X229066904Y-42240380D02*
X228590714Y-42240380D01*
X228543095Y-42716571D01*
X228590714Y-42668952D01*
X228685952Y-42621333D01*
X228924047Y-42621333D01*
X229019285Y-42668952D01*
X229066904Y-42716571D01*
X229114523Y-42811809D01*
X229114523Y-43049904D01*
X229066904Y-43145142D01*
X229019285Y-43192761D01*
X228924047Y-43240380D01*
X228685952Y-43240380D01*
X228590714Y-43192761D01*
X228543095Y-43145142D01*
G04 #@! TO.C,J4*
X256722380Y-18973333D02*
X257436666Y-18973333D01*
X257579523Y-19020952D01*
X257674761Y-19116190D01*
X257722380Y-19259047D01*
X257722380Y-19354285D01*
X257055714Y-18068571D02*
X257722380Y-18068571D01*
X256674761Y-18306666D02*
X257389047Y-18544761D01*
X257389047Y-17925714D01*
G04 #@! TO.C,C9*
X237223333Y-38267142D02*
X237175714Y-38314761D01*
X237032857Y-38362380D01*
X236937619Y-38362380D01*
X236794761Y-38314761D01*
X236699523Y-38219523D01*
X236651904Y-38124285D01*
X236604285Y-37933809D01*
X236604285Y-37790952D01*
X236651904Y-37600476D01*
X236699523Y-37505238D01*
X236794761Y-37410000D01*
X236937619Y-37362380D01*
X237032857Y-37362380D01*
X237175714Y-37410000D01*
X237223333Y-37457619D01*
X237699523Y-38362380D02*
X237890000Y-38362380D01*
X237985238Y-38314761D01*
X238032857Y-38267142D01*
X238128095Y-38124285D01*
X238175714Y-37933809D01*
X238175714Y-37552857D01*
X238128095Y-37457619D01*
X238080476Y-37410000D01*
X237985238Y-37362380D01*
X237794761Y-37362380D01*
X237699523Y-37410000D01*
X237651904Y-37457619D01*
X237604285Y-37552857D01*
X237604285Y-37790952D01*
X237651904Y-37886190D01*
X237699523Y-37933809D01*
X237794761Y-37981428D01*
X237985238Y-37981428D01*
X238080476Y-37933809D01*
X238128095Y-37886190D01*
X238175714Y-37790952D01*
G04 #@! TO.C,C8*
X256583333Y-33497142D02*
X256535714Y-33544761D01*
X256392857Y-33592380D01*
X256297619Y-33592380D01*
X256154761Y-33544761D01*
X256059523Y-33449523D01*
X256011904Y-33354285D01*
X255964285Y-33163809D01*
X255964285Y-33020952D01*
X256011904Y-32830476D01*
X256059523Y-32735238D01*
X256154761Y-32640000D01*
X256297619Y-32592380D01*
X256392857Y-32592380D01*
X256535714Y-32640000D01*
X256583333Y-32687619D01*
X257154761Y-33020952D02*
X257059523Y-32973333D01*
X257011904Y-32925714D01*
X256964285Y-32830476D01*
X256964285Y-32782857D01*
X257011904Y-32687619D01*
X257059523Y-32640000D01*
X257154761Y-32592380D01*
X257345238Y-32592380D01*
X257440476Y-32640000D01*
X257488095Y-32687619D01*
X257535714Y-32782857D01*
X257535714Y-32830476D01*
X257488095Y-32925714D01*
X257440476Y-32973333D01*
X257345238Y-33020952D01*
X257154761Y-33020952D01*
X257059523Y-33068571D01*
X257011904Y-33116190D01*
X256964285Y-33211428D01*
X256964285Y-33401904D01*
X257011904Y-33497142D01*
X257059523Y-33544761D01*
X257154761Y-33592380D01*
X257345238Y-33592380D01*
X257440476Y-33544761D01*
X257488095Y-33497142D01*
X257535714Y-33401904D01*
X257535714Y-33211428D01*
X257488095Y-33116190D01*
X257440476Y-33068571D01*
X257345238Y-33020952D01*
G04 #@! TO.C,C5*
X248407142Y-21756666D02*
X248454761Y-21804285D01*
X248502380Y-21947142D01*
X248502380Y-22042380D01*
X248454761Y-22185238D01*
X248359523Y-22280476D01*
X248264285Y-22328095D01*
X248073809Y-22375714D01*
X247930952Y-22375714D01*
X247740476Y-22328095D01*
X247645238Y-22280476D01*
X247550000Y-22185238D01*
X247502380Y-22042380D01*
X247502380Y-21947142D01*
X247550000Y-21804285D01*
X247597619Y-21756666D01*
X247502380Y-20851904D02*
X247502380Y-21328095D01*
X247978571Y-21375714D01*
X247930952Y-21328095D01*
X247883333Y-21232857D01*
X247883333Y-20994761D01*
X247930952Y-20899523D01*
X247978571Y-20851904D01*
X248073809Y-20804285D01*
X248311904Y-20804285D01*
X248407142Y-20851904D01*
X248454761Y-20899523D01*
X248502380Y-20994761D01*
X248502380Y-21232857D01*
X248454761Y-21328095D01*
X248407142Y-21375714D01*
G04 #@! TO.C,C6*
X236033333Y-36347142D02*
X235985714Y-36394761D01*
X235842857Y-36442380D01*
X235747619Y-36442380D01*
X235604761Y-36394761D01*
X235509523Y-36299523D01*
X235461904Y-36204285D01*
X235414285Y-36013809D01*
X235414285Y-35870952D01*
X235461904Y-35680476D01*
X235509523Y-35585238D01*
X235604761Y-35490000D01*
X235747619Y-35442380D01*
X235842857Y-35442380D01*
X235985714Y-35490000D01*
X236033333Y-35537619D01*
X236890476Y-35442380D02*
X236700000Y-35442380D01*
X236604761Y-35490000D01*
X236557142Y-35537619D01*
X236461904Y-35680476D01*
X236414285Y-35870952D01*
X236414285Y-36251904D01*
X236461904Y-36347142D01*
X236509523Y-36394761D01*
X236604761Y-36442380D01*
X236795238Y-36442380D01*
X236890476Y-36394761D01*
X236938095Y-36347142D01*
X236985714Y-36251904D01*
X236985714Y-36013809D01*
X236938095Y-35918571D01*
X236890476Y-35870952D01*
X236795238Y-35823333D01*
X236604761Y-35823333D01*
X236509523Y-35870952D01*
X236461904Y-35918571D01*
X236414285Y-36013809D01*
G04 #@! TO.C,C7*
X256583333Y-29857142D02*
X256535714Y-29904761D01*
X256392857Y-29952380D01*
X256297619Y-29952380D01*
X256154761Y-29904761D01*
X256059523Y-29809523D01*
X256011904Y-29714285D01*
X255964285Y-29523809D01*
X255964285Y-29380952D01*
X256011904Y-29190476D01*
X256059523Y-29095238D01*
X256154761Y-29000000D01*
X256297619Y-28952380D01*
X256392857Y-28952380D01*
X256535714Y-29000000D01*
X256583333Y-29047619D01*
X256916666Y-28952380D02*
X257583333Y-28952380D01*
X257154761Y-29952380D01*
G04 #@! TO.C,C10*
X255667142Y-28377142D02*
X255619523Y-28424761D01*
X255476666Y-28472380D01*
X255381428Y-28472380D01*
X255238571Y-28424761D01*
X255143333Y-28329523D01*
X255095714Y-28234285D01*
X255048095Y-28043809D01*
X255048095Y-27900952D01*
X255095714Y-27710476D01*
X255143333Y-27615238D01*
X255238571Y-27520000D01*
X255381428Y-27472380D01*
X255476666Y-27472380D01*
X255619523Y-27520000D01*
X255667142Y-27567619D01*
X256619523Y-28472380D02*
X256048095Y-28472380D01*
X256333809Y-28472380D02*
X256333809Y-27472380D01*
X256238571Y-27615238D01*
X256143333Y-27710476D01*
X256048095Y-27758095D01*
X257238571Y-27472380D02*
X257333809Y-27472380D01*
X257429047Y-27520000D01*
X257476666Y-27567619D01*
X257524285Y-27662857D01*
X257571904Y-27853333D01*
X257571904Y-28091428D01*
X257524285Y-28281904D01*
X257476666Y-28377142D01*
X257429047Y-28424761D01*
X257333809Y-28472380D01*
X257238571Y-28472380D01*
X257143333Y-28424761D01*
X257095714Y-28377142D01*
X257048095Y-28281904D01*
X257000476Y-28091428D01*
X257000476Y-27853333D01*
X257048095Y-27662857D01*
X257095714Y-27567619D01*
X257143333Y-27520000D01*
X257238571Y-27472380D01*
G04 #@! TO.C,C11*
X251887142Y-19317142D02*
X251839523Y-19364761D01*
X251696666Y-19412380D01*
X251601428Y-19412380D01*
X251458571Y-19364761D01*
X251363333Y-19269523D01*
X251315714Y-19174285D01*
X251268095Y-18983809D01*
X251268095Y-18840952D01*
X251315714Y-18650476D01*
X251363333Y-18555238D01*
X251458571Y-18460000D01*
X251601428Y-18412380D01*
X251696666Y-18412380D01*
X251839523Y-18460000D01*
X251887142Y-18507619D01*
X252839523Y-19412380D02*
X252268095Y-19412380D01*
X252553809Y-19412380D02*
X252553809Y-18412380D01*
X252458571Y-18555238D01*
X252363333Y-18650476D01*
X252268095Y-18698095D01*
X253791904Y-19412380D02*
X253220476Y-19412380D01*
X253506190Y-19412380D02*
X253506190Y-18412380D01*
X253410952Y-18555238D01*
X253315714Y-18650476D01*
X253220476Y-18698095D01*
G04 #@! TO.C,R6*
X256273333Y-36932380D02*
X255940000Y-36456190D01*
X255701904Y-36932380D02*
X255701904Y-35932380D01*
X256082857Y-35932380D01*
X256178095Y-35980000D01*
X256225714Y-36027619D01*
X256273333Y-36122857D01*
X256273333Y-36265714D01*
X256225714Y-36360952D01*
X256178095Y-36408571D01*
X256082857Y-36456190D01*
X255701904Y-36456190D01*
X257130476Y-35932380D02*
X256940000Y-35932380D01*
X256844761Y-35980000D01*
X256797142Y-36027619D01*
X256701904Y-36170476D01*
X256654285Y-36360952D01*
X256654285Y-36741904D01*
X256701904Y-36837142D01*
X256749523Y-36884761D01*
X256844761Y-36932380D01*
X257035238Y-36932380D01*
X257130476Y-36884761D01*
X257178095Y-36837142D01*
X257225714Y-36741904D01*
X257225714Y-36503809D01*
X257178095Y-36408571D01*
X257130476Y-36360952D01*
X257035238Y-36313333D01*
X256844761Y-36313333D01*
X256749523Y-36360952D01*
X256701904Y-36408571D01*
X256654285Y-36503809D01*
G04 #@! TO.C,R3*
X250252380Y-21666666D02*
X249776190Y-22000000D01*
X250252380Y-22238095D02*
X249252380Y-22238095D01*
X249252380Y-21857142D01*
X249300000Y-21761904D01*
X249347619Y-21714285D01*
X249442857Y-21666666D01*
X249585714Y-21666666D01*
X249680952Y-21714285D01*
X249728571Y-21761904D01*
X249776190Y-21857142D01*
X249776190Y-22238095D01*
X249252380Y-21333333D02*
X249252380Y-20714285D01*
X249633333Y-21047619D01*
X249633333Y-20904761D01*
X249680952Y-20809523D01*
X249728571Y-20761904D01*
X249823809Y-20714285D01*
X250061904Y-20714285D01*
X250157142Y-20761904D01*
X250204761Y-20809523D01*
X250252380Y-20904761D01*
X250252380Y-21190476D01*
X250204761Y-21285714D01*
X250157142Y-21333333D01*
G04 #@! TO.C,R5*
X256253333Y-35092380D02*
X255920000Y-34616190D01*
X255681904Y-35092380D02*
X255681904Y-34092380D01*
X256062857Y-34092380D01*
X256158095Y-34140000D01*
X256205714Y-34187619D01*
X256253333Y-34282857D01*
X256253333Y-34425714D01*
X256205714Y-34520952D01*
X256158095Y-34568571D01*
X256062857Y-34616190D01*
X255681904Y-34616190D01*
X257158095Y-34092380D02*
X256681904Y-34092380D01*
X256634285Y-34568571D01*
X256681904Y-34520952D01*
X256777142Y-34473333D01*
X257015238Y-34473333D01*
X257110476Y-34520952D01*
X257158095Y-34568571D01*
X257205714Y-34663809D01*
X257205714Y-34901904D01*
X257158095Y-34997142D01*
X257110476Y-35044761D01*
X257015238Y-35092380D01*
X256777142Y-35092380D01*
X256681904Y-35044761D01*
X256634285Y-34997142D01*
G04 #@! TO.C,R4*
X245012380Y-14866666D02*
X244536190Y-15200000D01*
X245012380Y-15438095D02*
X244012380Y-15438095D01*
X244012380Y-15057142D01*
X244060000Y-14961904D01*
X244107619Y-14914285D01*
X244202857Y-14866666D01*
X244345714Y-14866666D01*
X244440952Y-14914285D01*
X244488571Y-14961904D01*
X244536190Y-15057142D01*
X244536190Y-15438095D01*
X244345714Y-14009523D02*
X245012380Y-14009523D01*
X243964761Y-14247619D02*
X244679047Y-14485714D01*
X244679047Y-13866666D01*
G04 #@! TO.C,J3*
X204746666Y-98452380D02*
X204746666Y-99166666D01*
X204699047Y-99309523D01*
X204603809Y-99404761D01*
X204460952Y-99452380D01*
X204365714Y-99452380D01*
X205127619Y-98452380D02*
X205746666Y-98452380D01*
X205413333Y-98833333D01*
X205556190Y-98833333D01*
X205651428Y-98880952D01*
X205699047Y-98928571D01*
X205746666Y-99023809D01*
X205746666Y-99261904D01*
X205699047Y-99357142D01*
X205651428Y-99404761D01*
X205556190Y-99452380D01*
X205270476Y-99452380D01*
X205175238Y-99404761D01*
X205127619Y-99357142D01*
G04 #@! TO.C,C4*
X166673333Y-54687142D02*
X166625714Y-54734761D01*
X166482857Y-54782380D01*
X166387619Y-54782380D01*
X166244761Y-54734761D01*
X166149523Y-54639523D01*
X166101904Y-54544285D01*
X166054285Y-54353809D01*
X166054285Y-54210952D01*
X166101904Y-54020476D01*
X166149523Y-53925238D01*
X166244761Y-53830000D01*
X166387619Y-53782380D01*
X166482857Y-53782380D01*
X166625714Y-53830000D01*
X166673333Y-53877619D01*
X167530476Y-54115714D02*
X167530476Y-54782380D01*
X167292380Y-53734761D02*
X167054285Y-54449047D01*
X167673333Y-54449047D01*
G04 #@! TO.C,R2*
X157733333Y-72752380D02*
X157400000Y-72276190D01*
X157161904Y-72752380D02*
X157161904Y-71752380D01*
X157542857Y-71752380D01*
X157638095Y-71800000D01*
X157685714Y-71847619D01*
X157733333Y-71942857D01*
X157733333Y-72085714D01*
X157685714Y-72180952D01*
X157638095Y-72228571D01*
X157542857Y-72276190D01*
X157161904Y-72276190D01*
X158114285Y-71847619D02*
X158161904Y-71800000D01*
X158257142Y-71752380D01*
X158495238Y-71752380D01*
X158590476Y-71800000D01*
X158638095Y-71847619D01*
X158685714Y-71942857D01*
X158685714Y-72038095D01*
X158638095Y-72180952D01*
X158066666Y-72752380D01*
X158685714Y-72752380D01*
G04 #@! TO.C,J2*
X117181666Y-35222380D02*
X117181666Y-35936666D01*
X117134047Y-36079523D01*
X117038809Y-36174761D01*
X116895952Y-36222380D01*
X116800714Y-36222380D01*
X117610238Y-35317619D02*
X117657857Y-35270000D01*
X117753095Y-35222380D01*
X117991190Y-35222380D01*
X118086428Y-35270000D01*
X118134047Y-35317619D01*
X118181666Y-35412857D01*
X118181666Y-35508095D01*
X118134047Y-35650952D01*
X117562619Y-36222380D01*
X118181666Y-36222380D01*
G04 #@! TO.C,JAB1*
X127122380Y-61741904D02*
X127836666Y-61741904D01*
X127979523Y-61789523D01*
X128074761Y-61884761D01*
X128122380Y-62027619D01*
X128122380Y-62122857D01*
X127836666Y-61313333D02*
X127836666Y-60837142D01*
X128122380Y-61408571D02*
X127122380Y-61075238D01*
X128122380Y-60741904D01*
X127598571Y-60075238D02*
X127646190Y-59932380D01*
X127693809Y-59884761D01*
X127789047Y-59837142D01*
X127931904Y-59837142D01*
X128027142Y-59884761D01*
X128074761Y-59932380D01*
X128122380Y-60027619D01*
X128122380Y-60408571D01*
X127122380Y-60408571D01*
X127122380Y-60075238D01*
X127170000Y-59980000D01*
X127217619Y-59932380D01*
X127312857Y-59884761D01*
X127408095Y-59884761D01*
X127503333Y-59932380D01*
X127550952Y-59980000D01*
X127598571Y-60075238D01*
X127598571Y-60408571D01*
X128122380Y-58884761D02*
X128122380Y-59456190D01*
X128122380Y-59170476D02*
X127122380Y-59170476D01*
X127265238Y-59265714D01*
X127360476Y-59360952D01*
X127408095Y-59456190D01*
G04 #@! TD*
M02*
