G04 #@! TF.GenerationSoftware,KiCad,Pcbnew,5.1.9+dfsg1-1~bpo10+1*
G04 #@! TF.CreationDate,2023-03-18T11:52:40+01:00*
G04 #@! TF.ProjectId,nubus-to-ztex,6e756275-732d-4746-9f2d-7a7465782e6b,rev?*
G04 #@! TF.SameCoordinates,Original*
G04 #@! TF.FileFunction,Soldermask,Bot*
G04 #@! TF.FilePolarity,Negative*
%FSLAX46Y46*%
G04 Gerber Fmt 4.6, Leading zero omitted, Abs format (unit mm)*
G04 Created by KiCad (PCBNEW 5.1.9+dfsg1-1~bpo10+1) date 2023-03-18 11:52:40*
%MOMM*%
%LPD*%
G01*
G04 APERTURE LIST*
%ADD10O,1.802000X1.802000*%
%ADD11O,1.452000X1.452000*%
%ADD12C,4.502000*%
%ADD13C,1.552000*%
%ADD14O,2.002000X1.302000*%
%ADD15O,1.842000X2.302000*%
%ADD16C,2.102000*%
%ADD17C,2.952000*%
%ADD18C,1.652000*%
%ADD19C,0.100000*%
G04 APERTURE END LIST*
D10*
X265540000Y-19110000D03*
X263000000Y-19110000D03*
X265540000Y-21650000D03*
X263000000Y-21650000D03*
X265540000Y-24190000D03*
X263000000Y-24190000D03*
X265540000Y-26730000D03*
X263000000Y-26730000D03*
X265540000Y-29270000D03*
X263000000Y-29270000D03*
X265540000Y-31810000D03*
X263000000Y-31810000D03*
X265540000Y-34350000D03*
X263000000Y-34350000D03*
X265540000Y-36890000D03*
G36*
G01*
X263901000Y-36040000D02*
X263901000Y-37740000D01*
G75*
G02*
X263850000Y-37791000I-51000J0D01*
G01*
X262150000Y-37791000D01*
G75*
G02*
X262099000Y-37740000I0J51000D01*
G01*
X262099000Y-36040000D01*
G75*
G02*
X262150000Y-35989000I51000J0D01*
G01*
X263850000Y-35989000D01*
G75*
G02*
X263901000Y-36040000I0J-51000D01*
G01*
G37*
D11*
X219080000Y-29730000D03*
X219080000Y-27730000D03*
X221080000Y-29730000D03*
X221080000Y-27730000D03*
X223080000Y-29730000D03*
X223080000Y-27730000D03*
X225080000Y-29730000D03*
X225080000Y-27730000D03*
X227080000Y-29730000D03*
X227080000Y-27730000D03*
X229080000Y-29730000D03*
X229080000Y-27730000D03*
X231080000Y-29730000D03*
G36*
G01*
X230405000Y-27004000D02*
X231755000Y-27004000D01*
G75*
G02*
X231806000Y-27055000I0J-51000D01*
G01*
X231806000Y-28405000D01*
G75*
G02*
X231755000Y-28456000I-51000J0D01*
G01*
X230405000Y-28456000D01*
G75*
G02*
X230354000Y-28405000I0J51000D01*
G01*
X230354000Y-27055000D01*
G75*
G02*
X230405000Y-27004000I51000J0D01*
G01*
G37*
G36*
G01*
X122301000Y-32678000D02*
X122301000Y-34378000D01*
G75*
G02*
X122250000Y-34429000I-51000J0D01*
G01*
X120550000Y-34429000D01*
G75*
G02*
X120499000Y-34378000I0J51000D01*
G01*
X120499000Y-32678000D01*
G75*
G02*
X120550000Y-32627000I51000J0D01*
G01*
X122250000Y-32627000D01*
G75*
G02*
X122301000Y-32678000I0J-51000D01*
G01*
G37*
D10*
X121400000Y-30988000D03*
X121400000Y-28448000D03*
X121400000Y-25908000D03*
X121400000Y-23368000D03*
X121400000Y-20828000D03*
D12*
X269197500Y-89500000D03*
D13*
X269197500Y-81570000D03*
X269197500Y-76570000D03*
D14*
X271897500Y-82570000D03*
X271897500Y-75570000D03*
G36*
G01*
X217339000Y-101886346D02*
X217339000Y-100113654D01*
G75*
G02*
X217603654Y-99849000I264654J0D01*
G01*
X218916346Y-99849000D01*
G75*
G02*
X219181000Y-100113654I0J-264654D01*
G01*
X219181000Y-101886346D01*
G75*
G02*
X218916346Y-102151000I-264654J0D01*
G01*
X217603654Y-102151000D01*
G75*
G02*
X217339000Y-101886346I0J264654D01*
G01*
G37*
D15*
X220800000Y-101000000D03*
X223340000Y-101000000D03*
G36*
G01*
X130850000Y-30901000D02*
X129150000Y-30901000D01*
G75*
G02*
X129099000Y-30850000I0J51000D01*
G01*
X129099000Y-29150000D01*
G75*
G02*
X129150000Y-29099000I51000J0D01*
G01*
X130850000Y-29099000D01*
G75*
G02*
X130901000Y-29150000I0J-51000D01*
G01*
X130901000Y-30850000D01*
G75*
G02*
X130850000Y-30901000I-51000J0D01*
G01*
G37*
D10*
X130000000Y-27460000D03*
X132540000Y-30000000D03*
X132540000Y-27460000D03*
X135080000Y-30000000D03*
X135080000Y-27460000D03*
X137620000Y-30000000D03*
X137620000Y-27460000D03*
X140160000Y-30000000D03*
X140160000Y-27460000D03*
X142700000Y-30000000D03*
X142700000Y-27460000D03*
X145240000Y-30000000D03*
X145240000Y-27460000D03*
X147780000Y-30000000D03*
X147780000Y-27460000D03*
X150320000Y-30000000D03*
X150320000Y-27460000D03*
X152860000Y-30000000D03*
X152860000Y-27460000D03*
X155400000Y-30000000D03*
X155400000Y-27460000D03*
X157940000Y-30000000D03*
X157940000Y-27460000D03*
X160480000Y-30000000D03*
X160480000Y-27460000D03*
X163020000Y-30000000D03*
X163020000Y-27460000D03*
X165560000Y-30000000D03*
X165560000Y-27460000D03*
X168100000Y-30000000D03*
X168100000Y-27460000D03*
X170640000Y-30000000D03*
X170640000Y-27460000D03*
X173180000Y-30000000D03*
X173180000Y-27460000D03*
X175720000Y-30000000D03*
X175720000Y-27460000D03*
X178260000Y-30000000D03*
X178260000Y-27460000D03*
X180800000Y-30000000D03*
X180800000Y-27460000D03*
X183340000Y-30000000D03*
X183340000Y-27460000D03*
X185880000Y-30000000D03*
X185880000Y-27460000D03*
X188420000Y-30000000D03*
X188420000Y-27460000D03*
X190960000Y-30000000D03*
X190960000Y-27460000D03*
X193500000Y-30000000D03*
X193500000Y-27460000D03*
X196040000Y-30000000D03*
X196040000Y-27460000D03*
X198580000Y-30000000D03*
X198580000Y-27460000D03*
X201120000Y-30000000D03*
X201120000Y-27460000D03*
X203660000Y-30000000D03*
X203660000Y-27460000D03*
X206200000Y-30000000D03*
X206200000Y-27460000D03*
X208740000Y-30000000D03*
X208740000Y-27460000D03*
D16*
X271800000Y-70150000D03*
X271800000Y-54450000D03*
X266850000Y-69550000D03*
X266850000Y-55050000D03*
D17*
X205080000Y-102540000D03*
X116180000Y-102540000D03*
G36*
G01*
X200826000Y-99440449D02*
X200826000Y-100559551D01*
G75*
G02*
X200559551Y-100826000I-266449J0D01*
G01*
X199440449Y-100826000D01*
G75*
G02*
X199174000Y-100559551I0J266449D01*
G01*
X199174000Y-99440449D01*
G75*
G02*
X199440449Y-99174000I266449J0D01*
G01*
X200559551Y-99174000D01*
G75*
G02*
X200826000Y-99440449I0J-266449D01*
G01*
G37*
D18*
X197460000Y-100000000D03*
X194920000Y-100000000D03*
X192380000Y-100000000D03*
X189840000Y-100000000D03*
X187300000Y-100000000D03*
X184760000Y-100000000D03*
X182220000Y-100000000D03*
X179680000Y-100000000D03*
X177140000Y-100000000D03*
X174600000Y-100000000D03*
X172060000Y-100000000D03*
X169520000Y-100000000D03*
X166980000Y-100000000D03*
X164440000Y-100000000D03*
X161900000Y-100000000D03*
X159360000Y-100000000D03*
X156820000Y-100000000D03*
X154280000Y-100000000D03*
X151740000Y-100000000D03*
X149200000Y-100000000D03*
X146660000Y-100000000D03*
X144120000Y-100000000D03*
X141580000Y-100000000D03*
X139040000Y-100000000D03*
X136500000Y-100000000D03*
X133960000Y-100000000D03*
X131420000Y-100000000D03*
X128880000Y-100000000D03*
X126340000Y-100000000D03*
X123800000Y-100000000D03*
X121260000Y-100000000D03*
X200000000Y-97460000D03*
X197460000Y-97460000D03*
X194920000Y-97460000D03*
X192380000Y-97460000D03*
X189840000Y-97460000D03*
X187300000Y-97460000D03*
X184760000Y-97460000D03*
X182220000Y-97460000D03*
X179680000Y-97460000D03*
X177140000Y-97460000D03*
X174600000Y-97460000D03*
X172060000Y-97460000D03*
X169520000Y-97460000D03*
X166980000Y-97460000D03*
X164440000Y-97460000D03*
X161900000Y-97460000D03*
X159360000Y-97460000D03*
X156820000Y-97460000D03*
X154280000Y-97460000D03*
X151740000Y-97460000D03*
X149200000Y-97460000D03*
X146660000Y-97460000D03*
X144120000Y-97460000D03*
X141580000Y-97460000D03*
X139040000Y-97460000D03*
X136500000Y-97460000D03*
X133960000Y-97460000D03*
X131420000Y-97460000D03*
X128880000Y-97460000D03*
X126340000Y-97460000D03*
X123800000Y-97460000D03*
X121260000Y-97460000D03*
X200000000Y-94920000D03*
X197460000Y-94920000D03*
X194920000Y-94920000D03*
X192380000Y-94920000D03*
X189840000Y-94920000D03*
X187300000Y-94920000D03*
X184760000Y-94920000D03*
X182220000Y-94920000D03*
X179680000Y-94920000D03*
X177140000Y-94920000D03*
X174600000Y-94920000D03*
X172060000Y-94920000D03*
X169520000Y-94920000D03*
X166980000Y-94920000D03*
X164440000Y-94920000D03*
X161900000Y-94920000D03*
X159360000Y-94920000D03*
X156820000Y-94920000D03*
X154280000Y-94920000D03*
X151740000Y-94920000D03*
X149200000Y-94920000D03*
X146660000Y-94920000D03*
X144120000Y-94920000D03*
X141580000Y-94920000D03*
X139040000Y-94920000D03*
X136500000Y-94920000D03*
X133960000Y-94920000D03*
X131420000Y-94920000D03*
X128880000Y-94920000D03*
X126340000Y-94920000D03*
X123800000Y-94920000D03*
X121260000Y-94920000D03*
D10*
X208740000Y-59210000D03*
X208740000Y-61750000D03*
X206200000Y-59210000D03*
X206200000Y-61750000D03*
X203660000Y-59210000D03*
X203660000Y-61750000D03*
X201120000Y-59210000D03*
X201120000Y-61750000D03*
X198580000Y-59210000D03*
X198580000Y-61750000D03*
X196040000Y-59210000D03*
X196040000Y-61750000D03*
X193500000Y-59210000D03*
X193500000Y-61750000D03*
X190960000Y-59210000D03*
X190960000Y-61750000D03*
X188420000Y-59210000D03*
X188420000Y-61750000D03*
X185880000Y-59210000D03*
X185880000Y-61750000D03*
X183340000Y-59210000D03*
X183340000Y-61750000D03*
X180800000Y-59210000D03*
X180800000Y-61750000D03*
X178260000Y-59210000D03*
X178260000Y-61750000D03*
X175720000Y-59210000D03*
X175720000Y-61750000D03*
X173180000Y-59210000D03*
X173180000Y-61750000D03*
X170640000Y-59210000D03*
X170640000Y-61750000D03*
X168100000Y-59210000D03*
X168100000Y-61750000D03*
X165560000Y-59210000D03*
X165560000Y-61750000D03*
X163020000Y-59210000D03*
X163020000Y-61750000D03*
X160480000Y-59210000D03*
X160480000Y-61750000D03*
X157940000Y-59210000D03*
X157940000Y-61750000D03*
X155400000Y-59210000D03*
X155400000Y-61750000D03*
X152860000Y-59210000D03*
X152860000Y-61750000D03*
X150320000Y-59210000D03*
X150320000Y-61750000D03*
X147780000Y-59210000D03*
X147780000Y-61750000D03*
X145240000Y-59210000D03*
X145240000Y-61750000D03*
X142700000Y-59210000D03*
X142700000Y-61750000D03*
X140160000Y-59210000D03*
X140160000Y-61750000D03*
X137620000Y-59210000D03*
X137620000Y-61750000D03*
X135080000Y-59210000D03*
X135080000Y-61750000D03*
X132540000Y-59210000D03*
X132540000Y-61750000D03*
X130000000Y-59210000D03*
G36*
G01*
X130850000Y-62651000D02*
X129150000Y-62651000D01*
G75*
G02*
X129099000Y-62600000I0J51000D01*
G01*
X129099000Y-60900000D01*
G75*
G02*
X129150000Y-60849000I51000J0D01*
G01*
X130850000Y-60849000D01*
G75*
G02*
X130901000Y-60900000I0J-51000D01*
G01*
X130901000Y-62600000D01*
G75*
G02*
X130850000Y-62651000I-51000J0D01*
G01*
G37*
D19*
G36*
X217340990Y-101886150D02*
G01*
X217346055Y-101937582D01*
X217361003Y-101986856D01*
X217385273Y-102032264D01*
X217417936Y-102072064D01*
X217457736Y-102104727D01*
X217503144Y-102128997D01*
X217552418Y-102143945D01*
X217603850Y-102149010D01*
X217605476Y-102150175D01*
X217605280Y-102152165D01*
X217603654Y-102153000D01*
X217520712Y-102153000D01*
X217520516Y-102152990D01*
X217480244Y-102149024D01*
X217479859Y-102148948D01*
X217447035Y-102138990D01*
X217446673Y-102138840D01*
X217416425Y-102122672D01*
X217416099Y-102122454D01*
X217389583Y-102100694D01*
X217389306Y-102100417D01*
X217367546Y-102073901D01*
X217367328Y-102073575D01*
X217351160Y-102043327D01*
X217351010Y-102042965D01*
X217341052Y-102010141D01*
X217340976Y-102009756D01*
X217337010Y-101969484D01*
X217337000Y-101969288D01*
X217337000Y-101886346D01*
X217338000Y-101884614D01*
X217340000Y-101884614D01*
X217340990Y-101886150D01*
G37*
G36*
X219182165Y-101884720D02*
G01*
X219183000Y-101886346D01*
X219183000Y-101969288D01*
X219182990Y-101969484D01*
X219179024Y-102009756D01*
X219178948Y-102010141D01*
X219168990Y-102042965D01*
X219168840Y-102043327D01*
X219152672Y-102073575D01*
X219152454Y-102073901D01*
X219130694Y-102100417D01*
X219130417Y-102100694D01*
X219103901Y-102122454D01*
X219103575Y-102122672D01*
X219073327Y-102138840D01*
X219072965Y-102138990D01*
X219040141Y-102148948D01*
X219039756Y-102149024D01*
X218999484Y-102152990D01*
X218999288Y-102153000D01*
X218916346Y-102153000D01*
X218914614Y-102152000D01*
X218914614Y-102150000D01*
X218916150Y-102149010D01*
X218967582Y-102143945D01*
X219016856Y-102128997D01*
X219062264Y-102104727D01*
X219102064Y-102072064D01*
X219134727Y-102032264D01*
X219158997Y-101986856D01*
X219173945Y-101937582D01*
X219179010Y-101886150D01*
X219180175Y-101884524D01*
X219182165Y-101884720D01*
G37*
G36*
X217605386Y-99848000D02*
G01*
X217605386Y-99850000D01*
X217603850Y-99850990D01*
X217552418Y-99856055D01*
X217503144Y-99871003D01*
X217457736Y-99895273D01*
X217417936Y-99927936D01*
X217385273Y-99967736D01*
X217361003Y-100013144D01*
X217346055Y-100062418D01*
X217340990Y-100113850D01*
X217339825Y-100115476D01*
X217337835Y-100115280D01*
X217337000Y-100113654D01*
X217337000Y-100030712D01*
X217337010Y-100030516D01*
X217340976Y-99990244D01*
X217341052Y-99989859D01*
X217351010Y-99957035D01*
X217351160Y-99956673D01*
X217367328Y-99926425D01*
X217367546Y-99926099D01*
X217389306Y-99899583D01*
X217389583Y-99899306D01*
X217416099Y-99877546D01*
X217416425Y-99877328D01*
X217446673Y-99861160D01*
X217447035Y-99861010D01*
X217479859Y-99851052D01*
X217480244Y-99850976D01*
X217520516Y-99847010D01*
X217520712Y-99847000D01*
X217603654Y-99847000D01*
X217605386Y-99848000D01*
G37*
G36*
X218999484Y-99847010D02*
G01*
X219039756Y-99850976D01*
X219040141Y-99851052D01*
X219072965Y-99861010D01*
X219073327Y-99861160D01*
X219103575Y-99877328D01*
X219103901Y-99877546D01*
X219130417Y-99899306D01*
X219130694Y-99899583D01*
X219152454Y-99926099D01*
X219152672Y-99926425D01*
X219168840Y-99956673D01*
X219168990Y-99957035D01*
X219178948Y-99989859D01*
X219179024Y-99990244D01*
X219182990Y-100030516D01*
X219183000Y-100030712D01*
X219183000Y-100113654D01*
X219182000Y-100115386D01*
X219180000Y-100115386D01*
X219179010Y-100113850D01*
X219173945Y-100062418D01*
X219158997Y-100013144D01*
X219134727Y-99967736D01*
X219102064Y-99927936D01*
X219062264Y-99895273D01*
X219016856Y-99871003D01*
X218967582Y-99856055D01*
X218916150Y-99850990D01*
X218914524Y-99849825D01*
X218914720Y-99847835D01*
X218916346Y-99847000D01*
X218999288Y-99847000D01*
X218999484Y-99847010D01*
G37*
M02*
