M48
;DRILL file {KiCad 5.0.2+dfsg1-1~bpo9+1} date Thu Sep 29 18:21:50 2022
;FORMAT={-:-/ absolute / inch / decimal}
FMAT,2
INCH,TZ
T1C0.0157
T2C0.0236
T3C0.0315
T4C0.0335
T5C0.0354
T6C0.0394
T7C0.0402
T8C0.0449
T9C0.0469
T10C0.0472
T11C0.0512
T12C0.0866
%
G90
G05
T1
X4.5354Y-3.4441
X4.5354Y-3.5209
X4.5354Y-3.572
X4.5539Y-1.5909
X4.5595Y-3.248
X4.5787Y-0.4414
X4.5787Y-0.6471
X4.5866Y-2.7224
X4.6142Y-3.3378
X4.6561Y-1.7874
X4.6561Y-2.0236
X4.6575Y-3.1417
X4.6667Y-3.8866
X4.7717Y-3.3378
X4.874Y-3.6614
X4.9099Y-3.2185
X4.9183Y-3.1043
X4.9239Y-2.9882
X4.9719Y-3.2323
X4.9823Y-3.1762
X4.999Y-3.0278
X5.0354Y-2.8352
X5.0432Y-3.4646
X5.1044Y-3.189
X5.1141Y-3.4646
X5.1614Y-3.04
X5.185Y-3.4646
X5.1969Y-3.0144
X5.2283Y-3.1354
X5.2528Y-3.4652
X5.2638Y-3.04
X5.3102Y-0.9606
X5.3248Y-2.7874
X5.3598Y-0.6013
X5.383Y-3.3031
X5.4098Y-0.9606
X5.4134Y-3.5162
X5.4134Y-3.5782
X5.4213Y-1.7634
X5.4317Y-2.9803
X5.4824Y-1.874
X5.4843Y-3.4429
X5.5266Y-3.247
X5.5271Y-3.2953
X5.6024Y-2.5906
X5.6609Y-3.3898
X5.7136Y-1.9764
X5.7205Y-3.5453
X5.7239Y-2.5984
X5.7244Y-3.4685
X5.7756Y-2.2165
X5.8228Y-0.3181
X5.8346Y-3.4173
X5.8563Y-2.9011
X5.888Y-0.7126
X5.9016Y-2.7953
X6.1164Y-3.1398
X6.1626Y-0.3622
X6.1626Y-0.7559
X6.2244Y-3.622
X6.2255Y-0.7559
X6.2492Y-0.3622
X6.3681Y-2.9011
X6.4173Y-2.7953
X6.4293Y-0.7126
X6.4961Y-0.3181
X6.6282Y-3.078
X6.6282Y-3.1398
X6.6398Y-3.6053
X6.8228Y-2.9016
X6.8701Y-2.7953
X6.9677Y-0.6075
X7.081Y-3.1398
X7.1339Y-3.2067
X7.1358Y-2.9011
X7.1606Y-2.2638
X7.1693Y-3.4291
X7.185Y-3.085
X7.1969Y-2.1309
X7.2126Y-3.2638
X7.2283Y-2.7953
X7.2629Y-3.1457
X7.2717Y-2.9055
X7.2958Y-1.7756
X7.2992Y-1.9262
X7.2992Y-1.9774
X7.2992Y-2.0285
X7.315Y-2.8809
X7.315Y-3.1457
X7.315Y-3.3022
X7.3622Y-3.2717
X7.378Y-2.9252
X7.4094Y-1.8307
X7.4114Y-2.9011
X7.4252Y-2.1309
X7.4606Y-2.7953
X7.5047Y-1.9518
X7.6716Y-3.1398
X7.7244Y-3.6409
X8.6945Y-3.8571
X8.9094Y-1.2559
X9.3091Y-3.2571
X9.4567Y-1.0827
X9.6134Y-3.9272
X9.6673Y-2.2825
X9.6875Y-2.3268
X9.6941Y-2.4359
X9.7669Y-2.5098
X9.9567Y-3.2571
X9.9941Y-3.4512
X10.0409Y-2.1186
X10.0591Y-2.3081
X10.0756Y-2.4929
X10.0791Y-3.4614
X10.0874Y-2.436
X10.1398Y-2.1806
X10.3055Y-2.5899
X10.3402Y-3.1242
X10.4016Y-2.6519
X10.5402Y-3.0386
X10.5406Y-3.1242
X10.5512Y-2.2854
X10.5512Y-2.4035
X10.5512Y-2.5807
T3
X10.4075Y-1.7433
X10.5059Y-1.7433
T4
X10.5983Y-3.0146
X10.5983Y-3.2114
T5
X8.513Y-1.0827
X8.513Y-1.1614
X8.5917Y-1.0827
X8.5917Y-1.1614
X8.6705Y-1.0827
X8.6705Y-1.1614
X8.7492Y-1.0827
X8.7492Y-1.1614
X8.828Y-1.0827
X8.828Y-1.1614
X8.9067Y-1.0827
X8.9067Y-1.1614
X8.9854Y-1.0827
X8.9854Y-1.1614
T6
X4.774Y-3.737
X4.774Y-3.837
X4.774Y-3.937
X4.874Y-3.737
X4.874Y-3.837
X4.874Y-3.937
X4.974Y-3.737
X4.974Y-3.837
X4.974Y-3.937
X5.074Y-3.737
X5.074Y-3.837
X5.074Y-3.937
X5.174Y-3.737
X5.174Y-3.837
X5.174Y-3.937
X5.274Y-3.737
X5.274Y-3.837
X5.274Y-3.937
X5.374Y-3.737
X5.374Y-3.837
X5.374Y-3.937
X5.474Y-3.737
X5.474Y-3.837
X5.474Y-3.937
X5.574Y-3.737
X5.574Y-3.837
X5.574Y-3.937
X5.674Y-3.737
X5.674Y-3.837
X5.674Y-3.937
X5.774Y-3.737
X5.774Y-3.837
X5.774Y-3.937
X5.874Y-3.737
X5.874Y-3.837
X5.874Y-3.937
X5.974Y-3.737
X5.974Y-3.837
X5.974Y-3.937
X6.074Y-3.737
X6.074Y-3.837
X6.074Y-3.937
X6.174Y-3.737
X6.174Y-3.837
X6.174Y-3.937
X6.274Y-3.737
X6.274Y-3.837
X6.274Y-3.937
X6.374Y-3.737
X6.374Y-3.837
X6.374Y-3.937
X6.474Y-3.737
X6.474Y-3.837
X6.474Y-3.937
X6.574Y-3.737
X6.574Y-3.837
X6.574Y-3.937
X6.674Y-3.737
X6.674Y-3.837
X6.674Y-3.937
X6.774Y-3.737
X6.774Y-3.837
X6.774Y-3.937
X6.874Y-3.737
X6.874Y-3.837
X6.874Y-3.937
X6.974Y-3.737
X6.974Y-3.837
X6.974Y-3.937
X7.074Y-3.737
X7.074Y-3.837
X7.074Y-3.937
X7.174Y-3.737
X7.174Y-3.837
X7.174Y-3.937
X7.274Y-3.737
X7.274Y-3.837
X7.274Y-3.937
X7.374Y-3.737
X7.374Y-3.837
X7.374Y-3.937
X7.474Y-3.737
X7.474Y-3.837
X7.474Y-3.937
X7.574Y-3.737
X7.574Y-3.837
X7.574Y-3.937
X7.674Y-3.737
X7.674Y-3.837
X7.674Y-3.937
X7.774Y-3.737
X7.774Y-3.837
X7.774Y-3.937
X7.874Y-3.737
X7.874Y-3.837
X7.874Y-3.937
T7
X4.7992Y-0.8189
X4.7992Y-0.9189
X4.7992Y-1.0189
X4.7992Y-1.1189
X4.7992Y-1.2189
X4.7992Y-1.3189
T8
X5.1181Y-2.3311
X5.1181Y-2.4311
X5.2181Y-2.3311
X5.2181Y-2.4311
X5.3181Y-2.3311
X5.3181Y-2.4311
X5.4181Y-2.3311
X5.4181Y-2.4311
X5.5181Y-2.3311
X5.5181Y-2.4311
X5.6181Y-2.3311
X5.6181Y-2.4311
X5.7181Y-2.3311
X5.7181Y-2.4311
X5.8181Y-2.3311
X5.8181Y-2.4311
X5.9181Y-2.3311
X5.9181Y-2.4311
X6.0181Y-2.3311
X6.0181Y-2.4311
X6.1181Y-2.3311
X6.1181Y-2.4311
X6.2181Y-2.3311
X6.2181Y-2.4311
X6.3181Y-2.3311
X6.3181Y-2.4311
X6.4181Y-2.3311
X6.4181Y-2.4311
X6.5181Y-2.3311
X6.5181Y-2.4311
X6.6181Y-2.3311
X6.6181Y-2.4311
X6.7181Y-2.3311
X6.7181Y-2.4311
X6.8181Y-2.3311
X6.8181Y-2.4311
X6.9181Y-2.3311
X6.9181Y-2.4311
X7.0181Y-2.3311
X7.0181Y-2.4311
X7.1181Y-2.3311
X7.1181Y-2.4311
X7.2181Y-2.3311
X7.2181Y-2.4311
X7.3181Y-2.3311
X7.3181Y-2.4311
X7.4181Y-2.3311
X7.4181Y-2.4311
X7.5181Y-2.3311
X7.5181Y-2.4311
X7.6181Y-2.3311
X7.6181Y-2.4311
X7.7181Y-2.3311
X7.7181Y-2.4311
X7.8181Y-2.3311
X7.8181Y-2.4311
X7.9181Y-2.3311
X7.9181Y-2.4311
X8.0181Y-2.3311
X8.0181Y-2.4311
X8.1181Y-2.3311
X8.1181Y-2.4311
X8.2181Y-2.3311
X8.2181Y-2.4311
X5.1181Y-1.0811
X5.1181Y-1.1811
X5.2181Y-1.0811
X5.2181Y-1.1811
X5.3181Y-1.0811
X5.3181Y-1.1811
X5.4181Y-1.0811
X5.4181Y-1.1811
X5.5181Y-1.0811
X5.5181Y-1.1811
X5.6181Y-1.0811
X5.6181Y-1.1811
X5.7181Y-1.0811
X5.7181Y-1.1811
X5.8181Y-1.0811
X5.8181Y-1.1811
X5.9181Y-1.0811
X5.9181Y-1.1811
X6.0181Y-1.0811
X6.0181Y-1.1811
X6.1181Y-1.0811
X6.1181Y-1.1811
X6.2181Y-1.0811
X6.2181Y-1.1811
X6.3181Y-1.0811
X6.3181Y-1.1811
X6.4181Y-1.0811
X6.4181Y-1.1811
X6.5181Y-1.0811
X6.5181Y-1.1811
X6.6181Y-1.0811
X6.6181Y-1.1811
X6.7181Y-1.0811
X6.7181Y-1.1811
X6.8181Y-1.0811
X6.8181Y-1.1811
X6.9181Y-1.0811
X6.9181Y-1.1811
X7.0181Y-1.0811
X7.0181Y-1.1811
X7.1181Y-1.0811
X7.1181Y-1.1811
X7.2181Y-1.0811
X7.2181Y-1.1811
X7.3181Y-1.0811
X7.3181Y-1.1811
X7.4181Y-1.0811
X7.4181Y-1.1811
X7.5181Y-1.0811
X7.5181Y-1.1811
X7.6181Y-1.0811
X7.6181Y-1.1811
X7.7181Y-1.0811
X7.7181Y-1.1811
X7.8181Y-1.0811
X7.8181Y-1.1811
X7.9181Y-1.0811
X7.9181Y-1.1811
X8.0181Y-1.0811
X8.0181Y-1.1811
X8.1181Y-1.0811
X8.1181Y-1.1811
X8.2181Y-1.0811
X8.2181Y-1.1811
T9
X10.4059Y-0.7904
X10.4059Y-0.8904
X10.4059Y-0.9904
X10.4059Y-1.0904
X10.4059Y-1.1904
X10.4059Y-1.2904
X10.4059Y-1.3904
X10.4059Y-1.4904
X10.5059Y-0.7904
X10.5059Y-0.8904
X10.5059Y-0.9904
X10.5059Y-1.0904
X10.5059Y-1.1904
X10.5059Y-1.2904
X10.5059Y-1.3904
X10.5059Y-1.4904
T10
X8.5921Y-3.5933
X8.6921Y-3.5933
X8.7921Y-3.5933
T11
X10.5059Y-2.1673
X10.5059Y-2.7382
X10.7008Y-2.1437
X10.7008Y-2.7618
T12
X10.1319Y-1.8539
T2
X10.6908Y-2.9752G85X10.7184Y-2.9752
G05
X10.7184Y-3.2508G85X10.6908Y-3.2508
G05
T0
M30
