M48
; DRILL file {KiCad 5.1.9+dfsg1-1~bpo10+1} date Sat Mar 18 13:25:23 2023
; FORMAT={-:-/ absolute / inch / decimal}
; #@! TF.CreationDate,2023-03-18T13:25:23+01:00
; #@! TF.GenerationSoftware,Kicad,Pcbnew,5.1.9+dfsg1-1~bpo10+1
; #@! TF.FileFunction,Plated,1,4,PTH
FMAT,2
INCH
T1C0.0118
T2C0.0157
T3C0.0236
T4C0.0335
T5C0.0354
T6C0.0394
T7C0.0402
T8C0.0449
T9C0.0472
T10C0.0512
T11C0.0866
%
G90
G05
T1
X4.5354Y-3.4441
X4.5354Y-3.5209
X4.5354Y-3.572
X4.9099Y-3.2185
X4.9183Y-3.1043
X4.9239Y-2.9882
X4.9823Y-3.1762
X4.999Y-3.0278
X5.1614Y-3.04
X5.1969Y-3.0144
X5.2638Y-3.04
X5.3445Y-1.7126
X5.3756Y-1.7307
X5.4317Y-2.9803
X5.4843Y-3.4429
X5.5266Y-3.247
X5.6024Y-2.5906
X5.7205Y-3.5453
X5.7239Y-2.5984
X5.7244Y-3.4685
X5.7508Y-1.5815
X6.1164Y-3.1398
X6.6282Y-3.1398
X7.1732Y-3.3051
X7.2126Y-3.2638
X7.2283Y-3.1024
X7.2327Y-2.7894
X7.25Y-3.3169
X7.2606Y-2.2375
X7.2638Y-3.1339
X7.2878Y-2.7791
X7.2992Y-2.1575
X7.315Y-3.1457
X7.315Y-3.3022
X7.3465Y-2.1575
X7.3726Y-2.9106
X8.4892Y-1.6683
X8.5728Y-1.7421
X8.735Y-1.9142
X10.5406Y-3.1242
T2
X4.5539Y-1.5909
X4.5595Y-3.248
X4.5787Y-0.4414
X4.5787Y-0.6471
X4.5866Y-2.7224
X4.6142Y-3.3378
X4.6561Y-1.7874
X4.6561Y-2.0236
X4.6575Y-3.1417
X4.6667Y-3.8866
X4.7717Y-3.3378
X4.874Y-3.6614
X4.8756Y-1.6614
X4.9497Y-1.32
X4.9719Y-3.2323
X5.0354Y-2.8352
X5.1044Y-3.189
X5.1141Y-3.4646
X5.185Y-3.4646
X5.2283Y-3.1354
X5.2528Y-3.4652
X5.3248Y-2.7874
X5.3598Y-0.6013
X5.383Y-3.3031
X5.4134Y-3.5162
X5.4134Y-3.5782
X5.4213Y-1.7634
X5.4824Y-1.874
X5.5146Y-2.578
X5.5146Y-2.8209
X5.5271Y-3.2953
X5.6315Y-2.7039
X5.6398Y-0.4528
X5.6535Y-3.4016
X5.7136Y-1.9764
X5.8268Y-0.4528
X5.8346Y-3.4173
X5.8563Y-2.9011
X5.9016Y-2.7953
X6.0189Y-1.6606
X6.1164Y-3.078
X6.1457Y-0.3937
X6.1703Y-3.2008
X6.2244Y-3.622
X6.2323Y-0.3937
X6.3681Y-2.9011
X6.4173Y-2.7953
X6.437Y-0.4528
X6.5763Y-0.5217
X6.5831Y-0.7126
X6.6282Y-3.078
X6.6398Y-3.6053
X6.6465Y-1.8016
X6.6821Y-3.2008
X6.7908Y-0.6279
X6.8228Y-2.9016
X6.8701Y-2.7953
X6.8951Y-0.7785
X6.8951Y-0.8396
X6.948Y-1.324
X7.0635Y-3.3565
X7.0787Y-3.6409
X7.081Y-3.1398
X7.1358Y-2.9011
X7.1491Y-1.8962
X7.1491Y-2.1245
X7.2382Y-2.8922
X7.3538Y-1.9985
X7.3622Y-3.2717
X7.4114Y-2.9011
X7.4242Y-4.0492
X7.4493Y-2.1088
X7.4606Y-2.7953
X7.5044Y-1.9951
X7.6716Y-3.1398
X7.6724Y-1.4079
X7.7244Y-3.6409
X8.1693Y-2.7953
X8.2181Y-2.0
X8.4858Y-1.0811
X8.6929Y-3.8189
X8.7693Y-1.4488
X8.8369Y-3.7598
X8.9799Y-2.372
X9.0028Y-1.4488
X9.2126Y-0.5512
X9.2126Y-1.3386
X9.3091Y-3.2571
X9.6134Y-3.9272
X9.6524Y-2.2878
X9.6875Y-2.3268
X9.6941Y-2.4359
X9.7669Y-2.5098
X9.9567Y-3.2571
X9.9941Y-3.4512
X10.0409Y-2.1186
X10.0591Y-2.3081
X10.0756Y-2.4929
X10.0791Y-3.4614
X10.0874Y-2.436
X10.1398Y-2.1806
X10.2303Y-0.5512
X10.2303Y-1.3904
X10.2303Y-1.4524
X10.3055Y-2.5899
X10.3402Y-3.1242
X10.4016Y-2.6519
X10.5118Y-1.8476
X10.5118Y-1.9459
X10.5118Y-2.0079
X10.5402Y-3.0386
X10.5512Y-2.2854
X10.5512Y-2.4035
X10.5512Y-2.5807
X10.5732Y-2.0079
X10.7008Y-1.9441
T4
X10.5983Y-3.0146
X10.5983Y-3.2114
T5
X8.6252Y-1.0917
X8.6252Y-1.1705
X8.7039Y-1.0917
X8.7039Y-1.1705
X8.7827Y-1.0917
X8.7827Y-1.1705
X8.8614Y-1.0917
X8.8614Y-1.1705
X8.9402Y-1.0917
X8.9402Y-1.1705
X9.0189Y-1.0917
X9.0189Y-1.1705
X9.0976Y-1.0917
X9.0976Y-1.1705
T6
X4.774Y-3.737
X4.774Y-3.837
X4.774Y-3.937
X4.874Y-3.737
X4.874Y-3.837
X4.874Y-3.937
X4.974Y-3.737
X4.974Y-3.837
X4.974Y-3.937
X5.074Y-3.737
X5.074Y-3.837
X5.074Y-3.937
X5.174Y-3.737
X5.174Y-3.837
X5.174Y-3.937
X5.274Y-3.737
X5.274Y-3.837
X5.274Y-3.937
X5.374Y-3.737
X5.374Y-3.837
X5.374Y-3.937
X5.474Y-3.737
X5.474Y-3.837
X5.474Y-3.937
X5.574Y-3.737
X5.574Y-3.837
X5.574Y-3.937
X5.674Y-3.737
X5.674Y-3.837
X5.674Y-3.937
X5.774Y-3.737
X5.774Y-3.837
X5.774Y-3.937
X5.874Y-3.737
X5.874Y-3.837
X5.874Y-3.937
X5.974Y-3.737
X5.974Y-3.837
X5.974Y-3.937
X6.074Y-3.737
X6.074Y-3.837
X6.074Y-3.937
X6.174Y-3.737
X6.174Y-3.837
X6.174Y-3.937
X6.274Y-3.737
X6.274Y-3.837
X6.274Y-3.937
X6.374Y-3.737
X6.374Y-3.837
X6.374Y-3.937
X6.474Y-3.737
X6.474Y-3.837
X6.474Y-3.937
X6.574Y-3.737
X6.574Y-3.837
X6.574Y-3.937
X6.674Y-3.737
X6.674Y-3.837
X6.674Y-3.937
X6.774Y-3.737
X6.774Y-3.837
X6.774Y-3.937
X6.874Y-3.737
X6.874Y-3.837
X6.874Y-3.937
X6.974Y-3.737
X6.974Y-3.837
X6.974Y-3.937
X7.074Y-3.737
X7.074Y-3.837
X7.074Y-3.937
X7.174Y-3.737
X7.174Y-3.837
X7.174Y-3.937
X7.274Y-3.737
X7.274Y-3.837
X7.274Y-3.937
X7.374Y-3.737
X7.374Y-3.837
X7.374Y-3.937
X7.474Y-3.737
X7.474Y-3.837
X7.474Y-3.937
X7.574Y-3.737
X7.574Y-3.837
X7.574Y-3.937
X7.674Y-3.737
X7.674Y-3.837
X7.674Y-3.937
X7.774Y-3.737
X7.774Y-3.837
X7.774Y-3.937
X7.874Y-3.737
X7.874Y-3.837
X7.874Y-3.937
T7
X4.7795Y-0.82
X4.7795Y-0.92
X4.7795Y-1.02
X4.7795Y-1.12
X4.7795Y-1.22
X4.7795Y-1.32
X10.3543Y-0.7524
X10.3543Y-0.8524
X10.3543Y-0.9524
X10.3543Y-1.0524
X10.3543Y-1.1524
X10.3543Y-1.2524
X10.3543Y-1.3524
X10.3543Y-1.4524
X10.4543Y-0.7524
X10.4543Y-0.8524
X10.4543Y-0.9524
X10.4543Y-1.0524
X10.4543Y-1.1524
X10.4543Y-1.2524
X10.4543Y-1.3524
X10.4543Y-1.4524
T8
X5.1181Y-1.0811
X5.1181Y-1.1811
X5.1181Y-2.3311
X5.1181Y-2.4311
X5.2181Y-1.0811
X5.2181Y-1.1811
X5.2181Y-2.3311
X5.2181Y-2.4311
X5.3181Y-1.0811
X5.3181Y-1.1811
X5.3181Y-2.3311
X5.3181Y-2.4311
X5.4181Y-1.0811
X5.4181Y-1.1811
X5.4181Y-2.3311
X5.4181Y-2.4311
X5.5181Y-1.0811
X5.5181Y-1.1811
X5.5181Y-2.3311
X5.5181Y-2.4311
X5.6181Y-1.0811
X5.6181Y-1.1811
X5.6181Y-2.3311
X5.6181Y-2.4311
X5.7181Y-1.0811
X5.7181Y-1.1811
X5.7181Y-2.3311
X5.7181Y-2.4311
X5.8181Y-1.0811
X5.8181Y-1.1811
X5.8181Y-2.3311
X5.8181Y-2.4311
X5.9181Y-1.0811
X5.9181Y-1.1811
X5.9181Y-2.3311
X5.9181Y-2.4311
X6.0181Y-1.0811
X6.0181Y-1.1811
X6.0181Y-2.3311
X6.0181Y-2.4311
X6.1181Y-1.0811
X6.1181Y-1.1811
X6.1181Y-2.3311
X6.1181Y-2.4311
X6.2181Y-1.0811
X6.2181Y-1.1811
X6.2181Y-2.3311
X6.2181Y-2.4311
X6.3181Y-1.0811
X6.3181Y-1.1811
X6.3181Y-2.3311
X6.3181Y-2.4311
X6.4181Y-1.0811
X6.4181Y-1.1811
X6.4181Y-2.3311
X6.4181Y-2.4311
X6.5181Y-1.0811
X6.5181Y-1.1811
X6.5181Y-2.3311
X6.5181Y-2.4311
X6.6181Y-1.0811
X6.6181Y-1.1811
X6.6181Y-2.3311
X6.6181Y-2.4311
X6.7181Y-1.0811
X6.7181Y-1.1811
X6.7181Y-2.3311
X6.7181Y-2.4311
X6.8181Y-1.0811
X6.8181Y-1.1811
X6.8181Y-2.3311
X6.8181Y-2.4311
X6.9181Y-1.0811
X6.9181Y-1.1811
X6.9181Y-2.3311
X6.9181Y-2.4311
X7.0181Y-1.0811
X7.0181Y-1.1811
X7.0181Y-2.3311
X7.0181Y-2.4311
X7.1181Y-1.0811
X7.1181Y-1.1811
X7.1181Y-2.3311
X7.1181Y-2.4311
X7.2181Y-1.0811
X7.2181Y-1.1811
X7.2181Y-2.3311
X7.2181Y-2.4311
X7.3181Y-1.0811
X7.3181Y-1.1811
X7.3181Y-2.3311
X7.3181Y-2.4311
X7.4181Y-1.0811
X7.4181Y-1.1811
X7.4181Y-2.3311
X7.4181Y-2.4311
X7.5181Y-1.0811
X7.5181Y-1.1811
X7.5181Y-2.3311
X7.5181Y-2.4311
X7.6181Y-1.0811
X7.6181Y-1.1811
X7.6181Y-2.3311
X7.6181Y-2.4311
X7.7181Y-1.0811
X7.7181Y-1.1811
X7.7181Y-2.3311
X7.7181Y-2.4311
X7.8181Y-1.0811
X7.8181Y-1.1811
X7.8181Y-2.3311
X7.8181Y-2.4311
X7.9181Y-1.0811
X7.9181Y-1.1811
X7.9181Y-2.3311
X7.9181Y-2.4311
X8.0181Y-1.0811
X8.0181Y-1.1811
X8.0181Y-2.3311
X8.0181Y-2.4311
X8.1181Y-1.0811
X8.1181Y-1.1811
X8.1181Y-2.3311
X8.1181Y-2.4311
X8.2181Y-1.0811
X8.2181Y-1.1811
X8.2181Y-2.3311
X8.2181Y-2.4311
T9
X8.5929Y-3.9764
X8.6929Y-3.9764
X8.7929Y-3.9764
T10
X10.5059Y-2.1673
X10.5059Y-2.7382
X10.7008Y-2.1437
X10.7008Y-2.7618
T11
X10.5983Y-3.5236
T3
G00X10.6908Y-2.9752
M15
G01X10.7184Y-2.9752
M16
G05
G00X10.7184Y-3.2508
M15
G01X10.6908Y-3.2508
M16
G05
T0
M30
