M48
;DRILL file {KiCad 5.0.2+dfsg1-1~bpo9+1} date Sat Jan 29 10:57:31 2022
;FORMAT={-:-/ absolute / inch / decimal}
FMAT,2
INCH,TZ
T1C0.0157
T2C0.0236
T3C0.0315
T4C0.0335
T5C0.0354
T6C0.0394
T7C0.0402
T8C0.0449
T9C0.0469
T10C0.0472
T11C0.0512
T12C0.1201
%
G90
G05
T1
X4.5354Y-3.4441
X4.5354Y-3.5209
X4.5354Y-3.572
X4.5595Y-3.248
X4.5787Y-0.4414
X4.5787Y-0.6471
X4.6142Y-3.3378
X4.6261Y-2.0618
X4.6261Y-2.2571
X4.6261Y-2.3654
X4.6575Y-3.1417
X4.6719Y-1.5551
X4.6719Y-1.7913
X4.7717Y-3.3378
X4.9449Y-1.4991
X4.9449Y-1.6159
X4.9449Y-1.7327
X4.9449Y-1.8495
X4.9508Y-2.0608
X4.9508Y-2.8937
X4.9606Y-2.2571
X4.9606Y-2.3654
X4.9719Y-3.2323
X5.0039Y-2.7643
X5.0098Y-2.8263
X5.0432Y-3.4646
X5.078Y-3.1205
X5.1141Y-3.4646
X5.185Y-3.4646
X5.1929Y-3.128
X5.2205Y-2.8976
X5.2331Y-3.1642
X5.2528Y-3.4652
X5.2756Y-2.8445
X5.3051Y-3.0157
X5.3134Y-3.1642
X5.321Y-3.3031
X5.3484Y-3.0433
X5.3543Y-2.865
X5.3654Y-3.1638
X5.383Y-3.3031
X5.3957Y-3.0709
X5.4016Y-2.8386
X5.4134Y-3.5162
X5.4134Y-3.5782
X5.4508Y-3.1063
X5.4843Y-3.4429
X5.502Y-3.0315
X5.5162Y-2.5591
X5.5271Y-3.2953
X5.5315Y-3.0709
X5.5335Y-2.9902
X5.5768Y-0.5651
X5.6496Y-3.0689
X5.6609Y-3.3898
X5.687Y-2.9449
X5.687Y-2.9843
X5.687Y-3.0236
X5.7205Y-3.5453
X5.7244Y-3.4685
X5.748Y-2.9311
X5.7677Y-3.1811
X5.8071Y-2.9429
X5.8346Y-3.4173
X5.8425Y-2.8504
X5.8563Y-2.9011
X5.9016Y-2.7953
X5.9075Y-2.7504
X6.0354Y-0.7382
X6.0354Y-0.8661
X6.0851Y-0.5197
X6.1164Y-3.1398
X6.3105Y-0.7972
X6.3386Y-0.5787
X6.3681Y-2.9011
X6.4173Y-2.7953
X6.6282Y-3.1398
X6.8228Y-2.9016
X6.8701Y-2.7953
X7.0787Y-3.315
X7.081Y-3.1398
X7.1358Y-2.9011
X7.1693Y-3.4291
X7.187Y-3.1398
X7.2126Y-3.2638
X7.2283Y-2.7953
X7.2382Y-3.3465
X7.2717Y-2.9055
X7.2894Y-3.2638
X7.315Y-2.878
X7.315Y-3.3465
X7.3406Y-3.1398
X7.3583Y-2.9055
X7.4114Y-2.9011
X7.4606Y-2.7953
X7.6716Y-3.1398
X8.6945Y-3.8571
X8.7613Y-2.3228
X8.8244Y-3.7795
X9.1969Y-1.4409
X9.4965Y-1.4165
X9.5618Y-1.1878
X9.5972Y-1.385
X9.6673Y-2.2825
X9.6875Y-2.3268
X9.6941Y-2.4359
X9.6949Y-0.876
X9.7165Y-1.0354
X9.7252Y-1.1618
X9.7669Y-2.5098
X9.7902Y-1.365
X9.7969Y-1.5861
X9.7988Y-0.6366
X9.9016Y-0.9094
X9.9213Y-1.2992
X9.9213Y-1.3819
X9.9213Y-1.4528
X9.9362Y-2.436
X9.9567Y-3.2571
X9.9941Y-3.4512
X10.0409Y-2.1186
X10.0492Y-1.0728
X10.0591Y-2.3081
X10.0756Y-2.4929
X10.0787Y-0.876
X10.0787Y-1.1614
X10.0787Y-1.2402
X10.0787Y-1.311
X10.0791Y-3.4614
X10.0874Y-2.436
X10.1398Y-2.1806
X10.2661Y-2.5899
X10.3402Y-3.1242
X10.3622Y-2.6519
X10.5118Y-2.2854
X10.5118Y-2.4035
X10.5118Y-2.5807
X10.5402Y-3.0386
X10.5406Y-3.1242
T3
X9.9425Y-0.5268
X9.9425Y-0.6252
T4
X10.5983Y-3.0146
X10.5983Y-3.2114
T5
X4.5118Y-2.5118
X4.5118Y-2.5906
X4.5118Y-2.6693
X4.5118Y-2.748
X4.5118Y-2.8268
X4.5118Y-2.9055
X4.5118Y-2.9843
X4.5906Y-2.5118
X4.5906Y-2.5906
X4.5906Y-2.6693
X4.5906Y-2.748
X4.5906Y-2.8268
X4.5906Y-2.9055
X4.5906Y-2.9843
X8.513Y-1.0827
X8.513Y-1.1614
X8.5917Y-1.0827
X8.5917Y-1.1614
X8.6705Y-1.0827
X8.6705Y-1.1614
X8.7492Y-1.0827
X8.7492Y-1.1614
X8.828Y-1.0827
X8.828Y-1.1614
X8.9067Y-1.0827
X8.9067Y-1.1614
X8.9854Y-1.0827
X8.9854Y-1.1614
T6
X4.774Y-3.737
X4.774Y-3.837
X4.774Y-3.937
X4.874Y-3.737
X4.874Y-3.837
X4.874Y-3.937
X4.974Y-3.737
X4.974Y-3.837
X4.974Y-3.937
X5.074Y-3.737
X5.074Y-3.837
X5.074Y-3.937
X5.174Y-3.737
X5.174Y-3.837
X5.174Y-3.937
X5.274Y-3.737
X5.274Y-3.837
X5.274Y-3.937
X5.374Y-3.737
X5.374Y-3.837
X5.374Y-3.937
X5.474Y-3.737
X5.474Y-3.837
X5.474Y-3.937
X5.574Y-3.737
X5.574Y-3.837
X5.574Y-3.937
X5.674Y-3.737
X5.674Y-3.837
X5.674Y-3.937
X5.774Y-3.737
X5.774Y-3.837
X5.774Y-3.937
X5.874Y-3.737
X5.874Y-3.837
X5.874Y-3.937
X5.974Y-3.737
X5.974Y-3.837
X5.974Y-3.937
X6.074Y-3.737
X6.074Y-3.837
X6.074Y-3.937
X6.174Y-3.737
X6.174Y-3.837
X6.174Y-3.937
X6.274Y-3.737
X6.274Y-3.837
X6.274Y-3.937
X6.374Y-3.737
X6.374Y-3.837
X6.374Y-3.937
X6.474Y-3.737
X6.474Y-3.837
X6.474Y-3.937
X6.574Y-3.737
X6.574Y-3.837
X6.574Y-3.937
X6.674Y-3.737
X6.674Y-3.837
X6.674Y-3.937
X6.774Y-3.737
X6.774Y-3.837
X6.774Y-3.937
X6.874Y-3.737
X6.874Y-3.837
X6.874Y-3.937
X6.974Y-3.737
X6.974Y-3.837
X6.974Y-3.937
X7.074Y-3.737
X7.074Y-3.837
X7.074Y-3.937
X7.174Y-3.737
X7.174Y-3.837
X7.174Y-3.937
X7.274Y-3.737
X7.274Y-3.837
X7.274Y-3.937
X7.374Y-3.737
X7.374Y-3.837
X7.374Y-3.937
X7.474Y-3.737
X7.474Y-3.837
X7.474Y-3.937
X7.574Y-3.737
X7.574Y-3.837
X7.574Y-3.937
X7.674Y-3.737
X7.674Y-3.837
X7.674Y-3.937
X7.774Y-3.737
X7.774Y-3.837
X7.774Y-3.937
X7.874Y-3.737
X7.874Y-3.837
X7.874Y-3.937
T7
X4.7992Y-0.8189
X4.7992Y-0.9189
X4.7992Y-1.0189
X4.7992Y-1.1189
X4.7992Y-1.2189
X4.7992Y-1.3189
X7.9854Y-3.1134
X8.0854Y-3.1134
T8
X5.1181Y-2.3311
X5.1181Y-2.4311
X5.2181Y-2.3311
X5.2181Y-2.4311
X5.3181Y-2.3311
X5.3181Y-2.4311
X5.4181Y-2.3311
X5.4181Y-2.4311
X5.5181Y-2.3311
X5.5181Y-2.4311
X5.6181Y-2.3311
X5.6181Y-2.4311
X5.7181Y-2.3311
X5.7181Y-2.4311
X5.8181Y-2.3311
X5.8181Y-2.4311
X5.9181Y-2.3311
X5.9181Y-2.4311
X6.0181Y-2.3311
X6.0181Y-2.4311
X6.1181Y-2.3311
X6.1181Y-2.4311
X6.2181Y-2.3311
X6.2181Y-2.4311
X6.3181Y-2.3311
X6.3181Y-2.4311
X6.4181Y-2.3311
X6.4181Y-2.4311
X6.5181Y-2.3311
X6.5181Y-2.4311
X6.6181Y-2.3311
X6.6181Y-2.4311
X6.7181Y-2.3311
X6.7181Y-2.4311
X6.8181Y-2.3311
X6.8181Y-2.4311
X6.9181Y-2.3311
X6.9181Y-2.4311
X7.0181Y-2.3311
X7.0181Y-2.4311
X7.1181Y-2.3311
X7.1181Y-2.4311
X7.2181Y-2.3311
X7.2181Y-2.4311
X7.3181Y-2.3311
X7.3181Y-2.4311
X7.4181Y-2.3311
X7.4181Y-2.4311
X7.5181Y-2.3311
X7.5181Y-2.4311
X7.6181Y-2.3311
X7.6181Y-2.4311
X7.7181Y-2.3311
X7.7181Y-2.4311
X7.8181Y-2.3311
X7.8181Y-2.4311
X7.9181Y-2.3311
X7.9181Y-2.4311
X8.0181Y-2.3311
X8.0181Y-2.4311
X8.1181Y-2.3311
X8.1181Y-2.4311
X8.2181Y-2.3311
X8.2181Y-2.4311
X5.1181Y-1.0811
X5.1181Y-1.1811
X5.2181Y-1.0811
X5.2181Y-1.1811
X5.3181Y-1.0811
X5.3181Y-1.1811
X5.4181Y-1.0811
X5.4181Y-1.1811
X5.5181Y-1.0811
X5.5181Y-1.1811
X5.6181Y-1.0811
X5.6181Y-1.1811
X5.7181Y-1.0811
X5.7181Y-1.1811
X5.8181Y-1.0811
X5.8181Y-1.1811
X5.9181Y-1.0811
X5.9181Y-1.1811
X6.0181Y-1.0811
X6.0181Y-1.1811
X6.1181Y-1.0811
X6.1181Y-1.1811
X6.2181Y-1.0811
X6.2181Y-1.1811
X6.3181Y-1.0811
X6.3181Y-1.1811
X6.4181Y-1.0811
X6.4181Y-1.1811
X6.5181Y-1.0811
X6.5181Y-1.1811
X6.6181Y-1.0811
X6.6181Y-1.1811
X6.7181Y-1.0811
X6.7181Y-1.1811
X6.8181Y-1.0811
X6.8181Y-1.1811
X6.9181Y-1.0811
X6.9181Y-1.1811
X7.0181Y-1.0811
X7.0181Y-1.1811
X7.1181Y-1.0811
X7.1181Y-1.1811
X7.2181Y-1.0811
X7.2181Y-1.1811
X7.3181Y-1.0811
X7.3181Y-1.1811
X7.4181Y-1.0811
X7.4181Y-1.1811
X7.5181Y-1.0811
X7.5181Y-1.1811
X7.6181Y-1.0811
X7.6181Y-1.1811
X7.7181Y-1.0811
X7.7181Y-1.1811
X7.8181Y-1.0811
X7.8181Y-1.1811
X7.9181Y-1.0811
X7.9181Y-1.1811
X8.0181Y-1.0811
X8.0181Y-1.1811
X8.1181Y-1.0811
X8.1181Y-1.1811
X8.2181Y-1.0811
X8.2181Y-1.1811
T9
X10.215Y-1.1535
X10.215Y-1.2437
X10.215Y-1.3339
X10.215Y-1.424
X10.215Y-1.5142
X10.315Y-1.1087
X10.315Y-1.1988
X10.315Y-1.289
X10.315Y-1.3791
X10.315Y-1.4693
X10.415Y-1.1535
X10.415Y-1.2437
X10.415Y-1.3337
X10.415Y-1.424
X10.415Y-1.5142
T10
X8.5921Y-3.5933
X8.6921Y-3.5933
X8.7921Y-3.5933
T11
X10.4665Y-2.1673
X10.4665Y-2.7382
X10.6614Y-2.1437
X10.6614Y-2.7618
T12
X10.315Y-0.8319
X10.315Y-1.8161
T2
X10.6908Y-2.9752G85X10.7184Y-2.9752
G05
X10.7184Y-3.2508G85X10.6908Y-3.2508
G05
T0
M30
