M48
;DRILL file {KiCad 5.0.2+dfsg1-1~bpo9+1} date Thu Jun 30 13:02:41 2022
;FORMAT={-:-/ absolute / inch / decimal}
FMAT,2
INCH,TZ
T1C0.0157
T2C0.0236
T3C0.0315
T4C0.0335
T5C0.0354
T6C0.0394
T7C0.0402
T8C0.0449
T9C0.0469
T10C0.0472
T11C0.0512
%
G90
G05
T1
X4.5354Y-3.4441
X4.5354Y-3.5209
X4.5354Y-3.572
X4.5595Y-3.248
X4.5787Y-0.4414
X4.5787Y-0.6471
X4.6142Y-3.3378
X4.6561Y-1.5118
X4.6561Y-1.748
X4.6575Y-3.1417
X4.6667Y-3.8866
X4.7717Y-3.3378
X4.874Y-3.6614
X4.9099Y-3.2185
X4.9183Y-3.1043
X4.9239Y-2.9882
X4.9291Y-1.4558
X4.9291Y-1.5726
X4.9291Y-1.6894
X4.9291Y-1.8062
X4.9719Y-3.2323
X4.9823Y-3.1762
X4.999Y-3.0728
X5.0404Y-2.9744
X5.0432Y-3.4646
X5.1141Y-3.4646
X5.1516Y-3.0512
X5.1516Y-3.128
X5.185Y-3.4646
X5.2528Y-3.4652
X5.2815Y-3.
X5.2815Y-3.0768
X5.3307Y-2.7618
X5.3327Y-2.9222
X5.383Y-3.3031
X5.3927Y-3.1024
X5.4134Y-3.5162
X5.4134Y-3.5782
X5.4213Y-1.7634
X5.4824Y-1.874
X5.4843Y-3.4429
X5.5266Y-3.247
X5.5271Y-3.2953
X5.6024Y-2.5906
X5.6609Y-3.3898
X5.7136Y-1.9764
X5.7205Y-3.5453
X5.7239Y-2.5984
X5.7244Y-3.4685
X5.7874Y-1.8661
X5.813Y-2.7559
X5.8346Y-3.4173
X5.8563Y-2.9011
X5.9016Y-2.7953
X5.9026Y-0.565
X5.939Y-2.0039
X6.0827Y-0.5236
X6.1164Y-3.1398
X6.1442Y-0.9852
X6.1501Y-0.7579
X6.1693Y-0.4414
X6.2121Y-0.7579
X6.218Y-0.9862
X6.2244Y-3.622
X6.3681Y-2.9011
X6.4173Y-2.7953
X6.4439Y-0.565
X6.6282Y-3.1398
X6.6398Y-3.6053
X6.8228Y-2.9016
X6.8701Y-2.7953
X7.081Y-3.1398
X7.1142Y-1.9724
X7.1339Y-3.2067
X7.1358Y-2.9011
X7.1693Y-3.4291
X7.1732Y-1.9469
X7.1732Y-2.0236
X7.185Y-3.1457
X7.2126Y-3.2638
X7.2283Y-2.7953
X7.2629Y-3.1457
X7.2717Y-2.9055
X7.2835Y-1.9213
X7.2835Y-1.998
X7.2835Y-2.0748
X7.3031Y-0.5926
X7.315Y-2.8809
X7.315Y-3.1457
X7.315Y-3.3022
X7.3346Y-2.0492
X7.3583Y-2.9055
X7.3622Y-3.2717
X7.4114Y-1.9469
X7.4114Y-2.0236
X7.4114Y-2.9011
X7.4606Y-2.7953
X7.5217Y-1.9213
X7.5217Y-1.9724
X7.5217Y-2.0492
X7.5551Y-2.0748
X7.6378Y-1.998
X7.6716Y-3.1398
X7.6961Y-0.593
X7.7244Y-3.5079
X7.7244Y-3.6409
X8.6945Y-3.8571
X9.3091Y-3.2571
X9.6134Y-3.9272
X9.6673Y-2.2825
X9.6875Y-2.3268
X9.6941Y-2.4359
X9.7669Y-2.5098
X9.9567Y-3.2571
X9.9941Y-3.4512
X10.0409Y-2.1186
X10.0591Y-2.3081
X10.0756Y-2.4929
X10.0791Y-3.4614
X10.0874Y-2.436
X10.1398Y-2.1806
X10.2661Y-2.5899
X10.3402Y-3.1242
X10.3563Y-1.5634
X10.3622Y-2.6519
X10.5118Y-2.2854
X10.5118Y-2.4035
X10.5118Y-2.5807
X10.5402Y-3.0386
X10.5406Y-3.1242
T3
X10.3677Y-1.7071
X10.4661Y-1.7071
T4
X10.5983Y-3.0146
X10.5983Y-3.2114
T5
X8.513Y-1.0827
X8.513Y-1.1614
X8.5917Y-1.0827
X8.5917Y-1.1614
X8.6705Y-1.0827
X8.6705Y-1.1614
X8.7492Y-1.0827
X8.7492Y-1.1614
X8.828Y-1.0827
X8.828Y-1.1614
X8.9067Y-1.0827
X8.9067Y-1.1614
X8.9854Y-1.0827
X8.9854Y-1.1614
T6
X4.774Y-3.737
X4.774Y-3.837
X4.774Y-3.937
X4.874Y-3.737
X4.874Y-3.837
X4.874Y-3.937
X4.974Y-3.737
X4.974Y-3.837
X4.974Y-3.937
X5.074Y-3.737
X5.074Y-3.837
X5.074Y-3.937
X5.174Y-3.737
X5.174Y-3.837
X5.174Y-3.937
X5.274Y-3.737
X5.274Y-3.837
X5.274Y-3.937
X5.374Y-3.737
X5.374Y-3.837
X5.374Y-3.937
X5.474Y-3.737
X5.474Y-3.837
X5.474Y-3.937
X5.574Y-3.737
X5.574Y-3.837
X5.574Y-3.937
X5.674Y-3.737
X5.674Y-3.837
X5.674Y-3.937
X5.774Y-3.737
X5.774Y-3.837
X5.774Y-3.937
X5.874Y-3.737
X5.874Y-3.837
X5.874Y-3.937
X5.974Y-3.737
X5.974Y-3.837
X5.974Y-3.937
X6.074Y-3.737
X6.074Y-3.837
X6.074Y-3.937
X6.174Y-3.737
X6.174Y-3.837
X6.174Y-3.937
X6.274Y-3.737
X6.274Y-3.837
X6.274Y-3.937
X6.374Y-3.737
X6.374Y-3.837
X6.374Y-3.937
X6.474Y-3.737
X6.474Y-3.837
X6.474Y-3.937
X6.574Y-3.737
X6.574Y-3.837
X6.574Y-3.937
X6.674Y-3.737
X6.674Y-3.837
X6.674Y-3.937
X6.774Y-3.737
X6.774Y-3.837
X6.774Y-3.937
X6.874Y-3.737
X6.874Y-3.837
X6.874Y-3.937
X6.974Y-3.737
X6.974Y-3.837
X6.974Y-3.937
X7.074Y-3.737
X7.074Y-3.837
X7.074Y-3.937
X7.174Y-3.737
X7.174Y-3.837
X7.174Y-3.937
X7.274Y-3.737
X7.274Y-3.837
X7.274Y-3.937
X7.374Y-3.737
X7.374Y-3.837
X7.374Y-3.937
X7.474Y-3.737
X7.474Y-3.837
X7.474Y-3.937
X7.574Y-3.737
X7.574Y-3.837
X7.574Y-3.937
X7.674Y-3.737
X7.674Y-3.837
X7.674Y-3.937
X7.774Y-3.737
X7.774Y-3.837
X7.774Y-3.937
X7.874Y-3.737
X7.874Y-3.837
X7.874Y-3.937
T7
X7.9854Y-3.1134
X8.0854Y-3.1134
X4.7992Y-0.8189
X4.7992Y-0.9189
X4.7992Y-1.0189
X4.7992Y-1.1189
X4.7992Y-1.2189
X4.7992Y-1.3189
T8
X5.1181Y-1.0811
X5.1181Y-1.1811
X5.2181Y-1.0811
X5.2181Y-1.1811
X5.3181Y-1.0811
X5.3181Y-1.1811
X5.4181Y-1.0811
X5.4181Y-1.1811
X5.5181Y-1.0811
X5.5181Y-1.1811
X5.6181Y-1.0811
X5.6181Y-1.1811
X5.7181Y-1.0811
X5.7181Y-1.1811
X5.8181Y-1.0811
X5.8181Y-1.1811
X5.9181Y-1.0811
X5.9181Y-1.1811
X6.0181Y-1.0811
X6.0181Y-1.1811
X6.1181Y-1.0811
X6.1181Y-1.1811
X6.2181Y-1.0811
X6.2181Y-1.1811
X6.3181Y-1.0811
X6.3181Y-1.1811
X6.4181Y-1.0811
X6.4181Y-1.1811
X6.5181Y-1.0811
X6.5181Y-1.1811
X6.6181Y-1.0811
X6.6181Y-1.1811
X6.7181Y-1.0811
X6.7181Y-1.1811
X6.8181Y-1.0811
X6.8181Y-1.1811
X6.9181Y-1.0811
X6.9181Y-1.1811
X7.0181Y-1.0811
X7.0181Y-1.1811
X7.1181Y-1.0811
X7.1181Y-1.1811
X7.2181Y-1.0811
X7.2181Y-1.1811
X7.3181Y-1.0811
X7.3181Y-1.1811
X7.4181Y-1.0811
X7.4181Y-1.1811
X7.5181Y-1.0811
X7.5181Y-1.1811
X7.6181Y-1.0811
X7.6181Y-1.1811
X7.7181Y-1.0811
X7.7181Y-1.1811
X7.8181Y-1.0811
X7.8181Y-1.1811
X7.9181Y-1.0811
X7.9181Y-1.1811
X8.0181Y-1.0811
X8.0181Y-1.1811
X8.1181Y-1.0811
X8.1181Y-1.1811
X8.2181Y-1.0811
X8.2181Y-1.1811
X5.1181Y-2.3311
X5.1181Y-2.4311
X5.2181Y-2.3311
X5.2181Y-2.4311
X5.3181Y-2.3311
X5.3181Y-2.4311
X5.4181Y-2.3311
X5.4181Y-2.4311
X5.5181Y-2.3311
X5.5181Y-2.4311
X5.6181Y-2.3311
X5.6181Y-2.4311
X5.7181Y-2.3311
X5.7181Y-2.4311
X5.8181Y-2.3311
X5.8181Y-2.4311
X5.9181Y-2.3311
X5.9181Y-2.4311
X6.0181Y-2.3311
X6.0181Y-2.4311
X6.1181Y-2.3311
X6.1181Y-2.4311
X6.2181Y-2.3311
X6.2181Y-2.4311
X6.3181Y-2.3311
X6.3181Y-2.4311
X6.4181Y-2.3311
X6.4181Y-2.4311
X6.5181Y-2.3311
X6.5181Y-2.4311
X6.6181Y-2.3311
X6.6181Y-2.4311
X6.7181Y-2.3311
X6.7181Y-2.4311
X6.8181Y-2.3311
X6.8181Y-2.4311
X6.9181Y-2.3311
X6.9181Y-2.4311
X7.0181Y-2.3311
X7.0181Y-2.4311
X7.1181Y-2.3311
X7.1181Y-2.4311
X7.2181Y-2.3311
X7.2181Y-2.4311
X7.3181Y-2.3311
X7.3181Y-2.4311
X7.4181Y-2.3311
X7.4181Y-2.4311
X7.5181Y-2.3311
X7.5181Y-2.4311
X7.6181Y-2.3311
X7.6181Y-2.4311
X7.7181Y-2.3311
X7.7181Y-2.4311
X7.8181Y-2.3311
X7.8181Y-2.4311
X7.9181Y-2.3311
X7.9181Y-2.4311
X8.0181Y-2.3311
X8.0181Y-2.4311
X8.1181Y-2.3311
X8.1181Y-2.4311
X8.2181Y-2.3311
X8.2181Y-2.4311
T9
X4.7937Y-1.9626
X4.7937Y-2.0626
X4.7937Y-2.1626
X4.7937Y-2.2626
X4.7937Y-2.3626
X4.7937Y-2.4626
X4.8937Y-1.9626
X4.8937Y-2.0626
X4.8937Y-2.1626
X4.8937Y-2.2626
X4.8937Y-2.3626
X4.8937Y-2.4626
T10
X8.5921Y-3.5933
X8.6921Y-3.5933
X8.7921Y-3.5933
T11
X10.4665Y-2.1673
X10.4665Y-2.7382
X10.6614Y-2.1437
X10.6614Y-2.7618
T2
X10.6908Y-2.9752G85X10.7184Y-2.9752
G05
X10.7184Y-3.2508G85X10.6908Y-3.2508
G05
T0
M30
